<?xml version="1.0" encoding="utf-8" standalone="no"?>
<!DOCTYPE svg PUBLIC "-//W3C//DTD SVG 1.1//EN"
  "http://www.w3.org/Graphics/SVG/1.1/DTD/svg11.dtd">
<svg xmlns:xlink="http://www.w3.org/1999/xlink" width="460.8pt" height="345.6pt" viewBox="0 0 460.8 345.6" xmlns="http://www.w3.org/2000/svg" version="1.1">
 <metadata>
  <rdf:RDF xmlns:dc="http://purl.org/dc/elements/1.1/" xmlns:cc="http://creativecommons.org/ns#" xmlns:rdf="http://www.w3.org/1999/02/22-rdf-syntax-ns#">
   <cc:Work>
    <dc:type rdf:resource="http://purl.org/dc/dcmitype/StillImage"/>
    <dc:date>2025-02-06T22:38:32.474298</dc:date>
    <dc:format>image/svg+xml</dc:format>
    <dc:creator>
     <cc:Agent>
      <dc:title>Matplotlib v3.8.0, https://matplotlib.org/</dc:title>
     </cc:Agent>
    </dc:creator>
   </cc:Work>
  </rdf:RDF>
 </metadata>
 <defs>
  <style type="text/css">*{stroke-linejoin: round; stroke-linecap: butt}</style>
 </defs>
 <g id="figure_1">
  <g id="patch_1">
   <path d="M 0 345.6 
L 460.8 345.6 
L 460.8 0 
L 0 0 
z
" style="fill: #ffffff"/>
  </g>
  <g id="axes_1">
   <g id="patch_2">
    <path d="M 154.305 53.306957 
L 446.22 53.306957 
L 446.22 30.42 
L 154.305 30.42 
z
" style="fill: #ffffff"/>
   </g>
   <g id="PolyCollection_1">
    <path d="M 225.971648 32.450135 
L 225.971648 32.277629 
L 226.71086 32.261693 
L 227.450073 32.253925 
L 228.189285 32.245957 
L 228.928498 32.238188 
L 229.66771 32.214682 
L 230.406923 32.190978 
L 231.146135 32.179225 
L 231.885348 32.167472 
L 232.62456 32.143967 
L 233.363772 32.380217 
L 233.363772 32.450135 
L 233.363772 32.450135 
L 232.62456 32.450135 
L 231.885348 32.450135 
L 231.146135 32.450135 
L 230.406923 32.450135 
L 229.66771 32.450135 
L 228.928498 32.450135 
L 228.189285 32.450135 
L 227.450073 32.450135 
L 226.71086 32.450135 
L 225.971648 32.450135 
z
" clip-path="url(#p65fdd2a8fd)" style="fill: #008000; fill-opacity: 0.3"/>
    <path d="M 313.93793 32.450135 
L 313.93793 32.325039 
L 314.677143 31.892578 
L 315.416355 31.676447 
L 316.155568 31.460316 
L 316.89478 31.705729 
L 317.633993 31.951142 
L 318.373205 32.033013 
L 319.112418 32.114685 
L 319.85163 32.196555 
L 320.590843 32.27982 
L 320.590843 32.450135 
L 320.590843 32.450135 
L 319.85163 32.450135 
L 319.112418 32.450135 
L 318.373205 32.450135 
L 317.633993 32.450135 
L 316.89478 32.450135 
L 316.155568 32.450135 
L 315.416355 32.450135 
L 314.677143 32.450135 
L 313.93793 32.450135 
z
" clip-path="url(#p65fdd2a8fd)" style="fill: #008000; fill-opacity: 0.3"/>
    <path d="M 387.119964 32.450135 
L 387.119964 32.254323 
L 387.859176 32.22763 
L 388.598389 32.120461 
L 389.337601 32.066877 
L 390.076814 32.013292 
L 390.816026 31.866284 
L 391.555239 31.719474 
L 392.294451 31.670471 
L 393.033664 31.621468 
L 393.772876 31.572465 
L 394.512089 31.763696 
L 395.251301 31.954927 
L 395.990513 32.146158 
L 396.729726 32.337389 
L 396.729726 32.450135 
L 396.729726 32.450135 
L 395.990513 32.450135 
L 395.251301 32.450135 
L 394.512089 32.450135 
L 393.772876 32.450135 
L 393.033664 32.450135 
L 392.294451 32.450135 
L 391.555239 32.450135 
L 390.816026 32.450135 
L 390.076814 32.450135 
L 389.337601 32.450135 
L 388.598389 32.450135 
L 387.859176 32.450135 
L 387.119964 32.450135 
z
" clip-path="url(#p65fdd2a8fd)" style="fill: #008000; fill-opacity: 0.3"/>
   </g>
   <g id="PolyCollection_2">
    <path d="M 234.102985 32.450135 
L 234.102985 32.4589 
L 234.842197 32.537584 
L 235.58141 32.616467 
L 236.320622 32.852517 
L 237.059835 33.088767 
L 237.799047 33.528001 
L 238.53826 33.747717 
L 239.277472 33.967234 
L 240.016685 34.406667 
L 240.755897 34.845901 
L 241.49511 35.285134 
L 242.234322 35.749467 
L 242.973534 36.213799 
L 243.712747 36.368577 
L 244.451959 36.523354 
L 245.191172 36.678132 
L 245.930384 37.142465 
L 246.669597 37.743448 
L 247.408809 38.344431 
L 248.148022 38.945414 
L 248.887234 39.054973 
L 249.626447 39.109753 
L 250.365659 39.164732 
L 251.104871 39.274291 
L 251.844084 39.38385 
L 252.583296 38.724502 
L 253.322509 38.504587 
L 254.061721 38.28487 
L 254.800934 38.064955 
L 255.540146 37.73528 
L 256.279359 37.405606 
L 257.018571 37.24067 
L 257.757784 37.075733 
L 258.496996 36.746059 
L 259.236209 36.355231 
L 259.975421 35.964602 
L 260.714633 35.573773 
L 261.453846 35.589908 
L 262.193058 35.606044 
L 262.932271 35.622179 
L 263.671483 35.670783 
L 264.410696 35.719188 
L 265.149908 36.109618 
L 265.889121 36.500048 
L 266.628333 36.695263 
L 267.367546 36.890478 
L 268.106758 37.52413 
L 268.84597 38.157582 
L 269.585183 39.819299 
L 270.324395 40.628844 
L 271.063608 41.033416 
L 271.80282 41.438189 
L 272.542033 42.021443 
L 273.281245 42.31307 
L 274.020458 42.604498 
L 274.75967 43.187752 
L 275.498883 44.882736 
L 276.238095 45.792676 
L 276.977308 46.702617 
L 277.71652 47.577698 
L 278.455732 48.452579 
L 279.194945 48.99201 
L 279.934157 49.53144 
L 280.67337 50.070871 
L 281.412582 50.546757 
L 282.151795 51.022643 
L 282.891007 51.974416 
L 283.63022 52.071824 
L 284.369432 52.104293 
L 285.108645 52.136763 
L 285.847857 52.169232 
L 286.58707 52.26664 
L 287.326282 52.022422 
L 288.065494 51.778205 
L 288.804707 51.533987 
L 289.543919 50.801134 
L 290.283132 49.435426 
L 291.022344 48.53206 
L 291.761557 48.230871 
L 292.500769 47.929682 
L 293.239982 47.628493 
L 293.979194 46.725126 
L 294.718407 45.17018 
L 295.457619 43.615034 
L 296.196831 43.21564 
L 296.936044 42.816247 
L 297.675256 42.01726 
L 298.414469 41.723441 
L 299.153681 41.429623 
L 299.892894 40.841986 
L 300.632106 40.25435 
L 301.371319 39.666713 
L 302.110531 39.347596 
L 302.849744 39.02848 
L 303.588956 38.390047 
L 304.328169 37.751814 
L 305.067381 36.804623 
L 305.806593 36.488694 
L 306.545806 36.172964 
L 307.285018 35.857233 
L 308.024231 35.222187 
L 308.763443 34.58734 
L 309.502656 33.952294 
L 310.241868 33.54553 
L 310.981081 33.138766 
L 311.720293 32.935185 
L 312.459506 32.731803 
L 313.198718 32.528421 
L 313.198718 32.450135 
L 313.198718 32.450135 
L 312.459506 32.450135 
L 311.720293 32.450135 
L 310.981081 32.450135 
L 310.241868 32.450135 
L 309.502656 32.450135 
L 308.763443 32.450135 
L 308.024231 32.450135 
L 307.285018 32.450135 
L 306.545806 32.450135 
L 305.806593 32.450135 
L 305.067381 32.450135 
L 304.328169 32.450135 
L 303.588956 32.450135 
L 302.849744 32.450135 
L 302.110531 32.450135 
L 301.371319 32.450135 
L 300.632106 32.450135 
L 299.892894 32.450135 
L 299.153681 32.450135 
L 298.414469 32.450135 
L 297.675256 32.450135 
L 296.936044 32.450135 
L 296.196831 32.450135 
L 295.457619 32.450135 
L 294.718407 32.450135 
L 293.979194 32.450135 
L 293.239982 32.450135 
L 292.500769 32.450135 
L 291.761557 32.450135 
L 291.022344 32.450135 
L 290.283132 32.450135 
L 289.543919 32.450135 
L 288.804707 32.450135 
L 288.065494 32.450135 
L 287.326282 32.450135 
L 286.58707 32.450135 
L 285.847857 32.450135 
L 285.108645 32.450135 
L 284.369432 32.450135 
L 283.63022 32.450135 
L 282.891007 32.450135 
L 282.151795 32.450135 
L 281.412582 32.450135 
L 280.67337 32.450135 
L 279.934157 32.450135 
L 279.194945 32.450135 
L 278.455732 32.450135 
L 277.71652 32.450135 
L 276.977308 32.450135 
L 276.238095 32.450135 
L 275.498883 32.450135 
L 274.75967 32.450135 
L 274.020458 32.450135 
L 273.281245 32.450135 
L 272.542033 32.450135 
L 271.80282 32.450135 
L 271.063608 32.450135 
L 270.324395 32.450135 
L 269.585183 32.450135 
L 268.84597 32.450135 
L 268.106758 32.450135 
L 267.367546 32.450135 
L 266.628333 32.450135 
L 265.889121 32.450135 
L 265.149908 32.450135 
L 264.410696 32.450135 
L 263.671483 32.450135 
L 262.932271 32.450135 
L 262.193058 32.450135 
L 261.453846 32.450135 
L 260.714633 32.450135 
L 259.975421 32.450135 
L 259.236209 32.450135 
L 258.496996 32.450135 
L 257.757784 32.450135 
L 257.018571 32.450135 
L 256.279359 32.450135 
L 255.540146 32.450135 
L 254.800934 32.450135 
L 254.061721 32.450135 
L 253.322509 32.450135 
L 252.583296 32.450135 
L 251.844084 32.450135 
L 251.104871 32.450135 
L 250.365659 32.450135 
L 249.626447 32.450135 
L 248.887234 32.450135 
L 248.148022 32.450135 
L 247.408809 32.450135 
L 246.669597 32.450135 
L 245.930384 32.450135 
L 245.191172 32.450135 
L 244.451959 32.450135 
L 243.712747 32.450135 
L 242.973534 32.450135 
L 242.234322 32.450135 
L 241.49511 32.450135 
L 240.755897 32.450135 
L 240.016685 32.450135 
L 239.277472 32.450135 
L 238.53826 32.450135 
L 237.799047 32.450135 
L 237.059835 32.450135 
L 236.320622 32.450135 
L 235.58141 32.450135 
L 234.842197 32.450135 
L 234.102985 32.450135 
z
" clip-path="url(#p65fdd2a8fd)" style="fill: #ff0000; fill-opacity: 0.3"/>
    <path d="M 397.468938 32.450135 
L 397.468938 32.719851 
L 398.208151 33.829787 
L 398.947363 34.384556 
L 399.686576 34.939524 
L 400.425788 35.476365 
L 401.165001 36.013405 
L 401.904213 36.550246 
L 402.643426 37.355807 
L 403.382638 37.758388 
L 404.12185 38.161168 
L 404.861063 38.966728 
L 405.600275 39.772089 
L 406.339488 40.738005 
L 407.0787 41.703721 
L 407.817913 42.231399 
L 408.557125 42.758877 
L 409.296338 42.93477 
L 410.03555 43.110663 
L 410.774763 43.286555 
L 411.513975 43.650292 
L 412.253188 44.014229 
L 412.9924 44.741703 
L 413.731612 45.000064 
L 414.470825 45.258425 
L 415.210037 45.387705 
L 415.94925 45.516786 
L 416.688462 45.775147 
L 417.427675 45.481926 
L 418.166887 45.188905 
L 418.9061 45.042294 
L 419.645312 44.895684 
L 420.384525 44.569396 
L 421.123737 44.406252 
L 421.862949 44.243108 
L 422.602162 43.895705 
L 423.341374 43.548502 
L 424.080587 43.3748 
L 424.819799 43.201099 
L 425.559012 42.853696 
L 426.298224 42.506492 
L 427.037437 42.159089 
L 427.776649 41.817463 
L 428.515862 41.475837 
L 429.255074 41.247954 
L 429.994287 41.020269 
L 430.733499 40.792386 
L 431.472711 40.792386 
L 432.211924 40.792386 
L 432.951136 40.792386 
L 432.951136 32.450135 
L 432.951136 32.450135 
L 432.211924 32.450135 
L 431.472711 32.450135 
L 430.733499 32.450135 
L 429.994287 32.450135 
L 429.255074 32.450135 
L 428.515862 32.450135 
L 427.776649 32.450135 
L 427.037437 32.450135 
L 426.298224 32.450135 
L 425.559012 32.450135 
L 424.819799 32.450135 
L 424.080587 32.450135 
L 423.341374 32.450135 
L 422.602162 32.450135 
L 421.862949 32.450135 
L 421.123737 32.450135 
L 420.384525 32.450135 
L 419.645312 32.450135 
L 418.9061 32.450135 
L 418.166887 32.450135 
L 417.427675 32.450135 
L 416.688462 32.450135 
L 415.94925 32.450135 
L 415.210037 32.450135 
L 414.470825 32.450135 
L 413.731612 32.450135 
L 412.9924 32.450135 
L 412.253188 32.450135 
L 411.513975 32.450135 
L 410.774763 32.450135 
L 410.03555 32.450135 
L 409.296338 32.450135 
L 408.557125 32.450135 
L 407.817913 32.450135 
L 407.0787 32.450135 
L 406.339488 32.450135 
L 405.600275 32.450135 
L 404.861063 32.450135 
L 404.12185 32.450135 
L 403.382638 32.450135 
L 402.643426 32.450135 
L 401.904213 32.450135 
L 401.165001 32.450135 
L 400.425788 32.450135 
L 399.686576 32.450135 
L 398.947363 32.450135 
L 398.208151 32.450135 
L 397.468938 32.450135 
z
" clip-path="url(#p65fdd2a8fd)" style="fill: #ff0000; fill-opacity: 0.3"/>
   </g>
   <g id="matplotlib.axis_1">
    <g id="ytick_1">
     <g id="line2d_1">
      <path d="M 154.305 52.370025 
L 446.22 52.370025 
" clip-path="url(#p65fdd2a8fd)" style="fill: none; stroke: #b0b0b0; stroke-width: 0.8; stroke-linecap: square"/>
     </g>
     <g id="line2d_2">
      <defs>
       <path id="m9586d1e109" d="M 0 0 
L -3.5 0 
" style="stroke: #000000; stroke-width: 0.8"/>
      </defs>
      <g>
       <use xlink:href="#m9586d1e109" x="154.305" y="52.370025" style="stroke: #000000; stroke-width: 0.8"/>
      </g>
     </g>
     <g id="text_1">
      <!-- −1000 -->
      <g transform="translate(101.634922 57.49897) scale(0.135 -0.135)">
       <defs>
        <path id="DejaVuSans-2212" d="M 678 2272 
L 4684 2272 
L 4684 1741 
L 678 1741 
L 678 2272 
z
" transform="scale(0.015625)"/>
        <path id="DejaVuSans-31" d="M 794 531 
L 1825 531 
L 1825 4091 
L 703 3866 
L 703 4441 
L 1819 4666 
L 2450 4666 
L 2450 531 
L 3481 531 
L 3481 0 
L 794 0 
L 794 531 
z
" transform="scale(0.015625)"/>
        <path id="DejaVuSans-30" d="M 2034 4250 
Q 1547 4250 1301 3770 
Q 1056 3291 1056 2328 
Q 1056 1369 1301 889 
Q 1547 409 2034 409 
Q 2525 409 2770 889 
Q 3016 1369 3016 2328 
Q 3016 3291 2770 3770 
Q 2525 4250 2034 4250 
z
M 2034 4750 
Q 2819 4750 3233 4129 
Q 3647 3509 3647 2328 
Q 3647 1150 3233 529 
Q 2819 -91 2034 -91 
Q 1250 -91 836 529 
Q 422 1150 422 2328 
Q 422 3509 836 4129 
Q 1250 4750 2034 4750 
z
" transform="scale(0.015625)"/>
       </defs>
       <use xlink:href="#DejaVuSans-2212"/>
       <use xlink:href="#DejaVuSans-31" x="83.789062"/>
       <use xlink:href="#DejaVuSans-30" x="147.412109"/>
       <use xlink:href="#DejaVuSans-30" x="211.035156"/>
       <use xlink:href="#DejaVuSans-30" x="274.658203"/>
      </g>
     </g>
    </g>
    <g id="ytick_2">
     <g id="line2d_3">
      <path d="M 154.305 32.450135 
L 446.22 32.450135 
" clip-path="url(#p65fdd2a8fd)" style="fill: none; stroke: #b0b0b0; stroke-width: 0.8; stroke-linecap: square"/>
     </g>
     <g id="line2d_4">
      <g>
       <use xlink:href="#m9586d1e109" x="154.305" y="32.450135" style="stroke: #000000; stroke-width: 0.8"/>
      </g>
     </g>
     <g id="text_2">
      <!-- 0 -->
      <g transform="translate(138.715625 37.579081) scale(0.135 -0.135)">
       <use xlink:href="#DejaVuSans-30"/>
      </g>
     </g>
    </g>
    <g id="text_3">
     <!-- ΔP[kW] -->
     <g transform="translate(27.097617 39.0559) scale(0.135 -0.135)">
      <defs>
       <path id="DejaVuSans-394" d="M 2188 4044 
L 906 525 
L 3472 525 
L 2188 4044 
z
M 50 0 
L 1831 4666 
L 2547 4666 
L 4325 0 
L 50 0 
z
" transform="scale(0.015625)"/>
       <path id="DejaVuSans-50" d="M 1259 4147 
L 1259 2394 
L 2053 2394 
Q 2494 2394 2734 2622 
Q 2975 2850 2975 3272 
Q 2975 3691 2734 3919 
Q 2494 4147 2053 4147 
L 1259 4147 
z
M 628 4666 
L 2053 4666 
Q 2838 4666 3239 4311 
Q 3641 3956 3641 3272 
Q 3641 2581 3239 2228 
Q 2838 1875 2053 1875 
L 1259 1875 
L 1259 0 
L 628 0 
L 628 4666 
z
" transform="scale(0.015625)"/>
       <path id="DejaVuSans-5b" d="M 550 4863 
L 1875 4863 
L 1875 4416 
L 1125 4416 
L 1125 -397 
L 1875 -397 
L 1875 -844 
L 550 -844 
L 550 4863 
z
" transform="scale(0.015625)"/>
       <path id="DejaVuSans-6b" d="M 581 4863 
L 1159 4863 
L 1159 1991 
L 2875 3500 
L 3609 3500 
L 1753 1863 
L 3688 0 
L 2938 0 
L 1159 1709 
L 1159 0 
L 581 0 
L 581 4863 
z
" transform="scale(0.015625)"/>
       <path id="DejaVuSans-57" d="M 213 4666 
L 850 4666 
L 1831 722 
L 2809 4666 
L 3519 4666 
L 4500 722 
L 5478 4666 
L 6119 4666 
L 4947 0 
L 4153 0 
L 3169 4050 
L 2175 0 
L 1381 0 
L 213 4666 
z
" transform="scale(0.015625)"/>
       <path id="DejaVuSans-5d" d="M 1947 4863 
L 1947 -844 
L 622 -844 
L 622 -397 
L 1369 -397 
L 1369 4416 
L 622 4416 
L 622 4863 
L 1947 4863 
z
" transform="scale(0.015625)"/>
      </defs>
      <use xlink:href="#DejaVuSans-394"/>
      <use xlink:href="#DejaVuSans-50" x="68.408203"/>
      <use xlink:href="#DejaVuSans-5b" x="128.710938"/>
      <use xlink:href="#DejaVuSans-6b" x="167.724609"/>
      <use xlink:href="#DejaVuSans-57" x="225.634766"/>
      <use xlink:href="#DejaVuSans-5d" x="324.511719"/>
     </g>
    </g>
   </g>
   <g id="line2d_5">
    <path d="M 167.573864 32.450135 
L 225.232435 32.450135 
L 225.971648 32.277629 
L 232.62456 32.143967 
L 233.363772 32.380217 
L 235.58141 32.616467 
L 237.059835 33.088767 
L 237.799047 33.528001 
L 239.277472 33.967234 
L 242.973534 36.213799 
L 245.191172 36.678132 
L 245.930384 37.142465 
L 248.148022 38.945414 
L 251.844084 39.38385 
L 252.583296 38.724502 
L 255.540146 37.73528 
L 256.279359 37.405606 
L 257.757784 37.075733 
L 259.236209 36.355231 
L 260.714633 35.573773 
L 264.410696 35.719188 
L 265.889121 36.500048 
L 267.367546 36.890478 
L 268.84597 38.157582 
L 269.585183 39.819299 
L 270.324395 40.628844 
L 271.80282 41.438189 
L 272.542033 42.021443 
L 274.020458 42.604498 
L 274.75967 43.187752 
L 275.498883 44.882736 
L 278.455732 48.452579 
L 282.151795 51.022643 
L 282.891007 51.974416 
L 284.369432 52.104293 
L 286.58707 52.26664 
L 288.804707 51.533987 
L 289.543919 50.801134 
L 290.283132 49.435426 
L 291.022344 48.53206 
L 293.239982 47.628493 
L 293.979194 46.725126 
L 295.457619 43.615034 
L 296.936044 42.816247 
L 297.675256 42.01726 
L 299.153681 41.429623 
L 301.371319 39.666713 
L 302.849744 39.02848 
L 304.328169 37.751814 
L 305.067381 36.804623 
L 307.285018 35.857233 
L 309.502656 33.952294 
L 310.981081 33.138766 
L 313.93793 32.325039 
L 314.677143 31.892578 
L 316.155568 31.460316 
L 317.633993 31.951142 
L 322.80848 32.450135 
L 386.380751 32.450135 
L 387.119964 32.254323 
L 389.337601 32.066877 
L 390.816026 31.866284 
L 392.294451 31.670471 
L 393.772876 31.572465 
L 396.729726 32.337389 
L 397.468938 32.719851 
L 398.208151 33.829787 
L 401.904213 36.550246 
L 402.643426 37.355807 
L 404.12185 38.161168 
L 406.339488 40.738005 
L 407.0787 41.703721 
L 408.557125 42.758877 
L 410.774763 43.286555 
L 412.253188 44.014229 
L 412.9924 44.741703 
L 414.470825 45.258425 
L 415.94925 45.516786 
L 416.688462 45.775147 
L 418.166887 45.188905 
L 419.645312 44.895684 
L 420.384525 44.569396 
L 421.862949 44.243108 
L 423.341374 43.548502 
L 424.819799 43.201099 
L 428.515862 41.475837 
L 430.733499 40.792386 
L 432.951136 40.792386 
L 432.951136 40.792386 
" clip-path="url(#p65fdd2a8fd)" style="fill: none; stroke: #1f77b4; stroke-width: 1.5; stroke-linecap: square"/>
   </g>
   <g id="line2d_6">
    <path d="M 154.305 32.450135 
L 446.22 32.450135 
" clip-path="url(#p65fdd2a8fd)" style="fill: none; stroke: #000000; stroke-width: 1.5; stroke-linecap: square"/>
   </g>
   <g id="patch_3">
    <path d="M 154.305 53.306957 
L 154.305 30.42 
" style="fill: none; stroke: #000000; stroke-width: 0.8; stroke-linejoin: miter; stroke-linecap: square"/>
   </g>
   <g id="patch_4">
    <path d="M 446.22 53.306957 
L 446.22 30.42 
" style="fill: none; stroke: #000000; stroke-width: 0.8; stroke-linejoin: miter; stroke-linecap: square"/>
   </g>
   <g id="patch_5">
    <path d="M 154.305 53.306957 
L 446.22 53.306957 
" style="fill: none; stroke: #000000; stroke-width: 0.8; stroke-linejoin: miter; stroke-linecap: square"/>
   </g>
   <g id="patch_6">
    <path d="M 154.305 30.42 
L 446.22 30.42 
" style="fill: none; stroke: #000000; stroke-width: 0.8; stroke-linejoin: miter; stroke-linecap: square"/>
   </g>
   <g id="text_4">
    <!-- Microgrid 4 -->
    <g transform="translate(263.839141 24.42) scale(0.13 -0.13)">
     <defs>
      <path id="DejaVuSans-4d" d="M 628 4666 
L 1569 4666 
L 2759 1491 
L 3956 4666 
L 4897 4666 
L 4897 0 
L 4281 0 
L 4281 4097 
L 3078 897 
L 2444 897 
L 1241 4097 
L 1241 0 
L 628 0 
L 628 4666 
z
" transform="scale(0.015625)"/>
      <path id="DejaVuSans-69" d="M 603 3500 
L 1178 3500 
L 1178 0 
L 603 0 
L 603 3500 
z
M 603 4863 
L 1178 4863 
L 1178 4134 
L 603 4134 
L 603 4863 
z
" transform="scale(0.015625)"/>
      <path id="DejaVuSans-63" d="M 3122 3366 
L 3122 2828 
Q 2878 2963 2633 3030 
Q 2388 3097 2138 3097 
Q 1578 3097 1268 2742 
Q 959 2388 959 1747 
Q 959 1106 1268 751 
Q 1578 397 2138 397 
Q 2388 397 2633 464 
Q 2878 531 3122 666 
L 3122 134 
Q 2881 22 2623 -34 
Q 2366 -91 2075 -91 
Q 1284 -91 818 406 
Q 353 903 353 1747 
Q 353 2603 823 3093 
Q 1294 3584 2113 3584 
Q 2378 3584 2631 3529 
Q 2884 3475 3122 3366 
z
" transform="scale(0.015625)"/>
      <path id="DejaVuSans-72" d="M 2631 2963 
Q 2534 3019 2420 3045 
Q 2306 3072 2169 3072 
Q 1681 3072 1420 2755 
Q 1159 2438 1159 1844 
L 1159 0 
L 581 0 
L 581 3500 
L 1159 3500 
L 1159 2956 
Q 1341 3275 1631 3429 
Q 1922 3584 2338 3584 
Q 2397 3584 2469 3576 
Q 2541 3569 2628 3553 
L 2631 2963 
z
" transform="scale(0.015625)"/>
      <path id="DejaVuSans-6f" d="M 1959 3097 
Q 1497 3097 1228 2736 
Q 959 2375 959 1747 
Q 959 1119 1226 758 
Q 1494 397 1959 397 
Q 2419 397 2687 759 
Q 2956 1122 2956 1747 
Q 2956 2369 2687 2733 
Q 2419 3097 1959 3097 
z
M 1959 3584 
Q 2709 3584 3137 3096 
Q 3566 2609 3566 1747 
Q 3566 888 3137 398 
Q 2709 -91 1959 -91 
Q 1206 -91 779 398 
Q 353 888 353 1747 
Q 353 2609 779 3096 
Q 1206 3584 1959 3584 
z
" transform="scale(0.015625)"/>
      <path id="DejaVuSans-67" d="M 2906 1791 
Q 2906 2416 2648 2759 
Q 2391 3103 1925 3103 
Q 1463 3103 1205 2759 
Q 947 2416 947 1791 
Q 947 1169 1205 825 
Q 1463 481 1925 481 
Q 2391 481 2648 825 
Q 2906 1169 2906 1791 
z
M 3481 434 
Q 3481 -459 3084 -895 
Q 2688 -1331 1869 -1331 
Q 1566 -1331 1297 -1286 
Q 1028 -1241 775 -1147 
L 775 -588 
Q 1028 -725 1275 -790 
Q 1522 -856 1778 -856 
Q 2344 -856 2625 -561 
Q 2906 -266 2906 331 
L 2906 616 
Q 2728 306 2450 153 
Q 2172 0 1784 0 
Q 1141 0 747 490 
Q 353 981 353 1791 
Q 353 2603 747 3093 
Q 1141 3584 1784 3584 
Q 2172 3584 2450 3431 
Q 2728 3278 2906 2969 
L 2906 3500 
L 3481 3500 
L 3481 434 
z
" transform="scale(0.015625)"/>
      <path id="DejaVuSans-64" d="M 2906 2969 
L 2906 4863 
L 3481 4863 
L 3481 0 
L 2906 0 
L 2906 525 
Q 2725 213 2448 61 
Q 2172 -91 1784 -91 
Q 1150 -91 751 415 
Q 353 922 353 1747 
Q 353 2572 751 3078 
Q 1150 3584 1784 3584 
Q 2172 3584 2448 3432 
Q 2725 3281 2906 2969 
z
M 947 1747 
Q 947 1113 1208 752 
Q 1469 391 1925 391 
Q 2381 391 2643 752 
Q 2906 1113 2906 1747 
Q 2906 2381 2643 2742 
Q 2381 3103 1925 3103 
Q 1469 3103 1208 2742 
Q 947 2381 947 1747 
z
" transform="scale(0.015625)"/>
      <path id="DejaVuSans-20" transform="scale(0.015625)"/>
      <path id="DejaVuSans-34" d="M 2419 4116 
L 825 1625 
L 2419 1625 
L 2419 4116 
z
M 2253 4666 
L 3047 4666 
L 3047 1625 
L 3713 1625 
L 3713 1100 
L 3047 1100 
L 3047 0 
L 2419 0 
L 2419 1100 
L 313 1100 
L 313 1709 
L 2253 4666 
z
" transform="scale(0.015625)"/>
     </defs>
     <use xlink:href="#DejaVuSans-4d"/>
     <use xlink:href="#DejaVuSans-69" x="86.279297"/>
     <use xlink:href="#DejaVuSans-63" x="114.0625"/>
     <use xlink:href="#DejaVuSans-72" x="169.042969"/>
     <use xlink:href="#DejaVuSans-6f" x="207.90625"/>
     <use xlink:href="#DejaVuSans-67" x="269.087891"/>
     <use xlink:href="#DejaVuSans-72" x="332.564453"/>
     <use xlink:href="#DejaVuSans-69" x="373.677734"/>
     <use xlink:href="#DejaVuSans-64" x="401.460938"/>
     <use xlink:href="#DejaVuSans-20" x="464.9375"/>
     <use xlink:href="#DejaVuSans-34" x="496.724609"/>
    </g>
   </g>
  </g>
  <g id="axes_2">
   <g id="patch_7">
    <path d="M 154.305 87.637391 
L 446.22 87.637391 
L 446.22 64.750435 
L 154.305 64.750435 
z
" style="fill: #ffffff"/>
   </g>
   <g id="PolyCollection_3">
    <path d="M 225.971648 81.785917 
L 225.971648 81.645808 
L 226.71086 81.615075 
L 227.450073 81.594429 
L 228.189285 81.57394 
L 228.928498 81.553452 
L 229.66771 81.491829 
L 230.406923 81.611608 
L 231.146135 81.671339 
L 231.885348 81.731229 
L 231.885348 81.785917 
L 231.885348 81.785917 
L 231.146135 81.785917 
L 230.406923 81.785917 
L 229.66771 81.785917 
L 228.928498 81.785917 
L 228.189285 81.785917 
L 227.450073 81.785917 
L 226.71086 81.785917 
L 225.971648 81.785917 
z
" clip-path="url(#p08142fb282)" style="fill: #008000; fill-opacity: 0.3"/>
    <path d="M 270.324395 81.785917 
L 270.324395 81.578984 
L 271.063608 81.416022 
L 271.80282 81.253218 
L 272.542033 80.927451 
L 273.281245 80.76449 
L 274.020458 80.601685 
L 274.75967 80.275919 
L 275.498883 79.950153 
L 276.238095 79.624387 
L 276.977308 79.298621 
L 277.71652 79.002169 
L 278.455732 78.705717 
L 279.194945 78.112813 
L 279.934157 77.747961 
L 280.67337 77.383109 
L 281.412582 77.200605 
L 282.151795 77.018257 
L 282.891007 76.522122 
L 283.63022 76.026144 
L 284.369432 76.050573 
L 285.108645 76.075159 
L 285.847857 76.099587 
L 286.58707 76.173031 
L 287.326282 76.197459 
L 288.065494 76.222045 
L 288.804707 76.246474 
L 289.543919 76.509671 
L 290.283132 76.772711 
L 291.022344 77.035909 
L 291.761557 77.123694 
L 292.500769 77.211322 
L 293.239982 77.299107 
L 293.979194 77.687284 
L 294.718407 78.075618 
L 295.457619 78.463796 
L 296.196831 78.607687 
L 296.936044 78.751737 
L 297.675256 79.039678 
L 298.414469 79.18357 
L 299.153681 79.32762 
L 299.892894 79.615561 
L 300.632106 79.802006 
L 301.371319 79.988451 
L 302.110531 80.081752 
L 302.849744 80.175053 
L 303.588956 80.361498 
L 304.328169 80.526351 
L 305.067381 80.691362 
L 305.806593 80.746365 
L 306.545806 80.801369 
L 307.285018 80.856215 
L 308.024231 81.021225 
L 308.763443 81.186079 
L 309.502656 81.351089 
L 310.241868 81.515942 
L 310.981081 81.680953 
L 311.720293 81.704751 
L 312.459506 81.728549 
L 313.198718 81.752348 
L 313.93793 81.776303 
L 313.93793 81.785917 
L 313.93793 81.785917 
L 313.198718 81.785917 
L 312.459506 81.785917 
L 311.720293 81.785917 
L 310.981081 81.785917 
L 310.241868 81.785917 
L 309.502656 81.785917 
L 308.763443 81.785917 
L 308.024231 81.785917 
L 307.285018 81.785917 
L 306.545806 81.785917 
L 305.806593 81.785917 
L 305.067381 81.785917 
L 304.328169 81.785917 
L 303.588956 81.785917 
L 302.849744 81.785917 
L 302.110531 81.785917 
L 301.371319 81.785917 
L 300.632106 81.785917 
L 299.892894 81.785917 
L 299.153681 81.785917 
L 298.414469 81.785917 
L 297.675256 81.785917 
L 296.936044 81.785917 
L 296.196831 81.785917 
L 295.457619 81.785917 
L 294.718407 81.785917 
L 293.979194 81.785917 
L 293.239982 81.785917 
L 292.500769 81.785917 
L 291.761557 81.785917 
L 291.022344 81.785917 
L 290.283132 81.785917 
L 289.543919 81.785917 
L 288.804707 81.785917 
L 288.065494 81.785917 
L 287.326282 81.785917 
L 286.58707 81.785917 
L 285.847857 81.785917 
L 285.108645 81.785917 
L 284.369432 81.785917 
L 283.63022 81.785917 
L 282.891007 81.785917 
L 282.151795 81.785917 
L 281.412582 81.785917 
L 280.67337 81.785917 
L 279.934157 81.785917 
L 279.194945 81.785917 
L 278.455732 81.785917 
L 277.71652 81.785917 
L 276.977308 81.785917 
L 276.238095 81.785917 
L 275.498883 81.785917 
L 274.75967 81.785917 
L 274.020458 81.785917 
L 273.281245 81.785917 
L 272.542033 81.785917 
L 271.80282 81.785917 
L 271.063608 81.785917 
L 270.324395 81.785917 
z
" clip-path="url(#p08142fb282)" style="fill: #008000; fill-opacity: 0.3"/>
    <path d="M 387.119964 81.785917 
L 387.119964 81.75676 
L 387.859176 81.751402 
L 387.859176 81.785917 
L 387.859176 81.785917 
L 387.119964 81.785917 
z
" clip-path="url(#p08142fb282)" style="fill: #008000; fill-opacity: 0.3"/>
    <path d="M 397.468938 81.785917 
L 397.468938 81.18072 
L 398.208151 80.459369 
L 398.947363 80.066622 
L 399.686576 79.673874 
L 400.425788 78.888379 
L 401.165001 77.36924 
L 401.904213 76.521649 
L 402.643426 75.674058 
L 403.382638 75.250263 
L 404.12185 74.826467 
L 404.861063 74.002044 
L 405.600275 73.177621 
L 406.339488 72.353198 
L 407.0787 71.680074 
L 407.817913 71.007107 
L 408.557125 70.266687 
L 409.296338 70.020037 
L 410.03555 69.773231 
L 410.774763 69.526424 
L 411.513975 68.644002 
L 412.253188 67.761739 
L 412.9924 67.066235 
L 413.731612 66.370731 
L 414.470825 66.225736 
L 415.210037 66.153239 
L 415.94925 66.080741 
L 416.688462 65.935746 
L 417.427675 65.790751 
L 418.166887 66.176879 
L 418.9061 66.369943 
L 419.645312 66.563008 
L 420.384525 66.949136 
L 421.123737 67.437233 
L 421.862949 67.925173 
L 422.602162 68.901369 
L 423.341374 69.605225 
L 424.080587 69.957154 
L 424.819799 70.309082 
L 425.559012 70.980157 
L 426.298224 71.651232 
L 427.037437 72.136335 
L 427.776649 72.378887 
L 428.515862 72.621439 
L 429.255074 72.78314 
L 429.994287 72.944841 
L 430.733499 73.106542 
L 431.472711 73.349093 
L 432.211924 73.591645 
L 432.951136 73.591645 
L 432.951136 81.785917 
L 432.951136 81.785917 
L 432.211924 81.785917 
L 431.472711 81.785917 
L 430.733499 81.785917 
L 429.994287 81.785917 
L 429.255074 81.785917 
L 428.515862 81.785917 
L 427.776649 81.785917 
L 427.037437 81.785917 
L 426.298224 81.785917 
L 425.559012 81.785917 
L 424.819799 81.785917 
L 424.080587 81.785917 
L 423.341374 81.785917 
L 422.602162 81.785917 
L 421.862949 81.785917 
L 421.123737 81.785917 
L 420.384525 81.785917 
L 419.645312 81.785917 
L 418.9061 81.785917 
L 418.166887 81.785917 
L 417.427675 81.785917 
L 416.688462 81.785917 
L 415.94925 81.785917 
L 415.210037 81.785917 
L 414.470825 81.785917 
L 413.731612 81.785917 
L 412.9924 81.785917 
L 412.253188 81.785917 
L 411.513975 81.785917 
L 410.774763 81.785917 
L 410.03555 81.785917 
L 409.296338 81.785917 
L 408.557125 81.785917 
L 407.817913 81.785917 
L 407.0787 81.785917 
L 406.339488 81.785917 
L 405.600275 81.785917 
L 404.861063 81.785917 
L 404.12185 81.785917 
L 403.382638 81.785917 
L 402.643426 81.785917 
L 401.904213 81.785917 
L 401.165001 81.785917 
L 400.425788 81.785917 
L 399.686576 81.785917 
L 398.947363 81.785917 
L 398.208151 81.785917 
L 397.468938 81.785917 
z
" clip-path="url(#p08142fb282)" style="fill: #008000; fill-opacity: 0.3"/>
   </g>
   <g id="PolyCollection_4">
    <path d="M 232.62456 81.785917 
L 232.62456 81.851007 
L 233.363772 81.970628 
L 234.102985 82.010659 
L 234.842197 82.050533 
L 235.58141 82.090407 
L 236.320622 82.372359 
L 237.059835 82.654312 
L 237.799047 82.936106 
L 238.53826 83.077161 
L 239.277472 83.218059 
L 240.016685 83.528065 
L 240.755897 83.838228 
L 241.49511 84.148234 
L 242.234322 84.45824 
L 242.973534 84.785267 
L 243.712747 84.894328 
L 244.451959 85.003232 
L 245.191172 85.112294 
L 245.930384 85.439321 
L 246.669597 85.766348 
L 247.408809 85.974069 
L 248.148022 86.18179 
L 248.887234 86.389354 
L 249.626447 86.493214 
L 250.365659 86.597075 
L 251.104871 86.531512 
L 251.844084 86.465791 
L 252.583296 86.400228 
L 253.322509 86.378322 
L 254.061721 86.356415 
L 254.800934 86.334508 
L 255.540146 86.268945 
L 256.279359 86.203224 
L 257.018571 86.170443 
L 257.757784 86.137661 
L 258.496996 86.071941 
L 259.236209 86.006378 
L 259.975421 85.752006 
L 260.714633 85.497792 
L 261.453846 85.413001 
L 262.193058 85.32821 
L 262.932271 85.24342 
L 263.671483 84.636804 
L 264.410696 84.321598 
L 265.149908 84.006233 
L 265.889121 83.690869 
L 266.628333 83.47968 
L 267.367546 83.268492 
L 268.106758 82.846115 
L 268.84597 82.423738 
L 269.585183 82.001361 
L 269.585183 81.785917 
L 269.585183 81.785917 
L 268.84597 81.785917 
L 268.106758 81.785917 
L 267.367546 81.785917 
L 266.628333 81.785917 
L 265.889121 81.785917 
L 265.149908 81.785917 
L 264.410696 81.785917 
L 263.671483 81.785917 
L 262.932271 81.785917 
L 262.193058 81.785917 
L 261.453846 81.785917 
L 260.714633 81.785917 
L 259.975421 81.785917 
L 259.236209 81.785917 
L 258.496996 81.785917 
L 257.757784 81.785917 
L 257.018571 81.785917 
L 256.279359 81.785917 
L 255.540146 81.785917 
L 254.800934 81.785917 
L 254.061721 81.785917 
L 253.322509 81.785917 
L 252.583296 81.785917 
L 251.844084 81.785917 
L 251.104871 81.785917 
L 250.365659 81.785917 
L 249.626447 81.785917 
L 248.887234 81.785917 
L 248.148022 81.785917 
L 247.408809 81.785917 
L 246.669597 81.785917 
L 245.930384 81.785917 
L 245.191172 81.785917 
L 244.451959 81.785917 
L 243.712747 81.785917 
L 242.973534 81.785917 
L 242.234322 81.785917 
L 241.49511 81.785917 
L 240.755897 81.785917 
L 240.016685 81.785917 
L 239.277472 81.785917 
L 238.53826 81.785917 
L 237.799047 81.785917 
L 237.059835 81.785917 
L 236.320622 81.785917 
L 235.58141 81.785917 
L 234.842197 81.785917 
L 234.102985 81.785917 
L 233.363772 81.785917 
L 232.62456 81.785917 
z
" clip-path="url(#p08142fb282)" style="fill: #ff0000; fill-opacity: 0.3"/>
    <path d="M 314.677143 81.785917 
L 314.677143 81.823899 
L 315.416355 81.847698 
L 316.155568 81.871496 
L 316.89478 81.919249 
L 317.633993 81.966846 
L 318.373205 81.964639 
L 319.112418 81.96259 
L 319.85163 81.960384 
L 320.590843 81.953922 
L 320.590843 81.785917 
L 320.590843 81.785917 
L 319.85163 81.785917 
L 319.112418 81.785917 
L 318.373205 81.785917 
L 317.633993 81.785917 
L 316.89478 81.785917 
L 316.155568 81.785917 
L 315.416355 81.785917 
L 314.677143 81.785917 
z
" clip-path="url(#p08142fb282)" style="fill: #ff0000; fill-opacity: 0.3"/>
    <path d="M 388.598389 81.785917 
L 388.598389 81.934222 
L 389.337601 82.025632 
L 390.076814 82.117042 
L 390.816026 82.299862 
L 391.555239 82.482682 
L 392.294451 82.482524 
L 393.033664 82.482366 
L 393.772876 82.482366 
L 394.512089 82.482051 
L 395.251301 82.481894 
L 395.990513 82.192061 
L 396.729726 81.902071 
L 396.729726 81.785917 
L 396.729726 81.785917 
L 395.990513 81.785917 
L 395.251301 81.785917 
L 394.512089 81.785917 
L 393.772876 81.785917 
L 393.033664 81.785917 
L 392.294451 81.785917 
L 391.555239 81.785917 
L 390.816026 81.785917 
L 390.076814 81.785917 
L 389.337601 81.785917 
L 388.598389 81.785917 
z
" clip-path="url(#p08142fb282)" style="fill: #ff0000; fill-opacity: 0.3"/>
   </g>
   <g id="matplotlib.axis_2">
    <g id="ytick_3">
     <g id="line2d_7">
      <path d="M 154.305 81.785917 
L 446.22 81.785917 
" clip-path="url(#p08142fb282)" style="fill: none; stroke: #b0b0b0; stroke-width: 0.8; stroke-linecap: square"/>
     </g>
     <g id="line2d_8">
      <g>
       <use xlink:href="#m9586d1e109" x="154.305" y="81.785917" style="stroke: #000000; stroke-width: 0.8"/>
      </g>
     </g>
     <g id="text_5">
      <!-- 0 -->
      <g transform="translate(138.715625 86.914862) scale(0.135 -0.135)">
       <use xlink:href="#DejaVuSans-30"/>
      </g>
     </g>
    </g>
    <g id="ytick_4">
     <g id="line2d_9">
      <path d="M 154.305 66.02558 
L 446.22 66.02558 
" clip-path="url(#p08142fb282)" style="fill: none; stroke: #b0b0b0; stroke-width: 0.8; stroke-linecap: square"/>
     </g>
     <g id="line2d_10">
      <g>
       <use xlink:href="#m9586d1e109" x="154.305" y="66.02558" style="stroke: #000000; stroke-width: 0.8"/>
      </g>
     </g>
     <g id="text_6">
      <!-- 1000 -->
      <g transform="translate(112.9475 71.154525) scale(0.135 -0.135)">
       <use xlink:href="#DejaVuSans-31"/>
       <use xlink:href="#DejaVuSans-30" x="63.623047"/>
       <use xlink:href="#DejaVuSans-30" x="127.246094"/>
       <use xlink:href="#DejaVuSans-30" x="190.869141"/>
      </g>
     </g>
    </g>
    <g id="text_7">
     <!-- PEU_4-1 [kW] -->
     <g transform="translate(17.277422 73.010866) scale(0.135 -0.135)">
      <defs>
       <path id="DejaVuSans-45" d="M 628 4666 
L 3578 4666 
L 3578 4134 
L 1259 4134 
L 1259 2753 
L 3481 2753 
L 3481 2222 
L 1259 2222 
L 1259 531 
L 3634 531 
L 3634 0 
L 628 0 
L 628 4666 
z
" transform="scale(0.015625)"/>
       <path id="DejaVuSans-55" d="M 556 4666 
L 1191 4666 
L 1191 1831 
Q 1191 1081 1462 751 
Q 1734 422 2344 422 
Q 2950 422 3222 751 
Q 3494 1081 3494 1831 
L 3494 4666 
L 4128 4666 
L 4128 1753 
Q 4128 841 3676 375 
Q 3225 -91 2344 -91 
Q 1459 -91 1007 375 
Q 556 841 556 1753 
L 556 4666 
z
" transform="scale(0.015625)"/>
       <path id="DejaVuSans-5f" d="M 3263 -1063 
L 3263 -1509 
L -63 -1509 
L -63 -1063 
L 3263 -1063 
z
" transform="scale(0.015625)"/>
       <path id="DejaVuSans-2d" d="M 313 2009 
L 1997 2009 
L 1997 1497 
L 313 1497 
L 313 2009 
z
" transform="scale(0.015625)"/>
      </defs>
      <use xlink:href="#DejaVuSans-50"/>
      <use xlink:href="#DejaVuSans-45" x="60.302734"/>
      <use xlink:href="#DejaVuSans-55" x="123.486328"/>
      <use xlink:href="#DejaVuSans-5f" x="196.679688"/>
      <use xlink:href="#DejaVuSans-34" x="246.679688"/>
      <use xlink:href="#DejaVuSans-2d" x="310.302734"/>
      <use xlink:href="#DejaVuSans-31" x="346.386719"/>
      <use xlink:href="#DejaVuSans-20" x="410.009766"/>
      <use xlink:href="#DejaVuSans-5b" x="441.796875"/>
      <use xlink:href="#DejaVuSans-6b" x="480.810547"/>
      <use xlink:href="#DejaVuSans-57" x="538.720703"/>
      <use xlink:href="#DejaVuSans-5d" x="637.597656"/>
     </g>
    </g>
   </g>
   <g id="line2d_11">
    <path d="M 167.573864 81.785917 
L 225.232435 81.785917 
L 226.71086 81.615075 
L 230.406923 81.611608 
L 232.62456 81.851007 
L 234.102985 82.010659 
L 235.58141 82.090407 
L 237.799047 82.936106 
L 239.277472 83.218059 
L 242.973534 84.785267 
L 245.191172 85.112294 
L 247.408809 85.974069 
L 249.626447 86.493214 
L 250.365659 86.597075 
L 254.061721 86.356415 
L 257.757784 86.137661 
L 259.236209 86.006378 
L 260.714633 85.497792 
L 262.932271 85.24342 
L 263.671483 84.636804 
L 266.628333 83.47968 
L 267.367546 83.268492 
L 270.324395 81.578984 
L 271.80282 81.253218 
L 272.542033 80.927451 
L 274.020458 80.601685 
L 278.455732 78.705717 
L 279.194945 78.112813 
L 280.67337 77.383109 
L 282.151795 77.018257 
L 283.63022 76.026144 
L 288.804707 76.246474 
L 291.022344 77.035909 
L 293.239982 77.299107 
L 295.457619 78.463796 
L 296.936044 78.751737 
L 297.675256 79.039678 
L 299.153681 79.32762 
L 300.632106 79.802006 
L 302.110531 80.081752 
L 303.588956 80.361498 
L 305.806593 80.746365 
L 308.024231 81.021225 
L 310.981081 81.680953 
L 320.590843 81.953922 
L 321.330055 81.785917 
L 387.859176 81.751402 
L 389.337601 82.025632 
L 390.816026 82.299862 
L 391.555239 82.482682 
L 395.251301 82.481894 
L 396.729726 81.902071 
L 398.208151 80.459369 
L 399.686576 79.673874 
L 400.425788 78.888379 
L 401.165001 77.36924 
L 402.643426 75.674058 
L 404.12185 74.826467 
L 407.0787 71.680074 
L 408.557125 70.266687 
L 410.774763 69.526424 
L 412.253188 67.761739 
L 413.731612 66.370731 
L 415.210037 66.153239 
L 416.688462 65.935746 
L 417.427675 65.790751 
L 418.166887 66.176879 
L 419.645312 66.563008 
L 421.123737 67.437233 
L 421.862949 67.925173 
L 422.602162 68.901369 
L 423.341374 69.605225 
L 424.819799 70.309082 
L 426.298224 71.651232 
L 427.037437 72.136335 
L 429.255074 72.78314 
L 431.472711 73.349093 
L 432.211924 73.591645 
L 432.951136 73.591645 
L 432.951136 73.591645 
" clip-path="url(#p08142fb282)" style="fill: none; stroke: #1f77b4; stroke-width: 1.5; stroke-linecap: square"/>
   </g>
   <g id="line2d_12">
    <path d="M 154.305 81.785917 
L 446.22 81.785917 
" clip-path="url(#p08142fb282)" style="fill: none; stroke: #000000; stroke-width: 1.5; stroke-linecap: square"/>
   </g>
   <g id="patch_8">
    <path d="M 154.305 87.637391 
L 154.305 64.750435 
" style="fill: none; stroke: #000000; stroke-width: 0.8; stroke-linejoin: miter; stroke-linecap: square"/>
   </g>
   <g id="patch_9">
    <path d="M 446.22 87.637391 
L 446.22 64.750435 
" style="fill: none; stroke: #000000; stroke-width: 0.8; stroke-linejoin: miter; stroke-linecap: square"/>
   </g>
   <g id="patch_10">
    <path d="M 154.305 87.637391 
L 446.22 87.637391 
" style="fill: none; stroke: #000000; stroke-width: 0.8; stroke-linejoin: miter; stroke-linecap: square"/>
   </g>
   <g id="patch_11">
    <path d="M 154.305 64.750435 
L 446.22 64.750435 
" style="fill: none; stroke: #000000; stroke-width: 0.8; stroke-linejoin: miter; stroke-linecap: square"/>
   </g>
  </g>
  <g id="axes_3">
   <g id="patch_12">
    <path d="M 154.305 121.967826 
L 446.22 121.967826 
L 446.22 99.08087 
L 154.305 99.08087 
z
" style="fill: #ffffff"/>
   </g>
   <g id="PolyCollection_5">
    <path d="M 225.971648 111.107228 
L 225.971648 110.573347 
L 226.71086 110.440478 
L 227.450073 110.351798 
L 228.189285 110.263119 
L 228.928498 110.174439 
L 229.66771 109.908401 
L 230.406923 109.642362 
L 231.146135 109.835353 
L 231.885348 110.028644 
L 232.62456 110.414926 
L 233.363772 110.801208 
L 234.102985 110.929869 
L 234.842197 111.05883 
L 234.842197 111.107228 
L 234.842197 111.107228 
L 234.102985 111.107228 
L 233.363772 111.107228 
L 232.62456 111.107228 
L 231.885348 111.107228 
L 231.146135 111.107228 
L 230.406923 111.107228 
L 229.66771 111.107228 
L 228.928498 111.107228 
L 228.189285 111.107228 
L 227.450073 111.107228 
L 226.71086 111.107228 
L 225.971648 111.107228 
z
" clip-path="url(#p8bb17743d9)" style="fill: #008000; fill-opacity: 0.3"/>
    <path d="M 270.324395 111.107228 
L 270.324395 110.712529 
L 271.063608 110.4017 
L 271.80282 110.091171 
L 272.542033 109.469813 
L 273.281245 109.158984 
L 274.020458 108.848455 
L 274.75967 108.227097 
L 275.498883 107.605739 
L 276.238095 106.984381 
L 276.977308 106.363023 
L 277.71652 105.797578 
L 278.455732 105.232133 
L 279.194945 104.101244 
L 279.934157 103.405335 
L 280.67337 102.709426 
L 281.412582 102.361321 
L 282.151795 102.013517 
L 282.891007 101.067201 
L 283.63022 100.121186 
L 284.369432 100.16778 
L 285.108645 100.214675 
L 285.847857 100.261269 
L 286.58707 100.401353 
L 287.326282 100.447947 
L 288.065494 100.494842 
L 288.804707 100.541437 
L 289.543919 101.043453 
L 290.283132 101.545169 
L 291.022344 102.047185 
L 291.761557 102.214624 
L 292.500769 102.381762 
L 293.239982 102.549201 
L 293.979194 103.2896 
L 294.718407 104.0303 
L 295.457619 104.770699 
L 296.196831 105.045155 
L 296.936044 105.319911 
L 297.675256 105.869123 
L 298.414469 106.143579 
L 299.153681 106.418335 
L 299.892894 106.967547 
L 300.632106 107.323167 
L 301.371319 107.678787 
L 302.110531 107.856747 
L 302.849744 108.034707 
L 303.588956 108.390327 
L 304.328169 108.704764 
L 305.067381 109.019501 
L 305.806593 109.124414 
L 306.545806 109.229326 
L 307.285018 109.333938 
L 308.024231 109.648675 
L 308.763443 109.963112 
L 309.502656 110.277849 
L 310.241868 110.592285 
L 310.981081 110.907023 
L 311.720293 110.952414 
L 312.459506 110.997806 
L 313.198718 111.043198 
L 313.93793 111.088891 
L 313.93793 111.107228 
L 313.93793 111.107228 
L 313.198718 111.107228 
L 312.459506 111.107228 
L 311.720293 111.107228 
L 310.981081 111.107228 
L 310.241868 111.107228 
L 309.502656 111.107228 
L 308.763443 111.107228 
L 308.024231 111.107228 
L 307.285018 111.107228 
L 306.545806 111.107228 
L 305.806593 111.107228 
L 305.067381 111.107228 
L 304.328169 111.107228 
L 303.588956 111.107228 
L 302.849744 111.107228 
L 302.110531 111.107228 
L 301.371319 111.107228 
L 300.632106 111.107228 
L 299.892894 111.107228 
L 299.153681 111.107228 
L 298.414469 111.107228 
L 297.675256 111.107228 
L 296.936044 111.107228 
L 296.196831 111.107228 
L 295.457619 111.107228 
L 294.718407 111.107228 
L 293.979194 111.107228 
L 293.239982 111.107228 
L 292.500769 111.107228 
L 291.761557 111.107228 
L 291.022344 111.107228 
L 290.283132 111.107228 
L 289.543919 111.107228 
L 288.804707 111.107228 
L 288.065494 111.107228 
L 287.326282 111.107228 
L 286.58707 111.107228 
L 285.847857 111.107228 
L 285.108645 111.107228 
L 284.369432 111.107228 
L 283.63022 111.107228 
L 282.891007 111.107228 
L 282.151795 111.107228 
L 281.412582 111.107228 
L 280.67337 111.107228 
L 279.934157 111.107228 
L 279.194945 111.107228 
L 278.455732 111.107228 
L 277.71652 111.107228 
L 276.977308 111.107228 
L 276.238095 111.107228 
L 275.498883 111.107228 
L 274.75967 111.107228 
L 274.020458 111.107228 
L 273.281245 111.107228 
L 272.542033 111.107228 
L 271.80282 111.107228 
L 271.063608 111.107228 
L 270.324395 111.107228 
z
" clip-path="url(#p8bb17743d9)" style="fill: #008000; fill-opacity: 0.3"/>
    <path d="M 387.119964 111.107228 
L 387.119964 111.021855 
L 387.859176 111.018849 
L 388.598389 111.006223 
L 389.337601 111.000211 
L 390.076814 110.993898 
L 390.816026 110.981574 
L 391.555239 110.729062 
L 392.294451 110.644892 
L 393.033664 110.561022 
L 393.772876 110.476852 
L 394.512089 110.350596 
L 395.251301 110.22434 
L 395.990513 110.600702 
L 396.729726 110.977365 
L 396.729726 111.107228 
L 396.729726 111.107228 
L 395.990513 111.107228 
L 395.251301 111.107228 
L 394.512089 111.107228 
L 393.772876 111.107228 
L 393.033664 111.107228 
L 392.294451 111.107228 
L 391.555239 111.107228 
L 390.816026 111.107228 
L 390.076814 111.107228 
L 389.337601 111.107228 
L 388.598389 111.107228 
L 387.859176 111.107228 
L 387.119964 111.107228 
z
" clip-path="url(#p8bb17743d9)" style="fill: #008000; fill-opacity: 0.3"/>
    <path d="M 427.776649 111.107228 
L 427.776649 110.942795 
L 428.515862 110.729062 
L 429.255074 110.729062 
L 429.994287 110.729062 
L 430.733499 110.729062 
L 431.472711 110.729062 
L 432.211924 110.729062 
L 432.951136 110.729062 
L 432.951136 111.107228 
L 432.951136 111.107228 
L 432.211924 111.107228 
L 431.472711 111.107228 
L 430.733499 111.107228 
L 429.994287 111.107228 
L 429.255074 111.107228 
L 428.515862 111.107228 
L 427.776649 111.107228 
z
" clip-path="url(#p8bb17743d9)" style="fill: #008000; fill-opacity: 0.3"/>
   </g>
   <g id="PolyCollection_6">
    <path d="M 235.58141 111.107228 
L 235.58141 111.18749 
L 236.320622 111.761953 
L 237.059835 112.336417 
L 237.799047 112.910579 
L 238.53826 113.197961 
L 239.277472 113.485042 
L 240.016685 114.059505 
L 240.755897 114.810726 
L 241.49511 115.561947 
L 242.234322 116.313468 
L 242.973534 117.064689 
L 243.712747 117.315096 
L 244.451959 117.565503 
L 245.191172 117.81591 
L 245.930384 118.26051 
L 246.669597 118.70481 
L 247.408809 119.14941 
L 248.148022 119.59401 
L 248.887234 120.03861 
L 249.626447 120.26076 
L 250.365659 120.48291 
L 251.104871 120.92751 
L 251.844084 120.879112 
L 252.583296 120.830413 
L 253.322509 120.81418 
L 254.061721 120.798248 
L 254.800934 120.782015 
L 255.540146 120.733317 
L 256.279359 120.684919 
L 257.018571 120.495235 
L 257.757784 120.30525 
L 258.496996 119.925882 
L 259.236209 119.546213 
L 259.975421 119.166545 
L 260.714633 118.1565 
L 261.453846 117.819818 
L 262.193058 117.483136 
L 262.932271 117.146455 
L 263.671483 116.544937 
L 264.410696 115.94372 
L 265.149908 115.342202 
L 265.889121 114.740684 
L 266.628333 114.337869 
L 267.367546 113.935053 
L 268.106758 113.129422 
L 268.84597 112.323791 
L 269.585183 111.51816 
L 269.585183 111.107228 
L 269.585183 111.107228 
L 268.84597 111.107228 
L 268.106758 111.107228 
L 267.367546 111.107228 
L 266.628333 111.107228 
L 265.889121 111.107228 
L 265.149908 111.107228 
L 264.410696 111.107228 
L 263.671483 111.107228 
L 262.932271 111.107228 
L 262.193058 111.107228 
L 261.453846 111.107228 
L 260.714633 111.107228 
L 259.975421 111.107228 
L 259.236209 111.107228 
L 258.496996 111.107228 
L 257.757784 111.107228 
L 257.018571 111.107228 
L 256.279359 111.107228 
L 255.540146 111.107228 
L 254.800934 111.107228 
L 254.061721 111.107228 
L 253.322509 111.107228 
L 252.583296 111.107228 
L 251.844084 111.107228 
L 251.104871 111.107228 
L 250.365659 111.107228 
L 249.626447 111.107228 
L 248.887234 111.107228 
L 248.148022 111.107228 
L 247.408809 111.107228 
L 246.669597 111.107228 
L 245.930384 111.107228 
L 245.191172 111.107228 
L 244.451959 111.107228 
L 243.712747 111.107228 
L 242.973534 111.107228 
L 242.234322 111.107228 
L 241.49511 111.107228 
L 240.755897 111.107228 
L 240.016685 111.107228 
L 239.277472 111.107228 
L 238.53826 111.107228 
L 237.799047 111.107228 
L 237.059835 111.107228 
L 236.320622 111.107228 
L 235.58141 111.107228 
z
" clip-path="url(#p8bb17743d9)" style="fill: #ff0000; fill-opacity: 0.3"/>
    <path d="M 314.677143 111.107228 
L 314.677143 111.179675 
L 315.416355 111.225066 
L 316.155568 111.270458 
L 316.89478 111.361543 
L 317.633993 111.452327 
L 318.373205 111.448118 
L 319.112418 111.44421 
L 319.85163 111.440002 
L 320.590843 111.427677 
L 320.590843 111.107228 
L 320.590843 111.107228 
L 319.85163 111.107228 
L 319.112418 111.107228 
L 318.373205 111.107228 
L 317.633993 111.107228 
L 316.89478 111.107228 
L 316.155568 111.107228 
L 315.416355 111.107228 
L 314.677143 111.107228 
z
" clip-path="url(#p8bb17743d9)" style="fill: #ff0000; fill-opacity: 0.3"/>
    <path d="M 397.468938 111.107228 
L 397.468938 111.73039 
L 398.208151 112.068274 
L 398.947363 112.237216 
L 399.686576 112.406158 
L 400.425788 112.744342 
L 401.165001 113.082226 
L 401.904213 113.420111 
L 402.643426 113.757995 
L 403.382638 113.892066 
L 404.12185 114.025837 
L 404.861063 114.293679 
L 405.600275 114.561521 
L 406.339488 114.829664 
L 407.0787 115.097507 
L 407.817913 115.365349 
L 408.557125 115.633191 
L 409.296338 115.743815 
L 410.03555 115.854138 
L 410.774763 115.964762 
L 411.513975 116.130698 
L 412.253188 116.296334 
L 412.9924 116.628206 
L 413.731612 116.959777 
L 414.470825 117.291348 
L 415.210037 117.062284 
L 415.94925 116.833221 
L 416.688462 116.374793 
L 417.427675 115.916665 
L 418.166887 115.458237 
L 418.9061 115.199112 
L 419.645312 114.940288 
L 420.384525 114.422039 
L 421.123737 114.163215 
L 421.862949 113.90409 
L 422.602162 113.385841 
L 423.341374 112.867893 
L 424.080587 112.65416 
L 424.819799 112.440126 
L 425.559012 112.01236 
L 426.298224 111.584594 
L 427.037437 111.156828 
L 427.037437 111.107228 
L 427.037437 111.107228 
L 426.298224 111.107228 
L 425.559012 111.107228 
L 424.819799 111.107228 
L 424.080587 111.107228 
L 423.341374 111.107228 
L 422.602162 111.107228 
L 421.862949 111.107228 
L 421.123737 111.107228 
L 420.384525 111.107228 
L 419.645312 111.107228 
L 418.9061 111.107228 
L 418.166887 111.107228 
L 417.427675 111.107228 
L 416.688462 111.107228 
L 415.94925 111.107228 
L 415.210037 111.107228 
L 414.470825 111.107228 
L 413.731612 111.107228 
L 412.9924 111.107228 
L 412.253188 111.107228 
L 411.513975 111.107228 
L 410.774763 111.107228 
L 410.03555 111.107228 
L 409.296338 111.107228 
L 408.557125 111.107228 
L 407.817913 111.107228 
L 407.0787 111.107228 
L 406.339488 111.107228 
L 405.600275 111.107228 
L 404.861063 111.107228 
L 404.12185 111.107228 
L 403.382638 111.107228 
L 402.643426 111.107228 
L 401.904213 111.107228 
L 401.165001 111.107228 
L 400.425788 111.107228 
L 399.686576 111.107228 
L 398.947363 111.107228 
L 398.208151 111.107228 
L 397.468938 111.107228 
z
" clip-path="url(#p8bb17743d9)" style="fill: #ff0000; fill-opacity: 0.3"/>
   </g>
   <g id="matplotlib.axis_3">
    <g id="ytick_5">
     <g id="line2d_13">
      <path d="M 154.305 118.622443 
L 446.22 118.622443 
" clip-path="url(#p8bb17743d9)" style="fill: none; stroke: #b0b0b0; stroke-width: 0.8; stroke-linecap: square"/>
     </g>
     <g id="line2d_14">
      <g>
       <use xlink:href="#m9586d1e109" x="154.305" y="118.622443" style="stroke: #000000; stroke-width: 0.8"/>
      </g>
     </g>
     <g id="text_8">
      <!-- −250 -->
      <g transform="translate(110.224297 123.751388) scale(0.135 -0.135)">
       <defs>
        <path id="DejaVuSans-32" d="M 1228 531 
L 3431 531 
L 3431 0 
L 469 0 
L 469 531 
Q 828 903 1448 1529 
Q 2069 2156 2228 2338 
Q 2531 2678 2651 2914 
Q 2772 3150 2772 3378 
Q 2772 3750 2511 3984 
Q 2250 4219 1831 4219 
Q 1534 4219 1204 4116 
Q 875 4013 500 3803 
L 500 4441 
Q 881 4594 1212 4672 
Q 1544 4750 1819 4750 
Q 2544 4750 2975 4387 
Q 3406 4025 3406 3419 
Q 3406 3131 3298 2873 
Q 3191 2616 2906 2266 
Q 2828 2175 2409 1742 
Q 1991 1309 1228 531 
z
" transform="scale(0.015625)"/>
        <path id="DejaVuSans-35" d="M 691 4666 
L 3169 4666 
L 3169 4134 
L 1269 4134 
L 1269 2991 
Q 1406 3038 1543 3061 
Q 1681 3084 1819 3084 
Q 2600 3084 3056 2656 
Q 3513 2228 3513 1497 
Q 3513 744 3044 326 
Q 2575 -91 1722 -91 
Q 1428 -91 1123 -41 
Q 819 9 494 109 
L 494 744 
Q 775 591 1075 516 
Q 1375 441 1709 441 
Q 2250 441 2565 725 
Q 2881 1009 2881 1497 
Q 2881 1984 2565 2268 
Q 2250 2553 1709 2553 
Q 1456 2553 1204 2497 
Q 953 2441 691 2322 
L 691 4666 
z
" transform="scale(0.015625)"/>
       </defs>
       <use xlink:href="#DejaVuSans-2212"/>
       <use xlink:href="#DejaVuSans-32" x="83.789062"/>
       <use xlink:href="#DejaVuSans-35" x="147.412109"/>
       <use xlink:href="#DejaVuSans-30" x="211.035156"/>
      </g>
     </g>
    </g>
    <g id="ytick_6">
     <g id="line2d_15">
      <path d="M 154.305 111.107228 
L 446.22 111.107228 
" clip-path="url(#p8bb17743d9)" style="fill: none; stroke: #b0b0b0; stroke-width: 0.8; stroke-linecap: square"/>
     </g>
     <g id="line2d_16">
      <g>
       <use xlink:href="#m9586d1e109" x="154.305" y="111.107228" style="stroke: #000000; stroke-width: 0.8"/>
      </g>
     </g>
     <g id="text_9">
      <!-- 0 -->
      <g transform="translate(138.715625 116.236173) scale(0.135 -0.135)">
       <use xlink:href="#DejaVuSans-30"/>
      </g>
     </g>
    </g>
    <g id="ytick_7">
     <g id="line2d_17">
      <path d="M 154.305 103.592013 
L 446.22 103.592013 
" clip-path="url(#p8bb17743d9)" style="fill: none; stroke: #b0b0b0; stroke-width: 0.8; stroke-linecap: square"/>
     </g>
     <g id="line2d_18">
      <g>
       <use xlink:href="#m9586d1e109" x="154.305" y="103.592013" style="stroke: #000000; stroke-width: 0.8"/>
      </g>
     </g>
     <g id="text_10">
      <!-- 250 -->
      <g transform="translate(121.536875 108.720958) scale(0.135 -0.135)">
       <use xlink:href="#DejaVuSans-32"/>
       <use xlink:href="#DejaVuSans-35" x="63.623047"/>
       <use xlink:href="#DejaVuSans-30" x="127.246094"/>
      </g>
     </g>
    </g>
    <g id="text_11">
     <!-- PEU_4-3 [kW] -->
     <g transform="translate(14.554219 107.341301) scale(0.135 -0.135)">
      <defs>
       <path id="DejaVuSans-33" d="M 2597 2516 
Q 3050 2419 3304 2112 
Q 3559 1806 3559 1356 
Q 3559 666 3084 287 
Q 2609 -91 1734 -91 
Q 1441 -91 1130 -33 
Q 819 25 488 141 
L 488 750 
Q 750 597 1062 519 
Q 1375 441 1716 441 
Q 2309 441 2620 675 
Q 2931 909 2931 1356 
Q 2931 1769 2642 2001 
Q 2353 2234 1838 2234 
L 1294 2234 
L 1294 2753 
L 1863 2753 
Q 2328 2753 2575 2939 
Q 2822 3125 2822 3475 
Q 2822 3834 2567 4026 
Q 2313 4219 1838 4219 
Q 1578 4219 1281 4162 
Q 984 4106 628 3988 
L 628 4550 
Q 988 4650 1302 4700 
Q 1616 4750 1894 4750 
Q 2613 4750 3031 4423 
Q 3450 4097 3450 3541 
Q 3450 3153 3228 2886 
Q 3006 2619 2597 2516 
z
" transform="scale(0.015625)"/>
      </defs>
      <use xlink:href="#DejaVuSans-50"/>
      <use xlink:href="#DejaVuSans-45" x="60.302734"/>
      <use xlink:href="#DejaVuSans-55" x="123.486328"/>
      <use xlink:href="#DejaVuSans-5f" x="196.679688"/>
      <use xlink:href="#DejaVuSans-34" x="246.679688"/>
      <use xlink:href="#DejaVuSans-2d" x="310.302734"/>
      <use xlink:href="#DejaVuSans-33" x="346.386719"/>
      <use xlink:href="#DejaVuSans-20" x="410.009766"/>
      <use xlink:href="#DejaVuSans-5b" x="441.796875"/>
      <use xlink:href="#DejaVuSans-6b" x="480.810547"/>
      <use xlink:href="#DejaVuSans-57" x="538.720703"/>
      <use xlink:href="#DejaVuSans-5d" x="637.597656"/>
     </g>
    </g>
   </g>
   <g id="line2d_19">
    <path d="M 167.573864 111.107228 
L 225.232435 111.107228 
L 225.971648 110.573347 
L 228.189285 110.263119 
L 228.928498 110.174439 
L 230.406923 109.642362 
L 231.885348 110.028644 
L 233.363772 110.801208 
L 235.58141 111.18749 
L 237.799047 112.910579 
L 239.277472 113.485042 
L 240.016685 114.059505 
L 242.973534 117.064689 
L 245.191172 117.81591 
L 248.887234 120.03861 
L 250.365659 120.48291 
L 251.104871 120.92751 
L 257.018571 120.495235 
L 257.757784 120.30525 
L 259.975421 119.166545 
L 260.714633 118.1565 
L 262.932271 117.146455 
L 265.889121 114.740684 
L 267.367546 113.935053 
L 270.324395 110.712529 
L 271.80282 110.091171 
L 272.542033 109.469813 
L 274.020458 108.848455 
L 278.455732 105.232133 
L 279.194945 104.101244 
L 280.67337 102.709426 
L 282.151795 102.013517 
L 283.63022 100.121186 
L 288.804707 100.541437 
L 291.022344 102.047185 
L 293.239982 102.549201 
L 295.457619 104.770699 
L 296.936044 105.319911 
L 297.675256 105.869123 
L 299.153681 106.418335 
L 299.892894 106.967547 
L 301.371319 107.678787 
L 302.849744 108.034707 
L 305.067381 109.019501 
L 307.285018 109.333938 
L 310.981081 110.907023 
L 316.89478 111.361543 
L 318.373205 111.448118 
L 320.590843 111.427677 
L 321.330055 111.107228 
L 389.337601 111.000211 
L 390.816026 110.981574 
L 391.555239 110.729062 
L 395.251301 110.22434 
L 396.729726 110.977365 
L 397.468938 111.73039 
L 398.208151 112.068274 
L 399.686576 112.406158 
L 402.643426 113.757995 
L 404.12185 114.025837 
L 408.557125 115.633191 
L 412.253188 116.296334 
L 414.470825 117.291348 
L 415.94925 116.833221 
L 418.166887 115.458237 
L 419.645312 114.940288 
L 420.384525 114.422039 
L 421.862949 113.90409 
L 423.341374 112.867893 
L 424.819799 112.440126 
L 427.037437 111.156828 
L 428.515862 110.729062 
L 432.951136 110.729062 
L 432.951136 110.729062 
" clip-path="url(#p8bb17743d9)" style="fill: none; stroke: #1f77b4; stroke-width: 1.5; stroke-linecap: square"/>
   </g>
   <g id="line2d_20">
    <path d="M 154.305 111.107228 
L 446.22 111.107228 
" clip-path="url(#p8bb17743d9)" style="fill: none; stroke: #000000; stroke-width: 1.5; stroke-linecap: square"/>
   </g>
   <g id="patch_13">
    <path d="M 154.305 121.967826 
L 154.305 99.08087 
" style="fill: none; stroke: #000000; stroke-width: 0.8; stroke-linejoin: miter; stroke-linecap: square"/>
   </g>
   <g id="patch_14">
    <path d="M 446.22 121.967826 
L 446.22 99.08087 
" style="fill: none; stroke: #000000; stroke-width: 0.8; stroke-linejoin: miter; stroke-linecap: square"/>
   </g>
   <g id="patch_15">
    <path d="M 154.305 121.967826 
L 446.22 121.967826 
" style="fill: none; stroke: #000000; stroke-width: 0.8; stroke-linejoin: miter; stroke-linecap: square"/>
   </g>
   <g id="patch_16">
    <path d="M 154.305 99.08087 
L 446.22 99.08087 
" style="fill: none; stroke: #000000; stroke-width: 0.8; stroke-linejoin: miter; stroke-linecap: square"/>
   </g>
  </g>
  <g id="axes_4">
   <g id="patch_17">
    <path d="M 154.305 156.298261 
L 446.22 156.298261 
L 446.22 133.411304 
L 154.305 133.411304 
z
" style="fill: #ffffff"/>
   </g>
   <g id="PolyCollection_7">
    <path d="M 234.102985 152.778872 
L 234.102985 152.621893 
L 234.842197 152.396654 
L 235.58141 152.171416 
L 236.320622 151.4957 
L 237.059835 150.664635 
L 237.799047 149.833569 
L 238.53826 149.278077 
L 239.277472 148.722585 
L 240.016685 147.61142 
L 240.755897 146.500437 
L 241.49511 145.536292 
L 242.234322 144.571967 
L 242.973534 143.607823 
L 243.712747 142.782189 
L 244.451959 141.956375 
L 245.191172 141.130741 
L 245.930384 140.30891 
L 246.669597 139.487079 
L 247.408809 138.665248 
L 248.148022 137.424263 
L 248.887234 136.183278 
L 249.626447 135.96673 
L 250.365659 135.750364 
L 251.104871 135.317449 
L 251.844084 134.884535 
L 252.583296 134.451621 
L 253.322509 134.739868 
L 254.061721 135.028297 
L 254.800934 135.316544 
L 255.540146 136.181648 
L 256.279359 137.046391 
L 257.018571 137.478943 
L 257.757784 137.911314 
L 258.496996 138.685527 
L 259.236209 139.459558 
L 259.975421 140.23377 
L 260.714633 141.007983 
L 261.453846 141.487973 
L 262.193058 141.967963 
L 262.932271 142.447953 
L 263.671483 143.887922 
L 264.410696 144.10103 
L 265.149908 144.314138 
L 265.889121 144.527245 
L 266.628333 144.633889 
L 267.367546 144.740353 
L 268.106758 144.95346 
L 268.84597 145.166749 
L 269.585183 145.379856 
L 270.324395 145.592964 
L 271.063608 145.699427 
L 271.80282 145.806072 
L 272.542033 146.019179 
L 273.281245 146.125642 
L 274.020458 146.232287 
L 274.75967 146.388904 
L 275.498883 146.545521 
L 276.238095 146.702137 
L 276.977308 146.858754 
L 277.71652 146.937153 
L 278.455732 147.015371 
L 279.194945 147.171988 
L 279.934157 147.328786 
L 280.67337 147.485403 
L 281.412582 147.563621 
L 282.151795 147.64202 
L 282.891007 147.798636 
L 283.63022 147.955253 
L 284.369432 148.007399 
L 285.108645 148.059725 
L 285.847857 148.11187 
L 286.58707 148.268487 
L 287.326282 148.322986 
L 288.065494 148.377485 
L 288.804707 148.431984 
L 289.543919 148.5953 
L 290.283132 148.758797 
L 291.022344 148.922295 
L 291.761557 148.976794 
L 292.500769 149.031112 
L 293.239982 149.085611 
L 293.979194 149.249108 
L 294.718407 149.40319 
L 295.457619 149.557272 
L 296.196831 149.634222 
L 296.936044 149.711173 
L 297.675256 149.865255 
L 298.414469 149.942386 
L 299.153681 150.019337 
L 299.892894 150.218684 
L 300.632106 150.418212 
L 301.371319 150.617559 
L 302.110531 150.717323 
L 302.849744 150.817087 
L 303.588956 151.030014 
L 304.328169 151.242759 
L 305.067381 151.455686 
L 305.806593 151.526661 
L 306.545806 151.597637 
L 307.285018 151.668431 
L 308.024231 151.881357 
L 308.763443 152.067487 
L 309.502656 152.253617 
L 310.241868 152.439927 
L 310.981081 152.626057 
L 311.720293 152.719122 
L 311.720293 152.778872 
L 311.720293 152.778872 
L 310.981081 152.778872 
L 310.241868 152.778872 
L 309.502656 152.778872 
L 308.763443 152.778872 
L 308.024231 152.778872 
L 307.285018 152.778872 
L 306.545806 152.778872 
L 305.806593 152.778872 
L 305.067381 152.778872 
L 304.328169 152.778872 
L 303.588956 152.778872 
L 302.849744 152.778872 
L 302.110531 152.778872 
L 301.371319 152.778872 
L 300.632106 152.778872 
L 299.892894 152.778872 
L 299.153681 152.778872 
L 298.414469 152.778872 
L 297.675256 152.778872 
L 296.936044 152.778872 
L 296.196831 152.778872 
L 295.457619 152.778872 
L 294.718407 152.778872 
L 293.979194 152.778872 
L 293.239982 152.778872 
L 292.500769 152.778872 
L 291.761557 152.778872 
L 291.022344 152.778872 
L 290.283132 152.778872 
L 289.543919 152.778872 
L 288.804707 152.778872 
L 288.065494 152.778872 
L 287.326282 152.778872 
L 286.58707 152.778872 
L 285.847857 152.778872 
L 285.108645 152.778872 
L 284.369432 152.778872 
L 283.63022 152.778872 
L 282.891007 152.778872 
L 282.151795 152.778872 
L 281.412582 152.778872 
L 280.67337 152.778872 
L 279.934157 152.778872 
L 279.194945 152.778872 
L 278.455732 152.778872 
L 277.71652 152.778872 
L 276.977308 152.778872 
L 276.238095 152.778872 
L 275.498883 152.778872 
L 274.75967 152.778872 
L 274.020458 152.778872 
L 273.281245 152.778872 
L 272.542033 152.778872 
L 271.80282 152.778872 
L 271.063608 152.778872 
L 270.324395 152.778872 
L 269.585183 152.778872 
L 268.84597 152.778872 
L 268.106758 152.778872 
L 267.367546 152.778872 
L 266.628333 152.778872 
L 265.889121 152.778872 
L 265.149908 152.778872 
L 264.410696 152.778872 
L 263.671483 152.778872 
L 262.932271 152.778872 
L 262.193058 152.778872 
L 261.453846 152.778872 
L 260.714633 152.778872 
L 259.975421 152.778872 
L 259.236209 152.778872 
L 258.496996 152.778872 
L 257.757784 152.778872 
L 257.018571 152.778872 
L 256.279359 152.778872 
L 255.540146 152.778872 
L 254.800934 152.778872 
L 254.061721 152.778872 
L 253.322509 152.778872 
L 252.583296 152.778872 
L 251.844084 152.778872 
L 251.104871 152.778872 
L 250.365659 152.778872 
L 249.626447 152.778872 
L 248.887234 152.778872 
L 248.148022 152.778872 
L 247.408809 152.778872 
L 246.669597 152.778872 
L 245.930384 152.778872 
L 245.191172 152.778872 
L 244.451959 152.778872 
L 243.712747 152.778872 
L 242.973534 152.778872 
L 242.234322 152.778872 
L 241.49511 152.778872 
L 240.755897 152.778872 
L 240.016685 152.778872 
L 239.277472 152.778872 
L 238.53826 152.778872 
L 237.799047 152.778872 
L 237.059835 152.778872 
L 236.320622 152.778872 
L 235.58141 152.778872 
L 234.842197 152.778872 
L 234.102985 152.778872 
z
" clip-path="url(#p3415226318)" style="fill: #008000; fill-opacity: 0.3"/>
    <path d="M 387.119964 152.778872 
L 387.119964 152.682548 
L 387.859176 152.702464 
L 387.859176 152.778872 
L 387.859176 152.778872 
L 387.119964 152.778872 
z
" clip-path="url(#p3415226318)" style="fill: #008000; fill-opacity: 0.3"/>
    <path d="M 389.337601 152.778872 
L 389.337601 152.759136 
L 390.076814 152.736866 
L 390.816026 152.691963 
L 391.555239 152.647241 
L 392.294451 152.632394 
L 393.033664 152.617366 
L 393.772876 152.602519 
L 394.512089 152.580068 
L 395.251301 152.557616 
L 395.990513 152.535346 
L 396.729726 152.512895 
L 397.468938 152.670598 
L 397.468938 152.778872 
L 397.468938 152.778872 
L 396.729726 152.778872 
L 395.990513 152.778872 
L 395.251301 152.778872 
L 394.512089 152.778872 
L 393.772876 152.778872 
L 393.033664 152.778872 
L 392.294451 152.778872 
L 391.555239 152.778872 
L 390.816026 152.778872 
L 390.076814 152.778872 
L 389.337601 152.778872 
z
" clip-path="url(#p3415226318)" style="fill: #008000; fill-opacity: 0.3"/>
   </g>
   <g id="PolyCollection_8">
    <path d="M 225.971648 152.778872 
L 225.971648 152.965907 
L 226.71086 153.101702 
L 227.450073 153.192051 
L 228.189285 153.282581 
L 228.928498 153.372929 
L 229.66771 153.413306 
L 230.406923 153.453501 
L 231.146135 153.47378 
L 231.885348 153.493877 
L 232.62456 153.170504 
L 233.363772 152.847131 
L 233.363772 152.778872 
L 233.363772 152.778872 
L 232.62456 152.778872 
L 231.885348 152.778872 
L 231.146135 152.778872 
L 230.406923 152.778872 
L 229.66771 152.778872 
L 228.928498 152.778872 
L 228.189285 152.778872 
L 227.450073 152.778872 
L 226.71086 152.778872 
L 225.971648 152.778872 
z
" clip-path="url(#p3415226318)" style="fill: #ff0000; fill-opacity: 0.3"/>
    <path d="M 312.459506 152.778872 
L 312.459506 152.812187 
L 313.198718 152.828663 
L 313.93793 152.84514 
L 314.677143 152.878093 
L 315.416355 152.894569 
L 316.155568 152.911045 
L 316.89478 152.943998 
L 317.633993 152.916658 
L 318.373205 152.907424 
L 319.112418 152.898371 
L 319.85163 152.889318 
L 320.590843 152.861797 
L 320.590843 152.778872 
L 320.590843 152.778872 
L 319.85163 152.778872 
L 319.112418 152.778872 
L 318.373205 152.778872 
L 317.633993 152.778872 
L 316.89478 152.778872 
L 316.155568 152.778872 
L 315.416355 152.778872 
L 314.677143 152.778872 
L 313.93793 152.778872 
L 313.198718 152.778872 
L 312.459506 152.778872 
z
" clip-path="url(#p3415226318)" style="fill: #ff0000; fill-opacity: 0.3"/>
    <path d="M 388.598389 152.778872 
L 388.598389 152.781588 
L 388.598389 152.778872 
L 388.598389 152.778872 
z
" clip-path="url(#p3415226318)" style="fill: #ff0000; fill-opacity: 0.3"/>
    <path d="M 398.208151 152.778872 
L 398.208151 152.828301 
L 398.947363 152.907062 
L 399.686576 152.985823 
L 400.425788 153.143526 
L 401.165001 153.30123 
L 401.904213 153.458933 
L 402.643426 153.616455 
L 403.382638 153.695397 
L 404.12185 153.774158 
L 404.861063 153.931862 
L 405.600275 154.052447 
L 406.339488 154.173033 
L 407.0787 154.293438 
L 407.817913 154.414024 
L 408.557125 154.53461 
L 409.296338 154.574805 
L 410.03555 154.615001 
L 410.774763 154.655196 
L 411.513975 154.715489 
L 412.253188 154.775782 
L 412.9924 154.896368 
L 413.731612 155.016773 
L 414.470825 155.137359 
L 415.210037 155.197652 
L 415.94925 155.257945 
L 416.688462 155.249254 
L 417.427675 155.240382 
L 418.166887 155.231691 
L 418.9061 155.227346 
L 419.645312 155.223 
L 420.384525 155.214309 
L 421.123737 155.209783 
L 421.862949 155.205437 
L 422.602162 155.196746 
L 423.341374 155.188056 
L 424.080587 155.183529 
L 424.819799 155.179184 
L 425.559012 155.170493 
L 426.298224 155.132289 
L 427.037437 155.094266 
L 427.776649 155.075074 
L 428.515862 155.056063 
L 429.255074 155.043389 
L 429.994287 155.030714 
L 430.733499 155.017859 
L 431.472711 154.998848 
L 432.211924 154.979837 
L 432.951136 154.941633 
L 432.951136 152.778872 
L 432.951136 152.778872 
L 432.211924 152.778872 
L 431.472711 152.778872 
L 430.733499 152.778872 
L 429.994287 152.778872 
L 429.255074 152.778872 
L 428.515862 152.778872 
L 427.776649 152.778872 
L 427.037437 152.778872 
L 426.298224 152.778872 
L 425.559012 152.778872 
L 424.819799 152.778872 
L 424.080587 152.778872 
L 423.341374 152.778872 
L 422.602162 152.778872 
L 421.862949 152.778872 
L 421.123737 152.778872 
L 420.384525 152.778872 
L 419.645312 152.778872 
L 418.9061 152.778872 
L 418.166887 152.778872 
L 417.427675 152.778872 
L 416.688462 152.778872 
L 415.94925 152.778872 
L 415.210037 152.778872 
L 414.470825 152.778872 
L 413.731612 152.778872 
L 412.9924 152.778872 
L 412.253188 152.778872 
L 411.513975 152.778872 
L 410.774763 152.778872 
L 410.03555 152.778872 
L 409.296338 152.778872 
L 408.557125 152.778872 
L 407.817913 152.778872 
L 407.0787 152.778872 
L 406.339488 152.778872 
L 405.600275 152.778872 
L 404.861063 152.778872 
L 404.12185 152.778872 
L 403.382638 152.778872 
L 402.643426 152.778872 
L 401.904213 152.778872 
L 401.165001 152.778872 
L 400.425788 152.778872 
L 399.686576 152.778872 
L 398.947363 152.778872 
L 398.208151 152.778872 
z
" clip-path="url(#p3415226318)" style="fill: #ff0000; fill-opacity: 0.3"/>
   </g>
   <g id="matplotlib.axis_4">
    <g id="ytick_8">
     <g id="line2d_21">
      <path d="M 154.305 152.778872 
L 446.22 152.778872 
" clip-path="url(#p3415226318)" style="fill: none; stroke: #b0b0b0; stroke-width: 0.8; stroke-linecap: square"/>
     </g>
     <g id="line2d_22">
      <g>
       <use xlink:href="#m9586d1e109" x="154.305" y="152.778872" style="stroke: #000000; stroke-width: 0.8"/>
      </g>
     </g>
     <g id="text_12">
      <!-- 0 -->
      <g transform="translate(138.715625 157.907817) scale(0.135 -0.135)">
       <use xlink:href="#DejaVuSans-30"/>
      </g>
     </g>
    </g>
    <g id="ytick_9">
     <g id="line2d_23">
      <path d="M 154.305 134.672876 
L 446.22 134.672876 
" clip-path="url(#p3415226318)" style="fill: none; stroke: #b0b0b0; stroke-width: 0.8; stroke-linecap: square"/>
     </g>
     <g id="line2d_24">
      <g>
       <use xlink:href="#m9586d1e109" x="154.305" y="134.672876" style="stroke: #000000; stroke-width: 0.8"/>
      </g>
     </g>
     <g id="text_13">
      <!-- 1000 -->
      <g transform="translate(112.9475 139.801821) scale(0.135 -0.135)">
       <use xlink:href="#DejaVuSans-31"/>
       <use xlink:href="#DejaVuSans-30" x="63.623047"/>
       <use xlink:href="#DejaVuSans-30" x="127.246094"/>
       <use xlink:href="#DejaVuSans-30" x="190.869141"/>
      </g>
     </g>
    </g>
    <g id="text_14">
     <!-- PEU_4-2 [kW] -->
     <g transform="translate(17.277422 141.671736) scale(0.135 -0.135)">
      <use xlink:href="#DejaVuSans-50"/>
      <use xlink:href="#DejaVuSans-45" x="60.302734"/>
      <use xlink:href="#DejaVuSans-55" x="123.486328"/>
      <use xlink:href="#DejaVuSans-5f" x="196.679688"/>
      <use xlink:href="#DejaVuSans-34" x="246.679688"/>
      <use xlink:href="#DejaVuSans-2d" x="310.302734"/>
      <use xlink:href="#DejaVuSans-32" x="346.386719"/>
      <use xlink:href="#DejaVuSans-20" x="410.009766"/>
      <use xlink:href="#DejaVuSans-5b" x="441.796875"/>
      <use xlink:href="#DejaVuSans-6b" x="480.810547"/>
      <use xlink:href="#DejaVuSans-57" x="538.720703"/>
      <use xlink:href="#DejaVuSans-5d" x="637.597656"/>
     </g>
    </g>
   </g>
   <g id="line2d_25">
    <path d="M 167.573864 152.778872 
L 225.232435 152.778872 
L 226.71086 153.101702 
L 230.406923 153.453501 
L 231.885348 153.493877 
L 234.102985 152.621893 
L 235.58141 152.171416 
L 236.320622 151.4957 
L 237.799047 149.833569 
L 239.277472 148.722585 
L 241.49511 145.536292 
L 243.712747 142.782189 
L 247.408809 138.665248 
L 248.887234 136.183278 
L 250.365659 135.750364 
L 252.583296 134.451621 
L 254.800934 135.316544 
L 256.279359 137.046391 
L 257.757784 137.911314 
L 260.714633 141.007983 
L 262.932271 142.447953 
L 263.671483 143.887922 
L 266.628333 144.633889 
L 268.106758 144.95346 
L 271.063608 145.699427 
L 274.020458 146.232287 
L 277.71652 146.937153 
L 279.194945 147.171988 
L 281.412582 147.563621 
L 282.891007 147.798636 
L 284.369432 148.007399 
L 288.804707 148.431984 
L 291.761557 148.976794 
L 293.979194 149.249108 
L 296.196831 149.634222 
L 299.153681 150.019337 
L 302.110531 150.717323 
L 302.849744 150.817087 
L 305.067381 151.455686 
L 307.285018 151.668431 
L 310.981081 152.626057 
L 313.198718 152.828663 
L 319.85163 152.889318 
L 325.76533 152.778872 
L 390.816026 152.691963 
L 393.772876 152.602519 
L 396.729726 152.512895 
L 398.947363 152.907062 
L 400.425788 153.143526 
L 403.382638 153.695397 
L 404.861063 153.931862 
L 409.296338 154.574805 
L 412.253188 154.775782 
L 415.210037 155.197652 
L 416.688462 155.249254 
L 432.211924 154.979837 
L 432.951136 154.941633 
L 432.951136 154.941633 
" clip-path="url(#p3415226318)" style="fill: none; stroke: #1f77b4; stroke-width: 1.5; stroke-linecap: square"/>
   </g>
   <g id="line2d_26">
    <path d="M 154.305 152.778872 
L 446.22 152.778872 
" clip-path="url(#p3415226318)" style="fill: none; stroke: #000000; stroke-width: 1.5; stroke-linecap: square"/>
   </g>
   <g id="patch_18">
    <path d="M 154.305 156.298261 
L 154.305 133.411304 
" style="fill: none; stroke: #000000; stroke-width: 0.8; stroke-linejoin: miter; stroke-linecap: square"/>
   </g>
   <g id="patch_19">
    <path d="M 446.22 156.298261 
L 446.22 133.411304 
" style="fill: none; stroke: #000000; stroke-width: 0.8; stroke-linejoin: miter; stroke-linecap: square"/>
   </g>
   <g id="patch_20">
    <path d="M 154.305 156.298261 
L 446.22 156.298261 
" style="fill: none; stroke: #000000; stroke-width: 0.8; stroke-linejoin: miter; stroke-linecap: square"/>
   </g>
   <g id="patch_21">
    <path d="M 154.305 133.411304 
L 446.22 133.411304 
" style="fill: none; stroke: #000000; stroke-width: 0.8; stroke-linejoin: miter; stroke-linecap: square"/>
   </g>
  </g>
  <g id="axes_5">
   <g id="patch_22">
    <path d="M 154.305 190.628696 
L 446.22 190.628696 
L 446.22 167.741739 
L 154.305 167.741739 
z
" style="fill: #ffffff"/>
   </g>
   <g id="matplotlib.axis_5">
    <g id="ytick_10">
     <g id="line2d_27">
      <g>
       <use xlink:href="#m9586d1e109" x="154.305" y="189.588379" style="stroke: #000000; stroke-width: 0.8"/>
      </g>
     </g>
     <g id="text_15">
      <!-- 0 -->
      <g transform="translate(138.715625 194.717325) scale(0.135 -0.135)">
       <use xlink:href="#DejaVuSans-30"/>
      </g>
     </g>
    </g>
    <g id="ytick_11">
     <g id="line2d_28">
      <g>
       <use xlink:href="#m9586d1e109" x="154.305" y="168.782055" style="stroke: #000000; stroke-width: 0.8"/>
      </g>
     </g>
     <g id="text_16">
      <!-- 1 -->
      <g transform="translate(138.715625 173.911001) scale(0.135 -0.135)">
       <use xlink:href="#DejaVuSans-31"/>
      </g>
     </g>
    </g>
    <g id="text_17">
     <!-- SW_4-1 -->
     <g transform="translate(40.856719 176.002171) scale(0.135 -0.135)">
      <defs>
       <path id="DejaVuSans-53" d="M 3425 4513 
L 3425 3897 
Q 3066 4069 2747 4153 
Q 2428 4238 2131 4238 
Q 1616 4238 1336 4038 
Q 1056 3838 1056 3469 
Q 1056 3159 1242 3001 
Q 1428 2844 1947 2747 
L 2328 2669 
Q 3034 2534 3370 2195 
Q 3706 1856 3706 1288 
Q 3706 609 3251 259 
Q 2797 -91 1919 -91 
Q 1588 -91 1214 -16 
Q 841 59 441 206 
L 441 856 
Q 825 641 1194 531 
Q 1563 422 1919 422 
Q 2459 422 2753 634 
Q 3047 847 3047 1241 
Q 3047 1584 2836 1778 
Q 2625 1972 2144 2069 
L 1759 2144 
Q 1053 2284 737 2584 
Q 422 2884 422 3419 
Q 422 4038 858 4394 
Q 1294 4750 2059 4750 
Q 2388 4750 2728 4690 
Q 3069 4631 3425 4513 
z
" transform="scale(0.015625)"/>
      </defs>
      <use xlink:href="#DejaVuSans-53"/>
      <use xlink:href="#DejaVuSans-57" x="63.476562"/>
      <use xlink:href="#DejaVuSans-5f" x="162.353516"/>
      <use xlink:href="#DejaVuSans-34" x="212.353516"/>
      <use xlink:href="#DejaVuSans-2d" x="275.976562"/>
      <use xlink:href="#DejaVuSans-31" x="312.060547"/>
     </g>
    </g>
   </g>
   <g id="line2d_29">
    <path d="M 167.573864 189.588379 
L 432.951136 189.588379 
L 432.951136 189.588379 
" clip-path="url(#pbdd1ce09ed)" style="fill: none; stroke: #1f77b4; stroke-width: 1.5; stroke-linecap: square"/>
   </g>
   <g id="line2d_30">
    <path d="M 167.573864 168.782055 
L 231.885348 168.782055 
L 232.62456 189.588379 
L 269.585183 189.588379 
L 270.324395 168.782055 
L 313.93793 168.782055 
L 314.677143 189.588379 
L 320.590843 189.588379 
L 321.330055 168.782055 
L 387.859176 168.782055 
L 388.598389 189.588379 
L 396.729726 189.588379 
L 397.468938 168.782055 
L 432.951136 168.782055 
L 432.951136 168.782055 
" clip-path="url(#pbdd1ce09ed)" style="fill: none; stroke: #ff7f0e; stroke-width: 1.5; stroke-linecap: square"/>
   </g>
   <g id="patch_23">
    <path d="M 154.305 190.628696 
L 154.305 167.741739 
" style="fill: none; stroke: #000000; stroke-width: 0.8; stroke-linejoin: miter; stroke-linecap: square"/>
   </g>
   <g id="patch_24">
    <path d="M 446.22 190.628696 
L 446.22 167.741739 
" style="fill: none; stroke: #000000; stroke-width: 0.8; stroke-linejoin: miter; stroke-linecap: square"/>
   </g>
   <g id="patch_25">
    <path d="M 154.305 190.628696 
L 446.22 190.628696 
" style="fill: none; stroke: #000000; stroke-width: 0.8; stroke-linejoin: miter; stroke-linecap: square"/>
   </g>
   <g id="patch_26">
    <path d="M 154.305 167.741739 
L 446.22 167.741739 
" style="fill: none; stroke: #000000; stroke-width: 0.8; stroke-linejoin: miter; stroke-linecap: square"/>
   </g>
  </g>
  <g id="axes_6">
   <g id="patch_27">
    <path d="M 154.305 224.95913 
L 446.22 224.95913 
L 446.22 202.072174 
L 154.305 202.072174 
z
" style="fill: #ffffff"/>
   </g>
   <g id="matplotlib.axis_6">
    <g id="ytick_12">
     <g id="line2d_31">
      <g>
       <use xlink:href="#m9586d1e109" x="154.305" y="223.918814" style="stroke: #000000; stroke-width: 0.8"/>
      </g>
     </g>
     <g id="text_18">
      <!-- 0 -->
      <g transform="translate(138.715625 229.04776) scale(0.135 -0.135)">
       <use xlink:href="#DejaVuSans-30"/>
      </g>
     </g>
    </g>
    <g id="ytick_13">
     <g id="line2d_32">
      <g>
       <use xlink:href="#m9586d1e109" x="154.305" y="203.11249" style="stroke: #000000; stroke-width: 0.8"/>
      </g>
     </g>
     <g id="text_19">
      <!-- 1 -->
      <g transform="translate(138.715625 208.241435) scale(0.135 -0.135)">
       <use xlink:href="#DejaVuSans-31"/>
      </g>
     </g>
    </g>
    <g id="text_20">
     <!-- SW_4-3 -->
     <g transform="translate(40.856719 210.332605) scale(0.135 -0.135)">
      <use xlink:href="#DejaVuSans-53"/>
      <use xlink:href="#DejaVuSans-57" x="63.476562"/>
      <use xlink:href="#DejaVuSans-5f" x="162.353516"/>
      <use xlink:href="#DejaVuSans-34" x="212.353516"/>
      <use xlink:href="#DejaVuSans-2d" x="275.976562"/>
      <use xlink:href="#DejaVuSans-33" x="312.060547"/>
     </g>
    </g>
   </g>
   <g id="line2d_33">
    <path d="M 167.573864 223.918814 
L 432.951136 223.918814 
L 432.951136 223.918814 
" clip-path="url(#pf24d084fd0)" style="fill: none; stroke: #1f77b4; stroke-width: 1.5; stroke-linecap: square"/>
   </g>
   <g id="line2d_34">
    <path d="M 167.573864 203.11249 
L 234.842197 203.11249 
L 235.58141 223.918814 
L 269.585183 223.918814 
L 270.324395 203.11249 
L 313.93793 203.11249 
L 314.677143 223.918814 
L 320.590843 223.918814 
L 321.330055 203.11249 
L 396.729726 203.11249 
L 397.468938 223.918814 
L 427.037437 223.918814 
L 427.776649 203.11249 
L 432.951136 203.11249 
L 432.951136 203.11249 
" clip-path="url(#pf24d084fd0)" style="fill: none; stroke: #ff7f0e; stroke-width: 1.5; stroke-linecap: square"/>
   </g>
   <g id="patch_28">
    <path d="M 154.305 224.95913 
L 154.305 202.072174 
" style="fill: none; stroke: #000000; stroke-width: 0.8; stroke-linejoin: miter; stroke-linecap: square"/>
   </g>
   <g id="patch_29">
    <path d="M 446.22 224.95913 
L 446.22 202.072174 
" style="fill: none; stroke: #000000; stroke-width: 0.8; stroke-linejoin: miter; stroke-linecap: square"/>
   </g>
   <g id="patch_30">
    <path d="M 154.305 224.95913 
L 446.22 224.95913 
" style="fill: none; stroke: #000000; stroke-width: 0.8; stroke-linejoin: miter; stroke-linecap: square"/>
   </g>
   <g id="patch_31">
    <path d="M 154.305 202.072174 
L 446.22 202.072174 
" style="fill: none; stroke: #000000; stroke-width: 0.8; stroke-linejoin: miter; stroke-linecap: square"/>
   </g>
  </g>
  <g id="axes_7">
   <g id="patch_32">
    <path d="M 154.305 259.289565 
L 446.22 259.289565 
L 446.22 236.402609 
L 154.305 236.402609 
z
" style="fill: #ffffff"/>
   </g>
   <g id="matplotlib.axis_7">
    <g id="ytick_14">
     <g id="line2d_35">
      <g>
       <use xlink:href="#m9586d1e109" x="154.305" y="258.249249" style="stroke: #000000; stroke-width: 0.8"/>
      </g>
     </g>
     <g id="text_21">
      <!-- 0 -->
      <g transform="translate(138.715625 263.378194) scale(0.135 -0.135)">
       <use xlink:href="#DejaVuSans-30"/>
      </g>
     </g>
    </g>
    <g id="ytick_15">
     <g id="line2d_36">
      <g>
       <use xlink:href="#m9586d1e109" x="154.305" y="237.442925" style="stroke: #000000; stroke-width: 0.8"/>
      </g>
     </g>
     <g id="text_22">
      <!-- 1 -->
      <g transform="translate(138.715625 242.57187) scale(0.135 -0.135)">
       <use xlink:href="#DejaVuSans-31"/>
      </g>
     </g>
    </g>
    <g id="text_23">
     <!-- SW_4-2 -->
     <g transform="translate(40.856719 244.66304) scale(0.135 -0.135)">
      <use xlink:href="#DejaVuSans-53"/>
      <use xlink:href="#DejaVuSans-57" x="63.476562"/>
      <use xlink:href="#DejaVuSans-5f" x="162.353516"/>
      <use xlink:href="#DejaVuSans-34" x="212.353516"/>
      <use xlink:href="#DejaVuSans-2d" x="275.976562"/>
      <use xlink:href="#DejaVuSans-32" x="312.060547"/>
     </g>
    </g>
   </g>
   <g id="line2d_37">
    <path d="M 167.573864 258.249249 
L 432.951136 258.249249 
L 432.951136 258.249249 
" clip-path="url(#p669fbabe7b)" style="fill: none; stroke: #1f77b4; stroke-width: 1.5; stroke-linecap: square"/>
   </g>
   <g id="line2d_38">
    <path d="M 167.573864 237.442925 
L 225.232435 237.442925 
L 225.971648 258.249249 
L 233.363772 258.249249 
L 234.102985 237.442925 
L 311.720293 237.442925 
L 312.459506 258.249249 
L 320.590843 258.249249 
L 321.330055 237.442925 
L 387.859176 237.442925 
L 388.598389 258.249249 
L 389.337601 237.442925 
L 397.468938 237.442925 
L 398.208151 258.249249 
L 432.951136 258.249249 
L 432.951136 258.249249 
" clip-path="url(#p669fbabe7b)" style="fill: none; stroke: #ff7f0e; stroke-width: 1.5; stroke-linecap: square"/>
   </g>
   <g id="patch_33">
    <path d="M 154.305 259.289565 
L 154.305 236.402609 
" style="fill: none; stroke: #000000; stroke-width: 0.8; stroke-linejoin: miter; stroke-linecap: square"/>
   </g>
   <g id="patch_34">
    <path d="M 446.22 259.289565 
L 446.22 236.402609 
" style="fill: none; stroke: #000000; stroke-width: 0.8; stroke-linejoin: miter; stroke-linecap: square"/>
   </g>
   <g id="patch_35">
    <path d="M 154.305 259.289565 
L 446.22 259.289565 
" style="fill: none; stroke: #000000; stroke-width: 0.8; stroke-linejoin: miter; stroke-linecap: square"/>
   </g>
   <g id="patch_36">
    <path d="M 154.305 236.402609 
L 446.22 236.402609 
" style="fill: none; stroke: #000000; stroke-width: 0.8; stroke-linejoin: miter; stroke-linecap: square"/>
   </g>
  </g>
  <g id="axes_8">
   <g id="patch_37">
    <path d="M 154.305 293.62 
L 446.22 293.62 
L 446.22 270.733043 
L 154.305 270.733043 
z
" style="fill: #ffffff"/>
   </g>
   <g id="matplotlib.axis_8">
    <g id="xtick_1">
     <g id="line2d_39">
      <defs>
       <path id="m3b9090d232" d="M 0 0 
L 0 3.5 
" style="stroke: #000000; stroke-width: 0.8"/>
      </defs>
      <g>
       <use xlink:href="#m3b9090d232" x="167.573864" y="293.62" style="stroke: #000000; stroke-width: 0.8"/>
      </g>
     </g>
     <g id="text_24">
      <!-- 00 -->
      <g transform="translate(158.984489 310.877891) scale(0.135 -0.135)">
       <use xlink:href="#DejaVuSans-30"/>
       <use xlink:href="#DejaVuSans-30" x="63.623047"/>
      </g>
     </g>
    </g>
    <g id="xtick_2">
     <g id="line2d_40">
      <g>
       <use xlink:href="#m3b9090d232" x="200.838424" y="293.62" style="stroke: #000000; stroke-width: 0.8"/>
      </g>
     </g>
     <g id="text_25">
      <!-- 03 -->
      <g transform="translate(192.249049 310.877891) scale(0.135 -0.135)">
       <use xlink:href="#DejaVuSans-30"/>
       <use xlink:href="#DejaVuSans-33" x="63.623047"/>
      </g>
     </g>
    </g>
    <g id="xtick_3">
     <g id="line2d_41">
      <g>
       <use xlink:href="#m3b9090d232" x="234.102985" y="293.62" style="stroke: #000000; stroke-width: 0.8"/>
      </g>
     </g>
     <g id="text_26">
      <!-- 06 -->
      <g transform="translate(225.51361 310.877891) scale(0.135 -0.135)">
       <defs>
        <path id="DejaVuSans-36" d="M 2113 2584 
Q 1688 2584 1439 2293 
Q 1191 2003 1191 1497 
Q 1191 994 1439 701 
Q 1688 409 2113 409 
Q 2538 409 2786 701 
Q 3034 994 3034 1497 
Q 3034 2003 2786 2293 
Q 2538 2584 2113 2584 
z
M 3366 4563 
L 3366 3988 
Q 3128 4100 2886 4159 
Q 2644 4219 2406 4219 
Q 1781 4219 1451 3797 
Q 1122 3375 1075 2522 
Q 1259 2794 1537 2939 
Q 1816 3084 2150 3084 
Q 2853 3084 3261 2657 
Q 3669 2231 3669 1497 
Q 3669 778 3244 343 
Q 2819 -91 2113 -91 
Q 1303 -91 875 529 
Q 447 1150 447 2328 
Q 447 3434 972 4092 
Q 1497 4750 2381 4750 
Q 2619 4750 2861 4703 
Q 3103 4656 3366 4563 
z
" transform="scale(0.015625)"/>
       </defs>
       <use xlink:href="#DejaVuSans-30"/>
       <use xlink:href="#DejaVuSans-36" x="63.623047"/>
      </g>
     </g>
    </g>
    <g id="xtick_4">
     <g id="line2d_42">
      <g>
       <use xlink:href="#m3b9090d232" x="267.367546" y="293.62" style="stroke: #000000; stroke-width: 0.8"/>
      </g>
     </g>
     <g id="text_27">
      <!-- 09 -->
      <g transform="translate(258.778171 310.877891) scale(0.135 -0.135)">
       <defs>
        <path id="DejaVuSans-39" d="M 703 97 
L 703 672 
Q 941 559 1184 500 
Q 1428 441 1663 441 
Q 2288 441 2617 861 
Q 2947 1281 2994 2138 
Q 2813 1869 2534 1725 
Q 2256 1581 1919 1581 
Q 1219 1581 811 2004 
Q 403 2428 403 3163 
Q 403 3881 828 4315 
Q 1253 4750 1959 4750 
Q 2769 4750 3195 4129 
Q 3622 3509 3622 2328 
Q 3622 1225 3098 567 
Q 2575 -91 1691 -91 
Q 1453 -91 1209 -44 
Q 966 3 703 97 
z
M 1959 2075 
Q 2384 2075 2632 2365 
Q 2881 2656 2881 3163 
Q 2881 3666 2632 3958 
Q 2384 4250 1959 4250 
Q 1534 4250 1286 3958 
Q 1038 3666 1038 3163 
Q 1038 2656 1286 2365 
Q 1534 2075 1959 2075 
z
" transform="scale(0.015625)"/>
       </defs>
       <use xlink:href="#DejaVuSans-30"/>
       <use xlink:href="#DejaVuSans-39" x="63.623047"/>
      </g>
     </g>
    </g>
    <g id="xtick_5">
     <g id="line2d_43">
      <g>
       <use xlink:href="#m3b9090d232" x="300.632106" y="293.62" style="stroke: #000000; stroke-width: 0.8"/>
      </g>
     </g>
     <g id="text_28">
      <!-- 12 -->
      <g transform="translate(292.042731 310.877891) scale(0.135 -0.135)">
       <use xlink:href="#DejaVuSans-31"/>
       <use xlink:href="#DejaVuSans-32" x="63.623047"/>
      </g>
     </g>
    </g>
    <g id="xtick_6">
     <g id="line2d_44">
      <g>
       <use xlink:href="#m3b9090d232" x="333.896667" y="293.62" style="stroke: #000000; stroke-width: 0.8"/>
      </g>
     </g>
     <g id="text_29">
      <!-- 15 -->
      <g transform="translate(325.307292 310.877891) scale(0.135 -0.135)">
       <use xlink:href="#DejaVuSans-31"/>
       <use xlink:href="#DejaVuSans-35" x="63.623047"/>
      </g>
     </g>
    </g>
    <g id="xtick_7">
     <g id="line2d_45">
      <g>
       <use xlink:href="#m3b9090d232" x="367.161228" y="293.62" style="stroke: #000000; stroke-width: 0.8"/>
      </g>
     </g>
     <g id="text_30">
      <!-- 18 -->
      <g transform="translate(358.571853 310.877891) scale(0.135 -0.135)">
       <defs>
        <path id="DejaVuSans-38" d="M 2034 2216 
Q 1584 2216 1326 1975 
Q 1069 1734 1069 1313 
Q 1069 891 1326 650 
Q 1584 409 2034 409 
Q 2484 409 2743 651 
Q 3003 894 3003 1313 
Q 3003 1734 2745 1975 
Q 2488 2216 2034 2216 
z
M 1403 2484 
Q 997 2584 770 2862 
Q 544 3141 544 3541 
Q 544 4100 942 4425 
Q 1341 4750 2034 4750 
Q 2731 4750 3128 4425 
Q 3525 4100 3525 3541 
Q 3525 3141 3298 2862 
Q 3072 2584 2669 2484 
Q 3125 2378 3379 2068 
Q 3634 1759 3634 1313 
Q 3634 634 3220 271 
Q 2806 -91 2034 -91 
Q 1263 -91 848 271 
Q 434 634 434 1313 
Q 434 1759 690 2068 
Q 947 2378 1403 2484 
z
M 1172 3481 
Q 1172 3119 1398 2916 
Q 1625 2713 2034 2713 
Q 2441 2713 2670 2916 
Q 2900 3119 2900 3481 
Q 2900 3844 2670 4047 
Q 2441 4250 2034 4250 
Q 1625 4250 1398 4047 
Q 1172 3844 1172 3481 
z
" transform="scale(0.015625)"/>
       </defs>
       <use xlink:href="#DejaVuSans-31"/>
       <use xlink:href="#DejaVuSans-38" x="63.623047"/>
      </g>
     </g>
    </g>
    <g id="xtick_8">
     <g id="line2d_46">
      <g>
       <use xlink:href="#m3b9090d232" x="400.425788" y="293.62" style="stroke: #000000; stroke-width: 0.8"/>
      </g>
     </g>
     <g id="text_31">
      <!-- 21 -->
      <g transform="translate(391.836413 310.877891) scale(0.135 -0.135)">
       <use xlink:href="#DejaVuSans-32"/>
       <use xlink:href="#DejaVuSans-31" x="63.623047"/>
      </g>
     </g>
    </g>
    <g id="xtick_9">
     <g id="line2d_47">
      <g>
       <use xlink:href="#m3b9090d232" x="433.690349" y="293.62" style="stroke: #000000; stroke-width: 0.8"/>
      </g>
     </g>
     <g id="text_32">
      <!-- 00 -->
      <g transform="translate(425.100974 310.877891) scale(0.135 -0.135)">
       <use xlink:href="#DejaVuSans-30"/>
       <use xlink:href="#DejaVuSans-30" x="63.623047"/>
      </g>
     </g>
    </g>
    <g id="text_33">
     <!-- Time [Hours] -->
     <g transform="translate(256.559414 327.943359) scale(0.135 -0.135)">
      <defs>
       <path id="DejaVuSans-54" d="M -19 4666 
L 3928 4666 
L 3928 4134 
L 2272 4134 
L 2272 0 
L 1638 0 
L 1638 4134 
L -19 4134 
L -19 4666 
z
" transform="scale(0.015625)"/>
       <path id="DejaVuSans-6d" d="M 3328 2828 
Q 3544 3216 3844 3400 
Q 4144 3584 4550 3584 
Q 5097 3584 5394 3201 
Q 5691 2819 5691 2113 
L 5691 0 
L 5113 0 
L 5113 2094 
Q 5113 2597 4934 2840 
Q 4756 3084 4391 3084 
Q 3944 3084 3684 2787 
Q 3425 2491 3425 1978 
L 3425 0 
L 2847 0 
L 2847 2094 
Q 2847 2600 2669 2842 
Q 2491 3084 2119 3084 
Q 1678 3084 1418 2786 
Q 1159 2488 1159 1978 
L 1159 0 
L 581 0 
L 581 3500 
L 1159 3500 
L 1159 2956 
Q 1356 3278 1631 3431 
Q 1906 3584 2284 3584 
Q 2666 3584 2933 3390 
Q 3200 3197 3328 2828 
z
" transform="scale(0.015625)"/>
       <path id="DejaVuSans-65" d="M 3597 1894 
L 3597 1613 
L 953 1613 
Q 991 1019 1311 708 
Q 1631 397 2203 397 
Q 2534 397 2845 478 
Q 3156 559 3463 722 
L 3463 178 
Q 3153 47 2828 -22 
Q 2503 -91 2169 -91 
Q 1331 -91 842 396 
Q 353 884 353 1716 
Q 353 2575 817 3079 
Q 1281 3584 2069 3584 
Q 2775 3584 3186 3129 
Q 3597 2675 3597 1894 
z
M 3022 2063 
Q 3016 2534 2758 2815 
Q 2500 3097 2075 3097 
Q 1594 3097 1305 2825 
Q 1016 2553 972 2059 
L 3022 2063 
z
" transform="scale(0.015625)"/>
       <path id="DejaVuSans-48" d="M 628 4666 
L 1259 4666 
L 1259 2753 
L 3553 2753 
L 3553 4666 
L 4184 4666 
L 4184 0 
L 3553 0 
L 3553 2222 
L 1259 2222 
L 1259 0 
L 628 0 
L 628 4666 
z
" transform="scale(0.015625)"/>
       <path id="DejaVuSans-75" d="M 544 1381 
L 544 3500 
L 1119 3500 
L 1119 1403 
Q 1119 906 1312 657 
Q 1506 409 1894 409 
Q 2359 409 2629 706 
Q 2900 1003 2900 1516 
L 2900 3500 
L 3475 3500 
L 3475 0 
L 2900 0 
L 2900 538 
Q 2691 219 2414 64 
Q 2138 -91 1772 -91 
Q 1169 -91 856 284 
Q 544 659 544 1381 
z
M 1991 3584 
L 1991 3584 
z
" transform="scale(0.015625)"/>
       <path id="DejaVuSans-73" d="M 2834 3397 
L 2834 2853 
Q 2591 2978 2328 3040 
Q 2066 3103 1784 3103 
Q 1356 3103 1142 2972 
Q 928 2841 928 2578 
Q 928 2378 1081 2264 
Q 1234 2150 1697 2047 
L 1894 2003 
Q 2506 1872 2764 1633 
Q 3022 1394 3022 966 
Q 3022 478 2636 193 
Q 2250 -91 1575 -91 
Q 1294 -91 989 -36 
Q 684 19 347 128 
L 347 722 
Q 666 556 975 473 
Q 1284 391 1588 391 
Q 1994 391 2212 530 
Q 2431 669 2431 922 
Q 2431 1156 2273 1281 
Q 2116 1406 1581 1522 
L 1381 1569 
Q 847 1681 609 1914 
Q 372 2147 372 2553 
Q 372 3047 722 3315 
Q 1072 3584 1716 3584 
Q 2034 3584 2315 3537 
Q 2597 3491 2834 3397 
z
" transform="scale(0.015625)"/>
      </defs>
      <use xlink:href="#DejaVuSans-54"/>
      <use xlink:href="#DejaVuSans-69" x="57.958984"/>
      <use xlink:href="#DejaVuSans-6d" x="85.742188"/>
      <use xlink:href="#DejaVuSans-65" x="183.154297"/>
      <use xlink:href="#DejaVuSans-20" x="244.677734"/>
      <use xlink:href="#DejaVuSans-5b" x="276.464844"/>
      <use xlink:href="#DejaVuSans-48" x="315.478516"/>
      <use xlink:href="#DejaVuSans-6f" x="390.673828"/>
      <use xlink:href="#DejaVuSans-75" x="451.855469"/>
      <use xlink:href="#DejaVuSans-72" x="515.234375"/>
      <use xlink:href="#DejaVuSans-73" x="556.347656"/>
      <use xlink:href="#DejaVuSans-5d" x="608.447266"/>
     </g>
    </g>
   </g>
   <g id="matplotlib.axis_9">
    <g id="ytick_16">
     <g id="line2d_48">
      <g>
       <use xlink:href="#m9586d1e109" x="154.305" y="285.568827" style="stroke: #000000; stroke-width: 0.8"/>
      </g>
     </g>
     <g id="text_34">
      <!-- −50 -->
      <g transform="translate(118.813672 290.697773) scale(0.135 -0.135)">
       <use xlink:href="#DejaVuSans-2212"/>
       <use xlink:href="#DejaVuSans-35" x="83.789062"/>
       <use xlink:href="#DejaVuSans-30" x="147.412109"/>
      </g>
     </g>
    </g>
    <g id="ytick_17">
     <g id="line2d_49">
      <g>
       <use xlink:href="#m9586d1e109" x="154.305" y="271.77336" style="stroke: #000000; stroke-width: 0.8"/>
      </g>
     </g>
     <g id="text_35">
      <!-- 0 -->
      <g transform="translate(138.715625 276.902305) scale(0.135 -0.135)">
       <use xlink:href="#DejaVuSans-30"/>
      </g>
     </g>
    </g>
    <g id="text_36">
     <!-- Balance [kW] -->
     <g transform="translate(23.896641 279.368944) scale(0.135 -0.135)">
      <defs>
       <path id="DejaVuSans-42" d="M 1259 2228 
L 1259 519 
L 2272 519 
Q 2781 519 3026 730 
Q 3272 941 3272 1375 
Q 3272 1813 3026 2020 
Q 2781 2228 2272 2228 
L 1259 2228 
z
M 1259 4147 
L 1259 2741 
L 2194 2741 
Q 2656 2741 2882 2914 
Q 3109 3088 3109 3444 
Q 3109 3797 2882 3972 
Q 2656 4147 2194 4147 
L 1259 4147 
z
M 628 4666 
L 2241 4666 
Q 2963 4666 3353 4366 
Q 3744 4066 3744 3513 
Q 3744 3084 3544 2831 
Q 3344 2578 2956 2516 
Q 3422 2416 3680 2098 
Q 3938 1781 3938 1306 
Q 3938 681 3513 340 
Q 3088 0 2303 0 
L 628 0 
L 628 4666 
z
" transform="scale(0.015625)"/>
       <path id="DejaVuSans-61" d="M 2194 1759 
Q 1497 1759 1228 1600 
Q 959 1441 959 1056 
Q 959 750 1161 570 
Q 1363 391 1709 391 
Q 2188 391 2477 730 
Q 2766 1069 2766 1631 
L 2766 1759 
L 2194 1759 
z
M 3341 1997 
L 3341 0 
L 2766 0 
L 2766 531 
Q 2569 213 2275 61 
Q 1981 -91 1556 -91 
Q 1019 -91 701 211 
Q 384 513 384 1019 
Q 384 1609 779 1909 
Q 1175 2209 1959 2209 
L 2766 2209 
L 2766 2266 
Q 2766 2663 2505 2880 
Q 2244 3097 1772 3097 
Q 1472 3097 1187 3025 
Q 903 2953 641 2809 
L 641 3341 
Q 956 3463 1253 3523 
Q 1550 3584 1831 3584 
Q 2591 3584 2966 3190 
Q 3341 2797 3341 1997 
z
" transform="scale(0.015625)"/>
       <path id="DejaVuSans-6c" d="M 603 4863 
L 1178 4863 
L 1178 0 
L 603 0 
L 603 4863 
z
" transform="scale(0.015625)"/>
       <path id="DejaVuSans-6e" d="M 3513 2113 
L 3513 0 
L 2938 0 
L 2938 2094 
Q 2938 2591 2744 2837 
Q 2550 3084 2163 3084 
Q 1697 3084 1428 2787 
Q 1159 2491 1159 1978 
L 1159 0 
L 581 0 
L 581 3500 
L 1159 3500 
L 1159 2956 
Q 1366 3272 1645 3428 
Q 1925 3584 2291 3584 
Q 2894 3584 3203 3211 
Q 3513 2838 3513 2113 
z
" transform="scale(0.015625)"/>
      </defs>
      <use xlink:href="#DejaVuSans-42"/>
      <use xlink:href="#DejaVuSans-61" x="68.603516"/>
      <use xlink:href="#DejaVuSans-6c" x="129.882812"/>
      <use xlink:href="#DejaVuSans-61" x="157.666016"/>
      <use xlink:href="#DejaVuSans-6e" x="218.945312"/>
      <use xlink:href="#DejaVuSans-63" x="282.324219"/>
      <use xlink:href="#DejaVuSans-65" x="337.304688"/>
      <use xlink:href="#DejaVuSans-20" x="398.828125"/>
      <use xlink:href="#DejaVuSans-5b" x="430.615234"/>
      <use xlink:href="#DejaVuSans-6b" x="469.628906"/>
      <use xlink:href="#DejaVuSans-57" x="527.539062"/>
      <use xlink:href="#DejaVuSans-5d" x="626.416016"/>
     </g>
    </g>
   </g>
   <g id="line2d_50">
    <path d="M 167.573864 271.77336 
L 233.363772 271.77336 
L 234.102985 271.89476 
L 235.58141 274.077203 
L 236.320622 277.346729 
L 237.059835 271.77336 
L 308.763443 271.77336 
L 309.502656 292.579684 
L 310.981081 281.311546 
L 313.198718 272.857683 
L 313.93793 271.77336 
L 396.729726 271.77336 
L 397.468938 275.509172 
L 398.208151 271.77336 
L 432.951136 271.77336 
L 432.951136 271.77336 
" clip-path="url(#p634b156e7f)" style="fill: none; stroke: #1f77b4; stroke-width: 1.5; stroke-linecap: square"/>
   </g>
   <g id="patch_38">
    <path d="M 154.305 293.62 
L 154.305 270.733043 
" style="fill: none; stroke: #000000; stroke-width: 0.8; stroke-linejoin: miter; stroke-linecap: square"/>
   </g>
   <g id="patch_39">
    <path d="M 446.22 293.62 
L 446.22 270.733043 
" style="fill: none; stroke: #000000; stroke-width: 0.8; stroke-linejoin: miter; stroke-linecap: square"/>
   </g>
   <g id="patch_40">
    <path d="M 154.305 293.62 
L 446.22 293.62 
" style="fill: none; stroke: #000000; stroke-width: 0.8; stroke-linejoin: miter; stroke-linecap: square"/>
   </g>
   <g id="patch_41">
    <path d="M 154.305 270.733043 
L 446.22 270.733043 
" style="fill: none; stroke: #000000; stroke-width: 0.8; stroke-linejoin: miter; stroke-linecap: square"/>
   </g>
  </g>
 </g>
 <defs>
  <clipPath id="p65fdd2a8fd">
   <rect x="154.305" y="30.42" width="291.915" height="22.886957"/>
  </clipPath>
  <clipPath id="p08142fb282">
   <rect x="154.305" y="64.750435" width="291.915" height="22.886957"/>
  </clipPath>
  <clipPath id="p8bb17743d9">
   <rect x="154.305" y="99.08087" width="291.915" height="22.886957"/>
  </clipPath>
  <clipPath id="p3415226318">
   <rect x="154.305" y="133.411304" width="291.915" height="22.886957"/>
  </clipPath>
  <clipPath id="pbdd1ce09ed">
   <rect x="154.305" y="167.741739" width="291.915" height="22.886957"/>
  </clipPath>
  <clipPath id="pf24d084fd0">
   <rect x="154.305" y="202.072174" width="291.915" height="22.886957"/>
  </clipPath>
  <clipPath id="p669fbabe7b">
   <rect x="154.305" y="236.402609" width="291.915" height="22.886957"/>
  </clipPath>
  <clipPath id="p634b156e7f">
   <rect x="154.305" y="270.733043" width="291.915" height="22.886957"/>
  </clipPath>
 </defs>
</svg>
