<?xml version="1.0" encoding="utf-8" standalone="no"?>
<!DOCTYPE svg PUBLIC "-//W3C//DTD SVG 1.1//EN"
  "http://www.w3.org/Graphics/SVG/1.1/DTD/svg11.dtd">
<svg xmlns:xlink="http://www.w3.org/1999/xlink" width="460.8pt" height="345.6pt" viewBox="0 0 460.8 345.6" xmlns="http://www.w3.org/2000/svg" version="1.1">
 <metadata>
  <rdf:RDF xmlns:dc="http://purl.org/dc/elements/1.1/" xmlns:cc="http://creativecommons.org/ns#" xmlns:rdf="http://www.w3.org/1999/02/22-rdf-syntax-ns#">
   <cc:Work>
    <dc:type rdf:resource="http://purl.org/dc/dcmitype/StillImage"/>
    <dc:date>2025-02-06T21:41:55.106220</dc:date>
    <dc:format>image/svg+xml</dc:format>
    <dc:creator>
     <cc:Agent>
      <dc:title>Matplotlib v3.8.0, https://matplotlib.org/</dc:title>
     </cc:Agent>
    </dc:creator>
   </cc:Work>
  </rdf:RDF>
 </metadata>
 <defs>
  <style type="text/css">*{stroke-linejoin: round; stroke-linecap: butt}</style>
 </defs>
 <g id="figure_1">
  <g id="patch_1">
   <path d="M 0 345.6 
L 460.8 345.6 
L 460.8 0 
L 0 0 
z
" style="fill: #ffffff"/>
  </g>
  <g id="axes_1">
   <g id="patch_2">
    <path d="M 162.885 53.306957 
L 446.22 53.306957 
L 446.22 30.42 
L 162.885 30.42 
z
" style="fill: #ffffff"/>
   </g>
   <g id="PolyCollection_1">
    <path d="M 201.607737 49.787567 
L 201.607737 49.630588 
L 202.4692 49.40535 
L 203.330662 49.180111 
L 204.192125 48.504395 
L 205.053587 47.67333 
L 205.915049 46.842265 
L 206.776512 46.286773 
L 207.637974 45.731281 
L 208.499437 44.620116 
L 209.360899 43.509132 
L 210.222362 42.544988 
L 211.083824 41.580663 
L 211.945287 40.616518 
L 212.806749 39.790885 
L 213.668211 38.96507 
L 214.529674 38.139437 
L 215.391136 37.317606 
L 216.252599 36.495775 
L 217.114061 35.673944 
L 217.975524 34.432959 
L 218.836986 33.191974 
L 219.698449 32.975426 
L 220.559911 32.759059 
L 221.421374 32.326145 
L 222.282836 31.893231 
L 223.144298 31.460316 
L 224.005761 31.748564 
L 224.867223 32.036992 
L 225.728686 32.32524 
L 226.590148 33.190344 
L 227.451611 34.055086 
L 228.313073 34.487639 
L 229.174536 34.92001 
L 230.035998 35.694222 
L 230.89746 36.468254 
L 231.758923 37.242466 
L 232.620385 38.016678 
L 233.481848 38.496668 
L 234.34331 38.976658 
L 235.204773 39.456648 
L 236.066235 40.896618 
L 236.927698 41.109726 
L 237.78916 41.322833 
L 238.650623 41.535941 
L 239.512085 41.642585 
L 240.373547 41.749048 
L 241.23501 41.962156 
L 242.096472 42.175445 
L 242.957935 42.388552 
L 243.819397 42.60166 
L 244.68086 42.708123 
L 245.542322 42.814767 
L 246.403785 43.027875 
L 247.265247 43.134338 
L 248.126709 43.240982 
L 248.988172 43.397599 
L 249.849634 43.554216 
L 250.711097 43.710833 
L 251.572559 43.86745 
L 252.434022 43.945849 
L 253.295484 44.024067 
L 254.156947 44.180684 
L 255.018409 44.337482 
L 255.879872 44.494098 
L 256.741334 44.572316 
L 257.602796 44.650715 
L 258.464259 44.807332 
L 259.325721 44.963949 
L 260.187184 45.016094 
L 261.048646 45.068421 
L 261.910109 45.120566 
L 262.771571 45.277183 
L 263.633034 45.331682 
L 264.494496 45.386181 
L 265.355958 45.44068 
L 266.217421 45.603996 
L 267.078883 45.767493 
L 267.940346 45.93099 
L 268.801808 45.985489 
L 269.663271 46.039807 
L 270.524733 46.094306 
L 271.386196 46.257803 
L 272.247658 46.411885 
L 273.109121 46.565968 
L 273.970583 46.642918 
L 274.832045 46.719868 
L 275.693508 46.873951 
L 276.55497 46.951082 
L 277.416433 47.028033 
L 278.277895 47.22738 
L 279.139358 47.426908 
L 280.00082 47.626255 
L 280.862283 47.726019 
L 281.723745 47.825783 
L 282.585208 48.038709 
L 283.44667 48.251455 
L 284.308132 48.464381 
L 285.169595 48.535357 
L 286.031057 48.606332 
L 286.89252 48.677127 
L 287.753982 48.890053 
L 288.615445 49.076183 
L 289.476907 49.262312 
L 290.33837 49.448623 
L 291.199832 49.634753 
L 292.061294 49.727818 
L 292.061294 49.787567 
L 292.061294 49.787567 
L 291.199832 49.787567 
L 290.33837 49.787567 
L 289.476907 49.787567 
L 288.615445 49.787567 
L 287.753982 49.787567 
L 286.89252 49.787567 
L 286.031057 49.787567 
L 285.169595 49.787567 
L 284.308132 49.787567 
L 283.44667 49.787567 
L 282.585208 49.787567 
L 281.723745 49.787567 
L 280.862283 49.787567 
L 280.00082 49.787567 
L 279.139358 49.787567 
L 278.277895 49.787567 
L 277.416433 49.787567 
L 276.55497 49.787567 
L 275.693508 49.787567 
L 274.832045 49.787567 
L 273.970583 49.787567 
L 273.109121 49.787567 
L 272.247658 49.787567 
L 271.386196 49.787567 
L 270.524733 49.787567 
L 269.663271 49.787567 
L 268.801808 49.787567 
L 267.940346 49.787567 
L 267.078883 49.787567 
L 266.217421 49.787567 
L 265.355958 49.787567 
L 264.494496 49.787567 
L 263.633034 49.787567 
L 262.771571 49.787567 
L 261.910109 49.787567 
L 261.048646 49.787567 
L 260.187184 49.787567 
L 259.325721 49.787567 
L 258.464259 49.787567 
L 257.602796 49.787567 
L 256.741334 49.787567 
L 255.879872 49.787567 
L 255.018409 49.787567 
L 254.156947 49.787567 
L 253.295484 49.787567 
L 252.434022 49.787567 
L 251.572559 49.787567 
L 250.711097 49.787567 
L 249.849634 49.787567 
L 248.988172 49.787567 
L 248.126709 49.787567 
L 247.265247 49.787567 
L 246.403785 49.787567 
L 245.542322 49.787567 
L 244.68086 49.787567 
L 243.819397 49.787567 
L 242.957935 49.787567 
L 242.096472 49.787567 
L 241.23501 49.787567 
L 240.373547 49.787567 
L 239.512085 49.787567 
L 238.650623 49.787567 
L 237.78916 49.787567 
L 236.927698 49.787567 
L 236.066235 49.787567 
L 235.204773 49.787567 
L 234.34331 49.787567 
L 233.481848 49.787567 
L 232.620385 49.787567 
L 231.758923 49.787567 
L 230.89746 49.787567 
L 230.035998 49.787567 
L 229.174536 49.787567 
L 228.313073 49.787567 
L 227.451611 49.787567 
L 226.590148 49.787567 
L 225.728686 49.787567 
L 224.867223 49.787567 
L 224.005761 49.787567 
L 223.144298 49.787567 
L 222.282836 49.787567 
L 221.421374 49.787567 
L 220.559911 49.787567 
L 219.698449 49.787567 
L 218.836986 49.787567 
L 217.975524 49.787567 
L 217.114061 49.787567 
L 216.252599 49.787567 
L 215.391136 49.787567 
L 214.529674 49.787567 
L 213.668211 49.787567 
L 212.806749 49.787567 
L 211.945287 49.787567 
L 211.083824 49.787567 
L 210.222362 49.787567 
L 209.360899 49.787567 
L 208.499437 49.787567 
L 207.637974 49.787567 
L 206.776512 49.787567 
L 205.915049 49.787567 
L 205.053587 49.787567 
L 204.192125 49.787567 
L 203.330662 49.787567 
L 202.4692 49.787567 
L 201.607737 49.787567 
z
" clip-path="url(#p4706977f95)" style="fill: #008000; fill-opacity: 0.3"/>
    <path d="M 379.930464 49.787567 
L 379.930464 49.691243 
L 380.791927 49.71116 
L 380.791927 49.787567 
L 380.791927 49.787567 
L 379.930464 49.787567 
z
" clip-path="url(#p4706977f95)" style="fill: #008000; fill-opacity: 0.3"/>
    <path d="M 382.514852 49.787567 
L 382.514852 49.767832 
L 383.376314 49.745561 
L 384.237777 49.700659 
L 385.099239 49.655937 
L 385.960702 49.64109 
L 386.822164 49.626062 
L 387.683626 49.611215 
L 388.545089 49.588764 
L 389.406551 49.566312 
L 390.268014 49.544042 
L 391.129476 49.52159 
L 391.990939 49.679294 
L 391.990939 49.787567 
L 391.990939 49.787567 
L 391.129476 49.787567 
L 390.268014 49.787567 
L 389.406551 49.787567 
L 388.545089 49.787567 
L 387.683626 49.787567 
L 386.822164 49.787567 
L 385.960702 49.787567 
L 385.099239 49.787567 
L 384.237777 49.787567 
L 383.376314 49.787567 
L 382.514852 49.787567 
z
" clip-path="url(#p4706977f95)" style="fill: #008000; fill-opacity: 0.3"/>
   </g>
   <g id="PolyCollection_2">
    <path d="M 192.13165 49.787567 
L 192.13165 49.974602 
L 192.993113 50.110397 
L 193.854575 50.200746 
L 194.716038 50.291276 
L 195.5775 50.381625 
L 196.438962 50.422001 
L 197.300425 50.462197 
L 198.161887 50.482475 
L 199.02335 50.502573 
L 199.884812 50.1792 
L 200.746275 49.855827 
L 200.746275 49.787567 
L 200.746275 49.787567 
L 199.884812 49.787567 
L 199.02335 49.787567 
L 198.161887 49.787567 
L 197.300425 49.787567 
L 196.438962 49.787567 
L 195.5775 49.787567 
L 194.716038 49.787567 
L 193.854575 49.787567 
L 192.993113 49.787567 
L 192.13165 49.787567 
z
" clip-path="url(#p4706977f95)" style="fill: #ff0000; fill-opacity: 0.3"/>
    <path d="M 292.922757 49.787567 
L 292.922757 49.820882 
L 293.784219 49.837359 
L 294.645682 49.853835 
L 295.507144 49.886788 
L 296.368607 49.903265 
L 297.230069 49.919741 
L 298.091532 49.952694 
L 298.952994 49.925354 
L 299.814457 49.91612 
L 300.675919 49.907067 
L 301.537381 49.898014 
L 302.398844 49.870493 
L 302.398844 49.787567 
L 302.398844 49.787567 
L 301.537381 49.787567 
L 300.675919 49.787567 
L 299.814457 49.787567 
L 298.952994 49.787567 
L 298.091532 49.787567 
L 297.230069 49.787567 
L 296.368607 49.787567 
L 295.507144 49.787567 
L 294.645682 49.787567 
L 293.784219 49.787567 
L 292.922757 49.787567 
z
" clip-path="url(#p4706977f95)" style="fill: #ff0000; fill-opacity: 0.3"/>
    <path d="M 381.653389 49.787567 
L 381.653389 49.790283 
L 381.653389 49.787567 
L 381.653389 49.787567 
z
" clip-path="url(#p4706977f95)" style="fill: #ff0000; fill-opacity: 0.3"/>
    <path d="M 392.852401 49.787567 
L 392.852401 49.836997 
L 393.713864 49.915758 
L 394.575326 49.994519 
L 395.436789 50.152222 
L 396.298251 50.309925 
L 397.159713 50.467629 
L 398.021176 50.625151 
L 398.882638 50.704093 
L 399.744101 50.782854 
L 400.605563 50.940557 
L 401.467026 51.061143 
L 402.328488 51.181729 
L 403.189951 51.302134 
L 404.051413 51.42272 
L 404.912875 51.543306 
L 405.774338 51.583501 
L 406.6358 51.623696 
L 407.497263 51.663892 
L 408.358725 51.724185 
L 409.220188 51.784478 
L 410.08165 51.905064 
L 410.943113 52.025468 
L 411.804575 52.146054 
L 412.666038 52.206347 
L 413.5275 52.26664 
L 414.388962 52.257949 
L 415.250425 52.249078 
L 416.111887 52.240387 
L 416.97335 52.236041 
L 417.834812 52.231696 
L 418.696275 52.223005 
L 419.557737 52.218478 
L 420.4192 52.214133 
L 421.280662 52.205442 
L 422.142125 52.196751 
L 423.003587 52.192225 
L 423.865049 52.187879 
L 424.726512 52.179188 
L 425.587974 52.140985 
L 426.449437 52.102962 
L 427.310899 52.08377 
L 428.172362 52.064758 
L 429.033824 52.052084 
L 429.895287 52.03941 
L 430.756749 52.026555 
L 431.618211 52.007544 
L 432.479674 51.988532 
L 433.341136 51.950329 
L 433.341136 49.787567 
L 433.341136 49.787567 
L 432.479674 49.787567 
L 431.618211 49.787567 
L 430.756749 49.787567 
L 429.895287 49.787567 
L 429.033824 49.787567 
L 428.172362 49.787567 
L 427.310899 49.787567 
L 426.449437 49.787567 
L 425.587974 49.787567 
L 424.726512 49.787567 
L 423.865049 49.787567 
L 423.003587 49.787567 
L 422.142125 49.787567 
L 421.280662 49.787567 
L 420.4192 49.787567 
L 419.557737 49.787567 
L 418.696275 49.787567 
L 417.834812 49.787567 
L 416.97335 49.787567 
L 416.111887 49.787567 
L 415.250425 49.787567 
L 414.388962 49.787567 
L 413.5275 49.787567 
L 412.666038 49.787567 
L 411.804575 49.787567 
L 410.943113 49.787567 
L 410.08165 49.787567 
L 409.220188 49.787567 
L 408.358725 49.787567 
L 407.497263 49.787567 
L 406.6358 49.787567 
L 405.774338 49.787567 
L 404.912875 49.787567 
L 404.051413 49.787567 
L 403.189951 49.787567 
L 402.328488 49.787567 
L 401.467026 49.787567 
L 400.605563 49.787567 
L 399.744101 49.787567 
L 398.882638 49.787567 
L 398.021176 49.787567 
L 397.159713 49.787567 
L 396.298251 49.787567 
L 395.436789 49.787567 
L 394.575326 49.787567 
L 393.713864 49.787567 
L 392.852401 49.787567 
z
" clip-path="url(#p4706977f95)" style="fill: #ff0000; fill-opacity: 0.3"/>
   </g>
   <g id="matplotlib.axis_1">
    <g id="ytick_1">
     <g id="line2d_1">
      <path d="M 162.885 49.787567 
L 446.22 49.787567 
" clip-path="url(#p4706977f95)" style="fill: none; stroke: #b0b0b0; stroke-width: 0.8; stroke-linecap: square"/>
     </g>
     <g id="line2d_2">
      <defs>
       <path id="m1198679e64" d="M 0 0 
L -3.5 0 
" style="stroke: #000000; stroke-width: 0.8"/>
      </defs>
      <g>
       <use xlink:href="#m1198679e64" x="162.885" y="49.787567" style="stroke: #000000; stroke-width: 0.8"/>
      </g>
     </g>
     <g id="text_1">
      <!-- 0 -->
      <g transform="translate(147.295625 54.916513) scale(0.135 -0.135)">
       <defs>
        <path id="DejaVuSans-30" d="M 2034 4250 
Q 1547 4250 1301 3770 
Q 1056 3291 1056 2328 
Q 1056 1369 1301 889 
Q 1547 409 2034 409 
Q 2525 409 2770 889 
Q 3016 1369 3016 2328 
Q 3016 3291 2770 3770 
Q 2525 4250 2034 4250 
z
M 2034 4750 
Q 2819 4750 3233 4129 
Q 3647 3509 3647 2328 
Q 3647 1150 3233 529 
Q 2819 -91 2034 -91 
Q 1250 -91 836 529 
Q 422 1150 422 2328 
Q 422 3509 836 4129 
Q 1250 4750 2034 4750 
z
" transform="scale(0.015625)"/>
       </defs>
       <use xlink:href="#DejaVuSans-30"/>
      </g>
     </g>
    </g>
    <g id="ytick_2">
     <g id="line2d_3">
      <path d="M 162.885 31.681571 
L 446.22 31.681571 
" clip-path="url(#p4706977f95)" style="fill: none; stroke: #b0b0b0; stroke-width: 0.8; stroke-linecap: square"/>
     </g>
     <g id="line2d_4">
      <g>
       <use xlink:href="#m1198679e64" x="162.885" y="31.681571" style="stroke: #000000; stroke-width: 0.8"/>
      </g>
     </g>
     <g id="text_2">
      <!-- 1000 -->
      <g transform="translate(121.5275 36.810517) scale(0.135 -0.135)">
       <defs>
        <path id="DejaVuSans-31" d="M 794 531 
L 1825 531 
L 1825 4091 
L 703 3866 
L 703 4441 
L 1819 4666 
L 2450 4666 
L 2450 531 
L 3481 531 
L 3481 0 
L 794 0 
L 794 531 
z
" transform="scale(0.015625)"/>
       </defs>
       <use xlink:href="#DejaVuSans-31"/>
       <use xlink:href="#DejaVuSans-30" x="63.623047"/>
       <use xlink:href="#DejaVuSans-30" x="127.246094"/>
       <use xlink:href="#DejaVuSans-30" x="190.869141"/>
      </g>
     </g>
    </g>
    <g id="text_3">
     <!-- ΔP[kW] -->
     <g transform="translate(46.990195 39.0559) scale(0.135 -0.135)">
      <defs>
       <path id="DejaVuSans-394" d="M 2188 4044 
L 906 525 
L 3472 525 
L 2188 4044 
z
M 50 0 
L 1831 4666 
L 2547 4666 
L 4325 0 
L 50 0 
z
" transform="scale(0.015625)"/>
       <path id="DejaVuSans-50" d="M 1259 4147 
L 1259 2394 
L 2053 2394 
Q 2494 2394 2734 2622 
Q 2975 2850 2975 3272 
Q 2975 3691 2734 3919 
Q 2494 4147 2053 4147 
L 1259 4147 
z
M 628 4666 
L 2053 4666 
Q 2838 4666 3239 4311 
Q 3641 3956 3641 3272 
Q 3641 2581 3239 2228 
Q 2838 1875 2053 1875 
L 1259 1875 
L 1259 0 
L 628 0 
L 628 4666 
z
" transform="scale(0.015625)"/>
       <path id="DejaVuSans-5b" d="M 550 4863 
L 1875 4863 
L 1875 4416 
L 1125 4416 
L 1125 -397 
L 1875 -397 
L 1875 -844 
L 550 -844 
L 550 4863 
z
" transform="scale(0.015625)"/>
       <path id="DejaVuSans-6b" d="M 581 4863 
L 1159 4863 
L 1159 1991 
L 2875 3500 
L 3609 3500 
L 1753 1863 
L 3688 0 
L 2938 0 
L 1159 1709 
L 1159 0 
L 581 0 
L 581 4863 
z
" transform="scale(0.015625)"/>
       <path id="DejaVuSans-57" d="M 213 4666 
L 850 4666 
L 1831 722 
L 2809 4666 
L 3519 4666 
L 4500 722 
L 5478 4666 
L 6119 4666 
L 4947 0 
L 4153 0 
L 3169 4050 
L 2175 0 
L 1381 0 
L 213 4666 
z
" transform="scale(0.015625)"/>
       <path id="DejaVuSans-5d" d="M 1947 4863 
L 1947 -844 
L 622 -844 
L 622 -397 
L 1369 -397 
L 1369 4416 
L 622 4416 
L 622 4863 
L 1947 4863 
z
" transform="scale(0.015625)"/>
      </defs>
      <use xlink:href="#DejaVuSans-394"/>
      <use xlink:href="#DejaVuSans-50" x="68.408203"/>
      <use xlink:href="#DejaVuSans-5b" x="128.710938"/>
      <use xlink:href="#DejaVuSans-6b" x="167.724609"/>
      <use xlink:href="#DejaVuSans-57" x="225.634766"/>
      <use xlink:href="#DejaVuSans-5d" x="324.511719"/>
     </g>
    </g>
   </g>
   <g id="line2d_5">
    <path d="M 175.763864 49.787567 
L 191.270188 49.787567 
L 192.993113 50.110397 
L 197.300425 50.462197 
L 199.02335 50.502573 
L 201.607737 49.630588 
L 203.330662 49.180111 
L 204.192125 48.504395 
L 205.915049 46.842265 
L 207.637974 45.731281 
L 210.222362 42.544988 
L 212.806749 39.790885 
L 217.114061 35.673944 
L 218.836986 33.191974 
L 220.559911 32.759059 
L 223.144298 31.460316 
L 225.728686 32.32524 
L 227.451611 34.055086 
L 229.174536 34.92001 
L 232.620385 38.016678 
L 235.204773 39.456648 
L 236.066235 40.896618 
L 239.512085 41.642585 
L 241.23501 41.962156 
L 244.68086 42.708123 
L 248.126709 43.240982 
L 252.434022 43.945849 
L 254.156947 44.180684 
L 256.741334 44.572316 
L 258.464259 44.807332 
L 260.187184 45.016094 
L 265.355958 45.44068 
L 268.801808 45.985489 
L 271.386196 46.257803 
L 273.970583 46.642918 
L 277.416433 47.028033 
L 280.862283 47.726019 
L 281.723745 47.825783 
L 284.308132 48.464381 
L 286.89252 48.677127 
L 291.199832 49.634753 
L 293.784219 49.837359 
L 301.537381 49.898014 
L 308.429081 49.787567 
L 384.237777 49.700659 
L 387.683626 49.611215 
L 391.129476 49.52159 
L 393.713864 49.915758 
L 395.436789 50.152222 
L 398.882638 50.704093 
L 400.605563 50.940557 
L 405.774338 51.583501 
L 409.220188 51.784478 
L 412.666038 52.206347 
L 414.388962 52.257949 
L 432.479674 51.988532 
L 433.341136 51.950329 
L 433.341136 51.950329 
" clip-path="url(#p4706977f95)" style="fill: none; stroke: #1f77b4; stroke-width: 1.5; stroke-linecap: square"/>
   </g>
   <g id="line2d_6">
    <path d="M 162.885 49.787567 
L 446.22 49.787567 
" clip-path="url(#p4706977f95)" style="fill: none; stroke: #000000; stroke-width: 1.5; stroke-linecap: square"/>
   </g>
   <g id="patch_3">
    <path d="M 162.885 53.306957 
L 162.885 30.42 
" style="fill: none; stroke: #000000; stroke-width: 0.8; stroke-linejoin: miter; stroke-linecap: square"/>
   </g>
   <g id="patch_4">
    <path d="M 446.22 53.306957 
L 446.22 30.42 
" style="fill: none; stroke: #000000; stroke-width: 0.8; stroke-linejoin: miter; stroke-linecap: square"/>
   </g>
   <g id="patch_5">
    <path d="M 162.885 53.306957 
L 446.22 53.306957 
" style="fill: none; stroke: #000000; stroke-width: 0.8; stroke-linejoin: miter; stroke-linecap: square"/>
   </g>
   <g id="patch_6">
    <path d="M 162.885 30.42 
L 446.22 30.42 
" style="fill: none; stroke: #000000; stroke-width: 0.8; stroke-linejoin: miter; stroke-linecap: square"/>
   </g>
   <g id="text_4">
    <!-- Microgrid 2 -->
    <g transform="translate(268.129141 24.42) scale(0.13 -0.13)">
     <defs>
      <path id="DejaVuSans-4d" d="M 628 4666 
L 1569 4666 
L 2759 1491 
L 3956 4666 
L 4897 4666 
L 4897 0 
L 4281 0 
L 4281 4097 
L 3078 897 
L 2444 897 
L 1241 4097 
L 1241 0 
L 628 0 
L 628 4666 
z
" transform="scale(0.015625)"/>
      <path id="DejaVuSans-69" d="M 603 3500 
L 1178 3500 
L 1178 0 
L 603 0 
L 603 3500 
z
M 603 4863 
L 1178 4863 
L 1178 4134 
L 603 4134 
L 603 4863 
z
" transform="scale(0.015625)"/>
      <path id="DejaVuSans-63" d="M 3122 3366 
L 3122 2828 
Q 2878 2963 2633 3030 
Q 2388 3097 2138 3097 
Q 1578 3097 1268 2742 
Q 959 2388 959 1747 
Q 959 1106 1268 751 
Q 1578 397 2138 397 
Q 2388 397 2633 464 
Q 2878 531 3122 666 
L 3122 134 
Q 2881 22 2623 -34 
Q 2366 -91 2075 -91 
Q 1284 -91 818 406 
Q 353 903 353 1747 
Q 353 2603 823 3093 
Q 1294 3584 2113 3584 
Q 2378 3584 2631 3529 
Q 2884 3475 3122 3366 
z
" transform="scale(0.015625)"/>
      <path id="DejaVuSans-72" d="M 2631 2963 
Q 2534 3019 2420 3045 
Q 2306 3072 2169 3072 
Q 1681 3072 1420 2755 
Q 1159 2438 1159 1844 
L 1159 0 
L 581 0 
L 581 3500 
L 1159 3500 
L 1159 2956 
Q 1341 3275 1631 3429 
Q 1922 3584 2338 3584 
Q 2397 3584 2469 3576 
Q 2541 3569 2628 3553 
L 2631 2963 
z
" transform="scale(0.015625)"/>
      <path id="DejaVuSans-6f" d="M 1959 3097 
Q 1497 3097 1228 2736 
Q 959 2375 959 1747 
Q 959 1119 1226 758 
Q 1494 397 1959 397 
Q 2419 397 2687 759 
Q 2956 1122 2956 1747 
Q 2956 2369 2687 2733 
Q 2419 3097 1959 3097 
z
M 1959 3584 
Q 2709 3584 3137 3096 
Q 3566 2609 3566 1747 
Q 3566 888 3137 398 
Q 2709 -91 1959 -91 
Q 1206 -91 779 398 
Q 353 888 353 1747 
Q 353 2609 779 3096 
Q 1206 3584 1959 3584 
z
" transform="scale(0.015625)"/>
      <path id="DejaVuSans-67" d="M 2906 1791 
Q 2906 2416 2648 2759 
Q 2391 3103 1925 3103 
Q 1463 3103 1205 2759 
Q 947 2416 947 1791 
Q 947 1169 1205 825 
Q 1463 481 1925 481 
Q 2391 481 2648 825 
Q 2906 1169 2906 1791 
z
M 3481 434 
Q 3481 -459 3084 -895 
Q 2688 -1331 1869 -1331 
Q 1566 -1331 1297 -1286 
Q 1028 -1241 775 -1147 
L 775 -588 
Q 1028 -725 1275 -790 
Q 1522 -856 1778 -856 
Q 2344 -856 2625 -561 
Q 2906 -266 2906 331 
L 2906 616 
Q 2728 306 2450 153 
Q 2172 0 1784 0 
Q 1141 0 747 490 
Q 353 981 353 1791 
Q 353 2603 747 3093 
Q 1141 3584 1784 3584 
Q 2172 3584 2450 3431 
Q 2728 3278 2906 2969 
L 2906 3500 
L 3481 3500 
L 3481 434 
z
" transform="scale(0.015625)"/>
      <path id="DejaVuSans-64" d="M 2906 2969 
L 2906 4863 
L 3481 4863 
L 3481 0 
L 2906 0 
L 2906 525 
Q 2725 213 2448 61 
Q 2172 -91 1784 -91 
Q 1150 -91 751 415 
Q 353 922 353 1747 
Q 353 2572 751 3078 
Q 1150 3584 1784 3584 
Q 2172 3584 2448 3432 
Q 2725 3281 2906 2969 
z
M 947 1747 
Q 947 1113 1208 752 
Q 1469 391 1925 391 
Q 2381 391 2643 752 
Q 2906 1113 2906 1747 
Q 2906 2381 2643 2742 
Q 2381 3103 1925 3103 
Q 1469 3103 1208 2742 
Q 947 2381 947 1747 
z
" transform="scale(0.015625)"/>
      <path id="DejaVuSans-20" transform="scale(0.015625)"/>
      <path id="DejaVuSans-32" d="M 1228 531 
L 3431 531 
L 3431 0 
L 469 0 
L 469 531 
Q 828 903 1448 1529 
Q 2069 2156 2228 2338 
Q 2531 2678 2651 2914 
Q 2772 3150 2772 3378 
Q 2772 3750 2511 3984 
Q 2250 4219 1831 4219 
Q 1534 4219 1204 4116 
Q 875 4013 500 3803 
L 500 4441 
Q 881 4594 1212 4672 
Q 1544 4750 1819 4750 
Q 2544 4750 2975 4387 
Q 3406 4025 3406 3419 
Q 3406 3131 3298 2873 
Q 3191 2616 2906 2266 
Q 2828 2175 2409 1742 
Q 1991 1309 1228 531 
z
" transform="scale(0.015625)"/>
     </defs>
     <use xlink:href="#DejaVuSans-4d"/>
     <use xlink:href="#DejaVuSans-69" x="86.279297"/>
     <use xlink:href="#DejaVuSans-63" x="114.0625"/>
     <use xlink:href="#DejaVuSans-72" x="169.042969"/>
     <use xlink:href="#DejaVuSans-6f" x="207.90625"/>
     <use xlink:href="#DejaVuSans-67" x="269.087891"/>
     <use xlink:href="#DejaVuSans-72" x="332.564453"/>
     <use xlink:href="#DejaVuSans-69" x="373.677734"/>
     <use xlink:href="#DejaVuSans-64" x="401.460938"/>
     <use xlink:href="#DejaVuSans-20" x="464.9375"/>
     <use xlink:href="#DejaVuSans-32" x="496.724609"/>
    </g>
   </g>
  </g>
  <g id="axes_2">
   <g id="patch_7">
    <path d="M 162.885 87.637391 
L 446.22 87.637391 
L 446.22 64.750435 
L 162.885 64.750435 
z
" style="fill: #ffffff"/>
   </g>
   <g id="PolyCollection_3">
    <path d="M 192.13165 81.785917 
L 192.13165 81.645808 
L 192.993113 81.615075 
L 193.854575 81.594429 
L 194.716038 81.57394 
L 195.5775 81.553452 
L 196.438962 81.491829 
L 197.300425 81.611608 
L 198.161887 81.671339 
L 199.02335 81.731229 
L 199.02335 81.785917 
L 199.02335 81.785917 
L 198.161887 81.785917 
L 197.300425 81.785917 
L 196.438962 81.785917 
L 195.5775 81.785917 
L 194.716038 81.785917 
L 193.854575 81.785917 
L 192.993113 81.785917 
L 192.13165 81.785917 
z
" clip-path="url(#pbdc5caea5a)" style="fill: #008000; fill-opacity: 0.3"/>
    <path d="M 243.819397 81.785917 
L 243.819397 81.578984 
L 244.68086 81.416022 
L 245.542322 81.253218 
L 246.403785 80.927451 
L 247.265247 80.76449 
L 248.126709 80.601685 
L 248.988172 80.275919 
L 249.849634 79.950153 
L 250.711097 79.624387 
L 251.572559 79.298621 
L 252.434022 79.002169 
L 253.295484 78.705717 
L 254.156947 78.112813 
L 255.018409 77.747961 
L 255.879872 77.383109 
L 256.741334 77.200605 
L 257.602796 77.018257 
L 258.464259 76.522122 
L 259.325721 76.026144 
L 260.187184 76.050573 
L 261.048646 76.075159 
L 261.910109 76.099587 
L 262.771571 76.173031 
L 263.633034 76.197459 
L 264.494496 76.222045 
L 265.355958 76.246474 
L 266.217421 76.509671 
L 267.078883 76.772711 
L 267.940346 77.035909 
L 268.801808 77.123694 
L 269.663271 77.211322 
L 270.524733 77.299107 
L 271.386196 77.687284 
L 272.247658 78.075618 
L 273.109121 78.463796 
L 273.970583 78.607687 
L 274.832045 78.751737 
L 275.693508 79.039678 
L 276.55497 79.18357 
L 277.416433 79.32762 
L 278.277895 79.615561 
L 279.139358 79.802006 
L 280.00082 79.988451 
L 280.862283 80.081752 
L 281.723745 80.175053 
L 282.585208 80.361498 
L 283.44667 80.526351 
L 284.308132 80.691362 
L 285.169595 80.746365 
L 286.031057 80.801369 
L 286.89252 80.856215 
L 287.753982 81.021225 
L 288.615445 81.186079 
L 289.476907 81.351089 
L 290.33837 81.515942 
L 291.199832 81.680953 
L 292.061294 81.704751 
L 292.922757 81.728549 
L 293.784219 81.752348 
L 294.645682 81.776303 
L 294.645682 81.785917 
L 294.645682 81.785917 
L 293.784219 81.785917 
L 292.922757 81.785917 
L 292.061294 81.785917 
L 291.199832 81.785917 
L 290.33837 81.785917 
L 289.476907 81.785917 
L 288.615445 81.785917 
L 287.753982 81.785917 
L 286.89252 81.785917 
L 286.031057 81.785917 
L 285.169595 81.785917 
L 284.308132 81.785917 
L 283.44667 81.785917 
L 282.585208 81.785917 
L 281.723745 81.785917 
L 280.862283 81.785917 
L 280.00082 81.785917 
L 279.139358 81.785917 
L 278.277895 81.785917 
L 277.416433 81.785917 
L 276.55497 81.785917 
L 275.693508 81.785917 
L 274.832045 81.785917 
L 273.970583 81.785917 
L 273.109121 81.785917 
L 272.247658 81.785917 
L 271.386196 81.785917 
L 270.524733 81.785917 
L 269.663271 81.785917 
L 268.801808 81.785917 
L 267.940346 81.785917 
L 267.078883 81.785917 
L 266.217421 81.785917 
L 265.355958 81.785917 
L 264.494496 81.785917 
L 263.633034 81.785917 
L 262.771571 81.785917 
L 261.910109 81.785917 
L 261.048646 81.785917 
L 260.187184 81.785917 
L 259.325721 81.785917 
L 258.464259 81.785917 
L 257.602796 81.785917 
L 256.741334 81.785917 
L 255.879872 81.785917 
L 255.018409 81.785917 
L 254.156947 81.785917 
L 253.295484 81.785917 
L 252.434022 81.785917 
L 251.572559 81.785917 
L 250.711097 81.785917 
L 249.849634 81.785917 
L 248.988172 81.785917 
L 248.126709 81.785917 
L 247.265247 81.785917 
L 246.403785 81.785917 
L 245.542322 81.785917 
L 244.68086 81.785917 
L 243.819397 81.785917 
z
" clip-path="url(#pbdc5caea5a)" style="fill: #008000; fill-opacity: 0.3"/>
    <path d="M 379.930464 81.785917 
L 379.930464 81.75676 
L 380.791927 81.751402 
L 380.791927 81.785917 
L 380.791927 81.785917 
L 379.930464 81.785917 
z
" clip-path="url(#pbdc5caea5a)" style="fill: #008000; fill-opacity: 0.3"/>
    <path d="M 391.990939 81.785917 
L 391.990939 81.18072 
L 392.852401 80.459369 
L 393.713864 80.066622 
L 394.575326 79.673874 
L 395.436789 78.888379 
L 396.298251 77.36924 
L 397.159713 76.521649 
L 398.021176 75.674058 
L 398.882638 75.250263 
L 399.744101 74.826467 
L 400.605563 74.002044 
L 401.467026 73.177621 
L 402.328488 72.353198 
L 403.189951 71.680074 
L 404.051413 71.007107 
L 404.912875 70.266687 
L 405.774338 70.020037 
L 406.6358 69.773231 
L 407.497263 69.526424 
L 408.358725 68.644002 
L 409.220188 67.761739 
L 410.08165 67.066235 
L 410.943113 66.370731 
L 411.804575 66.225736 
L 412.666038 66.153239 
L 413.5275 66.080741 
L 414.388962 65.935746 
L 415.250425 65.790751 
L 416.111887 66.176879 
L 416.97335 66.369943 
L 417.834812 66.563008 
L 418.696275 66.949136 
L 419.557737 67.437233 
L 420.4192 67.925173 
L 421.280662 68.901369 
L 422.142125 69.605225 
L 423.003587 69.957154 
L 423.865049 70.309082 
L 424.726512 70.980157 
L 425.587974 71.651232 
L 426.449437 72.136335 
L 427.310899 72.378887 
L 428.172362 72.621439 
L 429.033824 72.78314 
L 429.895287 72.944841 
L 430.756749 73.106542 
L 431.618211 73.349093 
L 432.479674 73.591645 
L 433.341136 73.591645 
L 433.341136 81.785917 
L 433.341136 81.785917 
L 432.479674 81.785917 
L 431.618211 81.785917 
L 430.756749 81.785917 
L 429.895287 81.785917 
L 429.033824 81.785917 
L 428.172362 81.785917 
L 427.310899 81.785917 
L 426.449437 81.785917 
L 425.587974 81.785917 
L 424.726512 81.785917 
L 423.865049 81.785917 
L 423.003587 81.785917 
L 422.142125 81.785917 
L 421.280662 81.785917 
L 420.4192 81.785917 
L 419.557737 81.785917 
L 418.696275 81.785917 
L 417.834812 81.785917 
L 416.97335 81.785917 
L 416.111887 81.785917 
L 415.250425 81.785917 
L 414.388962 81.785917 
L 413.5275 81.785917 
L 412.666038 81.785917 
L 411.804575 81.785917 
L 410.943113 81.785917 
L 410.08165 81.785917 
L 409.220188 81.785917 
L 408.358725 81.785917 
L 407.497263 81.785917 
L 406.6358 81.785917 
L 405.774338 81.785917 
L 404.912875 81.785917 
L 404.051413 81.785917 
L 403.189951 81.785917 
L 402.328488 81.785917 
L 401.467026 81.785917 
L 400.605563 81.785917 
L 399.744101 81.785917 
L 398.882638 81.785917 
L 398.021176 81.785917 
L 397.159713 81.785917 
L 396.298251 81.785917 
L 395.436789 81.785917 
L 394.575326 81.785917 
L 393.713864 81.785917 
L 392.852401 81.785917 
L 391.990939 81.785917 
z
" clip-path="url(#pbdc5caea5a)" style="fill: #008000; fill-opacity: 0.3"/>
   </g>
   <g id="PolyCollection_4">
    <path d="M 199.884812 81.785917 
L 199.884812 81.851007 
L 200.746275 81.970628 
L 201.607737 82.010659 
L 202.4692 82.050533 
L 203.330662 82.090407 
L 204.192125 82.372359 
L 205.053587 82.654312 
L 205.915049 82.936106 
L 206.776512 83.077161 
L 207.637974 83.218059 
L 208.499437 83.528065 
L 209.360899 83.838228 
L 210.222362 84.148234 
L 211.083824 84.45824 
L 211.945287 84.785267 
L 212.806749 84.894328 
L 213.668211 85.003232 
L 214.529674 85.112294 
L 215.391136 85.439321 
L 216.252599 85.766348 
L 217.114061 85.974069 
L 217.975524 86.18179 
L 218.836986 86.389354 
L 219.698449 86.493214 
L 220.559911 86.597075 
L 221.421374 86.531512 
L 222.282836 86.465791 
L 223.144298 86.400228 
L 224.005761 86.378322 
L 224.867223 86.356415 
L 225.728686 86.334508 
L 226.590148 86.268945 
L 227.451611 86.203224 
L 228.313073 86.170443 
L 229.174536 86.137661 
L 230.035998 86.071941 
L 230.89746 86.006378 
L 231.758923 85.752006 
L 232.620385 85.497792 
L 233.481848 85.413001 
L 234.34331 85.32821 
L 235.204773 85.24342 
L 236.066235 84.636804 
L 236.927698 84.321598 
L 237.78916 84.006233 
L 238.650623 83.690869 
L 239.512085 83.47968 
L 240.373547 83.268492 
L 241.23501 82.846115 
L 242.096472 82.423738 
L 242.957935 82.001361 
L 242.957935 81.785917 
L 242.957935 81.785917 
L 242.096472 81.785917 
L 241.23501 81.785917 
L 240.373547 81.785917 
L 239.512085 81.785917 
L 238.650623 81.785917 
L 237.78916 81.785917 
L 236.927698 81.785917 
L 236.066235 81.785917 
L 235.204773 81.785917 
L 234.34331 81.785917 
L 233.481848 81.785917 
L 232.620385 81.785917 
L 231.758923 81.785917 
L 230.89746 81.785917 
L 230.035998 81.785917 
L 229.174536 81.785917 
L 228.313073 81.785917 
L 227.451611 81.785917 
L 226.590148 81.785917 
L 225.728686 81.785917 
L 224.867223 81.785917 
L 224.005761 81.785917 
L 223.144298 81.785917 
L 222.282836 81.785917 
L 221.421374 81.785917 
L 220.559911 81.785917 
L 219.698449 81.785917 
L 218.836986 81.785917 
L 217.975524 81.785917 
L 217.114061 81.785917 
L 216.252599 81.785917 
L 215.391136 81.785917 
L 214.529674 81.785917 
L 213.668211 81.785917 
L 212.806749 81.785917 
L 211.945287 81.785917 
L 211.083824 81.785917 
L 210.222362 81.785917 
L 209.360899 81.785917 
L 208.499437 81.785917 
L 207.637974 81.785917 
L 206.776512 81.785917 
L 205.915049 81.785917 
L 205.053587 81.785917 
L 204.192125 81.785917 
L 203.330662 81.785917 
L 202.4692 81.785917 
L 201.607737 81.785917 
L 200.746275 81.785917 
L 199.884812 81.785917 
z
" clip-path="url(#pbdc5caea5a)" style="fill: #ff0000; fill-opacity: 0.3"/>
    <path d="M 295.507144 81.785917 
L 295.507144 81.823899 
L 296.368607 81.847698 
L 297.230069 81.871496 
L 298.091532 81.919249 
L 298.952994 81.966846 
L 299.814457 81.964639 
L 300.675919 81.96259 
L 301.537381 81.960384 
L 302.398844 81.953922 
L 302.398844 81.785917 
L 302.398844 81.785917 
L 301.537381 81.785917 
L 300.675919 81.785917 
L 299.814457 81.785917 
L 298.952994 81.785917 
L 298.091532 81.785917 
L 297.230069 81.785917 
L 296.368607 81.785917 
L 295.507144 81.785917 
z
" clip-path="url(#pbdc5caea5a)" style="fill: #ff0000; fill-opacity: 0.3"/>
    <path d="M 381.653389 81.785917 
L 381.653389 81.934222 
L 382.514852 82.025632 
L 383.376314 82.117042 
L 384.237777 82.299862 
L 385.099239 82.482682 
L 385.960702 82.482524 
L 386.822164 82.482366 
L 387.683626 82.482366 
L 388.545089 82.482051 
L 389.406551 82.481894 
L 390.268014 82.192061 
L 391.129476 81.902071 
L 391.129476 81.785917 
L 391.129476 81.785917 
L 390.268014 81.785917 
L 389.406551 81.785917 
L 388.545089 81.785917 
L 387.683626 81.785917 
L 386.822164 81.785917 
L 385.960702 81.785917 
L 385.099239 81.785917 
L 384.237777 81.785917 
L 383.376314 81.785917 
L 382.514852 81.785917 
L 381.653389 81.785917 
z
" clip-path="url(#pbdc5caea5a)" style="fill: #ff0000; fill-opacity: 0.3"/>
   </g>
   <g id="matplotlib.axis_2">
    <g id="ytick_3">
     <g id="line2d_7">
      <path d="M 162.885 81.785917 
L 446.22 81.785917 
" clip-path="url(#pbdc5caea5a)" style="fill: none; stroke: #b0b0b0; stroke-width: 0.8; stroke-linecap: square"/>
     </g>
     <g id="line2d_8">
      <g>
       <use xlink:href="#m1198679e64" x="162.885" y="81.785917" style="stroke: #000000; stroke-width: 0.8"/>
      </g>
     </g>
     <g id="text_5">
      <!-- 0 -->
      <g transform="translate(147.295625 86.914862) scale(0.135 -0.135)">
       <use xlink:href="#DejaVuSans-30"/>
      </g>
     </g>
    </g>
    <g id="ytick_4">
     <g id="line2d_9">
      <path d="M 162.885 66.02558 
L 446.22 66.02558 
" clip-path="url(#pbdc5caea5a)" style="fill: none; stroke: #b0b0b0; stroke-width: 0.8; stroke-linecap: square"/>
     </g>
     <g id="line2d_10">
      <g>
       <use xlink:href="#m1198679e64" x="162.885" y="66.02558" style="stroke: #000000; stroke-width: 0.8"/>
      </g>
     </g>
     <g id="text_6">
      <!-- 1000 -->
      <g transform="translate(121.5275 71.154525) scale(0.135 -0.135)">
       <use xlink:href="#DejaVuSans-31"/>
       <use xlink:href="#DejaVuSans-30" x="63.623047"/>
       <use xlink:href="#DejaVuSans-30" x="127.246094"/>
       <use xlink:href="#DejaVuSans-30" x="190.869141"/>
      </g>
     </g>
    </g>
    <g id="text_7">
     <!-- PEU_2-1 [kW] -->
     <g transform="translate(25.857422 73.010866) scale(0.135 -0.135)">
      <defs>
       <path id="DejaVuSans-45" d="M 628 4666 
L 3578 4666 
L 3578 4134 
L 1259 4134 
L 1259 2753 
L 3481 2753 
L 3481 2222 
L 1259 2222 
L 1259 531 
L 3634 531 
L 3634 0 
L 628 0 
L 628 4666 
z
" transform="scale(0.015625)"/>
       <path id="DejaVuSans-55" d="M 556 4666 
L 1191 4666 
L 1191 1831 
Q 1191 1081 1462 751 
Q 1734 422 2344 422 
Q 2950 422 3222 751 
Q 3494 1081 3494 1831 
L 3494 4666 
L 4128 4666 
L 4128 1753 
Q 4128 841 3676 375 
Q 3225 -91 2344 -91 
Q 1459 -91 1007 375 
Q 556 841 556 1753 
L 556 4666 
z
" transform="scale(0.015625)"/>
       <path id="DejaVuSans-5f" d="M 3263 -1063 
L 3263 -1509 
L -63 -1509 
L -63 -1063 
L 3263 -1063 
z
" transform="scale(0.015625)"/>
       <path id="DejaVuSans-2d" d="M 313 2009 
L 1997 2009 
L 1997 1497 
L 313 1497 
L 313 2009 
z
" transform="scale(0.015625)"/>
      </defs>
      <use xlink:href="#DejaVuSans-50"/>
      <use xlink:href="#DejaVuSans-45" x="60.302734"/>
      <use xlink:href="#DejaVuSans-55" x="123.486328"/>
      <use xlink:href="#DejaVuSans-5f" x="196.679688"/>
      <use xlink:href="#DejaVuSans-32" x="246.679688"/>
      <use xlink:href="#DejaVuSans-2d" x="310.302734"/>
      <use xlink:href="#DejaVuSans-31" x="346.386719"/>
      <use xlink:href="#DejaVuSans-20" x="410.009766"/>
      <use xlink:href="#DejaVuSans-5b" x="441.796875"/>
      <use xlink:href="#DejaVuSans-6b" x="480.810547"/>
      <use xlink:href="#DejaVuSans-57" x="538.720703"/>
      <use xlink:href="#DejaVuSans-5d" x="637.597656"/>
     </g>
    </g>
   </g>
   <g id="line2d_11">
    <path d="M 175.763864 81.785917 
L 191.270188 81.785917 
L 192.993113 81.615075 
L 197.300425 81.611608 
L 199.884812 81.851007 
L 201.607737 82.010659 
L 203.330662 82.090407 
L 205.915049 82.936106 
L 207.637974 83.218059 
L 211.945287 84.785267 
L 214.529674 85.112294 
L 216.252599 85.766348 
L 219.698449 86.493214 
L 220.559911 86.597075 
L 224.867223 86.356415 
L 229.174536 86.137661 
L 230.89746 86.006378 
L 232.620385 85.497792 
L 235.204773 85.24342 
L 236.066235 84.636804 
L 239.512085 83.47968 
L 240.373547 83.268492 
L 243.819397 81.578984 
L 245.542322 81.253218 
L 246.403785 80.927451 
L 248.126709 80.601685 
L 253.295484 78.705717 
L 254.156947 78.112813 
L 255.879872 77.383109 
L 257.602796 77.018257 
L 259.325721 76.026144 
L 265.355958 76.246474 
L 267.940346 77.035909 
L 270.524733 77.299107 
L 273.109121 78.463796 
L 274.832045 78.751737 
L 275.693508 79.039678 
L 277.416433 79.32762 
L 279.139358 79.802006 
L 280.862283 80.081752 
L 282.585208 80.361498 
L 285.169595 80.746365 
L 287.753982 81.021225 
L 291.199832 81.680953 
L 302.398844 81.953922 
L 303.260306 81.785917 
L 380.791927 81.751402 
L 382.514852 82.025632 
L 384.237777 82.299862 
L 385.099239 82.482682 
L 389.406551 82.481894 
L 391.129476 81.902071 
L 392.852401 80.459369 
L 394.575326 79.673874 
L 395.436789 78.888379 
L 396.298251 77.36924 
L 398.021176 75.674058 
L 399.744101 74.826467 
L 403.189951 71.680074 
L 404.912875 70.266687 
L 407.497263 69.526424 
L 409.220188 67.761739 
L 410.943113 66.370731 
L 412.666038 66.153239 
L 414.388962 65.935746 
L 415.250425 65.790751 
L 416.111887 66.176879 
L 417.834812 66.563008 
L 419.557737 67.437233 
L 420.4192 67.925173 
L 421.280662 68.901369 
L 422.142125 69.605225 
L 423.865049 70.309082 
L 425.587974 71.651232 
L 426.449437 72.136335 
L 429.033824 72.78314 
L 431.618211 73.349093 
L 432.479674 73.591645 
L 433.341136 73.591645 
L 433.341136 73.591645 
" clip-path="url(#pbdc5caea5a)" style="fill: none; stroke: #1f77b4; stroke-width: 1.5; stroke-linecap: square"/>
   </g>
   <g id="line2d_12">
    <path d="M 162.885 81.785917 
L 446.22 81.785917 
" clip-path="url(#pbdc5caea5a)" style="fill: none; stroke: #000000; stroke-width: 1.5; stroke-linecap: square"/>
   </g>
   <g id="patch_8">
    <path d="M 162.885 87.637391 
L 162.885 64.750435 
" style="fill: none; stroke: #000000; stroke-width: 0.8; stroke-linejoin: miter; stroke-linecap: square"/>
   </g>
   <g id="patch_9">
    <path d="M 446.22 87.637391 
L 446.22 64.750435 
" style="fill: none; stroke: #000000; stroke-width: 0.8; stroke-linejoin: miter; stroke-linecap: square"/>
   </g>
   <g id="patch_10">
    <path d="M 162.885 87.637391 
L 446.22 87.637391 
" style="fill: none; stroke: #000000; stroke-width: 0.8; stroke-linejoin: miter; stroke-linecap: square"/>
   </g>
   <g id="patch_11">
    <path d="M 162.885 64.750435 
L 446.22 64.750435 
" style="fill: none; stroke: #000000; stroke-width: 0.8; stroke-linejoin: miter; stroke-linecap: square"/>
   </g>
  </g>
  <g id="axes_3">
   <g id="patch_12">
    <path d="M 162.885 121.967826 
L 446.22 121.967826 
L 446.22 99.08087 
L 162.885 99.08087 
z
" style="fill: #ffffff"/>
   </g>
   <g id="PolyCollection_5">
    <path d="M 192.13165 111.107228 
L 192.13165 110.573347 
L 192.993113 110.440478 
L 193.854575 110.351798 
L 194.716038 110.263119 
L 195.5775 110.174439 
L 196.438962 109.908401 
L 197.300425 109.642362 
L 198.161887 109.835353 
L 199.02335 110.028644 
L 199.884812 110.414926 
L 200.746275 110.801208 
L 201.607737 110.929869 
L 202.4692 111.05883 
L 202.4692 111.107228 
L 202.4692 111.107228 
L 201.607737 111.107228 
L 200.746275 111.107228 
L 199.884812 111.107228 
L 199.02335 111.107228 
L 198.161887 111.107228 
L 197.300425 111.107228 
L 196.438962 111.107228 
L 195.5775 111.107228 
L 194.716038 111.107228 
L 193.854575 111.107228 
L 192.993113 111.107228 
L 192.13165 111.107228 
z
" clip-path="url(#pfc69fd91d9)" style="fill: #008000; fill-opacity: 0.3"/>
    <path d="M 243.819397 111.107228 
L 243.819397 110.712529 
L 244.68086 110.4017 
L 245.542322 110.091171 
L 246.403785 109.469813 
L 247.265247 109.158984 
L 248.126709 108.848455 
L 248.988172 108.227097 
L 249.849634 107.605739 
L 250.711097 106.984381 
L 251.572559 106.363023 
L 252.434022 105.797578 
L 253.295484 105.232133 
L 254.156947 104.101244 
L 255.018409 103.405335 
L 255.879872 102.709426 
L 256.741334 102.361321 
L 257.602796 102.013517 
L 258.464259 101.067201 
L 259.325721 100.121186 
L 260.187184 100.16778 
L 261.048646 100.214675 
L 261.910109 100.261269 
L 262.771571 100.401353 
L 263.633034 100.447947 
L 264.494496 100.494842 
L 265.355958 100.541437 
L 266.217421 101.043453 
L 267.078883 101.545169 
L 267.940346 102.047185 
L 268.801808 102.214624 
L 269.663271 102.381762 
L 270.524733 102.549201 
L 271.386196 103.2896 
L 272.247658 104.0303 
L 273.109121 104.770699 
L 273.970583 105.045155 
L 274.832045 105.319911 
L 275.693508 105.869123 
L 276.55497 106.143579 
L 277.416433 106.418335 
L 278.277895 106.967547 
L 279.139358 107.323167 
L 280.00082 107.678787 
L 280.862283 107.856747 
L 281.723745 108.034707 
L 282.585208 108.390327 
L 283.44667 108.704764 
L 284.308132 109.019501 
L 285.169595 109.124414 
L 286.031057 109.229326 
L 286.89252 109.333938 
L 287.753982 109.648675 
L 288.615445 109.963112 
L 289.476907 110.277849 
L 290.33837 110.592285 
L 291.199832 110.907023 
L 292.061294 110.952414 
L 292.922757 110.997806 
L 293.784219 111.043198 
L 294.645682 111.088891 
L 294.645682 111.107228 
L 294.645682 111.107228 
L 293.784219 111.107228 
L 292.922757 111.107228 
L 292.061294 111.107228 
L 291.199832 111.107228 
L 290.33837 111.107228 
L 289.476907 111.107228 
L 288.615445 111.107228 
L 287.753982 111.107228 
L 286.89252 111.107228 
L 286.031057 111.107228 
L 285.169595 111.107228 
L 284.308132 111.107228 
L 283.44667 111.107228 
L 282.585208 111.107228 
L 281.723745 111.107228 
L 280.862283 111.107228 
L 280.00082 111.107228 
L 279.139358 111.107228 
L 278.277895 111.107228 
L 277.416433 111.107228 
L 276.55497 111.107228 
L 275.693508 111.107228 
L 274.832045 111.107228 
L 273.970583 111.107228 
L 273.109121 111.107228 
L 272.247658 111.107228 
L 271.386196 111.107228 
L 270.524733 111.107228 
L 269.663271 111.107228 
L 268.801808 111.107228 
L 267.940346 111.107228 
L 267.078883 111.107228 
L 266.217421 111.107228 
L 265.355958 111.107228 
L 264.494496 111.107228 
L 263.633034 111.107228 
L 262.771571 111.107228 
L 261.910109 111.107228 
L 261.048646 111.107228 
L 260.187184 111.107228 
L 259.325721 111.107228 
L 258.464259 111.107228 
L 257.602796 111.107228 
L 256.741334 111.107228 
L 255.879872 111.107228 
L 255.018409 111.107228 
L 254.156947 111.107228 
L 253.295484 111.107228 
L 252.434022 111.107228 
L 251.572559 111.107228 
L 250.711097 111.107228 
L 249.849634 111.107228 
L 248.988172 111.107228 
L 248.126709 111.107228 
L 247.265247 111.107228 
L 246.403785 111.107228 
L 245.542322 111.107228 
L 244.68086 111.107228 
L 243.819397 111.107228 
z
" clip-path="url(#pfc69fd91d9)" style="fill: #008000; fill-opacity: 0.3"/>
    <path d="M 379.930464 111.107228 
L 379.930464 111.021855 
L 380.791927 111.018849 
L 381.653389 111.006223 
L 382.514852 111.000211 
L 383.376314 110.993898 
L 384.237777 110.981574 
L 385.099239 110.729062 
L 385.960702 110.644892 
L 386.822164 110.561022 
L 387.683626 110.476852 
L 388.545089 110.350596 
L 389.406551 110.22434 
L 390.268014 110.600702 
L 391.129476 110.977365 
L 391.129476 111.107228 
L 391.129476 111.107228 
L 390.268014 111.107228 
L 389.406551 111.107228 
L 388.545089 111.107228 
L 387.683626 111.107228 
L 386.822164 111.107228 
L 385.960702 111.107228 
L 385.099239 111.107228 
L 384.237777 111.107228 
L 383.376314 111.107228 
L 382.514852 111.107228 
L 381.653389 111.107228 
L 380.791927 111.107228 
L 379.930464 111.107228 
z
" clip-path="url(#pfc69fd91d9)" style="fill: #008000; fill-opacity: 0.3"/>
    <path d="M 427.310899 111.107228 
L 427.310899 110.942795 
L 428.172362 110.729062 
L 429.033824 110.729062 
L 429.895287 110.729062 
L 430.756749 110.729062 
L 431.618211 110.729062 
L 432.479674 110.729062 
L 433.341136 110.729062 
L 433.341136 111.107228 
L 433.341136 111.107228 
L 432.479674 111.107228 
L 431.618211 111.107228 
L 430.756749 111.107228 
L 429.895287 111.107228 
L 429.033824 111.107228 
L 428.172362 111.107228 
L 427.310899 111.107228 
z
" clip-path="url(#pfc69fd91d9)" style="fill: #008000; fill-opacity: 0.3"/>
   </g>
   <g id="PolyCollection_6">
    <path d="M 203.330662 111.107228 
L 203.330662 111.18749 
L 204.192125 111.761953 
L 205.053587 112.336417 
L 205.915049 112.910579 
L 206.776512 113.197961 
L 207.637974 113.485042 
L 208.499437 114.059505 
L 209.360899 114.810726 
L 210.222362 115.561947 
L 211.083824 116.313468 
L 211.945287 117.064689 
L 212.806749 117.315096 
L 213.668211 117.565503 
L 214.529674 117.81591 
L 215.391136 118.26051 
L 216.252599 118.70481 
L 217.114061 119.14941 
L 217.975524 119.59401 
L 218.836986 120.03861 
L 219.698449 120.26076 
L 220.559911 120.48291 
L 221.421374 120.92751 
L 222.282836 120.879112 
L 223.144298 120.830413 
L 224.005761 120.81418 
L 224.867223 120.798248 
L 225.728686 120.782015 
L 226.590148 120.733317 
L 227.451611 120.684919 
L 228.313073 120.495235 
L 229.174536 120.30525 
L 230.035998 119.925882 
L 230.89746 119.546213 
L 231.758923 119.166545 
L 232.620385 118.1565 
L 233.481848 117.819818 
L 234.34331 117.483136 
L 235.204773 117.146455 
L 236.066235 116.544937 
L 236.927698 115.94372 
L 237.78916 115.342202 
L 238.650623 114.740684 
L 239.512085 114.337869 
L 240.373547 113.935053 
L 241.23501 113.129422 
L 242.096472 112.323791 
L 242.957935 111.51816 
L 242.957935 111.107228 
L 242.957935 111.107228 
L 242.096472 111.107228 
L 241.23501 111.107228 
L 240.373547 111.107228 
L 239.512085 111.107228 
L 238.650623 111.107228 
L 237.78916 111.107228 
L 236.927698 111.107228 
L 236.066235 111.107228 
L 235.204773 111.107228 
L 234.34331 111.107228 
L 233.481848 111.107228 
L 232.620385 111.107228 
L 231.758923 111.107228 
L 230.89746 111.107228 
L 230.035998 111.107228 
L 229.174536 111.107228 
L 228.313073 111.107228 
L 227.451611 111.107228 
L 226.590148 111.107228 
L 225.728686 111.107228 
L 224.867223 111.107228 
L 224.005761 111.107228 
L 223.144298 111.107228 
L 222.282836 111.107228 
L 221.421374 111.107228 
L 220.559911 111.107228 
L 219.698449 111.107228 
L 218.836986 111.107228 
L 217.975524 111.107228 
L 217.114061 111.107228 
L 216.252599 111.107228 
L 215.391136 111.107228 
L 214.529674 111.107228 
L 213.668211 111.107228 
L 212.806749 111.107228 
L 211.945287 111.107228 
L 211.083824 111.107228 
L 210.222362 111.107228 
L 209.360899 111.107228 
L 208.499437 111.107228 
L 207.637974 111.107228 
L 206.776512 111.107228 
L 205.915049 111.107228 
L 205.053587 111.107228 
L 204.192125 111.107228 
L 203.330662 111.107228 
z
" clip-path="url(#pfc69fd91d9)" style="fill: #ff0000; fill-opacity: 0.3"/>
    <path d="M 295.507144 111.107228 
L 295.507144 111.179675 
L 296.368607 111.225066 
L 297.230069 111.270458 
L 298.091532 111.361543 
L 298.952994 111.452327 
L 299.814457 111.448118 
L 300.675919 111.44421 
L 301.537381 111.440002 
L 302.398844 111.427677 
L 302.398844 111.107228 
L 302.398844 111.107228 
L 301.537381 111.107228 
L 300.675919 111.107228 
L 299.814457 111.107228 
L 298.952994 111.107228 
L 298.091532 111.107228 
L 297.230069 111.107228 
L 296.368607 111.107228 
L 295.507144 111.107228 
z
" clip-path="url(#pfc69fd91d9)" style="fill: #ff0000; fill-opacity: 0.3"/>
    <path d="M 391.990939 111.107228 
L 391.990939 111.73039 
L 392.852401 112.068274 
L 393.713864 112.237216 
L 394.575326 112.406158 
L 395.436789 112.744342 
L 396.298251 113.082226 
L 397.159713 113.420111 
L 398.021176 113.757995 
L 398.882638 113.892066 
L 399.744101 114.025837 
L 400.605563 114.293679 
L 401.467026 114.561521 
L 402.328488 114.829664 
L 403.189951 115.097507 
L 404.051413 115.365349 
L 404.912875 115.633191 
L 405.774338 115.743815 
L 406.6358 115.854138 
L 407.497263 115.964762 
L 408.358725 116.130698 
L 409.220188 116.296334 
L 410.08165 116.628206 
L 410.943113 116.959777 
L 411.804575 117.291348 
L 412.666038 117.062284 
L 413.5275 116.833221 
L 414.388962 116.374793 
L 415.250425 115.916665 
L 416.111887 115.458237 
L 416.97335 115.199112 
L 417.834812 114.940288 
L 418.696275 114.422039 
L 419.557737 114.163215 
L 420.4192 113.90409 
L 421.280662 113.385841 
L 422.142125 112.867893 
L 423.003587 112.65416 
L 423.865049 112.440126 
L 424.726512 112.01236 
L 425.587974 111.584594 
L 426.449437 111.156828 
L 426.449437 111.107228 
L 426.449437 111.107228 
L 425.587974 111.107228 
L 424.726512 111.107228 
L 423.865049 111.107228 
L 423.003587 111.107228 
L 422.142125 111.107228 
L 421.280662 111.107228 
L 420.4192 111.107228 
L 419.557737 111.107228 
L 418.696275 111.107228 
L 417.834812 111.107228 
L 416.97335 111.107228 
L 416.111887 111.107228 
L 415.250425 111.107228 
L 414.388962 111.107228 
L 413.5275 111.107228 
L 412.666038 111.107228 
L 411.804575 111.107228 
L 410.943113 111.107228 
L 410.08165 111.107228 
L 409.220188 111.107228 
L 408.358725 111.107228 
L 407.497263 111.107228 
L 406.6358 111.107228 
L 405.774338 111.107228 
L 404.912875 111.107228 
L 404.051413 111.107228 
L 403.189951 111.107228 
L 402.328488 111.107228 
L 401.467026 111.107228 
L 400.605563 111.107228 
L 399.744101 111.107228 
L 398.882638 111.107228 
L 398.021176 111.107228 
L 397.159713 111.107228 
L 396.298251 111.107228 
L 395.436789 111.107228 
L 394.575326 111.107228 
L 393.713864 111.107228 
L 392.852401 111.107228 
L 391.990939 111.107228 
z
" clip-path="url(#pfc69fd91d9)" style="fill: #ff0000; fill-opacity: 0.3"/>
   </g>
   <g id="matplotlib.axis_3">
    <g id="ytick_5">
     <g id="line2d_13">
      <path d="M 162.885 118.622443 
L 446.22 118.622443 
" clip-path="url(#pfc69fd91d9)" style="fill: none; stroke: #b0b0b0; stroke-width: 0.8; stroke-linecap: square"/>
     </g>
     <g id="line2d_14">
      <g>
       <use xlink:href="#m1198679e64" x="162.885" y="118.622443" style="stroke: #000000; stroke-width: 0.8"/>
      </g>
     </g>
     <g id="text_8">
      <!-- −250 -->
      <g transform="translate(118.804297 123.751388) scale(0.135 -0.135)">
       <defs>
        <path id="DejaVuSans-2212" d="M 678 2272 
L 4684 2272 
L 4684 1741 
L 678 1741 
L 678 2272 
z
" transform="scale(0.015625)"/>
        <path id="DejaVuSans-35" d="M 691 4666 
L 3169 4666 
L 3169 4134 
L 1269 4134 
L 1269 2991 
Q 1406 3038 1543 3061 
Q 1681 3084 1819 3084 
Q 2600 3084 3056 2656 
Q 3513 2228 3513 1497 
Q 3513 744 3044 326 
Q 2575 -91 1722 -91 
Q 1428 -91 1123 -41 
Q 819 9 494 109 
L 494 744 
Q 775 591 1075 516 
Q 1375 441 1709 441 
Q 2250 441 2565 725 
Q 2881 1009 2881 1497 
Q 2881 1984 2565 2268 
Q 2250 2553 1709 2553 
Q 1456 2553 1204 2497 
Q 953 2441 691 2322 
L 691 4666 
z
" transform="scale(0.015625)"/>
       </defs>
       <use xlink:href="#DejaVuSans-2212"/>
       <use xlink:href="#DejaVuSans-32" x="83.789062"/>
       <use xlink:href="#DejaVuSans-35" x="147.412109"/>
       <use xlink:href="#DejaVuSans-30" x="211.035156"/>
      </g>
     </g>
    </g>
    <g id="ytick_6">
     <g id="line2d_15">
      <path d="M 162.885 111.107228 
L 446.22 111.107228 
" clip-path="url(#pfc69fd91d9)" style="fill: none; stroke: #b0b0b0; stroke-width: 0.8; stroke-linecap: square"/>
     </g>
     <g id="line2d_16">
      <g>
       <use xlink:href="#m1198679e64" x="162.885" y="111.107228" style="stroke: #000000; stroke-width: 0.8"/>
      </g>
     </g>
     <g id="text_9">
      <!-- 0 -->
      <g transform="translate(147.295625 116.236173) scale(0.135 -0.135)">
       <use xlink:href="#DejaVuSans-30"/>
      </g>
     </g>
    </g>
    <g id="ytick_7">
     <g id="line2d_17">
      <path d="M 162.885 103.592013 
L 446.22 103.592013 
" clip-path="url(#pfc69fd91d9)" style="fill: none; stroke: #b0b0b0; stroke-width: 0.8; stroke-linecap: square"/>
     </g>
     <g id="line2d_18">
      <g>
       <use xlink:href="#m1198679e64" x="162.885" y="103.592013" style="stroke: #000000; stroke-width: 0.8"/>
      </g>
     </g>
     <g id="text_10">
      <!-- 250 -->
      <g transform="translate(130.116875 108.720958) scale(0.135 -0.135)">
       <use xlink:href="#DejaVuSans-32"/>
       <use xlink:href="#DejaVuSans-35" x="63.623047"/>
       <use xlink:href="#DejaVuSans-30" x="127.246094"/>
      </g>
     </g>
    </g>
    <g id="text_11">
     <!-- PEU_2-3 [kW] -->
     <g transform="translate(23.134219 107.341301) scale(0.135 -0.135)">
      <defs>
       <path id="DejaVuSans-33" d="M 2597 2516 
Q 3050 2419 3304 2112 
Q 3559 1806 3559 1356 
Q 3559 666 3084 287 
Q 2609 -91 1734 -91 
Q 1441 -91 1130 -33 
Q 819 25 488 141 
L 488 750 
Q 750 597 1062 519 
Q 1375 441 1716 441 
Q 2309 441 2620 675 
Q 2931 909 2931 1356 
Q 2931 1769 2642 2001 
Q 2353 2234 1838 2234 
L 1294 2234 
L 1294 2753 
L 1863 2753 
Q 2328 2753 2575 2939 
Q 2822 3125 2822 3475 
Q 2822 3834 2567 4026 
Q 2313 4219 1838 4219 
Q 1578 4219 1281 4162 
Q 984 4106 628 3988 
L 628 4550 
Q 988 4650 1302 4700 
Q 1616 4750 1894 4750 
Q 2613 4750 3031 4423 
Q 3450 4097 3450 3541 
Q 3450 3153 3228 2886 
Q 3006 2619 2597 2516 
z
" transform="scale(0.015625)"/>
      </defs>
      <use xlink:href="#DejaVuSans-50"/>
      <use xlink:href="#DejaVuSans-45" x="60.302734"/>
      <use xlink:href="#DejaVuSans-55" x="123.486328"/>
      <use xlink:href="#DejaVuSans-5f" x="196.679688"/>
      <use xlink:href="#DejaVuSans-32" x="246.679688"/>
      <use xlink:href="#DejaVuSans-2d" x="310.302734"/>
      <use xlink:href="#DejaVuSans-33" x="346.386719"/>
      <use xlink:href="#DejaVuSans-20" x="410.009766"/>
      <use xlink:href="#DejaVuSans-5b" x="441.796875"/>
      <use xlink:href="#DejaVuSans-6b" x="480.810547"/>
      <use xlink:href="#DejaVuSans-57" x="538.720703"/>
      <use xlink:href="#DejaVuSans-5d" x="637.597656"/>
     </g>
    </g>
   </g>
   <g id="line2d_19">
    <path d="M 175.763864 111.107228 
L 191.270188 111.107228 
L 192.13165 110.573347 
L 194.716038 110.263119 
L 195.5775 110.174439 
L 197.300425 109.642362 
L 199.02335 110.028644 
L 200.746275 110.801208 
L 203.330662 111.18749 
L 205.915049 112.910579 
L 207.637974 113.485042 
L 208.499437 114.059505 
L 211.945287 117.064689 
L 214.529674 117.81591 
L 218.836986 120.03861 
L 220.559911 120.48291 
L 221.421374 120.92751 
L 228.313073 120.495235 
L 229.174536 120.30525 
L 231.758923 119.166545 
L 232.620385 118.1565 
L 235.204773 117.146455 
L 238.650623 114.740684 
L 240.373547 113.935053 
L 243.819397 110.712529 
L 245.542322 110.091171 
L 246.403785 109.469813 
L 248.126709 108.848455 
L 253.295484 105.232133 
L 254.156947 104.101244 
L 255.879872 102.709426 
L 257.602796 102.013517 
L 259.325721 100.121186 
L 265.355958 100.541437 
L 267.940346 102.047185 
L 270.524733 102.549201 
L 273.109121 104.770699 
L 274.832045 105.319911 
L 275.693508 105.869123 
L 277.416433 106.418335 
L 278.277895 106.967547 
L 280.00082 107.678787 
L 281.723745 108.034707 
L 284.308132 109.019501 
L 286.89252 109.333938 
L 291.199832 110.907023 
L 298.091532 111.361543 
L 299.814457 111.448118 
L 302.398844 111.427677 
L 303.260306 111.107228 
L 382.514852 111.000211 
L 384.237777 110.981574 
L 385.099239 110.729062 
L 389.406551 110.22434 
L 391.129476 110.977365 
L 391.990939 111.73039 
L 392.852401 112.068274 
L 394.575326 112.406158 
L 398.021176 113.757995 
L 399.744101 114.025837 
L 404.912875 115.633191 
L 409.220188 116.296334 
L 411.804575 117.291348 
L 413.5275 116.833221 
L 416.111887 115.458237 
L 417.834812 114.940288 
L 418.696275 114.422039 
L 420.4192 113.90409 
L 422.142125 112.867893 
L 423.865049 112.440126 
L 426.449437 111.156828 
L 428.172362 110.729062 
L 433.341136 110.729062 
L 433.341136 110.729062 
" clip-path="url(#pfc69fd91d9)" style="fill: none; stroke: #1f77b4; stroke-width: 1.5; stroke-linecap: square"/>
   </g>
   <g id="line2d_20">
    <path d="M 162.885 111.107228 
L 446.22 111.107228 
" clip-path="url(#pfc69fd91d9)" style="fill: none; stroke: #000000; stroke-width: 1.5; stroke-linecap: square"/>
   </g>
   <g id="patch_13">
    <path d="M 162.885 121.967826 
L 162.885 99.08087 
" style="fill: none; stroke: #000000; stroke-width: 0.8; stroke-linejoin: miter; stroke-linecap: square"/>
   </g>
   <g id="patch_14">
    <path d="M 446.22 121.967826 
L 446.22 99.08087 
" style="fill: none; stroke: #000000; stroke-width: 0.8; stroke-linejoin: miter; stroke-linecap: square"/>
   </g>
   <g id="patch_15">
    <path d="M 162.885 121.967826 
L 446.22 121.967826 
" style="fill: none; stroke: #000000; stroke-width: 0.8; stroke-linejoin: miter; stroke-linecap: square"/>
   </g>
   <g id="patch_16">
    <path d="M 162.885 99.08087 
L 446.22 99.08087 
" style="fill: none; stroke: #000000; stroke-width: 0.8; stroke-linejoin: miter; stroke-linecap: square"/>
   </g>
  </g>
  <g id="axes_4">
   <g id="patch_17">
    <path d="M 162.885 156.298261 
L 446.22 156.298261 
L 446.22 133.411304 
L 162.885 133.411304 
z
" style="fill: #ffffff"/>
   </g>
   <g id="PolyCollection_7">
    <path d="M 192.13165 135.44144 
L 192.13165 135.268934 
L 192.993113 135.252998 
L 193.854575 135.245229 
L 194.716038 135.237261 
L 195.5775 135.229492 
L 196.438962 135.205987 
L 197.300425 135.182282 
L 198.161887 135.170529 
L 199.02335 135.158777 
L 199.884812 135.135271 
L 200.746275 135.371521 
L 200.746275 135.44144 
L 200.746275 135.44144 
L 199.884812 135.44144 
L 199.02335 135.44144 
L 198.161887 135.44144 
L 197.300425 135.44144 
L 196.438962 135.44144 
L 195.5775 135.44144 
L 194.716038 135.44144 
L 193.854575 135.44144 
L 192.993113 135.44144 
L 192.13165 135.44144 
z
" clip-path="url(#p13bb05a7ce)" style="fill: #008000; fill-opacity: 0.3"/>
    <path d="M 294.645682 135.44144 
L 294.645682 135.316343 
L 295.507144 134.883882 
L 296.368607 134.667751 
L 297.230069 134.451621 
L 298.091532 134.697034 
L 298.952994 134.942447 
L 299.814457 135.024317 
L 300.675919 135.105989 
L 301.537381 135.18786 
L 302.398844 135.271125 
L 302.398844 135.44144 
L 302.398844 135.44144 
L 301.537381 135.44144 
L 300.675919 135.44144 
L 299.814457 135.44144 
L 298.952994 135.44144 
L 298.091532 135.44144 
L 297.230069 135.44144 
L 296.368607 135.44144 
L 295.507144 135.44144 
L 294.645682 135.44144 
z
" clip-path="url(#p13bb05a7ce)" style="fill: #008000; fill-opacity: 0.3"/>
    <path d="M 379.930464 135.44144 
L 379.930464 135.245627 
L 380.791927 135.218935 
L 381.653389 135.111766 
L 382.514852 135.058181 
L 383.376314 135.004597 
L 384.237777 134.857588 
L 385.099239 134.710778 
L 385.960702 134.661775 
L 386.822164 134.612772 
L 387.683626 134.56377 
L 388.545089 134.755 
L 389.406551 134.946231 
L 390.268014 135.137462 
L 391.129476 135.328693 
L 391.129476 135.44144 
L 391.129476 135.44144 
L 390.268014 135.44144 
L 389.406551 135.44144 
L 388.545089 135.44144 
L 387.683626 135.44144 
L 386.822164 135.44144 
L 385.960702 135.44144 
L 385.099239 135.44144 
L 384.237777 135.44144 
L 383.376314 135.44144 
L 382.514852 135.44144 
L 381.653389 135.44144 
L 380.791927 135.44144 
L 379.930464 135.44144 
z
" clip-path="url(#p13bb05a7ce)" style="fill: #008000; fill-opacity: 0.3"/>
   </g>
   <g id="PolyCollection_8">
    <path d="M 201.607737 135.44144 
L 201.607737 135.450205 
L 202.4692 135.528888 
L 203.330662 135.607771 
L 204.192125 135.843822 
L 205.053587 136.080071 
L 205.915049 136.519305 
L 206.776512 136.739021 
L 207.637974 136.958539 
L 208.499437 137.397971 
L 209.360899 137.837205 
L 210.222362 138.276438 
L 211.083824 138.740771 
L 211.945287 139.205104 
L 212.806749 139.359881 
L 213.668211 139.514659 
L 214.529674 139.669436 
L 215.391136 140.133769 
L 216.252599 140.734752 
L 217.114061 141.335735 
L 217.975524 141.936718 
L 218.836986 142.046277 
L 219.698449 142.101057 
L 220.559911 142.156036 
L 221.421374 142.265595 
L 222.282836 142.375155 
L 223.144298 141.715806 
L 224.005761 141.495891 
L 224.867223 141.276175 
L 225.728686 141.056259 
L 226.590148 140.726585 
L 227.451611 140.396911 
L 228.313073 140.231974 
L 229.174536 140.067037 
L 230.035998 139.737363 
L 230.89746 139.346535 
L 231.758923 138.955906 
L 232.620385 138.565078 
L 233.481848 138.581213 
L 234.34331 138.597348 
L 235.204773 138.613483 
L 236.066235 138.662088 
L 236.927698 138.710493 
L 237.78916 139.100923 
L 238.650623 139.491352 
L 239.512085 139.686567 
L 240.373547 139.881782 
L 241.23501 140.515434 
L 242.096472 141.148886 
L 242.957935 142.810604 
L 243.819397 143.620148 
L 244.68086 144.024721 
L 245.542322 144.429493 
L 246.403785 145.012747 
L 247.265247 145.304375 
L 248.126709 145.595802 
L 248.988172 146.179057 
L 249.849634 147.87404 
L 250.711097 148.783981 
L 251.572559 149.693921 
L 252.434022 150.569002 
L 253.295484 151.443884 
L 254.156947 151.983314 
L 255.018409 152.522745 
L 255.879872 153.062175 
L 256.741334 153.538061 
L 257.602796 154.013948 
L 258.464259 154.96572 
L 259.325721 155.063128 
L 260.187184 155.095598 
L 261.048646 155.128067 
L 261.910109 155.160536 
L 262.771571 155.257945 
L 263.633034 155.013727 
L 264.494496 154.769509 
L 265.355958 154.525291 
L 266.217421 153.792438 
L 267.078883 152.426731 
L 267.940346 151.523364 
L 268.801808 151.222175 
L 269.663271 150.920986 
L 270.524733 150.619798 
L 271.386196 149.716431 
L 272.247658 148.161484 
L 273.109121 146.606338 
L 273.970583 146.206945 
L 274.832045 145.807551 
L 275.693508 145.008564 
L 276.55497 144.714746 
L 277.416433 144.420927 
L 278.277895 143.833291 
L 279.139358 143.245654 
L 280.00082 142.658017 
L 280.862283 142.338901 
L 281.723745 142.019784 
L 282.585208 141.381352 
L 283.44667 140.743118 
L 284.308132 139.795928 
L 285.169595 139.479998 
L 286.031057 139.164268 
L 286.89252 138.848538 
L 287.753982 138.213492 
L 288.615445 137.578645 
L 289.476907 136.943599 
L 290.33837 136.536835 
L 291.199832 136.13007 
L 292.061294 135.926489 
L 292.922757 135.723107 
L 293.784219 135.519725 
L 293.784219 135.44144 
L 293.784219 135.44144 
L 292.922757 135.44144 
L 292.061294 135.44144 
L 291.199832 135.44144 
L 290.33837 135.44144 
L 289.476907 135.44144 
L 288.615445 135.44144 
L 287.753982 135.44144 
L 286.89252 135.44144 
L 286.031057 135.44144 
L 285.169595 135.44144 
L 284.308132 135.44144 
L 283.44667 135.44144 
L 282.585208 135.44144 
L 281.723745 135.44144 
L 280.862283 135.44144 
L 280.00082 135.44144 
L 279.139358 135.44144 
L 278.277895 135.44144 
L 277.416433 135.44144 
L 276.55497 135.44144 
L 275.693508 135.44144 
L 274.832045 135.44144 
L 273.970583 135.44144 
L 273.109121 135.44144 
L 272.247658 135.44144 
L 271.386196 135.44144 
L 270.524733 135.44144 
L 269.663271 135.44144 
L 268.801808 135.44144 
L 267.940346 135.44144 
L 267.078883 135.44144 
L 266.217421 135.44144 
L 265.355958 135.44144 
L 264.494496 135.44144 
L 263.633034 135.44144 
L 262.771571 135.44144 
L 261.910109 135.44144 
L 261.048646 135.44144 
L 260.187184 135.44144 
L 259.325721 135.44144 
L 258.464259 135.44144 
L 257.602796 135.44144 
L 256.741334 135.44144 
L 255.879872 135.44144 
L 255.018409 135.44144 
L 254.156947 135.44144 
L 253.295484 135.44144 
L 252.434022 135.44144 
L 251.572559 135.44144 
L 250.711097 135.44144 
L 249.849634 135.44144 
L 248.988172 135.44144 
L 248.126709 135.44144 
L 247.265247 135.44144 
L 246.403785 135.44144 
L 245.542322 135.44144 
L 244.68086 135.44144 
L 243.819397 135.44144 
L 242.957935 135.44144 
L 242.096472 135.44144 
L 241.23501 135.44144 
L 240.373547 135.44144 
L 239.512085 135.44144 
L 238.650623 135.44144 
L 237.78916 135.44144 
L 236.927698 135.44144 
L 236.066235 135.44144 
L 235.204773 135.44144 
L 234.34331 135.44144 
L 233.481848 135.44144 
L 232.620385 135.44144 
L 231.758923 135.44144 
L 230.89746 135.44144 
L 230.035998 135.44144 
L 229.174536 135.44144 
L 228.313073 135.44144 
L 227.451611 135.44144 
L 226.590148 135.44144 
L 225.728686 135.44144 
L 224.867223 135.44144 
L 224.005761 135.44144 
L 223.144298 135.44144 
L 222.282836 135.44144 
L 221.421374 135.44144 
L 220.559911 135.44144 
L 219.698449 135.44144 
L 218.836986 135.44144 
L 217.975524 135.44144 
L 217.114061 135.44144 
L 216.252599 135.44144 
L 215.391136 135.44144 
L 214.529674 135.44144 
L 213.668211 135.44144 
L 212.806749 135.44144 
L 211.945287 135.44144 
L 211.083824 135.44144 
L 210.222362 135.44144 
L 209.360899 135.44144 
L 208.499437 135.44144 
L 207.637974 135.44144 
L 206.776512 135.44144 
L 205.915049 135.44144 
L 205.053587 135.44144 
L 204.192125 135.44144 
L 203.330662 135.44144 
L 202.4692 135.44144 
L 201.607737 135.44144 
z
" clip-path="url(#p13bb05a7ce)" style="fill: #ff0000; fill-opacity: 0.3"/>
    <path d="M 391.990939 135.44144 
L 391.990939 135.711155 
L 392.852401 136.821091 
L 393.713864 137.37586 
L 394.575326 137.930828 
L 395.436789 138.467669 
L 396.298251 139.00471 
L 397.159713 139.541551 
L 398.021176 140.347111 
L 398.882638 140.749692 
L 399.744101 141.152472 
L 400.605563 141.958032 
L 401.467026 142.763393 
L 402.328488 143.729309 
L 403.189951 144.695025 
L 404.051413 145.222703 
L 404.912875 145.750182 
L 405.774338 145.926074 
L 406.6358 146.101967 
L 407.497263 146.277859 
L 408.358725 146.641597 
L 409.220188 147.005533 
L 410.08165 147.733007 
L 410.943113 147.991368 
L 411.804575 148.249729 
L 412.666038 148.379009 
L 413.5275 148.50809 
L 414.388962 148.766451 
L 415.250425 148.47323 
L 416.111887 148.180209 
L 416.97335 148.033599 
L 417.834812 147.886988 
L 418.696275 147.5607 
L 419.557737 147.397556 
L 420.4192 147.234413 
L 421.280662 146.88701 
L 422.142125 146.539806 
L 423.003587 146.366105 
L 423.865049 146.192403 
L 424.726512 145.845 
L 425.587974 145.497797 
L 426.449437 145.150394 
L 427.310899 144.808768 
L 428.172362 144.467142 
L 429.033824 144.239258 
L 429.895287 144.011574 
L 430.756749 143.78369 
L 431.618211 143.78369 
L 432.479674 143.78369 
L 433.341136 143.78369 
L 433.341136 135.44144 
L 433.341136 135.44144 
L 432.479674 135.44144 
L 431.618211 135.44144 
L 430.756749 135.44144 
L 429.895287 135.44144 
L 429.033824 135.44144 
L 428.172362 135.44144 
L 427.310899 135.44144 
L 426.449437 135.44144 
L 425.587974 135.44144 
L 424.726512 135.44144 
L 423.865049 135.44144 
L 423.003587 135.44144 
L 422.142125 135.44144 
L 421.280662 135.44144 
L 420.4192 135.44144 
L 419.557737 135.44144 
L 418.696275 135.44144 
L 417.834812 135.44144 
L 416.97335 135.44144 
L 416.111887 135.44144 
L 415.250425 135.44144 
L 414.388962 135.44144 
L 413.5275 135.44144 
L 412.666038 135.44144 
L 411.804575 135.44144 
L 410.943113 135.44144 
L 410.08165 135.44144 
L 409.220188 135.44144 
L 408.358725 135.44144 
L 407.497263 135.44144 
L 406.6358 135.44144 
L 405.774338 135.44144 
L 404.912875 135.44144 
L 404.051413 135.44144 
L 403.189951 135.44144 
L 402.328488 135.44144 
L 401.467026 135.44144 
L 400.605563 135.44144 
L 399.744101 135.44144 
L 398.882638 135.44144 
L 398.021176 135.44144 
L 397.159713 135.44144 
L 396.298251 135.44144 
L 395.436789 135.44144 
L 394.575326 135.44144 
L 393.713864 135.44144 
L 392.852401 135.44144 
L 391.990939 135.44144 
z
" clip-path="url(#p13bb05a7ce)" style="fill: #ff0000; fill-opacity: 0.3"/>
   </g>
   <g id="matplotlib.axis_4">
    <g id="ytick_8">
     <g id="line2d_21">
      <path d="M 162.885 155.361329 
L 446.22 155.361329 
" clip-path="url(#p13bb05a7ce)" style="fill: none; stroke: #b0b0b0; stroke-width: 0.8; stroke-linecap: square"/>
     </g>
     <g id="line2d_22">
      <g>
       <use xlink:href="#m1198679e64" x="162.885" y="155.361329" style="stroke: #000000; stroke-width: 0.8"/>
      </g>
     </g>
     <g id="text_12">
      <!-- −1000 -->
      <g transform="translate(110.214922 160.490274) scale(0.135 -0.135)">
       <use xlink:href="#DejaVuSans-2212"/>
       <use xlink:href="#DejaVuSans-31" x="83.789062"/>
       <use xlink:href="#DejaVuSans-30" x="147.412109"/>
       <use xlink:href="#DejaVuSans-30" x="211.035156"/>
       <use xlink:href="#DejaVuSans-30" x="274.658203"/>
      </g>
     </g>
    </g>
    <g id="ytick_9">
     <g id="line2d_23">
      <path d="M 162.885 135.44144 
L 446.22 135.44144 
" clip-path="url(#p13bb05a7ce)" style="fill: none; stroke: #b0b0b0; stroke-width: 0.8; stroke-linecap: square"/>
     </g>
     <g id="line2d_24">
      <g>
       <use xlink:href="#m1198679e64" x="162.885" y="135.44144" style="stroke: #000000; stroke-width: 0.8"/>
      </g>
     </g>
     <g id="text_13">
      <!-- 0 -->
      <g transform="translate(147.295625 140.570385) scale(0.135 -0.135)">
       <use xlink:href="#DejaVuSans-30"/>
      </g>
     </g>
    </g>
    <g id="text_14">
     <!-- PEU_2-4 [kW] -->
     <g transform="translate(14.544844 141.671736) scale(0.135 -0.135)">
      <defs>
       <path id="DejaVuSans-34" d="M 2419 4116 
L 825 1625 
L 2419 1625 
L 2419 4116 
z
M 2253 4666 
L 3047 4666 
L 3047 1625 
L 3713 1625 
L 3713 1100 
L 3047 1100 
L 3047 0 
L 2419 0 
L 2419 1100 
L 313 1100 
L 313 1709 
L 2253 4666 
z
" transform="scale(0.015625)"/>
      </defs>
      <use xlink:href="#DejaVuSans-50"/>
      <use xlink:href="#DejaVuSans-45" x="60.302734"/>
      <use xlink:href="#DejaVuSans-55" x="123.486328"/>
      <use xlink:href="#DejaVuSans-5f" x="196.679688"/>
      <use xlink:href="#DejaVuSans-32" x="246.679688"/>
      <use xlink:href="#DejaVuSans-2d" x="310.302734"/>
      <use xlink:href="#DejaVuSans-34" x="346.386719"/>
      <use xlink:href="#DejaVuSans-20" x="410.009766"/>
      <use xlink:href="#DejaVuSans-5b" x="441.796875"/>
      <use xlink:href="#DejaVuSans-6b" x="480.810547"/>
      <use xlink:href="#DejaVuSans-57" x="538.720703"/>
      <use xlink:href="#DejaVuSans-5d" x="637.597656"/>
     </g>
    </g>
   </g>
   <g id="line2d_25">
    <path d="M 175.763864 135.44144 
L 191.270188 135.44144 
L 192.13165 135.268934 
L 199.884812 135.135271 
L 200.746275 135.371521 
L 203.330662 135.607771 
L 205.053587 136.080071 
L 205.915049 136.519305 
L 207.637974 136.958539 
L 211.945287 139.205104 
L 214.529674 139.669436 
L 215.391136 140.133769 
L 217.975524 141.936718 
L 222.282836 142.375155 
L 223.144298 141.715806 
L 226.590148 140.726585 
L 227.451611 140.396911 
L 229.174536 140.067037 
L 230.89746 139.346535 
L 232.620385 138.565078 
L 236.927698 138.710493 
L 238.650623 139.491352 
L 240.373547 139.881782 
L 242.096472 141.148886 
L 242.957935 142.810604 
L 243.819397 143.620148 
L 245.542322 144.429493 
L 246.403785 145.012747 
L 248.126709 145.595802 
L 248.988172 146.179057 
L 249.849634 147.87404 
L 253.295484 151.443884 
L 257.602796 154.013948 
L 258.464259 154.96572 
L 260.187184 155.095598 
L 262.771571 155.257945 
L 265.355958 154.525291 
L 266.217421 153.792438 
L 267.078883 152.426731 
L 267.940346 151.523364 
L 270.524733 150.619798 
L 271.386196 149.716431 
L 273.109121 146.606338 
L 274.832045 145.807551 
L 275.693508 145.008564 
L 277.416433 144.420927 
L 280.00082 142.658017 
L 281.723745 142.019784 
L 283.44667 140.743118 
L 284.308132 139.795928 
L 286.89252 138.848538 
L 289.476907 136.943599 
L 291.199832 136.13007 
L 294.645682 135.316343 
L 295.507144 134.883882 
L 297.230069 134.451621 
L 298.952994 134.942447 
L 304.983231 135.44144 
L 379.069002 135.44144 
L 379.930464 135.245627 
L 382.514852 135.058181 
L 384.237777 134.857588 
L 385.960702 134.661775 
L 387.683626 134.56377 
L 391.129476 135.328693 
L 391.990939 135.711155 
L 392.852401 136.821091 
L 397.159713 139.541551 
L 398.021176 140.347111 
L 399.744101 141.152472 
L 401.467026 142.763393 
L 403.189951 144.695025 
L 404.912875 145.750182 
L 407.497263 146.277859 
L 409.220188 147.005533 
L 410.08165 147.733007 
L 411.804575 148.249729 
L 413.5275 148.50809 
L 414.388962 148.766451 
L 416.111887 148.180209 
L 417.834812 147.886988 
L 418.696275 147.5607 
L 420.4192 147.234413 
L 422.142125 146.539806 
L 423.865049 146.192403 
L 428.172362 144.467142 
L 430.756749 143.78369 
L 433.341136 143.78369 
L 433.341136 143.78369 
" clip-path="url(#p13bb05a7ce)" style="fill: none; stroke: #1f77b4; stroke-width: 1.5; stroke-linecap: square"/>
   </g>
   <g id="line2d_26">
    <path d="M 162.885 135.44144 
L 446.22 135.44144 
" clip-path="url(#p13bb05a7ce)" style="fill: none; stroke: #000000; stroke-width: 1.5; stroke-linecap: square"/>
   </g>
   <g id="patch_18">
    <path d="M 162.885 156.298261 
L 162.885 133.411304 
" style="fill: none; stroke: #000000; stroke-width: 0.8; stroke-linejoin: miter; stroke-linecap: square"/>
   </g>
   <g id="patch_19">
    <path d="M 446.22 156.298261 
L 446.22 133.411304 
" style="fill: none; stroke: #000000; stroke-width: 0.8; stroke-linejoin: miter; stroke-linecap: square"/>
   </g>
   <g id="patch_20">
    <path d="M 162.885 156.298261 
L 446.22 156.298261 
" style="fill: none; stroke: #000000; stroke-width: 0.8; stroke-linejoin: miter; stroke-linecap: square"/>
   </g>
   <g id="patch_21">
    <path d="M 162.885 133.411304 
L 446.22 133.411304 
" style="fill: none; stroke: #000000; stroke-width: 0.8; stroke-linejoin: miter; stroke-linecap: square"/>
   </g>
  </g>
  <g id="axes_5">
   <g id="patch_22">
    <path d="M 162.885 190.628696 
L 446.22 190.628696 
L 446.22 167.741739 
L 162.885 167.741739 
z
" style="fill: #ffffff"/>
   </g>
   <g id="matplotlib.axis_5">
    <g id="ytick_10">
     <g id="line2d_27">
      <g>
       <use xlink:href="#m1198679e64" x="162.885" y="189.588379" style="stroke: #000000; stroke-width: 0.8"/>
      </g>
     </g>
     <g id="text_15">
      <!-- 0 -->
      <g transform="translate(147.295625 194.717325) scale(0.135 -0.135)">
       <use xlink:href="#DejaVuSans-30"/>
      </g>
     </g>
    </g>
    <g id="ytick_11">
     <g id="line2d_28">
      <g>
       <use xlink:href="#m1198679e64" x="162.885" y="168.782055" style="stroke: #000000; stroke-width: 0.8"/>
      </g>
     </g>
     <g id="text_16">
      <!-- 1 -->
      <g transform="translate(147.295625 173.911001) scale(0.135 -0.135)">
       <use xlink:href="#DejaVuSans-31"/>
      </g>
     </g>
    </g>
    <g id="text_17">
     <!-- SW_2-1 -->
     <g transform="translate(49.436719 176.002171) scale(0.135 -0.135)">
      <defs>
       <path id="DejaVuSans-53" d="M 3425 4513 
L 3425 3897 
Q 3066 4069 2747 4153 
Q 2428 4238 2131 4238 
Q 1616 4238 1336 4038 
Q 1056 3838 1056 3469 
Q 1056 3159 1242 3001 
Q 1428 2844 1947 2747 
L 2328 2669 
Q 3034 2534 3370 2195 
Q 3706 1856 3706 1288 
Q 3706 609 3251 259 
Q 2797 -91 1919 -91 
Q 1588 -91 1214 -16 
Q 841 59 441 206 
L 441 856 
Q 825 641 1194 531 
Q 1563 422 1919 422 
Q 2459 422 2753 634 
Q 3047 847 3047 1241 
Q 3047 1584 2836 1778 
Q 2625 1972 2144 2069 
L 1759 2144 
Q 1053 2284 737 2584 
Q 422 2884 422 3419 
Q 422 4038 858 4394 
Q 1294 4750 2059 4750 
Q 2388 4750 2728 4690 
Q 3069 4631 3425 4513 
z
" transform="scale(0.015625)"/>
      </defs>
      <use xlink:href="#DejaVuSans-53"/>
      <use xlink:href="#DejaVuSans-57" x="63.476562"/>
      <use xlink:href="#DejaVuSans-5f" x="162.353516"/>
      <use xlink:href="#DejaVuSans-32" x="212.353516"/>
      <use xlink:href="#DejaVuSans-2d" x="275.976562"/>
      <use xlink:href="#DejaVuSans-31" x="312.060547"/>
     </g>
    </g>
   </g>
   <g id="line2d_29">
    <path d="M 175.763864 189.588379 
L 204.192125 189.588379 
L 205.053587 168.782055 
L 242.957935 168.782055 
L 243.819397 189.588379 
L 433.341136 189.588379 
L 433.341136 189.588379 
" clip-path="url(#pb748c7eef6)" style="fill: none; stroke: #1f77b4; stroke-width: 1.5; stroke-linecap: square"/>
   </g>
   <g id="line2d_30">
    <path d="M 175.763864 168.782055 
L 199.02335 168.782055 
L 199.884812 189.588379 
L 242.957935 189.588379 
L 243.819397 168.782055 
L 294.645682 168.782055 
L 295.507144 189.588379 
L 302.398844 189.588379 
L 303.260306 168.782055 
L 380.791927 168.782055 
L 381.653389 189.588379 
L 391.129476 189.588379 
L 391.990939 168.782055 
L 433.341136 168.782055 
L 433.341136 168.782055 
" clip-path="url(#pb748c7eef6)" style="fill: none; stroke: #ff7f0e; stroke-width: 1.5; stroke-linecap: square"/>
   </g>
   <g id="patch_23">
    <path d="M 162.885 190.628696 
L 162.885 167.741739 
" style="fill: none; stroke: #000000; stroke-width: 0.8; stroke-linejoin: miter; stroke-linecap: square"/>
   </g>
   <g id="patch_24">
    <path d="M 446.22 190.628696 
L 446.22 167.741739 
" style="fill: none; stroke: #000000; stroke-width: 0.8; stroke-linejoin: miter; stroke-linecap: square"/>
   </g>
   <g id="patch_25">
    <path d="M 162.885 190.628696 
L 446.22 190.628696 
" style="fill: none; stroke: #000000; stroke-width: 0.8; stroke-linejoin: miter; stroke-linecap: square"/>
   </g>
   <g id="patch_26">
    <path d="M 162.885 167.741739 
L 446.22 167.741739 
" style="fill: none; stroke: #000000; stroke-width: 0.8; stroke-linejoin: miter; stroke-linecap: square"/>
   </g>
  </g>
  <g id="axes_6">
   <g id="patch_27">
    <path d="M 162.885 224.95913 
L 446.22 224.95913 
L 446.22 202.072174 
L 162.885 202.072174 
z
" style="fill: #ffffff"/>
   </g>
   <g id="matplotlib.axis_6">
    <g id="ytick_12">
     <g id="line2d_31">
      <g>
       <use xlink:href="#m1198679e64" x="162.885" y="223.918814" style="stroke: #000000; stroke-width: 0.8"/>
      </g>
     </g>
     <g id="text_18">
      <!-- 0 -->
      <g transform="translate(147.295625 229.04776) scale(0.135 -0.135)">
       <use xlink:href="#DejaVuSans-30"/>
      </g>
     </g>
    </g>
    <g id="ytick_13">
     <g id="line2d_32">
      <g>
       <use xlink:href="#m1198679e64" x="162.885" y="203.11249" style="stroke: #000000; stroke-width: 0.8"/>
      </g>
     </g>
     <g id="text_19">
      <!-- 1 -->
      <g transform="translate(147.295625 208.241435) scale(0.135 -0.135)">
       <use xlink:href="#DejaVuSans-31"/>
      </g>
     </g>
    </g>
    <g id="text_20">
     <!-- SW_2-3 -->
     <g transform="translate(49.436719 210.332605) scale(0.135 -0.135)">
      <use xlink:href="#DejaVuSans-53"/>
      <use xlink:href="#DejaVuSans-57" x="63.476562"/>
      <use xlink:href="#DejaVuSans-5f" x="162.353516"/>
      <use xlink:href="#DejaVuSans-32" x="212.353516"/>
      <use xlink:href="#DejaVuSans-2d" x="275.976562"/>
      <use xlink:href="#DejaVuSans-33" x="312.060547"/>
     </g>
    </g>
   </g>
   <g id="line2d_33">
    <path d="M 175.763864 223.918814 
L 204.192125 223.918814 
L 205.053587 203.11249 
L 242.957935 203.11249 
L 243.819397 223.918814 
L 433.341136 223.918814 
L 433.341136 223.918814 
" clip-path="url(#pa1335b1c14)" style="fill: none; stroke: #1f77b4; stroke-width: 1.5; stroke-linecap: square"/>
   </g>
   <g id="line2d_34">
    <path d="M 175.763864 203.11249 
L 202.4692 203.11249 
L 203.330662 223.918814 
L 242.957935 223.918814 
L 243.819397 203.11249 
L 294.645682 203.11249 
L 295.507144 223.918814 
L 302.398844 223.918814 
L 303.260306 203.11249 
L 391.129476 203.11249 
L 391.990939 223.918814 
L 426.449437 223.918814 
L 427.310899 203.11249 
L 433.341136 203.11249 
L 433.341136 203.11249 
" clip-path="url(#pa1335b1c14)" style="fill: none; stroke: #ff7f0e; stroke-width: 1.5; stroke-linecap: square"/>
   </g>
   <g id="patch_28">
    <path d="M 162.885 224.95913 
L 162.885 202.072174 
" style="fill: none; stroke: #000000; stroke-width: 0.8; stroke-linejoin: miter; stroke-linecap: square"/>
   </g>
   <g id="patch_29">
    <path d="M 446.22 224.95913 
L 446.22 202.072174 
" style="fill: none; stroke: #000000; stroke-width: 0.8; stroke-linejoin: miter; stroke-linecap: square"/>
   </g>
   <g id="patch_30">
    <path d="M 162.885 224.95913 
L 446.22 224.95913 
" style="fill: none; stroke: #000000; stroke-width: 0.8; stroke-linejoin: miter; stroke-linecap: square"/>
   </g>
   <g id="patch_31">
    <path d="M 162.885 202.072174 
L 446.22 202.072174 
" style="fill: none; stroke: #000000; stroke-width: 0.8; stroke-linejoin: miter; stroke-linecap: square"/>
   </g>
  </g>
  <g id="axes_7">
   <g id="patch_32">
    <path d="M 162.885 259.289565 
L 446.22 259.289565 
L 446.22 236.402609 
L 162.885 236.402609 
z
" style="fill: #ffffff"/>
   </g>
   <g id="matplotlib.axis_7">
    <g id="ytick_14">
     <g id="line2d_35">
      <g>
       <use xlink:href="#m1198679e64" x="162.885" y="258.249249" style="stroke: #000000; stroke-width: 0.8"/>
      </g>
     </g>
     <g id="text_21">
      <!-- 0 -->
      <g transform="translate(147.295625 263.378194) scale(0.135 -0.135)">
       <use xlink:href="#DejaVuSans-30"/>
      </g>
     </g>
    </g>
    <g id="ytick_15">
     <g id="line2d_36">
      <g>
       <use xlink:href="#m1198679e64" x="162.885" y="237.442925" style="stroke: #000000; stroke-width: 0.8"/>
      </g>
     </g>
     <g id="text_22">
      <!-- 1 -->
      <g transform="translate(147.295625 242.57187) scale(0.135 -0.135)">
       <use xlink:href="#DejaVuSans-31"/>
      </g>
     </g>
    </g>
    <g id="text_23">
     <!-- SW_2-4 -->
     <g transform="translate(49.436719 244.66304) scale(0.135 -0.135)">
      <use xlink:href="#DejaVuSans-53"/>
      <use xlink:href="#DejaVuSans-57" x="63.476562"/>
      <use xlink:href="#DejaVuSans-5f" x="162.353516"/>
      <use xlink:href="#DejaVuSans-32" x="212.353516"/>
      <use xlink:href="#DejaVuSans-2d" x="275.976562"/>
      <use xlink:href="#DejaVuSans-34" x="312.060547"/>
     </g>
    </g>
   </g>
   <g id="line2d_37">
    <path d="M 175.763864 258.249249 
L 204.192125 258.249249 
L 205.053587 237.442925 
L 288.615445 237.442925 
L 289.476907 258.249249 
L 433.341136 258.249249 
L 433.341136 258.249249 
" clip-path="url(#p21ee481ded)" style="fill: none; stroke: #1f77b4; stroke-width: 1.5; stroke-linecap: square"/>
   </g>
   <g id="line2d_38">
    <path d="M 175.763864 237.442925 
L 200.746275 237.442925 
L 201.607737 258.249249 
L 293.784219 258.249249 
L 294.645682 237.442925 
L 391.129476 237.442925 
L 391.990939 258.249249 
L 433.341136 258.249249 
L 433.341136 258.249249 
" clip-path="url(#p21ee481ded)" style="fill: none; stroke: #ff7f0e; stroke-width: 1.5; stroke-linecap: square"/>
   </g>
   <g id="patch_33">
    <path d="M 162.885 259.289565 
L 162.885 236.402609 
" style="fill: none; stroke: #000000; stroke-width: 0.8; stroke-linejoin: miter; stroke-linecap: square"/>
   </g>
   <g id="patch_34">
    <path d="M 446.22 259.289565 
L 446.22 236.402609 
" style="fill: none; stroke: #000000; stroke-width: 0.8; stroke-linejoin: miter; stroke-linecap: square"/>
   </g>
   <g id="patch_35">
    <path d="M 162.885 259.289565 
L 446.22 259.289565 
" style="fill: none; stroke: #000000; stroke-width: 0.8; stroke-linejoin: miter; stroke-linecap: square"/>
   </g>
   <g id="patch_36">
    <path d="M 162.885 236.402609 
L 446.22 236.402609 
" style="fill: none; stroke: #000000; stroke-width: 0.8; stroke-linejoin: miter; stroke-linecap: square"/>
   </g>
  </g>
  <g id="axes_8">
   <g id="patch_37">
    <path d="M 162.885 293.62 
L 446.22 293.62 
L 446.22 270.733043 
L 162.885 270.733043 
z
" style="fill: #ffffff"/>
   </g>
   <g id="matplotlib.axis_8">
    <g id="xtick_1">
     <g id="line2d_39">
      <defs>
       <path id="mb1448658bf" d="M 0 0 
L 0 3.5 
" style="stroke: #000000; stroke-width: 0.8"/>
      </defs>
      <g>
       <use xlink:href="#mb1448658bf" x="175.763864" y="293.62" style="stroke: #000000; stroke-width: 0.8"/>
      </g>
     </g>
     <g id="text_24">
      <!-- 00 -->
      <g transform="translate(167.174489 310.877891) scale(0.135 -0.135)">
       <use xlink:href="#DejaVuSans-30"/>
       <use xlink:href="#DejaVuSans-30" x="63.623047"/>
      </g>
     </g>
    </g>
    <g id="xtick_2">
     <g id="line2d_40">
      <g>
       <use xlink:href="#mb1448658bf" x="201.607737" y="293.62" style="stroke: #000000; stroke-width: 0.8"/>
      </g>
     </g>
     <g id="text_25">
      <!-- 02 -->
      <g transform="translate(193.018362 310.877891) scale(0.135 -0.135)">
       <use xlink:href="#DejaVuSans-30"/>
       <use xlink:href="#DejaVuSans-32" x="63.623047"/>
      </g>
     </g>
    </g>
    <g id="xtick_3">
     <g id="line2d_41">
      <g>
       <use xlink:href="#mb1448658bf" x="227.451611" y="293.62" style="stroke: #000000; stroke-width: 0.8"/>
      </g>
     </g>
     <g id="text_26">
      <!-- 04 -->
      <g transform="translate(218.862236 310.877891) scale(0.135 -0.135)">
       <use xlink:href="#DejaVuSans-30"/>
       <use xlink:href="#DejaVuSans-34" x="63.623047"/>
      </g>
     </g>
    </g>
    <g id="xtick_4">
     <g id="line2d_42">
      <g>
       <use xlink:href="#mb1448658bf" x="253.295484" y="293.62" style="stroke: #000000; stroke-width: 0.8"/>
      </g>
     </g>
     <g id="text_27">
      <!-- 06 -->
      <g transform="translate(244.706109 310.877891) scale(0.135 -0.135)">
       <defs>
        <path id="DejaVuSans-36" d="M 2113 2584 
Q 1688 2584 1439 2293 
Q 1191 2003 1191 1497 
Q 1191 994 1439 701 
Q 1688 409 2113 409 
Q 2538 409 2786 701 
Q 3034 994 3034 1497 
Q 3034 2003 2786 2293 
Q 2538 2584 2113 2584 
z
M 3366 4563 
L 3366 3988 
Q 3128 4100 2886 4159 
Q 2644 4219 2406 4219 
Q 1781 4219 1451 3797 
Q 1122 3375 1075 2522 
Q 1259 2794 1537 2939 
Q 1816 3084 2150 3084 
Q 2853 3084 3261 2657 
Q 3669 2231 3669 1497 
Q 3669 778 3244 343 
Q 2819 -91 2113 -91 
Q 1303 -91 875 529 
Q 447 1150 447 2328 
Q 447 3434 972 4092 
Q 1497 4750 2381 4750 
Q 2619 4750 2861 4703 
Q 3103 4656 3366 4563 
z
" transform="scale(0.015625)"/>
       </defs>
       <use xlink:href="#DejaVuSans-30"/>
       <use xlink:href="#DejaVuSans-36" x="63.623047"/>
      </g>
     </g>
    </g>
    <g id="xtick_5">
     <g id="line2d_43">
      <g>
       <use xlink:href="#mb1448658bf" x="279.139358" y="293.62" style="stroke: #000000; stroke-width: 0.8"/>
      </g>
     </g>
     <g id="text_28">
      <!-- 08 -->
      <g transform="translate(270.549983 310.877891) scale(0.135 -0.135)">
       <defs>
        <path id="DejaVuSans-38" d="M 2034 2216 
Q 1584 2216 1326 1975 
Q 1069 1734 1069 1313 
Q 1069 891 1326 650 
Q 1584 409 2034 409 
Q 2484 409 2743 651 
Q 3003 894 3003 1313 
Q 3003 1734 2745 1975 
Q 2488 2216 2034 2216 
z
M 1403 2484 
Q 997 2584 770 2862 
Q 544 3141 544 3541 
Q 544 4100 942 4425 
Q 1341 4750 2034 4750 
Q 2731 4750 3128 4425 
Q 3525 4100 3525 3541 
Q 3525 3141 3298 2862 
Q 3072 2584 2669 2484 
Q 3125 2378 3379 2068 
Q 3634 1759 3634 1313 
Q 3634 634 3220 271 
Q 2806 -91 2034 -91 
Q 1263 -91 848 271 
Q 434 634 434 1313 
Q 434 1759 690 2068 
Q 947 2378 1403 2484 
z
M 1172 3481 
Q 1172 3119 1398 2916 
Q 1625 2713 2034 2713 
Q 2441 2713 2670 2916 
Q 2900 3119 2900 3481 
Q 2900 3844 2670 4047 
Q 2441 4250 2034 4250 
Q 1625 4250 1398 4047 
Q 1172 3844 1172 3481 
z
" transform="scale(0.015625)"/>
       </defs>
       <use xlink:href="#DejaVuSans-30"/>
       <use xlink:href="#DejaVuSans-38" x="63.623047"/>
      </g>
     </g>
    </g>
    <g id="xtick_6">
     <g id="line2d_44">
      <g>
       <use xlink:href="#mb1448658bf" x="304.983231" y="293.62" style="stroke: #000000; stroke-width: 0.8"/>
      </g>
     </g>
     <g id="text_29">
      <!-- 10 -->
      <g transform="translate(296.393856 310.877891) scale(0.135 -0.135)">
       <use xlink:href="#DejaVuSans-31"/>
       <use xlink:href="#DejaVuSans-30" x="63.623047"/>
      </g>
     </g>
    </g>
    <g id="xtick_7">
     <g id="line2d_45">
      <g>
       <use xlink:href="#mb1448658bf" x="330.827105" y="293.62" style="stroke: #000000; stroke-width: 0.8"/>
      </g>
     </g>
     <g id="text_30">
      <!-- 12 -->
      <g transform="translate(322.23773 310.877891) scale(0.135 -0.135)">
       <use xlink:href="#DejaVuSans-31"/>
       <use xlink:href="#DejaVuSans-32" x="63.623047"/>
      </g>
     </g>
    </g>
    <g id="xtick_8">
     <g id="line2d_46">
      <g>
       <use xlink:href="#mb1448658bf" x="356.670978" y="293.62" style="stroke: #000000; stroke-width: 0.8"/>
      </g>
     </g>
     <g id="text_31">
      <!-- 14 -->
      <g transform="translate(348.081603 310.877891) scale(0.135 -0.135)">
       <use xlink:href="#DejaVuSans-31"/>
       <use xlink:href="#DejaVuSans-34" x="63.623047"/>
      </g>
     </g>
    </g>
    <g id="xtick_9">
     <g id="line2d_47">
      <g>
       <use xlink:href="#mb1448658bf" x="382.514852" y="293.62" style="stroke: #000000; stroke-width: 0.8"/>
      </g>
     </g>
     <g id="text_32">
      <!-- 16 -->
      <g transform="translate(373.925477 310.877891) scale(0.135 -0.135)">
       <use xlink:href="#DejaVuSans-31"/>
       <use xlink:href="#DejaVuSans-36" x="63.623047"/>
      </g>
     </g>
    </g>
    <g id="xtick_10">
     <g id="line2d_48">
      <g>
       <use xlink:href="#mb1448658bf" x="408.358725" y="293.62" style="stroke: #000000; stroke-width: 0.8"/>
      </g>
     </g>
     <g id="text_33">
      <!-- 18 -->
      <g transform="translate(399.76935 310.877891) scale(0.135 -0.135)">
       <use xlink:href="#DejaVuSans-31"/>
       <use xlink:href="#DejaVuSans-38" x="63.623047"/>
      </g>
     </g>
    </g>
    <g id="xtick_11">
     <g id="line2d_49">
      <g>
       <use xlink:href="#mb1448658bf" x="434.202599" y="293.62" style="stroke: #000000; stroke-width: 0.8"/>
      </g>
     </g>
     <g id="text_34">
      <!-- 20 -->
      <g transform="translate(425.613224 310.877891) scale(0.135 -0.135)">
       <use xlink:href="#DejaVuSans-32"/>
       <use xlink:href="#DejaVuSans-30" x="63.623047"/>
      </g>
     </g>
    </g>
    <g id="text_35">
     <!-- Time [Hours] -->
     <g transform="translate(260.849414 327.943359) scale(0.135 -0.135)">
      <defs>
       <path id="DejaVuSans-54" d="M -19 4666 
L 3928 4666 
L 3928 4134 
L 2272 4134 
L 2272 0 
L 1638 0 
L 1638 4134 
L -19 4134 
L -19 4666 
z
" transform="scale(0.015625)"/>
       <path id="DejaVuSans-6d" d="M 3328 2828 
Q 3544 3216 3844 3400 
Q 4144 3584 4550 3584 
Q 5097 3584 5394 3201 
Q 5691 2819 5691 2113 
L 5691 0 
L 5113 0 
L 5113 2094 
Q 5113 2597 4934 2840 
Q 4756 3084 4391 3084 
Q 3944 3084 3684 2787 
Q 3425 2491 3425 1978 
L 3425 0 
L 2847 0 
L 2847 2094 
Q 2847 2600 2669 2842 
Q 2491 3084 2119 3084 
Q 1678 3084 1418 2786 
Q 1159 2488 1159 1978 
L 1159 0 
L 581 0 
L 581 3500 
L 1159 3500 
L 1159 2956 
Q 1356 3278 1631 3431 
Q 1906 3584 2284 3584 
Q 2666 3584 2933 3390 
Q 3200 3197 3328 2828 
z
" transform="scale(0.015625)"/>
       <path id="DejaVuSans-65" d="M 3597 1894 
L 3597 1613 
L 953 1613 
Q 991 1019 1311 708 
Q 1631 397 2203 397 
Q 2534 397 2845 478 
Q 3156 559 3463 722 
L 3463 178 
Q 3153 47 2828 -22 
Q 2503 -91 2169 -91 
Q 1331 -91 842 396 
Q 353 884 353 1716 
Q 353 2575 817 3079 
Q 1281 3584 2069 3584 
Q 2775 3584 3186 3129 
Q 3597 2675 3597 1894 
z
M 3022 2063 
Q 3016 2534 2758 2815 
Q 2500 3097 2075 3097 
Q 1594 3097 1305 2825 
Q 1016 2553 972 2059 
L 3022 2063 
z
" transform="scale(0.015625)"/>
       <path id="DejaVuSans-48" d="M 628 4666 
L 1259 4666 
L 1259 2753 
L 3553 2753 
L 3553 4666 
L 4184 4666 
L 4184 0 
L 3553 0 
L 3553 2222 
L 1259 2222 
L 1259 0 
L 628 0 
L 628 4666 
z
" transform="scale(0.015625)"/>
       <path id="DejaVuSans-75" d="M 544 1381 
L 544 3500 
L 1119 3500 
L 1119 1403 
Q 1119 906 1312 657 
Q 1506 409 1894 409 
Q 2359 409 2629 706 
Q 2900 1003 2900 1516 
L 2900 3500 
L 3475 3500 
L 3475 0 
L 2900 0 
L 2900 538 
Q 2691 219 2414 64 
Q 2138 -91 1772 -91 
Q 1169 -91 856 284 
Q 544 659 544 1381 
z
M 1991 3584 
L 1991 3584 
z
" transform="scale(0.015625)"/>
       <path id="DejaVuSans-73" d="M 2834 3397 
L 2834 2853 
Q 2591 2978 2328 3040 
Q 2066 3103 1784 3103 
Q 1356 3103 1142 2972 
Q 928 2841 928 2578 
Q 928 2378 1081 2264 
Q 1234 2150 1697 2047 
L 1894 2003 
Q 2506 1872 2764 1633 
Q 3022 1394 3022 966 
Q 3022 478 2636 193 
Q 2250 -91 1575 -91 
Q 1294 -91 989 -36 
Q 684 19 347 128 
L 347 722 
Q 666 556 975 473 
Q 1284 391 1588 391 
Q 1994 391 2212 530 
Q 2431 669 2431 922 
Q 2431 1156 2273 1281 
Q 2116 1406 1581 1522 
L 1381 1569 
Q 847 1681 609 1914 
Q 372 2147 372 2553 
Q 372 3047 722 3315 
Q 1072 3584 1716 3584 
Q 2034 3584 2315 3537 
Q 2597 3491 2834 3397 
z
" transform="scale(0.015625)"/>
      </defs>
      <use xlink:href="#DejaVuSans-54"/>
      <use xlink:href="#DejaVuSans-69" x="57.958984"/>
      <use xlink:href="#DejaVuSans-6d" x="85.742188"/>
      <use xlink:href="#DejaVuSans-65" x="183.154297"/>
      <use xlink:href="#DejaVuSans-20" x="244.677734"/>
      <use xlink:href="#DejaVuSans-5b" x="276.464844"/>
      <use xlink:href="#DejaVuSans-48" x="315.478516"/>
      <use xlink:href="#DejaVuSans-6f" x="390.673828"/>
      <use xlink:href="#DejaVuSans-75" x="451.855469"/>
      <use xlink:href="#DejaVuSans-72" x="515.234375"/>
      <use xlink:href="#DejaVuSans-73" x="556.347656"/>
      <use xlink:href="#DejaVuSans-5d" x="608.447266"/>
     </g>
    </g>
   </g>
   <g id="matplotlib.axis_9">
    <g id="ytick_16">
     <g id="line2d_50">
      <g>
       <use xlink:href="#m1198679e64" x="162.885" y="284.945254" style="stroke: #000000; stroke-width: 0.8"/>
      </g>
     </g>
     <g id="text_36">
      <!-- −25 -->
      <g transform="translate(127.393672 290.074199) scale(0.135 -0.135)">
       <use xlink:href="#DejaVuSans-2212"/>
       <use xlink:href="#DejaVuSans-32" x="83.789062"/>
       <use xlink:href="#DejaVuSans-35" x="147.412109"/>
      </g>
     </g>
    </g>
    <g id="ytick_17">
     <g id="line2d_51">
      <g>
       <use xlink:href="#m1198679e64" x="162.885" y="271.77336" style="stroke: #000000; stroke-width: 0.8"/>
      </g>
     </g>
     <g id="text_37">
      <!-- 0 -->
      <g transform="translate(147.295625 276.902305) scale(0.135 -0.135)">
       <use xlink:href="#DejaVuSans-30"/>
      </g>
     </g>
    </g>
    <g id="text_38">
     <!-- Balance [kW] -->
     <g transform="translate(32.476641 279.368944) scale(0.135 -0.135)">
      <defs>
       <path id="DejaVuSans-42" d="M 1259 2228 
L 1259 519 
L 2272 519 
Q 2781 519 3026 730 
Q 3272 941 3272 1375 
Q 3272 1813 3026 2020 
Q 2781 2228 2272 2228 
L 1259 2228 
z
M 1259 4147 
L 1259 2741 
L 2194 2741 
Q 2656 2741 2882 2914 
Q 3109 3088 3109 3444 
Q 3109 3797 2882 3972 
Q 2656 4147 2194 4147 
L 1259 4147 
z
M 628 4666 
L 2241 4666 
Q 2963 4666 3353 4366 
Q 3744 4066 3744 3513 
Q 3744 3084 3544 2831 
Q 3344 2578 2956 2516 
Q 3422 2416 3680 2098 
Q 3938 1781 3938 1306 
Q 3938 681 3513 340 
Q 3088 0 2303 0 
L 628 0 
L 628 4666 
z
" transform="scale(0.015625)"/>
       <path id="DejaVuSans-61" d="M 2194 1759 
Q 1497 1759 1228 1600 
Q 959 1441 959 1056 
Q 959 750 1161 570 
Q 1363 391 1709 391 
Q 2188 391 2477 730 
Q 2766 1069 2766 1631 
L 2766 1759 
L 2194 1759 
z
M 3341 1997 
L 3341 0 
L 2766 0 
L 2766 531 
Q 2569 213 2275 61 
Q 1981 -91 1556 -91 
Q 1019 -91 701 211 
Q 384 513 384 1019 
Q 384 1609 779 1909 
Q 1175 2209 1959 2209 
L 2766 2209 
L 2766 2266 
Q 2766 2663 2505 2880 
Q 2244 3097 1772 3097 
Q 1472 3097 1187 3025 
Q 903 2953 641 2809 
L 641 3341 
Q 956 3463 1253 3523 
Q 1550 3584 1831 3584 
Q 2591 3584 2966 3190 
Q 3341 2797 3341 1997 
z
" transform="scale(0.015625)"/>
       <path id="DejaVuSans-6c" d="M 603 4863 
L 1178 4863 
L 1178 0 
L 603 0 
L 603 4863 
z
" transform="scale(0.015625)"/>
       <path id="DejaVuSans-6e" d="M 3513 2113 
L 3513 0 
L 2938 0 
L 2938 2094 
Q 2938 2591 2744 2837 
Q 2550 3084 2163 3084 
Q 1697 3084 1428 2787 
Q 1159 2491 1159 1978 
L 1159 0 
L 581 0 
L 581 3500 
L 1159 3500 
L 1159 2956 
Q 1366 3272 1645 3428 
Q 1925 3584 2291 3584 
Q 2894 3584 3203 3211 
Q 3513 2838 3513 2113 
z
" transform="scale(0.015625)"/>
      </defs>
      <use xlink:href="#DejaVuSans-42"/>
      <use xlink:href="#DejaVuSans-61" x="68.603516"/>
      <use xlink:href="#DejaVuSans-6c" x="129.882812"/>
      <use xlink:href="#DejaVuSans-61" x="157.666016"/>
      <use xlink:href="#DejaVuSans-6e" x="218.945312"/>
      <use xlink:href="#DejaVuSans-63" x="282.324219"/>
      <use xlink:href="#DejaVuSans-65" x="337.304688"/>
      <use xlink:href="#DejaVuSans-20" x="398.828125"/>
      <use xlink:href="#DejaVuSans-5b" x="430.615234"/>
      <use xlink:href="#DejaVuSans-6b" x="469.628906"/>
      <use xlink:href="#DejaVuSans-57" x="527.539062"/>
      <use xlink:href="#DejaVuSans-5d" x="626.416016"/>
     </g>
    </g>
   </g>
   <g id="line2d_52">
    <path d="M 175.763864 271.77336 
L 191.270188 271.77336 
L 192.13165 277.215986 
L 192.993113 281.167555 
L 195.5775 289.060154 
L 197.300425 291.404751 
L 199.02335 292.579684 
L 200.746275 273.759681 
L 201.607737 271.77336 
L 292.061294 271.77336 
L 292.922757 272.742811 
L 294.645682 273.701725 
L 295.507144 274.660639 
L 297.230069 275.619553 
L 298.091532 276.578467 
L 298.952994 275.782884 
L 301.537381 274.987302 
L 302.398844 274.186451 
L 303.260306 271.77336 
L 391.990939 271.77336 
L 392.852401 273.211731 
L 394.575326 277.79555 
L 395.436789 271.77336 
L 433.341136 271.77336 
L 433.341136 271.77336 
" clip-path="url(#pffc17c998e)" style="fill: none; stroke: #1f77b4; stroke-width: 1.5; stroke-linecap: square"/>
   </g>
   <g id="patch_38">
    <path d="M 162.885 293.62 
L 162.885 270.733043 
" style="fill: none; stroke: #000000; stroke-width: 0.8; stroke-linejoin: miter; stroke-linecap: square"/>
   </g>
   <g id="patch_39">
    <path d="M 446.22 293.62 
L 446.22 270.733043 
" style="fill: none; stroke: #000000; stroke-width: 0.8; stroke-linejoin: miter; stroke-linecap: square"/>
   </g>
   <g id="patch_40">
    <path d="M 162.885 293.62 
L 446.22 293.62 
" style="fill: none; stroke: #000000; stroke-width: 0.8; stroke-linejoin: miter; stroke-linecap: square"/>
   </g>
   <g id="patch_41">
    <path d="M 162.885 270.733043 
L 446.22 270.733043 
" style="fill: none; stroke: #000000; stroke-width: 0.8; stroke-linejoin: miter; stroke-linecap: square"/>
   </g>
  </g>
 </g>
 <defs>
  <clipPath id="p4706977f95">
   <rect x="162.885" y="30.42" width="283.335" height="22.886957"/>
  </clipPath>
  <clipPath id="pbdc5caea5a">
   <rect x="162.885" y="64.750435" width="283.335" height="22.886957"/>
  </clipPath>
  <clipPath id="pfc69fd91d9">
   <rect x="162.885" y="99.08087" width="283.335" height="22.886957"/>
  </clipPath>
  <clipPath id="p13bb05a7ce">
   <rect x="162.885" y="133.411304" width="283.335" height="22.886957"/>
  </clipPath>
  <clipPath id="pb748c7eef6">
   <rect x="162.885" y="167.741739" width="283.335" height="22.886957"/>
  </clipPath>
  <clipPath id="pa1335b1c14">
   <rect x="162.885" y="202.072174" width="283.335" height="22.886957"/>
  </clipPath>
  <clipPath id="p21ee481ded">
   <rect x="162.885" y="236.402609" width="283.335" height="22.886957"/>
  </clipPath>
  <clipPath id="pffc17c998e">
   <rect x="162.885" y="270.733043" width="283.335" height="22.886957"/>
  </clipPath>
 </defs>
</svg>
