<?xml version="1.0" encoding="utf-8" standalone="no"?>
<!DOCTYPE svg PUBLIC "-//W3C//DTD SVG 1.1//EN"
  "http://www.w3.org/Graphics/SVG/1.1/DTD/svg11.dtd">
<svg xmlns:xlink="http://www.w3.org/1999/xlink" width="460.8pt" height="345.6pt" viewBox="0 0 460.8 345.6" xmlns="http://www.w3.org/2000/svg" version="1.1">
 <metadata>
  <rdf:RDF xmlns:dc="http://purl.org/dc/elements/1.1/" xmlns:cc="http://creativecommons.org/ns#" xmlns:rdf="http://www.w3.org/1999/02/22-rdf-syntax-ns#">
   <cc:Work>
    <dc:type rdf:resource="http://purl.org/dc/dcmitype/StillImage"/>
    <dc:date>2025-02-06T21:41:51.985595</dc:date>
    <dc:format>image/svg+xml</dc:format>
    <dc:creator>
     <cc:Agent>
      <dc:title>Matplotlib v3.8.0, https://matplotlib.org/</dc:title>
     </cc:Agent>
    </dc:creator>
   </cc:Work>
  </rdf:RDF>
 </metadata>
 <defs>
  <style type="text/css">*{stroke-linejoin: round; stroke-linecap: butt}</style>
 </defs>
 <g id="figure_1">
  <g id="patch_1">
   <path d="M 0 345.6 
L 460.8 345.6 
L 460.8 0 
L 0 0 
z
" style="fill: #ffffff"/>
  </g>
  <g id="axes_1">
   <g id="patch_2">
    <path d="M 162.885 53.306957 
L 446.22 53.306957 
L 446.22 30.42 
L 162.885 30.42 
z
" style="fill: #ffffff"/>
   </g>
   <g id="PolyCollection_1">
    <path d="M 192.13165 42.446358 
L 192.13165 41.912477 
L 192.993113 41.779608 
L 193.854575 41.690929 
L 194.716038 41.602249 
L 195.5775 41.51357 
L 196.438962 41.247531 
L 197.300425 40.981493 
L 198.161887 41.174483 
L 199.02335 41.367775 
L 199.884812 41.754057 
L 200.746275 42.140339 
L 201.607737 42.268999 
L 202.4692 42.39796 
L 202.4692 42.446358 
L 202.4692 42.446358 
L 201.607737 42.446358 
L 200.746275 42.446358 
L 199.884812 42.446358 
L 199.02335 42.446358 
L 198.161887 42.446358 
L 197.300425 42.446358 
L 196.438962 42.446358 
L 195.5775 42.446358 
L 194.716038 42.446358 
L 193.854575 42.446358 
L 192.993113 42.446358 
L 192.13165 42.446358 
z
" clip-path="url(#p8fbf20723d)" style="fill: #008000; fill-opacity: 0.3"/>
    <path d="M 243.819397 42.446358 
L 243.819397 42.051659 
L 244.68086 41.74083 
L 245.542322 41.430301 
L 246.403785 40.808943 
L 247.265247 40.498114 
L 248.126709 40.187585 
L 248.988172 39.566227 
L 249.849634 38.944869 
L 250.711097 38.323511 
L 251.572559 37.702153 
L 252.434022 37.136709 
L 253.295484 36.571264 
L 254.156947 35.440374 
L 255.018409 34.744465 
L 255.879872 34.048556 
L 256.741334 33.700452 
L 257.602796 33.352647 
L 258.464259 32.406331 
L 259.325721 31.460316 
L 260.187184 31.506911 
L 261.048646 31.553805 
L 261.910109 31.6004 
L 262.771571 31.740483 
L 263.633034 31.787078 
L 264.494496 31.833973 
L 265.355958 31.880567 
L 266.217421 32.382583 
L 267.078883 32.884299 
L 267.940346 33.386316 
L 268.801808 33.553755 
L 269.663271 33.720893 
L 270.524733 33.888332 
L 271.386196 34.628731 
L 272.247658 35.369431 
L 273.109121 36.10983 
L 273.970583 36.384285 
L 274.832045 36.659041 
L 275.693508 37.208253 
L 276.55497 37.482709 
L 277.416433 37.757465 
L 278.277895 38.306677 
L 279.139358 38.662297 
L 280.00082 39.017917 
L 280.862283 39.195877 
L 281.723745 39.373838 
L 282.585208 39.729458 
L 283.44667 40.043894 
L 284.308132 40.358632 
L 285.169595 40.463544 
L 286.031057 40.568456 
L 286.89252 40.673068 
L 287.753982 40.987805 
L 288.615445 41.302242 
L 289.476907 41.616979 
L 290.33837 41.931416 
L 291.199832 42.246153 
L 292.061294 42.291545 
L 292.922757 42.336937 
L 293.784219 42.382329 
L 294.645682 42.428021 
L 294.645682 42.446358 
L 294.645682 42.446358 
L 293.784219 42.446358 
L 292.922757 42.446358 
L 292.061294 42.446358 
L 291.199832 42.446358 
L 290.33837 42.446358 
L 289.476907 42.446358 
L 288.615445 42.446358 
L 287.753982 42.446358 
L 286.89252 42.446358 
L 286.031057 42.446358 
L 285.169595 42.446358 
L 284.308132 42.446358 
L 283.44667 42.446358 
L 282.585208 42.446358 
L 281.723745 42.446358 
L 280.862283 42.446358 
L 280.00082 42.446358 
L 279.139358 42.446358 
L 278.277895 42.446358 
L 277.416433 42.446358 
L 276.55497 42.446358 
L 275.693508 42.446358 
L 274.832045 42.446358 
L 273.970583 42.446358 
L 273.109121 42.446358 
L 272.247658 42.446358 
L 271.386196 42.446358 
L 270.524733 42.446358 
L 269.663271 42.446358 
L 268.801808 42.446358 
L 267.940346 42.446358 
L 267.078883 42.446358 
L 266.217421 42.446358 
L 265.355958 42.446358 
L 264.494496 42.446358 
L 263.633034 42.446358 
L 262.771571 42.446358 
L 261.910109 42.446358 
L 261.048646 42.446358 
L 260.187184 42.446358 
L 259.325721 42.446358 
L 258.464259 42.446358 
L 257.602796 42.446358 
L 256.741334 42.446358 
L 255.879872 42.446358 
L 255.018409 42.446358 
L 254.156947 42.446358 
L 253.295484 42.446358 
L 252.434022 42.446358 
L 251.572559 42.446358 
L 250.711097 42.446358 
L 249.849634 42.446358 
L 248.988172 42.446358 
L 248.126709 42.446358 
L 247.265247 42.446358 
L 246.403785 42.446358 
L 245.542322 42.446358 
L 244.68086 42.446358 
L 243.819397 42.446358 
z
" clip-path="url(#p8fbf20723d)" style="fill: #008000; fill-opacity: 0.3"/>
    <path d="M 379.930464 42.446358 
L 379.930464 42.360986 
L 380.791927 42.357979 
L 381.653389 42.345354 
L 382.514852 42.339342 
L 383.376314 42.333029 
L 384.237777 42.320704 
L 385.099239 42.068193 
L 385.960702 41.984022 
L 386.822164 41.900153 
L 387.683626 41.815982 
L 388.545089 41.689726 
L 389.406551 41.563471 
L 390.268014 41.939833 
L 391.129476 42.316495 
L 391.129476 42.446358 
L 391.129476 42.446358 
L 390.268014 42.446358 
L 389.406551 42.446358 
L 388.545089 42.446358 
L 387.683626 42.446358 
L 386.822164 42.446358 
L 385.960702 42.446358 
L 385.099239 42.446358 
L 384.237777 42.446358 
L 383.376314 42.446358 
L 382.514852 42.446358 
L 381.653389 42.446358 
L 380.791927 42.446358 
L 379.930464 42.446358 
z
" clip-path="url(#p8fbf20723d)" style="fill: #008000; fill-opacity: 0.3"/>
    <path d="M 427.310899 42.446358 
L 427.310899 42.281925 
L 428.172362 42.068193 
L 429.033824 42.068193 
L 429.895287 42.068193 
L 430.756749 42.068193 
L 431.618211 42.068193 
L 432.479674 42.068193 
L 433.341136 42.068193 
L 433.341136 42.446358 
L 433.341136 42.446358 
L 432.479674 42.446358 
L 431.618211 42.446358 
L 430.756749 42.446358 
L 429.895287 42.446358 
L 429.033824 42.446358 
L 428.172362 42.446358 
L 427.310899 42.446358 
z
" clip-path="url(#p8fbf20723d)" style="fill: #008000; fill-opacity: 0.3"/>
   </g>
   <g id="PolyCollection_2">
    <path d="M 203.330662 42.446358 
L 203.330662 42.526621 
L 204.192125 43.101084 
L 205.053587 43.675547 
L 205.915049 44.249709 
L 206.776512 44.537091 
L 207.637974 44.824172 
L 208.499437 45.398635 
L 209.360899 46.149856 
L 210.222362 46.901077 
L 211.083824 47.652599 
L 211.945287 48.40382 
L 212.806749 48.654227 
L 213.668211 48.904634 
L 214.529674 49.155041 
L 215.391136 49.599641 
L 216.252599 50.04394 
L 217.114061 50.48854 
L 217.975524 50.933141 
L 218.836986 51.377741 
L 219.698449 51.59989 
L 220.559911 51.82204 
L 221.421374 52.26664 
L 222.282836 52.218242 
L 223.144298 52.169544 
L 224.005761 52.153311 
L 224.867223 52.137379 
L 225.728686 52.121146 
L 226.590148 52.072447 
L 227.451611 52.024049 
L 228.313073 51.834365 
L 229.174536 51.644381 
L 230.035998 51.265012 
L 230.89746 50.885344 
L 231.758923 50.505675 
L 232.620385 49.49563 
L 233.481848 49.158949 
L 234.34331 48.822267 
L 235.204773 48.485585 
L 236.066235 47.884067 
L 236.927698 47.28285 
L 237.78916 46.681332 
L 238.650623 46.079815 
L 239.512085 45.676999 
L 240.373547 45.274184 
L 241.23501 44.468552 
L 242.096472 43.662921 
L 242.957935 42.85729 
L 242.957935 42.446358 
L 242.957935 42.446358 
L 242.096472 42.446358 
L 241.23501 42.446358 
L 240.373547 42.446358 
L 239.512085 42.446358 
L 238.650623 42.446358 
L 237.78916 42.446358 
L 236.927698 42.446358 
L 236.066235 42.446358 
L 235.204773 42.446358 
L 234.34331 42.446358 
L 233.481848 42.446358 
L 232.620385 42.446358 
L 231.758923 42.446358 
L 230.89746 42.446358 
L 230.035998 42.446358 
L 229.174536 42.446358 
L 228.313073 42.446358 
L 227.451611 42.446358 
L 226.590148 42.446358 
L 225.728686 42.446358 
L 224.867223 42.446358 
L 224.005761 42.446358 
L 223.144298 42.446358 
L 222.282836 42.446358 
L 221.421374 42.446358 
L 220.559911 42.446358 
L 219.698449 42.446358 
L 218.836986 42.446358 
L 217.975524 42.446358 
L 217.114061 42.446358 
L 216.252599 42.446358 
L 215.391136 42.446358 
L 214.529674 42.446358 
L 213.668211 42.446358 
L 212.806749 42.446358 
L 211.945287 42.446358 
L 211.083824 42.446358 
L 210.222362 42.446358 
L 209.360899 42.446358 
L 208.499437 42.446358 
L 207.637974 42.446358 
L 206.776512 42.446358 
L 205.915049 42.446358 
L 205.053587 42.446358 
L 204.192125 42.446358 
L 203.330662 42.446358 
z
" clip-path="url(#p8fbf20723d)" style="fill: #ff0000; fill-opacity: 0.3"/>
    <path d="M 295.507144 42.446358 
L 295.507144 42.518805 
L 296.368607 42.564197 
L 297.230069 42.609589 
L 298.091532 42.700673 
L 298.952994 42.791457 
L 299.814457 42.787249 
L 300.675919 42.783341 
L 301.537381 42.779132 
L 302.398844 42.766807 
L 302.398844 42.446358 
L 302.398844 42.446358 
L 301.537381 42.446358 
L 300.675919 42.446358 
L 299.814457 42.446358 
L 298.952994 42.446358 
L 298.091532 42.446358 
L 297.230069 42.446358 
L 296.368607 42.446358 
L 295.507144 42.446358 
z
" clip-path="url(#p8fbf20723d)" style="fill: #ff0000; fill-opacity: 0.3"/>
    <path d="M 391.990939 42.446358 
L 391.990939 43.06952 
L 392.852401 43.407404 
L 393.713864 43.576346 
L 394.575326 43.745288 
L 395.436789 44.083473 
L 396.298251 44.421357 
L 397.159713 44.759241 
L 398.021176 45.097125 
L 398.882638 45.231196 
L 399.744101 45.364967 
L 400.605563 45.63281 
L 401.467026 45.900652 
L 402.328488 46.168795 
L 403.189951 46.436637 
L 404.051413 46.704479 
L 404.912875 46.972322 
L 405.774338 47.082946 
L 406.6358 47.193269 
L 407.497263 47.303893 
L 408.358725 47.469829 
L 409.220188 47.635464 
L 410.08165 47.967336 
L 410.943113 48.298907 
L 411.804575 48.630479 
L 412.666038 48.401415 
L 413.5275 48.172351 
L 414.388962 47.713923 
L 415.250425 47.255795 
L 416.111887 46.797367 
L 416.97335 46.538243 
L 417.834812 46.279419 
L 418.696275 45.761169 
L 419.557737 45.502345 
L 420.4192 45.243221 
L 421.280662 44.724972 
L 422.142125 44.207023 
L 423.003587 43.99329 
L 423.865049 43.779257 
L 424.726512 43.351491 
L 425.587974 42.923725 
L 426.449437 42.495959 
L 426.449437 42.446358 
L 426.449437 42.446358 
L 425.587974 42.446358 
L 424.726512 42.446358 
L 423.865049 42.446358 
L 423.003587 42.446358 
L 422.142125 42.446358 
L 421.280662 42.446358 
L 420.4192 42.446358 
L 419.557737 42.446358 
L 418.696275 42.446358 
L 417.834812 42.446358 
L 416.97335 42.446358 
L 416.111887 42.446358 
L 415.250425 42.446358 
L 414.388962 42.446358 
L 413.5275 42.446358 
L 412.666038 42.446358 
L 411.804575 42.446358 
L 410.943113 42.446358 
L 410.08165 42.446358 
L 409.220188 42.446358 
L 408.358725 42.446358 
L 407.497263 42.446358 
L 406.6358 42.446358 
L 405.774338 42.446358 
L 404.912875 42.446358 
L 404.051413 42.446358 
L 403.189951 42.446358 
L 402.328488 42.446358 
L 401.467026 42.446358 
L 400.605563 42.446358 
L 399.744101 42.446358 
L 398.882638 42.446358 
L 398.021176 42.446358 
L 397.159713 42.446358 
L 396.298251 42.446358 
L 395.436789 42.446358 
L 394.575326 42.446358 
L 393.713864 42.446358 
L 392.852401 42.446358 
L 391.990939 42.446358 
z
" clip-path="url(#p8fbf20723d)" style="fill: #ff0000; fill-opacity: 0.3"/>
   </g>
   <g id="matplotlib.axis_1">
    <g id="ytick_1">
     <g id="line2d_1">
      <path d="M 162.885 49.961574 
L 446.22 49.961574 
" clip-path="url(#p8fbf20723d)" style="fill: none; stroke: #b0b0b0; stroke-width: 0.8; stroke-linecap: square"/>
     </g>
     <g id="line2d_2">
      <defs>
       <path id="m1ff34fcdb7" d="M 0 0 
L -3.5 0 
" style="stroke: #000000; stroke-width: 0.8"/>
      </defs>
      <g>
       <use xlink:href="#m1ff34fcdb7" x="162.885" y="49.961574" style="stroke: #000000; stroke-width: 0.8"/>
      </g>
     </g>
     <g id="text_1">
      <!-- −250 -->
      <g transform="translate(118.804297 55.090519) scale(0.135 -0.135)">
       <defs>
        <path id="DejaVuSans-2212" d="M 678 2272 
L 4684 2272 
L 4684 1741 
L 678 1741 
L 678 2272 
z
" transform="scale(0.015625)"/>
        <path id="DejaVuSans-32" d="M 1228 531 
L 3431 531 
L 3431 0 
L 469 0 
L 469 531 
Q 828 903 1448 1529 
Q 2069 2156 2228 2338 
Q 2531 2678 2651 2914 
Q 2772 3150 2772 3378 
Q 2772 3750 2511 3984 
Q 2250 4219 1831 4219 
Q 1534 4219 1204 4116 
Q 875 4013 500 3803 
L 500 4441 
Q 881 4594 1212 4672 
Q 1544 4750 1819 4750 
Q 2544 4750 2975 4387 
Q 3406 4025 3406 3419 
Q 3406 3131 3298 2873 
Q 3191 2616 2906 2266 
Q 2828 2175 2409 1742 
Q 1991 1309 1228 531 
z
" transform="scale(0.015625)"/>
        <path id="DejaVuSans-35" d="M 691 4666 
L 3169 4666 
L 3169 4134 
L 1269 4134 
L 1269 2991 
Q 1406 3038 1543 3061 
Q 1681 3084 1819 3084 
Q 2600 3084 3056 2656 
Q 3513 2228 3513 1497 
Q 3513 744 3044 326 
Q 2575 -91 1722 -91 
Q 1428 -91 1123 -41 
Q 819 9 494 109 
L 494 744 
Q 775 591 1075 516 
Q 1375 441 1709 441 
Q 2250 441 2565 725 
Q 2881 1009 2881 1497 
Q 2881 1984 2565 2268 
Q 2250 2553 1709 2553 
Q 1456 2553 1204 2497 
Q 953 2441 691 2322 
L 691 4666 
z
" transform="scale(0.015625)"/>
        <path id="DejaVuSans-30" d="M 2034 4250 
Q 1547 4250 1301 3770 
Q 1056 3291 1056 2328 
Q 1056 1369 1301 889 
Q 1547 409 2034 409 
Q 2525 409 2770 889 
Q 3016 1369 3016 2328 
Q 3016 3291 2770 3770 
Q 2525 4250 2034 4250 
z
M 2034 4750 
Q 2819 4750 3233 4129 
Q 3647 3509 3647 2328 
Q 3647 1150 3233 529 
Q 2819 -91 2034 -91 
Q 1250 -91 836 529 
Q 422 1150 422 2328 
Q 422 3509 836 4129 
Q 1250 4750 2034 4750 
z
" transform="scale(0.015625)"/>
       </defs>
       <use xlink:href="#DejaVuSans-2212"/>
       <use xlink:href="#DejaVuSans-32" x="83.789062"/>
       <use xlink:href="#DejaVuSans-35" x="147.412109"/>
       <use xlink:href="#DejaVuSans-30" x="211.035156"/>
      </g>
     </g>
    </g>
    <g id="ytick_2">
     <g id="line2d_3">
      <path d="M 162.885 42.446358 
L 446.22 42.446358 
" clip-path="url(#p8fbf20723d)" style="fill: none; stroke: #b0b0b0; stroke-width: 0.8; stroke-linecap: square"/>
     </g>
     <g id="line2d_4">
      <g>
       <use xlink:href="#m1ff34fcdb7" x="162.885" y="42.446358" style="stroke: #000000; stroke-width: 0.8"/>
      </g>
     </g>
     <g id="text_2">
      <!-- 0 -->
      <g transform="translate(147.295625 47.575304) scale(0.135 -0.135)">
       <use xlink:href="#DejaVuSans-30"/>
      </g>
     </g>
    </g>
    <g id="ytick_3">
     <g id="line2d_5">
      <path d="M 162.885 34.931143 
L 446.22 34.931143 
" clip-path="url(#p8fbf20723d)" style="fill: none; stroke: #b0b0b0; stroke-width: 0.8; stroke-linecap: square"/>
     </g>
     <g id="line2d_6">
      <g>
       <use xlink:href="#m1ff34fcdb7" x="162.885" y="34.931143" style="stroke: #000000; stroke-width: 0.8"/>
      </g>
     </g>
     <g id="text_3">
      <!-- 250 -->
      <g transform="translate(130.116875 40.060088) scale(0.135 -0.135)">
       <use xlink:href="#DejaVuSans-32"/>
       <use xlink:href="#DejaVuSans-35" x="63.623047"/>
       <use xlink:href="#DejaVuSans-30" x="127.246094"/>
      </g>
     </g>
    </g>
    <g id="text_4">
     <!-- ΔP[kW] -->
     <g transform="translate(44.266992 39.0559) scale(0.135 -0.135)">
      <defs>
       <path id="DejaVuSans-394" d="M 2188 4044 
L 906 525 
L 3472 525 
L 2188 4044 
z
M 50 0 
L 1831 4666 
L 2547 4666 
L 4325 0 
L 50 0 
z
" transform="scale(0.015625)"/>
       <path id="DejaVuSans-50" d="M 1259 4147 
L 1259 2394 
L 2053 2394 
Q 2494 2394 2734 2622 
Q 2975 2850 2975 3272 
Q 2975 3691 2734 3919 
Q 2494 4147 2053 4147 
L 1259 4147 
z
M 628 4666 
L 2053 4666 
Q 2838 4666 3239 4311 
Q 3641 3956 3641 3272 
Q 3641 2581 3239 2228 
Q 2838 1875 2053 1875 
L 1259 1875 
L 1259 0 
L 628 0 
L 628 4666 
z
" transform="scale(0.015625)"/>
       <path id="DejaVuSans-5b" d="M 550 4863 
L 1875 4863 
L 1875 4416 
L 1125 4416 
L 1125 -397 
L 1875 -397 
L 1875 -844 
L 550 -844 
L 550 4863 
z
" transform="scale(0.015625)"/>
       <path id="DejaVuSans-6b" d="M 581 4863 
L 1159 4863 
L 1159 1991 
L 2875 3500 
L 3609 3500 
L 1753 1863 
L 3688 0 
L 2938 0 
L 1159 1709 
L 1159 0 
L 581 0 
L 581 4863 
z
" transform="scale(0.015625)"/>
       <path id="DejaVuSans-57" d="M 213 4666 
L 850 4666 
L 1831 722 
L 2809 4666 
L 3519 4666 
L 4500 722 
L 5478 4666 
L 6119 4666 
L 4947 0 
L 4153 0 
L 3169 4050 
L 2175 0 
L 1381 0 
L 213 4666 
z
" transform="scale(0.015625)"/>
       <path id="DejaVuSans-5d" d="M 1947 4863 
L 1947 -844 
L 622 -844 
L 622 -397 
L 1369 -397 
L 1369 4416 
L 622 4416 
L 622 4863 
L 1947 4863 
z
" transform="scale(0.015625)"/>
      </defs>
      <use xlink:href="#DejaVuSans-394"/>
      <use xlink:href="#DejaVuSans-50" x="68.408203"/>
      <use xlink:href="#DejaVuSans-5b" x="128.710938"/>
      <use xlink:href="#DejaVuSans-6b" x="167.724609"/>
      <use xlink:href="#DejaVuSans-57" x="225.634766"/>
      <use xlink:href="#DejaVuSans-5d" x="324.511719"/>
     </g>
    </g>
   </g>
   <g id="line2d_7">
    <path d="M 175.763864 42.446358 
L 191.270188 42.446358 
L 192.13165 41.912477 
L 194.716038 41.602249 
L 195.5775 41.51357 
L 197.300425 40.981493 
L 199.02335 41.367775 
L 200.746275 42.140339 
L 203.330662 42.526621 
L 205.915049 44.249709 
L 207.637974 44.824172 
L 208.499437 45.398635 
L 211.945287 48.40382 
L 214.529674 49.155041 
L 218.836986 51.377741 
L 220.559911 51.82204 
L 221.421374 52.26664 
L 228.313073 51.834365 
L 229.174536 51.644381 
L 231.758923 50.505675 
L 232.620385 49.49563 
L 235.204773 48.485585 
L 238.650623 46.079815 
L 240.373547 45.274184 
L 243.819397 42.051659 
L 245.542322 41.430301 
L 246.403785 40.808943 
L 248.126709 40.187585 
L 253.295484 36.571264 
L 254.156947 35.440374 
L 255.879872 34.048556 
L 257.602796 33.352647 
L 259.325721 31.460316 
L 265.355958 31.880567 
L 267.940346 33.386316 
L 270.524733 33.888332 
L 273.109121 36.10983 
L 274.832045 36.659041 
L 275.693508 37.208253 
L 277.416433 37.757465 
L 278.277895 38.306677 
L 280.00082 39.017917 
L 281.723745 39.373838 
L 284.308132 40.358632 
L 286.89252 40.673068 
L 291.199832 42.246153 
L 298.091532 42.700673 
L 299.814457 42.787249 
L 302.398844 42.766807 
L 303.260306 42.446358 
L 382.514852 42.339342 
L 384.237777 42.320704 
L 385.099239 42.068193 
L 389.406551 41.563471 
L 391.129476 42.316495 
L 391.990939 43.06952 
L 392.852401 43.407404 
L 394.575326 43.745288 
L 398.021176 45.097125 
L 399.744101 45.364967 
L 404.912875 46.972322 
L 409.220188 47.635464 
L 411.804575 48.630479 
L 413.5275 48.172351 
L 416.111887 46.797367 
L 417.834812 46.279419 
L 418.696275 45.761169 
L 420.4192 45.243221 
L 422.142125 44.207023 
L 423.865049 43.779257 
L 426.449437 42.495959 
L 428.172362 42.068193 
L 433.341136 42.068193 
L 433.341136 42.068193 
" clip-path="url(#p8fbf20723d)" style="fill: none; stroke: #1f77b4; stroke-width: 1.5; stroke-linecap: square"/>
   </g>
   <g id="line2d_8">
    <path d="M 162.885 42.446358 
L 446.22 42.446358 
" clip-path="url(#p8fbf20723d)" style="fill: none; stroke: #000000; stroke-width: 1.5; stroke-linecap: square"/>
   </g>
   <g id="patch_3">
    <path d="M 162.885 53.306957 
L 162.885 30.42 
" style="fill: none; stroke: #000000; stroke-width: 0.8; stroke-linejoin: miter; stroke-linecap: square"/>
   </g>
   <g id="patch_4">
    <path d="M 446.22 53.306957 
L 446.22 30.42 
" style="fill: none; stroke: #000000; stroke-width: 0.8; stroke-linejoin: miter; stroke-linecap: square"/>
   </g>
   <g id="patch_5">
    <path d="M 162.885 53.306957 
L 446.22 53.306957 
" style="fill: none; stroke: #000000; stroke-width: 0.8; stroke-linejoin: miter; stroke-linecap: square"/>
   </g>
   <g id="patch_6">
    <path d="M 162.885 30.42 
L 446.22 30.42 
" style="fill: none; stroke: #000000; stroke-width: 0.8; stroke-linejoin: miter; stroke-linecap: square"/>
   </g>
   <g id="text_5">
    <!-- Microgrid 3 -->
    <g transform="translate(268.129141 24.42) scale(0.13 -0.13)">
     <defs>
      <path id="DejaVuSans-4d" d="M 628 4666 
L 1569 4666 
L 2759 1491 
L 3956 4666 
L 4897 4666 
L 4897 0 
L 4281 0 
L 4281 4097 
L 3078 897 
L 2444 897 
L 1241 4097 
L 1241 0 
L 628 0 
L 628 4666 
z
" transform="scale(0.015625)"/>
      <path id="DejaVuSans-69" d="M 603 3500 
L 1178 3500 
L 1178 0 
L 603 0 
L 603 3500 
z
M 603 4863 
L 1178 4863 
L 1178 4134 
L 603 4134 
L 603 4863 
z
" transform="scale(0.015625)"/>
      <path id="DejaVuSans-63" d="M 3122 3366 
L 3122 2828 
Q 2878 2963 2633 3030 
Q 2388 3097 2138 3097 
Q 1578 3097 1268 2742 
Q 959 2388 959 1747 
Q 959 1106 1268 751 
Q 1578 397 2138 397 
Q 2388 397 2633 464 
Q 2878 531 3122 666 
L 3122 134 
Q 2881 22 2623 -34 
Q 2366 -91 2075 -91 
Q 1284 -91 818 406 
Q 353 903 353 1747 
Q 353 2603 823 3093 
Q 1294 3584 2113 3584 
Q 2378 3584 2631 3529 
Q 2884 3475 3122 3366 
z
" transform="scale(0.015625)"/>
      <path id="DejaVuSans-72" d="M 2631 2963 
Q 2534 3019 2420 3045 
Q 2306 3072 2169 3072 
Q 1681 3072 1420 2755 
Q 1159 2438 1159 1844 
L 1159 0 
L 581 0 
L 581 3500 
L 1159 3500 
L 1159 2956 
Q 1341 3275 1631 3429 
Q 1922 3584 2338 3584 
Q 2397 3584 2469 3576 
Q 2541 3569 2628 3553 
L 2631 2963 
z
" transform="scale(0.015625)"/>
      <path id="DejaVuSans-6f" d="M 1959 3097 
Q 1497 3097 1228 2736 
Q 959 2375 959 1747 
Q 959 1119 1226 758 
Q 1494 397 1959 397 
Q 2419 397 2687 759 
Q 2956 1122 2956 1747 
Q 2956 2369 2687 2733 
Q 2419 3097 1959 3097 
z
M 1959 3584 
Q 2709 3584 3137 3096 
Q 3566 2609 3566 1747 
Q 3566 888 3137 398 
Q 2709 -91 1959 -91 
Q 1206 -91 779 398 
Q 353 888 353 1747 
Q 353 2609 779 3096 
Q 1206 3584 1959 3584 
z
" transform="scale(0.015625)"/>
      <path id="DejaVuSans-67" d="M 2906 1791 
Q 2906 2416 2648 2759 
Q 2391 3103 1925 3103 
Q 1463 3103 1205 2759 
Q 947 2416 947 1791 
Q 947 1169 1205 825 
Q 1463 481 1925 481 
Q 2391 481 2648 825 
Q 2906 1169 2906 1791 
z
M 3481 434 
Q 3481 -459 3084 -895 
Q 2688 -1331 1869 -1331 
Q 1566 -1331 1297 -1286 
Q 1028 -1241 775 -1147 
L 775 -588 
Q 1028 -725 1275 -790 
Q 1522 -856 1778 -856 
Q 2344 -856 2625 -561 
Q 2906 -266 2906 331 
L 2906 616 
Q 2728 306 2450 153 
Q 2172 0 1784 0 
Q 1141 0 747 490 
Q 353 981 353 1791 
Q 353 2603 747 3093 
Q 1141 3584 1784 3584 
Q 2172 3584 2450 3431 
Q 2728 3278 2906 2969 
L 2906 3500 
L 3481 3500 
L 3481 434 
z
" transform="scale(0.015625)"/>
      <path id="DejaVuSans-64" d="M 2906 2969 
L 2906 4863 
L 3481 4863 
L 3481 0 
L 2906 0 
L 2906 525 
Q 2725 213 2448 61 
Q 2172 -91 1784 -91 
Q 1150 -91 751 415 
Q 353 922 353 1747 
Q 353 2572 751 3078 
Q 1150 3584 1784 3584 
Q 2172 3584 2448 3432 
Q 2725 3281 2906 2969 
z
M 947 1747 
Q 947 1113 1208 752 
Q 1469 391 1925 391 
Q 2381 391 2643 752 
Q 2906 1113 2906 1747 
Q 2906 2381 2643 2742 
Q 2381 3103 1925 3103 
Q 1469 3103 1208 2742 
Q 947 2381 947 1747 
z
" transform="scale(0.015625)"/>
      <path id="DejaVuSans-20" transform="scale(0.015625)"/>
      <path id="DejaVuSans-33" d="M 2597 2516 
Q 3050 2419 3304 2112 
Q 3559 1806 3559 1356 
Q 3559 666 3084 287 
Q 2609 -91 1734 -91 
Q 1441 -91 1130 -33 
Q 819 25 488 141 
L 488 750 
Q 750 597 1062 519 
Q 1375 441 1716 441 
Q 2309 441 2620 675 
Q 2931 909 2931 1356 
Q 2931 1769 2642 2001 
Q 2353 2234 1838 2234 
L 1294 2234 
L 1294 2753 
L 1863 2753 
Q 2328 2753 2575 2939 
Q 2822 3125 2822 3475 
Q 2822 3834 2567 4026 
Q 2313 4219 1838 4219 
Q 1578 4219 1281 4162 
Q 984 4106 628 3988 
L 628 4550 
Q 988 4650 1302 4700 
Q 1616 4750 1894 4750 
Q 2613 4750 3031 4423 
Q 3450 4097 3450 3541 
Q 3450 3153 3228 2886 
Q 3006 2619 2597 2516 
z
" transform="scale(0.015625)"/>
     </defs>
     <use xlink:href="#DejaVuSans-4d"/>
     <use xlink:href="#DejaVuSans-69" x="86.279297"/>
     <use xlink:href="#DejaVuSans-63" x="114.0625"/>
     <use xlink:href="#DejaVuSans-72" x="169.042969"/>
     <use xlink:href="#DejaVuSans-6f" x="207.90625"/>
     <use xlink:href="#DejaVuSans-67" x="269.087891"/>
     <use xlink:href="#DejaVuSans-72" x="332.564453"/>
     <use xlink:href="#DejaVuSans-69" x="373.677734"/>
     <use xlink:href="#DejaVuSans-64" x="401.460938"/>
     <use xlink:href="#DejaVuSans-20" x="464.9375"/>
     <use xlink:href="#DejaVuSans-33" x="496.724609"/>
    </g>
   </g>
  </g>
  <g id="axes_2">
   <g id="patch_7">
    <path d="M 162.885 87.637391 
L 446.22 87.637391 
L 446.22 64.750435 
L 162.885 64.750435 
z
" style="fill: #ffffff"/>
   </g>
   <g id="PolyCollection_3">
    <path d="M 192.13165 81.785917 
L 192.13165 81.645808 
L 192.993113 81.615075 
L 193.854575 81.594429 
L 194.716038 81.57394 
L 195.5775 81.553452 
L 196.438962 81.491829 
L 197.300425 81.611608 
L 198.161887 81.671339 
L 199.02335 81.731229 
L 199.02335 81.785917 
L 199.02335 81.785917 
L 198.161887 81.785917 
L 197.300425 81.785917 
L 196.438962 81.785917 
L 195.5775 81.785917 
L 194.716038 81.785917 
L 193.854575 81.785917 
L 192.993113 81.785917 
L 192.13165 81.785917 
z
" clip-path="url(#p4be1073954)" style="fill: #008000; fill-opacity: 0.3"/>
    <path d="M 243.819397 81.785917 
L 243.819397 81.578984 
L 244.68086 81.416022 
L 245.542322 81.253218 
L 246.403785 80.927451 
L 247.265247 80.76449 
L 248.126709 80.601685 
L 248.988172 80.275919 
L 249.849634 79.950153 
L 250.711097 79.624387 
L 251.572559 79.298621 
L 252.434022 79.002169 
L 253.295484 78.705717 
L 254.156947 78.112813 
L 255.018409 77.747961 
L 255.879872 77.383109 
L 256.741334 77.200605 
L 257.602796 77.018257 
L 258.464259 76.522122 
L 259.325721 76.026144 
L 260.187184 76.050573 
L 261.048646 76.075159 
L 261.910109 76.099587 
L 262.771571 76.173031 
L 263.633034 76.197459 
L 264.494496 76.222045 
L 265.355958 76.246474 
L 266.217421 76.509671 
L 267.078883 76.772711 
L 267.940346 77.035909 
L 268.801808 77.123694 
L 269.663271 77.211322 
L 270.524733 77.299107 
L 271.386196 77.687284 
L 272.247658 78.075618 
L 273.109121 78.463796 
L 273.970583 78.607687 
L 274.832045 78.751737 
L 275.693508 79.039678 
L 276.55497 79.18357 
L 277.416433 79.32762 
L 278.277895 79.615561 
L 279.139358 79.802006 
L 280.00082 79.988451 
L 280.862283 80.081752 
L 281.723745 80.175053 
L 282.585208 80.361498 
L 283.44667 80.526351 
L 284.308132 80.691362 
L 285.169595 80.746365 
L 286.031057 80.801369 
L 286.89252 80.856215 
L 287.753982 81.021225 
L 288.615445 81.186079 
L 289.476907 81.351089 
L 290.33837 81.515942 
L 291.199832 81.680953 
L 292.061294 81.704751 
L 292.922757 81.728549 
L 293.784219 81.752348 
L 294.645682 81.776303 
L 294.645682 81.785917 
L 294.645682 81.785917 
L 293.784219 81.785917 
L 292.922757 81.785917 
L 292.061294 81.785917 
L 291.199832 81.785917 
L 290.33837 81.785917 
L 289.476907 81.785917 
L 288.615445 81.785917 
L 287.753982 81.785917 
L 286.89252 81.785917 
L 286.031057 81.785917 
L 285.169595 81.785917 
L 284.308132 81.785917 
L 283.44667 81.785917 
L 282.585208 81.785917 
L 281.723745 81.785917 
L 280.862283 81.785917 
L 280.00082 81.785917 
L 279.139358 81.785917 
L 278.277895 81.785917 
L 277.416433 81.785917 
L 276.55497 81.785917 
L 275.693508 81.785917 
L 274.832045 81.785917 
L 273.970583 81.785917 
L 273.109121 81.785917 
L 272.247658 81.785917 
L 271.386196 81.785917 
L 270.524733 81.785917 
L 269.663271 81.785917 
L 268.801808 81.785917 
L 267.940346 81.785917 
L 267.078883 81.785917 
L 266.217421 81.785917 
L 265.355958 81.785917 
L 264.494496 81.785917 
L 263.633034 81.785917 
L 262.771571 81.785917 
L 261.910109 81.785917 
L 261.048646 81.785917 
L 260.187184 81.785917 
L 259.325721 81.785917 
L 258.464259 81.785917 
L 257.602796 81.785917 
L 256.741334 81.785917 
L 255.879872 81.785917 
L 255.018409 81.785917 
L 254.156947 81.785917 
L 253.295484 81.785917 
L 252.434022 81.785917 
L 251.572559 81.785917 
L 250.711097 81.785917 
L 249.849634 81.785917 
L 248.988172 81.785917 
L 248.126709 81.785917 
L 247.265247 81.785917 
L 246.403785 81.785917 
L 245.542322 81.785917 
L 244.68086 81.785917 
L 243.819397 81.785917 
z
" clip-path="url(#p4be1073954)" style="fill: #008000; fill-opacity: 0.3"/>
    <path d="M 379.930464 81.785917 
L 379.930464 81.75676 
L 380.791927 81.751402 
L 380.791927 81.785917 
L 380.791927 81.785917 
L 379.930464 81.785917 
z
" clip-path="url(#p4be1073954)" style="fill: #008000; fill-opacity: 0.3"/>
    <path d="M 391.990939 81.785917 
L 391.990939 81.18072 
L 392.852401 80.459369 
L 393.713864 80.066622 
L 394.575326 79.673874 
L 395.436789 78.888379 
L 396.298251 77.36924 
L 397.159713 76.521649 
L 398.021176 75.674058 
L 398.882638 75.250263 
L 399.744101 74.826467 
L 400.605563 74.002044 
L 401.467026 73.177621 
L 402.328488 72.353198 
L 403.189951 71.680074 
L 404.051413 71.007107 
L 404.912875 70.266687 
L 405.774338 70.020037 
L 406.6358 69.773231 
L 407.497263 69.526424 
L 408.358725 68.644002 
L 409.220188 67.761739 
L 410.08165 67.066235 
L 410.943113 66.370731 
L 411.804575 66.225736 
L 412.666038 66.153239 
L 413.5275 66.080741 
L 414.388962 65.935746 
L 415.250425 65.790751 
L 416.111887 66.176879 
L 416.97335 66.369943 
L 417.834812 66.563008 
L 418.696275 66.949136 
L 419.557737 67.437233 
L 420.4192 67.925173 
L 421.280662 68.901369 
L 422.142125 69.605225 
L 423.003587 69.957154 
L 423.865049 70.309082 
L 424.726512 70.980157 
L 425.587974 71.651232 
L 426.449437 72.136335 
L 427.310899 72.378887 
L 428.172362 72.621439 
L 429.033824 72.78314 
L 429.895287 72.944841 
L 430.756749 73.106542 
L 431.618211 73.349093 
L 432.479674 73.591645 
L 433.341136 73.591645 
L 433.341136 81.785917 
L 433.341136 81.785917 
L 432.479674 81.785917 
L 431.618211 81.785917 
L 430.756749 81.785917 
L 429.895287 81.785917 
L 429.033824 81.785917 
L 428.172362 81.785917 
L 427.310899 81.785917 
L 426.449437 81.785917 
L 425.587974 81.785917 
L 424.726512 81.785917 
L 423.865049 81.785917 
L 423.003587 81.785917 
L 422.142125 81.785917 
L 421.280662 81.785917 
L 420.4192 81.785917 
L 419.557737 81.785917 
L 418.696275 81.785917 
L 417.834812 81.785917 
L 416.97335 81.785917 
L 416.111887 81.785917 
L 415.250425 81.785917 
L 414.388962 81.785917 
L 413.5275 81.785917 
L 412.666038 81.785917 
L 411.804575 81.785917 
L 410.943113 81.785917 
L 410.08165 81.785917 
L 409.220188 81.785917 
L 408.358725 81.785917 
L 407.497263 81.785917 
L 406.6358 81.785917 
L 405.774338 81.785917 
L 404.912875 81.785917 
L 404.051413 81.785917 
L 403.189951 81.785917 
L 402.328488 81.785917 
L 401.467026 81.785917 
L 400.605563 81.785917 
L 399.744101 81.785917 
L 398.882638 81.785917 
L 398.021176 81.785917 
L 397.159713 81.785917 
L 396.298251 81.785917 
L 395.436789 81.785917 
L 394.575326 81.785917 
L 393.713864 81.785917 
L 392.852401 81.785917 
L 391.990939 81.785917 
z
" clip-path="url(#p4be1073954)" style="fill: #008000; fill-opacity: 0.3"/>
   </g>
   <g id="PolyCollection_4">
    <path d="M 199.884812 81.785917 
L 199.884812 81.851007 
L 200.746275 81.970628 
L 201.607737 82.010659 
L 202.4692 82.050533 
L 203.330662 82.090407 
L 204.192125 82.372359 
L 205.053587 82.654312 
L 205.915049 82.936106 
L 206.776512 83.077161 
L 207.637974 83.218059 
L 208.499437 83.528065 
L 209.360899 83.838228 
L 210.222362 84.148234 
L 211.083824 84.45824 
L 211.945287 84.785267 
L 212.806749 84.894328 
L 213.668211 85.003232 
L 214.529674 85.112294 
L 215.391136 85.439321 
L 216.252599 85.766348 
L 217.114061 85.974069 
L 217.975524 86.18179 
L 218.836986 86.389354 
L 219.698449 86.493214 
L 220.559911 86.597075 
L 221.421374 86.531512 
L 222.282836 86.465791 
L 223.144298 86.400228 
L 224.005761 86.378322 
L 224.867223 86.356415 
L 225.728686 86.334508 
L 226.590148 86.268945 
L 227.451611 86.203224 
L 228.313073 86.170443 
L 229.174536 86.137661 
L 230.035998 86.071941 
L 230.89746 86.006378 
L 231.758923 85.752006 
L 232.620385 85.497792 
L 233.481848 85.413001 
L 234.34331 85.32821 
L 235.204773 85.24342 
L 236.066235 84.636804 
L 236.927698 84.321598 
L 237.78916 84.006233 
L 238.650623 83.690869 
L 239.512085 83.47968 
L 240.373547 83.268492 
L 241.23501 82.846115 
L 242.096472 82.423738 
L 242.957935 82.001361 
L 242.957935 81.785917 
L 242.957935 81.785917 
L 242.096472 81.785917 
L 241.23501 81.785917 
L 240.373547 81.785917 
L 239.512085 81.785917 
L 238.650623 81.785917 
L 237.78916 81.785917 
L 236.927698 81.785917 
L 236.066235 81.785917 
L 235.204773 81.785917 
L 234.34331 81.785917 
L 233.481848 81.785917 
L 232.620385 81.785917 
L 231.758923 81.785917 
L 230.89746 81.785917 
L 230.035998 81.785917 
L 229.174536 81.785917 
L 228.313073 81.785917 
L 227.451611 81.785917 
L 226.590148 81.785917 
L 225.728686 81.785917 
L 224.867223 81.785917 
L 224.005761 81.785917 
L 223.144298 81.785917 
L 222.282836 81.785917 
L 221.421374 81.785917 
L 220.559911 81.785917 
L 219.698449 81.785917 
L 218.836986 81.785917 
L 217.975524 81.785917 
L 217.114061 81.785917 
L 216.252599 81.785917 
L 215.391136 81.785917 
L 214.529674 81.785917 
L 213.668211 81.785917 
L 212.806749 81.785917 
L 211.945287 81.785917 
L 211.083824 81.785917 
L 210.222362 81.785917 
L 209.360899 81.785917 
L 208.499437 81.785917 
L 207.637974 81.785917 
L 206.776512 81.785917 
L 205.915049 81.785917 
L 205.053587 81.785917 
L 204.192125 81.785917 
L 203.330662 81.785917 
L 202.4692 81.785917 
L 201.607737 81.785917 
L 200.746275 81.785917 
L 199.884812 81.785917 
z
" clip-path="url(#p4be1073954)" style="fill: #ff0000; fill-opacity: 0.3"/>
    <path d="M 295.507144 81.785917 
L 295.507144 81.823899 
L 296.368607 81.847698 
L 297.230069 81.871496 
L 298.091532 81.919249 
L 298.952994 81.966846 
L 299.814457 81.964639 
L 300.675919 81.96259 
L 301.537381 81.960384 
L 302.398844 81.953922 
L 302.398844 81.785917 
L 302.398844 81.785917 
L 301.537381 81.785917 
L 300.675919 81.785917 
L 299.814457 81.785917 
L 298.952994 81.785917 
L 298.091532 81.785917 
L 297.230069 81.785917 
L 296.368607 81.785917 
L 295.507144 81.785917 
z
" clip-path="url(#p4be1073954)" style="fill: #ff0000; fill-opacity: 0.3"/>
    <path d="M 381.653389 81.785917 
L 381.653389 81.934222 
L 382.514852 82.025632 
L 383.376314 82.117042 
L 384.237777 82.299862 
L 385.099239 82.482682 
L 385.960702 82.482524 
L 386.822164 82.482366 
L 387.683626 82.482366 
L 388.545089 82.482051 
L 389.406551 82.481894 
L 390.268014 82.192061 
L 391.129476 81.902071 
L 391.129476 81.785917 
L 391.129476 81.785917 
L 390.268014 81.785917 
L 389.406551 81.785917 
L 388.545089 81.785917 
L 387.683626 81.785917 
L 386.822164 81.785917 
L 385.960702 81.785917 
L 385.099239 81.785917 
L 384.237777 81.785917 
L 383.376314 81.785917 
L 382.514852 81.785917 
L 381.653389 81.785917 
z
" clip-path="url(#p4be1073954)" style="fill: #ff0000; fill-opacity: 0.3"/>
   </g>
   <g id="matplotlib.axis_2">
    <g id="ytick_4">
     <g id="line2d_9">
      <path d="M 162.885 81.785917 
L 446.22 81.785917 
" clip-path="url(#p4be1073954)" style="fill: none; stroke: #b0b0b0; stroke-width: 0.8; stroke-linecap: square"/>
     </g>
     <g id="line2d_10">
      <g>
       <use xlink:href="#m1ff34fcdb7" x="162.885" y="81.785917" style="stroke: #000000; stroke-width: 0.8"/>
      </g>
     </g>
     <g id="text_6">
      <!-- 0 -->
      <g transform="translate(147.295625 86.914862) scale(0.135 -0.135)">
       <use xlink:href="#DejaVuSans-30"/>
      </g>
     </g>
    </g>
    <g id="ytick_5">
     <g id="line2d_11">
      <path d="M 162.885 66.02558 
L 446.22 66.02558 
" clip-path="url(#p4be1073954)" style="fill: none; stroke: #b0b0b0; stroke-width: 0.8; stroke-linecap: square"/>
     </g>
     <g id="line2d_12">
      <g>
       <use xlink:href="#m1ff34fcdb7" x="162.885" y="66.02558" style="stroke: #000000; stroke-width: 0.8"/>
      </g>
     </g>
     <g id="text_7">
      <!-- 1000 -->
      <g transform="translate(121.5275 71.154525) scale(0.135 -0.135)">
       <defs>
        <path id="DejaVuSans-31" d="M 794 531 
L 1825 531 
L 1825 4091 
L 703 3866 
L 703 4441 
L 1819 4666 
L 2450 4666 
L 2450 531 
L 3481 531 
L 3481 0 
L 794 0 
L 794 531 
z
" transform="scale(0.015625)"/>
       </defs>
       <use xlink:href="#DejaVuSans-31"/>
       <use xlink:href="#DejaVuSans-30" x="63.623047"/>
       <use xlink:href="#DejaVuSans-30" x="127.246094"/>
       <use xlink:href="#DejaVuSans-30" x="190.869141"/>
      </g>
     </g>
    </g>
    <g id="text_8">
     <!-- PEU_3-1 [kW] -->
     <g transform="translate(25.857422 73.010866) scale(0.135 -0.135)">
      <defs>
       <path id="DejaVuSans-45" d="M 628 4666 
L 3578 4666 
L 3578 4134 
L 1259 4134 
L 1259 2753 
L 3481 2753 
L 3481 2222 
L 1259 2222 
L 1259 531 
L 3634 531 
L 3634 0 
L 628 0 
L 628 4666 
z
" transform="scale(0.015625)"/>
       <path id="DejaVuSans-55" d="M 556 4666 
L 1191 4666 
L 1191 1831 
Q 1191 1081 1462 751 
Q 1734 422 2344 422 
Q 2950 422 3222 751 
Q 3494 1081 3494 1831 
L 3494 4666 
L 4128 4666 
L 4128 1753 
Q 4128 841 3676 375 
Q 3225 -91 2344 -91 
Q 1459 -91 1007 375 
Q 556 841 556 1753 
L 556 4666 
z
" transform="scale(0.015625)"/>
       <path id="DejaVuSans-5f" d="M 3263 -1063 
L 3263 -1509 
L -63 -1509 
L -63 -1063 
L 3263 -1063 
z
" transform="scale(0.015625)"/>
       <path id="DejaVuSans-2d" d="M 313 2009 
L 1997 2009 
L 1997 1497 
L 313 1497 
L 313 2009 
z
" transform="scale(0.015625)"/>
      </defs>
      <use xlink:href="#DejaVuSans-50"/>
      <use xlink:href="#DejaVuSans-45" x="60.302734"/>
      <use xlink:href="#DejaVuSans-55" x="123.486328"/>
      <use xlink:href="#DejaVuSans-5f" x="196.679688"/>
      <use xlink:href="#DejaVuSans-33" x="246.679688"/>
      <use xlink:href="#DejaVuSans-2d" x="310.302734"/>
      <use xlink:href="#DejaVuSans-31" x="346.386719"/>
      <use xlink:href="#DejaVuSans-20" x="410.009766"/>
      <use xlink:href="#DejaVuSans-5b" x="441.796875"/>
      <use xlink:href="#DejaVuSans-6b" x="480.810547"/>
      <use xlink:href="#DejaVuSans-57" x="538.720703"/>
      <use xlink:href="#DejaVuSans-5d" x="637.597656"/>
     </g>
    </g>
   </g>
   <g id="line2d_13">
    <path d="M 175.763864 81.785917 
L 191.270188 81.785917 
L 192.993113 81.615075 
L 197.300425 81.611608 
L 199.884812 81.851007 
L 201.607737 82.010659 
L 203.330662 82.090407 
L 205.915049 82.936106 
L 207.637974 83.218059 
L 211.945287 84.785267 
L 214.529674 85.112294 
L 216.252599 85.766348 
L 219.698449 86.493214 
L 220.559911 86.597075 
L 224.867223 86.356415 
L 229.174536 86.137661 
L 230.89746 86.006378 
L 232.620385 85.497792 
L 235.204773 85.24342 
L 236.066235 84.636804 
L 239.512085 83.47968 
L 240.373547 83.268492 
L 243.819397 81.578984 
L 245.542322 81.253218 
L 246.403785 80.927451 
L 248.126709 80.601685 
L 253.295484 78.705717 
L 254.156947 78.112813 
L 255.879872 77.383109 
L 257.602796 77.018257 
L 259.325721 76.026144 
L 265.355958 76.246474 
L 267.940346 77.035909 
L 270.524733 77.299107 
L 273.109121 78.463796 
L 274.832045 78.751737 
L 275.693508 79.039678 
L 277.416433 79.32762 
L 279.139358 79.802006 
L 280.862283 80.081752 
L 282.585208 80.361498 
L 285.169595 80.746365 
L 287.753982 81.021225 
L 291.199832 81.680953 
L 302.398844 81.953922 
L 303.260306 81.785917 
L 380.791927 81.751402 
L 382.514852 82.025632 
L 384.237777 82.299862 
L 385.099239 82.482682 
L 389.406551 82.481894 
L 391.129476 81.902071 
L 392.852401 80.459369 
L 394.575326 79.673874 
L 395.436789 78.888379 
L 396.298251 77.36924 
L 398.021176 75.674058 
L 399.744101 74.826467 
L 403.189951 71.680074 
L 404.912875 70.266687 
L 407.497263 69.526424 
L 409.220188 67.761739 
L 410.943113 66.370731 
L 412.666038 66.153239 
L 414.388962 65.935746 
L 415.250425 65.790751 
L 416.111887 66.176879 
L 417.834812 66.563008 
L 419.557737 67.437233 
L 420.4192 67.925173 
L 421.280662 68.901369 
L 422.142125 69.605225 
L 423.865049 70.309082 
L 425.587974 71.651232 
L 426.449437 72.136335 
L 429.033824 72.78314 
L 431.618211 73.349093 
L 432.479674 73.591645 
L 433.341136 73.591645 
L 433.341136 73.591645 
" clip-path="url(#p4be1073954)" style="fill: none; stroke: #1f77b4; stroke-width: 1.5; stroke-linecap: square"/>
   </g>
   <g id="line2d_14">
    <path d="M 162.885 81.785917 
L 446.22 81.785917 
" clip-path="url(#p4be1073954)" style="fill: none; stroke: #000000; stroke-width: 1.5; stroke-linecap: square"/>
   </g>
   <g id="patch_8">
    <path d="M 162.885 87.637391 
L 162.885 64.750435 
" style="fill: none; stroke: #000000; stroke-width: 0.8; stroke-linejoin: miter; stroke-linecap: square"/>
   </g>
   <g id="patch_9">
    <path d="M 446.22 87.637391 
L 446.22 64.750435 
" style="fill: none; stroke: #000000; stroke-width: 0.8; stroke-linejoin: miter; stroke-linecap: square"/>
   </g>
   <g id="patch_10">
    <path d="M 162.885 87.637391 
L 446.22 87.637391 
" style="fill: none; stroke: #000000; stroke-width: 0.8; stroke-linejoin: miter; stroke-linecap: square"/>
   </g>
   <g id="patch_11">
    <path d="M 162.885 64.750435 
L 446.22 64.750435 
" style="fill: none; stroke: #000000; stroke-width: 0.8; stroke-linejoin: miter; stroke-linecap: square"/>
   </g>
  </g>
  <g id="axes_3">
   <g id="patch_12">
    <path d="M 162.885 121.967826 
L 446.22 121.967826 
L 446.22 99.08087 
L 162.885 99.08087 
z
" style="fill: #ffffff"/>
   </g>
   <g id="PolyCollection_5">
    <path d="M 201.607737 118.448437 
L 201.607737 118.291458 
L 202.4692 118.066219 
L 203.330662 117.840981 
L 204.192125 117.165265 
L 205.053587 116.3342 
L 205.915049 115.503135 
L 206.776512 114.947643 
L 207.637974 114.392151 
L 208.499437 113.280986 
L 209.360899 112.170002 
L 210.222362 111.205858 
L 211.083824 110.241532 
L 211.945287 109.277388 
L 212.806749 108.451754 
L 213.668211 107.62594 
L 214.529674 106.800307 
L 215.391136 105.978475 
L 216.252599 105.156644 
L 217.114061 104.334813 
L 217.975524 103.093828 
L 218.836986 101.852843 
L 219.698449 101.636296 
L 220.559911 101.419929 
L 221.421374 100.987014 
L 222.282836 100.5541 
L 223.144298 100.121186 
L 224.005761 100.409433 
L 224.867223 100.697862 
L 225.728686 100.986109 
L 226.590148 101.851214 
L 227.451611 102.715956 
L 228.313073 103.148508 
L 229.174536 103.580879 
L 230.035998 104.355092 
L 230.89746 105.129123 
L 231.758923 105.903336 
L 232.620385 106.677548 
L 233.481848 107.157538 
L 234.34331 107.637528 
L 235.204773 108.117518 
L 236.066235 109.557488 
L 236.927698 109.770595 
L 237.78916 109.983703 
L 238.650623 110.19681 
L 239.512085 110.303455 
L 240.373547 110.409918 
L 241.23501 110.623026 
L 242.096472 110.836314 
L 242.957935 111.049422 
L 243.819397 111.262529 
L 244.68086 111.368993 
L 245.542322 111.475637 
L 246.403785 111.688744 
L 247.265247 111.795208 
L 248.126709 111.901852 
L 248.988172 112.058469 
L 249.849634 112.215086 
L 250.711097 112.371703 
L 251.572559 112.528319 
L 252.434022 112.606718 
L 253.295484 112.684936 
L 254.156947 112.841553 
L 255.018409 112.998351 
L 255.879872 113.154968 
L 256.741334 113.233186 
L 257.602796 113.311585 
L 258.464259 113.468202 
L 259.325721 113.624819 
L 260.187184 113.676964 
L 261.048646 113.72929 
L 261.910109 113.781435 
L 262.771571 113.938052 
L 263.633034 113.992551 
L 264.494496 114.04705 
L 265.355958 114.101549 
L 266.217421 114.264866 
L 267.078883 114.428363 
L 267.940346 114.59186 
L 268.801808 114.646359 
L 269.663271 114.700677 
L 270.524733 114.755176 
L 271.386196 114.918673 
L 272.247658 115.072755 
L 273.109121 115.226837 
L 273.970583 115.303788 
L 274.832045 115.380738 
L 275.693508 115.53482 
L 276.55497 115.611952 
L 277.416433 115.688902 
L 278.277895 115.888249 
L 279.139358 116.087777 
L 280.00082 116.287124 
L 280.862283 116.386888 
L 281.723745 116.486652 
L 282.585208 116.699579 
L 283.44667 116.912324 
L 284.308132 117.125251 
L 285.169595 117.196226 
L 286.031057 117.267202 
L 286.89252 117.337996 
L 287.753982 117.550923 
L 288.615445 117.737052 
L 289.476907 117.923182 
L 290.33837 118.109493 
L 291.199832 118.295622 
L 292.061294 118.388687 
L 292.061294 118.448437 
L 292.061294 118.448437 
L 291.199832 118.448437 
L 290.33837 118.448437 
L 289.476907 118.448437 
L 288.615445 118.448437 
L 287.753982 118.448437 
L 286.89252 118.448437 
L 286.031057 118.448437 
L 285.169595 118.448437 
L 284.308132 118.448437 
L 283.44667 118.448437 
L 282.585208 118.448437 
L 281.723745 118.448437 
L 280.862283 118.448437 
L 280.00082 118.448437 
L 279.139358 118.448437 
L 278.277895 118.448437 
L 277.416433 118.448437 
L 276.55497 118.448437 
L 275.693508 118.448437 
L 274.832045 118.448437 
L 273.970583 118.448437 
L 273.109121 118.448437 
L 272.247658 118.448437 
L 271.386196 118.448437 
L 270.524733 118.448437 
L 269.663271 118.448437 
L 268.801808 118.448437 
L 267.940346 118.448437 
L 267.078883 118.448437 
L 266.217421 118.448437 
L 265.355958 118.448437 
L 264.494496 118.448437 
L 263.633034 118.448437 
L 262.771571 118.448437 
L 261.910109 118.448437 
L 261.048646 118.448437 
L 260.187184 118.448437 
L 259.325721 118.448437 
L 258.464259 118.448437 
L 257.602796 118.448437 
L 256.741334 118.448437 
L 255.879872 118.448437 
L 255.018409 118.448437 
L 254.156947 118.448437 
L 253.295484 118.448437 
L 252.434022 118.448437 
L 251.572559 118.448437 
L 250.711097 118.448437 
L 249.849634 118.448437 
L 248.988172 118.448437 
L 248.126709 118.448437 
L 247.265247 118.448437 
L 246.403785 118.448437 
L 245.542322 118.448437 
L 244.68086 118.448437 
L 243.819397 118.448437 
L 242.957935 118.448437 
L 242.096472 118.448437 
L 241.23501 118.448437 
L 240.373547 118.448437 
L 239.512085 118.448437 
L 238.650623 118.448437 
L 237.78916 118.448437 
L 236.927698 118.448437 
L 236.066235 118.448437 
L 235.204773 118.448437 
L 234.34331 118.448437 
L 233.481848 118.448437 
L 232.620385 118.448437 
L 231.758923 118.448437 
L 230.89746 118.448437 
L 230.035998 118.448437 
L 229.174536 118.448437 
L 228.313073 118.448437 
L 227.451611 118.448437 
L 226.590148 118.448437 
L 225.728686 118.448437 
L 224.867223 118.448437 
L 224.005761 118.448437 
L 223.144298 118.448437 
L 222.282836 118.448437 
L 221.421374 118.448437 
L 220.559911 118.448437 
L 219.698449 118.448437 
L 218.836986 118.448437 
L 217.975524 118.448437 
L 217.114061 118.448437 
L 216.252599 118.448437 
L 215.391136 118.448437 
L 214.529674 118.448437 
L 213.668211 118.448437 
L 212.806749 118.448437 
L 211.945287 118.448437 
L 211.083824 118.448437 
L 210.222362 118.448437 
L 209.360899 118.448437 
L 208.499437 118.448437 
L 207.637974 118.448437 
L 206.776512 118.448437 
L 205.915049 118.448437 
L 205.053587 118.448437 
L 204.192125 118.448437 
L 203.330662 118.448437 
L 202.4692 118.448437 
L 201.607737 118.448437 
z
" clip-path="url(#p9f5abaf5a4)" style="fill: #008000; fill-opacity: 0.3"/>
    <path d="M 379.930464 118.448437 
L 379.930464 118.352113 
L 380.791927 118.37203 
L 380.791927 118.448437 
L 380.791927 118.448437 
L 379.930464 118.448437 
z
" clip-path="url(#p9f5abaf5a4)" style="fill: #008000; fill-opacity: 0.3"/>
    <path d="M 382.514852 118.448437 
L 382.514852 118.428701 
L 383.376314 118.406431 
L 384.237777 118.361528 
L 385.099239 118.316806 
L 385.960702 118.301959 
L 386.822164 118.286931 
L 387.683626 118.272085 
L 388.545089 118.249633 
L 389.406551 118.227182 
L 390.268014 118.204911 
L 391.129476 118.18246 
L 391.990939 118.340163 
L 391.990939 118.448437 
L 391.990939 118.448437 
L 391.129476 118.448437 
L 390.268014 118.448437 
L 389.406551 118.448437 
L 388.545089 118.448437 
L 387.683626 118.448437 
L 386.822164 118.448437 
L 385.960702 118.448437 
L 385.099239 118.448437 
L 384.237777 118.448437 
L 383.376314 118.448437 
L 382.514852 118.448437 
z
" clip-path="url(#p9f5abaf5a4)" style="fill: #008000; fill-opacity: 0.3"/>
   </g>
   <g id="PolyCollection_6">
    <path d="M 192.13165 118.448437 
L 192.13165 118.635472 
L 192.993113 118.771267 
L 193.854575 118.861616 
L 194.716038 118.952146 
L 195.5775 119.042495 
L 196.438962 119.082871 
L 197.300425 119.123066 
L 198.161887 119.143345 
L 199.02335 119.163443 
L 199.884812 118.84007 
L 200.746275 118.516697 
L 200.746275 118.448437 
L 200.746275 118.448437 
L 199.884812 118.448437 
L 199.02335 118.448437 
L 198.161887 118.448437 
L 197.300425 118.448437 
L 196.438962 118.448437 
L 195.5775 118.448437 
L 194.716038 118.448437 
L 193.854575 118.448437 
L 192.993113 118.448437 
L 192.13165 118.448437 
z
" clip-path="url(#p9f5abaf5a4)" style="fill: #ff0000; fill-opacity: 0.3"/>
    <path d="M 292.922757 118.448437 
L 292.922757 118.481752 
L 293.784219 118.498228 
L 294.645682 118.514705 
L 295.507144 118.547658 
L 296.368607 118.564134 
L 297.230069 118.580611 
L 298.091532 118.613564 
L 298.952994 118.586224 
L 299.814457 118.576989 
L 300.675919 118.567936 
L 301.537381 118.558883 
L 302.398844 118.531362 
L 302.398844 118.448437 
L 302.398844 118.448437 
L 301.537381 118.448437 
L 300.675919 118.448437 
L 299.814457 118.448437 
L 298.952994 118.448437 
L 298.091532 118.448437 
L 297.230069 118.448437 
L 296.368607 118.448437 
L 295.507144 118.448437 
L 294.645682 118.448437 
L 293.784219 118.448437 
L 292.922757 118.448437 
z
" clip-path="url(#p9f5abaf5a4)" style="fill: #ff0000; fill-opacity: 0.3"/>
    <path d="M 381.653389 118.448437 
L 381.653389 118.451153 
L 381.653389 118.448437 
L 381.653389 118.448437 
z
" clip-path="url(#p9f5abaf5a4)" style="fill: #ff0000; fill-opacity: 0.3"/>
    <path d="M 392.852401 118.448437 
L 392.852401 118.497866 
L 393.713864 118.576627 
L 394.575326 118.655388 
L 395.436789 118.813092 
L 396.298251 118.970795 
L 397.159713 119.128498 
L 398.021176 119.28602 
L 398.882638 119.364962 
L 399.744101 119.443724 
L 400.605563 119.601427 
L 401.467026 119.722013 
L 402.328488 119.842599 
L 403.189951 119.963003 
L 404.051413 120.083589 
L 404.912875 120.204175 
L 405.774338 120.244371 
L 406.6358 120.284566 
L 407.497263 120.324761 
L 408.358725 120.385054 
L 409.220188 120.445347 
L 410.08165 120.565933 
L 410.943113 120.686338 
L 411.804575 120.806924 
L 412.666038 120.867217 
L 413.5275 120.92751 
L 414.388962 120.918819 
L 415.250425 120.909947 
L 416.111887 120.901256 
L 416.97335 120.896911 
L 417.834812 120.892565 
L 418.696275 120.883874 
L 419.557737 120.879348 
L 420.4192 120.875002 
L 421.280662 120.866312 
L 422.142125 120.857621 
L 423.003587 120.853094 
L 423.865049 120.848749 
L 424.726512 120.840058 
L 425.587974 120.801854 
L 426.449437 120.763832 
L 427.310899 120.744639 
L 428.172362 120.725628 
L 429.033824 120.712954 
L 429.895287 120.70028 
L 430.756749 120.687424 
L 431.618211 120.668413 
L 432.479674 120.649402 
L 433.341136 120.611198 
L 433.341136 118.448437 
L 433.341136 118.448437 
L 432.479674 118.448437 
L 431.618211 118.448437 
L 430.756749 118.448437 
L 429.895287 118.448437 
L 429.033824 118.448437 
L 428.172362 118.448437 
L 427.310899 118.448437 
L 426.449437 118.448437 
L 425.587974 118.448437 
L 424.726512 118.448437 
L 423.865049 118.448437 
L 423.003587 118.448437 
L 422.142125 118.448437 
L 421.280662 118.448437 
L 420.4192 118.448437 
L 419.557737 118.448437 
L 418.696275 118.448437 
L 417.834812 118.448437 
L 416.97335 118.448437 
L 416.111887 118.448437 
L 415.250425 118.448437 
L 414.388962 118.448437 
L 413.5275 118.448437 
L 412.666038 118.448437 
L 411.804575 118.448437 
L 410.943113 118.448437 
L 410.08165 118.448437 
L 409.220188 118.448437 
L 408.358725 118.448437 
L 407.497263 118.448437 
L 406.6358 118.448437 
L 405.774338 118.448437 
L 404.912875 118.448437 
L 404.051413 118.448437 
L 403.189951 118.448437 
L 402.328488 118.448437 
L 401.467026 118.448437 
L 400.605563 118.448437 
L 399.744101 118.448437 
L 398.882638 118.448437 
L 398.021176 118.448437 
L 397.159713 118.448437 
L 396.298251 118.448437 
L 395.436789 118.448437 
L 394.575326 118.448437 
L 393.713864 118.448437 
L 392.852401 118.448437 
z
" clip-path="url(#p9f5abaf5a4)" style="fill: #ff0000; fill-opacity: 0.3"/>
   </g>
   <g id="matplotlib.axis_3">
    <g id="ytick_6">
     <g id="line2d_15">
      <path d="M 162.885 118.448437 
L 446.22 118.448437 
" clip-path="url(#p9f5abaf5a4)" style="fill: none; stroke: #b0b0b0; stroke-width: 0.8; stroke-linecap: square"/>
     </g>
     <g id="line2d_16">
      <g>
       <use xlink:href="#m1ff34fcdb7" x="162.885" y="118.448437" style="stroke: #000000; stroke-width: 0.8"/>
      </g>
     </g>
     <g id="text_9">
      <!-- 0 -->
      <g transform="translate(147.295625 123.577382) scale(0.135 -0.135)">
       <use xlink:href="#DejaVuSans-30"/>
      </g>
     </g>
    </g>
    <g id="ytick_7">
     <g id="line2d_17">
      <path d="M 162.885 100.342441 
L 446.22 100.342441 
" clip-path="url(#p9f5abaf5a4)" style="fill: none; stroke: #b0b0b0; stroke-width: 0.8; stroke-linecap: square"/>
     </g>
     <g id="line2d_18">
      <g>
       <use xlink:href="#m1ff34fcdb7" x="162.885" y="100.342441" style="stroke: #000000; stroke-width: 0.8"/>
      </g>
     </g>
     <g id="text_10">
      <!-- 1000 -->
      <g transform="translate(121.5275 105.471386) scale(0.135 -0.135)">
       <use xlink:href="#DejaVuSans-31"/>
       <use xlink:href="#DejaVuSans-30" x="63.623047"/>
       <use xlink:href="#DejaVuSans-30" x="127.246094"/>
       <use xlink:href="#DejaVuSans-30" x="190.869141"/>
      </g>
     </g>
    </g>
    <g id="text_11">
     <!-- PEU_3-2 [kW] -->
     <g transform="translate(25.857422 107.341301) scale(0.135 -0.135)">
      <use xlink:href="#DejaVuSans-50"/>
      <use xlink:href="#DejaVuSans-45" x="60.302734"/>
      <use xlink:href="#DejaVuSans-55" x="123.486328"/>
      <use xlink:href="#DejaVuSans-5f" x="196.679688"/>
      <use xlink:href="#DejaVuSans-33" x="246.679688"/>
      <use xlink:href="#DejaVuSans-2d" x="310.302734"/>
      <use xlink:href="#DejaVuSans-32" x="346.386719"/>
      <use xlink:href="#DejaVuSans-20" x="410.009766"/>
      <use xlink:href="#DejaVuSans-5b" x="441.796875"/>
      <use xlink:href="#DejaVuSans-6b" x="480.810547"/>
      <use xlink:href="#DejaVuSans-57" x="538.720703"/>
      <use xlink:href="#DejaVuSans-5d" x="637.597656"/>
     </g>
    </g>
   </g>
   <g id="line2d_19">
    <path d="M 175.763864 118.448437 
L 191.270188 118.448437 
L 192.993113 118.771267 
L 197.300425 119.123066 
L 199.02335 119.163443 
L 201.607737 118.291458 
L 203.330662 117.840981 
L 204.192125 117.165265 
L 205.915049 115.503135 
L 207.637974 114.392151 
L 210.222362 111.205858 
L 212.806749 108.451754 
L 217.114061 104.334813 
L 218.836986 101.852843 
L 220.559911 101.419929 
L 223.144298 100.121186 
L 225.728686 100.986109 
L 227.451611 102.715956 
L 229.174536 103.580879 
L 232.620385 106.677548 
L 235.204773 108.117518 
L 236.066235 109.557488 
L 239.512085 110.303455 
L 241.23501 110.623026 
L 244.68086 111.368993 
L 248.126709 111.901852 
L 252.434022 112.606718 
L 254.156947 112.841553 
L 256.741334 113.233186 
L 258.464259 113.468202 
L 260.187184 113.676964 
L 265.355958 114.101549 
L 268.801808 114.646359 
L 271.386196 114.918673 
L 273.970583 115.303788 
L 277.416433 115.688902 
L 280.862283 116.386888 
L 281.723745 116.486652 
L 284.308132 117.125251 
L 286.89252 117.337996 
L 291.199832 118.295622 
L 293.784219 118.498228 
L 301.537381 118.558883 
L 308.429081 118.448437 
L 384.237777 118.361528 
L 387.683626 118.272085 
L 391.129476 118.18246 
L 393.713864 118.576627 
L 395.436789 118.813092 
L 398.882638 119.364962 
L 400.605563 119.601427 
L 405.774338 120.244371 
L 409.220188 120.445347 
L 412.666038 120.867217 
L 414.388962 120.918819 
L 432.479674 120.649402 
L 433.341136 120.611198 
L 433.341136 120.611198 
" clip-path="url(#p9f5abaf5a4)" style="fill: none; stroke: #1f77b4; stroke-width: 1.5; stroke-linecap: square"/>
   </g>
   <g id="line2d_20">
    <path d="M 162.885 118.448437 
L 446.22 118.448437 
" clip-path="url(#p9f5abaf5a4)" style="fill: none; stroke: #000000; stroke-width: 1.5; stroke-linecap: square"/>
   </g>
   <g id="patch_13">
    <path d="M 162.885 121.967826 
L 162.885 99.08087 
" style="fill: none; stroke: #000000; stroke-width: 0.8; stroke-linejoin: miter; stroke-linecap: square"/>
   </g>
   <g id="patch_14">
    <path d="M 446.22 121.967826 
L 446.22 99.08087 
" style="fill: none; stroke: #000000; stroke-width: 0.8; stroke-linejoin: miter; stroke-linecap: square"/>
   </g>
   <g id="patch_15">
    <path d="M 162.885 121.967826 
L 446.22 121.967826 
" style="fill: none; stroke: #000000; stroke-width: 0.8; stroke-linejoin: miter; stroke-linecap: square"/>
   </g>
   <g id="patch_16">
    <path d="M 162.885 99.08087 
L 446.22 99.08087 
" style="fill: none; stroke: #000000; stroke-width: 0.8; stroke-linejoin: miter; stroke-linecap: square"/>
   </g>
  </g>
  <g id="axes_4">
   <g id="patch_17">
    <path d="M 162.885 156.298261 
L 446.22 156.298261 
L 446.22 133.411304 
L 162.885 133.411304 
z
" style="fill: #ffffff"/>
   </g>
   <g id="PolyCollection_7">
    <path d="M 192.13165 135.44144 
L 192.13165 135.268934 
L 192.993113 135.252998 
L 193.854575 135.245229 
L 194.716038 135.237261 
L 195.5775 135.229492 
L 196.438962 135.205987 
L 197.300425 135.182282 
L 198.161887 135.170529 
L 199.02335 135.158777 
L 199.884812 135.135271 
L 200.746275 135.371521 
L 200.746275 135.44144 
L 200.746275 135.44144 
L 199.884812 135.44144 
L 199.02335 135.44144 
L 198.161887 135.44144 
L 197.300425 135.44144 
L 196.438962 135.44144 
L 195.5775 135.44144 
L 194.716038 135.44144 
L 193.854575 135.44144 
L 192.993113 135.44144 
L 192.13165 135.44144 
z
" clip-path="url(#p0ebb3d9ee5)" style="fill: #008000; fill-opacity: 0.3"/>
    <path d="M 294.645682 135.44144 
L 294.645682 135.316343 
L 295.507144 134.883882 
L 296.368607 134.667751 
L 297.230069 134.451621 
L 298.091532 134.697034 
L 298.952994 134.942447 
L 299.814457 135.024317 
L 300.675919 135.105989 
L 301.537381 135.18786 
L 302.398844 135.271125 
L 302.398844 135.44144 
L 302.398844 135.44144 
L 301.537381 135.44144 
L 300.675919 135.44144 
L 299.814457 135.44144 
L 298.952994 135.44144 
L 298.091532 135.44144 
L 297.230069 135.44144 
L 296.368607 135.44144 
L 295.507144 135.44144 
L 294.645682 135.44144 
z
" clip-path="url(#p0ebb3d9ee5)" style="fill: #008000; fill-opacity: 0.3"/>
    <path d="M 379.930464 135.44144 
L 379.930464 135.245627 
L 380.791927 135.218935 
L 381.653389 135.111766 
L 382.514852 135.058181 
L 383.376314 135.004597 
L 384.237777 134.857588 
L 385.099239 134.710778 
L 385.960702 134.661775 
L 386.822164 134.612772 
L 387.683626 134.56377 
L 388.545089 134.755 
L 389.406551 134.946231 
L 390.268014 135.137462 
L 391.129476 135.328693 
L 391.129476 135.44144 
L 391.129476 135.44144 
L 390.268014 135.44144 
L 389.406551 135.44144 
L 388.545089 135.44144 
L 387.683626 135.44144 
L 386.822164 135.44144 
L 385.960702 135.44144 
L 385.099239 135.44144 
L 384.237777 135.44144 
L 383.376314 135.44144 
L 382.514852 135.44144 
L 381.653389 135.44144 
L 380.791927 135.44144 
L 379.930464 135.44144 
z
" clip-path="url(#p0ebb3d9ee5)" style="fill: #008000; fill-opacity: 0.3"/>
   </g>
   <g id="PolyCollection_8">
    <path d="M 201.607737 135.44144 
L 201.607737 135.450205 
L 202.4692 135.528888 
L 203.330662 135.607771 
L 204.192125 135.843822 
L 205.053587 136.080071 
L 205.915049 136.519305 
L 206.776512 136.739021 
L 207.637974 136.958539 
L 208.499437 137.397971 
L 209.360899 137.837205 
L 210.222362 138.276438 
L 211.083824 138.740771 
L 211.945287 139.205104 
L 212.806749 139.359881 
L 213.668211 139.514659 
L 214.529674 139.669436 
L 215.391136 140.133769 
L 216.252599 140.734752 
L 217.114061 141.335735 
L 217.975524 141.936718 
L 218.836986 142.046277 
L 219.698449 142.101057 
L 220.559911 142.156036 
L 221.421374 142.265595 
L 222.282836 142.375155 
L 223.144298 141.715806 
L 224.005761 141.495891 
L 224.867223 141.276175 
L 225.728686 141.056259 
L 226.590148 140.726585 
L 227.451611 140.396911 
L 228.313073 140.231974 
L 229.174536 140.067037 
L 230.035998 139.737363 
L 230.89746 139.346535 
L 231.758923 138.955906 
L 232.620385 138.565078 
L 233.481848 138.581213 
L 234.34331 138.597348 
L 235.204773 138.613483 
L 236.066235 138.662088 
L 236.927698 138.710493 
L 237.78916 139.100923 
L 238.650623 139.491352 
L 239.512085 139.686567 
L 240.373547 139.881782 
L 241.23501 140.515434 
L 242.096472 141.148886 
L 242.957935 142.810604 
L 243.819397 143.620148 
L 244.68086 144.024721 
L 245.542322 144.429493 
L 246.403785 145.012747 
L 247.265247 145.304375 
L 248.126709 145.595802 
L 248.988172 146.179057 
L 249.849634 147.87404 
L 250.711097 148.783981 
L 251.572559 149.693921 
L 252.434022 150.569002 
L 253.295484 151.443884 
L 254.156947 151.983314 
L 255.018409 152.522745 
L 255.879872 153.062175 
L 256.741334 153.538061 
L 257.602796 154.013948 
L 258.464259 154.96572 
L 259.325721 155.063128 
L 260.187184 155.095598 
L 261.048646 155.128067 
L 261.910109 155.160536 
L 262.771571 155.257945 
L 263.633034 155.013727 
L 264.494496 154.769509 
L 265.355958 154.525291 
L 266.217421 153.792438 
L 267.078883 152.426731 
L 267.940346 151.523364 
L 268.801808 151.222175 
L 269.663271 150.920986 
L 270.524733 150.619798 
L 271.386196 149.716431 
L 272.247658 148.161484 
L 273.109121 146.606338 
L 273.970583 146.206945 
L 274.832045 145.807551 
L 275.693508 145.008564 
L 276.55497 144.714746 
L 277.416433 144.420927 
L 278.277895 143.833291 
L 279.139358 143.245654 
L 280.00082 142.658017 
L 280.862283 142.338901 
L 281.723745 142.019784 
L 282.585208 141.381352 
L 283.44667 140.743118 
L 284.308132 139.795928 
L 285.169595 139.479998 
L 286.031057 139.164268 
L 286.89252 138.848538 
L 287.753982 138.213492 
L 288.615445 137.578645 
L 289.476907 136.943599 
L 290.33837 136.536835 
L 291.199832 136.13007 
L 292.061294 135.926489 
L 292.922757 135.723107 
L 293.784219 135.519725 
L 293.784219 135.44144 
L 293.784219 135.44144 
L 292.922757 135.44144 
L 292.061294 135.44144 
L 291.199832 135.44144 
L 290.33837 135.44144 
L 289.476907 135.44144 
L 288.615445 135.44144 
L 287.753982 135.44144 
L 286.89252 135.44144 
L 286.031057 135.44144 
L 285.169595 135.44144 
L 284.308132 135.44144 
L 283.44667 135.44144 
L 282.585208 135.44144 
L 281.723745 135.44144 
L 280.862283 135.44144 
L 280.00082 135.44144 
L 279.139358 135.44144 
L 278.277895 135.44144 
L 277.416433 135.44144 
L 276.55497 135.44144 
L 275.693508 135.44144 
L 274.832045 135.44144 
L 273.970583 135.44144 
L 273.109121 135.44144 
L 272.247658 135.44144 
L 271.386196 135.44144 
L 270.524733 135.44144 
L 269.663271 135.44144 
L 268.801808 135.44144 
L 267.940346 135.44144 
L 267.078883 135.44144 
L 266.217421 135.44144 
L 265.355958 135.44144 
L 264.494496 135.44144 
L 263.633034 135.44144 
L 262.771571 135.44144 
L 261.910109 135.44144 
L 261.048646 135.44144 
L 260.187184 135.44144 
L 259.325721 135.44144 
L 258.464259 135.44144 
L 257.602796 135.44144 
L 256.741334 135.44144 
L 255.879872 135.44144 
L 255.018409 135.44144 
L 254.156947 135.44144 
L 253.295484 135.44144 
L 252.434022 135.44144 
L 251.572559 135.44144 
L 250.711097 135.44144 
L 249.849634 135.44144 
L 248.988172 135.44144 
L 248.126709 135.44144 
L 247.265247 135.44144 
L 246.403785 135.44144 
L 245.542322 135.44144 
L 244.68086 135.44144 
L 243.819397 135.44144 
L 242.957935 135.44144 
L 242.096472 135.44144 
L 241.23501 135.44144 
L 240.373547 135.44144 
L 239.512085 135.44144 
L 238.650623 135.44144 
L 237.78916 135.44144 
L 236.927698 135.44144 
L 236.066235 135.44144 
L 235.204773 135.44144 
L 234.34331 135.44144 
L 233.481848 135.44144 
L 232.620385 135.44144 
L 231.758923 135.44144 
L 230.89746 135.44144 
L 230.035998 135.44144 
L 229.174536 135.44144 
L 228.313073 135.44144 
L 227.451611 135.44144 
L 226.590148 135.44144 
L 225.728686 135.44144 
L 224.867223 135.44144 
L 224.005761 135.44144 
L 223.144298 135.44144 
L 222.282836 135.44144 
L 221.421374 135.44144 
L 220.559911 135.44144 
L 219.698449 135.44144 
L 218.836986 135.44144 
L 217.975524 135.44144 
L 217.114061 135.44144 
L 216.252599 135.44144 
L 215.391136 135.44144 
L 214.529674 135.44144 
L 213.668211 135.44144 
L 212.806749 135.44144 
L 211.945287 135.44144 
L 211.083824 135.44144 
L 210.222362 135.44144 
L 209.360899 135.44144 
L 208.499437 135.44144 
L 207.637974 135.44144 
L 206.776512 135.44144 
L 205.915049 135.44144 
L 205.053587 135.44144 
L 204.192125 135.44144 
L 203.330662 135.44144 
L 202.4692 135.44144 
L 201.607737 135.44144 
z
" clip-path="url(#p0ebb3d9ee5)" style="fill: #ff0000; fill-opacity: 0.3"/>
    <path d="M 391.990939 135.44144 
L 391.990939 135.711155 
L 392.852401 136.821091 
L 393.713864 137.37586 
L 394.575326 137.930828 
L 395.436789 138.467669 
L 396.298251 139.00471 
L 397.159713 139.541551 
L 398.021176 140.347111 
L 398.882638 140.749692 
L 399.744101 141.152472 
L 400.605563 141.958032 
L 401.467026 142.763393 
L 402.328488 143.729309 
L 403.189951 144.695025 
L 404.051413 145.222703 
L 404.912875 145.750182 
L 405.774338 145.926074 
L 406.6358 146.101967 
L 407.497263 146.277859 
L 408.358725 146.641597 
L 409.220188 147.005533 
L 410.08165 147.733007 
L 410.943113 147.991368 
L 411.804575 148.249729 
L 412.666038 148.379009 
L 413.5275 148.50809 
L 414.388962 148.766451 
L 415.250425 148.47323 
L 416.111887 148.180209 
L 416.97335 148.033599 
L 417.834812 147.886988 
L 418.696275 147.5607 
L 419.557737 147.397556 
L 420.4192 147.234413 
L 421.280662 146.88701 
L 422.142125 146.539806 
L 423.003587 146.366105 
L 423.865049 146.192403 
L 424.726512 145.845 
L 425.587974 145.497797 
L 426.449437 145.150394 
L 427.310899 144.808768 
L 428.172362 144.467142 
L 429.033824 144.239258 
L 429.895287 144.011574 
L 430.756749 143.78369 
L 431.618211 143.78369 
L 432.479674 143.78369 
L 433.341136 143.78369 
L 433.341136 135.44144 
L 433.341136 135.44144 
L 432.479674 135.44144 
L 431.618211 135.44144 
L 430.756749 135.44144 
L 429.895287 135.44144 
L 429.033824 135.44144 
L 428.172362 135.44144 
L 427.310899 135.44144 
L 426.449437 135.44144 
L 425.587974 135.44144 
L 424.726512 135.44144 
L 423.865049 135.44144 
L 423.003587 135.44144 
L 422.142125 135.44144 
L 421.280662 135.44144 
L 420.4192 135.44144 
L 419.557737 135.44144 
L 418.696275 135.44144 
L 417.834812 135.44144 
L 416.97335 135.44144 
L 416.111887 135.44144 
L 415.250425 135.44144 
L 414.388962 135.44144 
L 413.5275 135.44144 
L 412.666038 135.44144 
L 411.804575 135.44144 
L 410.943113 135.44144 
L 410.08165 135.44144 
L 409.220188 135.44144 
L 408.358725 135.44144 
L 407.497263 135.44144 
L 406.6358 135.44144 
L 405.774338 135.44144 
L 404.912875 135.44144 
L 404.051413 135.44144 
L 403.189951 135.44144 
L 402.328488 135.44144 
L 401.467026 135.44144 
L 400.605563 135.44144 
L 399.744101 135.44144 
L 398.882638 135.44144 
L 398.021176 135.44144 
L 397.159713 135.44144 
L 396.298251 135.44144 
L 395.436789 135.44144 
L 394.575326 135.44144 
L 393.713864 135.44144 
L 392.852401 135.44144 
L 391.990939 135.44144 
z
" clip-path="url(#p0ebb3d9ee5)" style="fill: #ff0000; fill-opacity: 0.3"/>
   </g>
   <g id="matplotlib.axis_4">
    <g id="ytick_8">
     <g id="line2d_21">
      <path d="M 162.885 155.361329 
L 446.22 155.361329 
" clip-path="url(#p0ebb3d9ee5)" style="fill: none; stroke: #b0b0b0; stroke-width: 0.8; stroke-linecap: square"/>
     </g>
     <g id="line2d_22">
      <g>
       <use xlink:href="#m1ff34fcdb7" x="162.885" y="155.361329" style="stroke: #000000; stroke-width: 0.8"/>
      </g>
     </g>
     <g id="text_12">
      <!-- −1000 -->
      <g transform="translate(110.214922 160.490274) scale(0.135 -0.135)">
       <use xlink:href="#DejaVuSans-2212"/>
       <use xlink:href="#DejaVuSans-31" x="83.789062"/>
       <use xlink:href="#DejaVuSans-30" x="147.412109"/>
       <use xlink:href="#DejaVuSans-30" x="211.035156"/>
       <use xlink:href="#DejaVuSans-30" x="274.658203"/>
      </g>
     </g>
    </g>
    <g id="ytick_9">
     <g id="line2d_23">
      <path d="M 162.885 135.44144 
L 446.22 135.44144 
" clip-path="url(#p0ebb3d9ee5)" style="fill: none; stroke: #b0b0b0; stroke-width: 0.8; stroke-linecap: square"/>
     </g>
     <g id="line2d_24">
      <g>
       <use xlink:href="#m1ff34fcdb7" x="162.885" y="135.44144" style="stroke: #000000; stroke-width: 0.8"/>
      </g>
     </g>
     <g id="text_13">
      <!-- 0 -->
      <g transform="translate(147.295625 140.570385) scale(0.135 -0.135)">
       <use xlink:href="#DejaVuSans-30"/>
      </g>
     </g>
    </g>
    <g id="text_14">
     <!-- PEU_3-4 [kW] -->
     <g transform="translate(14.544844 141.671736) scale(0.135 -0.135)">
      <defs>
       <path id="DejaVuSans-34" d="M 2419 4116 
L 825 1625 
L 2419 1625 
L 2419 4116 
z
M 2253 4666 
L 3047 4666 
L 3047 1625 
L 3713 1625 
L 3713 1100 
L 3047 1100 
L 3047 0 
L 2419 0 
L 2419 1100 
L 313 1100 
L 313 1709 
L 2253 4666 
z
" transform="scale(0.015625)"/>
      </defs>
      <use xlink:href="#DejaVuSans-50"/>
      <use xlink:href="#DejaVuSans-45" x="60.302734"/>
      <use xlink:href="#DejaVuSans-55" x="123.486328"/>
      <use xlink:href="#DejaVuSans-5f" x="196.679688"/>
      <use xlink:href="#DejaVuSans-33" x="246.679688"/>
      <use xlink:href="#DejaVuSans-2d" x="310.302734"/>
      <use xlink:href="#DejaVuSans-34" x="346.386719"/>
      <use xlink:href="#DejaVuSans-20" x="410.009766"/>
      <use xlink:href="#DejaVuSans-5b" x="441.796875"/>
      <use xlink:href="#DejaVuSans-6b" x="480.810547"/>
      <use xlink:href="#DejaVuSans-57" x="538.720703"/>
      <use xlink:href="#DejaVuSans-5d" x="637.597656"/>
     </g>
    </g>
   </g>
   <g id="line2d_25">
    <path d="M 175.763864 135.44144 
L 191.270188 135.44144 
L 192.13165 135.268934 
L 199.884812 135.135271 
L 200.746275 135.371521 
L 203.330662 135.607771 
L 205.053587 136.080071 
L 205.915049 136.519305 
L 207.637974 136.958539 
L 211.945287 139.205104 
L 214.529674 139.669436 
L 215.391136 140.133769 
L 217.975524 141.936718 
L 222.282836 142.375155 
L 223.144298 141.715806 
L 226.590148 140.726585 
L 227.451611 140.396911 
L 229.174536 140.067037 
L 230.89746 139.346535 
L 232.620385 138.565078 
L 236.927698 138.710493 
L 238.650623 139.491352 
L 240.373547 139.881782 
L 242.096472 141.148886 
L 242.957935 142.810604 
L 243.819397 143.620148 
L 245.542322 144.429493 
L 246.403785 145.012747 
L 248.126709 145.595802 
L 248.988172 146.179057 
L 249.849634 147.87404 
L 253.295484 151.443884 
L 257.602796 154.013948 
L 258.464259 154.96572 
L 260.187184 155.095598 
L 262.771571 155.257945 
L 265.355958 154.525291 
L 266.217421 153.792438 
L 267.078883 152.426731 
L 267.940346 151.523364 
L 270.524733 150.619798 
L 271.386196 149.716431 
L 273.109121 146.606338 
L 274.832045 145.807551 
L 275.693508 145.008564 
L 277.416433 144.420927 
L 280.00082 142.658017 
L 281.723745 142.019784 
L 283.44667 140.743118 
L 284.308132 139.795928 
L 286.89252 138.848538 
L 289.476907 136.943599 
L 291.199832 136.13007 
L 294.645682 135.316343 
L 295.507144 134.883882 
L 297.230069 134.451621 
L 298.952994 134.942447 
L 304.983231 135.44144 
L 379.069002 135.44144 
L 379.930464 135.245627 
L 382.514852 135.058181 
L 384.237777 134.857588 
L 385.960702 134.661775 
L 387.683626 134.56377 
L 391.129476 135.328693 
L 391.990939 135.711155 
L 392.852401 136.821091 
L 397.159713 139.541551 
L 398.021176 140.347111 
L 399.744101 141.152472 
L 401.467026 142.763393 
L 403.189951 144.695025 
L 404.912875 145.750182 
L 407.497263 146.277859 
L 409.220188 147.005533 
L 410.08165 147.733007 
L 411.804575 148.249729 
L 413.5275 148.50809 
L 414.388962 148.766451 
L 416.111887 148.180209 
L 417.834812 147.886988 
L 418.696275 147.5607 
L 420.4192 147.234413 
L 422.142125 146.539806 
L 423.865049 146.192403 
L 428.172362 144.467142 
L 430.756749 143.78369 
L 433.341136 143.78369 
L 433.341136 143.78369 
" clip-path="url(#p0ebb3d9ee5)" style="fill: none; stroke: #1f77b4; stroke-width: 1.5; stroke-linecap: square"/>
   </g>
   <g id="line2d_26">
    <path d="M 162.885 135.44144 
L 446.22 135.44144 
" clip-path="url(#p0ebb3d9ee5)" style="fill: none; stroke: #000000; stroke-width: 1.5; stroke-linecap: square"/>
   </g>
   <g id="patch_18">
    <path d="M 162.885 156.298261 
L 162.885 133.411304 
" style="fill: none; stroke: #000000; stroke-width: 0.8; stroke-linejoin: miter; stroke-linecap: square"/>
   </g>
   <g id="patch_19">
    <path d="M 446.22 156.298261 
L 446.22 133.411304 
" style="fill: none; stroke: #000000; stroke-width: 0.8; stroke-linejoin: miter; stroke-linecap: square"/>
   </g>
   <g id="patch_20">
    <path d="M 162.885 156.298261 
L 446.22 156.298261 
" style="fill: none; stroke: #000000; stroke-width: 0.8; stroke-linejoin: miter; stroke-linecap: square"/>
   </g>
   <g id="patch_21">
    <path d="M 162.885 133.411304 
L 446.22 133.411304 
" style="fill: none; stroke: #000000; stroke-width: 0.8; stroke-linejoin: miter; stroke-linecap: square"/>
   </g>
  </g>
  <g id="axes_5">
   <g id="patch_22">
    <path d="M 162.885 190.628696 
L 446.22 190.628696 
L 446.22 167.741739 
L 162.885 167.741739 
z
" style="fill: #ffffff"/>
   </g>
   <g id="matplotlib.axis_5">
    <g id="ytick_10">
     <g id="line2d_27">
      <g>
       <use xlink:href="#m1ff34fcdb7" x="162.885" y="189.588379" style="stroke: #000000; stroke-width: 0.8"/>
      </g>
     </g>
     <g id="text_15">
      <!-- 0 -->
      <g transform="translate(147.295625 194.717325) scale(0.135 -0.135)">
       <use xlink:href="#DejaVuSans-30"/>
      </g>
     </g>
    </g>
    <g id="ytick_11">
     <g id="line2d_28">
      <g>
       <use xlink:href="#m1ff34fcdb7" x="162.885" y="168.782055" style="stroke: #000000; stroke-width: 0.8"/>
      </g>
     </g>
     <g id="text_16">
      <!-- 1 -->
      <g transform="translate(147.295625 173.911001) scale(0.135 -0.135)">
       <use xlink:href="#DejaVuSans-31"/>
      </g>
     </g>
    </g>
    <g id="text_17">
     <!-- SW_3-1 -->
     <g transform="translate(49.436719 176.002171) scale(0.135 -0.135)">
      <defs>
       <path id="DejaVuSans-53" d="M 3425 4513 
L 3425 3897 
Q 3066 4069 2747 4153 
Q 2428 4238 2131 4238 
Q 1616 4238 1336 4038 
Q 1056 3838 1056 3469 
Q 1056 3159 1242 3001 
Q 1428 2844 1947 2747 
L 2328 2669 
Q 3034 2534 3370 2195 
Q 3706 1856 3706 1288 
Q 3706 609 3251 259 
Q 2797 -91 1919 -91 
Q 1588 -91 1214 -16 
Q 841 59 441 206 
L 441 856 
Q 825 641 1194 531 
Q 1563 422 1919 422 
Q 2459 422 2753 634 
Q 3047 847 3047 1241 
Q 3047 1584 2836 1778 
Q 2625 1972 2144 2069 
L 1759 2144 
Q 1053 2284 737 2584 
Q 422 2884 422 3419 
Q 422 4038 858 4394 
Q 1294 4750 2059 4750 
Q 2388 4750 2728 4690 
Q 3069 4631 3425 4513 
z
" transform="scale(0.015625)"/>
      </defs>
      <use xlink:href="#DejaVuSans-53"/>
      <use xlink:href="#DejaVuSans-57" x="63.476562"/>
      <use xlink:href="#DejaVuSans-5f" x="162.353516"/>
      <use xlink:href="#DejaVuSans-33" x="212.353516"/>
      <use xlink:href="#DejaVuSans-2d" x="275.976562"/>
      <use xlink:href="#DejaVuSans-31" x="312.060547"/>
     </g>
    </g>
   </g>
   <g id="line2d_29">
    <path d="M 175.763864 189.588379 
L 433.341136 189.588379 
L 433.341136 189.588379 
" clip-path="url(#p020febe3b3)" style="fill: none; stroke: #1f77b4; stroke-width: 1.5; stroke-linecap: square"/>
   </g>
   <g id="line2d_30">
    <path d="M 175.763864 168.782055 
L 199.02335 168.782055 
L 199.884812 189.588379 
L 242.957935 189.588379 
L 243.819397 168.782055 
L 294.645682 168.782055 
L 295.507144 189.588379 
L 302.398844 189.588379 
L 303.260306 168.782055 
L 380.791927 168.782055 
L 381.653389 189.588379 
L 391.129476 189.588379 
L 391.990939 168.782055 
L 433.341136 168.782055 
L 433.341136 168.782055 
" clip-path="url(#p020febe3b3)" style="fill: none; stroke: #ff7f0e; stroke-width: 1.5; stroke-linecap: square"/>
   </g>
   <g id="patch_23">
    <path d="M 162.885 190.628696 
L 162.885 167.741739 
" style="fill: none; stroke: #000000; stroke-width: 0.8; stroke-linejoin: miter; stroke-linecap: square"/>
   </g>
   <g id="patch_24">
    <path d="M 446.22 190.628696 
L 446.22 167.741739 
" style="fill: none; stroke: #000000; stroke-width: 0.8; stroke-linejoin: miter; stroke-linecap: square"/>
   </g>
   <g id="patch_25">
    <path d="M 162.885 190.628696 
L 446.22 190.628696 
" style="fill: none; stroke: #000000; stroke-width: 0.8; stroke-linejoin: miter; stroke-linecap: square"/>
   </g>
   <g id="patch_26">
    <path d="M 162.885 167.741739 
L 446.22 167.741739 
" style="fill: none; stroke: #000000; stroke-width: 0.8; stroke-linejoin: miter; stroke-linecap: square"/>
   </g>
  </g>
  <g id="axes_6">
   <g id="patch_27">
    <path d="M 162.885 224.95913 
L 446.22 224.95913 
L 446.22 202.072174 
L 162.885 202.072174 
z
" style="fill: #ffffff"/>
   </g>
   <g id="matplotlib.axis_6">
    <g id="ytick_12">
     <g id="line2d_31">
      <g>
       <use xlink:href="#m1ff34fcdb7" x="162.885" y="223.918814" style="stroke: #000000; stroke-width: 0.8"/>
      </g>
     </g>
     <g id="text_18">
      <!-- 0 -->
      <g transform="translate(147.295625 229.04776) scale(0.135 -0.135)">
       <use xlink:href="#DejaVuSans-30"/>
      </g>
     </g>
    </g>
    <g id="ytick_13">
     <g id="line2d_32">
      <g>
       <use xlink:href="#m1ff34fcdb7" x="162.885" y="203.11249" style="stroke: #000000; stroke-width: 0.8"/>
      </g>
     </g>
     <g id="text_19">
      <!-- 1 -->
      <g transform="translate(147.295625 208.241435) scale(0.135 -0.135)">
       <use xlink:href="#DejaVuSans-31"/>
      </g>
     </g>
    </g>
    <g id="text_20">
     <!-- SW_3-2 -->
     <g transform="translate(49.436719 210.332605) scale(0.135 -0.135)">
      <use xlink:href="#DejaVuSans-53"/>
      <use xlink:href="#DejaVuSans-57" x="63.476562"/>
      <use xlink:href="#DejaVuSans-5f" x="162.353516"/>
      <use xlink:href="#DejaVuSans-33" x="212.353516"/>
      <use xlink:href="#DejaVuSans-2d" x="275.976562"/>
      <use xlink:href="#DejaVuSans-32" x="312.060547"/>
     </g>
    </g>
   </g>
   <g id="line2d_33">
    <path d="M 175.763864 223.918814 
L 433.341136 223.918814 
L 433.341136 223.918814 
" clip-path="url(#p33026c180a)" style="fill: none; stroke: #1f77b4; stroke-width: 1.5; stroke-linecap: square"/>
   </g>
   <g id="line2d_34">
    <path d="M 175.763864 203.11249 
L 191.270188 203.11249 
L 192.13165 223.918814 
L 200.746275 223.918814 
L 201.607737 203.11249 
L 292.061294 203.11249 
L 292.922757 223.918814 
L 302.398844 223.918814 
L 303.260306 203.11249 
L 380.791927 203.11249 
L 381.653389 223.918814 
L 382.514852 203.11249 
L 391.990939 203.11249 
L 392.852401 223.918814 
L 433.341136 223.918814 
L 433.341136 223.918814 
" clip-path="url(#p33026c180a)" style="fill: none; stroke: #ff7f0e; stroke-width: 1.5; stroke-linecap: square"/>
   </g>
   <g id="patch_28">
    <path d="M 162.885 224.95913 
L 162.885 202.072174 
" style="fill: none; stroke: #000000; stroke-width: 0.8; stroke-linejoin: miter; stroke-linecap: square"/>
   </g>
   <g id="patch_29">
    <path d="M 446.22 224.95913 
L 446.22 202.072174 
" style="fill: none; stroke: #000000; stroke-width: 0.8; stroke-linejoin: miter; stroke-linecap: square"/>
   </g>
   <g id="patch_30">
    <path d="M 162.885 224.95913 
L 446.22 224.95913 
" style="fill: none; stroke: #000000; stroke-width: 0.8; stroke-linejoin: miter; stroke-linecap: square"/>
   </g>
   <g id="patch_31">
    <path d="M 162.885 202.072174 
L 446.22 202.072174 
" style="fill: none; stroke: #000000; stroke-width: 0.8; stroke-linejoin: miter; stroke-linecap: square"/>
   </g>
  </g>
  <g id="axes_7">
   <g id="patch_32">
    <path d="M 162.885 259.289565 
L 446.22 259.289565 
L 446.22 236.402609 
L 162.885 236.402609 
z
" style="fill: #ffffff"/>
   </g>
   <g id="matplotlib.axis_7">
    <g id="ytick_14">
     <g id="line2d_35">
      <g>
       <use xlink:href="#m1ff34fcdb7" x="162.885" y="258.249249" style="stroke: #000000; stroke-width: 0.8"/>
      </g>
     </g>
     <g id="text_21">
      <!-- 0 -->
      <g transform="translate(147.295625 263.378194) scale(0.135 -0.135)">
       <use xlink:href="#DejaVuSans-30"/>
      </g>
     </g>
    </g>
    <g id="ytick_15">
     <g id="line2d_36">
      <g>
       <use xlink:href="#m1ff34fcdb7" x="162.885" y="237.442925" style="stroke: #000000; stroke-width: 0.8"/>
      </g>
     </g>
     <g id="text_22">
      <!-- 1 -->
      <g transform="translate(147.295625 242.57187) scale(0.135 -0.135)">
       <use xlink:href="#DejaVuSans-31"/>
      </g>
     </g>
    </g>
    <g id="text_23">
     <!-- SW_3-4 -->
     <g transform="translate(49.436719 244.66304) scale(0.135 -0.135)">
      <use xlink:href="#DejaVuSans-53"/>
      <use xlink:href="#DejaVuSans-57" x="63.476562"/>
      <use xlink:href="#DejaVuSans-5f" x="162.353516"/>
      <use xlink:href="#DejaVuSans-33" x="212.353516"/>
      <use xlink:href="#DejaVuSans-2d" x="275.976562"/>
      <use xlink:href="#DejaVuSans-34" x="312.060547"/>
     </g>
    </g>
   </g>
   <g id="line2d_37">
    <path d="M 175.763864 258.249249 
L 242.957935 258.249249 
L 243.819397 237.442925 
L 288.615445 237.442925 
L 289.476907 258.249249 
L 427.310899 258.249249 
L 428.172362 237.442925 
L 433.341136 237.442925 
L 433.341136 237.442925 
" clip-path="url(#pc869ac2782)" style="fill: none; stroke: #1f77b4; stroke-width: 1.5; stroke-linecap: square"/>
   </g>
   <g id="line2d_38">
    <path d="M 175.763864 237.442925 
L 200.746275 237.442925 
L 201.607737 258.249249 
L 293.784219 258.249249 
L 294.645682 237.442925 
L 391.129476 237.442925 
L 391.990939 258.249249 
L 433.341136 258.249249 
L 433.341136 258.249249 
" clip-path="url(#pc869ac2782)" style="fill: none; stroke: #ff7f0e; stroke-width: 1.5; stroke-linecap: square"/>
   </g>
   <g id="patch_33">
    <path d="M 162.885 259.289565 
L 162.885 236.402609 
" style="fill: none; stroke: #000000; stroke-width: 0.8; stroke-linejoin: miter; stroke-linecap: square"/>
   </g>
   <g id="patch_34">
    <path d="M 446.22 259.289565 
L 446.22 236.402609 
" style="fill: none; stroke: #000000; stroke-width: 0.8; stroke-linejoin: miter; stroke-linecap: square"/>
   </g>
   <g id="patch_35">
    <path d="M 162.885 259.289565 
L 446.22 259.289565 
" style="fill: none; stroke: #000000; stroke-width: 0.8; stroke-linejoin: miter; stroke-linecap: square"/>
   </g>
   <g id="patch_36">
    <path d="M 162.885 236.402609 
L 446.22 236.402609 
" style="fill: none; stroke: #000000; stroke-width: 0.8; stroke-linejoin: miter; stroke-linecap: square"/>
   </g>
  </g>
  <g id="axes_8">
   <g id="patch_37">
    <path d="M 162.885 293.62 
L 446.22 293.62 
L 446.22 270.733043 
L 162.885 270.733043 
z
" style="fill: #ffffff"/>
   </g>
   <g id="matplotlib.axis_8">
    <g id="xtick_1">
     <g id="line2d_39">
      <defs>
       <path id="m1a8338760f" d="M 0 0 
L 0 3.5 
" style="stroke: #000000; stroke-width: 0.8"/>
      </defs>
      <g>
       <use xlink:href="#m1a8338760f" x="175.763864" y="293.62" style="stroke: #000000; stroke-width: 0.8"/>
      </g>
     </g>
     <g id="text_24">
      <!-- 00 -->
      <g transform="translate(167.174489 310.877891) scale(0.135 -0.135)">
       <use xlink:href="#DejaVuSans-30"/>
       <use xlink:href="#DejaVuSans-30" x="63.623047"/>
      </g>
     </g>
    </g>
    <g id="xtick_2">
     <g id="line2d_40">
      <g>
       <use xlink:href="#m1a8338760f" x="201.607737" y="293.62" style="stroke: #000000; stroke-width: 0.8"/>
      </g>
     </g>
     <g id="text_25">
      <!-- 02 -->
      <g transform="translate(193.018362 310.877891) scale(0.135 -0.135)">
       <use xlink:href="#DejaVuSans-30"/>
       <use xlink:href="#DejaVuSans-32" x="63.623047"/>
      </g>
     </g>
    </g>
    <g id="xtick_3">
     <g id="line2d_41">
      <g>
       <use xlink:href="#m1a8338760f" x="227.451611" y="293.62" style="stroke: #000000; stroke-width: 0.8"/>
      </g>
     </g>
     <g id="text_26">
      <!-- 04 -->
      <g transform="translate(218.862236 310.877891) scale(0.135 -0.135)">
       <use xlink:href="#DejaVuSans-30"/>
       <use xlink:href="#DejaVuSans-34" x="63.623047"/>
      </g>
     </g>
    </g>
    <g id="xtick_4">
     <g id="line2d_42">
      <g>
       <use xlink:href="#m1a8338760f" x="253.295484" y="293.62" style="stroke: #000000; stroke-width: 0.8"/>
      </g>
     </g>
     <g id="text_27">
      <!-- 06 -->
      <g transform="translate(244.706109 310.877891) scale(0.135 -0.135)">
       <defs>
        <path id="DejaVuSans-36" d="M 2113 2584 
Q 1688 2584 1439 2293 
Q 1191 2003 1191 1497 
Q 1191 994 1439 701 
Q 1688 409 2113 409 
Q 2538 409 2786 701 
Q 3034 994 3034 1497 
Q 3034 2003 2786 2293 
Q 2538 2584 2113 2584 
z
M 3366 4563 
L 3366 3988 
Q 3128 4100 2886 4159 
Q 2644 4219 2406 4219 
Q 1781 4219 1451 3797 
Q 1122 3375 1075 2522 
Q 1259 2794 1537 2939 
Q 1816 3084 2150 3084 
Q 2853 3084 3261 2657 
Q 3669 2231 3669 1497 
Q 3669 778 3244 343 
Q 2819 -91 2113 -91 
Q 1303 -91 875 529 
Q 447 1150 447 2328 
Q 447 3434 972 4092 
Q 1497 4750 2381 4750 
Q 2619 4750 2861 4703 
Q 3103 4656 3366 4563 
z
" transform="scale(0.015625)"/>
       </defs>
       <use xlink:href="#DejaVuSans-30"/>
       <use xlink:href="#DejaVuSans-36" x="63.623047"/>
      </g>
     </g>
    </g>
    <g id="xtick_5">
     <g id="line2d_43">
      <g>
       <use xlink:href="#m1a8338760f" x="279.139358" y="293.62" style="stroke: #000000; stroke-width: 0.8"/>
      </g>
     </g>
     <g id="text_28">
      <!-- 08 -->
      <g transform="translate(270.549983 310.877891) scale(0.135 -0.135)">
       <defs>
        <path id="DejaVuSans-38" d="M 2034 2216 
Q 1584 2216 1326 1975 
Q 1069 1734 1069 1313 
Q 1069 891 1326 650 
Q 1584 409 2034 409 
Q 2484 409 2743 651 
Q 3003 894 3003 1313 
Q 3003 1734 2745 1975 
Q 2488 2216 2034 2216 
z
M 1403 2484 
Q 997 2584 770 2862 
Q 544 3141 544 3541 
Q 544 4100 942 4425 
Q 1341 4750 2034 4750 
Q 2731 4750 3128 4425 
Q 3525 4100 3525 3541 
Q 3525 3141 3298 2862 
Q 3072 2584 2669 2484 
Q 3125 2378 3379 2068 
Q 3634 1759 3634 1313 
Q 3634 634 3220 271 
Q 2806 -91 2034 -91 
Q 1263 -91 848 271 
Q 434 634 434 1313 
Q 434 1759 690 2068 
Q 947 2378 1403 2484 
z
M 1172 3481 
Q 1172 3119 1398 2916 
Q 1625 2713 2034 2713 
Q 2441 2713 2670 2916 
Q 2900 3119 2900 3481 
Q 2900 3844 2670 4047 
Q 2441 4250 2034 4250 
Q 1625 4250 1398 4047 
Q 1172 3844 1172 3481 
z
" transform="scale(0.015625)"/>
       </defs>
       <use xlink:href="#DejaVuSans-30"/>
       <use xlink:href="#DejaVuSans-38" x="63.623047"/>
      </g>
     </g>
    </g>
    <g id="xtick_6">
     <g id="line2d_44">
      <g>
       <use xlink:href="#m1a8338760f" x="304.983231" y="293.62" style="stroke: #000000; stroke-width: 0.8"/>
      </g>
     </g>
     <g id="text_29">
      <!-- 10 -->
      <g transform="translate(296.393856 310.877891) scale(0.135 -0.135)">
       <use xlink:href="#DejaVuSans-31"/>
       <use xlink:href="#DejaVuSans-30" x="63.623047"/>
      </g>
     </g>
    </g>
    <g id="xtick_7">
     <g id="line2d_45">
      <g>
       <use xlink:href="#m1a8338760f" x="330.827105" y="293.62" style="stroke: #000000; stroke-width: 0.8"/>
      </g>
     </g>
     <g id="text_30">
      <!-- 12 -->
      <g transform="translate(322.23773 310.877891) scale(0.135 -0.135)">
       <use xlink:href="#DejaVuSans-31"/>
       <use xlink:href="#DejaVuSans-32" x="63.623047"/>
      </g>
     </g>
    </g>
    <g id="xtick_8">
     <g id="line2d_46">
      <g>
       <use xlink:href="#m1a8338760f" x="356.670978" y="293.62" style="stroke: #000000; stroke-width: 0.8"/>
      </g>
     </g>
     <g id="text_31">
      <!-- 14 -->
      <g transform="translate(348.081603 310.877891) scale(0.135 -0.135)">
       <use xlink:href="#DejaVuSans-31"/>
       <use xlink:href="#DejaVuSans-34" x="63.623047"/>
      </g>
     </g>
    </g>
    <g id="xtick_9">
     <g id="line2d_47">
      <g>
       <use xlink:href="#m1a8338760f" x="382.514852" y="293.62" style="stroke: #000000; stroke-width: 0.8"/>
      </g>
     </g>
     <g id="text_32">
      <!-- 16 -->
      <g transform="translate(373.925477 310.877891) scale(0.135 -0.135)">
       <use xlink:href="#DejaVuSans-31"/>
       <use xlink:href="#DejaVuSans-36" x="63.623047"/>
      </g>
     </g>
    </g>
    <g id="xtick_10">
     <g id="line2d_48">
      <g>
       <use xlink:href="#m1a8338760f" x="408.358725" y="293.62" style="stroke: #000000; stroke-width: 0.8"/>
      </g>
     </g>
     <g id="text_33">
      <!-- 18 -->
      <g transform="translate(399.76935 310.877891) scale(0.135 -0.135)">
       <use xlink:href="#DejaVuSans-31"/>
       <use xlink:href="#DejaVuSans-38" x="63.623047"/>
      </g>
     </g>
    </g>
    <g id="xtick_11">
     <g id="line2d_49">
      <g>
       <use xlink:href="#m1a8338760f" x="434.202599" y="293.62" style="stroke: #000000; stroke-width: 0.8"/>
      </g>
     </g>
     <g id="text_34">
      <!-- 20 -->
      <g transform="translate(425.613224 310.877891) scale(0.135 -0.135)">
       <use xlink:href="#DejaVuSans-32"/>
       <use xlink:href="#DejaVuSans-30" x="63.623047"/>
      </g>
     </g>
    </g>
    <g id="text_35">
     <!-- Time [Hours] -->
     <g transform="translate(260.849414 327.943359) scale(0.135 -0.135)">
      <defs>
       <path id="DejaVuSans-54" d="M -19 4666 
L 3928 4666 
L 3928 4134 
L 2272 4134 
L 2272 0 
L 1638 0 
L 1638 4134 
L -19 4134 
L -19 4666 
z
" transform="scale(0.015625)"/>
       <path id="DejaVuSans-6d" d="M 3328 2828 
Q 3544 3216 3844 3400 
Q 4144 3584 4550 3584 
Q 5097 3584 5394 3201 
Q 5691 2819 5691 2113 
L 5691 0 
L 5113 0 
L 5113 2094 
Q 5113 2597 4934 2840 
Q 4756 3084 4391 3084 
Q 3944 3084 3684 2787 
Q 3425 2491 3425 1978 
L 3425 0 
L 2847 0 
L 2847 2094 
Q 2847 2600 2669 2842 
Q 2491 3084 2119 3084 
Q 1678 3084 1418 2786 
Q 1159 2488 1159 1978 
L 1159 0 
L 581 0 
L 581 3500 
L 1159 3500 
L 1159 2956 
Q 1356 3278 1631 3431 
Q 1906 3584 2284 3584 
Q 2666 3584 2933 3390 
Q 3200 3197 3328 2828 
z
" transform="scale(0.015625)"/>
       <path id="DejaVuSans-65" d="M 3597 1894 
L 3597 1613 
L 953 1613 
Q 991 1019 1311 708 
Q 1631 397 2203 397 
Q 2534 397 2845 478 
Q 3156 559 3463 722 
L 3463 178 
Q 3153 47 2828 -22 
Q 2503 -91 2169 -91 
Q 1331 -91 842 396 
Q 353 884 353 1716 
Q 353 2575 817 3079 
Q 1281 3584 2069 3584 
Q 2775 3584 3186 3129 
Q 3597 2675 3597 1894 
z
M 3022 2063 
Q 3016 2534 2758 2815 
Q 2500 3097 2075 3097 
Q 1594 3097 1305 2825 
Q 1016 2553 972 2059 
L 3022 2063 
z
" transform="scale(0.015625)"/>
       <path id="DejaVuSans-48" d="M 628 4666 
L 1259 4666 
L 1259 2753 
L 3553 2753 
L 3553 4666 
L 4184 4666 
L 4184 0 
L 3553 0 
L 3553 2222 
L 1259 2222 
L 1259 0 
L 628 0 
L 628 4666 
z
" transform="scale(0.015625)"/>
       <path id="DejaVuSans-75" d="M 544 1381 
L 544 3500 
L 1119 3500 
L 1119 1403 
Q 1119 906 1312 657 
Q 1506 409 1894 409 
Q 2359 409 2629 706 
Q 2900 1003 2900 1516 
L 2900 3500 
L 3475 3500 
L 3475 0 
L 2900 0 
L 2900 538 
Q 2691 219 2414 64 
Q 2138 -91 1772 -91 
Q 1169 -91 856 284 
Q 544 659 544 1381 
z
M 1991 3584 
L 1991 3584 
z
" transform="scale(0.015625)"/>
       <path id="DejaVuSans-73" d="M 2834 3397 
L 2834 2853 
Q 2591 2978 2328 3040 
Q 2066 3103 1784 3103 
Q 1356 3103 1142 2972 
Q 928 2841 928 2578 
Q 928 2378 1081 2264 
Q 1234 2150 1697 2047 
L 1894 2003 
Q 2506 1872 2764 1633 
Q 3022 1394 3022 966 
Q 3022 478 2636 193 
Q 2250 -91 1575 -91 
Q 1294 -91 989 -36 
Q 684 19 347 128 
L 347 722 
Q 666 556 975 473 
Q 1284 391 1588 391 
Q 1994 391 2212 530 
Q 2431 669 2431 922 
Q 2431 1156 2273 1281 
Q 2116 1406 1581 1522 
L 1381 1569 
Q 847 1681 609 1914 
Q 372 2147 372 2553 
Q 372 3047 722 3315 
Q 1072 3584 1716 3584 
Q 2034 3584 2315 3537 
Q 2597 3491 2834 3397 
z
" transform="scale(0.015625)"/>
      </defs>
      <use xlink:href="#DejaVuSans-54"/>
      <use xlink:href="#DejaVuSans-69" x="57.958984"/>
      <use xlink:href="#DejaVuSans-6d" x="85.742188"/>
      <use xlink:href="#DejaVuSans-65" x="183.154297"/>
      <use xlink:href="#DejaVuSans-20" x="244.677734"/>
      <use xlink:href="#DejaVuSans-5b" x="276.464844"/>
      <use xlink:href="#DejaVuSans-48" x="315.478516"/>
      <use xlink:href="#DejaVuSans-6f" x="390.673828"/>
      <use xlink:href="#DejaVuSans-75" x="451.855469"/>
      <use xlink:href="#DejaVuSans-72" x="515.234375"/>
      <use xlink:href="#DejaVuSans-73" x="556.347656"/>
      <use xlink:href="#DejaVuSans-5d" x="608.447266"/>
     </g>
    </g>
   </g>
   <g id="matplotlib.axis_9">
    <g id="ytick_16">
     <g id="line2d_50">
      <g>
       <use xlink:href="#m1ff34fcdb7" x="162.885" y="288.043554" style="stroke: #000000; stroke-width: 0.8"/>
      </g>
     </g>
     <g id="text_36">
      <!-- −25 -->
      <g transform="translate(127.393672 293.172499) scale(0.135 -0.135)">
       <use xlink:href="#DejaVuSans-2212"/>
       <use xlink:href="#DejaVuSans-32" x="83.789062"/>
       <use xlink:href="#DejaVuSans-35" x="147.412109"/>
      </g>
     </g>
    </g>
    <g id="ytick_17">
     <g id="line2d_51">
      <g>
       <use xlink:href="#m1ff34fcdb7" x="162.885" y="271.77336" style="stroke: #000000; stroke-width: 0.8"/>
      </g>
     </g>
     <g id="text_37">
      <!-- 0 -->
      <g transform="translate(147.295625 276.902305) scale(0.135 -0.135)">
       <use xlink:href="#DejaVuSans-30"/>
      </g>
     </g>
    </g>
    <g id="text_38">
     <!-- Balance [kW] -->
     <g transform="translate(32.476641 279.368944) scale(0.135 -0.135)">
      <defs>
       <path id="DejaVuSans-42" d="M 1259 2228 
L 1259 519 
L 2272 519 
Q 2781 519 3026 730 
Q 3272 941 3272 1375 
Q 3272 1813 3026 2020 
Q 2781 2228 2272 2228 
L 1259 2228 
z
M 1259 4147 
L 1259 2741 
L 2194 2741 
Q 2656 2741 2882 2914 
Q 3109 3088 3109 3444 
Q 3109 3797 2882 3972 
Q 2656 4147 2194 4147 
L 1259 4147 
z
M 628 4666 
L 2241 4666 
Q 2963 4666 3353 4366 
Q 3744 4066 3744 3513 
Q 3744 3084 3544 2831 
Q 3344 2578 2956 2516 
Q 3422 2416 3680 2098 
Q 3938 1781 3938 1306 
Q 3938 681 3513 340 
Q 3088 0 2303 0 
L 628 0 
L 628 4666 
z
" transform="scale(0.015625)"/>
       <path id="DejaVuSans-61" d="M 2194 1759 
Q 1497 1759 1228 1600 
Q 959 1441 959 1056 
Q 959 750 1161 570 
Q 1363 391 1709 391 
Q 2188 391 2477 730 
Q 2766 1069 2766 1631 
L 2766 1759 
L 2194 1759 
z
M 3341 1997 
L 3341 0 
L 2766 0 
L 2766 531 
Q 2569 213 2275 61 
Q 1981 -91 1556 -91 
Q 1019 -91 701 211 
Q 384 513 384 1019 
Q 384 1609 779 1909 
Q 1175 2209 1959 2209 
L 2766 2209 
L 2766 2266 
Q 2766 2663 2505 2880 
Q 2244 3097 1772 3097 
Q 1472 3097 1187 3025 
Q 903 2953 641 2809 
L 641 3341 
Q 956 3463 1253 3523 
Q 1550 3584 1831 3584 
Q 2591 3584 2966 3190 
Q 3341 2797 3341 1997 
z
" transform="scale(0.015625)"/>
       <path id="DejaVuSans-6c" d="M 603 4863 
L 1178 4863 
L 1178 0 
L 603 0 
L 603 4863 
z
" transform="scale(0.015625)"/>
       <path id="DejaVuSans-6e" d="M 3513 2113 
L 3513 0 
L 2938 0 
L 2938 2094 
Q 2938 2591 2744 2837 
Q 2550 3084 2163 3084 
Q 1697 3084 1428 2787 
Q 1159 2491 1159 1978 
L 1159 0 
L 581 0 
L 581 3500 
L 1159 3500 
L 1159 2956 
Q 1366 3272 1645 3428 
Q 1925 3584 2291 3584 
Q 2894 3584 3203 3211 
Q 3513 2838 3513 2113 
z
" transform="scale(0.015625)"/>
      </defs>
      <use xlink:href="#DejaVuSans-42"/>
      <use xlink:href="#DejaVuSans-61" x="68.603516"/>
      <use xlink:href="#DejaVuSans-6c" x="129.882812"/>
      <use xlink:href="#DejaVuSans-61" x="157.666016"/>
      <use xlink:href="#DejaVuSans-6e" x="218.945312"/>
      <use xlink:href="#DejaVuSans-63" x="282.324219"/>
      <use xlink:href="#DejaVuSans-65" x="337.304688"/>
      <use xlink:href="#DejaVuSans-20" x="398.828125"/>
      <use xlink:href="#DejaVuSans-5b" x="430.615234"/>
      <use xlink:href="#DejaVuSans-6b" x="469.628906"/>
      <use xlink:href="#DejaVuSans-57" x="527.539062"/>
      <use xlink:href="#DejaVuSans-5d" x="626.416016"/>
     </g>
    </g>
   </g>
   <g id="line2d_52">
    <path d="M 175.763864 271.77336 
L 202.4692 271.77336 
L 203.330662 273.511016 
L 204.192125 285.947953 
L 205.053587 271.77336 
L 294.645682 271.77336 
L 295.507144 273.341806 
L 297.230069 275.307246 
L 298.952994 279.244633 
L 301.537381 278.977802 
L 302.398844 278.71097 
L 303.260306 271.77336 
L 391.129476 271.77336 
L 391.990939 285.264605 
L 392.852401 292.579684 
L 393.713864 271.77336 
L 425.587974 271.77336 
L 426.449437 272.847192 
L 427.310899 271.77336 
L 433.341136 271.77336 
L 433.341136 271.77336 
" clip-path="url(#p259940ff6e)" style="fill: none; stroke: #1f77b4; stroke-width: 1.5; stroke-linecap: square"/>
   </g>
   <g id="patch_38">
    <path d="M 162.885 293.62 
L 162.885 270.733043 
" style="fill: none; stroke: #000000; stroke-width: 0.8; stroke-linejoin: miter; stroke-linecap: square"/>
   </g>
   <g id="patch_39">
    <path d="M 446.22 293.62 
L 446.22 270.733043 
" style="fill: none; stroke: #000000; stroke-width: 0.8; stroke-linejoin: miter; stroke-linecap: square"/>
   </g>
   <g id="patch_40">
    <path d="M 162.885 293.62 
L 446.22 293.62 
" style="fill: none; stroke: #000000; stroke-width: 0.8; stroke-linejoin: miter; stroke-linecap: square"/>
   </g>
   <g id="patch_41">
    <path d="M 162.885 270.733043 
L 446.22 270.733043 
" style="fill: none; stroke: #000000; stroke-width: 0.8; stroke-linejoin: miter; stroke-linecap: square"/>
   </g>
  </g>
 </g>
 <defs>
  <clipPath id="p8fbf20723d">
   <rect x="162.885" y="30.42" width="283.335" height="22.886957"/>
  </clipPath>
  <clipPath id="p4be1073954">
   <rect x="162.885" y="64.750435" width="283.335" height="22.886957"/>
  </clipPath>
  <clipPath id="p9f5abaf5a4">
   <rect x="162.885" y="99.08087" width="283.335" height="22.886957"/>
  </clipPath>
  <clipPath id="p0ebb3d9ee5">
   <rect x="162.885" y="133.411304" width="283.335" height="22.886957"/>
  </clipPath>
  <clipPath id="p020febe3b3">
   <rect x="162.885" y="167.741739" width="283.335" height="22.886957"/>
  </clipPath>
  <clipPath id="p33026c180a">
   <rect x="162.885" y="202.072174" width="283.335" height="22.886957"/>
  </clipPath>
  <clipPath id="pc869ac2782">
   <rect x="162.885" y="236.402609" width="283.335" height="22.886957"/>
  </clipPath>
  <clipPath id="p259940ff6e">
   <rect x="162.885" y="270.733043" width="283.335" height="22.886957"/>
  </clipPath>
 </defs>
</svg>
