<?xml version="1.0" encoding="utf-8" standalone="no"?>
<!DOCTYPE svg PUBLIC "-//W3C//DTD SVG 1.1//EN"
  "http://www.w3.org/Graphics/SVG/1.1/DTD/svg11.dtd">
<svg xmlns:xlink="http://www.w3.org/1999/xlink" width="460.8pt" height="345.6pt" viewBox="0 0 460.8 345.6" xmlns="http://www.w3.org/2000/svg" version="1.1">
 <metadata>
  <rdf:RDF xmlns:dc="http://purl.org/dc/elements/1.1/" xmlns:cc="http://creativecommons.org/ns#" xmlns:rdf="http://www.w3.org/1999/02/22-rdf-syntax-ns#">
   <cc:Work>
    <dc:type rdf:resource="http://purl.org/dc/dcmitype/StillImage"/>
    <dc:date>2025-02-06T22:38:33.355114</dc:date>
    <dc:format>image/svg+xml</dc:format>
    <dc:creator>
     <cc:Agent>
      <dc:title>Matplotlib v3.8.0, https://matplotlib.org/</dc:title>
     </cc:Agent>
    </dc:creator>
   </cc:Work>
  </rdf:RDF>
 </metadata>
 <defs>
  <style type="text/css">*{stroke-linejoin: round; stroke-linecap: butt}</style>
 </defs>
 <g id="figure_1">
  <g id="patch_1">
   <path d="M 0 345.6 
L 460.8 345.6 
L 460.8 0 
L 0 0 
z
" style="fill: #ffffff"/>
  </g>
  <g id="axes_1">
   <g id="patch_2">
    <path d="M 162.885 53.306957 
L 446.22 53.306957 
L 446.22 30.42 
L 162.885 30.42 
z
" style="fill: #ffffff"/>
   </g>
   <g id="PolyCollection_1">
    <path d="M 240.337553 49.787567 
L 240.337553 49.630588 
L 241.055039 49.40535 
L 241.772524 49.180111 
L 242.490009 48.504395 
L 243.207495 47.67333 
L 243.92498 46.842265 
L 244.642466 46.286773 
L 245.359951 45.731281 
L 246.077437 44.620116 
L 246.794922 43.509132 
L 247.512408 42.544988 
L 248.229893 41.580663 
L 248.947378 40.616518 
L 249.664864 39.790885 
L 250.382349 38.96507 
L 251.099835 38.139437 
L 251.81732 37.317606 
L 252.534806 36.495775 
L 253.252291 35.673944 
L 253.969777 34.432959 
L 254.687262 33.191974 
L 255.404747 32.975426 
L 256.122233 32.759059 
L 256.839718 32.326145 
L 257.557204 31.893231 
L 258.274689 31.460316 
L 258.992175 31.748564 
L 259.70966 32.036992 
L 260.427145 32.32524 
L 261.144631 33.190344 
L 261.862116 34.055086 
L 262.579602 34.487639 
L 263.297087 34.92001 
L 264.014573 35.694222 
L 264.732058 36.468254 
L 265.449544 37.242466 
L 266.167029 38.016678 
L 266.884514 38.496668 
L 267.602 38.976658 
L 268.319485 39.456648 
L 269.036971 40.896618 
L 269.754456 41.109726 
L 270.471942 41.322833 
L 271.189427 41.535941 
L 271.906913 41.642585 
L 272.624398 41.749048 
L 273.341883 41.962156 
L 274.059369 42.175445 
L 274.776854 42.388552 
L 275.49434 42.60166 
L 276.211825 42.708123 
L 276.929311 42.814767 
L 277.646796 43.027875 
L 278.364281 43.134338 
L 279.081767 43.240982 
L 279.799252 43.397599 
L 280.516738 43.554216 
L 281.234223 43.710833 
L 281.951709 43.86745 
L 282.669194 43.945849 
L 283.38668 44.024067 
L 284.104165 44.180684 
L 284.82165 44.337482 
L 285.539136 44.494098 
L 286.256621 44.572316 
L 286.974107 44.650715 
L 287.691592 44.807332 
L 288.409078 44.963949 
L 289.126563 45.016094 
L 289.844048 45.068421 
L 290.561534 45.120566 
L 291.279019 45.277183 
L 291.996505 45.331682 
L 292.71399 45.386181 
L 293.431476 45.44068 
L 294.148961 45.603996 
L 294.866447 45.767493 
L 295.583932 45.93099 
L 296.301417 45.985489 
L 297.018903 46.039807 
L 297.736388 46.094306 
L 298.453874 46.257803 
L 299.171359 46.411885 
L 299.888845 46.565968 
L 300.60633 46.642918 
L 301.323816 46.719868 
L 302.041301 46.873951 
L 302.758786 46.951082 
L 303.476272 47.028033 
L 304.193757 47.22738 
L 304.911243 47.426908 
L 305.628728 47.626255 
L 306.346214 47.726019 
L 307.063699 47.825783 
L 307.781184 48.038709 
L 308.49867 48.251455 
L 309.216155 48.464381 
L 309.933641 48.535357 
L 310.651126 48.606332 
L 311.368612 48.677127 
L 312.086097 48.890053 
L 312.803583 49.076183 
L 313.521068 49.262312 
L 314.238553 49.448623 
L 314.956039 49.634753 
L 315.673524 49.727818 
L 315.673524 49.787567 
L 315.673524 49.787567 
L 314.956039 49.787567 
L 314.238553 49.787567 
L 313.521068 49.787567 
L 312.803583 49.787567 
L 312.086097 49.787567 
L 311.368612 49.787567 
L 310.651126 49.787567 
L 309.933641 49.787567 
L 309.216155 49.787567 
L 308.49867 49.787567 
L 307.781184 49.787567 
L 307.063699 49.787567 
L 306.346214 49.787567 
L 305.628728 49.787567 
L 304.911243 49.787567 
L 304.193757 49.787567 
L 303.476272 49.787567 
L 302.758786 49.787567 
L 302.041301 49.787567 
L 301.323816 49.787567 
L 300.60633 49.787567 
L 299.888845 49.787567 
L 299.171359 49.787567 
L 298.453874 49.787567 
L 297.736388 49.787567 
L 297.018903 49.787567 
L 296.301417 49.787567 
L 295.583932 49.787567 
L 294.866447 49.787567 
L 294.148961 49.787567 
L 293.431476 49.787567 
L 292.71399 49.787567 
L 291.996505 49.787567 
L 291.279019 49.787567 
L 290.561534 49.787567 
L 289.844048 49.787567 
L 289.126563 49.787567 
L 288.409078 49.787567 
L 287.691592 49.787567 
L 286.974107 49.787567 
L 286.256621 49.787567 
L 285.539136 49.787567 
L 284.82165 49.787567 
L 284.104165 49.787567 
L 283.38668 49.787567 
L 282.669194 49.787567 
L 281.951709 49.787567 
L 281.234223 49.787567 
L 280.516738 49.787567 
L 279.799252 49.787567 
L 279.081767 49.787567 
L 278.364281 49.787567 
L 277.646796 49.787567 
L 276.929311 49.787567 
L 276.211825 49.787567 
L 275.49434 49.787567 
L 274.776854 49.787567 
L 274.059369 49.787567 
L 273.341883 49.787567 
L 272.624398 49.787567 
L 271.906913 49.787567 
L 271.189427 49.787567 
L 270.471942 49.787567 
L 269.754456 49.787567 
L 269.036971 49.787567 
L 268.319485 49.787567 
L 267.602 49.787567 
L 266.884514 49.787567 
L 266.167029 49.787567 
L 265.449544 49.787567 
L 264.732058 49.787567 
L 264.014573 49.787567 
L 263.297087 49.787567 
L 262.579602 49.787567 
L 261.862116 49.787567 
L 261.144631 49.787567 
L 260.427145 49.787567 
L 259.70966 49.787567 
L 258.992175 49.787567 
L 258.274689 49.787567 
L 257.557204 49.787567 
L 256.839718 49.787567 
L 256.122233 49.787567 
L 255.404747 49.787567 
L 254.687262 49.787567 
L 253.969777 49.787567 
L 253.252291 49.787567 
L 252.534806 49.787567 
L 251.81732 49.787567 
L 251.099835 49.787567 
L 250.382349 49.787567 
L 249.664864 49.787567 
L 248.947378 49.787567 
L 248.229893 49.787567 
L 247.512408 49.787567 
L 246.794922 49.787567 
L 246.077437 49.787567 
L 245.359951 49.787567 
L 244.642466 49.787567 
L 243.92498 49.787567 
L 243.207495 49.787567 
L 242.490009 49.787567 
L 241.772524 49.787567 
L 241.055039 49.787567 
L 240.337553 49.787567 
z
" clip-path="url(#p5ac8463fe0)" style="fill: #008000; fill-opacity: 0.3"/>
    <path d="M 388.857039 49.787567 
L 388.857039 49.691243 
L 389.574525 49.71116 
L 389.574525 49.787567 
L 389.574525 49.787567 
L 388.857039 49.787567 
z
" clip-path="url(#p5ac8463fe0)" style="fill: #008000; fill-opacity: 0.3"/>
    <path d="M 391.009495 49.787567 
L 391.009495 49.767832 
L 391.726981 49.745561 
L 392.444466 49.700659 
L 393.161952 49.655937 
L 393.879437 49.64109 
L 394.596923 49.626062 
L 395.314408 49.611215 
L 396.031894 49.588764 
L 396.749379 49.566312 
L 397.466864 49.544042 
L 398.18435 49.52159 
L 398.901835 49.679294 
L 398.901835 49.787567 
L 398.901835 49.787567 
L 398.18435 49.787567 
L 397.466864 49.787567 
L 396.749379 49.787567 
L 396.031894 49.787567 
L 395.314408 49.787567 
L 394.596923 49.787567 
L 393.879437 49.787567 
L 393.161952 49.787567 
L 392.444466 49.787567 
L 391.726981 49.787567 
L 391.009495 49.787567 
z
" clip-path="url(#p5ac8463fe0)" style="fill: #008000; fill-opacity: 0.3"/>
   </g>
   <g id="PolyCollection_2">
    <path d="M 232.445213 49.787567 
L 232.445213 49.974602 
L 233.162699 50.110397 
L 233.880184 50.200746 
L 234.59767 50.291276 
L 235.315155 50.381625 
L 236.032641 50.422001 
L 236.750126 50.462197 
L 237.467611 50.482475 
L 238.185097 50.502573 
L 238.902582 50.1792 
L 239.620068 49.855827 
L 239.620068 49.787567 
L 239.620068 49.787567 
L 238.902582 49.787567 
L 238.185097 49.787567 
L 237.467611 49.787567 
L 236.750126 49.787567 
L 236.032641 49.787567 
L 235.315155 49.787567 
L 234.59767 49.787567 
L 233.880184 49.787567 
L 233.162699 49.787567 
L 232.445213 49.787567 
z
" clip-path="url(#p5ac8463fe0)" style="fill: #ff0000; fill-opacity: 0.3"/>
    <path d="M 316.39101 49.787567 
L 316.39101 49.820882 
L 317.108495 49.837359 
L 317.825981 49.853835 
L 318.543466 49.886788 
L 319.260952 49.903265 
L 319.978437 49.919741 
L 320.695922 49.952694 
L 321.413408 49.925354 
L 322.130893 49.91612 
L 322.848379 49.907067 
L 323.565864 49.898014 
L 324.28335 49.870493 
L 324.28335 49.787567 
L 324.28335 49.787567 
L 323.565864 49.787567 
L 322.848379 49.787567 
L 322.130893 49.787567 
L 321.413408 49.787567 
L 320.695922 49.787567 
L 319.978437 49.787567 
L 319.260952 49.787567 
L 318.543466 49.787567 
L 317.825981 49.787567 
L 317.108495 49.787567 
L 316.39101 49.787567 
z
" clip-path="url(#p5ac8463fe0)" style="fill: #ff0000; fill-opacity: 0.3"/>
    <path d="M 390.29201 49.787567 
L 390.29201 49.790283 
L 390.29201 49.787567 
L 390.29201 49.787567 
z
" clip-path="url(#p5ac8463fe0)" style="fill: #ff0000; fill-opacity: 0.3"/>
    <path d="M 399.619321 49.787567 
L 399.619321 49.836997 
L 400.336806 49.915758 
L 401.054292 49.994519 
L 401.771777 50.152222 
L 402.489262 50.309925 
L 403.206748 50.467629 
L 403.924233 50.625151 
L 404.641719 50.704093 
L 405.359204 50.782854 
L 406.07669 50.940557 
L 406.794175 51.061143 
L 407.511661 51.181729 
L 408.229146 51.302134 
L 408.946631 51.42272 
L 409.664117 51.543306 
L 410.381602 51.583501 
L 411.099088 51.623696 
L 411.816573 51.663892 
L 412.534059 51.724185 
L 413.251544 51.784478 
L 413.96903 51.905064 
L 414.686515 52.025468 
L 415.404 52.146054 
L 416.121486 52.206347 
L 416.838971 52.26664 
L 417.556457 52.257949 
L 418.273942 52.249078 
L 418.991428 52.240387 
L 419.708913 52.236041 
L 420.426398 52.231696 
L 421.143884 52.223005 
L 421.861369 52.218478 
L 422.578855 52.214133 
L 423.29634 52.205442 
L 424.013826 52.196751 
L 424.731311 52.192225 
L 425.448797 52.187879 
L 426.166282 52.179188 
L 426.883767 52.140985 
L 427.601253 52.102962 
L 428.318738 52.08377 
L 429.036224 52.064758 
L 429.753709 52.052084 
L 430.471195 52.03941 
L 431.18868 52.026555 
L 431.906165 52.007544 
L 432.623651 51.988532 
L 433.341136 51.950329 
L 433.341136 49.787567 
L 433.341136 49.787567 
L 432.623651 49.787567 
L 431.906165 49.787567 
L 431.18868 49.787567 
L 430.471195 49.787567 
L 429.753709 49.787567 
L 429.036224 49.787567 
L 428.318738 49.787567 
L 427.601253 49.787567 
L 426.883767 49.787567 
L 426.166282 49.787567 
L 425.448797 49.787567 
L 424.731311 49.787567 
L 424.013826 49.787567 
L 423.29634 49.787567 
L 422.578855 49.787567 
L 421.861369 49.787567 
L 421.143884 49.787567 
L 420.426398 49.787567 
L 419.708913 49.787567 
L 418.991428 49.787567 
L 418.273942 49.787567 
L 417.556457 49.787567 
L 416.838971 49.787567 
L 416.121486 49.787567 
L 415.404 49.787567 
L 414.686515 49.787567 
L 413.96903 49.787567 
L 413.251544 49.787567 
L 412.534059 49.787567 
L 411.816573 49.787567 
L 411.099088 49.787567 
L 410.381602 49.787567 
L 409.664117 49.787567 
L 408.946631 49.787567 
L 408.229146 49.787567 
L 407.511661 49.787567 
L 406.794175 49.787567 
L 406.07669 49.787567 
L 405.359204 49.787567 
L 404.641719 49.787567 
L 403.924233 49.787567 
L 403.206748 49.787567 
L 402.489262 49.787567 
L 401.771777 49.787567 
L 401.054292 49.787567 
L 400.336806 49.787567 
L 399.619321 49.787567 
z
" clip-path="url(#p5ac8463fe0)" style="fill: #ff0000; fill-opacity: 0.3"/>
   </g>
   <g id="matplotlib.axis_1">
    <g id="ytick_1">
     <g id="line2d_1">
      <path d="M 162.885 49.787567 
L 446.22 49.787567 
" clip-path="url(#p5ac8463fe0)" style="fill: none; stroke: #b0b0b0; stroke-width: 0.8; stroke-linecap: square"/>
     </g>
     <g id="line2d_2">
      <defs>
       <path id="mfb23a03b23" d="M 0 0 
L -3.5 0 
" style="stroke: #000000; stroke-width: 0.8"/>
      </defs>
      <g>
       <use xlink:href="#mfb23a03b23" x="162.885" y="49.787567" style="stroke: #000000; stroke-width: 0.8"/>
      </g>
     </g>
     <g id="text_1">
      <!-- 0 -->
      <g transform="translate(147.295625 54.916513) scale(0.135 -0.135)">
       <defs>
        <path id="DejaVuSans-30" d="M 2034 4250 
Q 1547 4250 1301 3770 
Q 1056 3291 1056 2328 
Q 1056 1369 1301 889 
Q 1547 409 2034 409 
Q 2525 409 2770 889 
Q 3016 1369 3016 2328 
Q 3016 3291 2770 3770 
Q 2525 4250 2034 4250 
z
M 2034 4750 
Q 2819 4750 3233 4129 
Q 3647 3509 3647 2328 
Q 3647 1150 3233 529 
Q 2819 -91 2034 -91 
Q 1250 -91 836 529 
Q 422 1150 422 2328 
Q 422 3509 836 4129 
Q 1250 4750 2034 4750 
z
" transform="scale(0.015625)"/>
       </defs>
       <use xlink:href="#DejaVuSans-30"/>
      </g>
     </g>
    </g>
    <g id="ytick_2">
     <g id="line2d_3">
      <path d="M 162.885 31.681571 
L 446.22 31.681571 
" clip-path="url(#p5ac8463fe0)" style="fill: none; stroke: #b0b0b0; stroke-width: 0.8; stroke-linecap: square"/>
     </g>
     <g id="line2d_4">
      <g>
       <use xlink:href="#mfb23a03b23" x="162.885" y="31.681571" style="stroke: #000000; stroke-width: 0.8"/>
      </g>
     </g>
     <g id="text_2">
      <!-- 1000 -->
      <g transform="translate(121.5275 36.810517) scale(0.135 -0.135)">
       <defs>
        <path id="DejaVuSans-31" d="M 794 531 
L 1825 531 
L 1825 4091 
L 703 3866 
L 703 4441 
L 1819 4666 
L 2450 4666 
L 2450 531 
L 3481 531 
L 3481 0 
L 794 0 
L 794 531 
z
" transform="scale(0.015625)"/>
       </defs>
       <use xlink:href="#DejaVuSans-31"/>
       <use xlink:href="#DejaVuSans-30" x="63.623047"/>
       <use xlink:href="#DejaVuSans-30" x="127.246094"/>
       <use xlink:href="#DejaVuSans-30" x="190.869141"/>
      </g>
     </g>
    </g>
    <g id="text_3">
     <!-- ΔP[kW] -->
     <g transform="translate(46.990195 39.0559) scale(0.135 -0.135)">
      <defs>
       <path id="DejaVuSans-394" d="M 2188 4044 
L 906 525 
L 3472 525 
L 2188 4044 
z
M 50 0 
L 1831 4666 
L 2547 4666 
L 4325 0 
L 50 0 
z
" transform="scale(0.015625)"/>
       <path id="DejaVuSans-50" d="M 1259 4147 
L 1259 2394 
L 2053 2394 
Q 2494 2394 2734 2622 
Q 2975 2850 2975 3272 
Q 2975 3691 2734 3919 
Q 2494 4147 2053 4147 
L 1259 4147 
z
M 628 4666 
L 2053 4666 
Q 2838 4666 3239 4311 
Q 3641 3956 3641 3272 
Q 3641 2581 3239 2228 
Q 2838 1875 2053 1875 
L 1259 1875 
L 1259 0 
L 628 0 
L 628 4666 
z
" transform="scale(0.015625)"/>
       <path id="DejaVuSans-5b" d="M 550 4863 
L 1875 4863 
L 1875 4416 
L 1125 4416 
L 1125 -397 
L 1875 -397 
L 1875 -844 
L 550 -844 
L 550 4863 
z
" transform="scale(0.015625)"/>
       <path id="DejaVuSans-6b" d="M 581 4863 
L 1159 4863 
L 1159 1991 
L 2875 3500 
L 3609 3500 
L 1753 1863 
L 3688 0 
L 2938 0 
L 1159 1709 
L 1159 0 
L 581 0 
L 581 4863 
z
" transform="scale(0.015625)"/>
       <path id="DejaVuSans-57" d="M 213 4666 
L 850 4666 
L 1831 722 
L 2809 4666 
L 3519 4666 
L 4500 722 
L 5478 4666 
L 6119 4666 
L 4947 0 
L 4153 0 
L 3169 4050 
L 2175 0 
L 1381 0 
L 213 4666 
z
" transform="scale(0.015625)"/>
       <path id="DejaVuSans-5d" d="M 1947 4863 
L 1947 -844 
L 622 -844 
L 622 -397 
L 1369 -397 
L 1369 4416 
L 622 4416 
L 622 4863 
L 1947 4863 
z
" transform="scale(0.015625)"/>
      </defs>
      <use xlink:href="#DejaVuSans-394"/>
      <use xlink:href="#DejaVuSans-50" x="68.408203"/>
      <use xlink:href="#DejaVuSans-5b" x="128.710938"/>
      <use xlink:href="#DejaVuSans-6b" x="167.724609"/>
      <use xlink:href="#DejaVuSans-57" x="225.634766"/>
      <use xlink:href="#DejaVuSans-5d" x="324.511719"/>
     </g>
    </g>
   </g>
   <g id="line2d_5">
    <path d="M 175.763864 49.787567 
L 231.727728 49.787567 
L 233.162699 50.110397 
L 236.750126 50.462197 
L 238.185097 50.502573 
L 240.337553 49.630588 
L 241.772524 49.180111 
L 242.490009 48.504395 
L 243.92498 46.842265 
L 245.359951 45.731281 
L 247.512408 42.544988 
L 249.664864 39.790885 
L 253.252291 35.673944 
L 254.687262 33.191974 
L 256.122233 32.759059 
L 258.274689 31.460316 
L 260.427145 32.32524 
L 261.862116 34.055086 
L 263.297087 34.92001 
L 266.167029 38.016678 
L 268.319485 39.456648 
L 269.036971 40.896618 
L 271.906913 41.642585 
L 273.341883 41.962156 
L 276.211825 42.708123 
L 279.081767 43.240982 
L 282.669194 43.945849 
L 284.104165 44.180684 
L 286.256621 44.572316 
L 287.691592 44.807332 
L 289.126563 45.016094 
L 293.431476 45.44068 
L 296.301417 45.985489 
L 298.453874 46.257803 
L 300.60633 46.642918 
L 303.476272 47.028033 
L 306.346214 47.726019 
L 307.063699 47.825783 
L 309.216155 48.464381 
L 311.368612 48.677127 
L 314.956039 49.634753 
L 317.108495 49.837359 
L 323.565864 49.898014 
L 329.305748 49.787567 
L 392.444466 49.700659 
L 395.314408 49.611215 
L 398.18435 49.52159 
L 400.336806 49.915758 
L 401.771777 50.152222 
L 404.641719 50.704093 
L 406.07669 50.940557 
L 410.381602 51.583501 
L 413.251544 51.784478 
L 416.121486 52.206347 
L 417.556457 52.257949 
L 432.623651 51.988532 
L 433.341136 51.950329 
L 433.341136 51.950329 
" clip-path="url(#p5ac8463fe0)" style="fill: none; stroke: #1f77b4; stroke-width: 1.5; stroke-linecap: square"/>
   </g>
   <g id="line2d_6">
    <path d="M 162.885 49.787567 
L 446.22 49.787567 
" clip-path="url(#p5ac8463fe0)" style="fill: none; stroke: #000000; stroke-width: 1.5; stroke-linecap: square"/>
   </g>
   <g id="patch_3">
    <path d="M 162.885 53.306957 
L 162.885 30.42 
" style="fill: none; stroke: #000000; stroke-width: 0.8; stroke-linejoin: miter; stroke-linecap: square"/>
   </g>
   <g id="patch_4">
    <path d="M 446.22 53.306957 
L 446.22 30.42 
" style="fill: none; stroke: #000000; stroke-width: 0.8; stroke-linejoin: miter; stroke-linecap: square"/>
   </g>
   <g id="patch_5">
    <path d="M 162.885 53.306957 
L 446.22 53.306957 
" style="fill: none; stroke: #000000; stroke-width: 0.8; stroke-linejoin: miter; stroke-linecap: square"/>
   </g>
   <g id="patch_6">
    <path d="M 162.885 30.42 
L 446.22 30.42 
" style="fill: none; stroke: #000000; stroke-width: 0.8; stroke-linejoin: miter; stroke-linecap: square"/>
   </g>
   <g id="text_4">
    <!-- Microgrid 2 -->
    <g transform="translate(268.129141 24.42) scale(0.13 -0.13)">
     <defs>
      <path id="DejaVuSans-4d" d="M 628 4666 
L 1569 4666 
L 2759 1491 
L 3956 4666 
L 4897 4666 
L 4897 0 
L 4281 0 
L 4281 4097 
L 3078 897 
L 2444 897 
L 1241 4097 
L 1241 0 
L 628 0 
L 628 4666 
z
" transform="scale(0.015625)"/>
      <path id="DejaVuSans-69" d="M 603 3500 
L 1178 3500 
L 1178 0 
L 603 0 
L 603 3500 
z
M 603 4863 
L 1178 4863 
L 1178 4134 
L 603 4134 
L 603 4863 
z
" transform="scale(0.015625)"/>
      <path id="DejaVuSans-63" d="M 3122 3366 
L 3122 2828 
Q 2878 2963 2633 3030 
Q 2388 3097 2138 3097 
Q 1578 3097 1268 2742 
Q 959 2388 959 1747 
Q 959 1106 1268 751 
Q 1578 397 2138 397 
Q 2388 397 2633 464 
Q 2878 531 3122 666 
L 3122 134 
Q 2881 22 2623 -34 
Q 2366 -91 2075 -91 
Q 1284 -91 818 406 
Q 353 903 353 1747 
Q 353 2603 823 3093 
Q 1294 3584 2113 3584 
Q 2378 3584 2631 3529 
Q 2884 3475 3122 3366 
z
" transform="scale(0.015625)"/>
      <path id="DejaVuSans-72" d="M 2631 2963 
Q 2534 3019 2420 3045 
Q 2306 3072 2169 3072 
Q 1681 3072 1420 2755 
Q 1159 2438 1159 1844 
L 1159 0 
L 581 0 
L 581 3500 
L 1159 3500 
L 1159 2956 
Q 1341 3275 1631 3429 
Q 1922 3584 2338 3584 
Q 2397 3584 2469 3576 
Q 2541 3569 2628 3553 
L 2631 2963 
z
" transform="scale(0.015625)"/>
      <path id="DejaVuSans-6f" d="M 1959 3097 
Q 1497 3097 1228 2736 
Q 959 2375 959 1747 
Q 959 1119 1226 758 
Q 1494 397 1959 397 
Q 2419 397 2687 759 
Q 2956 1122 2956 1747 
Q 2956 2369 2687 2733 
Q 2419 3097 1959 3097 
z
M 1959 3584 
Q 2709 3584 3137 3096 
Q 3566 2609 3566 1747 
Q 3566 888 3137 398 
Q 2709 -91 1959 -91 
Q 1206 -91 779 398 
Q 353 888 353 1747 
Q 353 2609 779 3096 
Q 1206 3584 1959 3584 
z
" transform="scale(0.015625)"/>
      <path id="DejaVuSans-67" d="M 2906 1791 
Q 2906 2416 2648 2759 
Q 2391 3103 1925 3103 
Q 1463 3103 1205 2759 
Q 947 2416 947 1791 
Q 947 1169 1205 825 
Q 1463 481 1925 481 
Q 2391 481 2648 825 
Q 2906 1169 2906 1791 
z
M 3481 434 
Q 3481 -459 3084 -895 
Q 2688 -1331 1869 -1331 
Q 1566 -1331 1297 -1286 
Q 1028 -1241 775 -1147 
L 775 -588 
Q 1028 -725 1275 -790 
Q 1522 -856 1778 -856 
Q 2344 -856 2625 -561 
Q 2906 -266 2906 331 
L 2906 616 
Q 2728 306 2450 153 
Q 2172 0 1784 0 
Q 1141 0 747 490 
Q 353 981 353 1791 
Q 353 2603 747 3093 
Q 1141 3584 1784 3584 
Q 2172 3584 2450 3431 
Q 2728 3278 2906 2969 
L 2906 3500 
L 3481 3500 
L 3481 434 
z
" transform="scale(0.015625)"/>
      <path id="DejaVuSans-64" d="M 2906 2969 
L 2906 4863 
L 3481 4863 
L 3481 0 
L 2906 0 
L 2906 525 
Q 2725 213 2448 61 
Q 2172 -91 1784 -91 
Q 1150 -91 751 415 
Q 353 922 353 1747 
Q 353 2572 751 3078 
Q 1150 3584 1784 3584 
Q 2172 3584 2448 3432 
Q 2725 3281 2906 2969 
z
M 947 1747 
Q 947 1113 1208 752 
Q 1469 391 1925 391 
Q 2381 391 2643 752 
Q 2906 1113 2906 1747 
Q 2906 2381 2643 2742 
Q 2381 3103 1925 3103 
Q 1469 3103 1208 2742 
Q 947 2381 947 1747 
z
" transform="scale(0.015625)"/>
      <path id="DejaVuSans-20" transform="scale(0.015625)"/>
      <path id="DejaVuSans-32" d="M 1228 531 
L 3431 531 
L 3431 0 
L 469 0 
L 469 531 
Q 828 903 1448 1529 
Q 2069 2156 2228 2338 
Q 2531 2678 2651 2914 
Q 2772 3150 2772 3378 
Q 2772 3750 2511 3984 
Q 2250 4219 1831 4219 
Q 1534 4219 1204 4116 
Q 875 4013 500 3803 
L 500 4441 
Q 881 4594 1212 4672 
Q 1544 4750 1819 4750 
Q 2544 4750 2975 4387 
Q 3406 4025 3406 3419 
Q 3406 3131 3298 2873 
Q 3191 2616 2906 2266 
Q 2828 2175 2409 1742 
Q 1991 1309 1228 531 
z
" transform="scale(0.015625)"/>
     </defs>
     <use xlink:href="#DejaVuSans-4d"/>
     <use xlink:href="#DejaVuSans-69" x="86.279297"/>
     <use xlink:href="#DejaVuSans-63" x="114.0625"/>
     <use xlink:href="#DejaVuSans-72" x="169.042969"/>
     <use xlink:href="#DejaVuSans-6f" x="207.90625"/>
     <use xlink:href="#DejaVuSans-67" x="269.087891"/>
     <use xlink:href="#DejaVuSans-72" x="332.564453"/>
     <use xlink:href="#DejaVuSans-69" x="373.677734"/>
     <use xlink:href="#DejaVuSans-64" x="401.460938"/>
     <use xlink:href="#DejaVuSans-20" x="464.9375"/>
     <use xlink:href="#DejaVuSans-32" x="496.724609"/>
    </g>
   </g>
  </g>
  <g id="axes_2">
   <g id="patch_7">
    <path d="M 162.885 87.637391 
L 446.22 87.637391 
L 446.22 64.750435 
L 162.885 64.750435 
z
" style="fill: #ffffff"/>
   </g>
   <g id="PolyCollection_3">
    <path d="M 232.445213 81.785917 
L 232.445213 81.645808 
L 233.162699 81.615075 
L 233.880184 81.594429 
L 234.59767 81.57394 
L 235.315155 81.553452 
L 236.032641 81.491829 
L 236.750126 81.611608 
L 237.467611 81.671339 
L 238.185097 81.731229 
L 238.185097 81.785917 
L 238.185097 81.785917 
L 237.467611 81.785917 
L 236.750126 81.785917 
L 236.032641 81.785917 
L 235.315155 81.785917 
L 234.59767 81.785917 
L 233.880184 81.785917 
L 233.162699 81.785917 
L 232.445213 81.785917 
z
" clip-path="url(#pba2e569dbb)" style="fill: #008000; fill-opacity: 0.3"/>
    <path d="M 275.49434 81.785917 
L 275.49434 81.578984 
L 276.211825 81.416022 
L 276.929311 81.253218 
L 277.646796 80.927451 
L 278.364281 80.76449 
L 279.081767 80.601685 
L 279.799252 80.275919 
L 280.516738 79.950153 
L 281.234223 79.624387 
L 281.951709 79.298621 
L 282.669194 79.002169 
L 283.38668 78.705717 
L 284.104165 78.112813 
L 284.82165 77.747961 
L 285.539136 77.383109 
L 286.256621 77.200605 
L 286.974107 77.018257 
L 287.691592 76.522122 
L 288.409078 76.026144 
L 289.126563 76.050573 
L 289.844048 76.075159 
L 290.561534 76.099587 
L 291.279019 76.173031 
L 291.996505 76.197459 
L 292.71399 76.222045 
L 293.431476 76.246474 
L 294.148961 76.509671 
L 294.866447 76.772711 
L 295.583932 77.035909 
L 296.301417 77.123694 
L 297.018903 77.211322 
L 297.736388 77.299107 
L 298.453874 77.687284 
L 299.171359 78.075618 
L 299.888845 78.463796 
L 300.60633 78.607687 
L 301.323816 78.751737 
L 302.041301 79.039678 
L 302.758786 79.18357 
L 303.476272 79.32762 
L 304.193757 79.615561 
L 304.911243 79.802006 
L 305.628728 79.988451 
L 306.346214 80.081752 
L 307.063699 80.175053 
L 307.781184 80.361498 
L 308.49867 80.526351 
L 309.216155 80.691362 
L 309.933641 80.746365 
L 310.651126 80.801369 
L 311.368612 80.856215 
L 312.086097 81.021225 
L 312.803583 81.186079 
L 313.521068 81.351089 
L 314.238553 81.515942 
L 314.956039 81.680953 
L 315.673524 81.704751 
L 316.39101 81.728549 
L 317.108495 81.752348 
L 317.825981 81.776303 
L 317.825981 81.785917 
L 317.825981 81.785917 
L 317.108495 81.785917 
L 316.39101 81.785917 
L 315.673524 81.785917 
L 314.956039 81.785917 
L 314.238553 81.785917 
L 313.521068 81.785917 
L 312.803583 81.785917 
L 312.086097 81.785917 
L 311.368612 81.785917 
L 310.651126 81.785917 
L 309.933641 81.785917 
L 309.216155 81.785917 
L 308.49867 81.785917 
L 307.781184 81.785917 
L 307.063699 81.785917 
L 306.346214 81.785917 
L 305.628728 81.785917 
L 304.911243 81.785917 
L 304.193757 81.785917 
L 303.476272 81.785917 
L 302.758786 81.785917 
L 302.041301 81.785917 
L 301.323816 81.785917 
L 300.60633 81.785917 
L 299.888845 81.785917 
L 299.171359 81.785917 
L 298.453874 81.785917 
L 297.736388 81.785917 
L 297.018903 81.785917 
L 296.301417 81.785917 
L 295.583932 81.785917 
L 294.866447 81.785917 
L 294.148961 81.785917 
L 293.431476 81.785917 
L 292.71399 81.785917 
L 291.996505 81.785917 
L 291.279019 81.785917 
L 290.561534 81.785917 
L 289.844048 81.785917 
L 289.126563 81.785917 
L 288.409078 81.785917 
L 287.691592 81.785917 
L 286.974107 81.785917 
L 286.256621 81.785917 
L 285.539136 81.785917 
L 284.82165 81.785917 
L 284.104165 81.785917 
L 283.38668 81.785917 
L 282.669194 81.785917 
L 281.951709 81.785917 
L 281.234223 81.785917 
L 280.516738 81.785917 
L 279.799252 81.785917 
L 279.081767 81.785917 
L 278.364281 81.785917 
L 277.646796 81.785917 
L 276.929311 81.785917 
L 276.211825 81.785917 
L 275.49434 81.785917 
z
" clip-path="url(#pba2e569dbb)" style="fill: #008000; fill-opacity: 0.3"/>
    <path d="M 388.857039 81.785917 
L 388.857039 81.75676 
L 389.574525 81.751402 
L 389.574525 81.785917 
L 389.574525 81.785917 
L 388.857039 81.785917 
z
" clip-path="url(#pba2e569dbb)" style="fill: #008000; fill-opacity: 0.3"/>
    <path d="M 398.901835 81.785917 
L 398.901835 81.18072 
L 399.619321 80.459369 
L 400.336806 80.066622 
L 401.054292 79.673874 
L 401.771777 78.888379 
L 402.489262 77.36924 
L 403.206748 76.521649 
L 403.924233 75.674058 
L 404.641719 75.250263 
L 405.359204 74.826467 
L 406.07669 74.002044 
L 406.794175 73.177621 
L 407.511661 72.353198 
L 408.229146 71.680074 
L 408.946631 71.007107 
L 409.664117 70.266687 
L 410.381602 70.020037 
L 411.099088 69.773231 
L 411.816573 69.526424 
L 412.534059 68.644002 
L 413.251544 67.761739 
L 413.96903 67.066235 
L 414.686515 66.370731 
L 415.404 66.225736 
L 416.121486 66.153239 
L 416.838971 66.080741 
L 417.556457 65.935746 
L 418.273942 65.790751 
L 418.991428 66.176879 
L 419.708913 66.369943 
L 420.426398 66.563008 
L 421.143884 66.949136 
L 421.861369 67.437233 
L 422.578855 67.925173 
L 423.29634 68.901369 
L 424.013826 69.605225 
L 424.731311 69.957154 
L 425.448797 70.309082 
L 426.166282 70.980157 
L 426.883767 71.651232 
L 427.601253 72.136335 
L 428.318738 72.378887 
L 429.036224 72.621439 
L 429.753709 72.78314 
L 430.471195 72.944841 
L 431.18868 73.106542 
L 431.906165 73.349093 
L 432.623651 73.591645 
L 433.341136 73.591645 
L 433.341136 81.785917 
L 433.341136 81.785917 
L 432.623651 81.785917 
L 431.906165 81.785917 
L 431.18868 81.785917 
L 430.471195 81.785917 
L 429.753709 81.785917 
L 429.036224 81.785917 
L 428.318738 81.785917 
L 427.601253 81.785917 
L 426.883767 81.785917 
L 426.166282 81.785917 
L 425.448797 81.785917 
L 424.731311 81.785917 
L 424.013826 81.785917 
L 423.29634 81.785917 
L 422.578855 81.785917 
L 421.861369 81.785917 
L 421.143884 81.785917 
L 420.426398 81.785917 
L 419.708913 81.785917 
L 418.991428 81.785917 
L 418.273942 81.785917 
L 417.556457 81.785917 
L 416.838971 81.785917 
L 416.121486 81.785917 
L 415.404 81.785917 
L 414.686515 81.785917 
L 413.96903 81.785917 
L 413.251544 81.785917 
L 412.534059 81.785917 
L 411.816573 81.785917 
L 411.099088 81.785917 
L 410.381602 81.785917 
L 409.664117 81.785917 
L 408.946631 81.785917 
L 408.229146 81.785917 
L 407.511661 81.785917 
L 406.794175 81.785917 
L 406.07669 81.785917 
L 405.359204 81.785917 
L 404.641719 81.785917 
L 403.924233 81.785917 
L 403.206748 81.785917 
L 402.489262 81.785917 
L 401.771777 81.785917 
L 401.054292 81.785917 
L 400.336806 81.785917 
L 399.619321 81.785917 
L 398.901835 81.785917 
z
" clip-path="url(#pba2e569dbb)" style="fill: #008000; fill-opacity: 0.3"/>
   </g>
   <g id="PolyCollection_4">
    <path d="M 238.902582 81.785917 
L 238.902582 81.851007 
L 239.620068 81.970628 
L 240.337553 82.010659 
L 241.055039 82.050533 
L 241.772524 82.090407 
L 242.490009 82.372359 
L 243.207495 82.654312 
L 243.92498 82.936106 
L 244.642466 83.077161 
L 245.359951 83.218059 
L 246.077437 83.528065 
L 246.794922 83.838228 
L 247.512408 84.148234 
L 248.229893 84.45824 
L 248.947378 84.785267 
L 249.664864 84.894328 
L 250.382349 85.003232 
L 251.099835 85.112294 
L 251.81732 85.439321 
L 252.534806 85.766348 
L 253.252291 85.974069 
L 253.969777 86.18179 
L 254.687262 86.389354 
L 255.404747 86.493214 
L 256.122233 86.597075 
L 256.839718 86.531512 
L 257.557204 86.465791 
L 258.274689 86.400228 
L 258.992175 86.378322 
L 259.70966 86.356415 
L 260.427145 86.334508 
L 261.144631 86.268945 
L 261.862116 86.203224 
L 262.579602 86.170443 
L 263.297087 86.137661 
L 264.014573 86.071941 
L 264.732058 86.006378 
L 265.449544 85.752006 
L 266.167029 85.497792 
L 266.884514 85.413001 
L 267.602 85.32821 
L 268.319485 85.24342 
L 269.036971 84.636804 
L 269.754456 84.321598 
L 270.471942 84.006233 
L 271.189427 83.690869 
L 271.906913 83.47968 
L 272.624398 83.268492 
L 273.341883 82.846115 
L 274.059369 82.423738 
L 274.776854 82.001361 
L 274.776854 81.785917 
L 274.776854 81.785917 
L 274.059369 81.785917 
L 273.341883 81.785917 
L 272.624398 81.785917 
L 271.906913 81.785917 
L 271.189427 81.785917 
L 270.471942 81.785917 
L 269.754456 81.785917 
L 269.036971 81.785917 
L 268.319485 81.785917 
L 267.602 81.785917 
L 266.884514 81.785917 
L 266.167029 81.785917 
L 265.449544 81.785917 
L 264.732058 81.785917 
L 264.014573 81.785917 
L 263.297087 81.785917 
L 262.579602 81.785917 
L 261.862116 81.785917 
L 261.144631 81.785917 
L 260.427145 81.785917 
L 259.70966 81.785917 
L 258.992175 81.785917 
L 258.274689 81.785917 
L 257.557204 81.785917 
L 256.839718 81.785917 
L 256.122233 81.785917 
L 255.404747 81.785917 
L 254.687262 81.785917 
L 253.969777 81.785917 
L 253.252291 81.785917 
L 252.534806 81.785917 
L 251.81732 81.785917 
L 251.099835 81.785917 
L 250.382349 81.785917 
L 249.664864 81.785917 
L 248.947378 81.785917 
L 248.229893 81.785917 
L 247.512408 81.785917 
L 246.794922 81.785917 
L 246.077437 81.785917 
L 245.359951 81.785917 
L 244.642466 81.785917 
L 243.92498 81.785917 
L 243.207495 81.785917 
L 242.490009 81.785917 
L 241.772524 81.785917 
L 241.055039 81.785917 
L 240.337553 81.785917 
L 239.620068 81.785917 
L 238.902582 81.785917 
z
" clip-path="url(#pba2e569dbb)" style="fill: #ff0000; fill-opacity: 0.3"/>
    <path d="M 318.543466 81.785917 
L 318.543466 81.823899 
L 319.260952 81.847698 
L 319.978437 81.871496 
L 320.695922 81.919249 
L 321.413408 81.966846 
L 322.130893 81.964639 
L 322.848379 81.96259 
L 323.565864 81.960384 
L 324.28335 81.953922 
L 324.28335 81.785917 
L 324.28335 81.785917 
L 323.565864 81.785917 
L 322.848379 81.785917 
L 322.130893 81.785917 
L 321.413408 81.785917 
L 320.695922 81.785917 
L 319.978437 81.785917 
L 319.260952 81.785917 
L 318.543466 81.785917 
z
" clip-path="url(#pba2e569dbb)" style="fill: #ff0000; fill-opacity: 0.3"/>
    <path d="M 390.29201 81.785917 
L 390.29201 81.934222 
L 391.009495 82.025632 
L 391.726981 82.117042 
L 392.444466 82.299862 
L 393.161952 82.482682 
L 393.879437 82.482524 
L 394.596923 82.482366 
L 395.314408 82.482366 
L 396.031894 82.482051 
L 396.749379 82.481894 
L 397.466864 82.192061 
L 398.18435 81.902071 
L 398.18435 81.785917 
L 398.18435 81.785917 
L 397.466864 81.785917 
L 396.749379 81.785917 
L 396.031894 81.785917 
L 395.314408 81.785917 
L 394.596923 81.785917 
L 393.879437 81.785917 
L 393.161952 81.785917 
L 392.444466 81.785917 
L 391.726981 81.785917 
L 391.009495 81.785917 
L 390.29201 81.785917 
z
" clip-path="url(#pba2e569dbb)" style="fill: #ff0000; fill-opacity: 0.3"/>
   </g>
   <g id="matplotlib.axis_2">
    <g id="ytick_3">
     <g id="line2d_7">
      <path d="M 162.885 81.785917 
L 446.22 81.785917 
" clip-path="url(#pba2e569dbb)" style="fill: none; stroke: #b0b0b0; stroke-width: 0.8; stroke-linecap: square"/>
     </g>
     <g id="line2d_8">
      <g>
       <use xlink:href="#mfb23a03b23" x="162.885" y="81.785917" style="stroke: #000000; stroke-width: 0.8"/>
      </g>
     </g>
     <g id="text_5">
      <!-- 0 -->
      <g transform="translate(147.295625 86.914862) scale(0.135 -0.135)">
       <use xlink:href="#DejaVuSans-30"/>
      </g>
     </g>
    </g>
    <g id="ytick_4">
     <g id="line2d_9">
      <path d="M 162.885 66.02558 
L 446.22 66.02558 
" clip-path="url(#pba2e569dbb)" style="fill: none; stroke: #b0b0b0; stroke-width: 0.8; stroke-linecap: square"/>
     </g>
     <g id="line2d_10">
      <g>
       <use xlink:href="#mfb23a03b23" x="162.885" y="66.02558" style="stroke: #000000; stroke-width: 0.8"/>
      </g>
     </g>
     <g id="text_6">
      <!-- 1000 -->
      <g transform="translate(121.5275 71.154525) scale(0.135 -0.135)">
       <use xlink:href="#DejaVuSans-31"/>
       <use xlink:href="#DejaVuSans-30" x="63.623047"/>
       <use xlink:href="#DejaVuSans-30" x="127.246094"/>
       <use xlink:href="#DejaVuSans-30" x="190.869141"/>
      </g>
     </g>
    </g>
    <g id="text_7">
     <!-- PEU_2-1 [kW] -->
     <g transform="translate(25.857422 73.010866) scale(0.135 -0.135)">
      <defs>
       <path id="DejaVuSans-45" d="M 628 4666 
L 3578 4666 
L 3578 4134 
L 1259 4134 
L 1259 2753 
L 3481 2753 
L 3481 2222 
L 1259 2222 
L 1259 531 
L 3634 531 
L 3634 0 
L 628 0 
L 628 4666 
z
" transform="scale(0.015625)"/>
       <path id="DejaVuSans-55" d="M 556 4666 
L 1191 4666 
L 1191 1831 
Q 1191 1081 1462 751 
Q 1734 422 2344 422 
Q 2950 422 3222 751 
Q 3494 1081 3494 1831 
L 3494 4666 
L 4128 4666 
L 4128 1753 
Q 4128 841 3676 375 
Q 3225 -91 2344 -91 
Q 1459 -91 1007 375 
Q 556 841 556 1753 
L 556 4666 
z
" transform="scale(0.015625)"/>
       <path id="DejaVuSans-5f" d="M 3263 -1063 
L 3263 -1509 
L -63 -1509 
L -63 -1063 
L 3263 -1063 
z
" transform="scale(0.015625)"/>
       <path id="DejaVuSans-2d" d="M 313 2009 
L 1997 2009 
L 1997 1497 
L 313 1497 
L 313 2009 
z
" transform="scale(0.015625)"/>
      </defs>
      <use xlink:href="#DejaVuSans-50"/>
      <use xlink:href="#DejaVuSans-45" x="60.302734"/>
      <use xlink:href="#DejaVuSans-55" x="123.486328"/>
      <use xlink:href="#DejaVuSans-5f" x="196.679688"/>
      <use xlink:href="#DejaVuSans-32" x="246.679688"/>
      <use xlink:href="#DejaVuSans-2d" x="310.302734"/>
      <use xlink:href="#DejaVuSans-31" x="346.386719"/>
      <use xlink:href="#DejaVuSans-20" x="410.009766"/>
      <use xlink:href="#DejaVuSans-5b" x="441.796875"/>
      <use xlink:href="#DejaVuSans-6b" x="480.810547"/>
      <use xlink:href="#DejaVuSans-57" x="538.720703"/>
      <use xlink:href="#DejaVuSans-5d" x="637.597656"/>
     </g>
    </g>
   </g>
   <g id="line2d_11">
    <path d="M 175.763864 81.785917 
L 231.727728 81.785917 
L 233.162699 81.615075 
L 236.750126 81.611608 
L 238.902582 81.851007 
L 240.337553 82.010659 
L 241.772524 82.090407 
L 243.92498 82.936106 
L 245.359951 83.218059 
L 248.947378 84.785267 
L 251.099835 85.112294 
L 253.252291 85.974069 
L 255.404747 86.493214 
L 256.122233 86.597075 
L 259.70966 86.356415 
L 263.297087 86.137661 
L 264.732058 86.006378 
L 266.167029 85.497792 
L 268.319485 85.24342 
L 269.036971 84.636804 
L 271.906913 83.47968 
L 272.624398 83.268492 
L 275.49434 81.578984 
L 276.929311 81.253218 
L 277.646796 80.927451 
L 279.081767 80.601685 
L 283.38668 78.705717 
L 284.104165 78.112813 
L 285.539136 77.383109 
L 286.974107 77.018257 
L 288.409078 76.026144 
L 293.431476 76.246474 
L 295.583932 77.035909 
L 297.736388 77.299107 
L 299.888845 78.463796 
L 301.323816 78.751737 
L 302.041301 79.039678 
L 303.476272 79.32762 
L 304.911243 79.802006 
L 306.346214 80.081752 
L 307.781184 80.361498 
L 309.933641 80.746365 
L 312.086097 81.021225 
L 314.956039 81.680953 
L 324.28335 81.953922 
L 325.000835 81.785917 
L 389.574525 81.751402 
L 391.009495 82.025632 
L 392.444466 82.299862 
L 393.161952 82.482682 
L 396.749379 82.481894 
L 398.18435 81.902071 
L 399.619321 80.459369 
L 401.054292 79.673874 
L 401.771777 78.888379 
L 402.489262 77.36924 
L 403.924233 75.674058 
L 405.359204 74.826467 
L 408.229146 71.680074 
L 409.664117 70.266687 
L 411.816573 69.526424 
L 413.251544 67.761739 
L 414.686515 66.370731 
L 416.121486 66.153239 
L 417.556457 65.935746 
L 418.273942 65.790751 
L 418.991428 66.176879 
L 420.426398 66.563008 
L 421.861369 67.437233 
L 422.578855 67.925173 
L 423.29634 68.901369 
L 424.013826 69.605225 
L 425.448797 70.309082 
L 426.883767 71.651232 
L 427.601253 72.136335 
L 429.753709 72.78314 
L 431.906165 73.349093 
L 432.623651 73.591645 
L 433.341136 73.591645 
L 433.341136 73.591645 
" clip-path="url(#pba2e569dbb)" style="fill: none; stroke: #1f77b4; stroke-width: 1.5; stroke-linecap: square"/>
   </g>
   <g id="line2d_12">
    <path d="M 162.885 81.785917 
L 446.22 81.785917 
" clip-path="url(#pba2e569dbb)" style="fill: none; stroke: #000000; stroke-width: 1.5; stroke-linecap: square"/>
   </g>
   <g id="patch_8">
    <path d="M 162.885 87.637391 
L 162.885 64.750435 
" style="fill: none; stroke: #000000; stroke-width: 0.8; stroke-linejoin: miter; stroke-linecap: square"/>
   </g>
   <g id="patch_9">
    <path d="M 446.22 87.637391 
L 446.22 64.750435 
" style="fill: none; stroke: #000000; stroke-width: 0.8; stroke-linejoin: miter; stroke-linecap: square"/>
   </g>
   <g id="patch_10">
    <path d="M 162.885 87.637391 
L 446.22 87.637391 
" style="fill: none; stroke: #000000; stroke-width: 0.8; stroke-linejoin: miter; stroke-linecap: square"/>
   </g>
   <g id="patch_11">
    <path d="M 162.885 64.750435 
L 446.22 64.750435 
" style="fill: none; stroke: #000000; stroke-width: 0.8; stroke-linejoin: miter; stroke-linecap: square"/>
   </g>
  </g>
  <g id="axes_3">
   <g id="patch_12">
    <path d="M 162.885 121.967826 
L 446.22 121.967826 
L 446.22 99.08087 
L 162.885 99.08087 
z
" style="fill: #ffffff"/>
   </g>
   <g id="PolyCollection_5">
    <path d="M 232.445213 111.107228 
L 232.445213 110.573347 
L 233.162699 110.440478 
L 233.880184 110.351798 
L 234.59767 110.263119 
L 235.315155 110.174439 
L 236.032641 109.908401 
L 236.750126 109.642362 
L 237.467611 109.835353 
L 238.185097 110.028644 
L 238.902582 110.414926 
L 239.620068 110.801208 
L 240.337553 110.929869 
L 241.055039 111.05883 
L 241.055039 111.107228 
L 241.055039 111.107228 
L 240.337553 111.107228 
L 239.620068 111.107228 
L 238.902582 111.107228 
L 238.185097 111.107228 
L 237.467611 111.107228 
L 236.750126 111.107228 
L 236.032641 111.107228 
L 235.315155 111.107228 
L 234.59767 111.107228 
L 233.880184 111.107228 
L 233.162699 111.107228 
L 232.445213 111.107228 
z
" clip-path="url(#pf4412e7dc8)" style="fill: #008000; fill-opacity: 0.3"/>
    <path d="M 275.49434 111.107228 
L 275.49434 110.712529 
L 276.211825 110.4017 
L 276.929311 110.091171 
L 277.646796 109.469813 
L 278.364281 109.158984 
L 279.081767 108.848455 
L 279.799252 108.227097 
L 280.516738 107.605739 
L 281.234223 106.984381 
L 281.951709 106.363023 
L 282.669194 105.797578 
L 283.38668 105.232133 
L 284.104165 104.101244 
L 284.82165 103.405335 
L 285.539136 102.709426 
L 286.256621 102.361321 
L 286.974107 102.013517 
L 287.691592 101.067201 
L 288.409078 100.121186 
L 289.126563 100.16778 
L 289.844048 100.214675 
L 290.561534 100.261269 
L 291.279019 100.401353 
L 291.996505 100.447947 
L 292.71399 100.494842 
L 293.431476 100.541437 
L 294.148961 101.043453 
L 294.866447 101.545169 
L 295.583932 102.047185 
L 296.301417 102.214624 
L 297.018903 102.381762 
L 297.736388 102.549201 
L 298.453874 103.2896 
L 299.171359 104.0303 
L 299.888845 104.770699 
L 300.60633 105.045155 
L 301.323816 105.319911 
L 302.041301 105.869123 
L 302.758786 106.143579 
L 303.476272 106.418335 
L 304.193757 106.967547 
L 304.911243 107.323167 
L 305.628728 107.678787 
L 306.346214 107.856747 
L 307.063699 108.034707 
L 307.781184 108.390327 
L 308.49867 108.704764 
L 309.216155 109.019501 
L 309.933641 109.124414 
L 310.651126 109.229326 
L 311.368612 109.333938 
L 312.086097 109.648675 
L 312.803583 109.963112 
L 313.521068 110.277849 
L 314.238553 110.592285 
L 314.956039 110.907023 
L 315.673524 110.952414 
L 316.39101 110.997806 
L 317.108495 111.043198 
L 317.825981 111.088891 
L 317.825981 111.107228 
L 317.825981 111.107228 
L 317.108495 111.107228 
L 316.39101 111.107228 
L 315.673524 111.107228 
L 314.956039 111.107228 
L 314.238553 111.107228 
L 313.521068 111.107228 
L 312.803583 111.107228 
L 312.086097 111.107228 
L 311.368612 111.107228 
L 310.651126 111.107228 
L 309.933641 111.107228 
L 309.216155 111.107228 
L 308.49867 111.107228 
L 307.781184 111.107228 
L 307.063699 111.107228 
L 306.346214 111.107228 
L 305.628728 111.107228 
L 304.911243 111.107228 
L 304.193757 111.107228 
L 303.476272 111.107228 
L 302.758786 111.107228 
L 302.041301 111.107228 
L 301.323816 111.107228 
L 300.60633 111.107228 
L 299.888845 111.107228 
L 299.171359 111.107228 
L 298.453874 111.107228 
L 297.736388 111.107228 
L 297.018903 111.107228 
L 296.301417 111.107228 
L 295.583932 111.107228 
L 294.866447 111.107228 
L 294.148961 111.107228 
L 293.431476 111.107228 
L 292.71399 111.107228 
L 291.996505 111.107228 
L 291.279019 111.107228 
L 290.561534 111.107228 
L 289.844048 111.107228 
L 289.126563 111.107228 
L 288.409078 111.107228 
L 287.691592 111.107228 
L 286.974107 111.107228 
L 286.256621 111.107228 
L 285.539136 111.107228 
L 284.82165 111.107228 
L 284.104165 111.107228 
L 283.38668 111.107228 
L 282.669194 111.107228 
L 281.951709 111.107228 
L 281.234223 111.107228 
L 280.516738 111.107228 
L 279.799252 111.107228 
L 279.081767 111.107228 
L 278.364281 111.107228 
L 277.646796 111.107228 
L 276.929311 111.107228 
L 276.211825 111.107228 
L 275.49434 111.107228 
z
" clip-path="url(#pf4412e7dc8)" style="fill: #008000; fill-opacity: 0.3"/>
    <path d="M 388.857039 111.107228 
L 388.857039 111.021855 
L 389.574525 111.018849 
L 390.29201 111.006223 
L 391.009495 111.000211 
L 391.726981 110.993898 
L 392.444466 110.981574 
L 393.161952 110.729062 
L 393.879437 110.644892 
L 394.596923 110.561022 
L 395.314408 110.476852 
L 396.031894 110.350596 
L 396.749379 110.22434 
L 397.466864 110.600702 
L 398.18435 110.977365 
L 398.18435 111.107228 
L 398.18435 111.107228 
L 397.466864 111.107228 
L 396.749379 111.107228 
L 396.031894 111.107228 
L 395.314408 111.107228 
L 394.596923 111.107228 
L 393.879437 111.107228 
L 393.161952 111.107228 
L 392.444466 111.107228 
L 391.726981 111.107228 
L 391.009495 111.107228 
L 390.29201 111.107228 
L 389.574525 111.107228 
L 388.857039 111.107228 
z
" clip-path="url(#pf4412e7dc8)" style="fill: #008000; fill-opacity: 0.3"/>
    <path d="M 428.318738 111.107228 
L 428.318738 110.942795 
L 429.036224 110.729062 
L 429.753709 110.729062 
L 430.471195 110.729062 
L 431.18868 110.729062 
L 431.906165 110.729062 
L 432.623651 110.729062 
L 433.341136 110.729062 
L 433.341136 111.107228 
L 433.341136 111.107228 
L 432.623651 111.107228 
L 431.906165 111.107228 
L 431.18868 111.107228 
L 430.471195 111.107228 
L 429.753709 111.107228 
L 429.036224 111.107228 
L 428.318738 111.107228 
z
" clip-path="url(#pf4412e7dc8)" style="fill: #008000; fill-opacity: 0.3"/>
   </g>
   <g id="PolyCollection_6">
    <path d="M 241.772524 111.107228 
L 241.772524 111.18749 
L 242.490009 111.761953 
L 243.207495 112.336417 
L 243.92498 112.910579 
L 244.642466 113.197961 
L 245.359951 113.485042 
L 246.077437 114.059505 
L 246.794922 114.810726 
L 247.512408 115.561947 
L 248.229893 116.313468 
L 248.947378 117.064689 
L 249.664864 117.315096 
L 250.382349 117.565503 
L 251.099835 117.81591 
L 251.81732 118.26051 
L 252.534806 118.70481 
L 253.252291 119.14941 
L 253.969777 119.59401 
L 254.687262 120.03861 
L 255.404747 120.26076 
L 256.122233 120.48291 
L 256.839718 120.92751 
L 257.557204 120.879112 
L 258.274689 120.830413 
L 258.992175 120.81418 
L 259.70966 120.798248 
L 260.427145 120.782015 
L 261.144631 120.733317 
L 261.862116 120.684919 
L 262.579602 120.495235 
L 263.297087 120.30525 
L 264.014573 119.925882 
L 264.732058 119.546213 
L 265.449544 119.166545 
L 266.167029 118.1565 
L 266.884514 117.819818 
L 267.602 117.483136 
L 268.319485 117.146455 
L 269.036971 116.544937 
L 269.754456 115.94372 
L 270.471942 115.342202 
L 271.189427 114.740684 
L 271.906913 114.337869 
L 272.624398 113.935053 
L 273.341883 113.129422 
L 274.059369 112.323791 
L 274.776854 111.51816 
L 274.776854 111.107228 
L 274.776854 111.107228 
L 274.059369 111.107228 
L 273.341883 111.107228 
L 272.624398 111.107228 
L 271.906913 111.107228 
L 271.189427 111.107228 
L 270.471942 111.107228 
L 269.754456 111.107228 
L 269.036971 111.107228 
L 268.319485 111.107228 
L 267.602 111.107228 
L 266.884514 111.107228 
L 266.167029 111.107228 
L 265.449544 111.107228 
L 264.732058 111.107228 
L 264.014573 111.107228 
L 263.297087 111.107228 
L 262.579602 111.107228 
L 261.862116 111.107228 
L 261.144631 111.107228 
L 260.427145 111.107228 
L 259.70966 111.107228 
L 258.992175 111.107228 
L 258.274689 111.107228 
L 257.557204 111.107228 
L 256.839718 111.107228 
L 256.122233 111.107228 
L 255.404747 111.107228 
L 254.687262 111.107228 
L 253.969777 111.107228 
L 253.252291 111.107228 
L 252.534806 111.107228 
L 251.81732 111.107228 
L 251.099835 111.107228 
L 250.382349 111.107228 
L 249.664864 111.107228 
L 248.947378 111.107228 
L 248.229893 111.107228 
L 247.512408 111.107228 
L 246.794922 111.107228 
L 246.077437 111.107228 
L 245.359951 111.107228 
L 244.642466 111.107228 
L 243.92498 111.107228 
L 243.207495 111.107228 
L 242.490009 111.107228 
L 241.772524 111.107228 
z
" clip-path="url(#pf4412e7dc8)" style="fill: #ff0000; fill-opacity: 0.3"/>
    <path d="M 318.543466 111.107228 
L 318.543466 111.179675 
L 319.260952 111.225066 
L 319.978437 111.270458 
L 320.695922 111.361543 
L 321.413408 111.452327 
L 322.130893 111.448118 
L 322.848379 111.44421 
L 323.565864 111.440002 
L 324.28335 111.427677 
L 324.28335 111.107228 
L 324.28335 111.107228 
L 323.565864 111.107228 
L 322.848379 111.107228 
L 322.130893 111.107228 
L 321.413408 111.107228 
L 320.695922 111.107228 
L 319.978437 111.107228 
L 319.260952 111.107228 
L 318.543466 111.107228 
z
" clip-path="url(#pf4412e7dc8)" style="fill: #ff0000; fill-opacity: 0.3"/>
    <path d="M 398.901835 111.107228 
L 398.901835 111.73039 
L 399.619321 112.068274 
L 400.336806 112.237216 
L 401.054292 112.406158 
L 401.771777 112.744342 
L 402.489262 113.082226 
L 403.206748 113.420111 
L 403.924233 113.757995 
L 404.641719 113.892066 
L 405.359204 114.025837 
L 406.07669 114.293679 
L 406.794175 114.561521 
L 407.511661 114.829664 
L 408.229146 115.097507 
L 408.946631 115.365349 
L 409.664117 115.633191 
L 410.381602 115.743815 
L 411.099088 115.854138 
L 411.816573 115.964762 
L 412.534059 116.130698 
L 413.251544 116.296334 
L 413.96903 116.628206 
L 414.686515 116.959777 
L 415.404 117.291348 
L 416.121486 117.062284 
L 416.838971 116.833221 
L 417.556457 116.374793 
L 418.273942 115.916665 
L 418.991428 115.458237 
L 419.708913 115.199112 
L 420.426398 114.940288 
L 421.143884 114.422039 
L 421.861369 114.163215 
L 422.578855 113.90409 
L 423.29634 113.385841 
L 424.013826 112.867893 
L 424.731311 112.65416 
L 425.448797 112.440126 
L 426.166282 112.01236 
L 426.883767 111.584594 
L 427.601253 111.156828 
L 427.601253 111.107228 
L 427.601253 111.107228 
L 426.883767 111.107228 
L 426.166282 111.107228 
L 425.448797 111.107228 
L 424.731311 111.107228 
L 424.013826 111.107228 
L 423.29634 111.107228 
L 422.578855 111.107228 
L 421.861369 111.107228 
L 421.143884 111.107228 
L 420.426398 111.107228 
L 419.708913 111.107228 
L 418.991428 111.107228 
L 418.273942 111.107228 
L 417.556457 111.107228 
L 416.838971 111.107228 
L 416.121486 111.107228 
L 415.404 111.107228 
L 414.686515 111.107228 
L 413.96903 111.107228 
L 413.251544 111.107228 
L 412.534059 111.107228 
L 411.816573 111.107228 
L 411.099088 111.107228 
L 410.381602 111.107228 
L 409.664117 111.107228 
L 408.946631 111.107228 
L 408.229146 111.107228 
L 407.511661 111.107228 
L 406.794175 111.107228 
L 406.07669 111.107228 
L 405.359204 111.107228 
L 404.641719 111.107228 
L 403.924233 111.107228 
L 403.206748 111.107228 
L 402.489262 111.107228 
L 401.771777 111.107228 
L 401.054292 111.107228 
L 400.336806 111.107228 
L 399.619321 111.107228 
L 398.901835 111.107228 
z
" clip-path="url(#pf4412e7dc8)" style="fill: #ff0000; fill-opacity: 0.3"/>
   </g>
   <g id="matplotlib.axis_3">
    <g id="ytick_5">
     <g id="line2d_13">
      <path d="M 162.885 118.622443 
L 446.22 118.622443 
" clip-path="url(#pf4412e7dc8)" style="fill: none; stroke: #b0b0b0; stroke-width: 0.8; stroke-linecap: square"/>
     </g>
     <g id="line2d_14">
      <g>
       <use xlink:href="#mfb23a03b23" x="162.885" y="118.622443" style="stroke: #000000; stroke-width: 0.8"/>
      </g>
     </g>
     <g id="text_8">
      <!-- −250 -->
      <g transform="translate(118.804297 123.751388) scale(0.135 -0.135)">
       <defs>
        <path id="DejaVuSans-2212" d="M 678 2272 
L 4684 2272 
L 4684 1741 
L 678 1741 
L 678 2272 
z
" transform="scale(0.015625)"/>
        <path id="DejaVuSans-35" d="M 691 4666 
L 3169 4666 
L 3169 4134 
L 1269 4134 
L 1269 2991 
Q 1406 3038 1543 3061 
Q 1681 3084 1819 3084 
Q 2600 3084 3056 2656 
Q 3513 2228 3513 1497 
Q 3513 744 3044 326 
Q 2575 -91 1722 -91 
Q 1428 -91 1123 -41 
Q 819 9 494 109 
L 494 744 
Q 775 591 1075 516 
Q 1375 441 1709 441 
Q 2250 441 2565 725 
Q 2881 1009 2881 1497 
Q 2881 1984 2565 2268 
Q 2250 2553 1709 2553 
Q 1456 2553 1204 2497 
Q 953 2441 691 2322 
L 691 4666 
z
" transform="scale(0.015625)"/>
       </defs>
       <use xlink:href="#DejaVuSans-2212"/>
       <use xlink:href="#DejaVuSans-32" x="83.789062"/>
       <use xlink:href="#DejaVuSans-35" x="147.412109"/>
       <use xlink:href="#DejaVuSans-30" x="211.035156"/>
      </g>
     </g>
    </g>
    <g id="ytick_6">
     <g id="line2d_15">
      <path d="M 162.885 111.107228 
L 446.22 111.107228 
" clip-path="url(#pf4412e7dc8)" style="fill: none; stroke: #b0b0b0; stroke-width: 0.8; stroke-linecap: square"/>
     </g>
     <g id="line2d_16">
      <g>
       <use xlink:href="#mfb23a03b23" x="162.885" y="111.107228" style="stroke: #000000; stroke-width: 0.8"/>
      </g>
     </g>
     <g id="text_9">
      <!-- 0 -->
      <g transform="translate(147.295625 116.236173) scale(0.135 -0.135)">
       <use xlink:href="#DejaVuSans-30"/>
      </g>
     </g>
    </g>
    <g id="ytick_7">
     <g id="line2d_17">
      <path d="M 162.885 103.592013 
L 446.22 103.592013 
" clip-path="url(#pf4412e7dc8)" style="fill: none; stroke: #b0b0b0; stroke-width: 0.8; stroke-linecap: square"/>
     </g>
     <g id="line2d_18">
      <g>
       <use xlink:href="#mfb23a03b23" x="162.885" y="103.592013" style="stroke: #000000; stroke-width: 0.8"/>
      </g>
     </g>
     <g id="text_10">
      <!-- 250 -->
      <g transform="translate(130.116875 108.720958) scale(0.135 -0.135)">
       <use xlink:href="#DejaVuSans-32"/>
       <use xlink:href="#DejaVuSans-35" x="63.623047"/>
       <use xlink:href="#DejaVuSans-30" x="127.246094"/>
      </g>
     </g>
    </g>
    <g id="text_11">
     <!-- PEU_2-3 [kW] -->
     <g transform="translate(23.134219 107.341301) scale(0.135 -0.135)">
      <defs>
       <path id="DejaVuSans-33" d="M 2597 2516 
Q 3050 2419 3304 2112 
Q 3559 1806 3559 1356 
Q 3559 666 3084 287 
Q 2609 -91 1734 -91 
Q 1441 -91 1130 -33 
Q 819 25 488 141 
L 488 750 
Q 750 597 1062 519 
Q 1375 441 1716 441 
Q 2309 441 2620 675 
Q 2931 909 2931 1356 
Q 2931 1769 2642 2001 
Q 2353 2234 1838 2234 
L 1294 2234 
L 1294 2753 
L 1863 2753 
Q 2328 2753 2575 2939 
Q 2822 3125 2822 3475 
Q 2822 3834 2567 4026 
Q 2313 4219 1838 4219 
Q 1578 4219 1281 4162 
Q 984 4106 628 3988 
L 628 4550 
Q 988 4650 1302 4700 
Q 1616 4750 1894 4750 
Q 2613 4750 3031 4423 
Q 3450 4097 3450 3541 
Q 3450 3153 3228 2886 
Q 3006 2619 2597 2516 
z
" transform="scale(0.015625)"/>
      </defs>
      <use xlink:href="#DejaVuSans-50"/>
      <use xlink:href="#DejaVuSans-45" x="60.302734"/>
      <use xlink:href="#DejaVuSans-55" x="123.486328"/>
      <use xlink:href="#DejaVuSans-5f" x="196.679688"/>
      <use xlink:href="#DejaVuSans-32" x="246.679688"/>
      <use xlink:href="#DejaVuSans-2d" x="310.302734"/>
      <use xlink:href="#DejaVuSans-33" x="346.386719"/>
      <use xlink:href="#DejaVuSans-20" x="410.009766"/>
      <use xlink:href="#DejaVuSans-5b" x="441.796875"/>
      <use xlink:href="#DejaVuSans-6b" x="480.810547"/>
      <use xlink:href="#DejaVuSans-57" x="538.720703"/>
      <use xlink:href="#DejaVuSans-5d" x="637.597656"/>
     </g>
    </g>
   </g>
   <g id="line2d_19">
    <path d="M 175.763864 111.107228 
L 231.727728 111.107228 
L 232.445213 110.573347 
L 234.59767 110.263119 
L 235.315155 110.174439 
L 236.750126 109.642362 
L 238.185097 110.028644 
L 239.620068 110.801208 
L 241.772524 111.18749 
L 243.92498 112.910579 
L 245.359951 113.485042 
L 246.077437 114.059505 
L 248.947378 117.064689 
L 251.099835 117.81591 
L 254.687262 120.03861 
L 256.122233 120.48291 
L 256.839718 120.92751 
L 262.579602 120.495235 
L 263.297087 120.30525 
L 265.449544 119.166545 
L 266.167029 118.1565 
L 268.319485 117.146455 
L 271.189427 114.740684 
L 272.624398 113.935053 
L 275.49434 110.712529 
L 276.929311 110.091171 
L 277.646796 109.469813 
L 279.081767 108.848455 
L 283.38668 105.232133 
L 284.104165 104.101244 
L 285.539136 102.709426 
L 286.974107 102.013517 
L 288.409078 100.121186 
L 293.431476 100.541437 
L 295.583932 102.047185 
L 297.736388 102.549201 
L 299.888845 104.770699 
L 301.323816 105.319911 
L 302.041301 105.869123 
L 303.476272 106.418335 
L 304.193757 106.967547 
L 305.628728 107.678787 
L 307.063699 108.034707 
L 309.216155 109.019501 
L 311.368612 109.333938 
L 314.956039 110.907023 
L 320.695922 111.361543 
L 322.130893 111.448118 
L 324.28335 111.427677 
L 325.000835 111.107228 
L 391.009495 111.000211 
L 392.444466 110.981574 
L 393.161952 110.729062 
L 396.749379 110.22434 
L 398.18435 110.977365 
L 398.901835 111.73039 
L 399.619321 112.068274 
L 401.054292 112.406158 
L 403.924233 113.757995 
L 405.359204 114.025837 
L 409.664117 115.633191 
L 413.251544 116.296334 
L 415.404 117.291348 
L 416.838971 116.833221 
L 418.991428 115.458237 
L 420.426398 114.940288 
L 421.143884 114.422039 
L 422.578855 113.90409 
L 424.013826 112.867893 
L 425.448797 112.440126 
L 427.601253 111.156828 
L 429.036224 110.729062 
L 433.341136 110.729062 
L 433.341136 110.729062 
" clip-path="url(#pf4412e7dc8)" style="fill: none; stroke: #1f77b4; stroke-width: 1.5; stroke-linecap: square"/>
   </g>
   <g id="line2d_20">
    <path d="M 162.885 111.107228 
L 446.22 111.107228 
" clip-path="url(#pf4412e7dc8)" style="fill: none; stroke: #000000; stroke-width: 1.5; stroke-linecap: square"/>
   </g>
   <g id="patch_13">
    <path d="M 162.885 121.967826 
L 162.885 99.08087 
" style="fill: none; stroke: #000000; stroke-width: 0.8; stroke-linejoin: miter; stroke-linecap: square"/>
   </g>
   <g id="patch_14">
    <path d="M 446.22 121.967826 
L 446.22 99.08087 
" style="fill: none; stroke: #000000; stroke-width: 0.8; stroke-linejoin: miter; stroke-linecap: square"/>
   </g>
   <g id="patch_15">
    <path d="M 162.885 121.967826 
L 446.22 121.967826 
" style="fill: none; stroke: #000000; stroke-width: 0.8; stroke-linejoin: miter; stroke-linecap: square"/>
   </g>
   <g id="patch_16">
    <path d="M 162.885 99.08087 
L 446.22 99.08087 
" style="fill: none; stroke: #000000; stroke-width: 0.8; stroke-linejoin: miter; stroke-linecap: square"/>
   </g>
  </g>
  <g id="axes_4">
   <g id="patch_17">
    <path d="M 162.885 156.298261 
L 446.22 156.298261 
L 446.22 133.411304 
L 162.885 133.411304 
z
" style="fill: #ffffff"/>
   </g>
   <g id="PolyCollection_7">
    <path d="M 232.445213 135.44144 
L 232.445213 135.268934 
L 233.162699 135.252998 
L 233.880184 135.245229 
L 234.59767 135.237261 
L 235.315155 135.229492 
L 236.032641 135.205987 
L 236.750126 135.182282 
L 237.467611 135.170529 
L 238.185097 135.158777 
L 238.902582 135.135271 
L 239.620068 135.371521 
L 239.620068 135.44144 
L 239.620068 135.44144 
L 238.902582 135.44144 
L 238.185097 135.44144 
L 237.467611 135.44144 
L 236.750126 135.44144 
L 236.032641 135.44144 
L 235.315155 135.44144 
L 234.59767 135.44144 
L 233.880184 135.44144 
L 233.162699 135.44144 
L 232.445213 135.44144 
z
" clip-path="url(#p900865f610)" style="fill: #008000; fill-opacity: 0.3"/>
    <path d="M 317.825981 135.44144 
L 317.825981 135.316343 
L 318.543466 134.883882 
L 319.260952 134.667751 
L 319.978437 134.451621 
L 320.695922 134.697034 
L 321.413408 134.942447 
L 322.130893 135.024317 
L 322.848379 135.105989 
L 323.565864 135.18786 
L 324.28335 135.271125 
L 324.28335 135.44144 
L 324.28335 135.44144 
L 323.565864 135.44144 
L 322.848379 135.44144 
L 322.130893 135.44144 
L 321.413408 135.44144 
L 320.695922 135.44144 
L 319.978437 135.44144 
L 319.260952 135.44144 
L 318.543466 135.44144 
L 317.825981 135.44144 
z
" clip-path="url(#p900865f610)" style="fill: #008000; fill-opacity: 0.3"/>
    <path d="M 388.857039 135.44144 
L 388.857039 135.245627 
L 389.574525 135.218935 
L 390.29201 135.111766 
L 391.009495 135.058181 
L 391.726981 135.004597 
L 392.444466 134.857588 
L 393.161952 134.710778 
L 393.879437 134.661775 
L 394.596923 134.612772 
L 395.314408 134.56377 
L 396.031894 134.755 
L 396.749379 134.946231 
L 397.466864 135.137462 
L 398.18435 135.328693 
L 398.18435 135.44144 
L 398.18435 135.44144 
L 397.466864 135.44144 
L 396.749379 135.44144 
L 396.031894 135.44144 
L 395.314408 135.44144 
L 394.596923 135.44144 
L 393.879437 135.44144 
L 393.161952 135.44144 
L 392.444466 135.44144 
L 391.726981 135.44144 
L 391.009495 135.44144 
L 390.29201 135.44144 
L 389.574525 135.44144 
L 388.857039 135.44144 
z
" clip-path="url(#p900865f610)" style="fill: #008000; fill-opacity: 0.3"/>
   </g>
   <g id="PolyCollection_8">
    <path d="M 240.337553 135.44144 
L 240.337553 135.450205 
L 241.055039 135.528888 
L 241.772524 135.607771 
L 242.490009 135.843822 
L 243.207495 136.080071 
L 243.92498 136.519305 
L 244.642466 136.739021 
L 245.359951 136.958539 
L 246.077437 137.397971 
L 246.794922 137.837205 
L 247.512408 138.276438 
L 248.229893 138.740771 
L 248.947378 139.205104 
L 249.664864 139.359881 
L 250.382349 139.514659 
L 251.099835 139.669436 
L 251.81732 140.133769 
L 252.534806 140.734752 
L 253.252291 141.335735 
L 253.969777 141.936718 
L 254.687262 142.046277 
L 255.404747 142.101057 
L 256.122233 142.156036 
L 256.839718 142.265595 
L 257.557204 142.375155 
L 258.274689 141.715806 
L 258.992175 141.495891 
L 259.70966 141.276175 
L 260.427145 141.056259 
L 261.144631 140.726585 
L 261.862116 140.396911 
L 262.579602 140.231974 
L 263.297087 140.067037 
L 264.014573 139.737363 
L 264.732058 139.346535 
L 265.449544 138.955906 
L 266.167029 138.565078 
L 266.884514 138.581213 
L 267.602 138.597348 
L 268.319485 138.613483 
L 269.036971 138.662088 
L 269.754456 138.710493 
L 270.471942 139.100923 
L 271.189427 139.491352 
L 271.906913 139.686567 
L 272.624398 139.881782 
L 273.341883 140.515434 
L 274.059369 141.148886 
L 274.776854 142.810604 
L 275.49434 143.620148 
L 276.211825 144.024721 
L 276.929311 144.429493 
L 277.646796 145.012747 
L 278.364281 145.304375 
L 279.081767 145.595802 
L 279.799252 146.179057 
L 280.516738 147.87404 
L 281.234223 148.783981 
L 281.951709 149.693921 
L 282.669194 150.569002 
L 283.38668 151.443884 
L 284.104165 151.983314 
L 284.82165 152.522745 
L 285.539136 153.062175 
L 286.256621 153.538061 
L 286.974107 154.013948 
L 287.691592 154.96572 
L 288.409078 155.063128 
L 289.126563 155.095598 
L 289.844048 155.128067 
L 290.561534 155.160536 
L 291.279019 155.257945 
L 291.996505 155.013727 
L 292.71399 154.769509 
L 293.431476 154.525291 
L 294.148961 153.792438 
L 294.866447 152.426731 
L 295.583932 151.523364 
L 296.301417 151.222175 
L 297.018903 150.920986 
L 297.736388 150.619798 
L 298.453874 149.716431 
L 299.171359 148.161484 
L 299.888845 146.606338 
L 300.60633 146.206945 
L 301.323816 145.807551 
L 302.041301 145.008564 
L 302.758786 144.714746 
L 303.476272 144.420927 
L 304.193757 143.833291 
L 304.911243 143.245654 
L 305.628728 142.658017 
L 306.346214 142.338901 
L 307.063699 142.019784 
L 307.781184 141.381352 
L 308.49867 140.743118 
L 309.216155 139.795928 
L 309.933641 139.479998 
L 310.651126 139.164268 
L 311.368612 138.848538 
L 312.086097 138.213492 
L 312.803583 137.578645 
L 313.521068 136.943599 
L 314.238553 136.536835 
L 314.956039 136.13007 
L 315.673524 135.926489 
L 316.39101 135.723107 
L 317.108495 135.519725 
L 317.108495 135.44144 
L 317.108495 135.44144 
L 316.39101 135.44144 
L 315.673524 135.44144 
L 314.956039 135.44144 
L 314.238553 135.44144 
L 313.521068 135.44144 
L 312.803583 135.44144 
L 312.086097 135.44144 
L 311.368612 135.44144 
L 310.651126 135.44144 
L 309.933641 135.44144 
L 309.216155 135.44144 
L 308.49867 135.44144 
L 307.781184 135.44144 
L 307.063699 135.44144 
L 306.346214 135.44144 
L 305.628728 135.44144 
L 304.911243 135.44144 
L 304.193757 135.44144 
L 303.476272 135.44144 
L 302.758786 135.44144 
L 302.041301 135.44144 
L 301.323816 135.44144 
L 300.60633 135.44144 
L 299.888845 135.44144 
L 299.171359 135.44144 
L 298.453874 135.44144 
L 297.736388 135.44144 
L 297.018903 135.44144 
L 296.301417 135.44144 
L 295.583932 135.44144 
L 294.866447 135.44144 
L 294.148961 135.44144 
L 293.431476 135.44144 
L 292.71399 135.44144 
L 291.996505 135.44144 
L 291.279019 135.44144 
L 290.561534 135.44144 
L 289.844048 135.44144 
L 289.126563 135.44144 
L 288.409078 135.44144 
L 287.691592 135.44144 
L 286.974107 135.44144 
L 286.256621 135.44144 
L 285.539136 135.44144 
L 284.82165 135.44144 
L 284.104165 135.44144 
L 283.38668 135.44144 
L 282.669194 135.44144 
L 281.951709 135.44144 
L 281.234223 135.44144 
L 280.516738 135.44144 
L 279.799252 135.44144 
L 279.081767 135.44144 
L 278.364281 135.44144 
L 277.646796 135.44144 
L 276.929311 135.44144 
L 276.211825 135.44144 
L 275.49434 135.44144 
L 274.776854 135.44144 
L 274.059369 135.44144 
L 273.341883 135.44144 
L 272.624398 135.44144 
L 271.906913 135.44144 
L 271.189427 135.44144 
L 270.471942 135.44144 
L 269.754456 135.44144 
L 269.036971 135.44144 
L 268.319485 135.44144 
L 267.602 135.44144 
L 266.884514 135.44144 
L 266.167029 135.44144 
L 265.449544 135.44144 
L 264.732058 135.44144 
L 264.014573 135.44144 
L 263.297087 135.44144 
L 262.579602 135.44144 
L 261.862116 135.44144 
L 261.144631 135.44144 
L 260.427145 135.44144 
L 259.70966 135.44144 
L 258.992175 135.44144 
L 258.274689 135.44144 
L 257.557204 135.44144 
L 256.839718 135.44144 
L 256.122233 135.44144 
L 255.404747 135.44144 
L 254.687262 135.44144 
L 253.969777 135.44144 
L 253.252291 135.44144 
L 252.534806 135.44144 
L 251.81732 135.44144 
L 251.099835 135.44144 
L 250.382349 135.44144 
L 249.664864 135.44144 
L 248.947378 135.44144 
L 248.229893 135.44144 
L 247.512408 135.44144 
L 246.794922 135.44144 
L 246.077437 135.44144 
L 245.359951 135.44144 
L 244.642466 135.44144 
L 243.92498 135.44144 
L 243.207495 135.44144 
L 242.490009 135.44144 
L 241.772524 135.44144 
L 241.055039 135.44144 
L 240.337553 135.44144 
z
" clip-path="url(#p900865f610)" style="fill: #ff0000; fill-opacity: 0.3"/>
    <path d="M 398.901835 135.44144 
L 398.901835 135.711155 
L 399.619321 136.821091 
L 400.336806 137.37586 
L 401.054292 137.930828 
L 401.771777 138.467669 
L 402.489262 139.00471 
L 403.206748 139.541551 
L 403.924233 140.347111 
L 404.641719 140.749692 
L 405.359204 141.152472 
L 406.07669 141.958032 
L 406.794175 142.763393 
L 407.511661 143.729309 
L 408.229146 144.695025 
L 408.946631 145.222703 
L 409.664117 145.750182 
L 410.381602 145.926074 
L 411.099088 146.101967 
L 411.816573 146.277859 
L 412.534059 146.641597 
L 413.251544 147.005533 
L 413.96903 147.733007 
L 414.686515 147.991368 
L 415.404 148.249729 
L 416.121486 148.379009 
L 416.838971 148.50809 
L 417.556457 148.766451 
L 418.273942 148.47323 
L 418.991428 148.180209 
L 419.708913 148.033599 
L 420.426398 147.886988 
L 421.143884 147.5607 
L 421.861369 147.397556 
L 422.578855 147.234413 
L 423.29634 146.88701 
L 424.013826 146.539806 
L 424.731311 146.366105 
L 425.448797 146.192403 
L 426.166282 145.845 
L 426.883767 145.497797 
L 427.601253 145.150394 
L 428.318738 144.808768 
L 429.036224 144.467142 
L 429.753709 144.239258 
L 430.471195 144.011574 
L 431.18868 143.78369 
L 431.906165 143.78369 
L 432.623651 143.78369 
L 433.341136 143.78369 
L 433.341136 135.44144 
L 433.341136 135.44144 
L 432.623651 135.44144 
L 431.906165 135.44144 
L 431.18868 135.44144 
L 430.471195 135.44144 
L 429.753709 135.44144 
L 429.036224 135.44144 
L 428.318738 135.44144 
L 427.601253 135.44144 
L 426.883767 135.44144 
L 426.166282 135.44144 
L 425.448797 135.44144 
L 424.731311 135.44144 
L 424.013826 135.44144 
L 423.29634 135.44144 
L 422.578855 135.44144 
L 421.861369 135.44144 
L 421.143884 135.44144 
L 420.426398 135.44144 
L 419.708913 135.44144 
L 418.991428 135.44144 
L 418.273942 135.44144 
L 417.556457 135.44144 
L 416.838971 135.44144 
L 416.121486 135.44144 
L 415.404 135.44144 
L 414.686515 135.44144 
L 413.96903 135.44144 
L 413.251544 135.44144 
L 412.534059 135.44144 
L 411.816573 135.44144 
L 411.099088 135.44144 
L 410.381602 135.44144 
L 409.664117 135.44144 
L 408.946631 135.44144 
L 408.229146 135.44144 
L 407.511661 135.44144 
L 406.794175 135.44144 
L 406.07669 135.44144 
L 405.359204 135.44144 
L 404.641719 135.44144 
L 403.924233 135.44144 
L 403.206748 135.44144 
L 402.489262 135.44144 
L 401.771777 135.44144 
L 401.054292 135.44144 
L 400.336806 135.44144 
L 399.619321 135.44144 
L 398.901835 135.44144 
z
" clip-path="url(#p900865f610)" style="fill: #ff0000; fill-opacity: 0.3"/>
   </g>
   <g id="matplotlib.axis_4">
    <g id="ytick_8">
     <g id="line2d_21">
      <path d="M 162.885 155.361329 
L 446.22 155.361329 
" clip-path="url(#p900865f610)" style="fill: none; stroke: #b0b0b0; stroke-width: 0.8; stroke-linecap: square"/>
     </g>
     <g id="line2d_22">
      <g>
       <use xlink:href="#mfb23a03b23" x="162.885" y="155.361329" style="stroke: #000000; stroke-width: 0.8"/>
      </g>
     </g>
     <g id="text_12">
      <!-- −1000 -->
      <g transform="translate(110.214922 160.490274) scale(0.135 -0.135)">
       <use xlink:href="#DejaVuSans-2212"/>
       <use xlink:href="#DejaVuSans-31" x="83.789062"/>
       <use xlink:href="#DejaVuSans-30" x="147.412109"/>
       <use xlink:href="#DejaVuSans-30" x="211.035156"/>
       <use xlink:href="#DejaVuSans-30" x="274.658203"/>
      </g>
     </g>
    </g>
    <g id="ytick_9">
     <g id="line2d_23">
      <path d="M 162.885 135.44144 
L 446.22 135.44144 
" clip-path="url(#p900865f610)" style="fill: none; stroke: #b0b0b0; stroke-width: 0.8; stroke-linecap: square"/>
     </g>
     <g id="line2d_24">
      <g>
       <use xlink:href="#mfb23a03b23" x="162.885" y="135.44144" style="stroke: #000000; stroke-width: 0.8"/>
      </g>
     </g>
     <g id="text_13">
      <!-- 0 -->
      <g transform="translate(147.295625 140.570385) scale(0.135 -0.135)">
       <use xlink:href="#DejaVuSans-30"/>
      </g>
     </g>
    </g>
    <g id="text_14">
     <!-- PEU_2-4 [kW] -->
     <g transform="translate(14.544844 141.671736) scale(0.135 -0.135)">
      <defs>
       <path id="DejaVuSans-34" d="M 2419 4116 
L 825 1625 
L 2419 1625 
L 2419 4116 
z
M 2253 4666 
L 3047 4666 
L 3047 1625 
L 3713 1625 
L 3713 1100 
L 3047 1100 
L 3047 0 
L 2419 0 
L 2419 1100 
L 313 1100 
L 313 1709 
L 2253 4666 
z
" transform="scale(0.015625)"/>
      </defs>
      <use xlink:href="#DejaVuSans-50"/>
      <use xlink:href="#DejaVuSans-45" x="60.302734"/>
      <use xlink:href="#DejaVuSans-55" x="123.486328"/>
      <use xlink:href="#DejaVuSans-5f" x="196.679688"/>
      <use xlink:href="#DejaVuSans-32" x="246.679688"/>
      <use xlink:href="#DejaVuSans-2d" x="310.302734"/>
      <use xlink:href="#DejaVuSans-34" x="346.386719"/>
      <use xlink:href="#DejaVuSans-20" x="410.009766"/>
      <use xlink:href="#DejaVuSans-5b" x="441.796875"/>
      <use xlink:href="#DejaVuSans-6b" x="480.810547"/>
      <use xlink:href="#DejaVuSans-57" x="538.720703"/>
      <use xlink:href="#DejaVuSans-5d" x="637.597656"/>
     </g>
    </g>
   </g>
   <g id="line2d_25">
    <path d="M 175.763864 135.44144 
L 231.727728 135.44144 
L 232.445213 135.268934 
L 238.902582 135.135271 
L 239.620068 135.371521 
L 241.772524 135.607771 
L 243.207495 136.080071 
L 243.92498 136.519305 
L 245.359951 136.958539 
L 248.947378 139.205104 
L 251.099835 139.669436 
L 251.81732 140.133769 
L 253.969777 141.936718 
L 257.557204 142.375155 
L 258.274689 141.715806 
L 261.144631 140.726585 
L 261.862116 140.396911 
L 263.297087 140.067037 
L 265.449544 138.955906 
L 266.167029 138.565078 
L 269.754456 138.710493 
L 271.189427 139.491352 
L 272.624398 139.881782 
L 274.059369 141.148886 
L 274.776854 142.810604 
L 275.49434 143.620148 
L 276.929311 144.429493 
L 277.646796 145.012747 
L 279.081767 145.595802 
L 279.799252 146.179057 
L 280.516738 147.87404 
L 283.38668 151.443884 
L 286.974107 154.013948 
L 287.691592 154.96572 
L 289.126563 155.095598 
L 291.279019 155.257945 
L 293.431476 154.525291 
L 294.148961 153.792438 
L 294.866447 152.426731 
L 295.583932 151.523364 
L 297.736388 150.619798 
L 298.453874 149.716431 
L 299.888845 146.606338 
L 301.323816 145.807551 
L 302.041301 145.008564 
L 303.476272 144.420927 
L 305.628728 142.658017 
L 307.063699 142.019784 
L 308.49867 140.743118 
L 309.216155 139.795928 
L 311.368612 138.848538 
L 313.521068 136.943599 
L 314.956039 136.13007 
L 317.825981 135.316343 
L 318.543466 134.883882 
L 319.978437 134.451621 
L 321.413408 134.942447 
L 326.435806 135.44144 
L 388.139554 135.44144 
L 388.857039 135.245627 
L 391.009495 135.058181 
L 392.444466 134.857588 
L 393.879437 134.661775 
L 395.314408 134.56377 
L 398.18435 135.328693 
L 398.901835 135.711155 
L 399.619321 136.821091 
L 403.206748 139.541551 
L 403.924233 140.347111 
L 405.359204 141.152472 
L 407.511661 143.729309 
L 408.229146 144.695025 
L 409.664117 145.750182 
L 411.816573 146.277859 
L 413.251544 147.005533 
L 413.96903 147.733007 
L 415.404 148.249729 
L 416.838971 148.50809 
L 417.556457 148.766451 
L 418.991428 148.180209 
L 420.426398 147.886988 
L 421.143884 147.5607 
L 422.578855 147.234413 
L 424.013826 146.539806 
L 425.448797 146.192403 
L 429.036224 144.467142 
L 431.18868 143.78369 
L 433.341136 143.78369 
L 433.341136 143.78369 
" clip-path="url(#p900865f610)" style="fill: none; stroke: #1f77b4; stroke-width: 1.5; stroke-linecap: square"/>
   </g>
   <g id="line2d_26">
    <path d="M 162.885 135.44144 
L 446.22 135.44144 
" clip-path="url(#p900865f610)" style="fill: none; stroke: #000000; stroke-width: 1.5; stroke-linecap: square"/>
   </g>
   <g id="patch_18">
    <path d="M 162.885 156.298261 
L 162.885 133.411304 
" style="fill: none; stroke: #000000; stroke-width: 0.8; stroke-linejoin: miter; stroke-linecap: square"/>
   </g>
   <g id="patch_19">
    <path d="M 446.22 156.298261 
L 446.22 133.411304 
" style="fill: none; stroke: #000000; stroke-width: 0.8; stroke-linejoin: miter; stroke-linecap: square"/>
   </g>
   <g id="patch_20">
    <path d="M 162.885 156.298261 
L 446.22 156.298261 
" style="fill: none; stroke: #000000; stroke-width: 0.8; stroke-linejoin: miter; stroke-linecap: square"/>
   </g>
   <g id="patch_21">
    <path d="M 162.885 133.411304 
L 446.22 133.411304 
" style="fill: none; stroke: #000000; stroke-width: 0.8; stroke-linejoin: miter; stroke-linecap: square"/>
   </g>
  </g>
  <g id="axes_5">
   <g id="patch_22">
    <path d="M 162.885 190.628696 
L 446.22 190.628696 
L 446.22 167.741739 
L 162.885 167.741739 
z
" style="fill: #ffffff"/>
   </g>
   <g id="matplotlib.axis_5">
    <g id="ytick_10">
     <g id="line2d_27">
      <g>
       <use xlink:href="#mfb23a03b23" x="162.885" y="189.588379" style="stroke: #000000; stroke-width: 0.8"/>
      </g>
     </g>
     <g id="text_15">
      <!-- 0 -->
      <g transform="translate(147.295625 194.717325) scale(0.135 -0.135)">
       <use xlink:href="#DejaVuSans-30"/>
      </g>
     </g>
    </g>
    <g id="ytick_11">
     <g id="line2d_28">
      <g>
       <use xlink:href="#mfb23a03b23" x="162.885" y="168.782055" style="stroke: #000000; stroke-width: 0.8"/>
      </g>
     </g>
     <g id="text_16">
      <!-- 1 -->
      <g transform="translate(147.295625 173.911001) scale(0.135 -0.135)">
       <use xlink:href="#DejaVuSans-31"/>
      </g>
     </g>
    </g>
    <g id="text_17">
     <!-- SW_2-1 -->
     <g transform="translate(49.436719 176.002171) scale(0.135 -0.135)">
      <defs>
       <path id="DejaVuSans-53" d="M 3425 4513 
L 3425 3897 
Q 3066 4069 2747 4153 
Q 2428 4238 2131 4238 
Q 1616 4238 1336 4038 
Q 1056 3838 1056 3469 
Q 1056 3159 1242 3001 
Q 1428 2844 1947 2747 
L 2328 2669 
Q 3034 2534 3370 2195 
Q 3706 1856 3706 1288 
Q 3706 609 3251 259 
Q 2797 -91 1919 -91 
Q 1588 -91 1214 -16 
Q 841 59 441 206 
L 441 856 
Q 825 641 1194 531 
Q 1563 422 1919 422 
Q 2459 422 2753 634 
Q 3047 847 3047 1241 
Q 3047 1584 2836 1778 
Q 2625 1972 2144 2069 
L 1759 2144 
Q 1053 2284 737 2584 
Q 422 2884 422 3419 
Q 422 4038 858 4394 
Q 1294 4750 2059 4750 
Q 2388 4750 2728 4690 
Q 3069 4631 3425 4513 
z
" transform="scale(0.015625)"/>
      </defs>
      <use xlink:href="#DejaVuSans-53"/>
      <use xlink:href="#DejaVuSans-57" x="63.476562"/>
      <use xlink:href="#DejaVuSans-5f" x="162.353516"/>
      <use xlink:href="#DejaVuSans-32" x="212.353516"/>
      <use xlink:href="#DejaVuSans-2d" x="275.976562"/>
      <use xlink:href="#DejaVuSans-31" x="312.060547"/>
     </g>
    </g>
   </g>
   <g id="line2d_29">
    <path d="M 175.763864 189.588379 
L 242.490009 189.588379 
L 243.207495 168.782055 
L 274.776854 168.782055 
L 275.49434 189.588379 
L 433.341136 189.588379 
L 433.341136 189.588379 
" clip-path="url(#p9be95334cd)" style="fill: none; stroke: #1f77b4; stroke-width: 1.5; stroke-linecap: square"/>
   </g>
   <g id="line2d_30">
    <path d="M 175.763864 168.782055 
L 238.185097 168.782055 
L 238.902582 189.588379 
L 274.776854 189.588379 
L 275.49434 168.782055 
L 317.825981 168.782055 
L 318.543466 189.588379 
L 324.28335 189.588379 
L 325.000835 168.782055 
L 389.574525 168.782055 
L 390.29201 189.588379 
L 398.18435 189.588379 
L 398.901835 168.782055 
L 433.341136 168.782055 
L 433.341136 168.782055 
" clip-path="url(#p9be95334cd)" style="fill: none; stroke: #ff7f0e; stroke-width: 1.5; stroke-linecap: square"/>
   </g>
   <g id="patch_23">
    <path d="M 162.885 190.628696 
L 162.885 167.741739 
" style="fill: none; stroke: #000000; stroke-width: 0.8; stroke-linejoin: miter; stroke-linecap: square"/>
   </g>
   <g id="patch_24">
    <path d="M 446.22 190.628696 
L 446.22 167.741739 
" style="fill: none; stroke: #000000; stroke-width: 0.8; stroke-linejoin: miter; stroke-linecap: square"/>
   </g>
   <g id="patch_25">
    <path d="M 162.885 190.628696 
L 446.22 190.628696 
" style="fill: none; stroke: #000000; stroke-width: 0.8; stroke-linejoin: miter; stroke-linecap: square"/>
   </g>
   <g id="patch_26">
    <path d="M 162.885 167.741739 
L 446.22 167.741739 
" style="fill: none; stroke: #000000; stroke-width: 0.8; stroke-linejoin: miter; stroke-linecap: square"/>
   </g>
  </g>
  <g id="axes_6">
   <g id="patch_27">
    <path d="M 162.885 224.95913 
L 446.22 224.95913 
L 446.22 202.072174 
L 162.885 202.072174 
z
" style="fill: #ffffff"/>
   </g>
   <g id="matplotlib.axis_6">
    <g id="ytick_12">
     <g id="line2d_31">
      <g>
       <use xlink:href="#mfb23a03b23" x="162.885" y="223.918814" style="stroke: #000000; stroke-width: 0.8"/>
      </g>
     </g>
     <g id="text_18">
      <!-- 0 -->
      <g transform="translate(147.295625 229.04776) scale(0.135 -0.135)">
       <use xlink:href="#DejaVuSans-30"/>
      </g>
     </g>
    </g>
    <g id="ytick_13">
     <g id="line2d_32">
      <g>
       <use xlink:href="#mfb23a03b23" x="162.885" y="203.11249" style="stroke: #000000; stroke-width: 0.8"/>
      </g>
     </g>
     <g id="text_19">
      <!-- 1 -->
      <g transform="translate(147.295625 208.241435) scale(0.135 -0.135)">
       <use xlink:href="#DejaVuSans-31"/>
      </g>
     </g>
    </g>
    <g id="text_20">
     <!-- SW_2-3 -->
     <g transform="translate(49.436719 210.332605) scale(0.135 -0.135)">
      <use xlink:href="#DejaVuSans-53"/>
      <use xlink:href="#DejaVuSans-57" x="63.476562"/>
      <use xlink:href="#DejaVuSans-5f" x="162.353516"/>
      <use xlink:href="#DejaVuSans-32" x="212.353516"/>
      <use xlink:href="#DejaVuSans-2d" x="275.976562"/>
      <use xlink:href="#DejaVuSans-33" x="312.060547"/>
     </g>
    </g>
   </g>
   <g id="line2d_33">
    <path d="M 175.763864 223.918814 
L 242.490009 223.918814 
L 243.207495 203.11249 
L 274.776854 203.11249 
L 275.49434 223.918814 
L 433.341136 223.918814 
L 433.341136 223.918814 
" clip-path="url(#p0297f5a957)" style="fill: none; stroke: #1f77b4; stroke-width: 1.5; stroke-linecap: square"/>
   </g>
   <g id="line2d_34">
    <path d="M 175.763864 203.11249 
L 241.055039 203.11249 
L 241.772524 223.918814 
L 274.776854 223.918814 
L 275.49434 203.11249 
L 317.825981 203.11249 
L 318.543466 223.918814 
L 324.28335 223.918814 
L 325.000835 203.11249 
L 398.18435 203.11249 
L 398.901835 223.918814 
L 427.601253 223.918814 
L 428.318738 203.11249 
L 433.341136 203.11249 
L 433.341136 203.11249 
" clip-path="url(#p0297f5a957)" style="fill: none; stroke: #ff7f0e; stroke-width: 1.5; stroke-linecap: square"/>
   </g>
   <g id="patch_28">
    <path d="M 162.885 224.95913 
L 162.885 202.072174 
" style="fill: none; stroke: #000000; stroke-width: 0.8; stroke-linejoin: miter; stroke-linecap: square"/>
   </g>
   <g id="patch_29">
    <path d="M 446.22 224.95913 
L 446.22 202.072174 
" style="fill: none; stroke: #000000; stroke-width: 0.8; stroke-linejoin: miter; stroke-linecap: square"/>
   </g>
   <g id="patch_30">
    <path d="M 162.885 224.95913 
L 446.22 224.95913 
" style="fill: none; stroke: #000000; stroke-width: 0.8; stroke-linejoin: miter; stroke-linecap: square"/>
   </g>
   <g id="patch_31">
    <path d="M 162.885 202.072174 
L 446.22 202.072174 
" style="fill: none; stroke: #000000; stroke-width: 0.8; stroke-linejoin: miter; stroke-linecap: square"/>
   </g>
  </g>
  <g id="axes_7">
   <g id="patch_32">
    <path d="M 162.885 259.289565 
L 446.22 259.289565 
L 446.22 236.402609 
L 162.885 236.402609 
z
" style="fill: #ffffff"/>
   </g>
   <g id="matplotlib.axis_7">
    <g id="ytick_14">
     <g id="line2d_35">
      <g>
       <use xlink:href="#mfb23a03b23" x="162.885" y="258.249249" style="stroke: #000000; stroke-width: 0.8"/>
      </g>
     </g>
     <g id="text_21">
      <!-- 0 -->
      <g transform="translate(147.295625 263.378194) scale(0.135 -0.135)">
       <use xlink:href="#DejaVuSans-30"/>
      </g>
     </g>
    </g>
    <g id="ytick_15">
     <g id="line2d_36">
      <g>
       <use xlink:href="#mfb23a03b23" x="162.885" y="237.442925" style="stroke: #000000; stroke-width: 0.8"/>
      </g>
     </g>
     <g id="text_22">
      <!-- 1 -->
      <g transform="translate(147.295625 242.57187) scale(0.135 -0.135)">
       <use xlink:href="#DejaVuSans-31"/>
      </g>
     </g>
    </g>
    <g id="text_23">
     <!-- SW_2-4 -->
     <g transform="translate(49.436719 244.66304) scale(0.135 -0.135)">
      <use xlink:href="#DejaVuSans-53"/>
      <use xlink:href="#DejaVuSans-57" x="63.476562"/>
      <use xlink:href="#DejaVuSans-5f" x="162.353516"/>
      <use xlink:href="#DejaVuSans-32" x="212.353516"/>
      <use xlink:href="#DejaVuSans-2d" x="275.976562"/>
      <use xlink:href="#DejaVuSans-34" x="312.060547"/>
     </g>
    </g>
   </g>
   <g id="line2d_37">
    <path d="M 175.763864 258.249249 
L 242.490009 258.249249 
L 243.207495 237.442925 
L 312.803583 237.442925 
L 313.521068 258.249249 
L 433.341136 258.249249 
L 433.341136 258.249249 
" clip-path="url(#pf04580da16)" style="fill: none; stroke: #1f77b4; stroke-width: 1.5; stroke-linecap: square"/>
   </g>
   <g id="line2d_38">
    <path d="M 175.763864 237.442925 
L 239.620068 237.442925 
L 240.337553 258.249249 
L 317.108495 258.249249 
L 317.825981 237.442925 
L 398.18435 237.442925 
L 398.901835 258.249249 
L 433.341136 258.249249 
L 433.341136 258.249249 
" clip-path="url(#pf04580da16)" style="fill: none; stroke: #ff7f0e; stroke-width: 1.5; stroke-linecap: square"/>
   </g>
   <g id="patch_33">
    <path d="M 162.885 259.289565 
L 162.885 236.402609 
" style="fill: none; stroke: #000000; stroke-width: 0.8; stroke-linejoin: miter; stroke-linecap: square"/>
   </g>
   <g id="patch_34">
    <path d="M 446.22 259.289565 
L 446.22 236.402609 
" style="fill: none; stroke: #000000; stroke-width: 0.8; stroke-linejoin: miter; stroke-linecap: square"/>
   </g>
   <g id="patch_35">
    <path d="M 162.885 259.289565 
L 446.22 259.289565 
" style="fill: none; stroke: #000000; stroke-width: 0.8; stroke-linejoin: miter; stroke-linecap: square"/>
   </g>
   <g id="patch_36">
    <path d="M 162.885 236.402609 
L 446.22 236.402609 
" style="fill: none; stroke: #000000; stroke-width: 0.8; stroke-linejoin: miter; stroke-linecap: square"/>
   </g>
  </g>
  <g id="axes_8">
   <g id="patch_37">
    <path d="M 162.885 293.62 
L 446.22 293.62 
L 446.22 270.733043 
L 162.885 270.733043 
z
" style="fill: #ffffff"/>
   </g>
   <g id="matplotlib.axis_8">
    <g id="xtick_1">
     <g id="line2d_39">
      <defs>
       <path id="mb87c9143d4" d="M 0 0 
L 0 3.5 
" style="stroke: #000000; stroke-width: 0.8"/>
      </defs>
      <g>
       <use xlink:href="#mb87c9143d4" x="175.763864" y="293.62" style="stroke: #000000; stroke-width: 0.8"/>
      </g>
     </g>
     <g id="text_24">
      <!-- 00 -->
      <g transform="translate(167.174489 310.877891) scale(0.135 -0.135)">
       <use xlink:href="#DejaVuSans-30"/>
       <use xlink:href="#DejaVuSans-30" x="63.623047"/>
      </g>
     </g>
    </g>
    <g id="xtick_2">
     <g id="line2d_40">
      <g>
       <use xlink:href="#mb87c9143d4" x="208.050708" y="293.62" style="stroke: #000000; stroke-width: 0.8"/>
      </g>
     </g>
     <g id="text_25">
      <!-- 03 -->
      <g transform="translate(199.461333 310.877891) scale(0.135 -0.135)">
       <use xlink:href="#DejaVuSans-30"/>
       <use xlink:href="#DejaVuSans-33" x="63.623047"/>
      </g>
     </g>
    </g>
    <g id="xtick_3">
     <g id="line2d_41">
      <g>
       <use xlink:href="#mb87c9143d4" x="240.337553" y="293.62" style="stroke: #000000; stroke-width: 0.8"/>
      </g>
     </g>
     <g id="text_26">
      <!-- 06 -->
      <g transform="translate(231.748178 310.877891) scale(0.135 -0.135)">
       <defs>
        <path id="DejaVuSans-36" d="M 2113 2584 
Q 1688 2584 1439 2293 
Q 1191 2003 1191 1497 
Q 1191 994 1439 701 
Q 1688 409 2113 409 
Q 2538 409 2786 701 
Q 3034 994 3034 1497 
Q 3034 2003 2786 2293 
Q 2538 2584 2113 2584 
z
M 3366 4563 
L 3366 3988 
Q 3128 4100 2886 4159 
Q 2644 4219 2406 4219 
Q 1781 4219 1451 3797 
Q 1122 3375 1075 2522 
Q 1259 2794 1537 2939 
Q 1816 3084 2150 3084 
Q 2853 3084 3261 2657 
Q 3669 2231 3669 1497 
Q 3669 778 3244 343 
Q 2819 -91 2113 -91 
Q 1303 -91 875 529 
Q 447 1150 447 2328 
Q 447 3434 972 4092 
Q 1497 4750 2381 4750 
Q 2619 4750 2861 4703 
Q 3103 4656 3366 4563 
z
" transform="scale(0.015625)"/>
       </defs>
       <use xlink:href="#DejaVuSans-30"/>
       <use xlink:href="#DejaVuSans-36" x="63.623047"/>
      </g>
     </g>
    </g>
    <g id="xtick_4">
     <g id="line2d_42">
      <g>
       <use xlink:href="#mb87c9143d4" x="272.624398" y="293.62" style="stroke: #000000; stroke-width: 0.8"/>
      </g>
     </g>
     <g id="text_27">
      <!-- 09 -->
      <g transform="translate(264.035023 310.877891) scale(0.135 -0.135)">
       <defs>
        <path id="DejaVuSans-39" d="M 703 97 
L 703 672 
Q 941 559 1184 500 
Q 1428 441 1663 441 
Q 2288 441 2617 861 
Q 2947 1281 2994 2138 
Q 2813 1869 2534 1725 
Q 2256 1581 1919 1581 
Q 1219 1581 811 2004 
Q 403 2428 403 3163 
Q 403 3881 828 4315 
Q 1253 4750 1959 4750 
Q 2769 4750 3195 4129 
Q 3622 3509 3622 2328 
Q 3622 1225 3098 567 
Q 2575 -91 1691 -91 
Q 1453 -91 1209 -44 
Q 966 3 703 97 
z
M 1959 2075 
Q 2384 2075 2632 2365 
Q 2881 2656 2881 3163 
Q 2881 3666 2632 3958 
Q 2384 4250 1959 4250 
Q 1534 4250 1286 3958 
Q 1038 3666 1038 3163 
Q 1038 2656 1286 2365 
Q 1534 2075 1959 2075 
z
" transform="scale(0.015625)"/>
       </defs>
       <use xlink:href="#DejaVuSans-30"/>
       <use xlink:href="#DejaVuSans-39" x="63.623047"/>
      </g>
     </g>
    </g>
    <g id="xtick_5">
     <g id="line2d_43">
      <g>
       <use xlink:href="#mb87c9143d4" x="304.911243" y="293.62" style="stroke: #000000; stroke-width: 0.8"/>
      </g>
     </g>
     <g id="text_28">
      <!-- 12 -->
      <g transform="translate(296.321868 310.877891) scale(0.135 -0.135)">
       <use xlink:href="#DejaVuSans-31"/>
       <use xlink:href="#DejaVuSans-32" x="63.623047"/>
      </g>
     </g>
    </g>
    <g id="xtick_6">
     <g id="line2d_44">
      <g>
       <use xlink:href="#mb87c9143d4" x="337.198087" y="293.62" style="stroke: #000000; stroke-width: 0.8"/>
      </g>
     </g>
     <g id="text_29">
      <!-- 15 -->
      <g transform="translate(328.608712 310.877891) scale(0.135 -0.135)">
       <use xlink:href="#DejaVuSans-31"/>
       <use xlink:href="#DejaVuSans-35" x="63.623047"/>
      </g>
     </g>
    </g>
    <g id="xtick_7">
     <g id="line2d_45">
      <g>
       <use xlink:href="#mb87c9143d4" x="369.484932" y="293.62" style="stroke: #000000; stroke-width: 0.8"/>
      </g>
     </g>
     <g id="text_30">
      <!-- 18 -->
      <g transform="translate(360.895557 310.877891) scale(0.135 -0.135)">
       <defs>
        <path id="DejaVuSans-38" d="M 2034 2216 
Q 1584 2216 1326 1975 
Q 1069 1734 1069 1313 
Q 1069 891 1326 650 
Q 1584 409 2034 409 
Q 2484 409 2743 651 
Q 3003 894 3003 1313 
Q 3003 1734 2745 1975 
Q 2488 2216 2034 2216 
z
M 1403 2484 
Q 997 2584 770 2862 
Q 544 3141 544 3541 
Q 544 4100 942 4425 
Q 1341 4750 2034 4750 
Q 2731 4750 3128 4425 
Q 3525 4100 3525 3541 
Q 3525 3141 3298 2862 
Q 3072 2584 2669 2484 
Q 3125 2378 3379 2068 
Q 3634 1759 3634 1313 
Q 3634 634 3220 271 
Q 2806 -91 2034 -91 
Q 1263 -91 848 271 
Q 434 634 434 1313 
Q 434 1759 690 2068 
Q 947 2378 1403 2484 
z
M 1172 3481 
Q 1172 3119 1398 2916 
Q 1625 2713 2034 2713 
Q 2441 2713 2670 2916 
Q 2900 3119 2900 3481 
Q 2900 3844 2670 4047 
Q 2441 4250 2034 4250 
Q 1625 4250 1398 4047 
Q 1172 3844 1172 3481 
z
" transform="scale(0.015625)"/>
       </defs>
       <use xlink:href="#DejaVuSans-31"/>
       <use xlink:href="#DejaVuSans-38" x="63.623047"/>
      </g>
     </g>
    </g>
    <g id="xtick_8">
     <g id="line2d_46">
      <g>
       <use xlink:href="#mb87c9143d4" x="401.771777" y="293.62" style="stroke: #000000; stroke-width: 0.8"/>
      </g>
     </g>
     <g id="text_31">
      <!-- 21 -->
      <g transform="translate(393.182402 310.877891) scale(0.135 -0.135)">
       <use xlink:href="#DejaVuSans-32"/>
       <use xlink:href="#DejaVuSans-31" x="63.623047"/>
      </g>
     </g>
    </g>
    <g id="xtick_9">
     <g id="line2d_47">
      <g>
       <use xlink:href="#mb87c9143d4" x="434.058622" y="293.62" style="stroke: #000000; stroke-width: 0.8"/>
      </g>
     </g>
     <g id="text_32">
      <!-- 00 -->
      <g transform="translate(425.469247 310.877891) scale(0.135 -0.135)">
       <use xlink:href="#DejaVuSans-30"/>
       <use xlink:href="#DejaVuSans-30" x="63.623047"/>
      </g>
     </g>
    </g>
    <g id="text_33">
     <!-- Time [Hours] -->
     <g transform="translate(260.849414 327.943359) scale(0.135 -0.135)">
      <defs>
       <path id="DejaVuSans-54" d="M -19 4666 
L 3928 4666 
L 3928 4134 
L 2272 4134 
L 2272 0 
L 1638 0 
L 1638 4134 
L -19 4134 
L -19 4666 
z
" transform="scale(0.015625)"/>
       <path id="DejaVuSans-6d" d="M 3328 2828 
Q 3544 3216 3844 3400 
Q 4144 3584 4550 3584 
Q 5097 3584 5394 3201 
Q 5691 2819 5691 2113 
L 5691 0 
L 5113 0 
L 5113 2094 
Q 5113 2597 4934 2840 
Q 4756 3084 4391 3084 
Q 3944 3084 3684 2787 
Q 3425 2491 3425 1978 
L 3425 0 
L 2847 0 
L 2847 2094 
Q 2847 2600 2669 2842 
Q 2491 3084 2119 3084 
Q 1678 3084 1418 2786 
Q 1159 2488 1159 1978 
L 1159 0 
L 581 0 
L 581 3500 
L 1159 3500 
L 1159 2956 
Q 1356 3278 1631 3431 
Q 1906 3584 2284 3584 
Q 2666 3584 2933 3390 
Q 3200 3197 3328 2828 
z
" transform="scale(0.015625)"/>
       <path id="DejaVuSans-65" d="M 3597 1894 
L 3597 1613 
L 953 1613 
Q 991 1019 1311 708 
Q 1631 397 2203 397 
Q 2534 397 2845 478 
Q 3156 559 3463 722 
L 3463 178 
Q 3153 47 2828 -22 
Q 2503 -91 2169 -91 
Q 1331 -91 842 396 
Q 353 884 353 1716 
Q 353 2575 817 3079 
Q 1281 3584 2069 3584 
Q 2775 3584 3186 3129 
Q 3597 2675 3597 1894 
z
M 3022 2063 
Q 3016 2534 2758 2815 
Q 2500 3097 2075 3097 
Q 1594 3097 1305 2825 
Q 1016 2553 972 2059 
L 3022 2063 
z
" transform="scale(0.015625)"/>
       <path id="DejaVuSans-48" d="M 628 4666 
L 1259 4666 
L 1259 2753 
L 3553 2753 
L 3553 4666 
L 4184 4666 
L 4184 0 
L 3553 0 
L 3553 2222 
L 1259 2222 
L 1259 0 
L 628 0 
L 628 4666 
z
" transform="scale(0.015625)"/>
       <path id="DejaVuSans-75" d="M 544 1381 
L 544 3500 
L 1119 3500 
L 1119 1403 
Q 1119 906 1312 657 
Q 1506 409 1894 409 
Q 2359 409 2629 706 
Q 2900 1003 2900 1516 
L 2900 3500 
L 3475 3500 
L 3475 0 
L 2900 0 
L 2900 538 
Q 2691 219 2414 64 
Q 2138 -91 1772 -91 
Q 1169 -91 856 284 
Q 544 659 544 1381 
z
M 1991 3584 
L 1991 3584 
z
" transform="scale(0.015625)"/>
       <path id="DejaVuSans-73" d="M 2834 3397 
L 2834 2853 
Q 2591 2978 2328 3040 
Q 2066 3103 1784 3103 
Q 1356 3103 1142 2972 
Q 928 2841 928 2578 
Q 928 2378 1081 2264 
Q 1234 2150 1697 2047 
L 1894 2003 
Q 2506 1872 2764 1633 
Q 3022 1394 3022 966 
Q 3022 478 2636 193 
Q 2250 -91 1575 -91 
Q 1294 -91 989 -36 
Q 684 19 347 128 
L 347 722 
Q 666 556 975 473 
Q 1284 391 1588 391 
Q 1994 391 2212 530 
Q 2431 669 2431 922 
Q 2431 1156 2273 1281 
Q 2116 1406 1581 1522 
L 1381 1569 
Q 847 1681 609 1914 
Q 372 2147 372 2553 
Q 372 3047 722 3315 
Q 1072 3584 1716 3584 
Q 2034 3584 2315 3537 
Q 2597 3491 2834 3397 
z
" transform="scale(0.015625)"/>
      </defs>
      <use xlink:href="#DejaVuSans-54"/>
      <use xlink:href="#DejaVuSans-69" x="57.958984"/>
      <use xlink:href="#DejaVuSans-6d" x="85.742188"/>
      <use xlink:href="#DejaVuSans-65" x="183.154297"/>
      <use xlink:href="#DejaVuSans-20" x="244.677734"/>
      <use xlink:href="#DejaVuSans-5b" x="276.464844"/>
      <use xlink:href="#DejaVuSans-48" x="315.478516"/>
      <use xlink:href="#DejaVuSans-6f" x="390.673828"/>
      <use xlink:href="#DejaVuSans-75" x="451.855469"/>
      <use xlink:href="#DejaVuSans-72" x="515.234375"/>
      <use xlink:href="#DejaVuSans-73" x="556.347656"/>
      <use xlink:href="#DejaVuSans-5d" x="608.447266"/>
     </g>
    </g>
   </g>
   <g id="matplotlib.axis_9">
    <g id="ytick_16">
     <g id="line2d_48">
      <g>
       <use xlink:href="#mfb23a03b23" x="162.885" y="284.945254" style="stroke: #000000; stroke-width: 0.8"/>
      </g>
     </g>
     <g id="text_34">
      <!-- −25 -->
      <g transform="translate(127.393672 290.074199) scale(0.135 -0.135)">
       <use xlink:href="#DejaVuSans-2212"/>
       <use xlink:href="#DejaVuSans-32" x="83.789062"/>
       <use xlink:href="#DejaVuSans-35" x="147.412109"/>
      </g>
     </g>
    </g>
    <g id="ytick_17">
     <g id="line2d_49">
      <g>
       <use xlink:href="#mfb23a03b23" x="162.885" y="271.77336" style="stroke: #000000; stroke-width: 0.8"/>
      </g>
     </g>
     <g id="text_35">
      <!-- 0 -->
      <g transform="translate(147.295625 276.902305) scale(0.135 -0.135)">
       <use xlink:href="#DejaVuSans-30"/>
      </g>
     </g>
    </g>
    <g id="text_36">
     <!-- Balance [kW] -->
     <g transform="translate(32.476641 279.368944) scale(0.135 -0.135)">
      <defs>
       <path id="DejaVuSans-42" d="M 1259 2228 
L 1259 519 
L 2272 519 
Q 2781 519 3026 730 
Q 3272 941 3272 1375 
Q 3272 1813 3026 2020 
Q 2781 2228 2272 2228 
L 1259 2228 
z
M 1259 4147 
L 1259 2741 
L 2194 2741 
Q 2656 2741 2882 2914 
Q 3109 3088 3109 3444 
Q 3109 3797 2882 3972 
Q 2656 4147 2194 4147 
L 1259 4147 
z
M 628 4666 
L 2241 4666 
Q 2963 4666 3353 4366 
Q 3744 4066 3744 3513 
Q 3744 3084 3544 2831 
Q 3344 2578 2956 2516 
Q 3422 2416 3680 2098 
Q 3938 1781 3938 1306 
Q 3938 681 3513 340 
Q 3088 0 2303 0 
L 628 0 
L 628 4666 
z
" transform="scale(0.015625)"/>
       <path id="DejaVuSans-61" d="M 2194 1759 
Q 1497 1759 1228 1600 
Q 959 1441 959 1056 
Q 959 750 1161 570 
Q 1363 391 1709 391 
Q 2188 391 2477 730 
Q 2766 1069 2766 1631 
L 2766 1759 
L 2194 1759 
z
M 3341 1997 
L 3341 0 
L 2766 0 
L 2766 531 
Q 2569 213 2275 61 
Q 1981 -91 1556 -91 
Q 1019 -91 701 211 
Q 384 513 384 1019 
Q 384 1609 779 1909 
Q 1175 2209 1959 2209 
L 2766 2209 
L 2766 2266 
Q 2766 2663 2505 2880 
Q 2244 3097 1772 3097 
Q 1472 3097 1187 3025 
Q 903 2953 641 2809 
L 641 3341 
Q 956 3463 1253 3523 
Q 1550 3584 1831 3584 
Q 2591 3584 2966 3190 
Q 3341 2797 3341 1997 
z
" transform="scale(0.015625)"/>
       <path id="DejaVuSans-6c" d="M 603 4863 
L 1178 4863 
L 1178 0 
L 603 0 
L 603 4863 
z
" transform="scale(0.015625)"/>
       <path id="DejaVuSans-6e" d="M 3513 2113 
L 3513 0 
L 2938 0 
L 2938 2094 
Q 2938 2591 2744 2837 
Q 2550 3084 2163 3084 
Q 1697 3084 1428 2787 
Q 1159 2491 1159 1978 
L 1159 0 
L 581 0 
L 581 3500 
L 1159 3500 
L 1159 2956 
Q 1366 3272 1645 3428 
Q 1925 3584 2291 3584 
Q 2894 3584 3203 3211 
Q 3513 2838 3513 2113 
z
" transform="scale(0.015625)"/>
      </defs>
      <use xlink:href="#DejaVuSans-42"/>
      <use xlink:href="#DejaVuSans-61" x="68.603516"/>
      <use xlink:href="#DejaVuSans-6c" x="129.882812"/>
      <use xlink:href="#DejaVuSans-61" x="157.666016"/>
      <use xlink:href="#DejaVuSans-6e" x="218.945312"/>
      <use xlink:href="#DejaVuSans-63" x="282.324219"/>
      <use xlink:href="#DejaVuSans-65" x="337.304688"/>
      <use xlink:href="#DejaVuSans-20" x="398.828125"/>
      <use xlink:href="#DejaVuSans-5b" x="430.615234"/>
      <use xlink:href="#DejaVuSans-6b" x="469.628906"/>
      <use xlink:href="#DejaVuSans-57" x="527.539062"/>
      <use xlink:href="#DejaVuSans-5d" x="626.416016"/>
     </g>
    </g>
   </g>
   <g id="line2d_50">
    <path d="M 175.763864 271.77336 
L 231.727728 271.77336 
L 232.445213 277.215986 
L 233.162699 281.167555 
L 235.315155 289.060154 
L 236.750126 291.404751 
L 238.185097 292.579684 
L 239.620068 273.759681 
L 240.337553 271.77336 
L 315.673524 271.77336 
L 316.39101 272.742811 
L 317.825981 273.701725 
L 318.543466 274.660639 
L 319.978437 275.619553 
L 320.695922 276.578467 
L 321.413408 275.782884 
L 323.565864 274.987302 
L 324.28335 274.186451 
L 325.000835 271.77336 
L 398.901835 271.77336 
L 399.619321 273.211731 
L 401.054292 277.79555 
L 401.771777 271.77336 
L 433.341136 271.77336 
L 433.341136 271.77336 
" clip-path="url(#p6032950477)" style="fill: none; stroke: #1f77b4; stroke-width: 1.5; stroke-linecap: square"/>
   </g>
   <g id="patch_38">
    <path d="M 162.885 293.62 
L 162.885 270.733043 
" style="fill: none; stroke: #000000; stroke-width: 0.8; stroke-linejoin: miter; stroke-linecap: square"/>
   </g>
   <g id="patch_39">
    <path d="M 446.22 293.62 
L 446.22 270.733043 
" style="fill: none; stroke: #000000; stroke-width: 0.8; stroke-linejoin: miter; stroke-linecap: square"/>
   </g>
   <g id="patch_40">
    <path d="M 162.885 293.62 
L 446.22 293.62 
" style="fill: none; stroke: #000000; stroke-width: 0.8; stroke-linejoin: miter; stroke-linecap: square"/>
   </g>
   <g id="patch_41">
    <path d="M 162.885 270.733043 
L 446.22 270.733043 
" style="fill: none; stroke: #000000; stroke-width: 0.8; stroke-linejoin: miter; stroke-linecap: square"/>
   </g>
  </g>
 </g>
 <defs>
  <clipPath id="p5ac8463fe0">
   <rect x="162.885" y="30.42" width="283.335" height="22.886957"/>
  </clipPath>
  <clipPath id="pba2e569dbb">
   <rect x="162.885" y="64.750435" width="283.335" height="22.886957"/>
  </clipPath>
  <clipPath id="pf4412e7dc8">
   <rect x="162.885" y="99.08087" width="283.335" height="22.886957"/>
  </clipPath>
  <clipPath id="p900865f610">
   <rect x="162.885" y="133.411304" width="283.335" height="22.886957"/>
  </clipPath>
  <clipPath id="p9be95334cd">
   <rect x="162.885" y="167.741739" width="283.335" height="22.886957"/>
  </clipPath>
  <clipPath id="p0297f5a957">
   <rect x="162.885" y="202.072174" width="283.335" height="22.886957"/>
  </clipPath>
  <clipPath id="pf04580da16">
   <rect x="162.885" y="236.402609" width="283.335" height="22.886957"/>
  </clipPath>
  <clipPath id="p6032950477">
   <rect x="162.885" y="270.733043" width="283.335" height="22.886957"/>
  </clipPath>
 </defs>
</svg>
