<?xml version="1.0" encoding="utf-8" standalone="no"?>
<!DOCTYPE svg PUBLIC "-//W3C//DTD SVG 1.1//EN"
  "http://www.w3.org/Graphics/SVG/1.1/DTD/svg11.dtd">
<svg xmlns:xlink="http://www.w3.org/1999/xlink" width="460.8pt" height="345.6pt" viewBox="0 0 460.8 345.6" xmlns="http://www.w3.org/2000/svg" version="1.1">
 <metadata>
  <rdf:RDF xmlns:dc="http://purl.org/dc/elements/1.1/" xmlns:cc="http://creativecommons.org/ns#" xmlns:rdf="http://www.w3.org/1999/02/22-rdf-syntax-ns#">
   <cc:Work>
    <dc:type rdf:resource="http://purl.org/dc/dcmitype/StillImage"/>
    <dc:date>2025-02-06T21:41:53.702130</dc:date>
    <dc:format>image/svg+xml</dc:format>
    <dc:creator>
     <cc:Agent>
      <dc:title>Matplotlib v3.8.0, https://matplotlib.org/</dc:title>
     </cc:Agent>
    </dc:creator>
   </cc:Work>
  </rdf:RDF>
 </metadata>
 <defs>
  <style type="text/css">*{stroke-linejoin: round; stroke-linecap: butt}</style>
 </defs>
 <g id="figure_1">
  <g id="patch_1">
   <path d="M 0 345.6 
L 460.8 345.6 
L 460.8 0 
L 0 0 
z
" style="fill: #ffffff"/>
  </g>
  <g id="axes_1">
   <g id="patch_2">
    <path d="M 154.305 53.306957 
L 446.22 53.306957 
L 446.22 30.42 
L 154.305 30.42 
z
" style="fill: #ffffff"/>
   </g>
   <g id="PolyCollection_1">
    <path d="M 184.437302 32.450135 
L 184.437302 32.277629 
L 185.324852 32.261693 
L 186.212401 32.253925 
L 187.099951 32.245957 
L 187.9875 32.238188 
L 188.875049 32.214682 
L 189.762599 32.190978 
L 190.650148 32.179225 
L 191.537698 32.167472 
L 192.425247 32.143967 
L 193.312796 32.380217 
L 193.312796 32.450135 
L 193.312796 32.450135 
L 192.425247 32.450135 
L 191.537698 32.450135 
L 190.650148 32.450135 
L 189.762599 32.450135 
L 188.875049 32.450135 
L 187.9875 32.450135 
L 187.099951 32.450135 
L 186.212401 32.450135 
L 185.324852 32.450135 
L 184.437302 32.450135 
z
" clip-path="url(#p935d59966c)" style="fill: #008000; fill-opacity: 0.3"/>
    <path d="M 290.055682 32.450135 
L 290.055682 32.325039 
L 290.943231 31.892578 
L 291.830781 31.676447 
L 292.71833 31.460316 
L 293.605879 31.705729 
L 294.493429 31.951142 
L 295.380978 32.033013 
L 296.268528 32.114685 
L 297.156077 32.196555 
L 298.043626 32.27982 
L 298.043626 32.450135 
L 298.043626 32.450135 
L 297.156077 32.450135 
L 296.268528 32.450135 
L 295.380978 32.450135 
L 294.493429 32.450135 
L 293.605879 32.450135 
L 292.71833 32.450135 
L 291.830781 32.450135 
L 290.943231 32.450135 
L 290.055682 32.450135 
z
" clip-path="url(#p935d59966c)" style="fill: #008000; fill-opacity: 0.3"/>
    <path d="M 377.923073 32.450135 
L 377.923073 32.254323 
L 378.810623 32.22763 
L 379.698172 32.120461 
L 380.585721 32.066877 
L 381.473271 32.013292 
L 382.36082 31.866284 
L 383.24837 31.719474 
L 384.135919 31.670471 
L 385.023468 31.621468 
L 385.911018 31.572465 
L 386.798567 31.763696 
L 387.686117 31.954927 
L 388.573666 32.146158 
L 389.461215 32.337389 
L 389.461215 32.450135 
L 389.461215 32.450135 
L 388.573666 32.450135 
L 387.686117 32.450135 
L 386.798567 32.450135 
L 385.911018 32.450135 
L 385.023468 32.450135 
L 384.135919 32.450135 
L 383.24837 32.450135 
L 382.36082 32.450135 
L 381.473271 32.450135 
L 380.585721 32.450135 
L 379.698172 32.450135 
L 378.810623 32.450135 
L 377.923073 32.450135 
z
" clip-path="url(#p935d59966c)" style="fill: #008000; fill-opacity: 0.3"/>
   </g>
   <g id="PolyCollection_2">
    <path d="M 194.200346 32.450135 
L 194.200346 32.4589 
L 195.087895 32.537584 
L 195.975445 32.616467 
L 196.862994 32.852517 
L 197.750543 33.088767 
L 198.638093 33.528001 
L 199.525642 33.747717 
L 200.413192 33.967234 
L 201.300741 34.406667 
L 202.188291 34.845901 
L 203.07584 35.285134 
L 203.963389 35.749467 
L 204.850939 36.213799 
L 205.738488 36.368577 
L 206.626038 36.523354 
L 207.513587 36.678132 
L 208.401136 37.142465 
L 209.288686 37.743448 
L 210.176235 38.344431 
L 211.063785 38.945414 
L 211.951334 39.054973 
L 212.838883 39.109753 
L 213.726433 39.164732 
L 214.613982 39.274291 
L 215.501532 39.38385 
L 216.389081 38.724502 
L 217.27663 38.504587 
L 218.16418 38.28487 
L 219.051729 38.064955 
L 219.939279 37.73528 
L 220.826828 37.405606 
L 221.714377 37.24067 
L 222.601927 37.075733 
L 223.489476 36.746059 
L 224.377026 36.355231 
L 225.264575 35.964602 
L 226.152125 35.573773 
L 227.039674 35.589908 
L 227.927223 35.606044 
L 228.814773 35.622179 
L 229.702322 35.670783 
L 230.589872 35.719188 
L 231.477421 36.109618 
L 232.36497 36.500048 
L 233.25252 36.695263 
L 234.140069 36.890478 
L 235.027619 37.52413 
L 235.915168 38.157582 
L 236.802717 39.819299 
L 237.690267 40.628844 
L 238.577816 41.033416 
L 239.465366 41.438189 
L 240.352915 42.021443 
L 241.240464 42.31307 
L 242.128014 42.604498 
L 243.015563 43.187752 
L 243.903113 44.882736 
L 244.790662 45.792676 
L 245.678211 46.702617 
L 246.565761 47.577698 
L 247.45331 48.452579 
L 248.34086 48.99201 
L 249.228409 49.53144 
L 250.115958 50.070871 
L 251.003508 50.546757 
L 251.891057 51.022643 
L 252.778607 51.974416 
L 253.666156 52.071824 
L 254.553706 52.104293 
L 255.441255 52.136763 
L 256.328804 52.169232 
L 257.216354 52.26664 
L 258.103903 52.022422 
L 258.991453 51.778205 
L 259.879002 51.533987 
L 260.766551 50.801134 
L 261.654101 49.435426 
L 262.54165 48.53206 
L 263.4292 48.230871 
L 264.316749 47.929682 
L 265.204298 47.628493 
L 266.091848 46.725126 
L 266.979397 45.17018 
L 267.866947 43.615034 
L 268.754496 43.21564 
L 269.642045 42.816247 
L 270.529595 42.01726 
L 271.417144 41.723441 
L 272.304694 41.429623 
L 273.192243 40.841986 
L 274.079792 40.25435 
L 274.967342 39.666713 
L 275.854891 39.347596 
L 276.742441 39.02848 
L 277.62999 38.390047 
L 278.51754 37.751814 
L 279.405089 36.804623 
L 280.292638 36.488694 
L 281.180188 36.172964 
L 282.067737 35.857233 
L 282.955287 35.222187 
L 283.842836 34.58734 
L 284.730385 33.952294 
L 285.617935 33.54553 
L 286.505484 33.138766 
L 287.393034 32.935185 
L 288.280583 32.731803 
L 289.168132 32.528421 
L 289.168132 32.450135 
L 289.168132 32.450135 
L 288.280583 32.450135 
L 287.393034 32.450135 
L 286.505484 32.450135 
L 285.617935 32.450135 
L 284.730385 32.450135 
L 283.842836 32.450135 
L 282.955287 32.450135 
L 282.067737 32.450135 
L 281.180188 32.450135 
L 280.292638 32.450135 
L 279.405089 32.450135 
L 278.51754 32.450135 
L 277.62999 32.450135 
L 276.742441 32.450135 
L 275.854891 32.450135 
L 274.967342 32.450135 
L 274.079792 32.450135 
L 273.192243 32.450135 
L 272.304694 32.450135 
L 271.417144 32.450135 
L 270.529595 32.450135 
L 269.642045 32.450135 
L 268.754496 32.450135 
L 267.866947 32.450135 
L 266.979397 32.450135 
L 266.091848 32.450135 
L 265.204298 32.450135 
L 264.316749 32.450135 
L 263.4292 32.450135 
L 262.54165 32.450135 
L 261.654101 32.450135 
L 260.766551 32.450135 
L 259.879002 32.450135 
L 258.991453 32.450135 
L 258.103903 32.450135 
L 257.216354 32.450135 
L 256.328804 32.450135 
L 255.441255 32.450135 
L 254.553706 32.450135 
L 253.666156 32.450135 
L 252.778607 32.450135 
L 251.891057 32.450135 
L 251.003508 32.450135 
L 250.115958 32.450135 
L 249.228409 32.450135 
L 248.34086 32.450135 
L 247.45331 32.450135 
L 246.565761 32.450135 
L 245.678211 32.450135 
L 244.790662 32.450135 
L 243.903113 32.450135 
L 243.015563 32.450135 
L 242.128014 32.450135 
L 241.240464 32.450135 
L 240.352915 32.450135 
L 239.465366 32.450135 
L 238.577816 32.450135 
L 237.690267 32.450135 
L 236.802717 32.450135 
L 235.915168 32.450135 
L 235.027619 32.450135 
L 234.140069 32.450135 
L 233.25252 32.450135 
L 232.36497 32.450135 
L 231.477421 32.450135 
L 230.589872 32.450135 
L 229.702322 32.450135 
L 228.814773 32.450135 
L 227.927223 32.450135 
L 227.039674 32.450135 
L 226.152125 32.450135 
L 225.264575 32.450135 
L 224.377026 32.450135 
L 223.489476 32.450135 
L 222.601927 32.450135 
L 221.714377 32.450135 
L 220.826828 32.450135 
L 219.939279 32.450135 
L 219.051729 32.450135 
L 218.16418 32.450135 
L 217.27663 32.450135 
L 216.389081 32.450135 
L 215.501532 32.450135 
L 214.613982 32.450135 
L 213.726433 32.450135 
L 212.838883 32.450135 
L 211.951334 32.450135 
L 211.063785 32.450135 
L 210.176235 32.450135 
L 209.288686 32.450135 
L 208.401136 32.450135 
L 207.513587 32.450135 
L 206.626038 32.450135 
L 205.738488 32.450135 
L 204.850939 32.450135 
L 203.963389 32.450135 
L 203.07584 32.450135 
L 202.188291 32.450135 
L 201.300741 32.450135 
L 200.413192 32.450135 
L 199.525642 32.450135 
L 198.638093 32.450135 
L 197.750543 32.450135 
L 196.862994 32.450135 
L 195.975445 32.450135 
L 195.087895 32.450135 
L 194.200346 32.450135 
z
" clip-path="url(#p935d59966c)" style="fill: #ff0000; fill-opacity: 0.3"/>
    <path d="M 390.348765 32.450135 
L 390.348765 32.719851 
L 391.236314 33.829787 
L 392.123864 34.384556 
L 393.011413 34.939524 
L 393.898962 35.476365 
L 394.786512 36.013405 
L 395.674061 36.550246 
L 396.561611 37.355807 
L 397.44916 37.758388 
L 398.336709 38.161168 
L 399.224259 38.966728 
L 400.111808 39.772089 
L 400.999358 40.738005 
L 401.886907 41.703721 
L 402.774457 42.231399 
L 403.662006 42.758877 
L 404.549555 42.93477 
L 405.437105 43.110663 
L 406.324654 43.286555 
L 407.212204 43.650292 
L 408.099753 44.014229 
L 408.987302 44.741703 
L 409.874852 45.000064 
L 410.762401 45.258425 
L 411.649951 45.387705 
L 412.5375 45.516786 
L 413.425049 45.775147 
L 414.312599 45.481926 
L 415.200148 45.188905 
L 416.087698 45.042294 
L 416.975247 44.895684 
L 417.862796 44.569396 
L 418.750346 44.406252 
L 419.637895 44.243108 
L 420.525445 43.895705 
L 421.412994 43.548502 
L 422.300543 43.3748 
L 423.188093 43.201099 
L 424.075642 42.853696 
L 424.963192 42.506492 
L 425.850741 42.159089 
L 426.738291 41.817463 
L 427.62584 41.475837 
L 428.513389 41.247954 
L 429.400939 41.020269 
L 430.288488 40.792386 
L 431.176038 40.792386 
L 432.063587 40.792386 
L 432.951136 40.792386 
L 432.951136 32.450135 
L 432.951136 32.450135 
L 432.063587 32.450135 
L 431.176038 32.450135 
L 430.288488 32.450135 
L 429.400939 32.450135 
L 428.513389 32.450135 
L 427.62584 32.450135 
L 426.738291 32.450135 
L 425.850741 32.450135 
L 424.963192 32.450135 
L 424.075642 32.450135 
L 423.188093 32.450135 
L 422.300543 32.450135 
L 421.412994 32.450135 
L 420.525445 32.450135 
L 419.637895 32.450135 
L 418.750346 32.450135 
L 417.862796 32.450135 
L 416.975247 32.450135 
L 416.087698 32.450135 
L 415.200148 32.450135 
L 414.312599 32.450135 
L 413.425049 32.450135 
L 412.5375 32.450135 
L 411.649951 32.450135 
L 410.762401 32.450135 
L 409.874852 32.450135 
L 408.987302 32.450135 
L 408.099753 32.450135 
L 407.212204 32.450135 
L 406.324654 32.450135 
L 405.437105 32.450135 
L 404.549555 32.450135 
L 403.662006 32.450135 
L 402.774457 32.450135 
L 401.886907 32.450135 
L 400.999358 32.450135 
L 400.111808 32.450135 
L 399.224259 32.450135 
L 398.336709 32.450135 
L 397.44916 32.450135 
L 396.561611 32.450135 
L 395.674061 32.450135 
L 394.786512 32.450135 
L 393.898962 32.450135 
L 393.011413 32.450135 
L 392.123864 32.450135 
L 391.236314 32.450135 
L 390.348765 32.450135 
z
" clip-path="url(#p935d59966c)" style="fill: #ff0000; fill-opacity: 0.3"/>
   </g>
   <g id="matplotlib.axis_1">
    <g id="ytick_1">
     <g id="line2d_1">
      <path d="M 154.305 52.370025 
L 446.22 52.370025 
" clip-path="url(#p935d59966c)" style="fill: none; stroke: #b0b0b0; stroke-width: 0.8; stroke-linecap: square"/>
     </g>
     <g id="line2d_2">
      <defs>
       <path id="m3432488f90" d="M 0 0 
L -3.5 0 
" style="stroke: #000000; stroke-width: 0.8"/>
      </defs>
      <g>
       <use xlink:href="#m3432488f90" x="154.305" y="52.370025" style="stroke: #000000; stroke-width: 0.8"/>
      </g>
     </g>
     <g id="text_1">
      <!-- −1000 -->
      <g transform="translate(101.634922 57.49897) scale(0.135 -0.135)">
       <defs>
        <path id="DejaVuSans-2212" d="M 678 2272 
L 4684 2272 
L 4684 1741 
L 678 1741 
L 678 2272 
z
" transform="scale(0.015625)"/>
        <path id="DejaVuSans-31" d="M 794 531 
L 1825 531 
L 1825 4091 
L 703 3866 
L 703 4441 
L 1819 4666 
L 2450 4666 
L 2450 531 
L 3481 531 
L 3481 0 
L 794 0 
L 794 531 
z
" transform="scale(0.015625)"/>
        <path id="DejaVuSans-30" d="M 2034 4250 
Q 1547 4250 1301 3770 
Q 1056 3291 1056 2328 
Q 1056 1369 1301 889 
Q 1547 409 2034 409 
Q 2525 409 2770 889 
Q 3016 1369 3016 2328 
Q 3016 3291 2770 3770 
Q 2525 4250 2034 4250 
z
M 2034 4750 
Q 2819 4750 3233 4129 
Q 3647 3509 3647 2328 
Q 3647 1150 3233 529 
Q 2819 -91 2034 -91 
Q 1250 -91 836 529 
Q 422 1150 422 2328 
Q 422 3509 836 4129 
Q 1250 4750 2034 4750 
z
" transform="scale(0.015625)"/>
       </defs>
       <use xlink:href="#DejaVuSans-2212"/>
       <use xlink:href="#DejaVuSans-31" x="83.789062"/>
       <use xlink:href="#DejaVuSans-30" x="147.412109"/>
       <use xlink:href="#DejaVuSans-30" x="211.035156"/>
       <use xlink:href="#DejaVuSans-30" x="274.658203"/>
      </g>
     </g>
    </g>
    <g id="ytick_2">
     <g id="line2d_3">
      <path d="M 154.305 32.450135 
L 446.22 32.450135 
" clip-path="url(#p935d59966c)" style="fill: none; stroke: #b0b0b0; stroke-width: 0.8; stroke-linecap: square"/>
     </g>
     <g id="line2d_4">
      <g>
       <use xlink:href="#m3432488f90" x="154.305" y="32.450135" style="stroke: #000000; stroke-width: 0.8"/>
      </g>
     </g>
     <g id="text_2">
      <!-- 0 -->
      <g transform="translate(138.715625 37.579081) scale(0.135 -0.135)">
       <use xlink:href="#DejaVuSans-30"/>
      </g>
     </g>
    </g>
    <g id="text_3">
     <!-- ΔP[kW] -->
     <g transform="translate(27.097617 39.0559) scale(0.135 -0.135)">
      <defs>
       <path id="DejaVuSans-394" d="M 2188 4044 
L 906 525 
L 3472 525 
L 2188 4044 
z
M 50 0 
L 1831 4666 
L 2547 4666 
L 4325 0 
L 50 0 
z
" transform="scale(0.015625)"/>
       <path id="DejaVuSans-50" d="M 1259 4147 
L 1259 2394 
L 2053 2394 
Q 2494 2394 2734 2622 
Q 2975 2850 2975 3272 
Q 2975 3691 2734 3919 
Q 2494 4147 2053 4147 
L 1259 4147 
z
M 628 4666 
L 2053 4666 
Q 2838 4666 3239 4311 
Q 3641 3956 3641 3272 
Q 3641 2581 3239 2228 
Q 2838 1875 2053 1875 
L 1259 1875 
L 1259 0 
L 628 0 
L 628 4666 
z
" transform="scale(0.015625)"/>
       <path id="DejaVuSans-5b" d="M 550 4863 
L 1875 4863 
L 1875 4416 
L 1125 4416 
L 1125 -397 
L 1875 -397 
L 1875 -844 
L 550 -844 
L 550 4863 
z
" transform="scale(0.015625)"/>
       <path id="DejaVuSans-6b" d="M 581 4863 
L 1159 4863 
L 1159 1991 
L 2875 3500 
L 3609 3500 
L 1753 1863 
L 3688 0 
L 2938 0 
L 1159 1709 
L 1159 0 
L 581 0 
L 581 4863 
z
" transform="scale(0.015625)"/>
       <path id="DejaVuSans-57" d="M 213 4666 
L 850 4666 
L 1831 722 
L 2809 4666 
L 3519 4666 
L 4500 722 
L 5478 4666 
L 6119 4666 
L 4947 0 
L 4153 0 
L 3169 4050 
L 2175 0 
L 1381 0 
L 213 4666 
z
" transform="scale(0.015625)"/>
       <path id="DejaVuSans-5d" d="M 1947 4863 
L 1947 -844 
L 622 -844 
L 622 -397 
L 1369 -397 
L 1369 4416 
L 622 4416 
L 622 4863 
L 1947 4863 
z
" transform="scale(0.015625)"/>
      </defs>
      <use xlink:href="#DejaVuSans-394"/>
      <use xlink:href="#DejaVuSans-50" x="68.408203"/>
      <use xlink:href="#DejaVuSans-5b" x="128.710938"/>
      <use xlink:href="#DejaVuSans-6b" x="167.724609"/>
      <use xlink:href="#DejaVuSans-57" x="225.634766"/>
      <use xlink:href="#DejaVuSans-5d" x="324.511719"/>
     </g>
    </g>
   </g>
   <g id="line2d_5">
    <path d="M 167.573864 32.450135 
L 183.549753 32.450135 
L 184.437302 32.277629 
L 192.425247 32.143967 
L 193.312796 32.380217 
L 195.975445 32.616467 
L 197.750543 33.088767 
L 198.638093 33.528001 
L 200.413192 33.967234 
L 204.850939 36.213799 
L 207.513587 36.678132 
L 208.401136 37.142465 
L 211.063785 38.945414 
L 215.501532 39.38385 
L 216.389081 38.724502 
L 219.939279 37.73528 
L 220.826828 37.405606 
L 222.601927 37.075733 
L 224.377026 36.355231 
L 226.152125 35.573773 
L 230.589872 35.719188 
L 232.36497 36.500048 
L 234.140069 36.890478 
L 235.915168 38.157582 
L 236.802717 39.819299 
L 237.690267 40.628844 
L 239.465366 41.438189 
L 240.352915 42.021443 
L 242.128014 42.604498 
L 243.015563 43.187752 
L 243.903113 44.882736 
L 247.45331 48.452579 
L 251.891057 51.022643 
L 252.778607 51.974416 
L 254.553706 52.104293 
L 257.216354 52.26664 
L 259.879002 51.533987 
L 260.766551 50.801134 
L 261.654101 49.435426 
L 262.54165 48.53206 
L 265.204298 47.628493 
L 266.091848 46.725126 
L 267.866947 43.615034 
L 269.642045 42.816247 
L 270.529595 42.01726 
L 272.304694 41.429623 
L 274.967342 39.666713 
L 276.742441 39.02848 
L 278.51754 37.751814 
L 279.405089 36.804623 
L 282.067737 35.857233 
L 284.730385 33.952294 
L 286.505484 33.138766 
L 290.055682 32.325039 
L 290.943231 31.892578 
L 292.71833 31.460316 
L 294.493429 31.951142 
L 300.706275 32.450135 
L 377.035524 32.450135 
L 377.923073 32.254323 
L 380.585721 32.066877 
L 382.36082 31.866284 
L 384.135919 31.670471 
L 385.911018 31.572465 
L 389.461215 32.337389 
L 390.348765 32.719851 
L 391.236314 33.829787 
L 395.674061 36.550246 
L 396.561611 37.355807 
L 398.336709 38.161168 
L 400.111808 39.772089 
L 401.886907 41.703721 
L 403.662006 42.758877 
L 406.324654 43.286555 
L 408.099753 44.014229 
L 408.987302 44.741703 
L 410.762401 45.258425 
L 412.5375 45.516786 
L 413.425049 45.775147 
L 415.200148 45.188905 
L 416.975247 44.895684 
L 417.862796 44.569396 
L 419.637895 44.243108 
L 421.412994 43.548502 
L 423.188093 43.201099 
L 427.62584 41.475837 
L 430.288488 40.792386 
L 432.951136 40.792386 
L 432.951136 40.792386 
" clip-path="url(#p935d59966c)" style="fill: none; stroke: #1f77b4; stroke-width: 1.5; stroke-linecap: square"/>
   </g>
   <g id="line2d_6">
    <path d="M 154.305 32.450135 
L 446.22 32.450135 
" clip-path="url(#p935d59966c)" style="fill: none; stroke: #000000; stroke-width: 1.5; stroke-linecap: square"/>
   </g>
   <g id="patch_3">
    <path d="M 154.305 53.306957 
L 154.305 30.42 
" style="fill: none; stroke: #000000; stroke-width: 0.8; stroke-linejoin: miter; stroke-linecap: square"/>
   </g>
   <g id="patch_4">
    <path d="M 446.22 53.306957 
L 446.22 30.42 
" style="fill: none; stroke: #000000; stroke-width: 0.8; stroke-linejoin: miter; stroke-linecap: square"/>
   </g>
   <g id="patch_5">
    <path d="M 154.305 53.306957 
L 446.22 53.306957 
" style="fill: none; stroke: #000000; stroke-width: 0.8; stroke-linejoin: miter; stroke-linecap: square"/>
   </g>
   <g id="patch_6">
    <path d="M 154.305 30.42 
L 446.22 30.42 
" style="fill: none; stroke: #000000; stroke-width: 0.8; stroke-linejoin: miter; stroke-linecap: square"/>
   </g>
   <g id="text_4">
    <!-- Microgrid 4 -->
    <g transform="translate(263.839141 24.42) scale(0.13 -0.13)">
     <defs>
      <path id="DejaVuSans-4d" d="M 628 4666 
L 1569 4666 
L 2759 1491 
L 3956 4666 
L 4897 4666 
L 4897 0 
L 4281 0 
L 4281 4097 
L 3078 897 
L 2444 897 
L 1241 4097 
L 1241 0 
L 628 0 
L 628 4666 
z
" transform="scale(0.015625)"/>
      <path id="DejaVuSans-69" d="M 603 3500 
L 1178 3500 
L 1178 0 
L 603 0 
L 603 3500 
z
M 603 4863 
L 1178 4863 
L 1178 4134 
L 603 4134 
L 603 4863 
z
" transform="scale(0.015625)"/>
      <path id="DejaVuSans-63" d="M 3122 3366 
L 3122 2828 
Q 2878 2963 2633 3030 
Q 2388 3097 2138 3097 
Q 1578 3097 1268 2742 
Q 959 2388 959 1747 
Q 959 1106 1268 751 
Q 1578 397 2138 397 
Q 2388 397 2633 464 
Q 2878 531 3122 666 
L 3122 134 
Q 2881 22 2623 -34 
Q 2366 -91 2075 -91 
Q 1284 -91 818 406 
Q 353 903 353 1747 
Q 353 2603 823 3093 
Q 1294 3584 2113 3584 
Q 2378 3584 2631 3529 
Q 2884 3475 3122 3366 
z
" transform="scale(0.015625)"/>
      <path id="DejaVuSans-72" d="M 2631 2963 
Q 2534 3019 2420 3045 
Q 2306 3072 2169 3072 
Q 1681 3072 1420 2755 
Q 1159 2438 1159 1844 
L 1159 0 
L 581 0 
L 581 3500 
L 1159 3500 
L 1159 2956 
Q 1341 3275 1631 3429 
Q 1922 3584 2338 3584 
Q 2397 3584 2469 3576 
Q 2541 3569 2628 3553 
L 2631 2963 
z
" transform="scale(0.015625)"/>
      <path id="DejaVuSans-6f" d="M 1959 3097 
Q 1497 3097 1228 2736 
Q 959 2375 959 1747 
Q 959 1119 1226 758 
Q 1494 397 1959 397 
Q 2419 397 2687 759 
Q 2956 1122 2956 1747 
Q 2956 2369 2687 2733 
Q 2419 3097 1959 3097 
z
M 1959 3584 
Q 2709 3584 3137 3096 
Q 3566 2609 3566 1747 
Q 3566 888 3137 398 
Q 2709 -91 1959 -91 
Q 1206 -91 779 398 
Q 353 888 353 1747 
Q 353 2609 779 3096 
Q 1206 3584 1959 3584 
z
" transform="scale(0.015625)"/>
      <path id="DejaVuSans-67" d="M 2906 1791 
Q 2906 2416 2648 2759 
Q 2391 3103 1925 3103 
Q 1463 3103 1205 2759 
Q 947 2416 947 1791 
Q 947 1169 1205 825 
Q 1463 481 1925 481 
Q 2391 481 2648 825 
Q 2906 1169 2906 1791 
z
M 3481 434 
Q 3481 -459 3084 -895 
Q 2688 -1331 1869 -1331 
Q 1566 -1331 1297 -1286 
Q 1028 -1241 775 -1147 
L 775 -588 
Q 1028 -725 1275 -790 
Q 1522 -856 1778 -856 
Q 2344 -856 2625 -561 
Q 2906 -266 2906 331 
L 2906 616 
Q 2728 306 2450 153 
Q 2172 0 1784 0 
Q 1141 0 747 490 
Q 353 981 353 1791 
Q 353 2603 747 3093 
Q 1141 3584 1784 3584 
Q 2172 3584 2450 3431 
Q 2728 3278 2906 2969 
L 2906 3500 
L 3481 3500 
L 3481 434 
z
" transform="scale(0.015625)"/>
      <path id="DejaVuSans-64" d="M 2906 2969 
L 2906 4863 
L 3481 4863 
L 3481 0 
L 2906 0 
L 2906 525 
Q 2725 213 2448 61 
Q 2172 -91 1784 -91 
Q 1150 -91 751 415 
Q 353 922 353 1747 
Q 353 2572 751 3078 
Q 1150 3584 1784 3584 
Q 2172 3584 2448 3432 
Q 2725 3281 2906 2969 
z
M 947 1747 
Q 947 1113 1208 752 
Q 1469 391 1925 391 
Q 2381 391 2643 752 
Q 2906 1113 2906 1747 
Q 2906 2381 2643 2742 
Q 2381 3103 1925 3103 
Q 1469 3103 1208 2742 
Q 947 2381 947 1747 
z
" transform="scale(0.015625)"/>
      <path id="DejaVuSans-20" transform="scale(0.015625)"/>
      <path id="DejaVuSans-34" d="M 2419 4116 
L 825 1625 
L 2419 1625 
L 2419 4116 
z
M 2253 4666 
L 3047 4666 
L 3047 1625 
L 3713 1625 
L 3713 1100 
L 3047 1100 
L 3047 0 
L 2419 0 
L 2419 1100 
L 313 1100 
L 313 1709 
L 2253 4666 
z
" transform="scale(0.015625)"/>
     </defs>
     <use xlink:href="#DejaVuSans-4d"/>
     <use xlink:href="#DejaVuSans-69" x="86.279297"/>
     <use xlink:href="#DejaVuSans-63" x="114.0625"/>
     <use xlink:href="#DejaVuSans-72" x="169.042969"/>
     <use xlink:href="#DejaVuSans-6f" x="207.90625"/>
     <use xlink:href="#DejaVuSans-67" x="269.087891"/>
     <use xlink:href="#DejaVuSans-72" x="332.564453"/>
     <use xlink:href="#DejaVuSans-69" x="373.677734"/>
     <use xlink:href="#DejaVuSans-64" x="401.460938"/>
     <use xlink:href="#DejaVuSans-20" x="464.9375"/>
     <use xlink:href="#DejaVuSans-34" x="496.724609"/>
    </g>
   </g>
  </g>
  <g id="axes_2">
   <g id="patch_7">
    <path d="M 154.305 87.637391 
L 446.22 87.637391 
L 446.22 64.750435 
L 154.305 64.750435 
z
" style="fill: #ffffff"/>
   </g>
   <g id="PolyCollection_3">
    <path d="M 184.437302 81.785917 
L 184.437302 81.645808 
L 185.324852 81.615075 
L 186.212401 81.594429 
L 187.099951 81.57394 
L 187.9875 81.553452 
L 188.875049 81.491829 
L 189.762599 81.611608 
L 190.650148 81.671339 
L 191.537698 81.731229 
L 191.537698 81.785917 
L 191.537698 81.785917 
L 190.650148 81.785917 
L 189.762599 81.785917 
L 188.875049 81.785917 
L 187.9875 81.785917 
L 187.099951 81.785917 
L 186.212401 81.785917 
L 185.324852 81.785917 
L 184.437302 81.785917 
z
" clip-path="url(#pc7abab3a84)" style="fill: #008000; fill-opacity: 0.3"/>
    <path d="M 237.690267 81.785917 
L 237.690267 81.578984 
L 238.577816 81.416022 
L 239.465366 81.253218 
L 240.352915 80.927451 
L 241.240464 80.76449 
L 242.128014 80.601685 
L 243.015563 80.275919 
L 243.903113 79.950153 
L 244.790662 79.624387 
L 245.678211 79.298621 
L 246.565761 79.002169 
L 247.45331 78.705717 
L 248.34086 78.112813 
L 249.228409 77.747961 
L 250.115958 77.383109 
L 251.003508 77.200605 
L 251.891057 77.018257 
L 252.778607 76.522122 
L 253.666156 76.026144 
L 254.553706 76.050573 
L 255.441255 76.075159 
L 256.328804 76.099587 
L 257.216354 76.173031 
L 258.103903 76.197459 
L 258.991453 76.222045 
L 259.879002 76.246474 
L 260.766551 76.509671 
L 261.654101 76.772711 
L 262.54165 77.035909 
L 263.4292 77.123694 
L 264.316749 77.211322 
L 265.204298 77.299107 
L 266.091848 77.687284 
L 266.979397 78.075618 
L 267.866947 78.463796 
L 268.754496 78.607687 
L 269.642045 78.751737 
L 270.529595 79.039678 
L 271.417144 79.18357 
L 272.304694 79.32762 
L 273.192243 79.615561 
L 274.079792 79.802006 
L 274.967342 79.988451 
L 275.854891 80.081752 
L 276.742441 80.175053 
L 277.62999 80.361498 
L 278.51754 80.526351 
L 279.405089 80.691362 
L 280.292638 80.746365 
L 281.180188 80.801369 
L 282.067737 80.856215 
L 282.955287 81.021225 
L 283.842836 81.186079 
L 284.730385 81.351089 
L 285.617935 81.515942 
L 286.505484 81.680953 
L 287.393034 81.704751 
L 288.280583 81.728549 
L 289.168132 81.752348 
L 290.055682 81.776303 
L 290.055682 81.785917 
L 290.055682 81.785917 
L 289.168132 81.785917 
L 288.280583 81.785917 
L 287.393034 81.785917 
L 286.505484 81.785917 
L 285.617935 81.785917 
L 284.730385 81.785917 
L 283.842836 81.785917 
L 282.955287 81.785917 
L 282.067737 81.785917 
L 281.180188 81.785917 
L 280.292638 81.785917 
L 279.405089 81.785917 
L 278.51754 81.785917 
L 277.62999 81.785917 
L 276.742441 81.785917 
L 275.854891 81.785917 
L 274.967342 81.785917 
L 274.079792 81.785917 
L 273.192243 81.785917 
L 272.304694 81.785917 
L 271.417144 81.785917 
L 270.529595 81.785917 
L 269.642045 81.785917 
L 268.754496 81.785917 
L 267.866947 81.785917 
L 266.979397 81.785917 
L 266.091848 81.785917 
L 265.204298 81.785917 
L 264.316749 81.785917 
L 263.4292 81.785917 
L 262.54165 81.785917 
L 261.654101 81.785917 
L 260.766551 81.785917 
L 259.879002 81.785917 
L 258.991453 81.785917 
L 258.103903 81.785917 
L 257.216354 81.785917 
L 256.328804 81.785917 
L 255.441255 81.785917 
L 254.553706 81.785917 
L 253.666156 81.785917 
L 252.778607 81.785917 
L 251.891057 81.785917 
L 251.003508 81.785917 
L 250.115958 81.785917 
L 249.228409 81.785917 
L 248.34086 81.785917 
L 247.45331 81.785917 
L 246.565761 81.785917 
L 245.678211 81.785917 
L 244.790662 81.785917 
L 243.903113 81.785917 
L 243.015563 81.785917 
L 242.128014 81.785917 
L 241.240464 81.785917 
L 240.352915 81.785917 
L 239.465366 81.785917 
L 238.577816 81.785917 
L 237.690267 81.785917 
z
" clip-path="url(#pc7abab3a84)" style="fill: #008000; fill-opacity: 0.3"/>
    <path d="M 377.923073 81.785917 
L 377.923073 81.75676 
L 378.810623 81.751402 
L 378.810623 81.785917 
L 378.810623 81.785917 
L 377.923073 81.785917 
z
" clip-path="url(#pc7abab3a84)" style="fill: #008000; fill-opacity: 0.3"/>
    <path d="M 390.348765 81.785917 
L 390.348765 81.18072 
L 391.236314 80.459369 
L 392.123864 80.066622 
L 393.011413 79.673874 
L 393.898962 78.888379 
L 394.786512 77.36924 
L 395.674061 76.521649 
L 396.561611 75.674058 
L 397.44916 75.250263 
L 398.336709 74.826467 
L 399.224259 74.002044 
L 400.111808 73.177621 
L 400.999358 72.353198 
L 401.886907 71.680074 
L 402.774457 71.007107 
L 403.662006 70.266687 
L 404.549555 70.020037 
L 405.437105 69.773231 
L 406.324654 69.526424 
L 407.212204 68.644002 
L 408.099753 67.761739 
L 408.987302 67.066235 
L 409.874852 66.370731 
L 410.762401 66.225736 
L 411.649951 66.153239 
L 412.5375 66.080741 
L 413.425049 65.935746 
L 414.312599 65.790751 
L 415.200148 66.176879 
L 416.087698 66.369943 
L 416.975247 66.563008 
L 417.862796 66.949136 
L 418.750346 67.437233 
L 419.637895 67.925173 
L 420.525445 68.901369 
L 421.412994 69.605225 
L 422.300543 69.957154 
L 423.188093 70.309082 
L 424.075642 70.980157 
L 424.963192 71.651232 
L 425.850741 72.136335 
L 426.738291 72.378887 
L 427.62584 72.621439 
L 428.513389 72.78314 
L 429.400939 72.944841 
L 430.288488 73.106542 
L 431.176038 73.349093 
L 432.063587 73.591645 
L 432.951136 73.591645 
L 432.951136 81.785917 
L 432.951136 81.785917 
L 432.063587 81.785917 
L 431.176038 81.785917 
L 430.288488 81.785917 
L 429.400939 81.785917 
L 428.513389 81.785917 
L 427.62584 81.785917 
L 426.738291 81.785917 
L 425.850741 81.785917 
L 424.963192 81.785917 
L 424.075642 81.785917 
L 423.188093 81.785917 
L 422.300543 81.785917 
L 421.412994 81.785917 
L 420.525445 81.785917 
L 419.637895 81.785917 
L 418.750346 81.785917 
L 417.862796 81.785917 
L 416.975247 81.785917 
L 416.087698 81.785917 
L 415.200148 81.785917 
L 414.312599 81.785917 
L 413.425049 81.785917 
L 412.5375 81.785917 
L 411.649951 81.785917 
L 410.762401 81.785917 
L 409.874852 81.785917 
L 408.987302 81.785917 
L 408.099753 81.785917 
L 407.212204 81.785917 
L 406.324654 81.785917 
L 405.437105 81.785917 
L 404.549555 81.785917 
L 403.662006 81.785917 
L 402.774457 81.785917 
L 401.886907 81.785917 
L 400.999358 81.785917 
L 400.111808 81.785917 
L 399.224259 81.785917 
L 398.336709 81.785917 
L 397.44916 81.785917 
L 396.561611 81.785917 
L 395.674061 81.785917 
L 394.786512 81.785917 
L 393.898962 81.785917 
L 393.011413 81.785917 
L 392.123864 81.785917 
L 391.236314 81.785917 
L 390.348765 81.785917 
z
" clip-path="url(#pc7abab3a84)" style="fill: #008000; fill-opacity: 0.3"/>
   </g>
   <g id="PolyCollection_4">
    <path d="M 192.425247 81.785917 
L 192.425247 81.851007 
L 193.312796 81.970628 
L 194.200346 82.010659 
L 195.087895 82.050533 
L 195.975445 82.090407 
L 196.862994 82.372359 
L 197.750543 82.654312 
L 198.638093 82.936106 
L 199.525642 83.077161 
L 200.413192 83.218059 
L 201.300741 83.528065 
L 202.188291 83.838228 
L 203.07584 84.148234 
L 203.963389 84.45824 
L 204.850939 84.785267 
L 205.738488 84.894328 
L 206.626038 85.003232 
L 207.513587 85.112294 
L 208.401136 85.439321 
L 209.288686 85.766348 
L 210.176235 85.974069 
L 211.063785 86.18179 
L 211.951334 86.389354 
L 212.838883 86.493214 
L 213.726433 86.597075 
L 214.613982 86.531512 
L 215.501532 86.465791 
L 216.389081 86.400228 
L 217.27663 86.378322 
L 218.16418 86.356415 
L 219.051729 86.334508 
L 219.939279 86.268945 
L 220.826828 86.203224 
L 221.714377 86.170443 
L 222.601927 86.137661 
L 223.489476 86.071941 
L 224.377026 86.006378 
L 225.264575 85.752006 
L 226.152125 85.497792 
L 227.039674 85.413001 
L 227.927223 85.32821 
L 228.814773 85.24342 
L 229.702322 84.636804 
L 230.589872 84.321598 
L 231.477421 84.006233 
L 232.36497 83.690869 
L 233.25252 83.47968 
L 234.140069 83.268492 
L 235.027619 82.846115 
L 235.915168 82.423738 
L 236.802717 82.001361 
L 236.802717 81.785917 
L 236.802717 81.785917 
L 235.915168 81.785917 
L 235.027619 81.785917 
L 234.140069 81.785917 
L 233.25252 81.785917 
L 232.36497 81.785917 
L 231.477421 81.785917 
L 230.589872 81.785917 
L 229.702322 81.785917 
L 228.814773 81.785917 
L 227.927223 81.785917 
L 227.039674 81.785917 
L 226.152125 81.785917 
L 225.264575 81.785917 
L 224.377026 81.785917 
L 223.489476 81.785917 
L 222.601927 81.785917 
L 221.714377 81.785917 
L 220.826828 81.785917 
L 219.939279 81.785917 
L 219.051729 81.785917 
L 218.16418 81.785917 
L 217.27663 81.785917 
L 216.389081 81.785917 
L 215.501532 81.785917 
L 214.613982 81.785917 
L 213.726433 81.785917 
L 212.838883 81.785917 
L 211.951334 81.785917 
L 211.063785 81.785917 
L 210.176235 81.785917 
L 209.288686 81.785917 
L 208.401136 81.785917 
L 207.513587 81.785917 
L 206.626038 81.785917 
L 205.738488 81.785917 
L 204.850939 81.785917 
L 203.963389 81.785917 
L 203.07584 81.785917 
L 202.188291 81.785917 
L 201.300741 81.785917 
L 200.413192 81.785917 
L 199.525642 81.785917 
L 198.638093 81.785917 
L 197.750543 81.785917 
L 196.862994 81.785917 
L 195.975445 81.785917 
L 195.087895 81.785917 
L 194.200346 81.785917 
L 193.312796 81.785917 
L 192.425247 81.785917 
z
" clip-path="url(#pc7abab3a84)" style="fill: #ff0000; fill-opacity: 0.3"/>
    <path d="M 290.943231 81.785917 
L 290.943231 81.823899 
L 291.830781 81.847698 
L 292.71833 81.871496 
L 293.605879 81.919249 
L 294.493429 81.966846 
L 295.380978 81.964639 
L 296.268528 81.96259 
L 297.156077 81.960384 
L 298.043626 81.953922 
L 298.043626 81.785917 
L 298.043626 81.785917 
L 297.156077 81.785917 
L 296.268528 81.785917 
L 295.380978 81.785917 
L 294.493429 81.785917 
L 293.605879 81.785917 
L 292.71833 81.785917 
L 291.830781 81.785917 
L 290.943231 81.785917 
z
" clip-path="url(#pc7abab3a84)" style="fill: #ff0000; fill-opacity: 0.3"/>
    <path d="M 379.698172 81.785917 
L 379.698172 81.934222 
L 380.585721 82.025632 
L 381.473271 82.117042 
L 382.36082 82.299862 
L 383.24837 82.482682 
L 384.135919 82.482524 
L 385.023468 82.482366 
L 385.911018 82.482366 
L 386.798567 82.482051 
L 387.686117 82.481894 
L 388.573666 82.192061 
L 389.461215 81.902071 
L 389.461215 81.785917 
L 389.461215 81.785917 
L 388.573666 81.785917 
L 387.686117 81.785917 
L 386.798567 81.785917 
L 385.911018 81.785917 
L 385.023468 81.785917 
L 384.135919 81.785917 
L 383.24837 81.785917 
L 382.36082 81.785917 
L 381.473271 81.785917 
L 380.585721 81.785917 
L 379.698172 81.785917 
z
" clip-path="url(#pc7abab3a84)" style="fill: #ff0000; fill-opacity: 0.3"/>
   </g>
   <g id="matplotlib.axis_2">
    <g id="ytick_3">
     <g id="line2d_7">
      <path d="M 154.305 81.785917 
L 446.22 81.785917 
" clip-path="url(#pc7abab3a84)" style="fill: none; stroke: #b0b0b0; stroke-width: 0.8; stroke-linecap: square"/>
     </g>
     <g id="line2d_8">
      <g>
       <use xlink:href="#m3432488f90" x="154.305" y="81.785917" style="stroke: #000000; stroke-width: 0.8"/>
      </g>
     </g>
     <g id="text_5">
      <!-- 0 -->
      <g transform="translate(138.715625 86.914862) scale(0.135 -0.135)">
       <use xlink:href="#DejaVuSans-30"/>
      </g>
     </g>
    </g>
    <g id="ytick_4">
     <g id="line2d_9">
      <path d="M 154.305 66.02558 
L 446.22 66.02558 
" clip-path="url(#pc7abab3a84)" style="fill: none; stroke: #b0b0b0; stroke-width: 0.8; stroke-linecap: square"/>
     </g>
     <g id="line2d_10">
      <g>
       <use xlink:href="#m3432488f90" x="154.305" y="66.02558" style="stroke: #000000; stroke-width: 0.8"/>
      </g>
     </g>
     <g id="text_6">
      <!-- 1000 -->
      <g transform="translate(112.9475 71.154525) scale(0.135 -0.135)">
       <use xlink:href="#DejaVuSans-31"/>
       <use xlink:href="#DejaVuSans-30" x="63.623047"/>
       <use xlink:href="#DejaVuSans-30" x="127.246094"/>
       <use xlink:href="#DejaVuSans-30" x="190.869141"/>
      </g>
     </g>
    </g>
    <g id="text_7">
     <!-- PEU_4-1 [kW] -->
     <g transform="translate(17.277422 73.010866) scale(0.135 -0.135)">
      <defs>
       <path id="DejaVuSans-45" d="M 628 4666 
L 3578 4666 
L 3578 4134 
L 1259 4134 
L 1259 2753 
L 3481 2753 
L 3481 2222 
L 1259 2222 
L 1259 531 
L 3634 531 
L 3634 0 
L 628 0 
L 628 4666 
z
" transform="scale(0.015625)"/>
       <path id="DejaVuSans-55" d="M 556 4666 
L 1191 4666 
L 1191 1831 
Q 1191 1081 1462 751 
Q 1734 422 2344 422 
Q 2950 422 3222 751 
Q 3494 1081 3494 1831 
L 3494 4666 
L 4128 4666 
L 4128 1753 
Q 4128 841 3676 375 
Q 3225 -91 2344 -91 
Q 1459 -91 1007 375 
Q 556 841 556 1753 
L 556 4666 
z
" transform="scale(0.015625)"/>
       <path id="DejaVuSans-5f" d="M 3263 -1063 
L 3263 -1509 
L -63 -1509 
L -63 -1063 
L 3263 -1063 
z
" transform="scale(0.015625)"/>
       <path id="DejaVuSans-2d" d="M 313 2009 
L 1997 2009 
L 1997 1497 
L 313 1497 
L 313 2009 
z
" transform="scale(0.015625)"/>
      </defs>
      <use xlink:href="#DejaVuSans-50"/>
      <use xlink:href="#DejaVuSans-45" x="60.302734"/>
      <use xlink:href="#DejaVuSans-55" x="123.486328"/>
      <use xlink:href="#DejaVuSans-5f" x="196.679688"/>
      <use xlink:href="#DejaVuSans-34" x="246.679688"/>
      <use xlink:href="#DejaVuSans-2d" x="310.302734"/>
      <use xlink:href="#DejaVuSans-31" x="346.386719"/>
      <use xlink:href="#DejaVuSans-20" x="410.009766"/>
      <use xlink:href="#DejaVuSans-5b" x="441.796875"/>
      <use xlink:href="#DejaVuSans-6b" x="480.810547"/>
      <use xlink:href="#DejaVuSans-57" x="538.720703"/>
      <use xlink:href="#DejaVuSans-5d" x="637.597656"/>
     </g>
    </g>
   </g>
   <g id="line2d_11">
    <path d="M 167.573864 81.785917 
L 183.549753 81.785917 
L 185.324852 81.615075 
L 189.762599 81.611608 
L 192.425247 81.851007 
L 194.200346 82.010659 
L 195.975445 82.090407 
L 198.638093 82.936106 
L 200.413192 83.218059 
L 204.850939 84.785267 
L 207.513587 85.112294 
L 209.288686 85.766348 
L 212.838883 86.493214 
L 213.726433 86.597075 
L 218.16418 86.356415 
L 222.601927 86.137661 
L 224.377026 86.006378 
L 226.152125 85.497792 
L 228.814773 85.24342 
L 229.702322 84.636804 
L 233.25252 83.47968 
L 234.140069 83.268492 
L 237.690267 81.578984 
L 239.465366 81.253218 
L 240.352915 80.927451 
L 242.128014 80.601685 
L 247.45331 78.705717 
L 248.34086 78.112813 
L 250.115958 77.383109 
L 251.891057 77.018257 
L 253.666156 76.026144 
L 259.879002 76.246474 
L 262.54165 77.035909 
L 265.204298 77.299107 
L 267.866947 78.463796 
L 269.642045 78.751737 
L 270.529595 79.039678 
L 272.304694 79.32762 
L 274.079792 79.802006 
L 275.854891 80.081752 
L 277.62999 80.361498 
L 280.292638 80.746365 
L 282.955287 81.021225 
L 286.505484 81.680953 
L 298.043626 81.953922 
L 298.931176 81.785917 
L 378.810623 81.751402 
L 380.585721 82.025632 
L 382.36082 82.299862 
L 383.24837 82.482682 
L 387.686117 82.481894 
L 389.461215 81.902071 
L 391.236314 80.459369 
L 393.011413 79.673874 
L 393.898962 78.888379 
L 394.786512 77.36924 
L 396.561611 75.674058 
L 398.336709 74.826467 
L 401.886907 71.680074 
L 403.662006 70.266687 
L 406.324654 69.526424 
L 408.099753 67.761739 
L 409.874852 66.370731 
L 411.649951 66.153239 
L 413.425049 65.935746 
L 414.312599 65.790751 
L 415.200148 66.176879 
L 416.975247 66.563008 
L 418.750346 67.437233 
L 419.637895 67.925173 
L 420.525445 68.901369 
L 421.412994 69.605225 
L 423.188093 70.309082 
L 424.963192 71.651232 
L 425.850741 72.136335 
L 428.513389 72.78314 
L 431.176038 73.349093 
L 432.063587 73.591645 
L 432.951136 73.591645 
L 432.951136 73.591645 
" clip-path="url(#pc7abab3a84)" style="fill: none; stroke: #1f77b4; stroke-width: 1.5; stroke-linecap: square"/>
   </g>
   <g id="line2d_12">
    <path d="M 154.305 81.785917 
L 446.22 81.785917 
" clip-path="url(#pc7abab3a84)" style="fill: none; stroke: #000000; stroke-width: 1.5; stroke-linecap: square"/>
   </g>
   <g id="patch_8">
    <path d="M 154.305 87.637391 
L 154.305 64.750435 
" style="fill: none; stroke: #000000; stroke-width: 0.8; stroke-linejoin: miter; stroke-linecap: square"/>
   </g>
   <g id="patch_9">
    <path d="M 446.22 87.637391 
L 446.22 64.750435 
" style="fill: none; stroke: #000000; stroke-width: 0.8; stroke-linejoin: miter; stroke-linecap: square"/>
   </g>
   <g id="patch_10">
    <path d="M 154.305 87.637391 
L 446.22 87.637391 
" style="fill: none; stroke: #000000; stroke-width: 0.8; stroke-linejoin: miter; stroke-linecap: square"/>
   </g>
   <g id="patch_11">
    <path d="M 154.305 64.750435 
L 446.22 64.750435 
" style="fill: none; stroke: #000000; stroke-width: 0.8; stroke-linejoin: miter; stroke-linecap: square"/>
   </g>
  </g>
  <g id="axes_3">
   <g id="patch_12">
    <path d="M 154.305 121.967826 
L 446.22 121.967826 
L 446.22 99.08087 
L 154.305 99.08087 
z
" style="fill: #ffffff"/>
   </g>
   <g id="PolyCollection_5">
    <path d="M 184.437302 111.107228 
L 184.437302 110.573347 
L 185.324852 110.440478 
L 186.212401 110.351798 
L 187.099951 110.263119 
L 187.9875 110.174439 
L 188.875049 109.908401 
L 189.762599 109.642362 
L 190.650148 109.835353 
L 191.537698 110.028644 
L 192.425247 110.414926 
L 193.312796 110.801208 
L 194.200346 110.929869 
L 195.087895 111.05883 
L 195.087895 111.107228 
L 195.087895 111.107228 
L 194.200346 111.107228 
L 193.312796 111.107228 
L 192.425247 111.107228 
L 191.537698 111.107228 
L 190.650148 111.107228 
L 189.762599 111.107228 
L 188.875049 111.107228 
L 187.9875 111.107228 
L 187.099951 111.107228 
L 186.212401 111.107228 
L 185.324852 111.107228 
L 184.437302 111.107228 
z
" clip-path="url(#p0aa5bb9a40)" style="fill: #008000; fill-opacity: 0.3"/>
    <path d="M 237.690267 111.107228 
L 237.690267 110.712529 
L 238.577816 110.4017 
L 239.465366 110.091171 
L 240.352915 109.469813 
L 241.240464 109.158984 
L 242.128014 108.848455 
L 243.015563 108.227097 
L 243.903113 107.605739 
L 244.790662 106.984381 
L 245.678211 106.363023 
L 246.565761 105.797578 
L 247.45331 105.232133 
L 248.34086 104.101244 
L 249.228409 103.405335 
L 250.115958 102.709426 
L 251.003508 102.361321 
L 251.891057 102.013517 
L 252.778607 101.067201 
L 253.666156 100.121186 
L 254.553706 100.16778 
L 255.441255 100.214675 
L 256.328804 100.261269 
L 257.216354 100.401353 
L 258.103903 100.447947 
L 258.991453 100.494842 
L 259.879002 100.541437 
L 260.766551 101.043453 
L 261.654101 101.545169 
L 262.54165 102.047185 
L 263.4292 102.214624 
L 264.316749 102.381762 
L 265.204298 102.549201 
L 266.091848 103.2896 
L 266.979397 104.0303 
L 267.866947 104.770699 
L 268.754496 105.045155 
L 269.642045 105.319911 
L 270.529595 105.869123 
L 271.417144 106.143579 
L 272.304694 106.418335 
L 273.192243 106.967547 
L 274.079792 107.323167 
L 274.967342 107.678787 
L 275.854891 107.856747 
L 276.742441 108.034707 
L 277.62999 108.390327 
L 278.51754 108.704764 
L 279.405089 109.019501 
L 280.292638 109.124414 
L 281.180188 109.229326 
L 282.067737 109.333938 
L 282.955287 109.648675 
L 283.842836 109.963112 
L 284.730385 110.277849 
L 285.617935 110.592285 
L 286.505484 110.907023 
L 287.393034 110.952414 
L 288.280583 110.997806 
L 289.168132 111.043198 
L 290.055682 111.088891 
L 290.055682 111.107228 
L 290.055682 111.107228 
L 289.168132 111.107228 
L 288.280583 111.107228 
L 287.393034 111.107228 
L 286.505484 111.107228 
L 285.617935 111.107228 
L 284.730385 111.107228 
L 283.842836 111.107228 
L 282.955287 111.107228 
L 282.067737 111.107228 
L 281.180188 111.107228 
L 280.292638 111.107228 
L 279.405089 111.107228 
L 278.51754 111.107228 
L 277.62999 111.107228 
L 276.742441 111.107228 
L 275.854891 111.107228 
L 274.967342 111.107228 
L 274.079792 111.107228 
L 273.192243 111.107228 
L 272.304694 111.107228 
L 271.417144 111.107228 
L 270.529595 111.107228 
L 269.642045 111.107228 
L 268.754496 111.107228 
L 267.866947 111.107228 
L 266.979397 111.107228 
L 266.091848 111.107228 
L 265.204298 111.107228 
L 264.316749 111.107228 
L 263.4292 111.107228 
L 262.54165 111.107228 
L 261.654101 111.107228 
L 260.766551 111.107228 
L 259.879002 111.107228 
L 258.991453 111.107228 
L 258.103903 111.107228 
L 257.216354 111.107228 
L 256.328804 111.107228 
L 255.441255 111.107228 
L 254.553706 111.107228 
L 253.666156 111.107228 
L 252.778607 111.107228 
L 251.891057 111.107228 
L 251.003508 111.107228 
L 250.115958 111.107228 
L 249.228409 111.107228 
L 248.34086 111.107228 
L 247.45331 111.107228 
L 246.565761 111.107228 
L 245.678211 111.107228 
L 244.790662 111.107228 
L 243.903113 111.107228 
L 243.015563 111.107228 
L 242.128014 111.107228 
L 241.240464 111.107228 
L 240.352915 111.107228 
L 239.465366 111.107228 
L 238.577816 111.107228 
L 237.690267 111.107228 
z
" clip-path="url(#p0aa5bb9a40)" style="fill: #008000; fill-opacity: 0.3"/>
    <path d="M 377.923073 111.107228 
L 377.923073 111.021855 
L 378.810623 111.018849 
L 379.698172 111.006223 
L 380.585721 111.000211 
L 381.473271 110.993898 
L 382.36082 110.981574 
L 383.24837 110.729062 
L 384.135919 110.644892 
L 385.023468 110.561022 
L 385.911018 110.476852 
L 386.798567 110.350596 
L 387.686117 110.22434 
L 388.573666 110.600702 
L 389.461215 110.977365 
L 389.461215 111.107228 
L 389.461215 111.107228 
L 388.573666 111.107228 
L 387.686117 111.107228 
L 386.798567 111.107228 
L 385.911018 111.107228 
L 385.023468 111.107228 
L 384.135919 111.107228 
L 383.24837 111.107228 
L 382.36082 111.107228 
L 381.473271 111.107228 
L 380.585721 111.107228 
L 379.698172 111.107228 
L 378.810623 111.107228 
L 377.923073 111.107228 
z
" clip-path="url(#p0aa5bb9a40)" style="fill: #008000; fill-opacity: 0.3"/>
    <path d="M 426.738291 111.107228 
L 426.738291 110.942795 
L 427.62584 110.729062 
L 428.513389 110.729062 
L 429.400939 110.729062 
L 430.288488 110.729062 
L 431.176038 110.729062 
L 432.063587 110.729062 
L 432.951136 110.729062 
L 432.951136 111.107228 
L 432.951136 111.107228 
L 432.063587 111.107228 
L 431.176038 111.107228 
L 430.288488 111.107228 
L 429.400939 111.107228 
L 428.513389 111.107228 
L 427.62584 111.107228 
L 426.738291 111.107228 
z
" clip-path="url(#p0aa5bb9a40)" style="fill: #008000; fill-opacity: 0.3"/>
   </g>
   <g id="PolyCollection_6">
    <path d="M 195.975445 111.107228 
L 195.975445 111.18749 
L 196.862994 111.761953 
L 197.750543 112.336417 
L 198.638093 112.910579 
L 199.525642 113.197961 
L 200.413192 113.485042 
L 201.300741 114.059505 
L 202.188291 114.810726 
L 203.07584 115.561947 
L 203.963389 116.313468 
L 204.850939 117.064689 
L 205.738488 117.315096 
L 206.626038 117.565503 
L 207.513587 117.81591 
L 208.401136 118.26051 
L 209.288686 118.70481 
L 210.176235 119.14941 
L 211.063785 119.59401 
L 211.951334 120.03861 
L 212.838883 120.26076 
L 213.726433 120.48291 
L 214.613982 120.92751 
L 215.501532 120.879112 
L 216.389081 120.830413 
L 217.27663 120.81418 
L 218.16418 120.798248 
L 219.051729 120.782015 
L 219.939279 120.733317 
L 220.826828 120.684919 
L 221.714377 120.495235 
L 222.601927 120.30525 
L 223.489476 119.925882 
L 224.377026 119.546213 
L 225.264575 119.166545 
L 226.152125 118.1565 
L 227.039674 117.819818 
L 227.927223 117.483136 
L 228.814773 117.146455 
L 229.702322 116.544937 
L 230.589872 115.94372 
L 231.477421 115.342202 
L 232.36497 114.740684 
L 233.25252 114.337869 
L 234.140069 113.935053 
L 235.027619 113.129422 
L 235.915168 112.323791 
L 236.802717 111.51816 
L 236.802717 111.107228 
L 236.802717 111.107228 
L 235.915168 111.107228 
L 235.027619 111.107228 
L 234.140069 111.107228 
L 233.25252 111.107228 
L 232.36497 111.107228 
L 231.477421 111.107228 
L 230.589872 111.107228 
L 229.702322 111.107228 
L 228.814773 111.107228 
L 227.927223 111.107228 
L 227.039674 111.107228 
L 226.152125 111.107228 
L 225.264575 111.107228 
L 224.377026 111.107228 
L 223.489476 111.107228 
L 222.601927 111.107228 
L 221.714377 111.107228 
L 220.826828 111.107228 
L 219.939279 111.107228 
L 219.051729 111.107228 
L 218.16418 111.107228 
L 217.27663 111.107228 
L 216.389081 111.107228 
L 215.501532 111.107228 
L 214.613982 111.107228 
L 213.726433 111.107228 
L 212.838883 111.107228 
L 211.951334 111.107228 
L 211.063785 111.107228 
L 210.176235 111.107228 
L 209.288686 111.107228 
L 208.401136 111.107228 
L 207.513587 111.107228 
L 206.626038 111.107228 
L 205.738488 111.107228 
L 204.850939 111.107228 
L 203.963389 111.107228 
L 203.07584 111.107228 
L 202.188291 111.107228 
L 201.300741 111.107228 
L 200.413192 111.107228 
L 199.525642 111.107228 
L 198.638093 111.107228 
L 197.750543 111.107228 
L 196.862994 111.107228 
L 195.975445 111.107228 
z
" clip-path="url(#p0aa5bb9a40)" style="fill: #ff0000; fill-opacity: 0.3"/>
    <path d="M 290.943231 111.107228 
L 290.943231 111.179675 
L 291.830781 111.225066 
L 292.71833 111.270458 
L 293.605879 111.361543 
L 294.493429 111.452327 
L 295.380978 111.448118 
L 296.268528 111.44421 
L 297.156077 111.440002 
L 298.043626 111.427677 
L 298.043626 111.107228 
L 298.043626 111.107228 
L 297.156077 111.107228 
L 296.268528 111.107228 
L 295.380978 111.107228 
L 294.493429 111.107228 
L 293.605879 111.107228 
L 292.71833 111.107228 
L 291.830781 111.107228 
L 290.943231 111.107228 
z
" clip-path="url(#p0aa5bb9a40)" style="fill: #ff0000; fill-opacity: 0.3"/>
    <path d="M 390.348765 111.107228 
L 390.348765 111.73039 
L 391.236314 112.068274 
L 392.123864 112.237216 
L 393.011413 112.406158 
L 393.898962 112.744342 
L 394.786512 113.082226 
L 395.674061 113.420111 
L 396.561611 113.757995 
L 397.44916 113.892066 
L 398.336709 114.025837 
L 399.224259 114.293679 
L 400.111808 114.561521 
L 400.999358 114.829664 
L 401.886907 115.097507 
L 402.774457 115.365349 
L 403.662006 115.633191 
L 404.549555 115.743815 
L 405.437105 115.854138 
L 406.324654 115.964762 
L 407.212204 116.130698 
L 408.099753 116.296334 
L 408.987302 116.628206 
L 409.874852 116.959777 
L 410.762401 117.291348 
L 411.649951 117.062284 
L 412.5375 116.833221 
L 413.425049 116.374793 
L 414.312599 115.916665 
L 415.200148 115.458237 
L 416.087698 115.199112 
L 416.975247 114.940288 
L 417.862796 114.422039 
L 418.750346 114.163215 
L 419.637895 113.90409 
L 420.525445 113.385841 
L 421.412994 112.867893 
L 422.300543 112.65416 
L 423.188093 112.440126 
L 424.075642 112.01236 
L 424.963192 111.584594 
L 425.850741 111.156828 
L 425.850741 111.107228 
L 425.850741 111.107228 
L 424.963192 111.107228 
L 424.075642 111.107228 
L 423.188093 111.107228 
L 422.300543 111.107228 
L 421.412994 111.107228 
L 420.525445 111.107228 
L 419.637895 111.107228 
L 418.750346 111.107228 
L 417.862796 111.107228 
L 416.975247 111.107228 
L 416.087698 111.107228 
L 415.200148 111.107228 
L 414.312599 111.107228 
L 413.425049 111.107228 
L 412.5375 111.107228 
L 411.649951 111.107228 
L 410.762401 111.107228 
L 409.874852 111.107228 
L 408.987302 111.107228 
L 408.099753 111.107228 
L 407.212204 111.107228 
L 406.324654 111.107228 
L 405.437105 111.107228 
L 404.549555 111.107228 
L 403.662006 111.107228 
L 402.774457 111.107228 
L 401.886907 111.107228 
L 400.999358 111.107228 
L 400.111808 111.107228 
L 399.224259 111.107228 
L 398.336709 111.107228 
L 397.44916 111.107228 
L 396.561611 111.107228 
L 395.674061 111.107228 
L 394.786512 111.107228 
L 393.898962 111.107228 
L 393.011413 111.107228 
L 392.123864 111.107228 
L 391.236314 111.107228 
L 390.348765 111.107228 
z
" clip-path="url(#p0aa5bb9a40)" style="fill: #ff0000; fill-opacity: 0.3"/>
   </g>
   <g id="matplotlib.axis_3">
    <g id="ytick_5">
     <g id="line2d_13">
      <path d="M 154.305 118.622443 
L 446.22 118.622443 
" clip-path="url(#p0aa5bb9a40)" style="fill: none; stroke: #b0b0b0; stroke-width: 0.8; stroke-linecap: square"/>
     </g>
     <g id="line2d_14">
      <g>
       <use xlink:href="#m3432488f90" x="154.305" y="118.622443" style="stroke: #000000; stroke-width: 0.8"/>
      </g>
     </g>
     <g id="text_8">
      <!-- −250 -->
      <g transform="translate(110.224297 123.751388) scale(0.135 -0.135)">
       <defs>
        <path id="DejaVuSans-32" d="M 1228 531 
L 3431 531 
L 3431 0 
L 469 0 
L 469 531 
Q 828 903 1448 1529 
Q 2069 2156 2228 2338 
Q 2531 2678 2651 2914 
Q 2772 3150 2772 3378 
Q 2772 3750 2511 3984 
Q 2250 4219 1831 4219 
Q 1534 4219 1204 4116 
Q 875 4013 500 3803 
L 500 4441 
Q 881 4594 1212 4672 
Q 1544 4750 1819 4750 
Q 2544 4750 2975 4387 
Q 3406 4025 3406 3419 
Q 3406 3131 3298 2873 
Q 3191 2616 2906 2266 
Q 2828 2175 2409 1742 
Q 1991 1309 1228 531 
z
" transform="scale(0.015625)"/>
        <path id="DejaVuSans-35" d="M 691 4666 
L 3169 4666 
L 3169 4134 
L 1269 4134 
L 1269 2991 
Q 1406 3038 1543 3061 
Q 1681 3084 1819 3084 
Q 2600 3084 3056 2656 
Q 3513 2228 3513 1497 
Q 3513 744 3044 326 
Q 2575 -91 1722 -91 
Q 1428 -91 1123 -41 
Q 819 9 494 109 
L 494 744 
Q 775 591 1075 516 
Q 1375 441 1709 441 
Q 2250 441 2565 725 
Q 2881 1009 2881 1497 
Q 2881 1984 2565 2268 
Q 2250 2553 1709 2553 
Q 1456 2553 1204 2497 
Q 953 2441 691 2322 
L 691 4666 
z
" transform="scale(0.015625)"/>
       </defs>
       <use xlink:href="#DejaVuSans-2212"/>
       <use xlink:href="#DejaVuSans-32" x="83.789062"/>
       <use xlink:href="#DejaVuSans-35" x="147.412109"/>
       <use xlink:href="#DejaVuSans-30" x="211.035156"/>
      </g>
     </g>
    </g>
    <g id="ytick_6">
     <g id="line2d_15">
      <path d="M 154.305 111.107228 
L 446.22 111.107228 
" clip-path="url(#p0aa5bb9a40)" style="fill: none; stroke: #b0b0b0; stroke-width: 0.8; stroke-linecap: square"/>
     </g>
     <g id="line2d_16">
      <g>
       <use xlink:href="#m3432488f90" x="154.305" y="111.107228" style="stroke: #000000; stroke-width: 0.8"/>
      </g>
     </g>
     <g id="text_9">
      <!-- 0 -->
      <g transform="translate(138.715625 116.236173) scale(0.135 -0.135)">
       <use xlink:href="#DejaVuSans-30"/>
      </g>
     </g>
    </g>
    <g id="ytick_7">
     <g id="line2d_17">
      <path d="M 154.305 103.592013 
L 446.22 103.592013 
" clip-path="url(#p0aa5bb9a40)" style="fill: none; stroke: #b0b0b0; stroke-width: 0.8; stroke-linecap: square"/>
     </g>
     <g id="line2d_18">
      <g>
       <use xlink:href="#m3432488f90" x="154.305" y="103.592013" style="stroke: #000000; stroke-width: 0.8"/>
      </g>
     </g>
     <g id="text_10">
      <!-- 250 -->
      <g transform="translate(121.536875 108.720958) scale(0.135 -0.135)">
       <use xlink:href="#DejaVuSans-32"/>
       <use xlink:href="#DejaVuSans-35" x="63.623047"/>
       <use xlink:href="#DejaVuSans-30" x="127.246094"/>
      </g>
     </g>
    </g>
    <g id="text_11">
     <!-- PEU_4-3 [kW] -->
     <g transform="translate(14.554219 107.341301) scale(0.135 -0.135)">
      <defs>
       <path id="DejaVuSans-33" d="M 2597 2516 
Q 3050 2419 3304 2112 
Q 3559 1806 3559 1356 
Q 3559 666 3084 287 
Q 2609 -91 1734 -91 
Q 1441 -91 1130 -33 
Q 819 25 488 141 
L 488 750 
Q 750 597 1062 519 
Q 1375 441 1716 441 
Q 2309 441 2620 675 
Q 2931 909 2931 1356 
Q 2931 1769 2642 2001 
Q 2353 2234 1838 2234 
L 1294 2234 
L 1294 2753 
L 1863 2753 
Q 2328 2753 2575 2939 
Q 2822 3125 2822 3475 
Q 2822 3834 2567 4026 
Q 2313 4219 1838 4219 
Q 1578 4219 1281 4162 
Q 984 4106 628 3988 
L 628 4550 
Q 988 4650 1302 4700 
Q 1616 4750 1894 4750 
Q 2613 4750 3031 4423 
Q 3450 4097 3450 3541 
Q 3450 3153 3228 2886 
Q 3006 2619 2597 2516 
z
" transform="scale(0.015625)"/>
      </defs>
      <use xlink:href="#DejaVuSans-50"/>
      <use xlink:href="#DejaVuSans-45" x="60.302734"/>
      <use xlink:href="#DejaVuSans-55" x="123.486328"/>
      <use xlink:href="#DejaVuSans-5f" x="196.679688"/>
      <use xlink:href="#DejaVuSans-34" x="246.679688"/>
      <use xlink:href="#DejaVuSans-2d" x="310.302734"/>
      <use xlink:href="#DejaVuSans-33" x="346.386719"/>
      <use xlink:href="#DejaVuSans-20" x="410.009766"/>
      <use xlink:href="#DejaVuSans-5b" x="441.796875"/>
      <use xlink:href="#DejaVuSans-6b" x="480.810547"/>
      <use xlink:href="#DejaVuSans-57" x="538.720703"/>
      <use xlink:href="#DejaVuSans-5d" x="637.597656"/>
     </g>
    </g>
   </g>
   <g id="line2d_19">
    <path d="M 167.573864 111.107228 
L 183.549753 111.107228 
L 184.437302 110.573347 
L 187.099951 110.263119 
L 187.9875 110.174439 
L 189.762599 109.642362 
L 191.537698 110.028644 
L 193.312796 110.801208 
L 195.975445 111.18749 
L 198.638093 112.910579 
L 200.413192 113.485042 
L 201.300741 114.059505 
L 204.850939 117.064689 
L 207.513587 117.81591 
L 211.951334 120.03861 
L 213.726433 120.48291 
L 214.613982 120.92751 
L 221.714377 120.495235 
L 222.601927 120.30525 
L 225.264575 119.166545 
L 226.152125 118.1565 
L 228.814773 117.146455 
L 232.36497 114.740684 
L 234.140069 113.935053 
L 237.690267 110.712529 
L 239.465366 110.091171 
L 240.352915 109.469813 
L 242.128014 108.848455 
L 247.45331 105.232133 
L 248.34086 104.101244 
L 250.115958 102.709426 
L 251.891057 102.013517 
L 253.666156 100.121186 
L 259.879002 100.541437 
L 262.54165 102.047185 
L 265.204298 102.549201 
L 267.866947 104.770699 
L 269.642045 105.319911 
L 270.529595 105.869123 
L 272.304694 106.418335 
L 273.192243 106.967547 
L 274.967342 107.678787 
L 276.742441 108.034707 
L 279.405089 109.019501 
L 282.067737 109.333938 
L 286.505484 110.907023 
L 293.605879 111.361543 
L 295.380978 111.448118 
L 298.043626 111.427677 
L 298.931176 111.107228 
L 380.585721 111.000211 
L 382.36082 110.981574 
L 383.24837 110.729062 
L 387.686117 110.22434 
L 389.461215 110.977365 
L 390.348765 111.73039 
L 391.236314 112.068274 
L 393.011413 112.406158 
L 396.561611 113.757995 
L 398.336709 114.025837 
L 403.662006 115.633191 
L 408.099753 116.296334 
L 410.762401 117.291348 
L 412.5375 116.833221 
L 415.200148 115.458237 
L 416.975247 114.940288 
L 417.862796 114.422039 
L 419.637895 113.90409 
L 421.412994 112.867893 
L 423.188093 112.440126 
L 425.850741 111.156828 
L 427.62584 110.729062 
L 432.951136 110.729062 
L 432.951136 110.729062 
" clip-path="url(#p0aa5bb9a40)" style="fill: none; stroke: #1f77b4; stroke-width: 1.5; stroke-linecap: square"/>
   </g>
   <g id="line2d_20">
    <path d="M 154.305 111.107228 
L 446.22 111.107228 
" clip-path="url(#p0aa5bb9a40)" style="fill: none; stroke: #000000; stroke-width: 1.5; stroke-linecap: square"/>
   </g>
   <g id="patch_13">
    <path d="M 154.305 121.967826 
L 154.305 99.08087 
" style="fill: none; stroke: #000000; stroke-width: 0.8; stroke-linejoin: miter; stroke-linecap: square"/>
   </g>
   <g id="patch_14">
    <path d="M 446.22 121.967826 
L 446.22 99.08087 
" style="fill: none; stroke: #000000; stroke-width: 0.8; stroke-linejoin: miter; stroke-linecap: square"/>
   </g>
   <g id="patch_15">
    <path d="M 154.305 121.967826 
L 446.22 121.967826 
" style="fill: none; stroke: #000000; stroke-width: 0.8; stroke-linejoin: miter; stroke-linecap: square"/>
   </g>
   <g id="patch_16">
    <path d="M 154.305 99.08087 
L 446.22 99.08087 
" style="fill: none; stroke: #000000; stroke-width: 0.8; stroke-linejoin: miter; stroke-linecap: square"/>
   </g>
  </g>
  <g id="axes_4">
   <g id="patch_17">
    <path d="M 154.305 156.298261 
L 446.22 156.298261 
L 446.22 133.411304 
L 154.305 133.411304 
z
" style="fill: #ffffff"/>
   </g>
   <g id="PolyCollection_7">
    <path d="M 194.200346 152.778872 
L 194.200346 152.621893 
L 195.087895 152.396654 
L 195.975445 152.171416 
L 196.862994 151.4957 
L 197.750543 150.664635 
L 198.638093 149.833569 
L 199.525642 149.278077 
L 200.413192 148.722585 
L 201.300741 147.61142 
L 202.188291 146.500437 
L 203.07584 145.536292 
L 203.963389 144.571967 
L 204.850939 143.607823 
L 205.738488 142.782189 
L 206.626038 141.956375 
L 207.513587 141.130741 
L 208.401136 140.30891 
L 209.288686 139.487079 
L 210.176235 138.665248 
L 211.063785 137.424263 
L 211.951334 136.183278 
L 212.838883 135.96673 
L 213.726433 135.750364 
L 214.613982 135.317449 
L 215.501532 134.884535 
L 216.389081 134.451621 
L 217.27663 134.739868 
L 218.16418 135.028297 
L 219.051729 135.316544 
L 219.939279 136.181648 
L 220.826828 137.046391 
L 221.714377 137.478943 
L 222.601927 137.911314 
L 223.489476 138.685527 
L 224.377026 139.459558 
L 225.264575 140.23377 
L 226.152125 141.007983 
L 227.039674 141.487973 
L 227.927223 141.967963 
L 228.814773 142.447953 
L 229.702322 143.887922 
L 230.589872 144.10103 
L 231.477421 144.314138 
L 232.36497 144.527245 
L 233.25252 144.633889 
L 234.140069 144.740353 
L 235.027619 144.95346 
L 235.915168 145.166749 
L 236.802717 145.379856 
L 237.690267 145.592964 
L 238.577816 145.699427 
L 239.465366 145.806072 
L 240.352915 146.019179 
L 241.240464 146.125642 
L 242.128014 146.232287 
L 243.015563 146.388904 
L 243.903113 146.545521 
L 244.790662 146.702137 
L 245.678211 146.858754 
L 246.565761 146.937153 
L 247.45331 147.015371 
L 248.34086 147.171988 
L 249.228409 147.328786 
L 250.115958 147.485403 
L 251.003508 147.563621 
L 251.891057 147.64202 
L 252.778607 147.798636 
L 253.666156 147.955253 
L 254.553706 148.007399 
L 255.441255 148.059725 
L 256.328804 148.11187 
L 257.216354 148.268487 
L 258.103903 148.322986 
L 258.991453 148.377485 
L 259.879002 148.431984 
L 260.766551 148.5953 
L 261.654101 148.758797 
L 262.54165 148.922295 
L 263.4292 148.976794 
L 264.316749 149.031112 
L 265.204298 149.085611 
L 266.091848 149.249108 
L 266.979397 149.40319 
L 267.866947 149.557272 
L 268.754496 149.634222 
L 269.642045 149.711173 
L 270.529595 149.865255 
L 271.417144 149.942386 
L 272.304694 150.019337 
L 273.192243 150.218684 
L 274.079792 150.418212 
L 274.967342 150.617559 
L 275.854891 150.717323 
L 276.742441 150.817087 
L 277.62999 151.030014 
L 278.51754 151.242759 
L 279.405089 151.455686 
L 280.292638 151.526661 
L 281.180188 151.597637 
L 282.067737 151.668431 
L 282.955287 151.881357 
L 283.842836 152.067487 
L 284.730385 152.253617 
L 285.617935 152.439927 
L 286.505484 152.626057 
L 287.393034 152.719122 
L 287.393034 152.778872 
L 287.393034 152.778872 
L 286.505484 152.778872 
L 285.617935 152.778872 
L 284.730385 152.778872 
L 283.842836 152.778872 
L 282.955287 152.778872 
L 282.067737 152.778872 
L 281.180188 152.778872 
L 280.292638 152.778872 
L 279.405089 152.778872 
L 278.51754 152.778872 
L 277.62999 152.778872 
L 276.742441 152.778872 
L 275.854891 152.778872 
L 274.967342 152.778872 
L 274.079792 152.778872 
L 273.192243 152.778872 
L 272.304694 152.778872 
L 271.417144 152.778872 
L 270.529595 152.778872 
L 269.642045 152.778872 
L 268.754496 152.778872 
L 267.866947 152.778872 
L 266.979397 152.778872 
L 266.091848 152.778872 
L 265.204298 152.778872 
L 264.316749 152.778872 
L 263.4292 152.778872 
L 262.54165 152.778872 
L 261.654101 152.778872 
L 260.766551 152.778872 
L 259.879002 152.778872 
L 258.991453 152.778872 
L 258.103903 152.778872 
L 257.216354 152.778872 
L 256.328804 152.778872 
L 255.441255 152.778872 
L 254.553706 152.778872 
L 253.666156 152.778872 
L 252.778607 152.778872 
L 251.891057 152.778872 
L 251.003508 152.778872 
L 250.115958 152.778872 
L 249.228409 152.778872 
L 248.34086 152.778872 
L 247.45331 152.778872 
L 246.565761 152.778872 
L 245.678211 152.778872 
L 244.790662 152.778872 
L 243.903113 152.778872 
L 243.015563 152.778872 
L 242.128014 152.778872 
L 241.240464 152.778872 
L 240.352915 152.778872 
L 239.465366 152.778872 
L 238.577816 152.778872 
L 237.690267 152.778872 
L 236.802717 152.778872 
L 235.915168 152.778872 
L 235.027619 152.778872 
L 234.140069 152.778872 
L 233.25252 152.778872 
L 232.36497 152.778872 
L 231.477421 152.778872 
L 230.589872 152.778872 
L 229.702322 152.778872 
L 228.814773 152.778872 
L 227.927223 152.778872 
L 227.039674 152.778872 
L 226.152125 152.778872 
L 225.264575 152.778872 
L 224.377026 152.778872 
L 223.489476 152.778872 
L 222.601927 152.778872 
L 221.714377 152.778872 
L 220.826828 152.778872 
L 219.939279 152.778872 
L 219.051729 152.778872 
L 218.16418 152.778872 
L 217.27663 152.778872 
L 216.389081 152.778872 
L 215.501532 152.778872 
L 214.613982 152.778872 
L 213.726433 152.778872 
L 212.838883 152.778872 
L 211.951334 152.778872 
L 211.063785 152.778872 
L 210.176235 152.778872 
L 209.288686 152.778872 
L 208.401136 152.778872 
L 207.513587 152.778872 
L 206.626038 152.778872 
L 205.738488 152.778872 
L 204.850939 152.778872 
L 203.963389 152.778872 
L 203.07584 152.778872 
L 202.188291 152.778872 
L 201.300741 152.778872 
L 200.413192 152.778872 
L 199.525642 152.778872 
L 198.638093 152.778872 
L 197.750543 152.778872 
L 196.862994 152.778872 
L 195.975445 152.778872 
L 195.087895 152.778872 
L 194.200346 152.778872 
z
" clip-path="url(#pb0292aecf8)" style="fill: #008000; fill-opacity: 0.3"/>
    <path d="M 377.923073 152.778872 
L 377.923073 152.682548 
L 378.810623 152.702464 
L 378.810623 152.778872 
L 378.810623 152.778872 
L 377.923073 152.778872 
z
" clip-path="url(#pb0292aecf8)" style="fill: #008000; fill-opacity: 0.3"/>
    <path d="M 380.585721 152.778872 
L 380.585721 152.759136 
L 381.473271 152.736866 
L 382.36082 152.691963 
L 383.24837 152.647241 
L 384.135919 152.632394 
L 385.023468 152.617366 
L 385.911018 152.602519 
L 386.798567 152.580068 
L 387.686117 152.557616 
L 388.573666 152.535346 
L 389.461215 152.512895 
L 390.348765 152.670598 
L 390.348765 152.778872 
L 390.348765 152.778872 
L 389.461215 152.778872 
L 388.573666 152.778872 
L 387.686117 152.778872 
L 386.798567 152.778872 
L 385.911018 152.778872 
L 385.023468 152.778872 
L 384.135919 152.778872 
L 383.24837 152.778872 
L 382.36082 152.778872 
L 381.473271 152.778872 
L 380.585721 152.778872 
z
" clip-path="url(#pb0292aecf8)" style="fill: #008000; fill-opacity: 0.3"/>
   </g>
   <g id="PolyCollection_8">
    <path d="M 184.437302 152.778872 
L 184.437302 152.965907 
L 185.324852 153.101702 
L 186.212401 153.192051 
L 187.099951 153.282581 
L 187.9875 153.372929 
L 188.875049 153.413306 
L 189.762599 153.453501 
L 190.650148 153.47378 
L 191.537698 153.493877 
L 192.425247 153.170504 
L 193.312796 152.847131 
L 193.312796 152.778872 
L 193.312796 152.778872 
L 192.425247 152.778872 
L 191.537698 152.778872 
L 190.650148 152.778872 
L 189.762599 152.778872 
L 188.875049 152.778872 
L 187.9875 152.778872 
L 187.099951 152.778872 
L 186.212401 152.778872 
L 185.324852 152.778872 
L 184.437302 152.778872 
z
" clip-path="url(#pb0292aecf8)" style="fill: #ff0000; fill-opacity: 0.3"/>
    <path d="M 288.280583 152.778872 
L 288.280583 152.812187 
L 289.168132 152.828663 
L 290.055682 152.84514 
L 290.943231 152.878093 
L 291.830781 152.894569 
L 292.71833 152.911045 
L 293.605879 152.943998 
L 294.493429 152.916658 
L 295.380978 152.907424 
L 296.268528 152.898371 
L 297.156077 152.889318 
L 298.043626 152.861797 
L 298.043626 152.778872 
L 298.043626 152.778872 
L 297.156077 152.778872 
L 296.268528 152.778872 
L 295.380978 152.778872 
L 294.493429 152.778872 
L 293.605879 152.778872 
L 292.71833 152.778872 
L 291.830781 152.778872 
L 290.943231 152.778872 
L 290.055682 152.778872 
L 289.168132 152.778872 
L 288.280583 152.778872 
z
" clip-path="url(#pb0292aecf8)" style="fill: #ff0000; fill-opacity: 0.3"/>
    <path d="M 379.698172 152.778872 
L 379.698172 152.781588 
L 379.698172 152.778872 
L 379.698172 152.778872 
z
" clip-path="url(#pb0292aecf8)" style="fill: #ff0000; fill-opacity: 0.3"/>
    <path d="M 391.236314 152.778872 
L 391.236314 152.828301 
L 392.123864 152.907062 
L 393.011413 152.985823 
L 393.898962 153.143526 
L 394.786512 153.30123 
L 395.674061 153.458933 
L 396.561611 153.616455 
L 397.44916 153.695397 
L 398.336709 153.774158 
L 399.224259 153.931862 
L 400.111808 154.052447 
L 400.999358 154.173033 
L 401.886907 154.293438 
L 402.774457 154.414024 
L 403.662006 154.53461 
L 404.549555 154.574805 
L 405.437105 154.615001 
L 406.324654 154.655196 
L 407.212204 154.715489 
L 408.099753 154.775782 
L 408.987302 154.896368 
L 409.874852 155.016773 
L 410.762401 155.137359 
L 411.649951 155.197652 
L 412.5375 155.257945 
L 413.425049 155.249254 
L 414.312599 155.240382 
L 415.200148 155.231691 
L 416.087698 155.227346 
L 416.975247 155.223 
L 417.862796 155.214309 
L 418.750346 155.209783 
L 419.637895 155.205437 
L 420.525445 155.196746 
L 421.412994 155.188056 
L 422.300543 155.183529 
L 423.188093 155.179184 
L 424.075642 155.170493 
L 424.963192 155.132289 
L 425.850741 155.094266 
L 426.738291 155.075074 
L 427.62584 155.056063 
L 428.513389 155.043389 
L 429.400939 155.030714 
L 430.288488 155.017859 
L 431.176038 154.998848 
L 432.063587 154.979837 
L 432.951136 154.941633 
L 432.951136 152.778872 
L 432.951136 152.778872 
L 432.063587 152.778872 
L 431.176038 152.778872 
L 430.288488 152.778872 
L 429.400939 152.778872 
L 428.513389 152.778872 
L 427.62584 152.778872 
L 426.738291 152.778872 
L 425.850741 152.778872 
L 424.963192 152.778872 
L 424.075642 152.778872 
L 423.188093 152.778872 
L 422.300543 152.778872 
L 421.412994 152.778872 
L 420.525445 152.778872 
L 419.637895 152.778872 
L 418.750346 152.778872 
L 417.862796 152.778872 
L 416.975247 152.778872 
L 416.087698 152.778872 
L 415.200148 152.778872 
L 414.312599 152.778872 
L 413.425049 152.778872 
L 412.5375 152.778872 
L 411.649951 152.778872 
L 410.762401 152.778872 
L 409.874852 152.778872 
L 408.987302 152.778872 
L 408.099753 152.778872 
L 407.212204 152.778872 
L 406.324654 152.778872 
L 405.437105 152.778872 
L 404.549555 152.778872 
L 403.662006 152.778872 
L 402.774457 152.778872 
L 401.886907 152.778872 
L 400.999358 152.778872 
L 400.111808 152.778872 
L 399.224259 152.778872 
L 398.336709 152.778872 
L 397.44916 152.778872 
L 396.561611 152.778872 
L 395.674061 152.778872 
L 394.786512 152.778872 
L 393.898962 152.778872 
L 393.011413 152.778872 
L 392.123864 152.778872 
L 391.236314 152.778872 
z
" clip-path="url(#pb0292aecf8)" style="fill: #ff0000; fill-opacity: 0.3"/>
   </g>
   <g id="matplotlib.axis_4">
    <g id="ytick_8">
     <g id="line2d_21">
      <path d="M 154.305 152.778872 
L 446.22 152.778872 
" clip-path="url(#pb0292aecf8)" style="fill: none; stroke: #b0b0b0; stroke-width: 0.8; stroke-linecap: square"/>
     </g>
     <g id="line2d_22">
      <g>
       <use xlink:href="#m3432488f90" x="154.305" y="152.778872" style="stroke: #000000; stroke-width: 0.8"/>
      </g>
     </g>
     <g id="text_12">
      <!-- 0 -->
      <g transform="translate(138.715625 157.907817) scale(0.135 -0.135)">
       <use xlink:href="#DejaVuSans-30"/>
      </g>
     </g>
    </g>
    <g id="ytick_9">
     <g id="line2d_23">
      <path d="M 154.305 134.672876 
L 446.22 134.672876 
" clip-path="url(#pb0292aecf8)" style="fill: none; stroke: #b0b0b0; stroke-width: 0.8; stroke-linecap: square"/>
     </g>
     <g id="line2d_24">
      <g>
       <use xlink:href="#m3432488f90" x="154.305" y="134.672876" style="stroke: #000000; stroke-width: 0.8"/>
      </g>
     </g>
     <g id="text_13">
      <!-- 1000 -->
      <g transform="translate(112.9475 139.801821) scale(0.135 -0.135)">
       <use xlink:href="#DejaVuSans-31"/>
       <use xlink:href="#DejaVuSans-30" x="63.623047"/>
       <use xlink:href="#DejaVuSans-30" x="127.246094"/>
       <use xlink:href="#DejaVuSans-30" x="190.869141"/>
      </g>
     </g>
    </g>
    <g id="text_14">
     <!-- PEU_4-2 [kW] -->
     <g transform="translate(17.277422 141.671736) scale(0.135 -0.135)">
      <use xlink:href="#DejaVuSans-50"/>
      <use xlink:href="#DejaVuSans-45" x="60.302734"/>
      <use xlink:href="#DejaVuSans-55" x="123.486328"/>
      <use xlink:href="#DejaVuSans-5f" x="196.679688"/>
      <use xlink:href="#DejaVuSans-34" x="246.679688"/>
      <use xlink:href="#DejaVuSans-2d" x="310.302734"/>
      <use xlink:href="#DejaVuSans-32" x="346.386719"/>
      <use xlink:href="#DejaVuSans-20" x="410.009766"/>
      <use xlink:href="#DejaVuSans-5b" x="441.796875"/>
      <use xlink:href="#DejaVuSans-6b" x="480.810547"/>
      <use xlink:href="#DejaVuSans-57" x="538.720703"/>
      <use xlink:href="#DejaVuSans-5d" x="637.597656"/>
     </g>
    </g>
   </g>
   <g id="line2d_25">
    <path d="M 167.573864 152.778872 
L 183.549753 152.778872 
L 185.324852 153.101702 
L 189.762599 153.453501 
L 191.537698 153.493877 
L 194.200346 152.621893 
L 195.975445 152.171416 
L 196.862994 151.4957 
L 198.638093 149.833569 
L 200.413192 148.722585 
L 203.07584 145.536292 
L 205.738488 142.782189 
L 210.176235 138.665248 
L 211.951334 136.183278 
L 213.726433 135.750364 
L 216.389081 134.451621 
L 219.051729 135.316544 
L 220.826828 137.046391 
L 222.601927 137.911314 
L 226.152125 141.007983 
L 228.814773 142.447953 
L 229.702322 143.887922 
L 233.25252 144.633889 
L 235.027619 144.95346 
L 238.577816 145.699427 
L 242.128014 146.232287 
L 246.565761 146.937153 
L 248.34086 147.171988 
L 251.003508 147.563621 
L 252.778607 147.798636 
L 254.553706 148.007399 
L 259.879002 148.431984 
L 263.4292 148.976794 
L 266.091848 149.249108 
L 268.754496 149.634222 
L 272.304694 150.019337 
L 275.854891 150.717323 
L 276.742441 150.817087 
L 279.405089 151.455686 
L 282.067737 151.668431 
L 286.505484 152.626057 
L 289.168132 152.828663 
L 297.156077 152.889318 
L 304.256472 152.778872 
L 382.36082 152.691963 
L 385.911018 152.602519 
L 389.461215 152.512895 
L 392.123864 152.907062 
L 393.898962 153.143526 
L 397.44916 153.695397 
L 399.224259 153.931862 
L 404.549555 154.574805 
L 408.099753 154.775782 
L 411.649951 155.197652 
L 413.425049 155.249254 
L 432.063587 154.979837 
L 432.951136 154.941633 
L 432.951136 154.941633 
" clip-path="url(#pb0292aecf8)" style="fill: none; stroke: #1f77b4; stroke-width: 1.5; stroke-linecap: square"/>
   </g>
   <g id="line2d_26">
    <path d="M 154.305 152.778872 
L 446.22 152.778872 
" clip-path="url(#pb0292aecf8)" style="fill: none; stroke: #000000; stroke-width: 1.5; stroke-linecap: square"/>
   </g>
   <g id="patch_18">
    <path d="M 154.305 156.298261 
L 154.305 133.411304 
" style="fill: none; stroke: #000000; stroke-width: 0.8; stroke-linejoin: miter; stroke-linecap: square"/>
   </g>
   <g id="patch_19">
    <path d="M 446.22 156.298261 
L 446.22 133.411304 
" style="fill: none; stroke: #000000; stroke-width: 0.8; stroke-linejoin: miter; stroke-linecap: square"/>
   </g>
   <g id="patch_20">
    <path d="M 154.305 156.298261 
L 446.22 156.298261 
" style="fill: none; stroke: #000000; stroke-width: 0.8; stroke-linejoin: miter; stroke-linecap: square"/>
   </g>
   <g id="patch_21">
    <path d="M 154.305 133.411304 
L 446.22 133.411304 
" style="fill: none; stroke: #000000; stroke-width: 0.8; stroke-linejoin: miter; stroke-linecap: square"/>
   </g>
  </g>
  <g id="axes_5">
   <g id="patch_22">
    <path d="M 154.305 190.628696 
L 446.22 190.628696 
L 446.22 167.741739 
L 154.305 167.741739 
z
" style="fill: #ffffff"/>
   </g>
   <g id="matplotlib.axis_5">
    <g id="ytick_10">
     <g id="line2d_27">
      <g>
       <use xlink:href="#m3432488f90" x="154.305" y="189.588379" style="stroke: #000000; stroke-width: 0.8"/>
      </g>
     </g>
     <g id="text_15">
      <!-- 0 -->
      <g transform="translate(138.715625 194.717325) scale(0.135 -0.135)">
       <use xlink:href="#DejaVuSans-30"/>
      </g>
     </g>
    </g>
    <g id="ytick_11">
     <g id="line2d_28">
      <g>
       <use xlink:href="#m3432488f90" x="154.305" y="168.782055" style="stroke: #000000; stroke-width: 0.8"/>
      </g>
     </g>
     <g id="text_16">
      <!-- 1 -->
      <g transform="translate(138.715625 173.911001) scale(0.135 -0.135)">
       <use xlink:href="#DejaVuSans-31"/>
      </g>
     </g>
    </g>
    <g id="text_17">
     <!-- SW_4-1 -->
     <g transform="translate(40.856719 176.002171) scale(0.135 -0.135)">
      <defs>
       <path id="DejaVuSans-53" d="M 3425 4513 
L 3425 3897 
Q 3066 4069 2747 4153 
Q 2428 4238 2131 4238 
Q 1616 4238 1336 4038 
Q 1056 3838 1056 3469 
Q 1056 3159 1242 3001 
Q 1428 2844 1947 2747 
L 2328 2669 
Q 3034 2534 3370 2195 
Q 3706 1856 3706 1288 
Q 3706 609 3251 259 
Q 2797 -91 1919 -91 
Q 1588 -91 1214 -16 
Q 841 59 441 206 
L 441 856 
Q 825 641 1194 531 
Q 1563 422 1919 422 
Q 2459 422 2753 634 
Q 3047 847 3047 1241 
Q 3047 1584 2836 1778 
Q 2625 1972 2144 2069 
L 1759 2144 
Q 1053 2284 737 2584 
Q 422 2884 422 3419 
Q 422 4038 858 4394 
Q 1294 4750 2059 4750 
Q 2388 4750 2728 4690 
Q 3069 4631 3425 4513 
z
" transform="scale(0.015625)"/>
      </defs>
      <use xlink:href="#DejaVuSans-53"/>
      <use xlink:href="#DejaVuSans-57" x="63.476562"/>
      <use xlink:href="#DejaVuSans-5f" x="162.353516"/>
      <use xlink:href="#DejaVuSans-34" x="212.353516"/>
      <use xlink:href="#DejaVuSans-2d" x="275.976562"/>
      <use xlink:href="#DejaVuSans-31" x="312.060547"/>
     </g>
    </g>
   </g>
   <g id="line2d_29">
    <path d="M 167.573864 189.588379 
L 432.951136 189.588379 
L 432.951136 189.588379 
" clip-path="url(#pf2e4e78d0f)" style="fill: none; stroke: #1f77b4; stroke-width: 1.5; stroke-linecap: square"/>
   </g>
   <g id="line2d_30">
    <path d="M 167.573864 168.782055 
L 191.537698 168.782055 
L 192.425247 189.588379 
L 236.802717 189.588379 
L 237.690267 168.782055 
L 290.055682 168.782055 
L 290.943231 189.588379 
L 298.043626 189.588379 
L 298.931176 168.782055 
L 378.810623 168.782055 
L 379.698172 189.588379 
L 389.461215 189.588379 
L 390.348765 168.782055 
L 432.951136 168.782055 
L 432.951136 168.782055 
" clip-path="url(#pf2e4e78d0f)" style="fill: none; stroke: #ff7f0e; stroke-width: 1.5; stroke-linecap: square"/>
   </g>
   <g id="patch_23">
    <path d="M 154.305 190.628696 
L 154.305 167.741739 
" style="fill: none; stroke: #000000; stroke-width: 0.8; stroke-linejoin: miter; stroke-linecap: square"/>
   </g>
   <g id="patch_24">
    <path d="M 446.22 190.628696 
L 446.22 167.741739 
" style="fill: none; stroke: #000000; stroke-width: 0.8; stroke-linejoin: miter; stroke-linecap: square"/>
   </g>
   <g id="patch_25">
    <path d="M 154.305 190.628696 
L 446.22 190.628696 
" style="fill: none; stroke: #000000; stroke-width: 0.8; stroke-linejoin: miter; stroke-linecap: square"/>
   </g>
   <g id="patch_26">
    <path d="M 154.305 167.741739 
L 446.22 167.741739 
" style="fill: none; stroke: #000000; stroke-width: 0.8; stroke-linejoin: miter; stroke-linecap: square"/>
   </g>
  </g>
  <g id="axes_6">
   <g id="patch_27">
    <path d="M 154.305 224.95913 
L 446.22 224.95913 
L 446.22 202.072174 
L 154.305 202.072174 
z
" style="fill: #ffffff"/>
   </g>
   <g id="matplotlib.axis_6">
    <g id="ytick_12">
     <g id="line2d_31">
      <g>
       <use xlink:href="#m3432488f90" x="154.305" y="223.918814" style="stroke: #000000; stroke-width: 0.8"/>
      </g>
     </g>
     <g id="text_18">
      <!-- 0 -->
      <g transform="translate(138.715625 229.04776) scale(0.135 -0.135)">
       <use xlink:href="#DejaVuSans-30"/>
      </g>
     </g>
    </g>
    <g id="ytick_13">
     <g id="line2d_32">
      <g>
       <use xlink:href="#m3432488f90" x="154.305" y="203.11249" style="stroke: #000000; stroke-width: 0.8"/>
      </g>
     </g>
     <g id="text_19">
      <!-- 1 -->
      <g transform="translate(138.715625 208.241435) scale(0.135 -0.135)">
       <use xlink:href="#DejaVuSans-31"/>
      </g>
     </g>
    </g>
    <g id="text_20">
     <!-- SW_4-3 -->
     <g transform="translate(40.856719 210.332605) scale(0.135 -0.135)">
      <use xlink:href="#DejaVuSans-53"/>
      <use xlink:href="#DejaVuSans-57" x="63.476562"/>
      <use xlink:href="#DejaVuSans-5f" x="162.353516"/>
      <use xlink:href="#DejaVuSans-34" x="212.353516"/>
      <use xlink:href="#DejaVuSans-2d" x="275.976562"/>
      <use xlink:href="#DejaVuSans-33" x="312.060547"/>
     </g>
    </g>
   </g>
   <g id="line2d_33">
    <path d="M 167.573864 223.918814 
L 432.951136 223.918814 
L 432.951136 223.918814 
" clip-path="url(#p8737b09749)" style="fill: none; stroke: #1f77b4; stroke-width: 1.5; stroke-linecap: square"/>
   </g>
   <g id="line2d_34">
    <path d="M 167.573864 203.11249 
L 195.087895 203.11249 
L 195.975445 223.918814 
L 236.802717 223.918814 
L 237.690267 203.11249 
L 290.055682 203.11249 
L 290.943231 223.918814 
L 298.043626 223.918814 
L 298.931176 203.11249 
L 389.461215 203.11249 
L 390.348765 223.918814 
L 425.850741 223.918814 
L 426.738291 203.11249 
L 432.951136 203.11249 
L 432.951136 203.11249 
" clip-path="url(#p8737b09749)" style="fill: none; stroke: #ff7f0e; stroke-width: 1.5; stroke-linecap: square"/>
   </g>
   <g id="patch_28">
    <path d="M 154.305 224.95913 
L 154.305 202.072174 
" style="fill: none; stroke: #000000; stroke-width: 0.8; stroke-linejoin: miter; stroke-linecap: square"/>
   </g>
   <g id="patch_29">
    <path d="M 446.22 224.95913 
L 446.22 202.072174 
" style="fill: none; stroke: #000000; stroke-width: 0.8; stroke-linejoin: miter; stroke-linecap: square"/>
   </g>
   <g id="patch_30">
    <path d="M 154.305 224.95913 
L 446.22 224.95913 
" style="fill: none; stroke: #000000; stroke-width: 0.8; stroke-linejoin: miter; stroke-linecap: square"/>
   </g>
   <g id="patch_31">
    <path d="M 154.305 202.072174 
L 446.22 202.072174 
" style="fill: none; stroke: #000000; stroke-width: 0.8; stroke-linejoin: miter; stroke-linecap: square"/>
   </g>
  </g>
  <g id="axes_7">
   <g id="patch_32">
    <path d="M 154.305 259.289565 
L 446.22 259.289565 
L 446.22 236.402609 
L 154.305 236.402609 
z
" style="fill: #ffffff"/>
   </g>
   <g id="matplotlib.axis_7">
    <g id="ytick_14">
     <g id="line2d_35">
      <g>
       <use xlink:href="#m3432488f90" x="154.305" y="258.249249" style="stroke: #000000; stroke-width: 0.8"/>
      </g>
     </g>
     <g id="text_21">
      <!-- 0 -->
      <g transform="translate(138.715625 263.378194) scale(0.135 -0.135)">
       <use xlink:href="#DejaVuSans-30"/>
      </g>
     </g>
    </g>
    <g id="ytick_15">
     <g id="line2d_36">
      <g>
       <use xlink:href="#m3432488f90" x="154.305" y="237.442925" style="stroke: #000000; stroke-width: 0.8"/>
      </g>
     </g>
     <g id="text_22">
      <!-- 1 -->
      <g transform="translate(138.715625 242.57187) scale(0.135 -0.135)">
       <use xlink:href="#DejaVuSans-31"/>
      </g>
     </g>
    </g>
    <g id="text_23">
     <!-- SW_4-2 -->
     <g transform="translate(40.856719 244.66304) scale(0.135 -0.135)">
      <use xlink:href="#DejaVuSans-53"/>
      <use xlink:href="#DejaVuSans-57" x="63.476562"/>
      <use xlink:href="#DejaVuSans-5f" x="162.353516"/>
      <use xlink:href="#DejaVuSans-34" x="212.353516"/>
      <use xlink:href="#DejaVuSans-2d" x="275.976562"/>
      <use xlink:href="#DejaVuSans-32" x="312.060547"/>
     </g>
    </g>
   </g>
   <g id="line2d_37">
    <path d="M 167.573864 258.249249 
L 432.951136 258.249249 
L 432.951136 258.249249 
" clip-path="url(#pe6ae5aca4f)" style="fill: none; stroke: #1f77b4; stroke-width: 1.5; stroke-linecap: square"/>
   </g>
   <g id="line2d_38">
    <path d="M 167.573864 237.442925 
L 183.549753 237.442925 
L 184.437302 258.249249 
L 193.312796 258.249249 
L 194.200346 237.442925 
L 287.393034 237.442925 
L 288.280583 258.249249 
L 298.043626 258.249249 
L 298.931176 237.442925 
L 378.810623 237.442925 
L 379.698172 258.249249 
L 380.585721 237.442925 
L 390.348765 237.442925 
L 391.236314 258.249249 
L 432.951136 258.249249 
L 432.951136 258.249249 
" clip-path="url(#pe6ae5aca4f)" style="fill: none; stroke: #ff7f0e; stroke-width: 1.5; stroke-linecap: square"/>
   </g>
   <g id="patch_33">
    <path d="M 154.305 259.289565 
L 154.305 236.402609 
" style="fill: none; stroke: #000000; stroke-width: 0.8; stroke-linejoin: miter; stroke-linecap: square"/>
   </g>
   <g id="patch_34">
    <path d="M 446.22 259.289565 
L 446.22 236.402609 
" style="fill: none; stroke: #000000; stroke-width: 0.8; stroke-linejoin: miter; stroke-linecap: square"/>
   </g>
   <g id="patch_35">
    <path d="M 154.305 259.289565 
L 446.22 259.289565 
" style="fill: none; stroke: #000000; stroke-width: 0.8; stroke-linejoin: miter; stroke-linecap: square"/>
   </g>
   <g id="patch_36">
    <path d="M 154.305 236.402609 
L 446.22 236.402609 
" style="fill: none; stroke: #000000; stroke-width: 0.8; stroke-linejoin: miter; stroke-linecap: square"/>
   </g>
  </g>
  <g id="axes_8">
   <g id="patch_37">
    <path d="M 154.305 293.62 
L 446.22 293.62 
L 446.22 270.733043 
L 154.305 270.733043 
z
" style="fill: #ffffff"/>
   </g>
   <g id="matplotlib.axis_8">
    <g id="xtick_1">
     <g id="line2d_39">
      <defs>
       <path id="md1b7e56829" d="M 0 0 
L 0 3.5 
" style="stroke: #000000; stroke-width: 0.8"/>
      </defs>
      <g>
       <use xlink:href="#md1b7e56829" x="167.573864" y="293.62" style="stroke: #000000; stroke-width: 0.8"/>
      </g>
     </g>
     <g id="text_24">
      <!-- 00 -->
      <g transform="translate(158.984489 310.877891) scale(0.135 -0.135)">
       <use xlink:href="#DejaVuSans-30"/>
       <use xlink:href="#DejaVuSans-30" x="63.623047"/>
      </g>
     </g>
    </g>
    <g id="xtick_2">
     <g id="line2d_40">
      <g>
       <use xlink:href="#md1b7e56829" x="194.200346" y="293.62" style="stroke: #000000; stroke-width: 0.8"/>
      </g>
     </g>
     <g id="text_25">
      <!-- 02 -->
      <g transform="translate(185.610971 310.877891) scale(0.135 -0.135)">
       <use xlink:href="#DejaVuSans-30"/>
       <use xlink:href="#DejaVuSans-32" x="63.623047"/>
      </g>
     </g>
    </g>
    <g id="xtick_3">
     <g id="line2d_41">
      <g>
       <use xlink:href="#md1b7e56829" x="220.826828" y="293.62" style="stroke: #000000; stroke-width: 0.8"/>
      </g>
     </g>
     <g id="text_26">
      <!-- 04 -->
      <g transform="translate(212.237453 310.877891) scale(0.135 -0.135)">
       <use xlink:href="#DejaVuSans-30"/>
       <use xlink:href="#DejaVuSans-34" x="63.623047"/>
      </g>
     </g>
    </g>
    <g id="xtick_4">
     <g id="line2d_42">
      <g>
       <use xlink:href="#md1b7e56829" x="247.45331" y="293.62" style="stroke: #000000; stroke-width: 0.8"/>
      </g>
     </g>
     <g id="text_27">
      <!-- 06 -->
      <g transform="translate(238.863935 310.877891) scale(0.135 -0.135)">
       <defs>
        <path id="DejaVuSans-36" d="M 2113 2584 
Q 1688 2584 1439 2293 
Q 1191 2003 1191 1497 
Q 1191 994 1439 701 
Q 1688 409 2113 409 
Q 2538 409 2786 701 
Q 3034 994 3034 1497 
Q 3034 2003 2786 2293 
Q 2538 2584 2113 2584 
z
M 3366 4563 
L 3366 3988 
Q 3128 4100 2886 4159 
Q 2644 4219 2406 4219 
Q 1781 4219 1451 3797 
Q 1122 3375 1075 2522 
Q 1259 2794 1537 2939 
Q 1816 3084 2150 3084 
Q 2853 3084 3261 2657 
Q 3669 2231 3669 1497 
Q 3669 778 3244 343 
Q 2819 -91 2113 -91 
Q 1303 -91 875 529 
Q 447 1150 447 2328 
Q 447 3434 972 4092 
Q 1497 4750 2381 4750 
Q 2619 4750 2861 4703 
Q 3103 4656 3366 4563 
z
" transform="scale(0.015625)"/>
       </defs>
       <use xlink:href="#DejaVuSans-30"/>
       <use xlink:href="#DejaVuSans-36" x="63.623047"/>
      </g>
     </g>
    </g>
    <g id="xtick_5">
     <g id="line2d_43">
      <g>
       <use xlink:href="#md1b7e56829" x="274.079792" y="293.62" style="stroke: #000000; stroke-width: 0.8"/>
      </g>
     </g>
     <g id="text_28">
      <!-- 08 -->
      <g transform="translate(265.490417 310.877891) scale(0.135 -0.135)">
       <defs>
        <path id="DejaVuSans-38" d="M 2034 2216 
Q 1584 2216 1326 1975 
Q 1069 1734 1069 1313 
Q 1069 891 1326 650 
Q 1584 409 2034 409 
Q 2484 409 2743 651 
Q 3003 894 3003 1313 
Q 3003 1734 2745 1975 
Q 2488 2216 2034 2216 
z
M 1403 2484 
Q 997 2584 770 2862 
Q 544 3141 544 3541 
Q 544 4100 942 4425 
Q 1341 4750 2034 4750 
Q 2731 4750 3128 4425 
Q 3525 4100 3525 3541 
Q 3525 3141 3298 2862 
Q 3072 2584 2669 2484 
Q 3125 2378 3379 2068 
Q 3634 1759 3634 1313 
Q 3634 634 3220 271 
Q 2806 -91 2034 -91 
Q 1263 -91 848 271 
Q 434 634 434 1313 
Q 434 1759 690 2068 
Q 947 2378 1403 2484 
z
M 1172 3481 
Q 1172 3119 1398 2916 
Q 1625 2713 2034 2713 
Q 2441 2713 2670 2916 
Q 2900 3119 2900 3481 
Q 2900 3844 2670 4047 
Q 2441 4250 2034 4250 
Q 1625 4250 1398 4047 
Q 1172 3844 1172 3481 
z
" transform="scale(0.015625)"/>
       </defs>
       <use xlink:href="#DejaVuSans-30"/>
       <use xlink:href="#DejaVuSans-38" x="63.623047"/>
      </g>
     </g>
    </g>
    <g id="xtick_6">
     <g id="line2d_44">
      <g>
       <use xlink:href="#md1b7e56829" x="300.706275" y="293.62" style="stroke: #000000; stroke-width: 0.8"/>
      </g>
     </g>
     <g id="text_29">
      <!-- 10 -->
      <g transform="translate(292.1169 310.877891) scale(0.135 -0.135)">
       <use xlink:href="#DejaVuSans-31"/>
       <use xlink:href="#DejaVuSans-30" x="63.623047"/>
      </g>
     </g>
    </g>
    <g id="xtick_7">
     <g id="line2d_45">
      <g>
       <use xlink:href="#md1b7e56829" x="327.332757" y="293.62" style="stroke: #000000; stroke-width: 0.8"/>
      </g>
     </g>
     <g id="text_30">
      <!-- 12 -->
      <g transform="translate(318.743382 310.877891) scale(0.135 -0.135)">
       <use xlink:href="#DejaVuSans-31"/>
       <use xlink:href="#DejaVuSans-32" x="63.623047"/>
      </g>
     </g>
    </g>
    <g id="xtick_8">
     <g id="line2d_46">
      <g>
       <use xlink:href="#md1b7e56829" x="353.959239" y="293.62" style="stroke: #000000; stroke-width: 0.8"/>
      </g>
     </g>
     <g id="text_31">
      <!-- 14 -->
      <g transform="translate(345.369864 310.877891) scale(0.135 -0.135)">
       <use xlink:href="#DejaVuSans-31"/>
       <use xlink:href="#DejaVuSans-34" x="63.623047"/>
      </g>
     </g>
    </g>
    <g id="xtick_9">
     <g id="line2d_47">
      <g>
       <use xlink:href="#md1b7e56829" x="380.585721" y="293.62" style="stroke: #000000; stroke-width: 0.8"/>
      </g>
     </g>
     <g id="text_32">
      <!-- 16 -->
      <g transform="translate(371.996346 310.877891) scale(0.135 -0.135)">
       <use xlink:href="#DejaVuSans-31"/>
       <use xlink:href="#DejaVuSans-36" x="63.623047"/>
      </g>
     </g>
    </g>
    <g id="xtick_10">
     <g id="line2d_48">
      <g>
       <use xlink:href="#md1b7e56829" x="407.212204" y="293.62" style="stroke: #000000; stroke-width: 0.8"/>
      </g>
     </g>
     <g id="text_33">
      <!-- 18 -->
      <g transform="translate(398.622829 310.877891) scale(0.135 -0.135)">
       <use xlink:href="#DejaVuSans-31"/>
       <use xlink:href="#DejaVuSans-38" x="63.623047"/>
      </g>
     </g>
    </g>
    <g id="xtick_11">
     <g id="line2d_49">
      <g>
       <use xlink:href="#md1b7e56829" x="433.838686" y="293.62" style="stroke: #000000; stroke-width: 0.8"/>
      </g>
     </g>
     <g id="text_34">
      <!-- 20 -->
      <g transform="translate(425.249311 310.877891) scale(0.135 -0.135)">
       <use xlink:href="#DejaVuSans-32"/>
       <use xlink:href="#DejaVuSans-30" x="63.623047"/>
      </g>
     </g>
    </g>
    <g id="text_35">
     <!-- Time [Hours] -->
     <g transform="translate(256.559414 327.943359) scale(0.135 -0.135)">
      <defs>
       <path id="DejaVuSans-54" d="M -19 4666 
L 3928 4666 
L 3928 4134 
L 2272 4134 
L 2272 0 
L 1638 0 
L 1638 4134 
L -19 4134 
L -19 4666 
z
" transform="scale(0.015625)"/>
       <path id="DejaVuSans-6d" d="M 3328 2828 
Q 3544 3216 3844 3400 
Q 4144 3584 4550 3584 
Q 5097 3584 5394 3201 
Q 5691 2819 5691 2113 
L 5691 0 
L 5113 0 
L 5113 2094 
Q 5113 2597 4934 2840 
Q 4756 3084 4391 3084 
Q 3944 3084 3684 2787 
Q 3425 2491 3425 1978 
L 3425 0 
L 2847 0 
L 2847 2094 
Q 2847 2600 2669 2842 
Q 2491 3084 2119 3084 
Q 1678 3084 1418 2786 
Q 1159 2488 1159 1978 
L 1159 0 
L 581 0 
L 581 3500 
L 1159 3500 
L 1159 2956 
Q 1356 3278 1631 3431 
Q 1906 3584 2284 3584 
Q 2666 3584 2933 3390 
Q 3200 3197 3328 2828 
z
" transform="scale(0.015625)"/>
       <path id="DejaVuSans-65" d="M 3597 1894 
L 3597 1613 
L 953 1613 
Q 991 1019 1311 708 
Q 1631 397 2203 397 
Q 2534 397 2845 478 
Q 3156 559 3463 722 
L 3463 178 
Q 3153 47 2828 -22 
Q 2503 -91 2169 -91 
Q 1331 -91 842 396 
Q 353 884 353 1716 
Q 353 2575 817 3079 
Q 1281 3584 2069 3584 
Q 2775 3584 3186 3129 
Q 3597 2675 3597 1894 
z
M 3022 2063 
Q 3016 2534 2758 2815 
Q 2500 3097 2075 3097 
Q 1594 3097 1305 2825 
Q 1016 2553 972 2059 
L 3022 2063 
z
" transform="scale(0.015625)"/>
       <path id="DejaVuSans-48" d="M 628 4666 
L 1259 4666 
L 1259 2753 
L 3553 2753 
L 3553 4666 
L 4184 4666 
L 4184 0 
L 3553 0 
L 3553 2222 
L 1259 2222 
L 1259 0 
L 628 0 
L 628 4666 
z
" transform="scale(0.015625)"/>
       <path id="DejaVuSans-75" d="M 544 1381 
L 544 3500 
L 1119 3500 
L 1119 1403 
Q 1119 906 1312 657 
Q 1506 409 1894 409 
Q 2359 409 2629 706 
Q 2900 1003 2900 1516 
L 2900 3500 
L 3475 3500 
L 3475 0 
L 2900 0 
L 2900 538 
Q 2691 219 2414 64 
Q 2138 -91 1772 -91 
Q 1169 -91 856 284 
Q 544 659 544 1381 
z
M 1991 3584 
L 1991 3584 
z
" transform="scale(0.015625)"/>
       <path id="DejaVuSans-73" d="M 2834 3397 
L 2834 2853 
Q 2591 2978 2328 3040 
Q 2066 3103 1784 3103 
Q 1356 3103 1142 2972 
Q 928 2841 928 2578 
Q 928 2378 1081 2264 
Q 1234 2150 1697 2047 
L 1894 2003 
Q 2506 1872 2764 1633 
Q 3022 1394 3022 966 
Q 3022 478 2636 193 
Q 2250 -91 1575 -91 
Q 1294 -91 989 -36 
Q 684 19 347 128 
L 347 722 
Q 666 556 975 473 
Q 1284 391 1588 391 
Q 1994 391 2212 530 
Q 2431 669 2431 922 
Q 2431 1156 2273 1281 
Q 2116 1406 1581 1522 
L 1381 1569 
Q 847 1681 609 1914 
Q 372 2147 372 2553 
Q 372 3047 722 3315 
Q 1072 3584 1716 3584 
Q 2034 3584 2315 3537 
Q 2597 3491 2834 3397 
z
" transform="scale(0.015625)"/>
      </defs>
      <use xlink:href="#DejaVuSans-54"/>
      <use xlink:href="#DejaVuSans-69" x="57.958984"/>
      <use xlink:href="#DejaVuSans-6d" x="85.742188"/>
      <use xlink:href="#DejaVuSans-65" x="183.154297"/>
      <use xlink:href="#DejaVuSans-20" x="244.677734"/>
      <use xlink:href="#DejaVuSans-5b" x="276.464844"/>
      <use xlink:href="#DejaVuSans-48" x="315.478516"/>
      <use xlink:href="#DejaVuSans-6f" x="390.673828"/>
      <use xlink:href="#DejaVuSans-75" x="451.855469"/>
      <use xlink:href="#DejaVuSans-72" x="515.234375"/>
      <use xlink:href="#DejaVuSans-73" x="556.347656"/>
      <use xlink:href="#DejaVuSans-5d" x="608.447266"/>
     </g>
    </g>
   </g>
   <g id="matplotlib.axis_9">
    <g id="ytick_16">
     <g id="line2d_50">
      <g>
       <use xlink:href="#m3432488f90" x="154.305" y="285.568827" style="stroke: #000000; stroke-width: 0.8"/>
      </g>
     </g>
     <g id="text_36">
      <!-- −50 -->
      <g transform="translate(118.813672 290.697773) scale(0.135 -0.135)">
       <use xlink:href="#DejaVuSans-2212"/>
       <use xlink:href="#DejaVuSans-35" x="83.789062"/>
       <use xlink:href="#DejaVuSans-30" x="147.412109"/>
      </g>
     </g>
    </g>
    <g id="ytick_17">
     <g id="line2d_51">
      <g>
       <use xlink:href="#m3432488f90" x="154.305" y="271.77336" style="stroke: #000000; stroke-width: 0.8"/>
      </g>
     </g>
     <g id="text_37">
      <!-- 0 -->
      <g transform="translate(138.715625 276.902305) scale(0.135 -0.135)">
       <use xlink:href="#DejaVuSans-30"/>
      </g>
     </g>
    </g>
    <g id="text_38">
     <!-- Balance [kW] -->
     <g transform="translate(23.896641 279.368944) scale(0.135 -0.135)">
      <defs>
       <path id="DejaVuSans-42" d="M 1259 2228 
L 1259 519 
L 2272 519 
Q 2781 519 3026 730 
Q 3272 941 3272 1375 
Q 3272 1813 3026 2020 
Q 2781 2228 2272 2228 
L 1259 2228 
z
M 1259 4147 
L 1259 2741 
L 2194 2741 
Q 2656 2741 2882 2914 
Q 3109 3088 3109 3444 
Q 3109 3797 2882 3972 
Q 2656 4147 2194 4147 
L 1259 4147 
z
M 628 4666 
L 2241 4666 
Q 2963 4666 3353 4366 
Q 3744 4066 3744 3513 
Q 3744 3084 3544 2831 
Q 3344 2578 2956 2516 
Q 3422 2416 3680 2098 
Q 3938 1781 3938 1306 
Q 3938 681 3513 340 
Q 3088 0 2303 0 
L 628 0 
L 628 4666 
z
" transform="scale(0.015625)"/>
       <path id="DejaVuSans-61" d="M 2194 1759 
Q 1497 1759 1228 1600 
Q 959 1441 959 1056 
Q 959 750 1161 570 
Q 1363 391 1709 391 
Q 2188 391 2477 730 
Q 2766 1069 2766 1631 
L 2766 1759 
L 2194 1759 
z
M 3341 1997 
L 3341 0 
L 2766 0 
L 2766 531 
Q 2569 213 2275 61 
Q 1981 -91 1556 -91 
Q 1019 -91 701 211 
Q 384 513 384 1019 
Q 384 1609 779 1909 
Q 1175 2209 1959 2209 
L 2766 2209 
L 2766 2266 
Q 2766 2663 2505 2880 
Q 2244 3097 1772 3097 
Q 1472 3097 1187 3025 
Q 903 2953 641 2809 
L 641 3341 
Q 956 3463 1253 3523 
Q 1550 3584 1831 3584 
Q 2591 3584 2966 3190 
Q 3341 2797 3341 1997 
z
" transform="scale(0.015625)"/>
       <path id="DejaVuSans-6c" d="M 603 4863 
L 1178 4863 
L 1178 0 
L 603 0 
L 603 4863 
z
" transform="scale(0.015625)"/>
       <path id="DejaVuSans-6e" d="M 3513 2113 
L 3513 0 
L 2938 0 
L 2938 2094 
Q 2938 2591 2744 2837 
Q 2550 3084 2163 3084 
Q 1697 3084 1428 2787 
Q 1159 2491 1159 1978 
L 1159 0 
L 581 0 
L 581 3500 
L 1159 3500 
L 1159 2956 
Q 1366 3272 1645 3428 
Q 1925 3584 2291 3584 
Q 2894 3584 3203 3211 
Q 3513 2838 3513 2113 
z
" transform="scale(0.015625)"/>
      </defs>
      <use xlink:href="#DejaVuSans-42"/>
      <use xlink:href="#DejaVuSans-61" x="68.603516"/>
      <use xlink:href="#DejaVuSans-6c" x="129.882812"/>
      <use xlink:href="#DejaVuSans-61" x="157.666016"/>
      <use xlink:href="#DejaVuSans-6e" x="218.945312"/>
      <use xlink:href="#DejaVuSans-63" x="282.324219"/>
      <use xlink:href="#DejaVuSans-65" x="337.304688"/>
      <use xlink:href="#DejaVuSans-20" x="398.828125"/>
      <use xlink:href="#DejaVuSans-5b" x="430.615234"/>
      <use xlink:href="#DejaVuSans-6b" x="469.628906"/>
      <use xlink:href="#DejaVuSans-57" x="527.539062"/>
      <use xlink:href="#DejaVuSans-5d" x="626.416016"/>
     </g>
    </g>
   </g>
   <g id="line2d_52">
    <path d="M 167.573864 271.77336 
L 193.312796 271.77336 
L 194.200346 271.89476 
L 195.975445 274.077203 
L 196.862994 277.346729 
L 197.750543 271.77336 
L 283.842836 271.77336 
L 284.730385 292.579684 
L 286.505484 281.311546 
L 289.168132 272.857683 
L 290.055682 271.77336 
L 389.461215 271.77336 
L 390.348765 275.509172 
L 391.236314 271.77336 
L 432.951136 271.77336 
L 432.951136 271.77336 
" clip-path="url(#pd322d3c7a9)" style="fill: none; stroke: #1f77b4; stroke-width: 1.5; stroke-linecap: square"/>
   </g>
   <g id="patch_38">
    <path d="M 154.305 293.62 
L 154.305 270.733043 
" style="fill: none; stroke: #000000; stroke-width: 0.8; stroke-linejoin: miter; stroke-linecap: square"/>
   </g>
   <g id="patch_39">
    <path d="M 446.22 293.62 
L 446.22 270.733043 
" style="fill: none; stroke: #000000; stroke-width: 0.8; stroke-linejoin: miter; stroke-linecap: square"/>
   </g>
   <g id="patch_40">
    <path d="M 154.305 293.62 
L 446.22 293.62 
" style="fill: none; stroke: #000000; stroke-width: 0.8; stroke-linejoin: miter; stroke-linecap: square"/>
   </g>
   <g id="patch_41">
    <path d="M 154.305 270.733043 
L 446.22 270.733043 
" style="fill: none; stroke: #000000; stroke-width: 0.8; stroke-linejoin: miter; stroke-linecap: square"/>
   </g>
  </g>
 </g>
 <defs>
  <clipPath id="p935d59966c">
   <rect x="154.305" y="30.42" width="291.915" height="22.886957"/>
  </clipPath>
  <clipPath id="pc7abab3a84">
   <rect x="154.305" y="64.750435" width="291.915" height="22.886957"/>
  </clipPath>
  <clipPath id="p0aa5bb9a40">
   <rect x="154.305" y="99.08087" width="291.915" height="22.886957"/>
  </clipPath>
  <clipPath id="pb0292aecf8">
   <rect x="154.305" y="133.411304" width="291.915" height="22.886957"/>
  </clipPath>
  <clipPath id="pf2e4e78d0f">
   <rect x="154.305" y="167.741739" width="291.915" height="22.886957"/>
  </clipPath>
  <clipPath id="p8737b09749">
   <rect x="154.305" y="202.072174" width="291.915" height="22.886957"/>
  </clipPath>
  <clipPath id="pe6ae5aca4f">
   <rect x="154.305" y="236.402609" width="291.915" height="22.886957"/>
  </clipPath>
  <clipPath id="pd322d3c7a9">
   <rect x="154.305" y="270.733043" width="291.915" height="22.886957"/>
  </clipPath>
 </defs>
</svg>
