<?xml version="1.0" encoding="utf-8" standalone="no"?>
<!DOCTYPE svg PUBLIC "-//W3C//DTD SVG 1.1//EN"
  "http://www.w3.org/Graphics/SVG/1.1/DTD/svg11.dtd">
<svg xmlns:xlink="http://www.w3.org/1999/xlink" width="460.8pt" height="345.6pt" viewBox="0 0 460.8 345.6" xmlns="http://www.w3.org/2000/svg" version="1.1">
 <metadata>
  <rdf:RDF xmlns:dc="http://purl.org/dc/elements/1.1/" xmlns:cc="http://creativecommons.org/ns#" xmlns:rdf="http://www.w3.org/1999/02/22-rdf-syntax-ns#">
   <cc:Work>
    <dc:type rdf:resource="http://purl.org/dc/dcmitype/StillImage"/>
    <dc:date>2025-02-06T21:41:35.744077</dc:date>
    <dc:format>image/svg+xml</dc:format>
    <dc:creator>
     <cc:Agent>
      <dc:title>Matplotlib v3.8.0, https://matplotlib.org/</dc:title>
     </cc:Agent>
    </dc:creator>
   </cc:Work>
  </rdf:RDF>
 </metadata>
 <defs>
  <style type="text/css">*{stroke-linejoin: round; stroke-linecap: butt}</style>
 </defs>
 <g id="figure_1">
  <g id="patch_1">
   <path d="M 0 345.6 
L 460.8 345.6 
L 460.8 0 
L 0 0 
z
" style="fill: #ffffff"/>
  </g>
  <g id="axes_1">
   <g id="patch_2">
    <path d="M 162.84 53.442609 
L 446.22 53.442609 
L 446.22 30.66 
L 162.84 30.66 
z
" style="fill: #ffffff"/>
   </g>
   <g id="PolyCollection_1">
    <path d="M 192.091295 47.617813 
L 192.091295 47.478342 
L 192.952894 47.44775 
L 193.814494 47.427198 
L 194.676093 47.406803 
L 195.537692 47.386408 
L 196.399292 47.325066 
L 197.260891 47.444298 
L 198.12249 47.503758 
L 198.984089 47.563374 
L 198.984089 47.617813 
L 198.984089 47.617813 
L 198.12249 47.617813 
L 197.260891 47.617813 
L 196.399292 47.617813 
L 195.537692 47.617813 
L 194.676093 47.617813 
L 193.814494 47.617813 
L 192.952894 47.617813 
L 192.091295 47.617813 
z
" clip-path="url(#p61ca265f03)" style="fill: #008000; fill-opacity: 0.3"/>
    <path d="M 243.787251 47.617813 
L 243.787251 47.411823 
L 244.648851 47.249604 
L 245.51045 47.087542 
L 246.372049 46.763261 
L 247.233649 46.601042 
L 248.095248 46.43898 
L 248.956847 46.114699 
L 249.818446 45.790419 
L 250.680046 45.466138 
L 251.541645 45.141857 
L 252.403244 44.846756 
L 253.264843 44.551656 
L 254.126443 43.961455 
L 254.988042 43.598267 
L 255.849641 43.235079 
L 256.71124 43.053406 
L 257.57284 42.87189 
L 258.434439 42.378017 
L 259.296038 41.8843 
L 260.157638 41.908618 
L 261.019237 41.933092 
L 261.880836 41.957409 
L 262.742435 42.030517 
L 263.604035 42.054834 
L 264.465634 42.079308 
L 265.327233 42.103625 
L 266.188832 42.365623 
L 267.050432 42.627464 
L 267.912031 42.889461 
L 268.77363 42.976846 
L 269.63523 43.064074 
L 270.496829 43.151459 
L 271.358428 43.537866 
L 272.220027 43.924431 
L 273.081627 44.310838 
L 273.943226 44.454074 
L 274.804825 44.597466 
L 275.666424 44.884095 
L 276.528024 45.027331 
L 277.389623 45.170724 
L 278.251222 45.457352 
L 279.112822 45.642947 
L 279.974421 45.828542 
L 280.83602 45.921417 
L 281.697619 46.014293 
L 282.559219 46.199888 
L 283.420818 46.363989 
L 284.282417 46.528248 
L 285.144016 46.583001 
L 286.005616 46.637753 
L 286.867215 46.692349 
L 287.728814 46.856608 
L 288.590414 47.020709 
L 289.452013 47.184968 
L 290.313612 47.349069 
L 291.175211 47.513328 
L 292.036811 47.537017 
L 292.89841 47.560707 
L 293.760009 47.584396 
L 294.621608 47.608243 
L 294.621608 47.617813 
L 294.621608 47.617813 
L 293.760009 47.617813 
L 292.89841 47.617813 
L 292.036811 47.617813 
L 291.175211 47.617813 
L 290.313612 47.617813 
L 289.452013 47.617813 
L 288.590414 47.617813 
L 287.728814 47.617813 
L 286.867215 47.617813 
L 286.005616 47.617813 
L 285.144016 47.617813 
L 284.282417 47.617813 
L 283.420818 47.617813 
L 282.559219 47.617813 
L 281.697619 47.617813 
L 280.83602 47.617813 
L 279.974421 47.617813 
L 279.112822 47.617813 
L 278.251222 47.617813 
L 277.389623 47.617813 
L 276.528024 47.617813 
L 275.666424 47.617813 
L 274.804825 47.617813 
L 273.943226 47.617813 
L 273.081627 47.617813 
L 272.220027 47.617813 
L 271.358428 47.617813 
L 270.496829 47.617813 
L 269.63523 47.617813 
L 268.77363 47.617813 
L 267.912031 47.617813 
L 267.050432 47.617813 
L 266.188832 47.617813 
L 265.327233 47.617813 
L 264.465634 47.617813 
L 263.604035 47.617813 
L 262.742435 47.617813 
L 261.880836 47.617813 
L 261.019237 47.617813 
L 260.157638 47.617813 
L 259.296038 47.617813 
L 258.434439 47.617813 
L 257.57284 47.617813 
L 256.71124 47.617813 
L 255.849641 47.617813 
L 254.988042 47.617813 
L 254.126443 47.617813 
L 253.264843 47.617813 
L 252.403244 47.617813 
L 251.541645 47.617813 
L 250.680046 47.617813 
L 249.818446 47.617813 
L 248.956847 47.617813 
L 248.095248 47.617813 
L 247.233649 47.617813 
L 246.372049 47.617813 
L 245.51045 47.617813 
L 244.648851 47.617813 
L 243.787251 47.617813 
z
" clip-path="url(#p61ca265f03)" style="fill: #008000; fill-opacity: 0.3"/>
    <path d="M 379.919936 47.617813 
L 379.919936 47.588789 
L 380.781535 47.583455 
L 380.781535 47.617813 
L 380.781535 47.617813 
L 379.919936 47.617813 
z
" clip-path="url(#p61ca265f03)" style="fill: #008000; fill-opacity: 0.3"/>
    <path d="M 391.982326 47.617813 
L 391.982326 47.015375 
L 392.843925 46.297313 
L 393.705524 45.906356 
L 394.567124 45.515399 
L 395.428723 44.733486 
L 396.290322 43.221273 
L 397.151922 42.377546 
L 398.013521 41.53382 
L 398.87512 41.111957 
L 399.736719 40.690093 
L 400.598319 39.869429 
L 401.459918 39.048764 
L 402.321517 38.2281 
L 403.183116 37.558045 
L 404.044716 36.888147 
L 404.906315 36.151102 
L 405.767914 35.905577 
L 406.629514 35.659895 
L 407.491113 35.414214 
L 408.352712 34.535816 
L 409.214311 33.657575 
L 410.075911 32.965242 
L 410.93751 32.272909 
L 411.799109 32.128575 
L 412.660708 32.056408 
L 413.522308 31.984241 
L 414.383907 31.839907 
L 415.245506 31.695573 
L 416.107106 32.079941 
L 416.968705 32.272125 
L 417.830304 32.464309 
L 418.691903 32.848677 
L 419.553503 33.334549 
L 420.415102 33.820264 
L 421.276701 34.792009 
L 422.1383 35.492656 
L 422.9999 35.84298 
L 423.861499 36.193304 
L 424.723098 36.861319 
L 425.584697 37.529335 
L 426.446297 38.012226 
L 427.307896 38.253672 
L 428.169495 38.495118 
L 429.031095 38.656082 
L 429.892694 38.817045 
L 430.754293 38.978009 
L 431.615892 39.219455 
L 432.477492 39.460901 
L 433.339091 39.460901 
L 433.339091 47.617813 
L 433.339091 47.617813 
L 432.477492 47.617813 
L 431.615892 47.617813 
L 430.754293 47.617813 
L 429.892694 47.617813 
L 429.031095 47.617813 
L 428.169495 47.617813 
L 427.307896 47.617813 
L 426.446297 47.617813 
L 425.584697 47.617813 
L 424.723098 47.617813 
L 423.861499 47.617813 
L 422.9999 47.617813 
L 422.1383 47.617813 
L 421.276701 47.617813 
L 420.415102 47.617813 
L 419.553503 47.617813 
L 418.691903 47.617813 
L 417.830304 47.617813 
L 416.968705 47.617813 
L 416.107106 47.617813 
L 415.245506 47.617813 
L 414.383907 47.617813 
L 413.522308 47.617813 
L 412.660708 47.617813 
L 411.799109 47.617813 
L 410.93751 47.617813 
L 410.075911 47.617813 
L 409.214311 47.617813 
L 408.352712 47.617813 
L 407.491113 47.617813 
L 406.629514 47.617813 
L 405.767914 47.617813 
L 404.906315 47.617813 
L 404.044716 47.617813 
L 403.183116 47.617813 
L 402.321517 47.617813 
L 401.459918 47.617813 
L 400.598319 47.617813 
L 399.736719 47.617813 
L 398.87512 47.617813 
L 398.013521 47.617813 
L 397.151922 47.617813 
L 396.290322 47.617813 
L 395.428723 47.617813 
L 394.567124 47.617813 
L 393.705524 47.617813 
L 392.843925 47.617813 
L 391.982326 47.617813 
z
" clip-path="url(#p61ca265f03)" style="fill: #008000; fill-opacity: 0.3"/>
   </g>
   <g id="PolyCollection_2">
    <path d="M 199.845689 47.617813 
L 199.845689 47.682606 
L 200.707288 47.801682 
L 201.568887 47.841531 
L 202.430486 47.881222 
L 203.292086 47.920914 
L 204.153685 48.201581 
L 205.015284 48.482248 
L 205.876884 48.762758 
L 206.738483 48.90317 
L 207.600082 49.043425 
L 208.461681 49.352018 
L 209.323281 49.660767 
L 210.18488 49.969359 
L 211.046479 50.277952 
L 211.908078 50.603488 
L 212.769678 50.712052 
L 213.631277 50.820459 
L 214.492876 50.929024 
L 215.354476 51.25456 
L 216.216075 51.580096 
L 217.077674 51.78687 
L 217.939273 51.993644 
L 218.800873 52.200261 
L 219.662472 52.303648 
L 220.524071 52.407036 
L 221.38567 52.341771 
L 222.24727 52.276351 
L 223.108869 52.211086 
L 223.970468 52.189279 
L 224.832067 52.167472 
L 225.693667 52.145665 
L 226.555266 52.080401 
L 227.416865 52.01498 
L 228.278465 51.982348 
L 229.140064 51.949716 
L 230.001663 51.884295 
L 230.863262 51.819031 
L 231.724862 51.565819 
L 232.586461 51.312764 
L 233.44806 51.22836 
L 234.309659 51.143956 
L 235.171259 51.059552 
L 236.032858 50.455702 
L 236.894457 50.141933 
L 237.756057 49.828006 
L 238.617656 49.51408 
L 239.479255 49.303854 
L 240.340854 49.093628 
L 241.202454 48.673177 
L 242.064053 48.252726 
L 242.925652 47.832274 
L 242.925652 47.617813 
L 242.925652 47.617813 
L 242.064053 47.617813 
L 241.202454 47.617813 
L 240.340854 47.617813 
L 239.479255 47.617813 
L 238.617656 47.617813 
L 237.756057 47.617813 
L 236.894457 47.617813 
L 236.032858 47.617813 
L 235.171259 47.617813 
L 234.309659 47.617813 
L 233.44806 47.617813 
L 232.586461 47.617813 
L 231.724862 47.617813 
L 230.863262 47.617813 
L 230.001663 47.617813 
L 229.140064 47.617813 
L 228.278465 47.617813 
L 227.416865 47.617813 
L 226.555266 47.617813 
L 225.693667 47.617813 
L 224.832067 47.617813 
L 223.970468 47.617813 
L 223.108869 47.617813 
L 222.24727 47.617813 
L 221.38567 47.617813 
L 220.524071 47.617813 
L 219.662472 47.617813 
L 218.800873 47.617813 
L 217.939273 47.617813 
L 217.077674 47.617813 
L 216.216075 47.617813 
L 215.354476 47.617813 
L 214.492876 47.617813 
L 213.631277 47.617813 
L 212.769678 47.617813 
L 211.908078 47.617813 
L 211.046479 47.617813 
L 210.18488 47.617813 
L 209.323281 47.617813 
L 208.461681 47.617813 
L 207.600082 47.617813 
L 206.738483 47.617813 
L 205.876884 47.617813 
L 205.015284 47.617813 
L 204.153685 47.617813 
L 203.292086 47.617813 
L 202.430486 47.617813 
L 201.568887 47.617813 
L 200.707288 47.617813 
L 199.845689 47.617813 
z
" clip-path="url(#p61ca265f03)" style="fill: #ff0000; fill-opacity: 0.3"/>
    <path d="M 295.483208 47.617813 
L 295.483208 47.655622 
L 296.344807 47.679312 
L 297.206406 47.703001 
L 298.068005 47.750537 
L 298.929605 47.797917 
L 299.791204 47.79572 
L 300.652803 47.793681 
L 301.514403 47.791484 
L 302.376002 47.785052 
L 302.376002 47.617813 
L 302.376002 47.617813 
L 301.514403 47.617813 
L 300.652803 47.617813 
L 299.791204 47.617813 
L 298.929605 47.617813 
L 298.068005 47.617813 
L 297.206406 47.617813 
L 296.344807 47.617813 
L 295.483208 47.617813 
z
" clip-path="url(#p61ca265f03)" style="fill: #ff0000; fill-opacity: 0.3"/>
    <path d="M 381.643135 47.617813 
L 381.643135 47.765441 
L 382.504734 47.856435 
L 383.366333 47.947428 
L 384.227933 48.129414 
L 385.089532 48.311401 
L 385.951131 48.311244 
L 386.81273 48.311087 
L 387.67433 48.311087 
L 388.535929 48.310773 
L 389.397528 48.310616 
L 390.259127 48.022105 
L 391.120727 47.733437 
L 391.120727 47.617813 
L 391.120727 47.617813 
L 390.259127 47.617813 
L 389.397528 47.617813 
L 388.535929 47.617813 
L 387.67433 47.617813 
L 386.81273 47.617813 
L 385.951131 47.617813 
L 385.089532 47.617813 
L 384.227933 47.617813 
L 383.366333 47.617813 
L 382.504734 47.617813 
L 381.643135 47.617813 
z
" clip-path="url(#p61ca265f03)" style="fill: #ff0000; fill-opacity: 0.3"/>
   </g>
   <g id="matplotlib.axis_1">
    <g id="ytick_1">
     <g id="line2d_1">
      <path d="M 162.84 47.617813 
L 446.22 47.617813 
" clip-path="url(#p61ca265f03)" style="fill: none; stroke: #b0b0b0; stroke-width: 0.8; stroke-linecap: square"/>
     </g>
     <g id="line2d_2">
      <defs>
       <path id="m72864fbb3e" d="M 0 0 
L -3.5 0 
" style="stroke: #000000; stroke-width: 0.8"/>
      </defs>
      <g>
       <use xlink:href="#m72864fbb3e" x="162.84" y="47.617813" style="stroke: #000000; stroke-width: 0.8"/>
      </g>
     </g>
     <g id="text_1">
      <!-- 0 -->
      <g transform="translate(147.250625 52.746758) scale(0.135 -0.135)">
       <defs>
        <path id="DejaVuSans-30" d="M 2034 4250 
Q 1547 4250 1301 3770 
Q 1056 3291 1056 2328 
Q 1056 1369 1301 889 
Q 1547 409 2034 409 
Q 2525 409 2770 889 
Q 3016 1369 3016 2328 
Q 3016 3291 2770 3770 
Q 2525 4250 2034 4250 
z
M 2034 4750 
Q 2819 4750 3233 4129 
Q 3647 3509 3647 2328 
Q 3647 1150 3233 529 
Q 2819 -91 2034 -91 
Q 1250 -91 836 529 
Q 422 1150 422 2328 
Q 422 3509 836 4129 
Q 1250 4750 2034 4750 
z
" transform="scale(0.015625)"/>
       </defs>
       <use xlink:href="#DejaVuSans-30"/>
      </g>
     </g>
    </g>
    <g id="ytick_2">
     <g id="line2d_3">
      <path d="M 162.84 31.929331 
L 446.22 31.929331 
" clip-path="url(#p61ca265f03)" style="fill: none; stroke: #b0b0b0; stroke-width: 0.8; stroke-linecap: square"/>
     </g>
     <g id="line2d_4">
      <g>
       <use xlink:href="#m72864fbb3e" x="162.84" y="31.929331" style="stroke: #000000; stroke-width: 0.8"/>
      </g>
     </g>
     <g id="text_2">
      <!-- 1000 -->
      <g transform="translate(121.4825 37.058277) scale(0.135 -0.135)">
       <defs>
        <path id="DejaVuSans-31" d="M 794 531 
L 1825 531 
L 1825 4091 
L 703 3866 
L 703 4441 
L 1819 4666 
L 2450 4666 
L 2450 531 
L 3481 531 
L 3481 0 
L 794 0 
L 794 531 
z
" transform="scale(0.015625)"/>
       </defs>
       <use xlink:href="#DejaVuSans-31"/>
       <use xlink:href="#DejaVuSans-30" x="63.623047"/>
       <use xlink:href="#DejaVuSans-30" x="127.246094"/>
       <use xlink:href="#DejaVuSans-30" x="190.869141"/>
      </g>
     </g>
    </g>
    <g id="text_3">
     <!-- ΔP[kW] -->
     <g transform="translate(46.945195 39.243726) scale(0.135 -0.135)">
      <defs>
       <path id="DejaVuSans-394" d="M 2188 4044 
L 906 525 
L 3472 525 
L 2188 4044 
z
M 50 0 
L 1831 4666 
L 2547 4666 
L 4325 0 
L 50 0 
z
" transform="scale(0.015625)"/>
       <path id="DejaVuSans-50" d="M 1259 4147 
L 1259 2394 
L 2053 2394 
Q 2494 2394 2734 2622 
Q 2975 2850 2975 3272 
Q 2975 3691 2734 3919 
Q 2494 4147 2053 4147 
L 1259 4147 
z
M 628 4666 
L 2053 4666 
Q 2838 4666 3239 4311 
Q 3641 3956 3641 3272 
Q 3641 2581 3239 2228 
Q 2838 1875 2053 1875 
L 1259 1875 
L 1259 0 
L 628 0 
L 628 4666 
z
" transform="scale(0.015625)"/>
       <path id="DejaVuSans-5b" d="M 550 4863 
L 1875 4863 
L 1875 4416 
L 1125 4416 
L 1125 -397 
L 1875 -397 
L 1875 -844 
L 550 -844 
L 550 4863 
z
" transform="scale(0.015625)"/>
       <path id="DejaVuSans-6b" d="M 581 4863 
L 1159 4863 
L 1159 1991 
L 2875 3500 
L 3609 3500 
L 1753 1863 
L 3688 0 
L 2938 0 
L 1159 1709 
L 1159 0 
L 581 0 
L 581 4863 
z
" transform="scale(0.015625)"/>
       <path id="DejaVuSans-57" d="M 213 4666 
L 850 4666 
L 1831 722 
L 2809 4666 
L 3519 4666 
L 4500 722 
L 5478 4666 
L 6119 4666 
L 4947 0 
L 4153 0 
L 3169 4050 
L 2175 0 
L 1381 0 
L 213 4666 
z
" transform="scale(0.015625)"/>
       <path id="DejaVuSans-5d" d="M 1947 4863 
L 1947 -844 
L 622 -844 
L 622 -397 
L 1369 -397 
L 1369 4416 
L 622 4416 
L 622 4863 
L 1947 4863 
z
" transform="scale(0.015625)"/>
      </defs>
      <use xlink:href="#DejaVuSans-394"/>
      <use xlink:href="#DejaVuSans-50" x="68.408203"/>
      <use xlink:href="#DejaVuSans-5b" x="128.710938"/>
      <use xlink:href="#DejaVuSans-6b" x="167.724609"/>
      <use xlink:href="#DejaVuSans-57" x="225.634766"/>
      <use xlink:href="#DejaVuSans-5d" x="324.511719"/>
     </g>
    </g>
   </g>
   <g id="line2d_5">
    <path d="M 175.720909 47.617813 
L 191.229696 47.617813 
L 192.952894 47.44775 
L 197.260891 47.444298 
L 199.845689 47.682606 
L 201.568887 47.841531 
L 203.292086 47.920914 
L 205.876884 48.762758 
L 207.600082 49.043425 
L 211.908078 50.603488 
L 214.492876 50.929024 
L 217.077674 51.78687 
L 219.662472 52.303648 
L 220.524071 52.407036 
L 224.832067 52.167472 
L 229.140064 51.949716 
L 230.863262 51.819031 
L 232.586461 51.312764 
L 235.171259 51.059552 
L 236.032858 50.455702 
L 239.479255 49.303854 
L 240.340854 49.093628 
L 243.787251 47.411823 
L 245.51045 47.087542 
L 246.372049 46.763261 
L 248.095248 46.43898 
L 253.264843 44.551656 
L 254.126443 43.961455 
L 255.849641 43.235079 
L 257.57284 42.87189 
L 259.296038 41.8843 
L 265.327233 42.103625 
L 267.912031 42.889461 
L 270.496829 43.151459 
L 273.081627 44.310838 
L 274.804825 44.597466 
L 275.666424 44.884095 
L 277.389623 45.170724 
L 279.112822 45.642947 
L 280.83602 45.921417 
L 282.559219 46.199888 
L 285.144016 46.583001 
L 287.728814 46.856608 
L 291.175211 47.513328 
L 302.376002 47.785052 
L 303.237601 47.617813 
L 380.781535 47.583455 
L 382.504734 47.856435 
L 384.227933 48.129414 
L 385.089532 48.311401 
L 389.397528 48.310616 
L 391.120727 47.733437 
L 392.843925 46.297313 
L 394.567124 45.515399 
L 395.428723 44.733486 
L 396.290322 43.221273 
L 398.013521 41.53382 
L 399.736719 40.690093 
L 403.183116 37.558045 
L 404.906315 36.151102 
L 407.491113 35.414214 
L 409.214311 33.657575 
L 410.93751 32.272909 
L 412.660708 32.056408 
L 414.383907 31.839907 
L 415.245506 31.695573 
L 416.107106 32.079941 
L 417.830304 32.464309 
L 419.553503 33.334549 
L 420.415102 33.820264 
L 421.276701 34.792009 
L 422.1383 35.492656 
L 423.861499 36.193304 
L 425.584697 37.529335 
L 426.446297 38.012226 
L 429.031095 38.656082 
L 431.615892 39.219455 
L 432.477492 39.460901 
L 433.339091 39.460901 
L 433.339091 39.460901 
" clip-path="url(#p61ca265f03)" style="fill: none; stroke: #1f77b4; stroke-width: 1.5; stroke-linecap: square"/>
   </g>
   <g id="line2d_6">
    <path d="M 162.84 47.617813 
L 446.22 47.617813 
" clip-path="url(#p61ca265f03)" style="fill: none; stroke: #000000; stroke-width: 1.5; stroke-linecap: square"/>
   </g>
   <g id="patch_3">
    <path d="M 162.84 53.442609 
L 162.84 30.66 
" style="fill: none; stroke: #000000; stroke-width: 0.8; stroke-linejoin: miter; stroke-linecap: square"/>
   </g>
   <g id="patch_4">
    <path d="M 446.22 53.442609 
L 446.22 30.66 
" style="fill: none; stroke: #000000; stroke-width: 0.8; stroke-linejoin: miter; stroke-linecap: square"/>
   </g>
   <g id="patch_5">
    <path d="M 162.84 53.442609 
L 446.22 53.442609 
" style="fill: none; stroke: #000000; stroke-width: 0.8; stroke-linejoin: miter; stroke-linecap: square"/>
   </g>
   <g id="patch_6">
    <path d="M 162.84 30.66 
L 446.22 30.66 
" style="fill: none; stroke: #000000; stroke-width: 0.8; stroke-linejoin: miter; stroke-linecap: square"/>
   </g>
   <g id="text_4">
    <!-- Microgrid 1 -->
    <g transform="translate(268.106641 24.66) scale(0.13 -0.13)">
     <defs>
      <path id="DejaVuSans-4d" d="M 628 4666 
L 1569 4666 
L 2759 1491 
L 3956 4666 
L 4897 4666 
L 4897 0 
L 4281 0 
L 4281 4097 
L 3078 897 
L 2444 897 
L 1241 4097 
L 1241 0 
L 628 0 
L 628 4666 
z
" transform="scale(0.015625)"/>
      <path id="DejaVuSans-69" d="M 603 3500 
L 1178 3500 
L 1178 0 
L 603 0 
L 603 3500 
z
M 603 4863 
L 1178 4863 
L 1178 4134 
L 603 4134 
L 603 4863 
z
" transform="scale(0.015625)"/>
      <path id="DejaVuSans-63" d="M 3122 3366 
L 3122 2828 
Q 2878 2963 2633 3030 
Q 2388 3097 2138 3097 
Q 1578 3097 1268 2742 
Q 959 2388 959 1747 
Q 959 1106 1268 751 
Q 1578 397 2138 397 
Q 2388 397 2633 464 
Q 2878 531 3122 666 
L 3122 134 
Q 2881 22 2623 -34 
Q 2366 -91 2075 -91 
Q 1284 -91 818 406 
Q 353 903 353 1747 
Q 353 2603 823 3093 
Q 1294 3584 2113 3584 
Q 2378 3584 2631 3529 
Q 2884 3475 3122 3366 
z
" transform="scale(0.015625)"/>
      <path id="DejaVuSans-72" d="M 2631 2963 
Q 2534 3019 2420 3045 
Q 2306 3072 2169 3072 
Q 1681 3072 1420 2755 
Q 1159 2438 1159 1844 
L 1159 0 
L 581 0 
L 581 3500 
L 1159 3500 
L 1159 2956 
Q 1341 3275 1631 3429 
Q 1922 3584 2338 3584 
Q 2397 3584 2469 3576 
Q 2541 3569 2628 3553 
L 2631 2963 
z
" transform="scale(0.015625)"/>
      <path id="DejaVuSans-6f" d="M 1959 3097 
Q 1497 3097 1228 2736 
Q 959 2375 959 1747 
Q 959 1119 1226 758 
Q 1494 397 1959 397 
Q 2419 397 2687 759 
Q 2956 1122 2956 1747 
Q 2956 2369 2687 2733 
Q 2419 3097 1959 3097 
z
M 1959 3584 
Q 2709 3584 3137 3096 
Q 3566 2609 3566 1747 
Q 3566 888 3137 398 
Q 2709 -91 1959 -91 
Q 1206 -91 779 398 
Q 353 888 353 1747 
Q 353 2609 779 3096 
Q 1206 3584 1959 3584 
z
" transform="scale(0.015625)"/>
      <path id="DejaVuSans-67" d="M 2906 1791 
Q 2906 2416 2648 2759 
Q 2391 3103 1925 3103 
Q 1463 3103 1205 2759 
Q 947 2416 947 1791 
Q 947 1169 1205 825 
Q 1463 481 1925 481 
Q 2391 481 2648 825 
Q 2906 1169 2906 1791 
z
M 3481 434 
Q 3481 -459 3084 -895 
Q 2688 -1331 1869 -1331 
Q 1566 -1331 1297 -1286 
Q 1028 -1241 775 -1147 
L 775 -588 
Q 1028 -725 1275 -790 
Q 1522 -856 1778 -856 
Q 2344 -856 2625 -561 
Q 2906 -266 2906 331 
L 2906 616 
Q 2728 306 2450 153 
Q 2172 0 1784 0 
Q 1141 0 747 490 
Q 353 981 353 1791 
Q 353 2603 747 3093 
Q 1141 3584 1784 3584 
Q 2172 3584 2450 3431 
Q 2728 3278 2906 2969 
L 2906 3500 
L 3481 3500 
L 3481 434 
z
" transform="scale(0.015625)"/>
      <path id="DejaVuSans-64" d="M 2906 2969 
L 2906 4863 
L 3481 4863 
L 3481 0 
L 2906 0 
L 2906 525 
Q 2725 213 2448 61 
Q 2172 -91 1784 -91 
Q 1150 -91 751 415 
Q 353 922 353 1747 
Q 353 2572 751 3078 
Q 1150 3584 1784 3584 
Q 2172 3584 2448 3432 
Q 2725 3281 2906 2969 
z
M 947 1747 
Q 947 1113 1208 752 
Q 1469 391 1925 391 
Q 2381 391 2643 752 
Q 2906 1113 2906 1747 
Q 2906 2381 2643 2742 
Q 2381 3103 1925 3103 
Q 1469 3103 1208 2742 
Q 947 2381 947 1747 
z
" transform="scale(0.015625)"/>
      <path id="DejaVuSans-20" transform="scale(0.015625)"/>
     </defs>
     <use xlink:href="#DejaVuSans-4d"/>
     <use xlink:href="#DejaVuSans-69" x="86.279297"/>
     <use xlink:href="#DejaVuSans-63" x="114.0625"/>
     <use xlink:href="#DejaVuSans-72" x="169.042969"/>
     <use xlink:href="#DejaVuSans-6f" x="207.90625"/>
     <use xlink:href="#DejaVuSans-67" x="269.087891"/>
     <use xlink:href="#DejaVuSans-72" x="332.564453"/>
     <use xlink:href="#DejaVuSans-69" x="373.677734"/>
     <use xlink:href="#DejaVuSans-64" x="401.460938"/>
     <use xlink:href="#DejaVuSans-20" x="464.9375"/>
     <use xlink:href="#DejaVuSans-31" x="496.724609"/>
    </g>
   </g>
  </g>
  <g id="axes_2">
   <g id="patch_7">
    <path d="M 162.84 87.616522 
L 446.22 87.616522 
L 446.22 64.833913 
L 162.84 64.833913 
z
" style="fill: #ffffff"/>
   </g>
   <g id="PolyCollection_3">
    <path d="M 201.568887 84.113178 
L 201.568887 83.956915 
L 202.430486 83.732703 
L 203.292086 83.508492 
L 204.153685 82.835857 
L 205.015284 82.008581 
L 205.876884 81.181305 
L 206.738483 80.628345 
L 207.600082 80.075386 
L 208.461681 78.969287 
L 209.323281 77.863368 
L 210.18488 76.90362 
L 211.046479 75.943691 
L 211.908078 74.983943 
L 212.769678 74.162074 
L 213.631277 73.340024 
L 214.492876 72.518155 
L 215.354476 71.700071 
L 216.216075 70.881987 
L 217.077674 70.063902 
L 217.939273 68.828575 
L 218.800873 67.593249 
L 219.662472 67.377688 
L 220.524071 67.162308 
L 221.38567 66.731367 
L 222.24727 66.300427 
L 223.108869 65.869486 
L 223.970468 66.156419 
L 224.832067 66.443533 
L 225.693667 66.730466 
L 226.555266 67.591626 
L 227.416865 68.452426 
L 228.278465 68.883006 
L 229.140064 69.313406 
L 230.001663 70.084089 
L 230.863262 70.854591 
L 231.724862 71.625274 
L 232.586461 72.395956 
L 233.44806 72.873758 
L 234.309659 73.351559 
L 235.171259 73.829361 
L 236.032858 75.262765 
L 236.894457 75.474901 
L 237.756057 75.687037 
L 238.617656 75.899173 
L 239.479255 76.005331 
L 240.340854 76.111309 
L 241.202454 76.323445 
L 242.064053 76.535761 
L 242.925652 76.747897 
L 243.787251 76.960033 
L 244.648851 77.066011 
L 245.51045 77.172169 
L 246.372049 77.384305 
L 247.233649 77.490283 
L 248.095248 77.596441 
L 248.956847 77.752344 
L 249.818446 77.908247 
L 250.680046 78.06415 
L 251.541645 78.220052 
L 252.403244 78.298094 
L 253.264843 78.375955 
L 254.126443 78.531858 
L 254.988042 78.687941 
L 255.849641 78.843844 
L 256.71124 78.921705 
L 257.57284 78.999747 
L 258.434439 79.155649 
L 259.296038 79.311552 
L 260.157638 79.36346 
L 261.019237 79.415548 
L 261.880836 79.467455 
L 262.742435 79.623358 
L 263.604035 79.677608 
L 264.465634 79.731859 
L 265.327233 79.78611 
L 266.188832 79.948681 
L 267.050432 80.111433 
L 267.912031 80.274184 
L 268.77363 80.328435 
L 269.63523 80.382505 
L 270.496829 80.436756 
L 271.358428 80.599508 
L 272.220027 80.752887 
L 273.081627 80.906267 
L 273.943226 80.982866 
L 274.804825 81.059466 
L 275.666424 81.212846 
L 276.528024 81.289625 
L 277.389623 81.366225 
L 278.251222 81.564663 
L 279.112822 81.763282 
L 279.974421 81.96172 
L 280.83602 82.061029 
L 281.697619 82.160338 
L 282.559219 82.372294 
L 283.420818 82.584069 
L 284.282417 82.796025 
L 285.144016 82.866677 
L 286.005616 82.937329 
L 286.867215 83.0078 
L 287.728814 83.219756 
L 288.590414 83.405037 
L 289.452013 83.590318 
L 290.313612 83.77578 
L 291.175211 83.961061 
L 292.036811 84.053701 
L 292.036811 84.113178 
L 292.036811 84.113178 
L 291.175211 84.113178 
L 290.313612 84.113178 
L 289.452013 84.113178 
L 288.590414 84.113178 
L 287.728814 84.113178 
L 286.867215 84.113178 
L 286.005616 84.113178 
L 285.144016 84.113178 
L 284.282417 84.113178 
L 283.420818 84.113178 
L 282.559219 84.113178 
L 281.697619 84.113178 
L 280.83602 84.113178 
L 279.974421 84.113178 
L 279.112822 84.113178 
L 278.251222 84.113178 
L 277.389623 84.113178 
L 276.528024 84.113178 
L 275.666424 84.113178 
L 274.804825 84.113178 
L 273.943226 84.113178 
L 273.081627 84.113178 
L 272.220027 84.113178 
L 271.358428 84.113178 
L 270.496829 84.113178 
L 269.63523 84.113178 
L 268.77363 84.113178 
L 267.912031 84.113178 
L 267.050432 84.113178 
L 266.188832 84.113178 
L 265.327233 84.113178 
L 264.465634 84.113178 
L 263.604035 84.113178 
L 262.742435 84.113178 
L 261.880836 84.113178 
L 261.019237 84.113178 
L 260.157638 84.113178 
L 259.296038 84.113178 
L 258.434439 84.113178 
L 257.57284 84.113178 
L 256.71124 84.113178 
L 255.849641 84.113178 
L 254.988042 84.113178 
L 254.126443 84.113178 
L 253.264843 84.113178 
L 252.403244 84.113178 
L 251.541645 84.113178 
L 250.680046 84.113178 
L 249.818446 84.113178 
L 248.956847 84.113178 
L 248.095248 84.113178 
L 247.233649 84.113178 
L 246.372049 84.113178 
L 245.51045 84.113178 
L 244.648851 84.113178 
L 243.787251 84.113178 
L 242.925652 84.113178 
L 242.064053 84.113178 
L 241.202454 84.113178 
L 240.340854 84.113178 
L 239.479255 84.113178 
L 238.617656 84.113178 
L 237.756057 84.113178 
L 236.894457 84.113178 
L 236.032858 84.113178 
L 235.171259 84.113178 
L 234.309659 84.113178 
L 233.44806 84.113178 
L 232.586461 84.113178 
L 231.724862 84.113178 
L 230.863262 84.113178 
L 230.001663 84.113178 
L 229.140064 84.113178 
L 228.278465 84.113178 
L 227.416865 84.113178 
L 226.555266 84.113178 
L 225.693667 84.113178 
L 224.832067 84.113178 
L 223.970468 84.113178 
L 223.108869 84.113178 
L 222.24727 84.113178 
L 221.38567 84.113178 
L 220.524071 84.113178 
L 219.662472 84.113178 
L 218.800873 84.113178 
L 217.939273 84.113178 
L 217.077674 84.113178 
L 216.216075 84.113178 
L 215.354476 84.113178 
L 214.492876 84.113178 
L 213.631277 84.113178 
L 212.769678 84.113178 
L 211.908078 84.113178 
L 211.046479 84.113178 
L 210.18488 84.113178 
L 209.323281 84.113178 
L 208.461681 84.113178 
L 207.600082 84.113178 
L 206.738483 84.113178 
L 205.876884 84.113178 
L 205.015284 84.113178 
L 204.153685 84.113178 
L 203.292086 84.113178 
L 202.430486 84.113178 
L 201.568887 84.113178 
z
" clip-path="url(#pf451afaa89)" style="fill: #008000; fill-opacity: 0.3"/>
    <path d="M 379.919936 84.113178 
L 379.919936 84.017294 
L 380.781535 84.037119 
L 380.781535 84.113178 
L 380.781535 84.113178 
L 379.919936 84.113178 
z
" clip-path="url(#pf451afaa89)" style="fill: #008000; fill-opacity: 0.3"/>
    <path d="M 382.504734 84.113178 
L 382.504734 84.093533 
L 383.366333 84.071364 
L 384.227933 84.026666 
L 385.089532 83.982148 
L 385.951131 83.967369 
L 386.81273 83.952409 
L 387.67433 83.93763 
L 388.535929 83.915281 
L 389.397528 83.892932 
L 390.259127 83.870763 
L 391.120727 83.848414 
L 391.982326 84.005398 
L 391.982326 84.113178 
L 391.982326 84.113178 
L 391.120727 84.113178 
L 390.259127 84.113178 
L 389.397528 84.113178 
L 388.535929 84.113178 
L 387.67433 84.113178 
L 386.81273 84.113178 
L 385.951131 84.113178 
L 385.089532 84.113178 
L 384.227933 84.113178 
L 383.366333 84.113178 
L 382.504734 84.113178 
z
" clip-path="url(#pf451afaa89)" style="fill: #008000; fill-opacity: 0.3"/>
   </g>
   <g id="PolyCollection_4">
    <path d="M 192.091295 84.113178 
L 192.091295 84.299361 
L 192.952894 84.434536 
L 193.814494 84.524473 
L 194.676093 84.614591 
L 195.537692 84.704528 
L 196.399292 84.74472 
L 197.260891 84.784732 
L 198.12249 84.804918 
L 198.984089 84.824924 
L 199.845689 84.503026 
L 200.707288 84.181127 
L 200.707288 84.113178 
L 200.707288 84.113178 
L 199.845689 84.113178 
L 198.984089 84.113178 
L 198.12249 84.113178 
L 197.260891 84.113178 
L 196.399292 84.113178 
L 195.537692 84.113178 
L 194.676093 84.113178 
L 193.814494 84.113178 
L 192.952894 84.113178 
L 192.091295 84.113178 
z
" clip-path="url(#pf451afaa89)" style="fill: #ff0000; fill-opacity: 0.3"/>
    <path d="M 292.89841 84.113178 
L 292.89841 84.146342 
L 293.760009 84.162743 
L 294.621608 84.179144 
L 295.483208 84.211947 
L 296.344807 84.228348 
L 297.206406 84.24475 
L 298.068005 84.277552 
L 298.929605 84.250337 
L 299.791204 84.241145 
L 300.652803 84.232133 
L 301.514403 84.223121 
L 302.376002 84.195726 
L 302.376002 84.113178 
L 302.376002 84.113178 
L 301.514403 84.113178 
L 300.652803 84.113178 
L 299.791204 84.113178 
L 298.929605 84.113178 
L 298.068005 84.113178 
L 297.206406 84.113178 
L 296.344807 84.113178 
L 295.483208 84.113178 
L 294.621608 84.113178 
L 293.760009 84.113178 
L 292.89841 84.113178 
z
" clip-path="url(#pf451afaa89)" style="fill: #ff0000; fill-opacity: 0.3"/>
    <path d="M 381.643135 84.113178 
L 381.643135 84.115882 
L 381.643135 84.113178 
L 381.643135 84.113178 
z
" clip-path="url(#pf451afaa89)" style="fill: #ff0000; fill-opacity: 0.3"/>
    <path d="M 392.843925 84.113178 
L 392.843925 84.162382 
L 393.705524 84.240784 
L 394.567124 84.319186 
L 395.428723 84.476171 
L 396.290322 84.633155 
L 397.151922 84.790139 
L 398.013521 84.946943 
L 398.87512 85.025525 
L 399.736719 85.103927 
L 400.598319 85.260911 
L 401.459918 85.380948 
L 402.321517 85.500984 
L 403.183116 85.62084 
L 404.044716 85.740876 
L 404.906315 85.860912 
L 405.767914 85.900924 
L 406.629514 85.940936 
L 407.491113 85.980948 
L 408.352712 86.040966 
L 409.214311 86.100984 
L 410.075911 86.22102 
L 410.93751 86.340876 
L 411.799109 86.460912 
L 412.660708 86.520931 
L 413.522308 86.580949 
L 414.383907 86.572297 
L 415.245506 86.563466 
L 416.107106 86.554815 
L 416.968705 86.550489 
L 417.830304 86.546163 
L 418.691903 86.537512 
L 419.553503 86.533006 
L 420.415102 86.528681 
L 421.276701 86.520029 
L 422.1383 86.511378 
L 422.9999 86.506872 
L 423.861499 86.502547 
L 424.723098 86.493895 
L 425.584697 86.455866 
L 426.446297 86.418017 
L 427.307896 86.398912 
L 428.169495 86.379987 
L 429.031095 86.367371 
L 429.892694 86.354754 
L 430.754293 86.341958 
L 431.615892 86.323033 
L 432.477492 86.304108 
L 433.339091 86.266079 
L 433.339091 84.113178 
L 433.339091 84.113178 
L 432.477492 84.113178 
L 431.615892 84.113178 
L 430.754293 84.113178 
L 429.892694 84.113178 
L 429.031095 84.113178 
L 428.169495 84.113178 
L 427.307896 84.113178 
L 426.446297 84.113178 
L 425.584697 84.113178 
L 424.723098 84.113178 
L 423.861499 84.113178 
L 422.9999 84.113178 
L 422.1383 84.113178 
L 421.276701 84.113178 
L 420.415102 84.113178 
L 419.553503 84.113178 
L 418.691903 84.113178 
L 417.830304 84.113178 
L 416.968705 84.113178 
L 416.107106 84.113178 
L 415.245506 84.113178 
L 414.383907 84.113178 
L 413.522308 84.113178 
L 412.660708 84.113178 
L 411.799109 84.113178 
L 410.93751 84.113178 
L 410.075911 84.113178 
L 409.214311 84.113178 
L 408.352712 84.113178 
L 407.491113 84.113178 
L 406.629514 84.113178 
L 405.767914 84.113178 
L 404.906315 84.113178 
L 404.044716 84.113178 
L 403.183116 84.113178 
L 402.321517 84.113178 
L 401.459918 84.113178 
L 400.598319 84.113178 
L 399.736719 84.113178 
L 398.87512 84.113178 
L 398.013521 84.113178 
L 397.151922 84.113178 
L 396.290322 84.113178 
L 395.428723 84.113178 
L 394.567124 84.113178 
L 393.705524 84.113178 
L 392.843925 84.113178 
z
" clip-path="url(#pf451afaa89)" style="fill: #ff0000; fill-opacity: 0.3"/>
   </g>
   <g id="matplotlib.axis_2">
    <g id="ytick_3">
     <g id="line2d_7">
      <path d="M 162.84 84.113178 
L 446.22 84.113178 
" clip-path="url(#pf451afaa89)" style="fill: none; stroke: #b0b0b0; stroke-width: 0.8; stroke-linecap: square"/>
     </g>
     <g id="line2d_8">
      <g>
       <use xlink:href="#m72864fbb3e" x="162.84" y="84.113178" style="stroke: #000000; stroke-width: 0.8"/>
      </g>
     </g>
     <g id="text_5">
      <!-- 0 -->
      <g transform="translate(147.250625 89.242124) scale(0.135 -0.135)">
       <use xlink:href="#DejaVuSans-30"/>
      </g>
     </g>
    </g>
    <g id="ytick_4">
     <g id="line2d_9">
      <path d="M 162.84 66.089733 
L 446.22 66.089733 
" clip-path="url(#pf451afaa89)" style="fill: none; stroke: #b0b0b0; stroke-width: 0.8; stroke-linecap: square"/>
     </g>
     <g id="line2d_10">
      <g>
       <use xlink:href="#m72864fbb3e" x="162.84" y="66.089733" style="stroke: #000000; stroke-width: 0.8"/>
      </g>
     </g>
     <g id="text_6">
      <!-- 1000 -->
      <g transform="translate(121.4825 71.218678) scale(0.135 -0.135)">
       <use xlink:href="#DejaVuSans-31"/>
       <use xlink:href="#DejaVuSans-30" x="63.623047"/>
       <use xlink:href="#DejaVuSans-30" x="127.246094"/>
       <use xlink:href="#DejaVuSans-30" x="190.869141"/>
      </g>
     </g>
    </g>
    <g id="text_7">
     <!-- PEU_1-2 [kW] -->
     <g transform="translate(25.812422 73.042171) scale(0.135 -0.135)">
      <defs>
       <path id="DejaVuSans-45" d="M 628 4666 
L 3578 4666 
L 3578 4134 
L 1259 4134 
L 1259 2753 
L 3481 2753 
L 3481 2222 
L 1259 2222 
L 1259 531 
L 3634 531 
L 3634 0 
L 628 0 
L 628 4666 
z
" transform="scale(0.015625)"/>
       <path id="DejaVuSans-55" d="M 556 4666 
L 1191 4666 
L 1191 1831 
Q 1191 1081 1462 751 
Q 1734 422 2344 422 
Q 2950 422 3222 751 
Q 3494 1081 3494 1831 
L 3494 4666 
L 4128 4666 
L 4128 1753 
Q 4128 841 3676 375 
Q 3225 -91 2344 -91 
Q 1459 -91 1007 375 
Q 556 841 556 1753 
L 556 4666 
z
" transform="scale(0.015625)"/>
       <path id="DejaVuSans-5f" d="M 3263 -1063 
L 3263 -1509 
L -63 -1509 
L -63 -1063 
L 3263 -1063 
z
" transform="scale(0.015625)"/>
       <path id="DejaVuSans-2d" d="M 313 2009 
L 1997 2009 
L 1997 1497 
L 313 1497 
L 313 2009 
z
" transform="scale(0.015625)"/>
       <path id="DejaVuSans-32" d="M 1228 531 
L 3431 531 
L 3431 0 
L 469 0 
L 469 531 
Q 828 903 1448 1529 
Q 2069 2156 2228 2338 
Q 2531 2678 2651 2914 
Q 2772 3150 2772 3378 
Q 2772 3750 2511 3984 
Q 2250 4219 1831 4219 
Q 1534 4219 1204 4116 
Q 875 4013 500 3803 
L 500 4441 
Q 881 4594 1212 4672 
Q 1544 4750 1819 4750 
Q 2544 4750 2975 4387 
Q 3406 4025 3406 3419 
Q 3406 3131 3298 2873 
Q 3191 2616 2906 2266 
Q 2828 2175 2409 1742 
Q 1991 1309 1228 531 
z
" transform="scale(0.015625)"/>
      </defs>
      <use xlink:href="#DejaVuSans-50"/>
      <use xlink:href="#DejaVuSans-45" x="60.302734"/>
      <use xlink:href="#DejaVuSans-55" x="123.486328"/>
      <use xlink:href="#DejaVuSans-5f" x="196.679688"/>
      <use xlink:href="#DejaVuSans-31" x="246.679688"/>
      <use xlink:href="#DejaVuSans-2d" x="310.302734"/>
      <use xlink:href="#DejaVuSans-32" x="346.386719"/>
      <use xlink:href="#DejaVuSans-20" x="410.009766"/>
      <use xlink:href="#DejaVuSans-5b" x="441.796875"/>
      <use xlink:href="#DejaVuSans-6b" x="480.810547"/>
      <use xlink:href="#DejaVuSans-57" x="538.720703"/>
      <use xlink:href="#DejaVuSans-5d" x="637.597656"/>
     </g>
    </g>
   </g>
   <g id="line2d_11">
    <path d="M 175.720909 84.113178 
L 191.229696 84.113178 
L 192.952894 84.434536 
L 197.260891 84.784732 
L 198.984089 84.824924 
L 201.568887 83.956915 
L 203.292086 83.508492 
L 204.153685 82.835857 
L 205.876884 81.181305 
L 207.600082 80.075386 
L 210.18488 76.90362 
L 212.769678 74.162074 
L 217.077674 70.063902 
L 218.800873 67.593249 
L 220.524071 67.162308 
L 223.108869 65.869486 
L 225.693667 66.730466 
L 227.416865 68.452426 
L 229.140064 69.313406 
L 232.586461 72.395956 
L 235.171259 73.829361 
L 236.032858 75.262765 
L 239.479255 76.005331 
L 241.202454 76.323445 
L 244.648851 77.066011 
L 248.095248 77.596441 
L 252.403244 78.298094 
L 254.126443 78.531858 
L 256.71124 78.921705 
L 258.434439 79.155649 
L 260.157638 79.36346 
L 265.327233 79.78611 
L 268.77363 80.328435 
L 271.358428 80.599508 
L 273.943226 80.982866 
L 277.389623 81.366225 
L 280.83602 82.061029 
L 281.697619 82.160338 
L 284.282417 82.796025 
L 286.867215 83.0078 
L 291.175211 83.961061 
L 293.760009 84.162743 
L 301.514403 84.223121 
L 308.407197 84.113178 
L 384.227933 84.026666 
L 388.535929 83.915281 
L 391.120727 83.848414 
L 393.705524 84.240784 
L 395.428723 84.476171 
L 398.87512 85.025525 
L 400.598319 85.260911 
L 405.767914 85.900924 
L 409.214311 86.100984 
L 412.660708 86.520931 
L 414.383907 86.572297 
L 432.477492 86.304108 
L 433.339091 86.266079 
L 433.339091 86.266079 
" clip-path="url(#pf451afaa89)" style="fill: none; stroke: #1f77b4; stroke-width: 1.5; stroke-linecap: square"/>
   </g>
   <g id="line2d_12">
    <path d="M 162.84 84.113178 
L 446.22 84.113178 
" clip-path="url(#pf451afaa89)" style="fill: none; stroke: #000000; stroke-width: 1.5; stroke-linecap: square"/>
   </g>
   <g id="patch_8">
    <path d="M 162.84 87.616522 
L 162.84 64.833913 
" style="fill: none; stroke: #000000; stroke-width: 0.8; stroke-linejoin: miter; stroke-linecap: square"/>
   </g>
   <g id="patch_9">
    <path d="M 446.22 87.616522 
L 446.22 64.833913 
" style="fill: none; stroke: #000000; stroke-width: 0.8; stroke-linejoin: miter; stroke-linecap: square"/>
   </g>
   <g id="patch_10">
    <path d="M 162.84 87.616522 
L 446.22 87.616522 
" style="fill: none; stroke: #000000; stroke-width: 0.8; stroke-linejoin: miter; stroke-linecap: square"/>
   </g>
   <g id="patch_11">
    <path d="M 162.84 64.833913 
L 446.22 64.833913 
" style="fill: none; stroke: #000000; stroke-width: 0.8; stroke-linejoin: miter; stroke-linecap: square"/>
   </g>
  </g>
  <g id="axes_3">
   <g id="patch_12">
    <path d="M 162.84 121.790435 
L 446.22 121.790435 
L 446.22 99.007826 
L 162.84 99.007826 
z
" style="fill: #ffffff"/>
   </g>
   <g id="PolyCollection_5">
    <path d="M 192.091295 101.028706 
L 192.091295 100.856986 
L 192.952894 100.841123 
L 193.814494 100.833389 
L 194.676093 100.825458 
L 195.537692 100.817724 
L 196.399292 100.794326 
L 197.260891 100.770729 
L 198.12249 100.75903 
L 198.984089 100.747331 
L 199.845689 100.723933 
L 200.707288 100.959106 
L 200.707288 101.028706 
L 200.707288 101.028706 
L 199.845689 101.028706 
L 198.984089 101.028706 
L 198.12249 101.028706 
L 197.260891 101.028706 
L 196.399292 101.028706 
L 195.537692 101.028706 
L 194.676093 101.028706 
L 193.814494 101.028706 
L 192.952894 101.028706 
L 192.091295 101.028706 
z
" clip-path="url(#pbd9e6aa5a9)" style="fill: #008000; fill-opacity: 0.3"/>
    <path d="M 294.621608 101.028706 
L 294.621608 100.904179 
L 295.483208 100.47369 
L 296.344807 100.258545 
L 297.206406 100.043399 
L 298.068005 100.287693 
L 298.929605 100.531987 
L 299.791204 100.613485 
L 300.652803 100.694784 
L 301.514403 100.776282 
L 302.376002 100.859167 
L 302.376002 101.028706 
L 302.376002 101.028706 
L 301.514403 101.028706 
L 300.652803 101.028706 
L 299.791204 101.028706 
L 298.929605 101.028706 
L 298.068005 101.028706 
L 297.206406 101.028706 
L 296.344807 101.028706 
L 295.483208 101.028706 
L 294.621608 101.028706 
z
" clip-path="url(#pbd9e6aa5a9)" style="fill: #008000; fill-opacity: 0.3"/>
    <path d="M 379.919936 101.028706 
L 379.919936 100.833786 
L 380.781535 100.807215 
L 381.643135 100.700535 
L 382.504734 100.647194 
L 383.366333 100.593854 
L 384.227933 100.447516 
L 385.089532 100.301375 
L 385.951131 100.252596 
L 386.81273 100.203816 
L 387.67433 100.155037 
L 388.535929 100.345396 
L 389.397528 100.535755 
L 390.259127 100.726114 
L 391.120727 100.916473 
L 391.120727 101.028706 
L 391.120727 101.028706 
L 390.259127 101.028706 
L 389.397528 101.028706 
L 388.535929 101.028706 
L 387.67433 101.028706 
L 386.81273 101.028706 
L 385.951131 101.028706 
L 385.089532 101.028706 
L 384.227933 101.028706 
L 383.366333 101.028706 
L 382.504734 101.028706 
L 381.643135 101.028706 
L 380.781535 101.028706 
L 379.919936 101.028706 
z
" clip-path="url(#pbd9e6aa5a9)" style="fill: #008000; fill-opacity: 0.3"/>
   </g>
   <g id="PolyCollection_6">
    <path d="M 201.568887 101.028706 
L 201.568887 101.03743 
L 202.430486 101.115755 
L 203.292086 101.194278 
L 204.153685 101.429253 
L 205.015284 101.664426 
L 205.876884 102.101657 
L 206.738483 102.320371 
L 207.600082 102.538888 
L 208.461681 102.976317 
L 209.323281 103.413548 
L 210.18488 103.850779 
L 211.046479 104.312994 
L 211.908078 104.77521 
L 212.769678 104.929282 
L 213.631277 105.083354 
L 214.492876 105.237426 
L 215.354476 105.699641 
L 216.216075 106.297884 
L 217.077674 106.896127 
L 217.939273 107.49437 
L 218.800873 107.60343 
L 219.662472 107.65796 
L 220.524071 107.712688 
L 221.38567 107.821748 
L 222.24727 107.930808 
L 223.108869 107.274466 
L 223.970468 107.055553 
L 224.832067 106.836838 
L 225.693667 106.617925 
L 226.555266 106.289754 
L 227.416865 105.961583 
L 228.278465 105.797398 
L 229.140064 105.633214 
L 230.001663 105.305043 
L 230.863262 104.915996 
L 231.724862 104.527148 
L 232.586461 104.138102 
L 233.44806 104.154163 
L 234.309659 104.170225 
L 235.171259 104.186287 
L 236.032858 104.234669 
L 236.894457 104.282854 
L 237.756057 104.671504 
L 238.617656 105.060154 
L 239.479255 105.254479 
L 240.340854 105.448803 
L 241.202454 106.079566 
L 242.064053 106.71013 
L 242.925652 108.364271 
L 243.787251 109.170125 
L 244.648851 109.572853 
L 245.51045 109.97578 
L 246.372049 110.556375 
L 247.233649 110.846673 
L 248.095248 111.136772 
L 248.956847 111.717367 
L 249.818446 113.404622 
L 250.680046 114.310414 
L 251.541645 115.216206 
L 252.403244 116.087297 
L 253.264843 116.95819 
L 254.126443 117.495161 
L 254.988042 118.032132 
L 255.849641 118.569103 
L 256.71124 119.04282 
L 257.57284 119.516536 
L 258.434439 120.463969 
L 259.296038 120.560933 
L 260.157638 120.593255 
L 261.019237 120.625576 
L 261.880836 120.657898 
L 262.742435 120.754862 
L 263.604035 120.511757 
L 264.465634 120.268653 
L 265.327233 120.025549 
L 266.188832 119.296037 
L 267.050432 117.936556 
L 267.912031 117.037308 
L 268.77363 116.737492 
L 269.63523 116.437677 
L 270.496829 116.137861 
L 271.358428 115.238613 
L 272.220027 113.690756 
L 273.081627 112.1427 
L 273.943226 111.745128 
L 274.804825 111.347555 
L 275.666424 110.552211 
L 276.528024 110.259732 
L 277.389623 109.967253 
L 278.251222 109.382296 
L 279.112822 108.797338 
L 279.974421 108.212381 
L 280.83602 107.894719 
L 281.697619 107.577057 
L 282.559219 106.941536 
L 283.420818 106.306212 
L 284.282417 105.36334 
L 285.144016 105.048851 
L 286.005616 104.73456 
L 286.867215 104.42027 
L 287.728814 103.788119 
L 288.590414 103.156166 
L 289.452013 102.524016 
L 290.313612 102.119106 
L 291.175211 101.714197 
L 292.036811 101.511543 
L 292.89841 101.309089 
L 293.760009 101.106634 
L 293.760009 101.028706 
L 293.760009 101.028706 
L 292.89841 101.028706 
L 292.036811 101.028706 
L 291.175211 101.028706 
L 290.313612 101.028706 
L 289.452013 101.028706 
L 288.590414 101.028706 
L 287.728814 101.028706 
L 286.867215 101.028706 
L 286.005616 101.028706 
L 285.144016 101.028706 
L 284.282417 101.028706 
L 283.420818 101.028706 
L 282.559219 101.028706 
L 281.697619 101.028706 
L 280.83602 101.028706 
L 279.974421 101.028706 
L 279.112822 101.028706 
L 278.251222 101.028706 
L 277.389623 101.028706 
L 276.528024 101.028706 
L 275.666424 101.028706 
L 274.804825 101.028706 
L 273.943226 101.028706 
L 273.081627 101.028706 
L 272.220027 101.028706 
L 271.358428 101.028706 
L 270.496829 101.028706 
L 269.63523 101.028706 
L 268.77363 101.028706 
L 267.912031 101.028706 
L 267.050432 101.028706 
L 266.188832 101.028706 
L 265.327233 101.028706 
L 264.465634 101.028706 
L 263.604035 101.028706 
L 262.742435 101.028706 
L 261.880836 101.028706 
L 261.019237 101.028706 
L 260.157638 101.028706 
L 259.296038 101.028706 
L 258.434439 101.028706 
L 257.57284 101.028706 
L 256.71124 101.028706 
L 255.849641 101.028706 
L 254.988042 101.028706 
L 254.126443 101.028706 
L 253.264843 101.028706 
L 252.403244 101.028706 
L 251.541645 101.028706 
L 250.680046 101.028706 
L 249.818446 101.028706 
L 248.956847 101.028706 
L 248.095248 101.028706 
L 247.233649 101.028706 
L 246.372049 101.028706 
L 245.51045 101.028706 
L 244.648851 101.028706 
L 243.787251 101.028706 
L 242.925652 101.028706 
L 242.064053 101.028706 
L 241.202454 101.028706 
L 240.340854 101.028706 
L 239.479255 101.028706 
L 238.617656 101.028706 
L 237.756057 101.028706 
L 236.894457 101.028706 
L 236.032858 101.028706 
L 235.171259 101.028706 
L 234.309659 101.028706 
L 233.44806 101.028706 
L 232.586461 101.028706 
L 231.724862 101.028706 
L 230.863262 101.028706 
L 230.001663 101.028706 
L 229.140064 101.028706 
L 228.278465 101.028706 
L 227.416865 101.028706 
L 226.555266 101.028706 
L 225.693667 101.028706 
L 224.832067 101.028706 
L 223.970468 101.028706 
L 223.108869 101.028706 
L 222.24727 101.028706 
L 221.38567 101.028706 
L 220.524071 101.028706 
L 219.662472 101.028706 
L 218.800873 101.028706 
L 217.939273 101.028706 
L 217.077674 101.028706 
L 216.216075 101.028706 
L 215.354476 101.028706 
L 214.492876 101.028706 
L 213.631277 101.028706 
L 212.769678 101.028706 
L 211.908078 101.028706 
L 211.046479 101.028706 
L 210.18488 101.028706 
L 209.323281 101.028706 
L 208.461681 101.028706 
L 207.600082 101.028706 
L 206.738483 101.028706 
L 205.876884 101.028706 
L 205.015284 101.028706 
L 204.153685 101.028706 
L 203.292086 101.028706 
L 202.430486 101.028706 
L 201.568887 101.028706 
z
" clip-path="url(#pbd9e6aa5a9)" style="fill: #ff0000; fill-opacity: 0.3"/>
    <path d="M 391.982326 101.028706 
L 391.982326 101.297191 
L 392.843925 102.402067 
L 393.705524 102.954307 
L 394.567124 103.506744 
L 395.428723 104.041138 
L 396.290322 104.575729 
L 397.151922 105.110123 
L 398.013521 105.91201 
L 398.87512 106.312756 
L 399.736719 106.7137 
L 400.598319 107.515587 
L 401.459918 108.317276 
L 402.321517 109.278788 
L 403.183116 110.240101 
L 404.044716 110.765373 
L 404.906315 111.290447 
L 405.767914 111.465538 
L 406.629514 111.640628 
L 407.491113 111.815719 
L 408.352712 112.177798 
L 409.214311 112.540075 
L 410.075911 113.264233 
L 410.93751 113.521416 
L 411.799109 113.778599 
L 412.660708 113.907289 
L 413.522308 114.035782 
L 414.383907 114.292965 
L 415.245506 114.001081 
L 416.107106 113.709395 
L 416.968705 113.563453 
L 417.830304 113.417511 
L 418.691903 113.092711 
L 419.553503 112.930311 
L 420.415102 112.767911 
L 421.276701 112.422092 
L 422.1383 112.076471 
L 422.9999 111.903562 
L 423.861499 111.730652 
L 424.723098 111.384833 
L 425.584697 111.039213 
L 426.446297 110.693394 
L 427.307896 110.353325 
L 428.169495 110.013257 
L 429.031095 109.786412 
L 429.892694 109.559766 
L 430.754293 109.332921 
L 431.615892 109.332921 
L 432.477492 109.332921 
L 433.339091 109.332921 
L 433.339091 101.028706 
L 433.339091 101.028706 
L 432.477492 101.028706 
L 431.615892 101.028706 
L 430.754293 101.028706 
L 429.892694 101.028706 
L 429.031095 101.028706 
L 428.169495 101.028706 
L 427.307896 101.028706 
L 426.446297 101.028706 
L 425.584697 101.028706 
L 424.723098 101.028706 
L 423.861499 101.028706 
L 422.9999 101.028706 
L 422.1383 101.028706 
L 421.276701 101.028706 
L 420.415102 101.028706 
L 419.553503 101.028706 
L 418.691903 101.028706 
L 417.830304 101.028706 
L 416.968705 101.028706 
L 416.107106 101.028706 
L 415.245506 101.028706 
L 414.383907 101.028706 
L 413.522308 101.028706 
L 412.660708 101.028706 
L 411.799109 101.028706 
L 410.93751 101.028706 
L 410.075911 101.028706 
L 409.214311 101.028706 
L 408.352712 101.028706 
L 407.491113 101.028706 
L 406.629514 101.028706 
L 405.767914 101.028706 
L 404.906315 101.028706 
L 404.044716 101.028706 
L 403.183116 101.028706 
L 402.321517 101.028706 
L 401.459918 101.028706 
L 400.598319 101.028706 
L 399.736719 101.028706 
L 398.87512 101.028706 
L 398.013521 101.028706 
L 397.151922 101.028706 
L 396.290322 101.028706 
L 395.428723 101.028706 
L 394.567124 101.028706 
L 393.705524 101.028706 
L 392.843925 101.028706 
L 391.982326 101.028706 
z
" clip-path="url(#pbd9e6aa5a9)" style="fill: #ff0000; fill-opacity: 0.3"/>
   </g>
   <g id="matplotlib.axis_3">
    <g id="ytick_5">
     <g id="line2d_13">
      <path d="M 162.84 120.857775 
L 446.22 120.857775 
" clip-path="url(#pbd9e6aa5a9)" style="fill: none; stroke: #b0b0b0; stroke-width: 0.8; stroke-linecap: square"/>
     </g>
     <g id="line2d_14">
      <g>
       <use xlink:href="#m72864fbb3e" x="162.84" y="120.857775" style="stroke: #000000; stroke-width: 0.8"/>
      </g>
     </g>
     <g id="text_8">
      <!-- −1000 -->
      <g transform="translate(110.169922 125.98672) scale(0.135 -0.135)">
       <defs>
        <path id="DejaVuSans-2212" d="M 678 2272 
L 4684 2272 
L 4684 1741 
L 678 1741 
L 678 2272 
z
" transform="scale(0.015625)"/>
       </defs>
       <use xlink:href="#DejaVuSans-2212"/>
       <use xlink:href="#DejaVuSans-31" x="83.789062"/>
       <use xlink:href="#DejaVuSans-30" x="147.412109"/>
       <use xlink:href="#DejaVuSans-30" x="211.035156"/>
       <use xlink:href="#DejaVuSans-30" x="274.658203"/>
      </g>
     </g>
    </g>
    <g id="ytick_6">
     <g id="line2d_15">
      <path d="M 162.84 101.028706 
L 446.22 101.028706 
" clip-path="url(#pbd9e6aa5a9)" style="fill: none; stroke: #b0b0b0; stroke-width: 0.8; stroke-linecap: square"/>
     </g>
     <g id="line2d_16">
      <g>
       <use xlink:href="#m72864fbb3e" x="162.84" y="101.028706" style="stroke: #000000; stroke-width: 0.8"/>
      </g>
     </g>
     <g id="text_9">
      <!-- 0 -->
      <g transform="translate(147.250625 106.157651) scale(0.135 -0.135)">
       <use xlink:href="#DejaVuSans-30"/>
      </g>
     </g>
    </g>
    <g id="text_10">
     <!-- PEU_1-4 [kW] -->
     <g transform="translate(14.499844 107.216084) scale(0.135 -0.135)">
      <defs>
       <path id="DejaVuSans-34" d="M 2419 4116 
L 825 1625 
L 2419 1625 
L 2419 4116 
z
M 2253 4666 
L 3047 4666 
L 3047 1625 
L 3713 1625 
L 3713 1100 
L 3047 1100 
L 3047 0 
L 2419 0 
L 2419 1100 
L 313 1100 
L 313 1709 
L 2253 4666 
z
" transform="scale(0.015625)"/>
      </defs>
      <use xlink:href="#DejaVuSans-50"/>
      <use xlink:href="#DejaVuSans-45" x="60.302734"/>
      <use xlink:href="#DejaVuSans-55" x="123.486328"/>
      <use xlink:href="#DejaVuSans-5f" x="196.679688"/>
      <use xlink:href="#DejaVuSans-31" x="246.679688"/>
      <use xlink:href="#DejaVuSans-2d" x="310.302734"/>
      <use xlink:href="#DejaVuSans-34" x="346.386719"/>
      <use xlink:href="#DejaVuSans-20" x="410.009766"/>
      <use xlink:href="#DejaVuSans-5b" x="441.796875"/>
      <use xlink:href="#DejaVuSans-6b" x="480.810547"/>
      <use xlink:href="#DejaVuSans-57" x="538.720703"/>
      <use xlink:href="#DejaVuSans-5d" x="637.597656"/>
     </g>
    </g>
   </g>
   <g id="line2d_17">
    <path d="M 175.720909 101.028706 
L 191.229696 101.028706 
L 192.091295 100.856986 
L 199.845689 100.723933 
L 200.707288 100.959106 
L 203.292086 101.194278 
L 205.015284 101.664426 
L 205.876884 102.101657 
L 207.600082 102.538888 
L 211.908078 104.77521 
L 214.492876 105.237426 
L 215.354476 105.699641 
L 217.939273 107.49437 
L 222.24727 107.930808 
L 223.108869 107.274466 
L 226.555266 106.289754 
L 227.416865 105.961583 
L 229.140064 105.633214 
L 230.863262 104.915996 
L 232.586461 104.138102 
L 236.894457 104.282854 
L 238.617656 105.060154 
L 240.340854 105.448803 
L 242.064053 106.71013 
L 242.925652 108.364271 
L 243.787251 109.170125 
L 245.51045 109.97578 
L 246.372049 110.556375 
L 248.095248 111.136772 
L 248.956847 111.717367 
L 249.818446 113.404622 
L 253.264843 116.95819 
L 257.57284 119.516536 
L 258.434439 120.463969 
L 260.157638 120.593255 
L 262.742435 120.754862 
L 265.327233 120.025549 
L 266.188832 119.296037 
L 267.050432 117.936556 
L 267.912031 117.037308 
L 270.496829 116.137861 
L 271.358428 115.238613 
L 273.081627 112.1427 
L 274.804825 111.347555 
L 275.666424 110.552211 
L 277.389623 109.967253 
L 279.974421 108.212381 
L 281.697619 107.577057 
L 283.420818 106.306212 
L 284.282417 105.36334 
L 286.867215 104.42027 
L 289.452013 102.524016 
L 291.175211 101.714197 
L 294.621608 100.904179 
L 295.483208 100.47369 
L 297.206406 100.043399 
L 298.929605 100.531987 
L 304.9608 101.028706 
L 379.058337 101.028706 
L 379.919936 100.833786 
L 382.504734 100.647194 
L 384.227933 100.447516 
L 385.951131 100.252596 
L 387.67433 100.155037 
L 391.120727 100.916473 
L 391.982326 101.297191 
L 392.843925 102.402067 
L 397.151922 105.110123 
L 398.013521 105.91201 
L 399.736719 106.7137 
L 401.459918 108.317276 
L 403.183116 110.240101 
L 404.906315 111.290447 
L 407.491113 111.815719 
L 409.214311 112.540075 
L 410.075911 113.264233 
L 411.799109 113.778599 
L 413.522308 114.035782 
L 414.383907 114.292965 
L 416.107106 113.709395 
L 417.830304 113.417511 
L 418.691903 113.092711 
L 420.415102 112.767911 
L 422.1383 112.076471 
L 423.861499 111.730652 
L 428.169495 110.013257 
L 430.754293 109.332921 
L 433.339091 109.332921 
L 433.339091 109.332921 
" clip-path="url(#pbd9e6aa5a9)" style="fill: none; stroke: #1f77b4; stroke-width: 1.5; stroke-linecap: square"/>
   </g>
   <g id="line2d_18">
    <path d="M 162.84 101.028706 
L 446.22 101.028706 
" clip-path="url(#pbd9e6aa5a9)" style="fill: none; stroke: #000000; stroke-width: 1.5; stroke-linecap: square"/>
   </g>
   <g id="patch_13">
    <path d="M 162.84 121.790435 
L 162.84 99.007826 
" style="fill: none; stroke: #000000; stroke-width: 0.8; stroke-linejoin: miter; stroke-linecap: square"/>
   </g>
   <g id="patch_14">
    <path d="M 446.22 121.790435 
L 446.22 99.007826 
" style="fill: none; stroke: #000000; stroke-width: 0.8; stroke-linejoin: miter; stroke-linecap: square"/>
   </g>
   <g id="patch_15">
    <path d="M 162.84 121.790435 
L 446.22 121.790435 
" style="fill: none; stroke: #000000; stroke-width: 0.8; stroke-linejoin: miter; stroke-linecap: square"/>
   </g>
   <g id="patch_16">
    <path d="M 162.84 99.007826 
L 446.22 99.007826 
" style="fill: none; stroke: #000000; stroke-width: 0.8; stroke-linejoin: miter; stroke-linecap: square"/>
   </g>
  </g>
  <g id="axes_4">
   <g id="patch_17">
    <path d="M 162.84 155.964348 
L 446.22 155.964348 
L 446.22 133.181739 
L 162.84 133.181739 
z
" style="fill: #ffffff"/>
   </g>
   <g id="PolyCollection_7">
    <path d="M 192.091295 145.153266 
L 192.091295 144.621819 
L 192.952894 144.489556 
L 193.814494 144.401281 
L 194.676093 144.313006 
L 195.537692 144.22473 
L 196.399292 143.959905 
L 197.260891 143.695079 
L 198.12249 143.88719 
L 198.984089 144.0796 
L 199.845689 144.464121 
L 200.707288 144.848642 
L 201.568887 144.976716 
L 202.430486 145.105089 
L 202.430486 145.153266 
L 202.430486 145.153266 
L 201.568887 145.153266 
L 200.707288 145.153266 
L 199.845689 145.153266 
L 198.984089 145.153266 
L 198.12249 145.153266 
L 197.260891 145.153266 
L 196.399292 145.153266 
L 195.537692 145.153266 
L 194.676093 145.153266 
L 193.814494 145.153266 
L 192.952894 145.153266 
L 192.091295 145.153266 
z
" clip-path="url(#p1df5e0d92b)" style="fill: #008000; fill-opacity: 0.3"/>
    <path d="M 243.787251 145.153266 
L 243.787251 144.760366 
L 244.648851 144.450954 
L 245.51045 144.141841 
L 246.372049 143.523316 
L 247.233649 143.213904 
L 248.095248 142.904791 
L 248.956847 142.286266 
L 249.818446 141.667741 
L 250.680046 141.049216 
L 251.541645 140.430691 
L 252.403244 139.867824 
L 253.264843 139.304958 
L 254.126443 138.179224 
L 254.988042 137.486488 
L 255.849641 136.793752 
L 256.71124 136.447234 
L 257.57284 136.101016 
L 258.434439 135.159014 
L 259.296038 134.217312 
L 260.157638 134.263694 
L 261.019237 134.310375 
L 261.880836 134.356757 
L 262.742435 134.496202 
L 263.604035 134.542584 
L 264.465634 134.589265 
L 265.327233 134.635647 
L 266.188832 135.135375 
L 267.050432 135.634803 
L 267.912031 136.13453 
L 268.77363 136.301206 
L 269.63523 136.467582 
L 270.496829 136.634258 
L 271.358428 137.371281 
L 272.220027 138.108604 
L 273.081627 138.845627 
L 273.943226 139.118832 
L 274.804825 139.392335 
L 275.666424 139.939043 
L 276.528024 140.212247 
L 277.389623 140.485751 
L 278.251222 141.032459 
L 279.112822 141.386457 
L 279.974421 141.740456 
L 280.83602 141.917605 
L 281.697619 142.094754 
L 282.559219 142.448753 
L 283.420818 142.761756 
L 284.282417 143.075058 
L 285.144016 143.179492 
L 286.005616 143.283926 
L 286.867215 143.388061 
L 287.728814 143.701363 
L 288.590414 144.014366 
L 289.452013 144.327668 
L 290.313612 144.640671 
L 291.175211 144.953974 
L 292.036811 144.999158 
L 292.89841 145.044343 
L 293.760009 145.089528 
L 294.621608 145.135013 
L 294.621608 145.153266 
L 294.621608 145.153266 
L 293.760009 145.153266 
L 292.89841 145.153266 
L 292.036811 145.153266 
L 291.175211 145.153266 
L 290.313612 145.153266 
L 289.452013 145.153266 
L 288.590414 145.153266 
L 287.728814 145.153266 
L 286.867215 145.153266 
L 286.005616 145.153266 
L 285.144016 145.153266 
L 284.282417 145.153266 
L 283.420818 145.153266 
L 282.559219 145.153266 
L 281.697619 145.153266 
L 280.83602 145.153266 
L 279.974421 145.153266 
L 279.112822 145.153266 
L 278.251222 145.153266 
L 277.389623 145.153266 
L 276.528024 145.153266 
L 275.666424 145.153266 
L 274.804825 145.153266 
L 273.943226 145.153266 
L 273.081627 145.153266 
L 272.220027 145.153266 
L 271.358428 145.153266 
L 270.496829 145.153266 
L 269.63523 145.153266 
L 268.77363 145.153266 
L 267.912031 145.153266 
L 267.050432 145.153266 
L 266.188832 145.153266 
L 265.327233 145.153266 
L 264.465634 145.153266 
L 263.604035 145.153266 
L 262.742435 145.153266 
L 261.880836 145.153266 
L 261.019237 145.153266 
L 260.157638 145.153266 
L 259.296038 145.153266 
L 258.434439 145.153266 
L 257.57284 145.153266 
L 256.71124 145.153266 
L 255.849641 145.153266 
L 254.988042 145.153266 
L 254.126443 145.153266 
L 253.264843 145.153266 
L 252.403244 145.153266 
L 251.541645 145.153266 
L 250.680046 145.153266 
L 249.818446 145.153266 
L 248.956847 145.153266 
L 248.095248 145.153266 
L 247.233649 145.153266 
L 246.372049 145.153266 
L 245.51045 145.153266 
L 244.648851 145.153266 
L 243.787251 145.153266 
z
" clip-path="url(#p1df5e0d92b)" style="fill: #008000; fill-opacity: 0.3"/>
    <path d="M 379.919936 145.153266 
L 379.919936 145.068282 
L 380.781535 145.06529 
L 381.643135 145.052722 
L 382.504734 145.046737 
L 383.366333 145.040453 
L 384.227933 145.028185 
L 385.089532 144.776825 
L 385.951131 144.693038 
L 386.81273 144.609551 
L 387.67433 144.525764 
L 388.535929 144.400084 
L 389.397528 144.274404 
L 390.259127 144.64905 
L 391.120727 145.023995 
L 391.120727 145.153266 
L 391.120727 145.153266 
L 390.259127 145.153266 
L 389.397528 145.153266 
L 388.535929 145.153266 
L 387.67433 145.153266 
L 386.81273 145.153266 
L 385.951131 145.153266 
L 385.089532 145.153266 
L 384.227933 145.153266 
L 383.366333 145.153266 
L 382.504734 145.153266 
L 381.643135 145.153266 
L 380.781535 145.153266 
L 379.919936 145.153266 
z
" clip-path="url(#p1df5e0d92b)" style="fill: #008000; fill-opacity: 0.3"/>
    <path d="M 427.307896 145.153266 
L 427.307896 144.989583 
L 428.169495 144.776825 
L 429.031095 144.776825 
L 429.892694 144.776825 
L 430.754293 144.776825 
L 431.615892 144.776825 
L 432.477492 144.776825 
L 433.339091 144.776825 
L 433.339091 145.153266 
L 433.339091 145.153266 
L 432.477492 145.153266 
L 431.615892 145.153266 
L 430.754293 145.153266 
L 429.892694 145.153266 
L 429.031095 145.153266 
L 428.169495 145.153266 
L 427.307896 145.153266 
z
" clip-path="url(#p1df5e0d92b)" style="fill: #008000; fill-opacity: 0.3"/>
   </g>
   <g id="PolyCollection_8">
    <path d="M 203.292086 145.153266 
L 203.292086 145.233163 
L 204.153685 145.805007 
L 205.015284 146.37685 
L 205.876884 146.948395 
L 206.738483 147.234467 
L 207.600082 147.520239 
L 208.461681 148.092083 
L 209.323281 148.839879 
L 210.18488 149.587675 
L 211.046479 150.33577 
L 211.908078 151.083566 
L 212.769678 151.332831 
L 213.631277 151.582096 
L 214.492876 151.831362 
L 215.354476 152.273935 
L 216.216075 152.716209 
L 217.077674 153.158782 
L 217.939273 153.601355 
L 218.800873 154.043928 
L 219.662472 154.265065 
L 220.524071 154.486202 
L 221.38567 154.928775 
L 222.24727 154.880597 
L 223.108869 154.832121 
L 223.970468 154.815962 
L 224.832067 154.800102 
L 225.693667 154.783943 
L 226.555266 154.735467 
L 227.416865 154.68729 
L 228.278465 154.49847 
L 229.140064 154.309352 
L 230.001663 153.931714 
L 230.863262 153.553776 
L 231.724862 153.175838 
L 232.586461 152.170398 
L 233.44806 151.835252 
L 234.309659 151.500105 
L 235.171259 151.164959 
L 236.032858 150.566183 
L 236.894457 149.967707 
L 237.756057 149.368932 
L 238.617656 148.770156 
L 239.479255 148.369177 
L 240.340854 147.968198 
L 241.202454 147.16624 
L 242.064053 146.364282 
L 242.925652 145.562324 
L 242.925652 145.153266 
L 242.925652 145.153266 
L 242.064053 145.153266 
L 241.202454 145.153266 
L 240.340854 145.153266 
L 239.479255 145.153266 
L 238.617656 145.153266 
L 237.756057 145.153266 
L 236.894457 145.153266 
L 236.032858 145.153266 
L 235.171259 145.153266 
L 234.309659 145.153266 
L 233.44806 145.153266 
L 232.586461 145.153266 
L 231.724862 145.153266 
L 230.863262 145.153266 
L 230.001663 145.153266 
L 229.140064 145.153266 
L 228.278465 145.153266 
L 227.416865 145.153266 
L 226.555266 145.153266 
L 225.693667 145.153266 
L 224.832067 145.153266 
L 223.970468 145.153266 
L 223.108869 145.153266 
L 222.24727 145.153266 
L 221.38567 145.153266 
L 220.524071 145.153266 
L 219.662472 145.153266 
L 218.800873 145.153266 
L 217.939273 145.153266 
L 217.077674 145.153266 
L 216.216075 145.153266 
L 215.354476 145.153266 
L 214.492876 145.153266 
L 213.631277 145.153266 
L 212.769678 145.153266 
L 211.908078 145.153266 
L 211.046479 145.153266 
L 210.18488 145.153266 
L 209.323281 145.153266 
L 208.461681 145.153266 
L 207.600082 145.153266 
L 206.738483 145.153266 
L 205.876884 145.153266 
L 205.015284 145.153266 
L 204.153685 145.153266 
L 203.292086 145.153266 
z
" clip-path="url(#p1df5e0d92b)" style="fill: #ff0000; fill-opacity: 0.3"/>
    <path d="M 295.483208 145.153266 
L 295.483208 145.225382 
L 296.344807 145.270567 
L 297.206406 145.315752 
L 298.068005 145.406421 
L 298.929605 145.496791 
L 299.791204 145.492602 
L 300.652803 145.488712 
L 301.514403 145.484523 
L 302.376002 145.472254 
L 302.376002 145.153266 
L 302.376002 145.153266 
L 301.514403 145.153266 
L 300.652803 145.153266 
L 299.791204 145.153266 
L 298.929605 145.153266 
L 298.068005 145.153266 
L 297.206406 145.153266 
L 296.344807 145.153266 
L 295.483208 145.153266 
z
" clip-path="url(#p1df5e0d92b)" style="fill: #ff0000; fill-opacity: 0.3"/>
    <path d="M 391.982326 145.153266 
L 391.982326 145.773587 
L 392.843925 146.10993 
L 393.705524 146.278102 
L 394.567124 146.446274 
L 395.428723 146.782916 
L 396.290322 147.11926 
L 397.151922 147.455604 
L 398.013521 147.791947 
L 398.87512 147.925407 
L 399.736719 148.058568 
L 400.598319 148.325189 
L 401.459918 148.591811 
L 402.321517 148.858731 
L 403.183116 149.125352 
L 404.044716 149.391973 
L 404.906315 149.658594 
L 405.767914 149.768714 
L 406.629514 149.878534 
L 407.491113 149.988654 
L 408.352712 150.153833 
L 409.214311 150.318713 
L 410.075911 150.649072 
L 410.93751 150.979132 
L 411.799109 151.309191 
L 412.660708 151.081172 
L 413.522308 150.853152 
L 414.383907 150.396814 
L 415.245506 149.940776 
L 416.107106 149.484438 
L 416.968705 149.226494 
L 417.830304 148.96885 
L 418.691903 148.452964 
L 419.553503 148.19532 
L 420.415102 147.937377 
L 421.276701 147.42149 
L 422.1383 146.905903 
L 422.9999 146.693145 
L 423.861499 146.480088 
L 424.723098 146.054272 
L 425.584697 145.628456 
L 426.446297 145.20264 
L 426.446297 145.153266 
L 426.446297 145.153266 
L 425.584697 145.153266 
L 424.723098 145.153266 
L 423.861499 145.153266 
L 422.9999 145.153266 
L 422.1383 145.153266 
L 421.276701 145.153266 
L 420.415102 145.153266 
L 419.553503 145.153266 
L 418.691903 145.153266 
L 417.830304 145.153266 
L 416.968705 145.153266 
L 416.107106 145.153266 
L 415.245506 145.153266 
L 414.383907 145.153266 
L 413.522308 145.153266 
L 412.660708 145.153266 
L 411.799109 145.153266 
L 410.93751 145.153266 
L 410.075911 145.153266 
L 409.214311 145.153266 
L 408.352712 145.153266 
L 407.491113 145.153266 
L 406.629514 145.153266 
L 405.767914 145.153266 
L 404.906315 145.153266 
L 404.044716 145.153266 
L 403.183116 145.153266 
L 402.321517 145.153266 
L 401.459918 145.153266 
L 400.598319 145.153266 
L 399.736719 145.153266 
L 398.87512 145.153266 
L 398.013521 145.153266 
L 397.151922 145.153266 
L 396.290322 145.153266 
L 395.428723 145.153266 
L 394.567124 145.153266 
L 393.705524 145.153266 
L 392.843925 145.153266 
L 391.982326 145.153266 
z
" clip-path="url(#p1df5e0d92b)" style="fill: #ff0000; fill-opacity: 0.3"/>
   </g>
   <g id="matplotlib.axis_4">
    <g id="ytick_7">
     <g id="line2d_19">
      <path d="M 162.84 152.634217 
L 446.22 152.634217 
" clip-path="url(#p1df5e0d92b)" style="fill: none; stroke: #b0b0b0; stroke-width: 0.8; stroke-linecap: square"/>
     </g>
     <g id="line2d_20">
      <g>
       <use xlink:href="#m72864fbb3e" x="162.84" y="152.634217" style="stroke: #000000; stroke-width: 0.8"/>
      </g>
     </g>
     <g id="text_11">
      <!-- −250 -->
      <g transform="translate(118.759297 157.763163) scale(0.135 -0.135)">
       <defs>
        <path id="DejaVuSans-35" d="M 691 4666 
L 3169 4666 
L 3169 4134 
L 1269 4134 
L 1269 2991 
Q 1406 3038 1543 3061 
Q 1681 3084 1819 3084 
Q 2600 3084 3056 2656 
Q 3513 2228 3513 1497 
Q 3513 744 3044 326 
Q 2575 -91 1722 -91 
Q 1428 -91 1123 -41 
Q 819 9 494 109 
L 494 744 
Q 775 591 1075 516 
Q 1375 441 1709 441 
Q 2250 441 2565 725 
Q 2881 1009 2881 1497 
Q 2881 1984 2565 2268 
Q 2250 2553 1709 2553 
Q 1456 2553 1204 2497 
Q 953 2441 691 2322 
L 691 4666 
z
" transform="scale(0.015625)"/>
       </defs>
       <use xlink:href="#DejaVuSans-2212"/>
       <use xlink:href="#DejaVuSans-32" x="83.789062"/>
       <use xlink:href="#DejaVuSans-35" x="147.412109"/>
       <use xlink:href="#DejaVuSans-30" x="211.035156"/>
      </g>
     </g>
    </g>
    <g id="ytick_8">
     <g id="line2d_21">
      <path d="M 162.84 145.153266 
L 446.22 145.153266 
" clip-path="url(#p1df5e0d92b)" style="fill: none; stroke: #b0b0b0; stroke-width: 0.8; stroke-linecap: square"/>
     </g>
     <g id="line2d_22">
      <g>
       <use xlink:href="#m72864fbb3e" x="162.84" y="145.153266" style="stroke: #000000; stroke-width: 0.8"/>
      </g>
     </g>
     <g id="text_12">
      <!-- 0 -->
      <g transform="translate(147.250625 150.282211) scale(0.135 -0.135)">
       <use xlink:href="#DejaVuSans-30"/>
      </g>
     </g>
    </g>
    <g id="ytick_9">
     <g id="line2d_23">
      <path d="M 162.84 137.672315 
L 446.22 137.672315 
" clip-path="url(#p1df5e0d92b)" style="fill: none; stroke: #b0b0b0; stroke-width: 0.8; stroke-linecap: square"/>
     </g>
     <g id="line2d_24">
      <g>
       <use xlink:href="#m72864fbb3e" x="162.84" y="137.672315" style="stroke: #000000; stroke-width: 0.8"/>
      </g>
     </g>
     <g id="text_13">
      <!-- 250 -->
      <g transform="translate(130.071875 142.80126) scale(0.135 -0.135)">
       <use xlink:href="#DejaVuSans-32"/>
       <use xlink:href="#DejaVuSans-35" x="63.623047"/>
       <use xlink:href="#DejaVuSans-30" x="127.246094"/>
      </g>
     </g>
    </g>
    <g id="text_14">
     <!-- PEU_1-3 [kW] -->
     <g transform="translate(23.089219 141.389997) scale(0.135 -0.135)">
      <defs>
       <path id="DejaVuSans-33" d="M 2597 2516 
Q 3050 2419 3304 2112 
Q 3559 1806 3559 1356 
Q 3559 666 3084 287 
Q 2609 -91 1734 -91 
Q 1441 -91 1130 -33 
Q 819 25 488 141 
L 488 750 
Q 750 597 1062 519 
Q 1375 441 1716 441 
Q 2309 441 2620 675 
Q 2931 909 2931 1356 
Q 2931 1769 2642 2001 
Q 2353 2234 1838 2234 
L 1294 2234 
L 1294 2753 
L 1863 2753 
Q 2328 2753 2575 2939 
Q 2822 3125 2822 3475 
Q 2822 3834 2567 4026 
Q 2313 4219 1838 4219 
Q 1578 4219 1281 4162 
Q 984 4106 628 3988 
L 628 4550 
Q 988 4650 1302 4700 
Q 1616 4750 1894 4750 
Q 2613 4750 3031 4423 
Q 3450 4097 3450 3541 
Q 3450 3153 3228 2886 
Q 3006 2619 2597 2516 
z
" transform="scale(0.015625)"/>
      </defs>
      <use xlink:href="#DejaVuSans-50"/>
      <use xlink:href="#DejaVuSans-45" x="60.302734"/>
      <use xlink:href="#DejaVuSans-55" x="123.486328"/>
      <use xlink:href="#DejaVuSans-5f" x="196.679688"/>
      <use xlink:href="#DejaVuSans-31" x="246.679688"/>
      <use xlink:href="#DejaVuSans-2d" x="310.302734"/>
      <use xlink:href="#DejaVuSans-33" x="346.386719"/>
      <use xlink:href="#DejaVuSans-20" x="410.009766"/>
      <use xlink:href="#DejaVuSans-5b" x="441.796875"/>
      <use xlink:href="#DejaVuSans-6b" x="480.810547"/>
      <use xlink:href="#DejaVuSans-57" x="538.720703"/>
      <use xlink:href="#DejaVuSans-5d" x="637.597656"/>
     </g>
    </g>
   </g>
   <g id="line2d_25">
    <path d="M 175.720909 145.153266 
L 191.229696 145.153266 
L 192.091295 144.621819 
L 194.676093 144.313006 
L 195.537692 144.22473 
L 197.260891 143.695079 
L 198.984089 144.0796 
L 200.707288 144.848642 
L 203.292086 145.233163 
L 205.876884 146.948395 
L 207.600082 147.520239 
L 208.461681 148.092083 
L 211.908078 151.083566 
L 214.492876 151.831362 
L 218.800873 154.043928 
L 220.524071 154.486202 
L 221.38567 154.928775 
L 228.278465 154.49847 
L 229.140064 154.309352 
L 231.724862 153.175838 
L 232.586461 152.170398 
L 235.171259 151.164959 
L 238.617656 148.770156 
L 240.340854 147.968198 
L 243.787251 144.760366 
L 245.51045 144.141841 
L 246.372049 143.523316 
L 248.095248 142.904791 
L 253.264843 139.304958 
L 254.126443 138.179224 
L 255.849641 136.793752 
L 257.57284 136.101016 
L 259.296038 134.217312 
L 265.327233 134.635647 
L 267.912031 136.13453 
L 270.496829 136.634258 
L 273.081627 138.845627 
L 274.804825 139.392335 
L 275.666424 139.939043 
L 277.389623 140.485751 
L 278.251222 141.032459 
L 279.974421 141.740456 
L 281.697619 142.094754 
L 284.282417 143.075058 
L 286.867215 143.388061 
L 291.175211 144.953974 
L 298.068005 145.406421 
L 299.791204 145.492602 
L 302.376002 145.472254 
L 303.237601 145.153266 
L 382.504734 145.046737 
L 384.227933 145.028185 
L 385.089532 144.776825 
L 389.397528 144.274404 
L 391.120727 145.023995 
L 391.982326 145.773587 
L 392.843925 146.10993 
L 394.567124 146.446274 
L 398.013521 147.791947 
L 399.736719 148.058568 
L 404.906315 149.658594 
L 409.214311 150.318713 
L 411.799109 151.309191 
L 413.522308 150.853152 
L 416.107106 149.484438 
L 417.830304 148.96885 
L 418.691903 148.452964 
L 420.415102 147.937377 
L 422.1383 146.905903 
L 423.861499 146.480088 
L 426.446297 145.20264 
L 428.169495 144.776825 
L 433.339091 144.776825 
L 433.339091 144.776825 
" clip-path="url(#p1df5e0d92b)" style="fill: none; stroke: #1f77b4; stroke-width: 1.5; stroke-linecap: square"/>
   </g>
   <g id="line2d_26">
    <path d="M 162.84 145.153266 
L 446.22 145.153266 
" clip-path="url(#p1df5e0d92b)" style="fill: none; stroke: #000000; stroke-width: 1.5; stroke-linecap: square"/>
   </g>
   <g id="patch_18">
    <path d="M 162.84 155.964348 
L 162.84 133.181739 
" style="fill: none; stroke: #000000; stroke-width: 0.8; stroke-linejoin: miter; stroke-linecap: square"/>
   </g>
   <g id="patch_19">
    <path d="M 446.22 155.964348 
L 446.22 133.181739 
" style="fill: none; stroke: #000000; stroke-width: 0.8; stroke-linejoin: miter; stroke-linecap: square"/>
   </g>
   <g id="patch_20">
    <path d="M 162.84 155.964348 
L 446.22 155.964348 
" style="fill: none; stroke: #000000; stroke-width: 0.8; stroke-linejoin: miter; stroke-linecap: square"/>
   </g>
   <g id="patch_21">
    <path d="M 162.84 133.181739 
L 446.22 133.181739 
" style="fill: none; stroke: #000000; stroke-width: 0.8; stroke-linejoin: miter; stroke-linecap: square"/>
   </g>
  </g>
  <g id="axes_5">
   <g id="patch_22">
    <path d="M 162.84 190.138261 
L 446.22 190.138261 
L 446.22 167.355652 
L 162.84 167.355652 
z
" style="fill: #ffffff"/>
   </g>
   <g id="matplotlib.axis_5">
    <g id="ytick_10">
     <g id="line2d_27">
      <g>
       <use xlink:href="#m72864fbb3e" x="162.84" y="189.102688" style="stroke: #000000; stroke-width: 0.8"/>
      </g>
     </g>
     <g id="text_15">
      <!-- 0 -->
      <g transform="translate(147.250625 194.231633) scale(0.135 -0.135)">
       <use xlink:href="#DejaVuSans-30"/>
      </g>
     </g>
    </g>
    <g id="ytick_11">
     <g id="line2d_28">
      <g>
       <use xlink:href="#m72864fbb3e" x="162.84" y="168.391225" style="stroke: #000000; stroke-width: 0.8"/>
      </g>
     </g>
     <g id="text_16">
      <!-- 1 -->
      <g transform="translate(147.250625 173.520171) scale(0.135 -0.135)">
       <use xlink:href="#DejaVuSans-31"/>
      </g>
     </g>
    </g>
    <g id="text_17">
     <!-- SW_1-2 -->
     <g transform="translate(49.391719 175.56391) scale(0.135 -0.135)">
      <defs>
       <path id="DejaVuSans-53" d="M 3425 4513 
L 3425 3897 
Q 3066 4069 2747 4153 
Q 2428 4238 2131 4238 
Q 1616 4238 1336 4038 
Q 1056 3838 1056 3469 
Q 1056 3159 1242 3001 
Q 1428 2844 1947 2747 
L 2328 2669 
Q 3034 2534 3370 2195 
Q 3706 1856 3706 1288 
Q 3706 609 3251 259 
Q 2797 -91 1919 -91 
Q 1588 -91 1214 -16 
Q 841 59 441 206 
L 441 856 
Q 825 641 1194 531 
Q 1563 422 1919 422 
Q 2459 422 2753 634 
Q 3047 847 3047 1241 
Q 3047 1584 2836 1778 
Q 2625 1972 2144 2069 
L 1759 2144 
Q 1053 2284 737 2584 
Q 422 2884 422 3419 
Q 422 4038 858 4394 
Q 1294 4750 2059 4750 
Q 2388 4750 2728 4690 
Q 3069 4631 3425 4513 
z
" transform="scale(0.015625)"/>
      </defs>
      <use xlink:href="#DejaVuSans-53"/>
      <use xlink:href="#DejaVuSans-57" x="63.476562"/>
      <use xlink:href="#DejaVuSans-5f" x="162.353516"/>
      <use xlink:href="#DejaVuSans-31" x="212.353516"/>
      <use xlink:href="#DejaVuSans-2d" x="275.976562"/>
      <use xlink:href="#DejaVuSans-32" x="312.060547"/>
     </g>
    </g>
   </g>
   <g id="line2d_29">
    <path d="M 175.720909 189.102688 
L 394.567124 189.102688 
L 395.428723 168.391225 
L 433.339091 168.391225 
L 433.339091 168.391225 
" clip-path="url(#pf868da0199)" style="fill: none; stroke: #1f77b4; stroke-width: 1.5; stroke-linecap: square"/>
   </g>
   <g id="line2d_30">
    <path d="M 175.720909 168.391225 
L 191.229696 168.391225 
L 192.091295 189.102688 
L 200.707288 189.102688 
L 201.568887 168.391225 
L 292.036811 168.391225 
L 292.89841 189.102688 
L 302.376002 189.102688 
L 303.237601 168.391225 
L 380.781535 168.391225 
L 381.643135 189.102688 
L 382.504734 168.391225 
L 391.982326 168.391225 
L 392.843925 189.102688 
L 433.339091 189.102688 
L 433.339091 189.102688 
" clip-path="url(#pf868da0199)" style="fill: none; stroke: #ff7f0e; stroke-width: 1.5; stroke-linecap: square"/>
   </g>
   <g id="patch_23">
    <path d="M 162.84 190.138261 
L 162.84 167.355652 
" style="fill: none; stroke: #000000; stroke-width: 0.8; stroke-linejoin: miter; stroke-linecap: square"/>
   </g>
   <g id="patch_24">
    <path d="M 446.22 190.138261 
L 446.22 167.355652 
" style="fill: none; stroke: #000000; stroke-width: 0.8; stroke-linejoin: miter; stroke-linecap: square"/>
   </g>
   <g id="patch_25">
    <path d="M 162.84 190.138261 
L 446.22 190.138261 
" style="fill: none; stroke: #000000; stroke-width: 0.8; stroke-linejoin: miter; stroke-linecap: square"/>
   </g>
   <g id="patch_26">
    <path d="M 162.84 167.355652 
L 446.22 167.355652 
" style="fill: none; stroke: #000000; stroke-width: 0.8; stroke-linejoin: miter; stroke-linecap: square"/>
   </g>
  </g>
  <g id="axes_6">
   <g id="patch_27">
    <path d="M 162.84 224.312174 
L 446.22 224.312174 
L 446.22 201.529565 
L 162.84 201.529565 
z
" style="fill: #ffffff"/>
   </g>
   <g id="matplotlib.axis_6">
    <g id="ytick_12">
     <g id="line2d_31">
      <g>
       <use xlink:href="#m72864fbb3e" x="162.84" y="223.276601" style="stroke: #000000; stroke-width: 0.8"/>
      </g>
     </g>
     <g id="text_18">
      <!-- 0 -->
      <g transform="translate(147.250625 228.405546) scale(0.135 -0.135)">
       <use xlink:href="#DejaVuSans-30"/>
      </g>
     </g>
    </g>
    <g id="ytick_13">
     <g id="line2d_32">
      <g>
       <use xlink:href="#m72864fbb3e" x="162.84" y="202.565138" style="stroke: #000000; stroke-width: 0.8"/>
      </g>
     </g>
     <g id="text_19">
      <!-- 1 -->
      <g transform="translate(147.250625 207.694084) scale(0.135 -0.135)">
       <use xlink:href="#DejaVuSans-31"/>
      </g>
     </g>
    </g>
    <g id="text_20">
     <!-- SW_1-4 -->
     <g transform="translate(49.391719 209.737823) scale(0.135 -0.135)">
      <use xlink:href="#DejaVuSans-53"/>
      <use xlink:href="#DejaVuSans-57" x="63.476562"/>
      <use xlink:href="#DejaVuSans-5f" x="162.353516"/>
      <use xlink:href="#DejaVuSans-31" x="212.353516"/>
      <use xlink:href="#DejaVuSans-2d" x="275.976562"/>
      <use xlink:href="#DejaVuSans-34" x="312.060547"/>
     </g>
    </g>
   </g>
   <g id="line2d_33">
    <path d="M 175.720909 223.276601 
L 242.925652 223.276601 
L 243.787251 202.565138 
L 288.590414 202.565138 
L 289.452013 223.276601 
L 391.982326 223.276601 
L 392.843925 202.565138 
L 433.339091 202.565138 
L 433.339091 202.565138 
" clip-path="url(#pa8fa815e03)" style="fill: none; stroke: #1f77b4; stroke-width: 1.5; stroke-linecap: square"/>
   </g>
   <g id="line2d_34">
    <path d="M 175.720909 202.565138 
L 200.707288 202.565138 
L 201.568887 223.276601 
L 293.760009 223.276601 
L 294.621608 202.565138 
L 391.120727 202.565138 
L 391.982326 223.276601 
L 433.339091 223.276601 
L 433.339091 223.276601 
" clip-path="url(#pa8fa815e03)" style="fill: none; stroke: #ff7f0e; stroke-width: 1.5; stroke-linecap: square"/>
   </g>
   <g id="patch_28">
    <path d="M 162.84 224.312174 
L 162.84 201.529565 
" style="fill: none; stroke: #000000; stroke-width: 0.8; stroke-linejoin: miter; stroke-linecap: square"/>
   </g>
   <g id="patch_29">
    <path d="M 446.22 224.312174 
L 446.22 201.529565 
" style="fill: none; stroke: #000000; stroke-width: 0.8; stroke-linejoin: miter; stroke-linecap: square"/>
   </g>
   <g id="patch_30">
    <path d="M 162.84 224.312174 
L 446.22 224.312174 
" style="fill: none; stroke: #000000; stroke-width: 0.8; stroke-linejoin: miter; stroke-linecap: square"/>
   </g>
   <g id="patch_31">
    <path d="M 162.84 201.529565 
L 446.22 201.529565 
" style="fill: none; stroke: #000000; stroke-width: 0.8; stroke-linejoin: miter; stroke-linecap: square"/>
   </g>
  </g>
  <g id="axes_7">
   <g id="patch_32">
    <path d="M 162.84 258.486087 
L 446.22 258.486087 
L 446.22 235.703478 
L 162.84 235.703478 
z
" style="fill: #ffffff"/>
   </g>
   <g id="matplotlib.axis_7">
    <g id="ytick_14">
     <g id="line2d_35">
      <g>
       <use xlink:href="#m72864fbb3e" x="162.84" y="257.450514" style="stroke: #000000; stroke-width: 0.8"/>
      </g>
     </g>
     <g id="text_21">
      <!-- 0 -->
      <g transform="translate(147.250625 262.579459) scale(0.135 -0.135)">
       <use xlink:href="#DejaVuSans-30"/>
      </g>
     </g>
    </g>
    <g id="ytick_15">
     <g id="line2d_36">
      <g>
       <use xlink:href="#m72864fbb3e" x="162.84" y="236.739051" style="stroke: #000000; stroke-width: 0.8"/>
      </g>
     </g>
     <g id="text_22">
      <!-- 1 -->
      <g transform="translate(147.250625 241.867997) scale(0.135 -0.135)">
       <use xlink:href="#DejaVuSans-31"/>
      </g>
     </g>
    </g>
    <g id="text_23">
     <!-- SW_1-3 -->
     <g transform="translate(49.391719 243.911736) scale(0.135 -0.135)">
      <use xlink:href="#DejaVuSans-53"/>
      <use xlink:href="#DejaVuSans-57" x="63.476562"/>
      <use xlink:href="#DejaVuSans-5f" x="162.353516"/>
      <use xlink:href="#DejaVuSans-31" x="212.353516"/>
      <use xlink:href="#DejaVuSans-2d" x="275.976562"/>
      <use xlink:href="#DejaVuSans-33" x="312.060547"/>
     </g>
    </g>
   </g>
   <g id="line2d_37">
    <path d="M 175.720909 257.450514 
L 392.843925 257.450514 
L 393.705524 236.739051 
L 425.584697 236.739051 
L 426.446297 257.450514 
L 433.339091 257.450514 
L 433.339091 257.450514 
" clip-path="url(#pc876629f9e)" style="fill: none; stroke: #1f77b4; stroke-width: 1.5; stroke-linecap: square"/>
   </g>
   <g id="line2d_38">
    <path d="M 175.720909 236.739051 
L 202.430486 236.739051 
L 203.292086 257.450514 
L 242.925652 257.450514 
L 243.787251 236.739051 
L 294.621608 236.739051 
L 295.483208 257.450514 
L 302.376002 257.450514 
L 303.237601 236.739051 
L 391.120727 236.739051 
L 391.982326 257.450514 
L 426.446297 257.450514 
L 427.307896 236.739051 
L 433.339091 236.739051 
L 433.339091 236.739051 
" clip-path="url(#pc876629f9e)" style="fill: none; stroke: #ff7f0e; stroke-width: 1.5; stroke-linecap: square"/>
   </g>
   <g id="patch_33">
    <path d="M 162.84 258.486087 
L 162.84 235.703478 
" style="fill: none; stroke: #000000; stroke-width: 0.8; stroke-linejoin: miter; stroke-linecap: square"/>
   </g>
   <g id="patch_34">
    <path d="M 446.22 258.486087 
L 446.22 235.703478 
" style="fill: none; stroke: #000000; stroke-width: 0.8; stroke-linejoin: miter; stroke-linecap: square"/>
   </g>
   <g id="patch_35">
    <path d="M 162.84 258.486087 
L 446.22 258.486087 
" style="fill: none; stroke: #000000; stroke-width: 0.8; stroke-linejoin: miter; stroke-linecap: square"/>
   </g>
   <g id="patch_36">
    <path d="M 162.84 235.703478 
L 446.22 235.703478 
" style="fill: none; stroke: #000000; stroke-width: 0.8; stroke-linejoin: miter; stroke-linecap: square"/>
   </g>
  </g>
  <g id="axes_8">
   <g id="patch_37">
    <path d="M 162.84 292.66 
L 446.22 292.66 
L 446.22 269.877391 
L 162.84 269.877391 
z
" style="fill: #ffffff"/>
   </g>
   <g id="matplotlib.axis_8">
    <g id="xtick_1">
     <g id="line2d_39">
      <defs>
       <path id="m8453abfc8f" d="M 0 0 
L 0 3.5 
" style="stroke: #000000; stroke-width: 0.8"/>
      </defs>
      <g>
       <use xlink:href="#m8453abfc8f" x="175.720909" y="292.66" style="stroke: #000000; stroke-width: 0.8"/>
      </g>
     </g>
     <g id="text_24">
      <!-- 00 -->
      <g transform="translate(167.131534 309.917891) scale(0.135 -0.135)">
       <use xlink:href="#DejaVuSans-30"/>
       <use xlink:href="#DejaVuSans-30" x="63.623047"/>
      </g>
     </g>
    </g>
    <g id="xtick_2">
     <g id="line2d_40">
      <g>
       <use xlink:href="#m8453abfc8f" x="201.568887" y="292.66" style="stroke: #000000; stroke-width: 0.8"/>
      </g>
     </g>
     <g id="text_25">
      <!-- 02 -->
      <g transform="translate(192.979512 309.917891) scale(0.135 -0.135)">
       <use xlink:href="#DejaVuSans-30"/>
       <use xlink:href="#DejaVuSans-32" x="63.623047"/>
      </g>
     </g>
    </g>
    <g id="xtick_3">
     <g id="line2d_41">
      <g>
       <use xlink:href="#m8453abfc8f" x="227.416865" y="292.66" style="stroke: #000000; stroke-width: 0.8"/>
      </g>
     </g>
     <g id="text_26">
      <!-- 04 -->
      <g transform="translate(218.82749 309.917891) scale(0.135 -0.135)">
       <use xlink:href="#DejaVuSans-30"/>
       <use xlink:href="#DejaVuSans-34" x="63.623047"/>
      </g>
     </g>
    </g>
    <g id="xtick_4">
     <g id="line2d_42">
      <g>
       <use xlink:href="#m8453abfc8f" x="253.264843" y="292.66" style="stroke: #000000; stroke-width: 0.8"/>
      </g>
     </g>
     <g id="text_27">
      <!-- 06 -->
      <g transform="translate(244.675468 309.917891) scale(0.135 -0.135)">
       <defs>
        <path id="DejaVuSans-36" d="M 2113 2584 
Q 1688 2584 1439 2293 
Q 1191 2003 1191 1497 
Q 1191 994 1439 701 
Q 1688 409 2113 409 
Q 2538 409 2786 701 
Q 3034 994 3034 1497 
Q 3034 2003 2786 2293 
Q 2538 2584 2113 2584 
z
M 3366 4563 
L 3366 3988 
Q 3128 4100 2886 4159 
Q 2644 4219 2406 4219 
Q 1781 4219 1451 3797 
Q 1122 3375 1075 2522 
Q 1259 2794 1537 2939 
Q 1816 3084 2150 3084 
Q 2853 3084 3261 2657 
Q 3669 2231 3669 1497 
Q 3669 778 3244 343 
Q 2819 -91 2113 -91 
Q 1303 -91 875 529 
Q 447 1150 447 2328 
Q 447 3434 972 4092 
Q 1497 4750 2381 4750 
Q 2619 4750 2861 4703 
Q 3103 4656 3366 4563 
z
" transform="scale(0.015625)"/>
       </defs>
       <use xlink:href="#DejaVuSans-30"/>
       <use xlink:href="#DejaVuSans-36" x="63.623047"/>
      </g>
     </g>
    </g>
    <g id="xtick_5">
     <g id="line2d_43">
      <g>
       <use xlink:href="#m8453abfc8f" x="279.112822" y="292.66" style="stroke: #000000; stroke-width: 0.8"/>
      </g>
     </g>
     <g id="text_28">
      <!-- 08 -->
      <g transform="translate(270.523447 309.917891) scale(0.135 -0.135)">
       <defs>
        <path id="DejaVuSans-38" d="M 2034 2216 
Q 1584 2216 1326 1975 
Q 1069 1734 1069 1313 
Q 1069 891 1326 650 
Q 1584 409 2034 409 
Q 2484 409 2743 651 
Q 3003 894 3003 1313 
Q 3003 1734 2745 1975 
Q 2488 2216 2034 2216 
z
M 1403 2484 
Q 997 2584 770 2862 
Q 544 3141 544 3541 
Q 544 4100 942 4425 
Q 1341 4750 2034 4750 
Q 2731 4750 3128 4425 
Q 3525 4100 3525 3541 
Q 3525 3141 3298 2862 
Q 3072 2584 2669 2484 
Q 3125 2378 3379 2068 
Q 3634 1759 3634 1313 
Q 3634 634 3220 271 
Q 2806 -91 2034 -91 
Q 1263 -91 848 271 
Q 434 634 434 1313 
Q 434 1759 690 2068 
Q 947 2378 1403 2484 
z
M 1172 3481 
Q 1172 3119 1398 2916 
Q 1625 2713 2034 2713 
Q 2441 2713 2670 2916 
Q 2900 3119 2900 3481 
Q 2900 3844 2670 4047 
Q 2441 4250 2034 4250 
Q 1625 4250 1398 4047 
Q 1172 3844 1172 3481 
z
" transform="scale(0.015625)"/>
       </defs>
       <use xlink:href="#DejaVuSans-30"/>
       <use xlink:href="#DejaVuSans-38" x="63.623047"/>
      </g>
     </g>
    </g>
    <g id="xtick_6">
     <g id="line2d_44">
      <g>
       <use xlink:href="#m8453abfc8f" x="304.9608" y="292.66" style="stroke: #000000; stroke-width: 0.8"/>
      </g>
     </g>
     <g id="text_29">
      <!-- 10 -->
      <g transform="translate(296.371425 309.917891) scale(0.135 -0.135)">
       <use xlink:href="#DejaVuSans-31"/>
       <use xlink:href="#DejaVuSans-30" x="63.623047"/>
      </g>
     </g>
    </g>
    <g id="xtick_7">
     <g id="line2d_45">
      <g>
       <use xlink:href="#m8453abfc8f" x="330.808778" y="292.66" style="stroke: #000000; stroke-width: 0.8"/>
      </g>
     </g>
     <g id="text_30">
      <!-- 12 -->
      <g transform="translate(322.219403 309.917891) scale(0.135 -0.135)">
       <use xlink:href="#DejaVuSans-31"/>
       <use xlink:href="#DejaVuSans-32" x="63.623047"/>
      </g>
     </g>
    </g>
    <g id="xtick_8">
     <g id="line2d_46">
      <g>
       <use xlink:href="#m8453abfc8f" x="356.656756" y="292.66" style="stroke: #000000; stroke-width: 0.8"/>
      </g>
     </g>
     <g id="text_31">
      <!-- 14 -->
      <g transform="translate(348.067381 309.917891) scale(0.135 -0.135)">
       <use xlink:href="#DejaVuSans-31"/>
       <use xlink:href="#DejaVuSans-34" x="63.623047"/>
      </g>
     </g>
    </g>
    <g id="xtick_9">
     <g id="line2d_47">
      <g>
       <use xlink:href="#m8453abfc8f" x="382.504734" y="292.66" style="stroke: #000000; stroke-width: 0.8"/>
      </g>
     </g>
     <g id="text_32">
      <!-- 16 -->
      <g transform="translate(373.915359 309.917891) scale(0.135 -0.135)">
       <use xlink:href="#DejaVuSans-31"/>
       <use xlink:href="#DejaVuSans-36" x="63.623047"/>
      </g>
     </g>
    </g>
    <g id="xtick_10">
     <g id="line2d_48">
      <g>
       <use xlink:href="#m8453abfc8f" x="408.352712" y="292.66" style="stroke: #000000; stroke-width: 0.8"/>
      </g>
     </g>
     <g id="text_33">
      <!-- 18 -->
      <g transform="translate(399.763337 309.917891) scale(0.135 -0.135)">
       <use xlink:href="#DejaVuSans-31"/>
       <use xlink:href="#DejaVuSans-38" x="63.623047"/>
      </g>
     </g>
    </g>
    <g id="xtick_11">
     <g id="line2d_49">
      <g>
       <use xlink:href="#m8453abfc8f" x="434.20069" y="292.66" style="stroke: #000000; stroke-width: 0.8"/>
      </g>
     </g>
     <g id="text_34">
      <!-- 20 -->
      <g transform="translate(425.611315 309.917891) scale(0.135 -0.135)">
       <use xlink:href="#DejaVuSans-32"/>
       <use xlink:href="#DejaVuSans-30" x="63.623047"/>
      </g>
     </g>
    </g>
    <g id="text_35">
     <!-- Time [Hours] -->
     <g transform="translate(260.826914 326.983359) scale(0.135 -0.135)">
      <defs>
       <path id="DejaVuSans-54" d="M -19 4666 
L 3928 4666 
L 3928 4134 
L 2272 4134 
L 2272 0 
L 1638 0 
L 1638 4134 
L -19 4134 
L -19 4666 
z
" transform="scale(0.015625)"/>
       <path id="DejaVuSans-6d" d="M 3328 2828 
Q 3544 3216 3844 3400 
Q 4144 3584 4550 3584 
Q 5097 3584 5394 3201 
Q 5691 2819 5691 2113 
L 5691 0 
L 5113 0 
L 5113 2094 
Q 5113 2597 4934 2840 
Q 4756 3084 4391 3084 
Q 3944 3084 3684 2787 
Q 3425 2491 3425 1978 
L 3425 0 
L 2847 0 
L 2847 2094 
Q 2847 2600 2669 2842 
Q 2491 3084 2119 3084 
Q 1678 3084 1418 2786 
Q 1159 2488 1159 1978 
L 1159 0 
L 581 0 
L 581 3500 
L 1159 3500 
L 1159 2956 
Q 1356 3278 1631 3431 
Q 1906 3584 2284 3584 
Q 2666 3584 2933 3390 
Q 3200 3197 3328 2828 
z
" transform="scale(0.015625)"/>
       <path id="DejaVuSans-65" d="M 3597 1894 
L 3597 1613 
L 953 1613 
Q 991 1019 1311 708 
Q 1631 397 2203 397 
Q 2534 397 2845 478 
Q 3156 559 3463 722 
L 3463 178 
Q 3153 47 2828 -22 
Q 2503 -91 2169 -91 
Q 1331 -91 842 396 
Q 353 884 353 1716 
Q 353 2575 817 3079 
Q 1281 3584 2069 3584 
Q 2775 3584 3186 3129 
Q 3597 2675 3597 1894 
z
M 3022 2063 
Q 3016 2534 2758 2815 
Q 2500 3097 2075 3097 
Q 1594 3097 1305 2825 
Q 1016 2553 972 2059 
L 3022 2063 
z
" transform="scale(0.015625)"/>
       <path id="DejaVuSans-48" d="M 628 4666 
L 1259 4666 
L 1259 2753 
L 3553 2753 
L 3553 4666 
L 4184 4666 
L 4184 0 
L 3553 0 
L 3553 2222 
L 1259 2222 
L 1259 0 
L 628 0 
L 628 4666 
z
" transform="scale(0.015625)"/>
       <path id="DejaVuSans-75" d="M 544 1381 
L 544 3500 
L 1119 3500 
L 1119 1403 
Q 1119 906 1312 657 
Q 1506 409 1894 409 
Q 2359 409 2629 706 
Q 2900 1003 2900 1516 
L 2900 3500 
L 3475 3500 
L 3475 0 
L 2900 0 
L 2900 538 
Q 2691 219 2414 64 
Q 2138 -91 1772 -91 
Q 1169 -91 856 284 
Q 544 659 544 1381 
z
M 1991 3584 
L 1991 3584 
z
" transform="scale(0.015625)"/>
       <path id="DejaVuSans-73" d="M 2834 3397 
L 2834 2853 
Q 2591 2978 2328 3040 
Q 2066 3103 1784 3103 
Q 1356 3103 1142 2972 
Q 928 2841 928 2578 
Q 928 2378 1081 2264 
Q 1234 2150 1697 2047 
L 1894 2003 
Q 2506 1872 2764 1633 
Q 3022 1394 3022 966 
Q 3022 478 2636 193 
Q 2250 -91 1575 -91 
Q 1294 -91 989 -36 
Q 684 19 347 128 
L 347 722 
Q 666 556 975 473 
Q 1284 391 1588 391 
Q 1994 391 2212 530 
Q 2431 669 2431 922 
Q 2431 1156 2273 1281 
Q 2116 1406 1581 1522 
L 1381 1569 
Q 847 1681 609 1914 
Q 372 2147 372 2553 
Q 372 3047 722 3315 
Q 1072 3584 1716 3584 
Q 2034 3584 2315 3537 
Q 2597 3491 2834 3397 
z
" transform="scale(0.015625)"/>
      </defs>
      <use xlink:href="#DejaVuSans-54"/>
      <use xlink:href="#DejaVuSans-69" x="57.958984"/>
      <use xlink:href="#DejaVuSans-6d" x="85.742188"/>
      <use xlink:href="#DejaVuSans-65" x="183.154297"/>
      <use xlink:href="#DejaVuSans-20" x="244.677734"/>
      <use xlink:href="#DejaVuSans-5b" x="276.464844"/>
      <use xlink:href="#DejaVuSans-48" x="315.478516"/>
      <use xlink:href="#DejaVuSans-6f" x="390.673828"/>
      <use xlink:href="#DejaVuSans-75" x="451.855469"/>
      <use xlink:href="#DejaVuSans-72" x="515.234375"/>
      <use xlink:href="#DejaVuSans-73" x="556.347656"/>
      <use xlink:href="#DejaVuSans-5d" x="608.447266"/>
     </g>
    </g>
   </g>
   <g id="matplotlib.axis_9">
    <g id="ytick_16">
     <g id="line2d_50">
      <g>
       <use xlink:href="#m72864fbb3e" x="162.84" y="282.624943" style="stroke: #000000; stroke-width: 0.8"/>
      </g>
     </g>
     <g id="text_36">
      <!-- −25 -->
      <g transform="translate(127.348672 287.753888) scale(0.135 -0.135)">
       <use xlink:href="#DejaVuSans-2212"/>
       <use xlink:href="#DejaVuSans-32" x="83.789062"/>
       <use xlink:href="#DejaVuSans-35" x="147.412109"/>
      </g>
     </g>
    </g>
    <g id="ytick_17">
     <g id="line2d_51">
      <g>
       <use xlink:href="#m72864fbb3e" x="162.84" y="270.912964" style="stroke: #000000; stroke-width: 0.8"/>
      </g>
     </g>
     <g id="text_37">
      <!-- 0 -->
      <g transform="translate(147.250625 276.04191) scale(0.135 -0.135)">
       <use xlink:href="#DejaVuSans-30"/>
      </g>
     </g>
    </g>
    <g id="text_38">
     <!-- Balance [kW] -->
     <g transform="translate(32.431641 278.461118) scale(0.135 -0.135)">
      <defs>
       <path id="DejaVuSans-42" d="M 1259 2228 
L 1259 519 
L 2272 519 
Q 2781 519 3026 730 
Q 3272 941 3272 1375 
Q 3272 1813 3026 2020 
Q 2781 2228 2272 2228 
L 1259 2228 
z
M 1259 4147 
L 1259 2741 
L 2194 2741 
Q 2656 2741 2882 2914 
Q 3109 3088 3109 3444 
Q 3109 3797 2882 3972 
Q 2656 4147 2194 4147 
L 1259 4147 
z
M 628 4666 
L 2241 4666 
Q 2963 4666 3353 4366 
Q 3744 4066 3744 3513 
Q 3744 3084 3544 2831 
Q 3344 2578 2956 2516 
Q 3422 2416 3680 2098 
Q 3938 1781 3938 1306 
Q 3938 681 3513 340 
Q 3088 0 2303 0 
L 628 0 
L 628 4666 
z
" transform="scale(0.015625)"/>
       <path id="DejaVuSans-61" d="M 2194 1759 
Q 1497 1759 1228 1600 
Q 959 1441 959 1056 
Q 959 750 1161 570 
Q 1363 391 1709 391 
Q 2188 391 2477 730 
Q 2766 1069 2766 1631 
L 2766 1759 
L 2194 1759 
z
M 3341 1997 
L 3341 0 
L 2766 0 
L 2766 531 
Q 2569 213 2275 61 
Q 1981 -91 1556 -91 
Q 1019 -91 701 211 
Q 384 513 384 1019 
Q 384 1609 779 1909 
Q 1175 2209 1959 2209 
L 2766 2209 
L 2766 2266 
Q 2766 2663 2505 2880 
Q 2244 3097 1772 3097 
Q 1472 3097 1187 3025 
Q 903 2953 641 2809 
L 641 3341 
Q 956 3463 1253 3523 
Q 1550 3584 1831 3584 
Q 2591 3584 2966 3190 
Q 3341 2797 3341 1997 
z
" transform="scale(0.015625)"/>
       <path id="DejaVuSans-6c" d="M 603 4863 
L 1178 4863 
L 1178 0 
L 603 0 
L 603 4863 
z
" transform="scale(0.015625)"/>
       <path id="DejaVuSans-6e" d="M 3513 2113 
L 3513 0 
L 2938 0 
L 2938 2094 
Q 2938 2591 2744 2837 
Q 2550 3084 2163 3084 
Q 1697 3084 1428 2787 
Q 1159 2491 1159 1978 
L 1159 0 
L 581 0 
L 581 3500 
L 1159 3500 
L 1159 2956 
Q 1366 3272 1645 3428 
Q 1925 3584 2291 3584 
Q 2894 3584 3203 3211 
Q 3513 2838 3513 2113 
z
" transform="scale(0.015625)"/>
      </defs>
      <use xlink:href="#DejaVuSans-42"/>
      <use xlink:href="#DejaVuSans-61" x="68.603516"/>
      <use xlink:href="#DejaVuSans-6c" x="129.882812"/>
      <use xlink:href="#DejaVuSans-61" x="157.666016"/>
      <use xlink:href="#DejaVuSans-6e" x="218.945312"/>
      <use xlink:href="#DejaVuSans-63" x="282.324219"/>
      <use xlink:href="#DejaVuSans-65" x="337.304688"/>
      <use xlink:href="#DejaVuSans-20" x="398.828125"/>
      <use xlink:href="#DejaVuSans-5b" x="430.615234"/>
      <use xlink:href="#DejaVuSans-6b" x="469.628906"/>
      <use xlink:href="#DejaVuSans-57" x="527.539062"/>
      <use xlink:href="#DejaVuSans-5d" x="626.416016"/>
     </g>
    </g>
   </g>
   <g id="line2d_52">
    <path d="M 175.720909 270.912964 
L 198.984089 270.912964 
L 199.845689 272.847783 
L 200.707288 276.40354 
L 203.292086 279.963981 
L 204.153685 288.345073 
L 205.015284 270.912964 
L 294.621608 270.912964 
L 295.483208 272.041999 
L 297.206406 273.456806 
L 298.929605 276.291105 
L 301.514403 276.099028 
L 302.376002 275.906952 
L 303.237601 270.912964 
L 380.781535 270.912964 
L 381.643135 275.321353 
L 383.366333 280.755711 
L 385.089532 291.624427 
L 389.397528 291.601003 
L 391.120727 274.365656 
L 391.982326 270.912964 
L 433.339091 270.912964 
L 433.339091 270.912964 
" clip-path="url(#pd394ee9b7a)" style="fill: none; stroke: #1f77b4; stroke-width: 1.5; stroke-linecap: square"/>
   </g>
   <g id="patch_38">
    <path d="M 162.84 292.66 
L 162.84 269.877391 
" style="fill: none; stroke: #000000; stroke-width: 0.8; stroke-linejoin: miter; stroke-linecap: square"/>
   </g>
   <g id="patch_39">
    <path d="M 446.22 292.66 
L 446.22 269.877391 
" style="fill: none; stroke: #000000; stroke-width: 0.8; stroke-linejoin: miter; stroke-linecap: square"/>
   </g>
   <g id="patch_40">
    <path d="M 162.84 292.66 
L 446.22 292.66 
" style="fill: none; stroke: #000000; stroke-width: 0.8; stroke-linejoin: miter; stroke-linecap: square"/>
   </g>
   <g id="patch_41">
    <path d="M 162.84 269.877391 
L 446.22 269.877391 
" style="fill: none; stroke: #000000; stroke-width: 0.8; stroke-linejoin: miter; stroke-linecap: square"/>
   </g>
  </g>
 </g>
 <defs>
  <clipPath id="p61ca265f03">
   <rect x="162.84" y="30.66" width="283.38" height="22.782609"/>
  </clipPath>
  <clipPath id="pf451afaa89">
   <rect x="162.84" y="64.833913" width="283.38" height="22.782609"/>
  </clipPath>
  <clipPath id="pbd9e6aa5a9">
   <rect x="162.84" y="99.007826" width="283.38" height="22.782609"/>
  </clipPath>
  <clipPath id="p1df5e0d92b">
   <rect x="162.84" y="133.181739" width="283.38" height="22.782609"/>
  </clipPath>
  <clipPath id="pf868da0199">
   <rect x="162.84" y="167.355652" width="283.38" height="22.782609"/>
  </clipPath>
  <clipPath id="pa8fa815e03">
   <rect x="162.84" y="201.529565" width="283.38" height="22.782609"/>
  </clipPath>
  <clipPath id="pc876629f9e">
   <rect x="162.84" y="235.703478" width="283.38" height="22.782609"/>
  </clipPath>
  <clipPath id="pd394ee9b7a">
   <rect x="162.84" y="269.877391" width="283.38" height="22.782609"/>
  </clipPath>
 </defs>
</svg>
