<?xml version="1.0" encoding="utf-8" standalone="no"?>
<!DOCTYPE svg PUBLIC "-//W3C//DTD SVG 1.1//EN"
  "http://www.w3.org/Graphics/SVG/1.1/DTD/svg11.dtd">
<svg xmlns:xlink="http://www.w3.org/1999/xlink" width="460.8pt" height="345.6pt" viewBox="0 0 460.8 345.6" xmlns="http://www.w3.org/2000/svg" version="1.1">
 <metadata>
  <rdf:RDF xmlns:dc="http://purl.org/dc/elements/1.1/" xmlns:cc="http://creativecommons.org/ns#" xmlns:rdf="http://www.w3.org/1999/02/22-rdf-syntax-ns#">
   <cc:Work>
    <dc:type rdf:resource="http://purl.org/dc/dcmitype/StillImage"/>
    <dc:date>2025-02-06T22:59:28.457052</dc:date>
    <dc:format>image/svg+xml</dc:format>
    <dc:creator>
     <cc:Agent>
      <dc:title>Matplotlib v3.8.0, https://matplotlib.org/</dc:title>
     </cc:Agent>
    </dc:creator>
   </cc:Work>
  </rdf:RDF>
 </metadata>
 <defs>
  <style type="text/css">*{stroke-linejoin: round; stroke-linecap: butt}</style>
 </defs>
 <g id="figure_1">
  <g id="patch_1">
   <path d="M 0 345.6 
L 460.8 345.6 
L 460.8 0 
L 0 0 
z
" style="fill: #ffffff"/>
  </g>
  <g id="axes_1">
   <g id="patch_2">
    <path d="M 162.84 53.442609 
L 446.22 53.442609 
L 446.22 30.66 
L 162.84 30.66 
z
" style="fill: #ffffff"/>
   </g>
   <g id="PolyCollection_1">
    <path d="M 232.411261 47.617813 
L 232.411261 47.478342 
L 233.12886 47.44775 
L 233.84646 47.427198 
L 234.564059 47.406803 
L 235.281659 47.386408 
L 235.999258 47.325066 
L 236.716857 47.444298 
L 237.434457 47.503758 
L 238.152056 47.563374 
L 238.152056 47.617813 
L 238.152056 47.617813 
L 237.434457 47.617813 
L 236.716857 47.617813 
L 235.999258 47.617813 
L 235.281659 47.617813 
L 234.564059 47.617813 
L 233.84646 47.617813 
L 233.12886 47.617813 
L 232.411261 47.617813 
z
" clip-path="url(#pc79904e8ac)" style="fill: #008000; fill-opacity: 0.3"/>
    <path d="M 275.467225 47.617813 
L 275.467225 47.411823 
L 276.184824 47.249604 
L 276.902423 47.087542 
L 277.620023 46.763261 
L 278.337622 46.601042 
L 279.055222 46.43898 
L 279.772821 46.114699 
L 280.49042 45.790419 
L 281.20802 45.466138 
L 281.925619 45.141857 
L 282.643219 44.846756 
L 283.360818 44.551656 
L 284.078417 43.961455 
L 284.796017 43.598267 
L 285.513616 43.235079 
L 286.231215 43.053406 
L 286.948815 42.87189 
L 287.666414 42.378017 
L 288.384014 41.8843 
L 289.101613 41.908618 
L 289.819212 41.933092 
L 290.536812 41.957409 
L 291.254411 42.030517 
L 291.972011 42.054834 
L 292.68961 42.079308 
L 293.407209 42.103625 
L 294.124809 42.365623 
L 294.842408 42.627464 
L 295.560008 42.889461 
L 296.277607 42.976846 
L 296.995206 43.064074 
L 297.712806 43.151459 
L 298.430405 43.537866 
L 299.148005 43.924431 
L 299.865604 44.310838 
L 300.583203 44.454074 
L 301.300803 44.597466 
L 302.018402 44.884095 
L 302.736002 45.027331 
L 303.453601 45.170724 
L 304.1712 45.457352 
L 304.8888 45.642947 
L 305.606399 45.828542 
L 306.323998 45.921417 
L 307.041598 46.014293 
L 307.759197 46.199888 
L 308.476797 46.363989 
L 309.194396 46.528248 
L 309.911995 46.583001 
L 310.629595 46.637753 
L 311.347194 46.692349 
L 312.064794 46.856608 
L 312.782393 47.020709 
L 313.499992 47.184968 
L 314.217592 47.349069 
L 314.935191 47.513328 
L 315.652791 47.537017 
L 316.37039 47.560707 
L 317.087989 47.584396 
L 317.805589 47.608243 
L 317.805589 47.617813 
L 317.805589 47.617813 
L 317.087989 47.617813 
L 316.37039 47.617813 
L 315.652791 47.617813 
L 314.935191 47.617813 
L 314.217592 47.617813 
L 313.499992 47.617813 
L 312.782393 47.617813 
L 312.064794 47.617813 
L 311.347194 47.617813 
L 310.629595 47.617813 
L 309.911995 47.617813 
L 309.194396 47.617813 
L 308.476797 47.617813 
L 307.759197 47.617813 
L 307.041598 47.617813 
L 306.323998 47.617813 
L 305.606399 47.617813 
L 304.8888 47.617813 
L 304.1712 47.617813 
L 303.453601 47.617813 
L 302.736002 47.617813 
L 302.018402 47.617813 
L 301.300803 47.617813 
L 300.583203 47.617813 
L 299.865604 47.617813 
L 299.148005 47.617813 
L 298.430405 47.617813 
L 297.712806 47.617813 
L 296.995206 47.617813 
L 296.277607 47.617813 
L 295.560008 47.617813 
L 294.842408 47.617813 
L 294.124809 47.617813 
L 293.407209 47.617813 
L 292.68961 47.617813 
L 291.972011 47.617813 
L 291.254411 47.617813 
L 290.536812 47.617813 
L 289.819212 47.617813 
L 289.101613 47.617813 
L 288.384014 47.617813 
L 287.666414 47.617813 
L 286.948815 47.617813 
L 286.231215 47.617813 
L 285.513616 47.617813 
L 284.796017 47.617813 
L 284.078417 47.617813 
L 283.360818 47.617813 
L 282.643219 47.617813 
L 281.925619 47.617813 
L 281.20802 47.617813 
L 280.49042 47.617813 
L 279.772821 47.617813 
L 279.055222 47.617813 
L 278.337622 47.617813 
L 277.620023 47.617813 
L 276.902423 47.617813 
L 276.184824 47.617813 
L 275.467225 47.617813 
z
" clip-path="url(#pc79904e8ac)" style="fill: #008000; fill-opacity: 0.3"/>
    <path d="M 388.847929 47.617813 
L 388.847929 47.588789 
L 389.565528 47.583455 
L 389.565528 47.617813 
L 389.565528 47.617813 
L 388.847929 47.617813 
z
" clip-path="url(#pc79904e8ac)" style="fill: #008000; fill-opacity: 0.3"/>
    <path d="M 398.89432 47.617813 
L 398.89432 47.015375 
L 399.611919 46.297313 
L 400.329519 45.906356 
L 401.047118 45.515399 
L 401.764718 44.733486 
L 402.482317 43.221273 
L 403.199916 42.377546 
L 403.917516 41.53382 
L 404.635115 41.111957 
L 405.352715 40.690093 
L 406.070314 39.869429 
L 406.787913 39.048764 
L 407.505513 38.2281 
L 408.223112 37.558045 
L 408.940712 36.888147 
L 409.658311 36.151102 
L 410.37591 35.905577 
L 411.09351 35.659895 
L 411.811109 35.414214 
L 412.528709 34.535816 
L 413.246308 33.657575 
L 413.963907 32.965242 
L 414.681507 32.272909 
L 415.399106 32.128575 
L 416.116705 32.056408 
L 416.834305 31.984241 
L 417.551904 31.839907 
L 418.269504 31.695573 
L 418.987103 32.079941 
L 419.704702 32.272125 
L 420.422302 32.464309 
L 421.139901 32.848677 
L 421.857501 33.334549 
L 422.5751 33.820264 
L 423.292699 34.792009 
L 424.010299 35.492656 
L 424.727898 35.84298 
L 425.445498 36.193304 
L 426.163097 36.861319 
L 426.880696 37.529335 
L 427.598296 38.012226 
L 428.315895 38.253672 
L 429.033495 38.495118 
L 429.751094 38.656082 
L 430.468693 38.817045 
L 431.186293 38.978009 
L 431.903892 39.219455 
L 432.621492 39.460901 
L 433.339091 39.460901 
L 433.339091 47.617813 
L 433.339091 47.617813 
L 432.621492 47.617813 
L 431.903892 47.617813 
L 431.186293 47.617813 
L 430.468693 47.617813 
L 429.751094 47.617813 
L 429.033495 47.617813 
L 428.315895 47.617813 
L 427.598296 47.617813 
L 426.880696 47.617813 
L 426.163097 47.617813 
L 425.445498 47.617813 
L 424.727898 47.617813 
L 424.010299 47.617813 
L 423.292699 47.617813 
L 422.5751 47.617813 
L 421.857501 47.617813 
L 421.139901 47.617813 
L 420.422302 47.617813 
L 419.704702 47.617813 
L 418.987103 47.617813 
L 418.269504 47.617813 
L 417.551904 47.617813 
L 416.834305 47.617813 
L 416.116705 47.617813 
L 415.399106 47.617813 
L 414.681507 47.617813 
L 413.963907 47.617813 
L 413.246308 47.617813 
L 412.528709 47.617813 
L 411.811109 47.617813 
L 411.09351 47.617813 
L 410.37591 47.617813 
L 409.658311 47.617813 
L 408.940712 47.617813 
L 408.223112 47.617813 
L 407.505513 47.617813 
L 406.787913 47.617813 
L 406.070314 47.617813 
L 405.352715 47.617813 
L 404.635115 47.617813 
L 403.917516 47.617813 
L 403.199916 47.617813 
L 402.482317 47.617813 
L 401.764718 47.617813 
L 401.047118 47.617813 
L 400.329519 47.617813 
L 399.611919 47.617813 
L 398.89432 47.617813 
z
" clip-path="url(#pc79904e8ac)" style="fill: #008000; fill-opacity: 0.3"/>
   </g>
   <g id="PolyCollection_2">
    <path d="M 238.869656 47.617813 
L 238.869656 47.682606 
L 239.587255 47.801682 
L 240.304854 47.841531 
L 241.022454 47.881222 
L 241.740053 47.920914 
L 242.457653 48.201581 
L 243.175252 48.482248 
L 243.892851 48.762758 
L 244.610451 48.90317 
L 245.32805 49.043425 
L 246.04565 49.352018 
L 246.763249 49.660767 
L 247.480848 49.969359 
L 248.198448 50.277952 
L 248.916047 50.603488 
L 249.633646 50.712052 
L 250.351246 50.820459 
L 251.068845 50.929024 
L 251.786445 51.25456 
L 252.504044 51.580096 
L 253.221643 51.78687 
L 253.939243 51.993644 
L 254.656842 52.200261 
L 255.374442 52.303648 
L 256.092041 52.407036 
L 256.80964 52.341771 
L 257.52724 52.276351 
L 258.244839 52.211086 
L 258.962439 52.189279 
L 259.680038 52.167472 
L 260.397637 52.145665 
L 261.115237 52.080401 
L 261.832836 52.01498 
L 262.550436 51.982348 
L 263.268035 51.949716 
L 263.985634 51.884295 
L 264.703234 51.819031 
L 265.420833 51.565819 
L 266.138433 51.312764 
L 266.856032 51.22836 
L 267.573631 51.143956 
L 268.291231 51.059552 
L 269.00883 50.455702 
L 269.726429 50.141933 
L 270.444029 49.828006 
L 271.161628 49.51408 
L 271.879228 49.303854 
L 272.596827 49.093628 
L 273.314426 48.673177 
L 274.032026 48.252726 
L 274.749625 47.832274 
L 274.749625 47.617813 
L 274.749625 47.617813 
L 274.032026 47.617813 
L 273.314426 47.617813 
L 272.596827 47.617813 
L 271.879228 47.617813 
L 271.161628 47.617813 
L 270.444029 47.617813 
L 269.726429 47.617813 
L 269.00883 47.617813 
L 268.291231 47.617813 
L 267.573631 47.617813 
L 266.856032 47.617813 
L 266.138433 47.617813 
L 265.420833 47.617813 
L 264.703234 47.617813 
L 263.985634 47.617813 
L 263.268035 47.617813 
L 262.550436 47.617813 
L 261.832836 47.617813 
L 261.115237 47.617813 
L 260.397637 47.617813 
L 259.680038 47.617813 
L 258.962439 47.617813 
L 258.244839 47.617813 
L 257.52724 47.617813 
L 256.80964 47.617813 
L 256.092041 47.617813 
L 255.374442 47.617813 
L 254.656842 47.617813 
L 253.939243 47.617813 
L 253.221643 47.617813 
L 252.504044 47.617813 
L 251.786445 47.617813 
L 251.068845 47.617813 
L 250.351246 47.617813 
L 249.633646 47.617813 
L 248.916047 47.617813 
L 248.198448 47.617813 
L 247.480848 47.617813 
L 246.763249 47.617813 
L 246.04565 47.617813 
L 245.32805 47.617813 
L 244.610451 47.617813 
L 243.892851 47.617813 
L 243.175252 47.617813 
L 242.457653 47.617813 
L 241.740053 47.617813 
L 241.022454 47.617813 
L 240.304854 47.617813 
L 239.587255 47.617813 
L 238.869656 47.617813 
z
" clip-path="url(#pc79904e8ac)" style="fill: #ff0000; fill-opacity: 0.3"/>
    <path d="M 318.523188 47.617813 
L 318.523188 47.655622 
L 319.240788 47.679312 
L 319.958387 47.703001 
L 320.675986 47.750537 
L 321.393586 47.797917 
L 322.111185 47.79572 
L 322.828785 47.793681 
L 323.546384 47.791484 
L 324.263983 47.785052 
L 324.263983 47.617813 
L 324.263983 47.617813 
L 323.546384 47.617813 
L 322.828785 47.617813 
L 322.111185 47.617813 
L 321.393586 47.617813 
L 320.675986 47.617813 
L 319.958387 47.617813 
L 319.240788 47.617813 
L 318.523188 47.617813 
z
" clip-path="url(#pc79904e8ac)" style="fill: #ff0000; fill-opacity: 0.3"/>
    <path d="M 390.283127 47.617813 
L 390.283127 47.765441 
L 391.000727 47.856435 
L 391.718326 47.947428 
L 392.435926 48.129414 
L 393.153525 48.311401 
L 393.871124 48.311244 
L 394.588724 48.311087 
L 395.306323 48.311087 
L 396.023923 48.310773 
L 396.741522 48.310616 
L 397.459121 48.022105 
L 398.176721 47.733437 
L 398.176721 47.617813 
L 398.176721 47.617813 
L 397.459121 47.617813 
L 396.741522 47.617813 
L 396.023923 47.617813 
L 395.306323 47.617813 
L 394.588724 47.617813 
L 393.871124 47.617813 
L 393.153525 47.617813 
L 392.435926 47.617813 
L 391.718326 47.617813 
L 391.000727 47.617813 
L 390.283127 47.617813 
z
" clip-path="url(#pc79904e8ac)" style="fill: #ff0000; fill-opacity: 0.3"/>
   </g>
   <g id="matplotlib.axis_1">
    <g id="ytick_1">
     <g id="line2d_1">
      <path d="M 162.84 47.617813 
L 446.22 47.617813 
" clip-path="url(#pc79904e8ac)" style="fill: none; stroke: #b0b0b0; stroke-width: 0.8; stroke-linecap: square"/>
     </g>
     <g id="line2d_2">
      <defs>
       <path id="mab086c7bd3" d="M 0 0 
L -3.5 0 
" style="stroke: #000000; stroke-width: 0.8"/>
      </defs>
      <g>
       <use xlink:href="#mab086c7bd3" x="162.84" y="47.617813" style="stroke: #000000; stroke-width: 0.8"/>
      </g>
     </g>
     <g id="text_1">
      <!-- 0 -->
      <g transform="translate(147.250625 52.746758) scale(0.135 -0.135)">
       <defs>
        <path id="DejaVuSans-30" d="M 2034 4250 
Q 1547 4250 1301 3770 
Q 1056 3291 1056 2328 
Q 1056 1369 1301 889 
Q 1547 409 2034 409 
Q 2525 409 2770 889 
Q 3016 1369 3016 2328 
Q 3016 3291 2770 3770 
Q 2525 4250 2034 4250 
z
M 2034 4750 
Q 2819 4750 3233 4129 
Q 3647 3509 3647 2328 
Q 3647 1150 3233 529 
Q 2819 -91 2034 -91 
Q 1250 -91 836 529 
Q 422 1150 422 2328 
Q 422 3509 836 4129 
Q 1250 4750 2034 4750 
z
" transform="scale(0.015625)"/>
       </defs>
       <use xlink:href="#DejaVuSans-30"/>
      </g>
     </g>
    </g>
    <g id="ytick_2">
     <g id="line2d_3">
      <path d="M 162.84 31.929331 
L 446.22 31.929331 
" clip-path="url(#pc79904e8ac)" style="fill: none; stroke: #b0b0b0; stroke-width: 0.8; stroke-linecap: square"/>
     </g>
     <g id="line2d_4">
      <g>
       <use xlink:href="#mab086c7bd3" x="162.84" y="31.929331" style="stroke: #000000; stroke-width: 0.8"/>
      </g>
     </g>
     <g id="text_2">
      <!-- 1000 -->
      <g transform="translate(121.4825 37.058277) scale(0.135 -0.135)">
       <defs>
        <path id="DejaVuSans-31" d="M 794 531 
L 1825 531 
L 1825 4091 
L 703 3866 
L 703 4441 
L 1819 4666 
L 2450 4666 
L 2450 531 
L 3481 531 
L 3481 0 
L 794 0 
L 794 531 
z
" transform="scale(0.015625)"/>
       </defs>
       <use xlink:href="#DejaVuSans-31"/>
       <use xlink:href="#DejaVuSans-30" x="63.623047"/>
       <use xlink:href="#DejaVuSans-30" x="127.246094"/>
       <use xlink:href="#DejaVuSans-30" x="190.869141"/>
      </g>
     </g>
    </g>
    <g id="text_3">
     <!-- ΔP[kW] -->
     <g transform="translate(46.945195 39.243726) scale(0.135 -0.135)">
      <defs>
       <path id="DejaVuSans-394" d="M 2188 4044 
L 906 525 
L 3472 525 
L 2188 4044 
z
M 50 0 
L 1831 4666 
L 2547 4666 
L 4325 0 
L 50 0 
z
" transform="scale(0.015625)"/>
       <path id="DejaVuSans-50" d="M 1259 4147 
L 1259 2394 
L 2053 2394 
Q 2494 2394 2734 2622 
Q 2975 2850 2975 3272 
Q 2975 3691 2734 3919 
Q 2494 4147 2053 4147 
L 1259 4147 
z
M 628 4666 
L 2053 4666 
Q 2838 4666 3239 4311 
Q 3641 3956 3641 3272 
Q 3641 2581 3239 2228 
Q 2838 1875 2053 1875 
L 1259 1875 
L 1259 0 
L 628 0 
L 628 4666 
z
" transform="scale(0.015625)"/>
       <path id="DejaVuSans-5b" d="M 550 4863 
L 1875 4863 
L 1875 4416 
L 1125 4416 
L 1125 -397 
L 1875 -397 
L 1875 -844 
L 550 -844 
L 550 4863 
z
" transform="scale(0.015625)"/>
       <path id="DejaVuSans-6b" d="M 581 4863 
L 1159 4863 
L 1159 1991 
L 2875 3500 
L 3609 3500 
L 1753 1863 
L 3688 0 
L 2938 0 
L 1159 1709 
L 1159 0 
L 581 0 
L 581 4863 
z
" transform="scale(0.015625)"/>
       <path id="DejaVuSans-57" d="M 213 4666 
L 850 4666 
L 1831 722 
L 2809 4666 
L 3519 4666 
L 4500 722 
L 5478 4666 
L 6119 4666 
L 4947 0 
L 4153 0 
L 3169 4050 
L 2175 0 
L 1381 0 
L 213 4666 
z
" transform="scale(0.015625)"/>
       <path id="DejaVuSans-5d" d="M 1947 4863 
L 1947 -844 
L 622 -844 
L 622 -397 
L 1369 -397 
L 1369 4416 
L 622 4416 
L 622 4863 
L 1947 4863 
z
" transform="scale(0.015625)"/>
      </defs>
      <use xlink:href="#DejaVuSans-394"/>
      <use xlink:href="#DejaVuSans-50" x="68.408203"/>
      <use xlink:href="#DejaVuSans-5b" x="128.710938"/>
      <use xlink:href="#DejaVuSans-6b" x="167.724609"/>
      <use xlink:href="#DejaVuSans-57" x="225.634766"/>
      <use xlink:href="#DejaVuSans-5d" x="324.511719"/>
     </g>
    </g>
   </g>
   <g id="line2d_5">
    <path d="M 175.720909 47.617813 
L 231.693662 47.617813 
L 233.12886 47.44775 
L 236.716857 47.444298 
L 238.869656 47.682606 
L 240.304854 47.841531 
L 241.740053 47.920914 
L 243.892851 48.762758 
L 245.32805 49.043425 
L 248.916047 50.603488 
L 251.068845 50.929024 
L 253.221643 51.78687 
L 255.374442 52.303648 
L 256.092041 52.407036 
L 259.680038 52.167472 
L 263.268035 51.949716 
L 264.703234 51.819031 
L 266.138433 51.312764 
L 268.291231 51.059552 
L 269.00883 50.455702 
L 271.879228 49.303854 
L 272.596827 49.093628 
L 275.467225 47.411823 
L 276.902423 47.087542 
L 277.620023 46.763261 
L 279.055222 46.43898 
L 283.360818 44.551656 
L 284.078417 43.961455 
L 285.513616 43.235079 
L 286.948815 42.87189 
L 288.384014 41.8843 
L 293.407209 42.103625 
L 295.560008 42.889461 
L 297.712806 43.151459 
L 299.865604 44.310838 
L 301.300803 44.597466 
L 302.018402 44.884095 
L 303.453601 45.170724 
L 304.8888 45.642947 
L 306.323998 45.921417 
L 307.759197 46.199888 
L 309.911995 46.583001 
L 312.064794 46.856608 
L 314.935191 47.513328 
L 324.263983 47.785052 
L 324.981583 47.617813 
L 389.565528 47.583455 
L 391.000727 47.856435 
L 392.435926 48.129414 
L 393.153525 48.311401 
L 396.741522 48.310616 
L 398.176721 47.733437 
L 399.611919 46.297313 
L 401.047118 45.515399 
L 401.764718 44.733486 
L 402.482317 43.221273 
L 403.917516 41.53382 
L 405.352715 40.690093 
L 408.223112 37.558045 
L 409.658311 36.151102 
L 411.811109 35.414214 
L 413.246308 33.657575 
L 414.681507 32.272909 
L 416.116705 32.056408 
L 417.551904 31.839907 
L 418.269504 31.695573 
L 418.987103 32.079941 
L 420.422302 32.464309 
L 421.857501 33.334549 
L 422.5751 33.820264 
L 423.292699 34.792009 
L 424.010299 35.492656 
L 425.445498 36.193304 
L 426.880696 37.529335 
L 427.598296 38.012226 
L 429.751094 38.656082 
L 431.903892 39.219455 
L 432.621492 39.460901 
L 433.339091 39.460901 
L 433.339091 39.460901 
" clip-path="url(#pc79904e8ac)" style="fill: none; stroke: #1f77b4; stroke-width: 1.5; stroke-linecap: square"/>
   </g>
   <g id="line2d_6">
    <path d="M 162.84 47.617813 
L 446.22 47.617813 
" clip-path="url(#pc79904e8ac)" style="fill: none; stroke: #000000; stroke-width: 1.5; stroke-linecap: square"/>
   </g>
   <g id="patch_3">
    <path d="M 162.84 53.442609 
L 162.84 30.66 
" style="fill: none; stroke: #000000; stroke-width: 0.8; stroke-linejoin: miter; stroke-linecap: square"/>
   </g>
   <g id="patch_4">
    <path d="M 446.22 53.442609 
L 446.22 30.66 
" style="fill: none; stroke: #000000; stroke-width: 0.8; stroke-linejoin: miter; stroke-linecap: square"/>
   </g>
   <g id="patch_5">
    <path d="M 162.84 53.442609 
L 446.22 53.442609 
" style="fill: none; stroke: #000000; stroke-width: 0.8; stroke-linejoin: miter; stroke-linecap: square"/>
   </g>
   <g id="patch_6">
    <path d="M 162.84 30.66 
L 446.22 30.66 
" style="fill: none; stroke: #000000; stroke-width: 0.8; stroke-linejoin: miter; stroke-linecap: square"/>
   </g>
   <g id="text_4">
    <!-- Microgrid 1 -->
    <g transform="translate(268.106641 24.66) scale(0.13 -0.13)">
     <defs>
      <path id="DejaVuSans-4d" d="M 628 4666 
L 1569 4666 
L 2759 1491 
L 3956 4666 
L 4897 4666 
L 4897 0 
L 4281 0 
L 4281 4097 
L 3078 897 
L 2444 897 
L 1241 4097 
L 1241 0 
L 628 0 
L 628 4666 
z
" transform="scale(0.015625)"/>
      <path id="DejaVuSans-69" d="M 603 3500 
L 1178 3500 
L 1178 0 
L 603 0 
L 603 3500 
z
M 603 4863 
L 1178 4863 
L 1178 4134 
L 603 4134 
L 603 4863 
z
" transform="scale(0.015625)"/>
      <path id="DejaVuSans-63" d="M 3122 3366 
L 3122 2828 
Q 2878 2963 2633 3030 
Q 2388 3097 2138 3097 
Q 1578 3097 1268 2742 
Q 959 2388 959 1747 
Q 959 1106 1268 751 
Q 1578 397 2138 397 
Q 2388 397 2633 464 
Q 2878 531 3122 666 
L 3122 134 
Q 2881 22 2623 -34 
Q 2366 -91 2075 -91 
Q 1284 -91 818 406 
Q 353 903 353 1747 
Q 353 2603 823 3093 
Q 1294 3584 2113 3584 
Q 2378 3584 2631 3529 
Q 2884 3475 3122 3366 
z
" transform="scale(0.015625)"/>
      <path id="DejaVuSans-72" d="M 2631 2963 
Q 2534 3019 2420 3045 
Q 2306 3072 2169 3072 
Q 1681 3072 1420 2755 
Q 1159 2438 1159 1844 
L 1159 0 
L 581 0 
L 581 3500 
L 1159 3500 
L 1159 2956 
Q 1341 3275 1631 3429 
Q 1922 3584 2338 3584 
Q 2397 3584 2469 3576 
Q 2541 3569 2628 3553 
L 2631 2963 
z
" transform="scale(0.015625)"/>
      <path id="DejaVuSans-6f" d="M 1959 3097 
Q 1497 3097 1228 2736 
Q 959 2375 959 1747 
Q 959 1119 1226 758 
Q 1494 397 1959 397 
Q 2419 397 2687 759 
Q 2956 1122 2956 1747 
Q 2956 2369 2687 2733 
Q 2419 3097 1959 3097 
z
M 1959 3584 
Q 2709 3584 3137 3096 
Q 3566 2609 3566 1747 
Q 3566 888 3137 398 
Q 2709 -91 1959 -91 
Q 1206 -91 779 398 
Q 353 888 353 1747 
Q 353 2609 779 3096 
Q 1206 3584 1959 3584 
z
" transform="scale(0.015625)"/>
      <path id="DejaVuSans-67" d="M 2906 1791 
Q 2906 2416 2648 2759 
Q 2391 3103 1925 3103 
Q 1463 3103 1205 2759 
Q 947 2416 947 1791 
Q 947 1169 1205 825 
Q 1463 481 1925 481 
Q 2391 481 2648 825 
Q 2906 1169 2906 1791 
z
M 3481 434 
Q 3481 -459 3084 -895 
Q 2688 -1331 1869 -1331 
Q 1566 -1331 1297 -1286 
Q 1028 -1241 775 -1147 
L 775 -588 
Q 1028 -725 1275 -790 
Q 1522 -856 1778 -856 
Q 2344 -856 2625 -561 
Q 2906 -266 2906 331 
L 2906 616 
Q 2728 306 2450 153 
Q 2172 0 1784 0 
Q 1141 0 747 490 
Q 353 981 353 1791 
Q 353 2603 747 3093 
Q 1141 3584 1784 3584 
Q 2172 3584 2450 3431 
Q 2728 3278 2906 2969 
L 2906 3500 
L 3481 3500 
L 3481 434 
z
" transform="scale(0.015625)"/>
      <path id="DejaVuSans-64" d="M 2906 2969 
L 2906 4863 
L 3481 4863 
L 3481 0 
L 2906 0 
L 2906 525 
Q 2725 213 2448 61 
Q 2172 -91 1784 -91 
Q 1150 -91 751 415 
Q 353 922 353 1747 
Q 353 2572 751 3078 
Q 1150 3584 1784 3584 
Q 2172 3584 2448 3432 
Q 2725 3281 2906 2969 
z
M 947 1747 
Q 947 1113 1208 752 
Q 1469 391 1925 391 
Q 2381 391 2643 752 
Q 2906 1113 2906 1747 
Q 2906 2381 2643 2742 
Q 2381 3103 1925 3103 
Q 1469 3103 1208 2742 
Q 947 2381 947 1747 
z
" transform="scale(0.015625)"/>
      <path id="DejaVuSans-20" transform="scale(0.015625)"/>
     </defs>
     <use xlink:href="#DejaVuSans-4d"/>
     <use xlink:href="#DejaVuSans-69" x="86.279297"/>
     <use xlink:href="#DejaVuSans-63" x="114.0625"/>
     <use xlink:href="#DejaVuSans-72" x="169.042969"/>
     <use xlink:href="#DejaVuSans-6f" x="207.90625"/>
     <use xlink:href="#DejaVuSans-67" x="269.087891"/>
     <use xlink:href="#DejaVuSans-72" x="332.564453"/>
     <use xlink:href="#DejaVuSans-69" x="373.677734"/>
     <use xlink:href="#DejaVuSans-64" x="401.460938"/>
     <use xlink:href="#DejaVuSans-20" x="464.9375"/>
     <use xlink:href="#DejaVuSans-31" x="496.724609"/>
    </g>
   </g>
  </g>
  <g id="axes_2">
   <g id="patch_7">
    <path d="M 162.84 87.616522 
L 446.22 87.616522 
L 446.22 64.833913 
L 162.84 64.833913 
z
" style="fill: #ffffff"/>
   </g>
   <g id="PolyCollection_3">
    <path d="M 240.304854 84.113178 
L 240.304854 83.956915 
L 241.022454 83.732703 
L 241.740053 83.508492 
L 242.457653 82.835857 
L 243.175252 82.008581 
L 243.892851 81.181305 
L 244.610451 80.628345 
L 245.32805 80.075386 
L 246.04565 78.969287 
L 246.763249 77.863368 
L 247.480848 76.90362 
L 248.198448 75.943691 
L 248.916047 74.983943 
L 249.633646 74.162074 
L 250.351246 73.340024 
L 251.068845 72.518155 
L 251.786445 71.700071 
L 252.504044 70.881987 
L 253.221643 70.063902 
L 253.939243 68.828575 
L 254.656842 67.593249 
L 255.374442 67.377688 
L 256.092041 67.162308 
L 256.80964 66.731367 
L 257.52724 66.300427 
L 258.244839 65.869486 
L 258.962439 66.156419 
L 259.680038 66.443533 
L 260.397637 66.730466 
L 261.115237 67.591626 
L 261.832836 68.452426 
L 262.550436 68.883006 
L 263.268035 69.313406 
L 263.985634 70.084089 
L 264.703234 70.854591 
L 265.420833 71.625274 
L 266.138433 72.395956 
L 266.856032 72.873758 
L 267.573631 73.351559 
L 268.291231 73.829361 
L 269.00883 75.262765 
L 269.726429 75.474901 
L 270.444029 75.687037 
L 271.161628 75.899173 
L 271.879228 76.005331 
L 272.596827 76.111309 
L 273.314426 76.323445 
L 274.032026 76.535761 
L 274.749625 76.747897 
L 275.467225 76.960033 
L 276.184824 77.066011 
L 276.902423 77.172169 
L 277.620023 77.384305 
L 278.337622 77.490283 
L 279.055222 77.596441 
L 279.772821 77.752344 
L 280.49042 77.908247 
L 281.20802 78.06415 
L 281.925619 78.220052 
L 282.643219 78.298094 
L 283.360818 78.375955 
L 284.078417 78.531858 
L 284.796017 78.687941 
L 285.513616 78.843844 
L 286.231215 78.921705 
L 286.948815 78.999747 
L 287.666414 79.155649 
L 288.384014 79.311552 
L 289.101613 79.36346 
L 289.819212 79.415548 
L 290.536812 79.467455 
L 291.254411 79.623358 
L 291.972011 79.677608 
L 292.68961 79.731859 
L 293.407209 79.78611 
L 294.124809 79.948681 
L 294.842408 80.111433 
L 295.560008 80.274184 
L 296.277607 80.328435 
L 296.995206 80.382505 
L 297.712806 80.436756 
L 298.430405 80.599508 
L 299.148005 80.752887 
L 299.865604 80.906267 
L 300.583203 80.982866 
L 301.300803 81.059466 
L 302.018402 81.212846 
L 302.736002 81.289625 
L 303.453601 81.366225 
L 304.1712 81.564663 
L 304.8888 81.763282 
L 305.606399 81.96172 
L 306.323998 82.061029 
L 307.041598 82.160338 
L 307.759197 82.372294 
L 308.476797 82.584069 
L 309.194396 82.796025 
L 309.911995 82.866677 
L 310.629595 82.937329 
L 311.347194 83.0078 
L 312.064794 83.219756 
L 312.782393 83.405037 
L 313.499992 83.590318 
L 314.217592 83.77578 
L 314.935191 83.961061 
L 315.652791 84.053701 
L 315.652791 84.113178 
L 315.652791 84.113178 
L 314.935191 84.113178 
L 314.217592 84.113178 
L 313.499992 84.113178 
L 312.782393 84.113178 
L 312.064794 84.113178 
L 311.347194 84.113178 
L 310.629595 84.113178 
L 309.911995 84.113178 
L 309.194396 84.113178 
L 308.476797 84.113178 
L 307.759197 84.113178 
L 307.041598 84.113178 
L 306.323998 84.113178 
L 305.606399 84.113178 
L 304.8888 84.113178 
L 304.1712 84.113178 
L 303.453601 84.113178 
L 302.736002 84.113178 
L 302.018402 84.113178 
L 301.300803 84.113178 
L 300.583203 84.113178 
L 299.865604 84.113178 
L 299.148005 84.113178 
L 298.430405 84.113178 
L 297.712806 84.113178 
L 296.995206 84.113178 
L 296.277607 84.113178 
L 295.560008 84.113178 
L 294.842408 84.113178 
L 294.124809 84.113178 
L 293.407209 84.113178 
L 292.68961 84.113178 
L 291.972011 84.113178 
L 291.254411 84.113178 
L 290.536812 84.113178 
L 289.819212 84.113178 
L 289.101613 84.113178 
L 288.384014 84.113178 
L 287.666414 84.113178 
L 286.948815 84.113178 
L 286.231215 84.113178 
L 285.513616 84.113178 
L 284.796017 84.113178 
L 284.078417 84.113178 
L 283.360818 84.113178 
L 282.643219 84.113178 
L 281.925619 84.113178 
L 281.20802 84.113178 
L 280.49042 84.113178 
L 279.772821 84.113178 
L 279.055222 84.113178 
L 278.337622 84.113178 
L 277.620023 84.113178 
L 276.902423 84.113178 
L 276.184824 84.113178 
L 275.467225 84.113178 
L 274.749625 84.113178 
L 274.032026 84.113178 
L 273.314426 84.113178 
L 272.596827 84.113178 
L 271.879228 84.113178 
L 271.161628 84.113178 
L 270.444029 84.113178 
L 269.726429 84.113178 
L 269.00883 84.113178 
L 268.291231 84.113178 
L 267.573631 84.113178 
L 266.856032 84.113178 
L 266.138433 84.113178 
L 265.420833 84.113178 
L 264.703234 84.113178 
L 263.985634 84.113178 
L 263.268035 84.113178 
L 262.550436 84.113178 
L 261.832836 84.113178 
L 261.115237 84.113178 
L 260.397637 84.113178 
L 259.680038 84.113178 
L 258.962439 84.113178 
L 258.244839 84.113178 
L 257.52724 84.113178 
L 256.80964 84.113178 
L 256.092041 84.113178 
L 255.374442 84.113178 
L 254.656842 84.113178 
L 253.939243 84.113178 
L 253.221643 84.113178 
L 252.504044 84.113178 
L 251.786445 84.113178 
L 251.068845 84.113178 
L 250.351246 84.113178 
L 249.633646 84.113178 
L 248.916047 84.113178 
L 248.198448 84.113178 
L 247.480848 84.113178 
L 246.763249 84.113178 
L 246.04565 84.113178 
L 245.32805 84.113178 
L 244.610451 84.113178 
L 243.892851 84.113178 
L 243.175252 84.113178 
L 242.457653 84.113178 
L 241.740053 84.113178 
L 241.022454 84.113178 
L 240.304854 84.113178 
z
" clip-path="url(#p091321f438)" style="fill: #008000; fill-opacity: 0.3"/>
    <path d="M 388.847929 84.113178 
L 388.847929 84.017294 
L 389.565528 84.037119 
L 389.565528 84.113178 
L 389.565528 84.113178 
L 388.847929 84.113178 
z
" clip-path="url(#p091321f438)" style="fill: #008000; fill-opacity: 0.3"/>
    <path d="M 391.000727 84.113178 
L 391.000727 84.093533 
L 391.718326 84.071364 
L 392.435926 84.026666 
L 393.153525 83.982148 
L 393.871124 83.967369 
L 394.588724 83.952409 
L 395.306323 83.93763 
L 396.023923 83.915281 
L 396.741522 83.892932 
L 397.459121 83.870763 
L 398.176721 83.848414 
L 398.89432 84.005398 
L 398.89432 84.113178 
L 398.89432 84.113178 
L 398.176721 84.113178 
L 397.459121 84.113178 
L 396.741522 84.113178 
L 396.023923 84.113178 
L 395.306323 84.113178 
L 394.588724 84.113178 
L 393.871124 84.113178 
L 393.153525 84.113178 
L 392.435926 84.113178 
L 391.718326 84.113178 
L 391.000727 84.113178 
z
" clip-path="url(#p091321f438)" style="fill: #008000; fill-opacity: 0.3"/>
   </g>
   <g id="PolyCollection_4">
    <path d="M 232.411261 84.113178 
L 232.411261 84.299361 
L 233.12886 84.434536 
L 233.84646 84.524473 
L 234.564059 84.614591 
L 235.281659 84.704528 
L 235.999258 84.74472 
L 236.716857 84.784732 
L 237.434457 84.804918 
L 238.152056 84.824924 
L 238.869656 84.503026 
L 239.587255 84.181127 
L 239.587255 84.113178 
L 239.587255 84.113178 
L 238.869656 84.113178 
L 238.152056 84.113178 
L 237.434457 84.113178 
L 236.716857 84.113178 
L 235.999258 84.113178 
L 235.281659 84.113178 
L 234.564059 84.113178 
L 233.84646 84.113178 
L 233.12886 84.113178 
L 232.411261 84.113178 
z
" clip-path="url(#p091321f438)" style="fill: #ff0000; fill-opacity: 0.3"/>
    <path d="M 316.37039 84.113178 
L 316.37039 84.146342 
L 317.087989 84.162743 
L 317.805589 84.179144 
L 318.523188 84.211947 
L 319.240788 84.228348 
L 319.958387 84.24475 
L 320.675986 84.277552 
L 321.393586 84.250337 
L 322.111185 84.241145 
L 322.828785 84.232133 
L 323.546384 84.223121 
L 324.263983 84.195726 
L 324.263983 84.113178 
L 324.263983 84.113178 
L 323.546384 84.113178 
L 322.828785 84.113178 
L 322.111185 84.113178 
L 321.393586 84.113178 
L 320.675986 84.113178 
L 319.958387 84.113178 
L 319.240788 84.113178 
L 318.523188 84.113178 
L 317.805589 84.113178 
L 317.087989 84.113178 
L 316.37039 84.113178 
z
" clip-path="url(#p091321f438)" style="fill: #ff0000; fill-opacity: 0.3"/>
    <path d="M 390.283127 84.113178 
L 390.283127 84.115882 
L 390.283127 84.113178 
L 390.283127 84.113178 
z
" clip-path="url(#p091321f438)" style="fill: #ff0000; fill-opacity: 0.3"/>
    <path d="M 399.611919 84.113178 
L 399.611919 84.162382 
L 400.329519 84.240784 
L 401.047118 84.319186 
L 401.764718 84.476171 
L 402.482317 84.633155 
L 403.199916 84.790139 
L 403.917516 84.946943 
L 404.635115 85.025525 
L 405.352715 85.103927 
L 406.070314 85.260911 
L 406.787913 85.380948 
L 407.505513 85.500984 
L 408.223112 85.62084 
L 408.940712 85.740876 
L 409.658311 85.860912 
L 410.37591 85.900924 
L 411.09351 85.940936 
L 411.811109 85.980948 
L 412.528709 86.040966 
L 413.246308 86.100984 
L 413.963907 86.22102 
L 414.681507 86.340876 
L 415.399106 86.460912 
L 416.116705 86.520931 
L 416.834305 86.580949 
L 417.551904 86.572297 
L 418.269504 86.563466 
L 418.987103 86.554815 
L 419.704702 86.550489 
L 420.422302 86.546163 
L 421.139901 86.537512 
L 421.857501 86.533006 
L 422.5751 86.528681 
L 423.292699 86.520029 
L 424.010299 86.511378 
L 424.727898 86.506872 
L 425.445498 86.502547 
L 426.163097 86.493895 
L 426.880696 86.455866 
L 427.598296 86.418017 
L 428.315895 86.398912 
L 429.033495 86.379987 
L 429.751094 86.367371 
L 430.468693 86.354754 
L 431.186293 86.341958 
L 431.903892 86.323033 
L 432.621492 86.304108 
L 433.339091 86.266079 
L 433.339091 84.113178 
L 433.339091 84.113178 
L 432.621492 84.113178 
L 431.903892 84.113178 
L 431.186293 84.113178 
L 430.468693 84.113178 
L 429.751094 84.113178 
L 429.033495 84.113178 
L 428.315895 84.113178 
L 427.598296 84.113178 
L 426.880696 84.113178 
L 426.163097 84.113178 
L 425.445498 84.113178 
L 424.727898 84.113178 
L 424.010299 84.113178 
L 423.292699 84.113178 
L 422.5751 84.113178 
L 421.857501 84.113178 
L 421.139901 84.113178 
L 420.422302 84.113178 
L 419.704702 84.113178 
L 418.987103 84.113178 
L 418.269504 84.113178 
L 417.551904 84.113178 
L 416.834305 84.113178 
L 416.116705 84.113178 
L 415.399106 84.113178 
L 414.681507 84.113178 
L 413.963907 84.113178 
L 413.246308 84.113178 
L 412.528709 84.113178 
L 411.811109 84.113178 
L 411.09351 84.113178 
L 410.37591 84.113178 
L 409.658311 84.113178 
L 408.940712 84.113178 
L 408.223112 84.113178 
L 407.505513 84.113178 
L 406.787913 84.113178 
L 406.070314 84.113178 
L 405.352715 84.113178 
L 404.635115 84.113178 
L 403.917516 84.113178 
L 403.199916 84.113178 
L 402.482317 84.113178 
L 401.764718 84.113178 
L 401.047118 84.113178 
L 400.329519 84.113178 
L 399.611919 84.113178 
z
" clip-path="url(#p091321f438)" style="fill: #ff0000; fill-opacity: 0.3"/>
   </g>
   <g id="matplotlib.axis_2">
    <g id="ytick_3">
     <g id="line2d_7">
      <path d="M 162.84 84.113178 
L 446.22 84.113178 
" clip-path="url(#p091321f438)" style="fill: none; stroke: #b0b0b0; stroke-width: 0.8; stroke-linecap: square"/>
     </g>
     <g id="line2d_8">
      <g>
       <use xlink:href="#mab086c7bd3" x="162.84" y="84.113178" style="stroke: #000000; stroke-width: 0.8"/>
      </g>
     </g>
     <g id="text_5">
      <!-- 0 -->
      <g transform="translate(147.250625 89.242124) scale(0.135 -0.135)">
       <use xlink:href="#DejaVuSans-30"/>
      </g>
     </g>
    </g>
    <g id="ytick_4">
     <g id="line2d_9">
      <path d="M 162.84 66.089733 
L 446.22 66.089733 
" clip-path="url(#p091321f438)" style="fill: none; stroke: #b0b0b0; stroke-width: 0.8; stroke-linecap: square"/>
     </g>
     <g id="line2d_10">
      <g>
       <use xlink:href="#mab086c7bd3" x="162.84" y="66.089733" style="stroke: #000000; stroke-width: 0.8"/>
      </g>
     </g>
     <g id="text_6">
      <!-- 1000 -->
      <g transform="translate(121.4825 71.218678) scale(0.135 -0.135)">
       <use xlink:href="#DejaVuSans-31"/>
       <use xlink:href="#DejaVuSans-30" x="63.623047"/>
       <use xlink:href="#DejaVuSans-30" x="127.246094"/>
       <use xlink:href="#DejaVuSans-30" x="190.869141"/>
      </g>
     </g>
    </g>
    <g id="text_7">
     <!-- PEU_1-2 [kW] -->
     <g transform="translate(25.812422 73.042171) scale(0.135 -0.135)">
      <defs>
       <path id="DejaVuSans-45" d="M 628 4666 
L 3578 4666 
L 3578 4134 
L 1259 4134 
L 1259 2753 
L 3481 2753 
L 3481 2222 
L 1259 2222 
L 1259 531 
L 3634 531 
L 3634 0 
L 628 0 
L 628 4666 
z
" transform="scale(0.015625)"/>
       <path id="DejaVuSans-55" d="M 556 4666 
L 1191 4666 
L 1191 1831 
Q 1191 1081 1462 751 
Q 1734 422 2344 422 
Q 2950 422 3222 751 
Q 3494 1081 3494 1831 
L 3494 4666 
L 4128 4666 
L 4128 1753 
Q 4128 841 3676 375 
Q 3225 -91 2344 -91 
Q 1459 -91 1007 375 
Q 556 841 556 1753 
L 556 4666 
z
" transform="scale(0.015625)"/>
       <path id="DejaVuSans-5f" d="M 3263 -1063 
L 3263 -1509 
L -63 -1509 
L -63 -1063 
L 3263 -1063 
z
" transform="scale(0.015625)"/>
       <path id="DejaVuSans-2d" d="M 313 2009 
L 1997 2009 
L 1997 1497 
L 313 1497 
L 313 2009 
z
" transform="scale(0.015625)"/>
       <path id="DejaVuSans-32" d="M 1228 531 
L 3431 531 
L 3431 0 
L 469 0 
L 469 531 
Q 828 903 1448 1529 
Q 2069 2156 2228 2338 
Q 2531 2678 2651 2914 
Q 2772 3150 2772 3378 
Q 2772 3750 2511 3984 
Q 2250 4219 1831 4219 
Q 1534 4219 1204 4116 
Q 875 4013 500 3803 
L 500 4441 
Q 881 4594 1212 4672 
Q 1544 4750 1819 4750 
Q 2544 4750 2975 4387 
Q 3406 4025 3406 3419 
Q 3406 3131 3298 2873 
Q 3191 2616 2906 2266 
Q 2828 2175 2409 1742 
Q 1991 1309 1228 531 
z
" transform="scale(0.015625)"/>
      </defs>
      <use xlink:href="#DejaVuSans-50"/>
      <use xlink:href="#DejaVuSans-45" x="60.302734"/>
      <use xlink:href="#DejaVuSans-55" x="123.486328"/>
      <use xlink:href="#DejaVuSans-5f" x="196.679688"/>
      <use xlink:href="#DejaVuSans-31" x="246.679688"/>
      <use xlink:href="#DejaVuSans-2d" x="310.302734"/>
      <use xlink:href="#DejaVuSans-32" x="346.386719"/>
      <use xlink:href="#DejaVuSans-20" x="410.009766"/>
      <use xlink:href="#DejaVuSans-5b" x="441.796875"/>
      <use xlink:href="#DejaVuSans-6b" x="480.810547"/>
      <use xlink:href="#DejaVuSans-57" x="538.720703"/>
      <use xlink:href="#DejaVuSans-5d" x="637.597656"/>
     </g>
    </g>
   </g>
   <g id="line2d_11">
    <path d="M 175.720909 84.113178 
L 231.693662 84.113178 
L 233.12886 84.434536 
L 236.716857 84.784732 
L 238.152056 84.824924 
L 240.304854 83.956915 
L 241.740053 83.508492 
L 242.457653 82.835857 
L 243.892851 81.181305 
L 245.32805 80.075386 
L 247.480848 76.90362 
L 249.633646 74.162074 
L 253.221643 70.063902 
L 254.656842 67.593249 
L 256.092041 67.162308 
L 258.244839 65.869486 
L 260.397637 66.730466 
L 261.832836 68.452426 
L 263.268035 69.313406 
L 266.138433 72.395956 
L 268.291231 73.829361 
L 269.00883 75.262765 
L 271.879228 76.005331 
L 273.314426 76.323445 
L 276.184824 77.066011 
L 279.055222 77.596441 
L 282.643219 78.298094 
L 284.078417 78.531858 
L 286.231215 78.921705 
L 287.666414 79.155649 
L 289.101613 79.36346 
L 293.407209 79.78611 
L 296.277607 80.328435 
L 298.430405 80.599508 
L 300.583203 80.982866 
L 303.453601 81.366225 
L 306.323998 82.061029 
L 307.041598 82.160338 
L 309.194396 82.796025 
L 311.347194 83.0078 
L 314.935191 83.961061 
L 317.087989 84.162743 
L 323.546384 84.223121 
L 329.287179 84.113178 
L 392.435926 84.026666 
L 396.023923 83.915281 
L 398.176721 83.848414 
L 400.329519 84.240784 
L 401.764718 84.476171 
L 404.635115 85.025525 
L 406.070314 85.260911 
L 410.37591 85.900924 
L 413.246308 86.100984 
L 416.116705 86.520931 
L 417.551904 86.572297 
L 432.621492 86.304108 
L 433.339091 86.266079 
L 433.339091 86.266079 
" clip-path="url(#p091321f438)" style="fill: none; stroke: #1f77b4; stroke-width: 1.5; stroke-linecap: square"/>
   </g>
   <g id="line2d_12">
    <path d="M 162.84 84.113178 
L 446.22 84.113178 
" clip-path="url(#p091321f438)" style="fill: none; stroke: #000000; stroke-width: 1.5; stroke-linecap: square"/>
   </g>
   <g id="patch_8">
    <path d="M 162.84 87.616522 
L 162.84 64.833913 
" style="fill: none; stroke: #000000; stroke-width: 0.8; stroke-linejoin: miter; stroke-linecap: square"/>
   </g>
   <g id="patch_9">
    <path d="M 446.22 87.616522 
L 446.22 64.833913 
" style="fill: none; stroke: #000000; stroke-width: 0.8; stroke-linejoin: miter; stroke-linecap: square"/>
   </g>
   <g id="patch_10">
    <path d="M 162.84 87.616522 
L 446.22 87.616522 
" style="fill: none; stroke: #000000; stroke-width: 0.8; stroke-linejoin: miter; stroke-linecap: square"/>
   </g>
   <g id="patch_11">
    <path d="M 162.84 64.833913 
L 446.22 64.833913 
" style="fill: none; stroke: #000000; stroke-width: 0.8; stroke-linejoin: miter; stroke-linecap: square"/>
   </g>
  </g>
  <g id="axes_3">
   <g id="patch_12">
    <path d="M 162.84 121.790435 
L 446.22 121.790435 
L 446.22 99.007826 
L 162.84 99.007826 
z
" style="fill: #ffffff"/>
   </g>
   <g id="PolyCollection_5">
    <path d="M 232.411261 101.028706 
L 232.411261 100.856986 
L 233.12886 100.841123 
L 233.84646 100.833389 
L 234.564059 100.825458 
L 235.281659 100.817724 
L 235.999258 100.794326 
L 236.716857 100.770729 
L 237.434457 100.75903 
L 238.152056 100.747331 
L 238.869656 100.723933 
L 239.587255 100.959106 
L 239.587255 101.028706 
L 239.587255 101.028706 
L 238.869656 101.028706 
L 238.152056 101.028706 
L 237.434457 101.028706 
L 236.716857 101.028706 
L 235.999258 101.028706 
L 235.281659 101.028706 
L 234.564059 101.028706 
L 233.84646 101.028706 
L 233.12886 101.028706 
L 232.411261 101.028706 
z
" clip-path="url(#pb4649e1fb2)" style="fill: #008000; fill-opacity: 0.3"/>
    <path d="M 317.805589 101.028706 
L 317.805589 100.904179 
L 318.523188 100.47369 
L 319.240788 100.258545 
L 319.958387 100.043399 
L 320.675986 100.287693 
L 321.393586 100.531987 
L 322.111185 100.613485 
L 322.828785 100.694784 
L 323.546384 100.776282 
L 324.263983 100.859167 
L 324.263983 101.028706 
L 324.263983 101.028706 
L 323.546384 101.028706 
L 322.828785 101.028706 
L 322.111185 101.028706 
L 321.393586 101.028706 
L 320.675986 101.028706 
L 319.958387 101.028706 
L 319.240788 101.028706 
L 318.523188 101.028706 
L 317.805589 101.028706 
z
" clip-path="url(#pb4649e1fb2)" style="fill: #008000; fill-opacity: 0.3"/>
    <path d="M 388.847929 101.028706 
L 388.847929 100.833786 
L 389.565528 100.807215 
L 390.283127 100.700535 
L 391.000727 100.647194 
L 391.718326 100.593854 
L 392.435926 100.447516 
L 393.153525 100.301375 
L 393.871124 100.252596 
L 394.588724 100.203816 
L 395.306323 100.155037 
L 396.023923 100.345396 
L 396.741522 100.535755 
L 397.459121 100.726114 
L 398.176721 100.916473 
L 398.176721 101.028706 
L 398.176721 101.028706 
L 397.459121 101.028706 
L 396.741522 101.028706 
L 396.023923 101.028706 
L 395.306323 101.028706 
L 394.588724 101.028706 
L 393.871124 101.028706 
L 393.153525 101.028706 
L 392.435926 101.028706 
L 391.718326 101.028706 
L 391.000727 101.028706 
L 390.283127 101.028706 
L 389.565528 101.028706 
L 388.847929 101.028706 
z
" clip-path="url(#pb4649e1fb2)" style="fill: #008000; fill-opacity: 0.3"/>
   </g>
   <g id="PolyCollection_6">
    <path d="M 240.304854 101.028706 
L 240.304854 101.03743 
L 241.022454 101.115755 
L 241.740053 101.194278 
L 242.457653 101.429253 
L 243.175252 101.664426 
L 243.892851 102.101657 
L 244.610451 102.320371 
L 245.32805 102.538888 
L 246.04565 102.976317 
L 246.763249 103.413548 
L 247.480848 103.850779 
L 248.198448 104.312994 
L 248.916047 104.77521 
L 249.633646 104.929282 
L 250.351246 105.083354 
L 251.068845 105.237426 
L 251.786445 105.699641 
L 252.504044 106.297884 
L 253.221643 106.896127 
L 253.939243 107.49437 
L 254.656842 107.60343 
L 255.374442 107.65796 
L 256.092041 107.712688 
L 256.80964 107.821748 
L 257.52724 107.930808 
L 258.244839 107.274466 
L 258.962439 107.055553 
L 259.680038 106.836838 
L 260.397637 106.617925 
L 261.115237 106.289754 
L 261.832836 105.961583 
L 262.550436 105.797398 
L 263.268035 105.633214 
L 263.985634 105.305043 
L 264.703234 104.915996 
L 265.420833 104.527148 
L 266.138433 104.138102 
L 266.856032 104.154163 
L 267.573631 104.170225 
L 268.291231 104.186287 
L 269.00883 104.234669 
L 269.726429 104.282854 
L 270.444029 104.671504 
L 271.161628 105.060154 
L 271.879228 105.254479 
L 272.596827 105.448803 
L 273.314426 106.079566 
L 274.032026 106.71013 
L 274.749625 108.364271 
L 275.467225 109.170125 
L 276.184824 109.572853 
L 276.902423 109.97578 
L 277.620023 110.556375 
L 278.337622 110.846673 
L 279.055222 111.136772 
L 279.772821 111.717367 
L 280.49042 113.404622 
L 281.20802 114.310414 
L 281.925619 115.216206 
L 282.643219 116.087297 
L 283.360818 116.95819 
L 284.078417 117.495161 
L 284.796017 118.032132 
L 285.513616 118.569103 
L 286.231215 119.04282 
L 286.948815 119.516536 
L 287.666414 120.463969 
L 288.384014 120.560933 
L 289.101613 120.593255 
L 289.819212 120.625576 
L 290.536812 120.657898 
L 291.254411 120.754862 
L 291.972011 120.511757 
L 292.68961 120.268653 
L 293.407209 120.025549 
L 294.124809 119.296037 
L 294.842408 117.936556 
L 295.560008 117.037308 
L 296.277607 116.737492 
L 296.995206 116.437677 
L 297.712806 116.137861 
L 298.430405 115.238613 
L 299.148005 113.690756 
L 299.865604 112.1427 
L 300.583203 111.745128 
L 301.300803 111.347555 
L 302.018402 110.552211 
L 302.736002 110.259732 
L 303.453601 109.967253 
L 304.1712 109.382296 
L 304.8888 108.797338 
L 305.606399 108.212381 
L 306.323998 107.894719 
L 307.041598 107.577057 
L 307.759197 106.941536 
L 308.476797 106.306212 
L 309.194396 105.36334 
L 309.911995 105.048851 
L 310.629595 104.73456 
L 311.347194 104.42027 
L 312.064794 103.788119 
L 312.782393 103.156166 
L 313.499992 102.524016 
L 314.217592 102.119106 
L 314.935191 101.714197 
L 315.652791 101.511543 
L 316.37039 101.309089 
L 317.087989 101.106634 
L 317.087989 101.028706 
L 317.087989 101.028706 
L 316.37039 101.028706 
L 315.652791 101.028706 
L 314.935191 101.028706 
L 314.217592 101.028706 
L 313.499992 101.028706 
L 312.782393 101.028706 
L 312.064794 101.028706 
L 311.347194 101.028706 
L 310.629595 101.028706 
L 309.911995 101.028706 
L 309.194396 101.028706 
L 308.476797 101.028706 
L 307.759197 101.028706 
L 307.041598 101.028706 
L 306.323998 101.028706 
L 305.606399 101.028706 
L 304.8888 101.028706 
L 304.1712 101.028706 
L 303.453601 101.028706 
L 302.736002 101.028706 
L 302.018402 101.028706 
L 301.300803 101.028706 
L 300.583203 101.028706 
L 299.865604 101.028706 
L 299.148005 101.028706 
L 298.430405 101.028706 
L 297.712806 101.028706 
L 296.995206 101.028706 
L 296.277607 101.028706 
L 295.560008 101.028706 
L 294.842408 101.028706 
L 294.124809 101.028706 
L 293.407209 101.028706 
L 292.68961 101.028706 
L 291.972011 101.028706 
L 291.254411 101.028706 
L 290.536812 101.028706 
L 289.819212 101.028706 
L 289.101613 101.028706 
L 288.384014 101.028706 
L 287.666414 101.028706 
L 286.948815 101.028706 
L 286.231215 101.028706 
L 285.513616 101.028706 
L 284.796017 101.028706 
L 284.078417 101.028706 
L 283.360818 101.028706 
L 282.643219 101.028706 
L 281.925619 101.028706 
L 281.20802 101.028706 
L 280.49042 101.028706 
L 279.772821 101.028706 
L 279.055222 101.028706 
L 278.337622 101.028706 
L 277.620023 101.028706 
L 276.902423 101.028706 
L 276.184824 101.028706 
L 275.467225 101.028706 
L 274.749625 101.028706 
L 274.032026 101.028706 
L 273.314426 101.028706 
L 272.596827 101.028706 
L 271.879228 101.028706 
L 271.161628 101.028706 
L 270.444029 101.028706 
L 269.726429 101.028706 
L 269.00883 101.028706 
L 268.291231 101.028706 
L 267.573631 101.028706 
L 266.856032 101.028706 
L 266.138433 101.028706 
L 265.420833 101.028706 
L 264.703234 101.028706 
L 263.985634 101.028706 
L 263.268035 101.028706 
L 262.550436 101.028706 
L 261.832836 101.028706 
L 261.115237 101.028706 
L 260.397637 101.028706 
L 259.680038 101.028706 
L 258.962439 101.028706 
L 258.244839 101.028706 
L 257.52724 101.028706 
L 256.80964 101.028706 
L 256.092041 101.028706 
L 255.374442 101.028706 
L 254.656842 101.028706 
L 253.939243 101.028706 
L 253.221643 101.028706 
L 252.504044 101.028706 
L 251.786445 101.028706 
L 251.068845 101.028706 
L 250.351246 101.028706 
L 249.633646 101.028706 
L 248.916047 101.028706 
L 248.198448 101.028706 
L 247.480848 101.028706 
L 246.763249 101.028706 
L 246.04565 101.028706 
L 245.32805 101.028706 
L 244.610451 101.028706 
L 243.892851 101.028706 
L 243.175252 101.028706 
L 242.457653 101.028706 
L 241.740053 101.028706 
L 241.022454 101.028706 
L 240.304854 101.028706 
z
" clip-path="url(#pb4649e1fb2)" style="fill: #ff0000; fill-opacity: 0.3"/>
    <path d="M 398.89432 101.028706 
L 398.89432 101.297191 
L 399.611919 102.402067 
L 400.329519 102.954307 
L 401.047118 103.506744 
L 401.764718 104.041138 
L 402.482317 104.575729 
L 403.199916 105.110123 
L 403.917516 105.91201 
L 404.635115 106.312756 
L 405.352715 106.7137 
L 406.070314 107.515587 
L 406.787913 108.317276 
L 407.505513 109.278788 
L 408.223112 110.240101 
L 408.940712 110.765373 
L 409.658311 111.290447 
L 410.37591 111.465538 
L 411.09351 111.640628 
L 411.811109 111.815719 
L 412.528709 112.177798 
L 413.246308 112.540075 
L 413.963907 113.264233 
L 414.681507 113.521416 
L 415.399106 113.778599 
L 416.116705 113.907289 
L 416.834305 114.035782 
L 417.551904 114.292965 
L 418.269504 114.001081 
L 418.987103 113.709395 
L 419.704702 113.563453 
L 420.422302 113.417511 
L 421.139901 113.092711 
L 421.857501 112.930311 
L 422.5751 112.767911 
L 423.292699 112.422092 
L 424.010299 112.076471 
L 424.727898 111.903562 
L 425.445498 111.730652 
L 426.163097 111.384833 
L 426.880696 111.039213 
L 427.598296 110.693394 
L 428.315895 110.353325 
L 429.033495 110.013257 
L 429.751094 109.786412 
L 430.468693 109.559766 
L 431.186293 109.332921 
L 431.903892 109.332921 
L 432.621492 109.332921 
L 433.339091 109.332921 
L 433.339091 101.028706 
L 433.339091 101.028706 
L 432.621492 101.028706 
L 431.903892 101.028706 
L 431.186293 101.028706 
L 430.468693 101.028706 
L 429.751094 101.028706 
L 429.033495 101.028706 
L 428.315895 101.028706 
L 427.598296 101.028706 
L 426.880696 101.028706 
L 426.163097 101.028706 
L 425.445498 101.028706 
L 424.727898 101.028706 
L 424.010299 101.028706 
L 423.292699 101.028706 
L 422.5751 101.028706 
L 421.857501 101.028706 
L 421.139901 101.028706 
L 420.422302 101.028706 
L 419.704702 101.028706 
L 418.987103 101.028706 
L 418.269504 101.028706 
L 417.551904 101.028706 
L 416.834305 101.028706 
L 416.116705 101.028706 
L 415.399106 101.028706 
L 414.681507 101.028706 
L 413.963907 101.028706 
L 413.246308 101.028706 
L 412.528709 101.028706 
L 411.811109 101.028706 
L 411.09351 101.028706 
L 410.37591 101.028706 
L 409.658311 101.028706 
L 408.940712 101.028706 
L 408.223112 101.028706 
L 407.505513 101.028706 
L 406.787913 101.028706 
L 406.070314 101.028706 
L 405.352715 101.028706 
L 404.635115 101.028706 
L 403.917516 101.028706 
L 403.199916 101.028706 
L 402.482317 101.028706 
L 401.764718 101.028706 
L 401.047118 101.028706 
L 400.329519 101.028706 
L 399.611919 101.028706 
L 398.89432 101.028706 
z
" clip-path="url(#pb4649e1fb2)" style="fill: #ff0000; fill-opacity: 0.3"/>
   </g>
   <g id="matplotlib.axis_3">
    <g id="ytick_5">
     <g id="line2d_13">
      <path d="M 162.84 120.857775 
L 446.22 120.857775 
" clip-path="url(#pb4649e1fb2)" style="fill: none; stroke: #b0b0b0; stroke-width: 0.8; stroke-linecap: square"/>
     </g>
     <g id="line2d_14">
      <g>
       <use xlink:href="#mab086c7bd3" x="162.84" y="120.857775" style="stroke: #000000; stroke-width: 0.8"/>
      </g>
     </g>
     <g id="text_8">
      <!-- −1000 -->
      <g transform="translate(110.169922 125.98672) scale(0.135 -0.135)">
       <defs>
        <path id="DejaVuSans-2212" d="M 678 2272 
L 4684 2272 
L 4684 1741 
L 678 1741 
L 678 2272 
z
" transform="scale(0.015625)"/>
       </defs>
       <use xlink:href="#DejaVuSans-2212"/>
       <use xlink:href="#DejaVuSans-31" x="83.789062"/>
       <use xlink:href="#DejaVuSans-30" x="147.412109"/>
       <use xlink:href="#DejaVuSans-30" x="211.035156"/>
       <use xlink:href="#DejaVuSans-30" x="274.658203"/>
      </g>
     </g>
    </g>
    <g id="ytick_6">
     <g id="line2d_15">
      <path d="M 162.84 101.028706 
L 446.22 101.028706 
" clip-path="url(#pb4649e1fb2)" style="fill: none; stroke: #b0b0b0; stroke-width: 0.8; stroke-linecap: square"/>
     </g>
     <g id="line2d_16">
      <g>
       <use xlink:href="#mab086c7bd3" x="162.84" y="101.028706" style="stroke: #000000; stroke-width: 0.8"/>
      </g>
     </g>
     <g id="text_9">
      <!-- 0 -->
      <g transform="translate(147.250625 106.157651) scale(0.135 -0.135)">
       <use xlink:href="#DejaVuSans-30"/>
      </g>
     </g>
    </g>
    <g id="text_10">
     <!-- PEU_1-4 [kW] -->
     <g transform="translate(14.499844 107.216084) scale(0.135 -0.135)">
      <defs>
       <path id="DejaVuSans-34" d="M 2419 4116 
L 825 1625 
L 2419 1625 
L 2419 4116 
z
M 2253 4666 
L 3047 4666 
L 3047 1625 
L 3713 1625 
L 3713 1100 
L 3047 1100 
L 3047 0 
L 2419 0 
L 2419 1100 
L 313 1100 
L 313 1709 
L 2253 4666 
z
" transform="scale(0.015625)"/>
      </defs>
      <use xlink:href="#DejaVuSans-50"/>
      <use xlink:href="#DejaVuSans-45" x="60.302734"/>
      <use xlink:href="#DejaVuSans-55" x="123.486328"/>
      <use xlink:href="#DejaVuSans-5f" x="196.679688"/>
      <use xlink:href="#DejaVuSans-31" x="246.679688"/>
      <use xlink:href="#DejaVuSans-2d" x="310.302734"/>
      <use xlink:href="#DejaVuSans-34" x="346.386719"/>
      <use xlink:href="#DejaVuSans-20" x="410.009766"/>
      <use xlink:href="#DejaVuSans-5b" x="441.796875"/>
      <use xlink:href="#DejaVuSans-6b" x="480.810547"/>
      <use xlink:href="#DejaVuSans-57" x="538.720703"/>
      <use xlink:href="#DejaVuSans-5d" x="637.597656"/>
     </g>
    </g>
   </g>
   <g id="line2d_17">
    <path d="M 175.720909 101.028706 
L 231.693662 101.028706 
L 232.411261 100.856986 
L 238.869656 100.723933 
L 239.587255 100.959106 
L 241.740053 101.194278 
L 243.175252 101.664426 
L 243.892851 102.101657 
L 245.32805 102.538888 
L 248.916047 104.77521 
L 251.068845 105.237426 
L 251.786445 105.699641 
L 253.939243 107.49437 
L 257.52724 107.930808 
L 258.244839 107.274466 
L 261.115237 106.289754 
L 261.832836 105.961583 
L 263.268035 105.633214 
L 265.420833 104.527148 
L 266.138433 104.138102 
L 269.726429 104.282854 
L 271.161628 105.060154 
L 272.596827 105.448803 
L 274.032026 106.71013 
L 274.749625 108.364271 
L 275.467225 109.170125 
L 276.902423 109.97578 
L 277.620023 110.556375 
L 279.055222 111.136772 
L 279.772821 111.717367 
L 280.49042 113.404622 
L 283.360818 116.95819 
L 286.948815 119.516536 
L 287.666414 120.463969 
L 289.101613 120.593255 
L 291.254411 120.754862 
L 293.407209 120.025549 
L 294.124809 119.296037 
L 294.842408 117.936556 
L 295.560008 117.037308 
L 297.712806 116.137861 
L 298.430405 115.238613 
L 299.865604 112.1427 
L 301.300803 111.347555 
L 302.018402 110.552211 
L 303.453601 109.967253 
L 305.606399 108.212381 
L 307.041598 107.577057 
L 308.476797 106.306212 
L 309.194396 105.36334 
L 311.347194 104.42027 
L 313.499992 102.524016 
L 314.935191 101.714197 
L 317.805589 100.904179 
L 318.523188 100.47369 
L 319.958387 100.043399 
L 321.393586 100.531987 
L 326.416781 101.028706 
L 388.130329 101.028706 
L 388.847929 100.833786 
L 391.000727 100.647194 
L 392.435926 100.447516 
L 393.871124 100.252596 
L 395.306323 100.155037 
L 398.176721 100.916473 
L 398.89432 101.297191 
L 399.611919 102.402067 
L 403.199916 105.110123 
L 403.917516 105.91201 
L 405.352715 106.7137 
L 407.505513 109.278788 
L 408.223112 110.240101 
L 409.658311 111.290447 
L 411.811109 111.815719 
L 413.246308 112.540075 
L 413.963907 113.264233 
L 415.399106 113.778599 
L 416.834305 114.035782 
L 417.551904 114.292965 
L 418.987103 113.709395 
L 420.422302 113.417511 
L 421.139901 113.092711 
L 422.5751 112.767911 
L 424.010299 112.076471 
L 425.445498 111.730652 
L 429.033495 110.013257 
L 431.186293 109.332921 
L 433.339091 109.332921 
L 433.339091 109.332921 
" clip-path="url(#pb4649e1fb2)" style="fill: none; stroke: #1f77b4; stroke-width: 1.5; stroke-linecap: square"/>
   </g>
   <g id="line2d_18">
    <path d="M 162.84 101.028706 
L 446.22 101.028706 
" clip-path="url(#pb4649e1fb2)" style="fill: none; stroke: #000000; stroke-width: 1.5; stroke-linecap: square"/>
   </g>
   <g id="patch_13">
    <path d="M 162.84 121.790435 
L 162.84 99.007826 
" style="fill: none; stroke: #000000; stroke-width: 0.8; stroke-linejoin: miter; stroke-linecap: square"/>
   </g>
   <g id="patch_14">
    <path d="M 446.22 121.790435 
L 446.22 99.007826 
" style="fill: none; stroke: #000000; stroke-width: 0.8; stroke-linejoin: miter; stroke-linecap: square"/>
   </g>
   <g id="patch_15">
    <path d="M 162.84 121.790435 
L 446.22 121.790435 
" style="fill: none; stroke: #000000; stroke-width: 0.8; stroke-linejoin: miter; stroke-linecap: square"/>
   </g>
   <g id="patch_16">
    <path d="M 162.84 99.007826 
L 446.22 99.007826 
" style="fill: none; stroke: #000000; stroke-width: 0.8; stroke-linejoin: miter; stroke-linecap: square"/>
   </g>
  </g>
  <g id="axes_4">
   <g id="patch_17">
    <path d="M 162.84 155.964348 
L 446.22 155.964348 
L 446.22 133.181739 
L 162.84 133.181739 
z
" style="fill: #ffffff"/>
   </g>
   <g id="PolyCollection_7">
    <path d="M 232.411261 145.153266 
L 232.411261 144.621819 
L 233.12886 144.489556 
L 233.84646 144.401281 
L 234.564059 144.313006 
L 235.281659 144.22473 
L 235.999258 143.959905 
L 236.716857 143.695079 
L 237.434457 143.88719 
L 238.152056 144.0796 
L 238.869656 144.464121 
L 239.587255 144.848642 
L 240.304854 144.976716 
L 241.022454 145.105089 
L 241.022454 145.153266 
L 241.022454 145.153266 
L 240.304854 145.153266 
L 239.587255 145.153266 
L 238.869656 145.153266 
L 238.152056 145.153266 
L 237.434457 145.153266 
L 236.716857 145.153266 
L 235.999258 145.153266 
L 235.281659 145.153266 
L 234.564059 145.153266 
L 233.84646 145.153266 
L 233.12886 145.153266 
L 232.411261 145.153266 
z
" clip-path="url(#pc2e165c382)" style="fill: #008000; fill-opacity: 0.3"/>
    <path d="M 275.467225 145.153266 
L 275.467225 144.760366 
L 276.184824 144.450954 
L 276.902423 144.141841 
L 277.620023 143.523316 
L 278.337622 143.213904 
L 279.055222 142.904791 
L 279.772821 142.286266 
L 280.49042 141.667741 
L 281.20802 141.049216 
L 281.925619 140.430691 
L 282.643219 139.867824 
L 283.360818 139.304958 
L 284.078417 138.179224 
L 284.796017 137.486488 
L 285.513616 136.793752 
L 286.231215 136.447234 
L 286.948815 136.101016 
L 287.666414 135.159014 
L 288.384014 134.217312 
L 289.101613 134.263694 
L 289.819212 134.310375 
L 290.536812 134.356757 
L 291.254411 134.496202 
L 291.972011 134.542584 
L 292.68961 134.589265 
L 293.407209 134.635647 
L 294.124809 135.135375 
L 294.842408 135.634803 
L 295.560008 136.13453 
L 296.277607 136.301206 
L 296.995206 136.467582 
L 297.712806 136.634258 
L 298.430405 137.371281 
L 299.148005 138.108604 
L 299.865604 138.845627 
L 300.583203 139.118832 
L 301.300803 139.392335 
L 302.018402 139.939043 
L 302.736002 140.212247 
L 303.453601 140.485751 
L 304.1712 141.032459 
L 304.8888 141.386457 
L 305.606399 141.740456 
L 306.323998 141.917605 
L 307.041598 142.094754 
L 307.759197 142.448753 
L 308.476797 142.761756 
L 309.194396 143.075058 
L 309.911995 143.179492 
L 310.629595 143.283926 
L 311.347194 143.388061 
L 312.064794 143.701363 
L 312.782393 144.014366 
L 313.499992 144.327668 
L 314.217592 144.640671 
L 314.935191 144.953974 
L 315.652791 144.999158 
L 316.37039 145.044343 
L 317.087989 145.089528 
L 317.805589 145.135013 
L 317.805589 145.153266 
L 317.805589 145.153266 
L 317.087989 145.153266 
L 316.37039 145.153266 
L 315.652791 145.153266 
L 314.935191 145.153266 
L 314.217592 145.153266 
L 313.499992 145.153266 
L 312.782393 145.153266 
L 312.064794 145.153266 
L 311.347194 145.153266 
L 310.629595 145.153266 
L 309.911995 145.153266 
L 309.194396 145.153266 
L 308.476797 145.153266 
L 307.759197 145.153266 
L 307.041598 145.153266 
L 306.323998 145.153266 
L 305.606399 145.153266 
L 304.8888 145.153266 
L 304.1712 145.153266 
L 303.453601 145.153266 
L 302.736002 145.153266 
L 302.018402 145.153266 
L 301.300803 145.153266 
L 300.583203 145.153266 
L 299.865604 145.153266 
L 299.148005 145.153266 
L 298.430405 145.153266 
L 297.712806 145.153266 
L 296.995206 145.153266 
L 296.277607 145.153266 
L 295.560008 145.153266 
L 294.842408 145.153266 
L 294.124809 145.153266 
L 293.407209 145.153266 
L 292.68961 145.153266 
L 291.972011 145.153266 
L 291.254411 145.153266 
L 290.536812 145.153266 
L 289.819212 145.153266 
L 289.101613 145.153266 
L 288.384014 145.153266 
L 287.666414 145.153266 
L 286.948815 145.153266 
L 286.231215 145.153266 
L 285.513616 145.153266 
L 284.796017 145.153266 
L 284.078417 145.153266 
L 283.360818 145.153266 
L 282.643219 145.153266 
L 281.925619 145.153266 
L 281.20802 145.153266 
L 280.49042 145.153266 
L 279.772821 145.153266 
L 279.055222 145.153266 
L 278.337622 145.153266 
L 277.620023 145.153266 
L 276.902423 145.153266 
L 276.184824 145.153266 
L 275.467225 145.153266 
z
" clip-path="url(#pc2e165c382)" style="fill: #008000; fill-opacity: 0.3"/>
    <path d="M 388.847929 145.153266 
L 388.847929 145.068282 
L 389.565528 145.06529 
L 390.283127 145.052722 
L 391.000727 145.046737 
L 391.718326 145.040453 
L 392.435926 145.028185 
L 393.153525 144.776825 
L 393.871124 144.693038 
L 394.588724 144.609551 
L 395.306323 144.525764 
L 396.023923 144.400084 
L 396.741522 144.274404 
L 397.459121 144.64905 
L 398.176721 145.023995 
L 398.176721 145.153266 
L 398.176721 145.153266 
L 397.459121 145.153266 
L 396.741522 145.153266 
L 396.023923 145.153266 
L 395.306323 145.153266 
L 394.588724 145.153266 
L 393.871124 145.153266 
L 393.153525 145.153266 
L 392.435926 145.153266 
L 391.718326 145.153266 
L 391.000727 145.153266 
L 390.283127 145.153266 
L 389.565528 145.153266 
L 388.847929 145.153266 
z
" clip-path="url(#pc2e165c382)" style="fill: #008000; fill-opacity: 0.3"/>
    <path d="M 428.315895 145.153266 
L 428.315895 144.989583 
L 429.033495 144.776825 
L 429.751094 144.776825 
L 430.468693 144.776825 
L 431.186293 144.776825 
L 431.903892 144.776825 
L 432.621492 144.776825 
L 433.339091 144.776825 
L 433.339091 145.153266 
L 433.339091 145.153266 
L 432.621492 145.153266 
L 431.903892 145.153266 
L 431.186293 145.153266 
L 430.468693 145.153266 
L 429.751094 145.153266 
L 429.033495 145.153266 
L 428.315895 145.153266 
z
" clip-path="url(#pc2e165c382)" style="fill: #008000; fill-opacity: 0.3"/>
   </g>
   <g id="PolyCollection_8">
    <path d="M 241.740053 145.153266 
L 241.740053 145.233163 
L 242.457653 145.805007 
L 243.175252 146.37685 
L 243.892851 146.948395 
L 244.610451 147.234467 
L 245.32805 147.520239 
L 246.04565 148.092083 
L 246.763249 148.839879 
L 247.480848 149.587675 
L 248.198448 150.33577 
L 248.916047 151.083566 
L 249.633646 151.332831 
L 250.351246 151.582096 
L 251.068845 151.831362 
L 251.786445 152.273935 
L 252.504044 152.716209 
L 253.221643 153.158782 
L 253.939243 153.601355 
L 254.656842 154.043928 
L 255.374442 154.265065 
L 256.092041 154.486202 
L 256.80964 154.928775 
L 257.52724 154.880597 
L 258.244839 154.832121 
L 258.962439 154.815962 
L 259.680038 154.800102 
L 260.397637 154.783943 
L 261.115237 154.735467 
L 261.832836 154.68729 
L 262.550436 154.49847 
L 263.268035 154.309352 
L 263.985634 153.931714 
L 264.703234 153.553776 
L 265.420833 153.175838 
L 266.138433 152.170398 
L 266.856032 151.835252 
L 267.573631 151.500105 
L 268.291231 151.164959 
L 269.00883 150.566183 
L 269.726429 149.967707 
L 270.444029 149.368932 
L 271.161628 148.770156 
L 271.879228 148.369177 
L 272.596827 147.968198 
L 273.314426 147.16624 
L 274.032026 146.364282 
L 274.749625 145.562324 
L 274.749625 145.153266 
L 274.749625 145.153266 
L 274.032026 145.153266 
L 273.314426 145.153266 
L 272.596827 145.153266 
L 271.879228 145.153266 
L 271.161628 145.153266 
L 270.444029 145.153266 
L 269.726429 145.153266 
L 269.00883 145.153266 
L 268.291231 145.153266 
L 267.573631 145.153266 
L 266.856032 145.153266 
L 266.138433 145.153266 
L 265.420833 145.153266 
L 264.703234 145.153266 
L 263.985634 145.153266 
L 263.268035 145.153266 
L 262.550436 145.153266 
L 261.832836 145.153266 
L 261.115237 145.153266 
L 260.397637 145.153266 
L 259.680038 145.153266 
L 258.962439 145.153266 
L 258.244839 145.153266 
L 257.52724 145.153266 
L 256.80964 145.153266 
L 256.092041 145.153266 
L 255.374442 145.153266 
L 254.656842 145.153266 
L 253.939243 145.153266 
L 253.221643 145.153266 
L 252.504044 145.153266 
L 251.786445 145.153266 
L 251.068845 145.153266 
L 250.351246 145.153266 
L 249.633646 145.153266 
L 248.916047 145.153266 
L 248.198448 145.153266 
L 247.480848 145.153266 
L 246.763249 145.153266 
L 246.04565 145.153266 
L 245.32805 145.153266 
L 244.610451 145.153266 
L 243.892851 145.153266 
L 243.175252 145.153266 
L 242.457653 145.153266 
L 241.740053 145.153266 
z
" clip-path="url(#pc2e165c382)" style="fill: #ff0000; fill-opacity: 0.3"/>
    <path d="M 318.523188 145.153266 
L 318.523188 145.225382 
L 319.240788 145.270567 
L 319.958387 145.315752 
L 320.675986 145.406421 
L 321.393586 145.496791 
L 322.111185 145.492602 
L 322.828785 145.488712 
L 323.546384 145.484523 
L 324.263983 145.472254 
L 324.263983 145.153266 
L 324.263983 145.153266 
L 323.546384 145.153266 
L 322.828785 145.153266 
L 322.111185 145.153266 
L 321.393586 145.153266 
L 320.675986 145.153266 
L 319.958387 145.153266 
L 319.240788 145.153266 
L 318.523188 145.153266 
z
" clip-path="url(#pc2e165c382)" style="fill: #ff0000; fill-opacity: 0.3"/>
    <path d="M 398.89432 145.153266 
L 398.89432 145.773587 
L 399.611919 146.10993 
L 400.329519 146.278102 
L 401.047118 146.446274 
L 401.764718 146.782916 
L 402.482317 147.11926 
L 403.199916 147.455604 
L 403.917516 147.791947 
L 404.635115 147.925407 
L 405.352715 148.058568 
L 406.070314 148.325189 
L 406.787913 148.591811 
L 407.505513 148.858731 
L 408.223112 149.125352 
L 408.940712 149.391973 
L 409.658311 149.658594 
L 410.37591 149.768714 
L 411.09351 149.878534 
L 411.811109 149.988654 
L 412.528709 150.153833 
L 413.246308 150.318713 
L 413.963907 150.649072 
L 414.681507 150.979132 
L 415.399106 151.309191 
L 416.116705 151.081172 
L 416.834305 150.853152 
L 417.551904 150.396814 
L 418.269504 149.940776 
L 418.987103 149.484438 
L 419.704702 149.226494 
L 420.422302 148.96885 
L 421.139901 148.452964 
L 421.857501 148.19532 
L 422.5751 147.937377 
L 423.292699 147.42149 
L 424.010299 146.905903 
L 424.727898 146.693145 
L 425.445498 146.480088 
L 426.163097 146.054272 
L 426.880696 145.628456 
L 427.598296 145.20264 
L 427.598296 145.153266 
L 427.598296 145.153266 
L 426.880696 145.153266 
L 426.163097 145.153266 
L 425.445498 145.153266 
L 424.727898 145.153266 
L 424.010299 145.153266 
L 423.292699 145.153266 
L 422.5751 145.153266 
L 421.857501 145.153266 
L 421.139901 145.153266 
L 420.422302 145.153266 
L 419.704702 145.153266 
L 418.987103 145.153266 
L 418.269504 145.153266 
L 417.551904 145.153266 
L 416.834305 145.153266 
L 416.116705 145.153266 
L 415.399106 145.153266 
L 414.681507 145.153266 
L 413.963907 145.153266 
L 413.246308 145.153266 
L 412.528709 145.153266 
L 411.811109 145.153266 
L 411.09351 145.153266 
L 410.37591 145.153266 
L 409.658311 145.153266 
L 408.940712 145.153266 
L 408.223112 145.153266 
L 407.505513 145.153266 
L 406.787913 145.153266 
L 406.070314 145.153266 
L 405.352715 145.153266 
L 404.635115 145.153266 
L 403.917516 145.153266 
L 403.199916 145.153266 
L 402.482317 145.153266 
L 401.764718 145.153266 
L 401.047118 145.153266 
L 400.329519 145.153266 
L 399.611919 145.153266 
L 398.89432 145.153266 
z
" clip-path="url(#pc2e165c382)" style="fill: #ff0000; fill-opacity: 0.3"/>
   </g>
   <g id="matplotlib.axis_4">
    <g id="ytick_7">
     <g id="line2d_19">
      <path d="M 162.84 152.634217 
L 446.22 152.634217 
" clip-path="url(#pc2e165c382)" style="fill: none; stroke: #b0b0b0; stroke-width: 0.8; stroke-linecap: square"/>
     </g>
     <g id="line2d_20">
      <g>
       <use xlink:href="#mab086c7bd3" x="162.84" y="152.634217" style="stroke: #000000; stroke-width: 0.8"/>
      </g>
     </g>
     <g id="text_11">
      <!-- −250 -->
      <g transform="translate(118.759297 157.763163) scale(0.135 -0.135)">
       <defs>
        <path id="DejaVuSans-35" d="M 691 4666 
L 3169 4666 
L 3169 4134 
L 1269 4134 
L 1269 2991 
Q 1406 3038 1543 3061 
Q 1681 3084 1819 3084 
Q 2600 3084 3056 2656 
Q 3513 2228 3513 1497 
Q 3513 744 3044 326 
Q 2575 -91 1722 -91 
Q 1428 -91 1123 -41 
Q 819 9 494 109 
L 494 744 
Q 775 591 1075 516 
Q 1375 441 1709 441 
Q 2250 441 2565 725 
Q 2881 1009 2881 1497 
Q 2881 1984 2565 2268 
Q 2250 2553 1709 2553 
Q 1456 2553 1204 2497 
Q 953 2441 691 2322 
L 691 4666 
z
" transform="scale(0.015625)"/>
       </defs>
       <use xlink:href="#DejaVuSans-2212"/>
       <use xlink:href="#DejaVuSans-32" x="83.789062"/>
       <use xlink:href="#DejaVuSans-35" x="147.412109"/>
       <use xlink:href="#DejaVuSans-30" x="211.035156"/>
      </g>
     </g>
    </g>
    <g id="ytick_8">
     <g id="line2d_21">
      <path d="M 162.84 145.153266 
L 446.22 145.153266 
" clip-path="url(#pc2e165c382)" style="fill: none; stroke: #b0b0b0; stroke-width: 0.8; stroke-linecap: square"/>
     </g>
     <g id="line2d_22">
      <g>
       <use xlink:href="#mab086c7bd3" x="162.84" y="145.153266" style="stroke: #000000; stroke-width: 0.8"/>
      </g>
     </g>
     <g id="text_12">
      <!-- 0 -->
      <g transform="translate(147.250625 150.282211) scale(0.135 -0.135)">
       <use xlink:href="#DejaVuSans-30"/>
      </g>
     </g>
    </g>
    <g id="ytick_9">
     <g id="line2d_23">
      <path d="M 162.84 137.672315 
L 446.22 137.672315 
" clip-path="url(#pc2e165c382)" style="fill: none; stroke: #b0b0b0; stroke-width: 0.8; stroke-linecap: square"/>
     </g>
     <g id="line2d_24">
      <g>
       <use xlink:href="#mab086c7bd3" x="162.84" y="137.672315" style="stroke: #000000; stroke-width: 0.8"/>
      </g>
     </g>
     <g id="text_13">
      <!-- 250 -->
      <g transform="translate(130.071875 142.80126) scale(0.135 -0.135)">
       <use xlink:href="#DejaVuSans-32"/>
       <use xlink:href="#DejaVuSans-35" x="63.623047"/>
       <use xlink:href="#DejaVuSans-30" x="127.246094"/>
      </g>
     </g>
    </g>
    <g id="text_14">
     <!-- PEU_1-3 [kW] -->
     <g transform="translate(23.089219 141.389997) scale(0.135 -0.135)">
      <defs>
       <path id="DejaVuSans-33" d="M 2597 2516 
Q 3050 2419 3304 2112 
Q 3559 1806 3559 1356 
Q 3559 666 3084 287 
Q 2609 -91 1734 -91 
Q 1441 -91 1130 -33 
Q 819 25 488 141 
L 488 750 
Q 750 597 1062 519 
Q 1375 441 1716 441 
Q 2309 441 2620 675 
Q 2931 909 2931 1356 
Q 2931 1769 2642 2001 
Q 2353 2234 1838 2234 
L 1294 2234 
L 1294 2753 
L 1863 2753 
Q 2328 2753 2575 2939 
Q 2822 3125 2822 3475 
Q 2822 3834 2567 4026 
Q 2313 4219 1838 4219 
Q 1578 4219 1281 4162 
Q 984 4106 628 3988 
L 628 4550 
Q 988 4650 1302 4700 
Q 1616 4750 1894 4750 
Q 2613 4750 3031 4423 
Q 3450 4097 3450 3541 
Q 3450 3153 3228 2886 
Q 3006 2619 2597 2516 
z
" transform="scale(0.015625)"/>
      </defs>
      <use xlink:href="#DejaVuSans-50"/>
      <use xlink:href="#DejaVuSans-45" x="60.302734"/>
      <use xlink:href="#DejaVuSans-55" x="123.486328"/>
      <use xlink:href="#DejaVuSans-5f" x="196.679688"/>
      <use xlink:href="#DejaVuSans-31" x="246.679688"/>
      <use xlink:href="#DejaVuSans-2d" x="310.302734"/>
      <use xlink:href="#DejaVuSans-33" x="346.386719"/>
      <use xlink:href="#DejaVuSans-20" x="410.009766"/>
      <use xlink:href="#DejaVuSans-5b" x="441.796875"/>
      <use xlink:href="#DejaVuSans-6b" x="480.810547"/>
      <use xlink:href="#DejaVuSans-57" x="538.720703"/>
      <use xlink:href="#DejaVuSans-5d" x="637.597656"/>
     </g>
    </g>
   </g>
   <g id="line2d_25">
    <path d="M 175.720909 145.153266 
L 231.693662 145.153266 
L 232.411261 144.621819 
L 234.564059 144.313006 
L 235.281659 144.22473 
L 236.716857 143.695079 
L 238.152056 144.0796 
L 239.587255 144.848642 
L 241.740053 145.233163 
L 243.892851 146.948395 
L 245.32805 147.520239 
L 246.04565 148.092083 
L 248.916047 151.083566 
L 251.068845 151.831362 
L 254.656842 154.043928 
L 256.092041 154.486202 
L 256.80964 154.928775 
L 262.550436 154.49847 
L 263.268035 154.309352 
L 265.420833 153.175838 
L 266.138433 152.170398 
L 268.291231 151.164959 
L 271.161628 148.770156 
L 272.596827 147.968198 
L 275.467225 144.760366 
L 276.902423 144.141841 
L 277.620023 143.523316 
L 279.055222 142.904791 
L 283.360818 139.304958 
L 284.078417 138.179224 
L 285.513616 136.793752 
L 286.948815 136.101016 
L 288.384014 134.217312 
L 293.407209 134.635647 
L 295.560008 136.13453 
L 297.712806 136.634258 
L 299.865604 138.845627 
L 301.300803 139.392335 
L 302.018402 139.939043 
L 303.453601 140.485751 
L 304.1712 141.032459 
L 305.606399 141.740456 
L 307.041598 142.094754 
L 309.194396 143.075058 
L 311.347194 143.388061 
L 314.935191 144.953974 
L 320.675986 145.406421 
L 322.111185 145.492602 
L 324.263983 145.472254 
L 324.981583 145.153266 
L 391.000727 145.046737 
L 392.435926 145.028185 
L 393.153525 144.776825 
L 396.741522 144.274404 
L 398.176721 145.023995 
L 398.89432 145.773587 
L 399.611919 146.10993 
L 401.047118 146.446274 
L 403.917516 147.791947 
L 405.352715 148.058568 
L 409.658311 149.658594 
L 413.246308 150.318713 
L 415.399106 151.309191 
L 416.834305 150.853152 
L 418.987103 149.484438 
L 420.422302 148.96885 
L 421.139901 148.452964 
L 422.5751 147.937377 
L 424.010299 146.905903 
L 425.445498 146.480088 
L 427.598296 145.20264 
L 429.033495 144.776825 
L 433.339091 144.776825 
L 433.339091 144.776825 
" clip-path="url(#pc2e165c382)" style="fill: none; stroke: #1f77b4; stroke-width: 1.5; stroke-linecap: square"/>
   </g>
   <g id="line2d_26">
    <path d="M 162.84 145.153266 
L 446.22 145.153266 
" clip-path="url(#pc2e165c382)" style="fill: none; stroke: #000000; stroke-width: 1.5; stroke-linecap: square"/>
   </g>
   <g id="patch_18">
    <path d="M 162.84 155.964348 
L 162.84 133.181739 
" style="fill: none; stroke: #000000; stroke-width: 0.8; stroke-linejoin: miter; stroke-linecap: square"/>
   </g>
   <g id="patch_19">
    <path d="M 446.22 155.964348 
L 446.22 133.181739 
" style="fill: none; stroke: #000000; stroke-width: 0.8; stroke-linejoin: miter; stroke-linecap: square"/>
   </g>
   <g id="patch_20">
    <path d="M 162.84 155.964348 
L 446.22 155.964348 
" style="fill: none; stroke: #000000; stroke-width: 0.8; stroke-linejoin: miter; stroke-linecap: square"/>
   </g>
   <g id="patch_21">
    <path d="M 162.84 133.181739 
L 446.22 133.181739 
" style="fill: none; stroke: #000000; stroke-width: 0.8; stroke-linejoin: miter; stroke-linecap: square"/>
   </g>
  </g>
  <g id="axes_5">
   <g id="patch_22">
    <path d="M 162.84 190.138261 
L 446.22 190.138261 
L 446.22 167.355652 
L 162.84 167.355652 
z
" style="fill: #ffffff"/>
   </g>
   <g id="matplotlib.axis_5">
    <g id="ytick_10">
     <g id="line2d_27">
      <g>
       <use xlink:href="#mab086c7bd3" x="162.84" y="189.102688" style="stroke: #000000; stroke-width: 0.8"/>
      </g>
     </g>
     <g id="text_15">
      <!-- 0 -->
      <g transform="translate(147.250625 194.231633) scale(0.135 -0.135)">
       <use xlink:href="#DejaVuSans-30"/>
      </g>
     </g>
    </g>
    <g id="ytick_11">
     <g id="line2d_28">
      <g>
       <use xlink:href="#mab086c7bd3" x="162.84" y="168.391225" style="stroke: #000000; stroke-width: 0.8"/>
      </g>
     </g>
     <g id="text_16">
      <!-- 1 -->
      <g transform="translate(147.250625 173.520171) scale(0.135 -0.135)">
       <use xlink:href="#DejaVuSans-31"/>
      </g>
     </g>
    </g>
    <g id="text_17">
     <!-- SW_1-2 -->
     <g transform="translate(49.391719 175.56391) scale(0.135 -0.135)">
      <defs>
       <path id="DejaVuSans-53" d="M 3425 4513 
L 3425 3897 
Q 3066 4069 2747 4153 
Q 2428 4238 2131 4238 
Q 1616 4238 1336 4038 
Q 1056 3838 1056 3469 
Q 1056 3159 1242 3001 
Q 1428 2844 1947 2747 
L 2328 2669 
Q 3034 2534 3370 2195 
Q 3706 1856 3706 1288 
Q 3706 609 3251 259 
Q 2797 -91 1919 -91 
Q 1588 -91 1214 -16 
Q 841 59 441 206 
L 441 856 
Q 825 641 1194 531 
Q 1563 422 1919 422 
Q 2459 422 2753 634 
Q 3047 847 3047 1241 
Q 3047 1584 2836 1778 
Q 2625 1972 2144 2069 
L 1759 2144 
Q 1053 2284 737 2584 
Q 422 2884 422 3419 
Q 422 4038 858 4394 
Q 1294 4750 2059 4750 
Q 2388 4750 2728 4690 
Q 3069 4631 3425 4513 
z
" transform="scale(0.015625)"/>
      </defs>
      <use xlink:href="#DejaVuSans-53"/>
      <use xlink:href="#DejaVuSans-57" x="63.476562"/>
      <use xlink:href="#DejaVuSans-5f" x="162.353516"/>
      <use xlink:href="#DejaVuSans-31" x="212.353516"/>
      <use xlink:href="#DejaVuSans-2d" x="275.976562"/>
      <use xlink:href="#DejaVuSans-32" x="312.060547"/>
     </g>
    </g>
   </g>
   <g id="line2d_29">
    <path d="M 175.720909 189.102688 
L 401.047118 189.102688 
L 401.764718 168.391225 
L 433.339091 168.391225 
L 433.339091 168.391225 
" clip-path="url(#p9e6c3babc4)" style="fill: none; stroke: #1f77b4; stroke-width: 1.5; stroke-linecap: square"/>
   </g>
   <g id="line2d_30">
    <path d="M 175.720909 168.391225 
L 231.693662 168.391225 
L 232.411261 189.102688 
L 239.587255 189.102688 
L 240.304854 168.391225 
L 315.652791 168.391225 
L 316.37039 189.102688 
L 324.263983 189.102688 
L 324.981583 168.391225 
L 389.565528 168.391225 
L 390.283127 189.102688 
L 391.000727 168.391225 
L 398.89432 168.391225 
L 399.611919 189.102688 
L 433.339091 189.102688 
L 433.339091 189.102688 
" clip-path="url(#p9e6c3babc4)" style="fill: none; stroke: #ff7f0e; stroke-width: 1.5; stroke-linecap: square"/>
   </g>
   <g id="patch_23">
    <path d="M 162.84 190.138261 
L 162.84 167.355652 
" style="fill: none; stroke: #000000; stroke-width: 0.8; stroke-linejoin: miter; stroke-linecap: square"/>
   </g>
   <g id="patch_24">
    <path d="M 446.22 190.138261 
L 446.22 167.355652 
" style="fill: none; stroke: #000000; stroke-width: 0.8; stroke-linejoin: miter; stroke-linecap: square"/>
   </g>
   <g id="patch_25">
    <path d="M 162.84 190.138261 
L 446.22 190.138261 
" style="fill: none; stroke: #000000; stroke-width: 0.8; stroke-linejoin: miter; stroke-linecap: square"/>
   </g>
   <g id="patch_26">
    <path d="M 162.84 167.355652 
L 446.22 167.355652 
" style="fill: none; stroke: #000000; stroke-width: 0.8; stroke-linejoin: miter; stroke-linecap: square"/>
   </g>
  </g>
  <g id="axes_6">
   <g id="patch_27">
    <path d="M 162.84 224.312174 
L 446.22 224.312174 
L 446.22 201.529565 
L 162.84 201.529565 
z
" style="fill: #ffffff"/>
   </g>
   <g id="matplotlib.axis_6">
    <g id="ytick_12">
     <g id="line2d_31">
      <g>
       <use xlink:href="#mab086c7bd3" x="162.84" y="223.276601" style="stroke: #000000; stroke-width: 0.8"/>
      </g>
     </g>
     <g id="text_18">
      <!-- 0 -->
      <g transform="translate(147.250625 228.405546) scale(0.135 -0.135)">
       <use xlink:href="#DejaVuSans-30"/>
      </g>
     </g>
    </g>
    <g id="ytick_13">
     <g id="line2d_32">
      <g>
       <use xlink:href="#mab086c7bd3" x="162.84" y="202.565138" style="stroke: #000000; stroke-width: 0.8"/>
      </g>
     </g>
     <g id="text_19">
      <!-- 1 -->
      <g transform="translate(147.250625 207.694084) scale(0.135 -0.135)">
       <use xlink:href="#DejaVuSans-31"/>
      </g>
     </g>
    </g>
    <g id="text_20">
     <!-- SW_1-4 -->
     <g transform="translate(49.391719 209.737823) scale(0.135 -0.135)">
      <use xlink:href="#DejaVuSans-53"/>
      <use xlink:href="#DejaVuSans-57" x="63.476562"/>
      <use xlink:href="#DejaVuSans-5f" x="162.353516"/>
      <use xlink:href="#DejaVuSans-31" x="212.353516"/>
      <use xlink:href="#DejaVuSans-2d" x="275.976562"/>
      <use xlink:href="#DejaVuSans-34" x="312.060547"/>
     </g>
    </g>
   </g>
   <g id="line2d_33">
    <path d="M 175.720909 223.276601 
L 274.749625 223.276601 
L 275.467225 202.565138 
L 312.782393 202.565138 
L 313.499992 223.276601 
L 398.89432 223.276601 
L 399.611919 202.565138 
L 433.339091 202.565138 
L 433.339091 202.565138 
" clip-path="url(#pafa81eb81d)" style="fill: none; stroke: #1f77b4; stroke-width: 1.5; stroke-linecap: square"/>
   </g>
   <g id="line2d_34">
    <path d="M 175.720909 202.565138 
L 239.587255 202.565138 
L 240.304854 223.276601 
L 317.087989 223.276601 
L 317.805589 202.565138 
L 398.176721 202.565138 
L 398.89432 223.276601 
L 433.339091 223.276601 
L 433.339091 223.276601 
" clip-path="url(#pafa81eb81d)" style="fill: none; stroke: #ff7f0e; stroke-width: 1.5; stroke-linecap: square"/>
   </g>
   <g id="patch_28">
    <path d="M 162.84 224.312174 
L 162.84 201.529565 
" style="fill: none; stroke: #000000; stroke-width: 0.8; stroke-linejoin: miter; stroke-linecap: square"/>
   </g>
   <g id="patch_29">
    <path d="M 446.22 224.312174 
L 446.22 201.529565 
" style="fill: none; stroke: #000000; stroke-width: 0.8; stroke-linejoin: miter; stroke-linecap: square"/>
   </g>
   <g id="patch_30">
    <path d="M 162.84 224.312174 
L 446.22 224.312174 
" style="fill: none; stroke: #000000; stroke-width: 0.8; stroke-linejoin: miter; stroke-linecap: square"/>
   </g>
   <g id="patch_31">
    <path d="M 162.84 201.529565 
L 446.22 201.529565 
" style="fill: none; stroke: #000000; stroke-width: 0.8; stroke-linejoin: miter; stroke-linecap: square"/>
   </g>
  </g>
  <g id="axes_7">
   <g id="patch_32">
    <path d="M 162.84 258.486087 
L 446.22 258.486087 
L 446.22 235.703478 
L 162.84 235.703478 
z
" style="fill: #ffffff"/>
   </g>
   <g id="matplotlib.axis_7">
    <g id="ytick_14">
     <g id="line2d_35">
      <g>
       <use xlink:href="#mab086c7bd3" x="162.84" y="257.450514" style="stroke: #000000; stroke-width: 0.8"/>
      </g>
     </g>
     <g id="text_21">
      <!-- 0 -->
      <g transform="translate(147.250625 262.579459) scale(0.135 -0.135)">
       <use xlink:href="#DejaVuSans-30"/>
      </g>
     </g>
    </g>
    <g id="ytick_15">
     <g id="line2d_36">
      <g>
       <use xlink:href="#mab086c7bd3" x="162.84" y="236.739051" style="stroke: #000000; stroke-width: 0.8"/>
      </g>
     </g>
     <g id="text_22">
      <!-- 1 -->
      <g transform="translate(147.250625 241.867997) scale(0.135 -0.135)">
       <use xlink:href="#DejaVuSans-31"/>
      </g>
     </g>
    </g>
    <g id="text_23">
     <!-- SW_1-3 -->
     <g transform="translate(49.391719 243.911736) scale(0.135 -0.135)">
      <use xlink:href="#DejaVuSans-53"/>
      <use xlink:href="#DejaVuSans-57" x="63.476562"/>
      <use xlink:href="#DejaVuSans-5f" x="162.353516"/>
      <use xlink:href="#DejaVuSans-31" x="212.353516"/>
      <use xlink:href="#DejaVuSans-2d" x="275.976562"/>
      <use xlink:href="#DejaVuSans-33" x="312.060547"/>
     </g>
    </g>
   </g>
   <g id="line2d_37">
    <path d="M 175.720909 257.450514 
L 399.611919 257.450514 
L 400.329519 236.739051 
L 426.880696 236.739051 
L 427.598296 257.450514 
L 433.339091 257.450514 
L 433.339091 257.450514 
" clip-path="url(#pc63a420275)" style="fill: none; stroke: #1f77b4; stroke-width: 1.5; stroke-linecap: square"/>
   </g>
   <g id="line2d_38">
    <path d="M 175.720909 236.739051 
L 241.022454 236.739051 
L 241.740053 257.450514 
L 274.749625 257.450514 
L 275.467225 236.739051 
L 317.805589 236.739051 
L 318.523188 257.450514 
L 324.263983 257.450514 
L 324.981583 236.739051 
L 398.176721 236.739051 
L 398.89432 257.450514 
L 427.598296 257.450514 
L 428.315895 236.739051 
L 433.339091 236.739051 
L 433.339091 236.739051 
" clip-path="url(#pc63a420275)" style="fill: none; stroke: #ff7f0e; stroke-width: 1.5; stroke-linecap: square"/>
   </g>
   <g id="patch_33">
    <path d="M 162.84 258.486087 
L 162.84 235.703478 
" style="fill: none; stroke: #000000; stroke-width: 0.8; stroke-linejoin: miter; stroke-linecap: square"/>
   </g>
   <g id="patch_34">
    <path d="M 446.22 258.486087 
L 446.22 235.703478 
" style="fill: none; stroke: #000000; stroke-width: 0.8; stroke-linejoin: miter; stroke-linecap: square"/>
   </g>
   <g id="patch_35">
    <path d="M 162.84 258.486087 
L 446.22 258.486087 
" style="fill: none; stroke: #000000; stroke-width: 0.8; stroke-linejoin: miter; stroke-linecap: square"/>
   </g>
   <g id="patch_36">
    <path d="M 162.84 235.703478 
L 446.22 235.703478 
" style="fill: none; stroke: #000000; stroke-width: 0.8; stroke-linejoin: miter; stroke-linecap: square"/>
   </g>
  </g>
  <g id="axes_8">
   <g id="patch_37">
    <path d="M 162.84 292.66 
L 446.22 292.66 
L 446.22 269.877391 
L 162.84 269.877391 
z
" style="fill: #ffffff"/>
   </g>
   <g id="matplotlib.axis_8">
    <g id="xtick_1">
     <g id="line2d_39">
      <defs>
       <path id="m7502b69a53" d="M 0 0 
L 0 3.5 
" style="stroke: #000000; stroke-width: 0.8"/>
      </defs>
      <g>
       <use xlink:href="#m7502b69a53" x="175.720909" y="292.66" style="stroke: #000000; stroke-width: 0.8"/>
      </g>
     </g>
     <g id="text_24">
      <!-- 00 -->
      <g transform="translate(167.131534 309.917891) scale(0.135 -0.135)">
       <use xlink:href="#DejaVuSans-30"/>
       <use xlink:href="#DejaVuSans-30" x="63.623047"/>
      </g>
     </g>
    </g>
    <g id="xtick_2">
     <g id="line2d_40">
      <g>
       <use xlink:href="#m7502b69a53" x="208.012882" y="292.66" style="stroke: #000000; stroke-width: 0.8"/>
      </g>
     </g>
     <g id="text_25">
      <!-- 03 -->
      <g transform="translate(199.423507 309.917891) scale(0.135 -0.135)">
       <use xlink:href="#DejaVuSans-30"/>
       <use xlink:href="#DejaVuSans-33" x="63.623047"/>
      </g>
     </g>
    </g>
    <g id="xtick_3">
     <g id="line2d_41">
      <g>
       <use xlink:href="#m7502b69a53" x="240.304854" y="292.66" style="stroke: #000000; stroke-width: 0.8"/>
      </g>
     </g>
     <g id="text_26">
      <!-- 06 -->
      <g transform="translate(231.715479 309.917891) scale(0.135 -0.135)">
       <defs>
        <path id="DejaVuSans-36" d="M 2113 2584 
Q 1688 2584 1439 2293 
Q 1191 2003 1191 1497 
Q 1191 994 1439 701 
Q 1688 409 2113 409 
Q 2538 409 2786 701 
Q 3034 994 3034 1497 
Q 3034 2003 2786 2293 
Q 2538 2584 2113 2584 
z
M 3366 4563 
L 3366 3988 
Q 3128 4100 2886 4159 
Q 2644 4219 2406 4219 
Q 1781 4219 1451 3797 
Q 1122 3375 1075 2522 
Q 1259 2794 1537 2939 
Q 1816 3084 2150 3084 
Q 2853 3084 3261 2657 
Q 3669 2231 3669 1497 
Q 3669 778 3244 343 
Q 2819 -91 2113 -91 
Q 1303 -91 875 529 
Q 447 1150 447 2328 
Q 447 3434 972 4092 
Q 1497 4750 2381 4750 
Q 2619 4750 2861 4703 
Q 3103 4656 3366 4563 
z
" transform="scale(0.015625)"/>
       </defs>
       <use xlink:href="#DejaVuSans-30"/>
       <use xlink:href="#DejaVuSans-36" x="63.623047"/>
      </g>
     </g>
    </g>
    <g id="xtick_4">
     <g id="line2d_42">
      <g>
       <use xlink:href="#m7502b69a53" x="272.596827" y="292.66" style="stroke: #000000; stroke-width: 0.8"/>
      </g>
     </g>
     <g id="text_27">
      <!-- 09 -->
      <g transform="translate(264.007452 309.917891) scale(0.135 -0.135)">
       <defs>
        <path id="DejaVuSans-39" d="M 703 97 
L 703 672 
Q 941 559 1184 500 
Q 1428 441 1663 441 
Q 2288 441 2617 861 
Q 2947 1281 2994 2138 
Q 2813 1869 2534 1725 
Q 2256 1581 1919 1581 
Q 1219 1581 811 2004 
Q 403 2428 403 3163 
Q 403 3881 828 4315 
Q 1253 4750 1959 4750 
Q 2769 4750 3195 4129 
Q 3622 3509 3622 2328 
Q 3622 1225 3098 567 
Q 2575 -91 1691 -91 
Q 1453 -91 1209 -44 
Q 966 3 703 97 
z
M 1959 2075 
Q 2384 2075 2632 2365 
Q 2881 2656 2881 3163 
Q 2881 3666 2632 3958 
Q 2384 4250 1959 4250 
Q 1534 4250 1286 3958 
Q 1038 3666 1038 3163 
Q 1038 2656 1286 2365 
Q 1534 2075 1959 2075 
z
" transform="scale(0.015625)"/>
       </defs>
       <use xlink:href="#DejaVuSans-30"/>
       <use xlink:href="#DejaVuSans-39" x="63.623047"/>
      </g>
     </g>
    </g>
    <g id="xtick_5">
     <g id="line2d_43">
      <g>
       <use xlink:href="#m7502b69a53" x="304.8888" y="292.66" style="stroke: #000000; stroke-width: 0.8"/>
      </g>
     </g>
     <g id="text_28">
      <!-- 12 -->
      <g transform="translate(296.299425 309.917891) scale(0.135 -0.135)">
       <use xlink:href="#DejaVuSans-31"/>
       <use xlink:href="#DejaVuSans-32" x="63.623047"/>
      </g>
     </g>
    </g>
    <g id="xtick_6">
     <g id="line2d_44">
      <g>
       <use xlink:href="#m7502b69a53" x="337.180772" y="292.66" style="stroke: #000000; stroke-width: 0.8"/>
      </g>
     </g>
     <g id="text_29">
      <!-- 15 -->
      <g transform="translate(328.591397 309.917891) scale(0.135 -0.135)">
       <use xlink:href="#DejaVuSans-31"/>
       <use xlink:href="#DejaVuSans-35" x="63.623047"/>
      </g>
     </g>
    </g>
    <g id="xtick_7">
     <g id="line2d_45">
      <g>
       <use xlink:href="#m7502b69a53" x="369.472745" y="292.66" style="stroke: #000000; stroke-width: 0.8"/>
      </g>
     </g>
     <g id="text_30">
      <!-- 18 -->
      <g transform="translate(360.88337 309.917891) scale(0.135 -0.135)">
       <defs>
        <path id="DejaVuSans-38" d="M 2034 2216 
Q 1584 2216 1326 1975 
Q 1069 1734 1069 1313 
Q 1069 891 1326 650 
Q 1584 409 2034 409 
Q 2484 409 2743 651 
Q 3003 894 3003 1313 
Q 3003 1734 2745 1975 
Q 2488 2216 2034 2216 
z
M 1403 2484 
Q 997 2584 770 2862 
Q 544 3141 544 3541 
Q 544 4100 942 4425 
Q 1341 4750 2034 4750 
Q 2731 4750 3128 4425 
Q 3525 4100 3525 3541 
Q 3525 3141 3298 2862 
Q 3072 2584 2669 2484 
Q 3125 2378 3379 2068 
Q 3634 1759 3634 1313 
Q 3634 634 3220 271 
Q 2806 -91 2034 -91 
Q 1263 -91 848 271 
Q 434 634 434 1313 
Q 434 1759 690 2068 
Q 947 2378 1403 2484 
z
M 1172 3481 
Q 1172 3119 1398 2916 
Q 1625 2713 2034 2713 
Q 2441 2713 2670 2916 
Q 2900 3119 2900 3481 
Q 2900 3844 2670 4047 
Q 2441 4250 2034 4250 
Q 1625 4250 1398 4047 
Q 1172 3844 1172 3481 
z
" transform="scale(0.015625)"/>
       </defs>
       <use xlink:href="#DejaVuSans-31"/>
       <use xlink:href="#DejaVuSans-38" x="63.623047"/>
      </g>
     </g>
    </g>
    <g id="xtick_8">
     <g id="line2d_46">
      <g>
       <use xlink:href="#m7502b69a53" x="401.764718" y="292.66" style="stroke: #000000; stroke-width: 0.8"/>
      </g>
     </g>
     <g id="text_31">
      <!-- 21 -->
      <g transform="translate(393.175343 309.917891) scale(0.135 -0.135)">
       <use xlink:href="#DejaVuSans-32"/>
       <use xlink:href="#DejaVuSans-31" x="63.623047"/>
      </g>
     </g>
    </g>
    <g id="xtick_9">
     <g id="line2d_47">
      <g>
       <use xlink:href="#m7502b69a53" x="434.05669" y="292.66" style="stroke: #000000; stroke-width: 0.8"/>
      </g>
     </g>
     <g id="text_32">
      <!-- 00 -->
      <g transform="translate(425.467315 309.917891) scale(0.135 -0.135)">
       <use xlink:href="#DejaVuSans-30"/>
       <use xlink:href="#DejaVuSans-30" x="63.623047"/>
      </g>
     </g>
    </g>
    <g id="text_33">
     <!-- Time [Hours] -->
     <g transform="translate(260.826914 326.983359) scale(0.135 -0.135)">
      <defs>
       <path id="DejaVuSans-54" d="M -19 4666 
L 3928 4666 
L 3928 4134 
L 2272 4134 
L 2272 0 
L 1638 0 
L 1638 4134 
L -19 4134 
L -19 4666 
z
" transform="scale(0.015625)"/>
       <path id="DejaVuSans-6d" d="M 3328 2828 
Q 3544 3216 3844 3400 
Q 4144 3584 4550 3584 
Q 5097 3584 5394 3201 
Q 5691 2819 5691 2113 
L 5691 0 
L 5113 0 
L 5113 2094 
Q 5113 2597 4934 2840 
Q 4756 3084 4391 3084 
Q 3944 3084 3684 2787 
Q 3425 2491 3425 1978 
L 3425 0 
L 2847 0 
L 2847 2094 
Q 2847 2600 2669 2842 
Q 2491 3084 2119 3084 
Q 1678 3084 1418 2786 
Q 1159 2488 1159 1978 
L 1159 0 
L 581 0 
L 581 3500 
L 1159 3500 
L 1159 2956 
Q 1356 3278 1631 3431 
Q 1906 3584 2284 3584 
Q 2666 3584 2933 3390 
Q 3200 3197 3328 2828 
z
" transform="scale(0.015625)"/>
       <path id="DejaVuSans-65" d="M 3597 1894 
L 3597 1613 
L 953 1613 
Q 991 1019 1311 708 
Q 1631 397 2203 397 
Q 2534 397 2845 478 
Q 3156 559 3463 722 
L 3463 178 
Q 3153 47 2828 -22 
Q 2503 -91 2169 -91 
Q 1331 -91 842 396 
Q 353 884 353 1716 
Q 353 2575 817 3079 
Q 1281 3584 2069 3584 
Q 2775 3584 3186 3129 
Q 3597 2675 3597 1894 
z
M 3022 2063 
Q 3016 2534 2758 2815 
Q 2500 3097 2075 3097 
Q 1594 3097 1305 2825 
Q 1016 2553 972 2059 
L 3022 2063 
z
" transform="scale(0.015625)"/>
       <path id="DejaVuSans-48" d="M 628 4666 
L 1259 4666 
L 1259 2753 
L 3553 2753 
L 3553 4666 
L 4184 4666 
L 4184 0 
L 3553 0 
L 3553 2222 
L 1259 2222 
L 1259 0 
L 628 0 
L 628 4666 
z
" transform="scale(0.015625)"/>
       <path id="DejaVuSans-75" d="M 544 1381 
L 544 3500 
L 1119 3500 
L 1119 1403 
Q 1119 906 1312 657 
Q 1506 409 1894 409 
Q 2359 409 2629 706 
Q 2900 1003 2900 1516 
L 2900 3500 
L 3475 3500 
L 3475 0 
L 2900 0 
L 2900 538 
Q 2691 219 2414 64 
Q 2138 -91 1772 -91 
Q 1169 -91 856 284 
Q 544 659 544 1381 
z
M 1991 3584 
L 1991 3584 
z
" transform="scale(0.015625)"/>
       <path id="DejaVuSans-73" d="M 2834 3397 
L 2834 2853 
Q 2591 2978 2328 3040 
Q 2066 3103 1784 3103 
Q 1356 3103 1142 2972 
Q 928 2841 928 2578 
Q 928 2378 1081 2264 
Q 1234 2150 1697 2047 
L 1894 2003 
Q 2506 1872 2764 1633 
Q 3022 1394 3022 966 
Q 3022 478 2636 193 
Q 2250 -91 1575 -91 
Q 1294 -91 989 -36 
Q 684 19 347 128 
L 347 722 
Q 666 556 975 473 
Q 1284 391 1588 391 
Q 1994 391 2212 530 
Q 2431 669 2431 922 
Q 2431 1156 2273 1281 
Q 2116 1406 1581 1522 
L 1381 1569 
Q 847 1681 609 1914 
Q 372 2147 372 2553 
Q 372 3047 722 3315 
Q 1072 3584 1716 3584 
Q 2034 3584 2315 3537 
Q 2597 3491 2834 3397 
z
" transform="scale(0.015625)"/>
      </defs>
      <use xlink:href="#DejaVuSans-54"/>
      <use xlink:href="#DejaVuSans-69" x="57.958984"/>
      <use xlink:href="#DejaVuSans-6d" x="85.742188"/>
      <use xlink:href="#DejaVuSans-65" x="183.154297"/>
      <use xlink:href="#DejaVuSans-20" x="244.677734"/>
      <use xlink:href="#DejaVuSans-5b" x="276.464844"/>
      <use xlink:href="#DejaVuSans-48" x="315.478516"/>
      <use xlink:href="#DejaVuSans-6f" x="390.673828"/>
      <use xlink:href="#DejaVuSans-75" x="451.855469"/>
      <use xlink:href="#DejaVuSans-72" x="515.234375"/>
      <use xlink:href="#DejaVuSans-73" x="556.347656"/>
      <use xlink:href="#DejaVuSans-5d" x="608.447266"/>
     </g>
    </g>
   </g>
   <g id="matplotlib.axis_9">
    <g id="ytick_16">
     <g id="line2d_48">
      <g>
       <use xlink:href="#mab086c7bd3" x="162.84" y="282.624943" style="stroke: #000000; stroke-width: 0.8"/>
      </g>
     </g>
     <g id="text_34">
      <!-- −25 -->
      <g transform="translate(127.348672 287.753888) scale(0.135 -0.135)">
       <use xlink:href="#DejaVuSans-2212"/>
       <use xlink:href="#DejaVuSans-32" x="83.789062"/>
       <use xlink:href="#DejaVuSans-35" x="147.412109"/>
      </g>
     </g>
    </g>
    <g id="ytick_17">
     <g id="line2d_49">
      <g>
       <use xlink:href="#mab086c7bd3" x="162.84" y="270.912964" style="stroke: #000000; stroke-width: 0.8"/>
      </g>
     </g>
     <g id="text_35">
      <!-- 0 -->
      <g transform="translate(147.250625 276.04191) scale(0.135 -0.135)">
       <use xlink:href="#DejaVuSans-30"/>
      </g>
     </g>
    </g>
    <g id="text_36">
     <!-- Balance [kW] -->
     <g transform="translate(32.431641 278.461118) scale(0.135 -0.135)">
      <defs>
       <path id="DejaVuSans-42" d="M 1259 2228 
L 1259 519 
L 2272 519 
Q 2781 519 3026 730 
Q 3272 941 3272 1375 
Q 3272 1813 3026 2020 
Q 2781 2228 2272 2228 
L 1259 2228 
z
M 1259 4147 
L 1259 2741 
L 2194 2741 
Q 2656 2741 2882 2914 
Q 3109 3088 3109 3444 
Q 3109 3797 2882 3972 
Q 2656 4147 2194 4147 
L 1259 4147 
z
M 628 4666 
L 2241 4666 
Q 2963 4666 3353 4366 
Q 3744 4066 3744 3513 
Q 3744 3084 3544 2831 
Q 3344 2578 2956 2516 
Q 3422 2416 3680 2098 
Q 3938 1781 3938 1306 
Q 3938 681 3513 340 
Q 3088 0 2303 0 
L 628 0 
L 628 4666 
z
" transform="scale(0.015625)"/>
       <path id="DejaVuSans-61" d="M 2194 1759 
Q 1497 1759 1228 1600 
Q 959 1441 959 1056 
Q 959 750 1161 570 
Q 1363 391 1709 391 
Q 2188 391 2477 730 
Q 2766 1069 2766 1631 
L 2766 1759 
L 2194 1759 
z
M 3341 1997 
L 3341 0 
L 2766 0 
L 2766 531 
Q 2569 213 2275 61 
Q 1981 -91 1556 -91 
Q 1019 -91 701 211 
Q 384 513 384 1019 
Q 384 1609 779 1909 
Q 1175 2209 1959 2209 
L 2766 2209 
L 2766 2266 
Q 2766 2663 2505 2880 
Q 2244 3097 1772 3097 
Q 1472 3097 1187 3025 
Q 903 2953 641 2809 
L 641 3341 
Q 956 3463 1253 3523 
Q 1550 3584 1831 3584 
Q 2591 3584 2966 3190 
Q 3341 2797 3341 1997 
z
" transform="scale(0.015625)"/>
       <path id="DejaVuSans-6c" d="M 603 4863 
L 1178 4863 
L 1178 0 
L 603 0 
L 603 4863 
z
" transform="scale(0.015625)"/>
       <path id="DejaVuSans-6e" d="M 3513 2113 
L 3513 0 
L 2938 0 
L 2938 2094 
Q 2938 2591 2744 2837 
Q 2550 3084 2163 3084 
Q 1697 3084 1428 2787 
Q 1159 2491 1159 1978 
L 1159 0 
L 581 0 
L 581 3500 
L 1159 3500 
L 1159 2956 
Q 1366 3272 1645 3428 
Q 1925 3584 2291 3584 
Q 2894 3584 3203 3211 
Q 3513 2838 3513 2113 
z
" transform="scale(0.015625)"/>
      </defs>
      <use xlink:href="#DejaVuSans-42"/>
      <use xlink:href="#DejaVuSans-61" x="68.603516"/>
      <use xlink:href="#DejaVuSans-6c" x="129.882812"/>
      <use xlink:href="#DejaVuSans-61" x="157.666016"/>
      <use xlink:href="#DejaVuSans-6e" x="218.945312"/>
      <use xlink:href="#DejaVuSans-63" x="282.324219"/>
      <use xlink:href="#DejaVuSans-65" x="337.304688"/>
      <use xlink:href="#DejaVuSans-20" x="398.828125"/>
      <use xlink:href="#DejaVuSans-5b" x="430.615234"/>
      <use xlink:href="#DejaVuSans-6b" x="469.628906"/>
      <use xlink:href="#DejaVuSans-57" x="527.539062"/>
      <use xlink:href="#DejaVuSans-5d" x="626.416016"/>
     </g>
    </g>
   </g>
   <g id="line2d_50">
    <path d="M 175.720909 270.912964 
L 238.152056 270.912964 
L 238.869656 272.847783 
L 239.587255 276.40354 
L 241.740053 279.963981 
L 242.457653 288.345073 
L 243.175252 270.912964 
L 317.805589 270.912964 
L 318.523188 272.041999 
L 319.958387 273.456806 
L 321.393586 276.291105 
L 323.546384 276.099028 
L 324.263983 275.906952 
L 324.981583 270.912964 
L 389.565528 270.912964 
L 390.283127 275.321353 
L 391.718326 280.755711 
L 393.153525 291.624427 
L 396.741522 291.601003 
L 398.176721 274.365656 
L 398.89432 270.912964 
L 433.339091 270.912964 
L 433.339091 270.912964 
" clip-path="url(#pfe1317c2f6)" style="fill: none; stroke: #1f77b4; stroke-width: 1.5; stroke-linecap: square"/>
   </g>
   <g id="patch_38">
    <path d="M 162.84 292.66 
L 162.84 269.877391 
" style="fill: none; stroke: #000000; stroke-width: 0.8; stroke-linejoin: miter; stroke-linecap: square"/>
   </g>
   <g id="patch_39">
    <path d="M 446.22 292.66 
L 446.22 269.877391 
" style="fill: none; stroke: #000000; stroke-width: 0.8; stroke-linejoin: miter; stroke-linecap: square"/>
   </g>
   <g id="patch_40">
    <path d="M 162.84 292.66 
L 446.22 292.66 
" style="fill: none; stroke: #000000; stroke-width: 0.8; stroke-linejoin: miter; stroke-linecap: square"/>
   </g>
   <g id="patch_41">
    <path d="M 162.84 269.877391 
L 446.22 269.877391 
" style="fill: none; stroke: #000000; stroke-width: 0.8; stroke-linejoin: miter; stroke-linecap: square"/>
   </g>
  </g>
 </g>
 <defs>
  <clipPath id="pc79904e8ac">
   <rect x="162.84" y="30.66" width="283.38" height="22.782609"/>
  </clipPath>
  <clipPath id="p091321f438">
   <rect x="162.84" y="64.833913" width="283.38" height="22.782609"/>
  </clipPath>
  <clipPath id="pb4649e1fb2">
   <rect x="162.84" y="99.007826" width="283.38" height="22.782609"/>
  </clipPath>
  <clipPath id="pc2e165c382">
   <rect x="162.84" y="133.181739" width="283.38" height="22.782609"/>
  </clipPath>
  <clipPath id="p9e6c3babc4">
   <rect x="162.84" y="167.355652" width="283.38" height="22.782609"/>
  </clipPath>
  <clipPath id="pafa81eb81d">
   <rect x="162.84" y="201.529565" width="283.38" height="22.782609"/>
  </clipPath>
  <clipPath id="pc63a420275">
   <rect x="162.84" y="235.703478" width="283.38" height="22.782609"/>
  </clipPath>
  <clipPath id="pfe1317c2f6">
   <rect x="162.84" y="269.877391" width="283.38" height="22.782609"/>
  </clipPath>
 </defs>
</svg>
